<?xml version="1.0" standalone="no"?>
<!DOCTYPE svg PUBLIC "-//W3C//DTD SVG 20010904//EN"
 "http://www.w3.org/TR/2001/REC-SVG-20010904/DTD/svg10.dtd">
<svg version="1.0" xmlns="http://www.w3.org/2000/svg"
 width="600.000000pt" height="600.000000pt" viewBox="0 0 600.000000 600.000000"
 preserveAspectRatio="xMidYMid meet">
<metadata>
Created by potrace 1.11, written by Peter Selinger 2001-2013
</metadata>
<g transform="translate(0.000000,600.000000) scale(0.100000,-0.100000)"
fill="#000000" stroke="none">
<path d="M947 5024 c-292 -53 -490 -234 -569 -520 -30 -112 -31 -357 -1 -495
32 -149 831 -3112 865 -3208 111 -316 290 -518 535 -603 58 -19 87 -23 198
-23 138 0 192 11 310 62 168 72 278 159 555 438 217 219 224 226 185 219 -64
-13 -372 -9 -460 5 -377 60 -691 218 -954 482 -256 255 -407 549 -479 929 -14
75 -16 242 -19 1408 l-4 1322 -42 -1 c-23 0 -77 -7 -120 -15z"/>
<path d="M1930 4456 c0 -229 3 -416 6 -416 4 0 29 16 57 36 72 52 208 118 305
148 239 75 665 75 942 1 306 -81 553 -225 780 -455 253 -256 415 -579 471
-940 15 -93 18 -388 6 -460 l-8 -45 162 160 c365 362 477 515 537 735 120 433
-145 802 -693 964 -66 20 -662 180 -1325 356 -663 176 -1213 323 -1222 326
-17 5 -18 -19 -18 -410z"/>
<path d="M2693 3451 c-294 -47 -544 -243 -655 -514 -80 -195 -78 -443 6 -637
102 -240 296 -408 554 -482 110 -32 314 -32 423 -1 373 107 619 429 619 806
-1 263 -108 490 -309 649 -141 113 -307 175 -485 183 -56 2 -124 0 -153 -4z"/>
</g>
</svg>
