<?xml version="1.0" encoding="utf-8"?>
<!-- Generator: Adobe Illustrator 22.0.1, SVG Export Plug-In . SVG Version: 6.00 Build 0)  -->
<svg version="1.1" id="Layer_1" xmlns="http://www.w3.org/2000/svg" xmlns:xlink="http://www.w3.org/1999/xlink" x="0px" y="0px"
	 width="1000px" height="392.4050903px" viewBox="0 0 1000 392.4050903" enable-background="new 0 0 1000 392.4050903"
	 xml:space="preserve">
<g id="Symbols">
	<g id="palveluntarjoajat" transform="translate(0.000000, -57.000000)">
		<g id="Group-12">
			<g id="telia_nav_logo" transform="translate(0.000000, 57.000000)">
				<path id="Combined-Shape" fill="#990AE3" d="M455.6961975,144.7784882c-4.7467957,0-10.28479-3.9557037-15.0316467-11.075943
					c-3.1645508-5.5379944-4.7468262-9.4936752-4.7468262-11.8670959c0-4.7468414,3.1645813-8.7025375,9.4936829-12.6582336
					s12.6582031-6.3291168,19.7784729-6.3291168h119.4620361c7.911438,0,11.0759888,3.1645584,11.0759888,10.2848129
					c0,7.9113922-2.3734741,15.0316391-6.3291626,22.1518936c-3.9556885,6.3291168-8.7025146,10.2848053-14.2405396,10.2848053
					H536.392395v132.1202393c0,7.9114075-2.3734131,15.0316772-6.3291626,22.1519165
					c-3.9556885,6.3291016-8.7025146,10.28479-14.2404785,10.28479c-4.7468567,0-10.2848206-3.9556885-15.0316772-11.0759583
					c-3.1645813-5.5379944-4.7468262-9.4936829-4.7468262-11.8670959v-142.405014H455.6961975z M601.2658691,252.3734283
					c2.3734131,9.4936676,6.3291016,16.6139069,13.4493408,22.1519012
					c7.1202393,5.5379639,15.8227539,8.7025146,25.3164063,8.7025146c8.7025146,0,18.196228-3.1645813,30.0633545-8.7025146
					c5.5379028-2.3734131,10.28479-3.9556885,15.0316162-3.9556885c6.3291626,0,9.4936523,3.1645508,9.4936523,8.7025146
					c0,4.7468262-0.7911377,10.28479-3.1645508,14.2404785c-2.3734741,4.7468262-4.7468262,7.9114075-8.7025146,10.2848206
					c-6.3291626,3.9556885-13.4493408,7.1202698-22.1519165,9.4936829
					c-7.911438,2.3734131-15.8228149,3.1645508-23.7341919,3.1645508c-13.4493408,0-26.107605-3.9556885-37.9747314-11.0759583
					c-11.0759277-7.1202698-20.5695801-16.6138916-26.8987427-28.4809875
					c-6.3291016-11.8670959-9.4936523-24.5253296-9.4936523-37.1835632c0-15.0316467,3.1646118-28.4810181,10.2848511-40.3480988
					c7.1202393-11.8670959,15.8228149-21.3607635,26.8987427-27.6898804
					c11.0759888-6.3291016,22.9430542-9.4936829,36.392395-9.4936829c12.6582031,0,24.5253296,3.164566,34.8101196,9.4936829
					c10.2848511,6.3291168,18.196228,14.240509,23.7341919,24.5253296
					c5.5379639,10.2848053,8.7025146,21.3607635,8.7025146,33.2278442c0,6.3291168-1.5822144,11.8670959-4.7468262,16.6139374
					c-3.1645508,4.7468262-6.3291016,7.1202393-10.28479,7.1202393h-87.0252686V252.3734283z M762.6582642,309.3354492
					c-8.7025146,0-16.6138916-3.1645508-22.9430542-10.28479c-6.3291016-7.1202698-9.4936523-15.0316467-9.4936523-24.5252991
					V120.2531738c0-3.9556961,3.1646118-8.7025375,8.7025146-11.8670883
					c6.3291626-3.9556961,12.6582642-5.5379791,18.9873657-5.5379791c7.1203003,0,11.0759888,3.1645584,11.0759888,9.4936752
					v149.5253143c0,2.3734131,0.7911377,4.7468262,1.5822144,6.3291321
					c0.7911377,1.5822754,3.1646118,3.1645508,5.5379639,3.9556885c3.1646118,1.5822754,4.7468262,3.9556885,4.7468262,7.911377
					c0,7.1202698-1.5822144,13.4493713-5.5379639,19.7785034
					C771.3607788,306.1708984,767.4050903,309.3354492,762.6582642,309.3354492z M822.7848511,141.6139374
					c-5.5379639,0-10.2848511-3.9557037-16.6138916-11.8670959c-3.9556885-5.5379715-5.5379639-10.2848129-5.5379639-13.4493637
					c0-4.7468414,3.1645508-9.4936752,10.2848511-13.4493713c7.1202393-3.9556961,14.2404785-6.3291092,22.1519165-6.3291092
					c8.7025146,0,12.6582031,3.9556961,12.6582031,11.075943c0,5.5379715-0.7911377,11.0759506-3.1645508,16.6139221
					c-2.3734741,5.5379791-5.5379639,9.4936829-8.7025146,12.6582336
					C829.9050903,140.0316467,825.9494019,141.6139374,822.7848511,141.6139374z M932.7532349,315.6645813
					c-14.2405396,0-26.8987427-3.955719-37.9747314-11.0759583c-11.0759277-7.1202698-20.5695801-16.6139221-26.8987427-28.4810181
					s-9.4936523-24.5253143-9.4936523-37.9746704c0-15.0316467,3.9556885-27.6898804,11.0759888-40.348114
					c7.1202393-11.8670807,16.6138916-21.3607635,28.480957-28.4810181
					c11.8671265-6.3291016,23.7341919-10.2848053,37.1835327-10.2848053c11.0759888,0,22.1519165,3.1645508,33.2278442,9.4936829
					c7.1202393-4.7468414,13.4493408-7.1202545,20.5695801-7.1202545c7.1203003,0,11.0759888,3.1645508,11.0759888,10.2848053
					v110.7595062c0,5.5379944-0.7911377,10.2848206-3.1645508,15.8227844
					c-2.3734741,4.7468262-4.7468262,8.7025452-7.911438,11.8670959c-3.1645508,3.1645813-6.3291016,3.9556885-8.7025146,3.9556885
					c-4.7468262,0-9.4936523-3.9556885-15.0316162-11.0759583c-1.5822754-3.1645508-3.1646118-6.3291016-3.9556885-8.7025146
					c-1.5822754,4.7468262-3.9557495,7.9114075-6.3291626,11.0759583c-2.3734741,3.1645813-5.5379639,5.5379944-8.7025146,6.3291016
					C942.2468872,314.8734436,937.500061,315.6645813,932.7532349,315.6645813z M206.4873505,337.0253296
					c81.4873505-33.2278442,125.0000153-79.9050903,145.5696259-118.6708832
					c-36.392395,106.0126495-113.1329041,174.0506439-168.5126648,174.0506439
					c-31.6455688,0-68.0379715-22.9430542-100.474678-54.588623l0,0
					C104.4303818,355.2215271,141.6139221,363.9240417,206.4873505,337.0253296z M822.7848511,309.3354492
					c-4.7468262,0-9.4936523-3.9556885-15.0316772-11.0759583c-3.1645508-4.7468262-4.7468262-8.7025146-4.7468262-11.0759583
					V178.0063477c0-3.9557037,3.1646118-8.7025452,9.4936523-11.8670959
					c6.3291626-3.9557037,12.6582031-5.5379791,19.7785034-5.5379791c7.1202393,0,11.0759277,3.1645508,11.0759277,10.2848053
					v108.3860779c0,5.5379639-0.7910767,10.28479-3.1645508,15.0316467
					c-2.3734131,4.7468262-4.7468262,8.7025146-7.911377,11.0759583
					C829.1140137,307.7531738,825.9494019,309.3354492,822.7848511,309.3354492z M212.8164673,192.2468414
					c-95.7278519,45.8860931-178.0063477,60.9177094-204.9050751,26.107605C3.164557,203.3227997,0,189.0822906,0,176.4240723
					C0,77.5316467,144.7784882,0,262.6582336,0c39.5569763,0,76.7405396,11.8670893,94.9367371,43.512661
					C368.6708984,85.4430389,304.588623,147.9430389,212.8164673,192.2468414z M256.3291321,294.3038025
					c-85.4430389,49.8417664-152.6898804,62.5000305-193.0379944,26.8987427
					c-17.4050636-20.5696106-32.4367065-43.5126648-44.3037987-66.4556732
					c33.2278481,36.3923798,106.8038025,23.7341766,205.6961975-23.7341766
					c81.4873505-39.5569611,143.1962128-99.683548,146.3607941-147.9430542
					c0.7911072,3.9556961,0.7911072,8.7025375,0.7911072,12.6582336c0,32.4367065-3.9556885,63.2911377-11.0759583,91.7721558
					C344.1455994,227.848114,307.7532043,265.0316467,256.3291321,294.3038025z M935.9177856,278.4810181
					c8.7025146,0,17.4050293-2.3734131,24.5253296-7.1202698v-67.2468262
					c-7.1203003-3.9557037-15.0316772-6.3291168-24.5253296-6.3291168c-11.0759277,0-20.5695801,3.9557037-27.6898804,11.075943
					c-7.911377,7.9113922-11.0759277,17.4050751-11.0759277,28.4810181c0,11.8670959,3.9556885,21.3607788,11.0759277,29.2721558
					C915.3481445,274.5253296,924.8418579,278.4810181,935.9177856,278.4810181z M636.8671265,193.0379791
					c-9.4936523,0-17.4050293,2.3734131-23.7341919,7.9113922c-6.3291016,5.5379791-10.2848511,12.6582336-11.8670654,21.3607788
					h68.0379639c0-8.7025452-3.9556885-15.0316467-9.4936523-21.3607788
					C653.4810181,195.4113922,645.5696411,193.0379791,636.8671265,193.0379791z"/>
			</g>
		</g>
	</g>
</g>
</svg>
