<?xml version="1.0" encoding="UTF-8" standalone="no"?><!DOCTYPE svg PUBLIC "-//W3C//DTD SVG 1.1//EN" "http://www.w3.org/Graphics/SVG/1.1/DTD/svg11.dtd"><svg width="100%" height="100%" viewBox="0 0 703 586" version="1.1" xmlns="http://www.w3.org/2000/svg" xmlns:xlink="http://www.w3.org/1999/xlink" xml:space="preserve" xmlns:serif="http://www.serif.com/" style="fill-rule:evenodd;clip-rule:evenodd;stroke-linejoin:round;stroke-miterlimit:1.41421;"><rect id="_72h" serif:id="72h" x="0" y="0" width="702.164" height="585.955" style="fill:none;"/><g><path d="M605.038,299.366c0,141.157 -114.853,256.017 -256.004,256.017c-141.137,-0.007 -255.996,-114.86 -255.996,-256.017c0,-141.158 114.859,-255.99 256.003,-255.99c51.596,0 101.832,15.767 144.141,44.588l39.339,-39.346l31.649,121.386l-121.407,-31.642l27.523,-27.542c-35.978,-23.147 -78.043,-35.85 -121.272,-35.85c-123.74,0 -224.402,100.662 -224.402,224.389c0,123.74 100.662,224.415 224.402,224.415c123.734,0 224.395,-100.675 224.395,-224.415l31.629,0l0,0.007Zm-245.641,-198.442l-15.801,0l0,31.676l15.801,0l0,-31.676Zm0,358.978l-15.801,0l0,31.676l15.801,0l0,-31.676Zm187.41,-155.754l0,-15.801l-31.69,0l0,15.801l31.69,0Zm-358.972,0l0,-15.801l-31.662,0l0,15.801l31.662,0Z" style="fill:#832280;fill-rule:nonzero;"/><text x="218.113px" y="378.986px" style="font-family:'Montserrat-Medium', 'Montserrat';font-weight:500;font-size:230.357px;fill:#832280;">72</text></g></svg>