<?xml version="1.0" encoding="UTF-8" standalone="no"?><!DOCTYPE svg PUBLIC "-//W3C//DTD SVG 1.1//EN" "http://www.w3.org/Graphics/SVG/1.1/DTD/svg11.dtd"><svg width="100%" height="100%" viewBox="0 0 643 640" version="1.1" xmlns="http://www.w3.org/2000/svg" xmlns:xlink="http://www.w3.org/1999/xlink" xml:space="preserve" xmlns:serif="http://www.serif.com/" style="fill-rule:evenodd;clip-rule:evenodd;stroke-linejoin:round;stroke-miterlimit:1.41421;"><rect id="Agile" x="0.766" y="0.297" width="641.46" height="639.675" style="fill:none;"/><path id="_1" serif:id="1" d="M611.371,312.893c0,-150.432 -128.577,-272.381 -287.185,-272.381l0,158.875c66.095,0 119.676,50.819 119.676,113.506l167.509,0Z" style="fill:url(#_Radial1);"/><path id="_2" serif:id="2" d="M324.186,40.512c-158.607,0 -287.184,121.949 -287.184,272.381l167.509,0c0,-62.687 53.58,-113.506 119.675,-113.506l0,-158.875Z" style="fill:url(#_Radial2);"/><path id="_3" serif:id="3" d="M37.002,312.893c0,150.432 128.577,272.382 287.184,272.382l0,-158.875c-66.095,0 -119.675,-50.819 -119.675,-113.507l-167.509,0Z" style="fill:url(#_Radial3);"/><path id="_4" serif:id="4" d="M324.186,585.275c158.608,0 287.185,-121.95 287.185,-272.382l-167.509,0c0,62.688 -53.581,113.507 -119.676,113.507l0,158.875Z" style="fill:url(#_Radial4);"/><g transform="matrix(1,0,0,1,-539.892,-740.636)"><path d="M777.502,1013.43l-7.2,0l0,-2.61l17.37,0l0,2.61l-7.2,0l0,18.39l-2.97,0l0,-18.39Z" style="fill:#003117;fill-rule:nonzero;"/><path d="M799.012,1015.77c2.02,0 3.625,0.585 4.815,1.755c1.19,1.17 1.785,2.885 1.785,5.145l0,9.15l-2.88,0l0,-8.82c0,-1.54 -0.37,-2.7 -1.11,-3.48c-0.74,-0.78 -1.8,-1.17 -3.18,-1.17c-1.56,0 -2.79,0.455 -3.69,1.365c-0.9,0.91 -1.35,2.215 -1.35,3.915l0,8.19l-2.88,0l0,-22.26l2.88,0l0,8.61c0.6,-0.76 1.385,-1.35 2.355,-1.77c0.97,-0.42 2.055,-0.63 3.255,-0.63Z" style="fill:#003117;fill-rule:nonzero;"/><path d="M825.412,1023.96c0,0.22 -0.02,0.51 -0.06,0.87l-12.9,0c0.18,1.4 0.795,2.525 1.845,3.375c1.05,0.85 2.355,1.275 3.915,1.275c1.9,0 3.43,-0.64 4.59,-1.92l1.59,1.86c-0.72,0.84 -1.615,1.48 -2.685,1.92c-1.07,0.44 -2.265,0.66 -3.585,0.66c-1.68,0 -3.17,-0.345 -4.47,-1.035c-1.3,-0.69 -2.305,-1.655 -3.015,-2.895c-0.71,-1.24 -1.065,-2.64 -1.065,-4.2c0,-1.54 0.345,-2.93 1.035,-4.17c0.69,-1.24 1.64,-2.205 2.85,-2.895c1.21,-0.69 2.575,-1.035 4.095,-1.035c1.52,0 2.875,0.345 4.065,1.035c1.19,0.69 2.12,1.655 2.79,2.895c0.67,1.24 1.005,2.66 1.005,4.26Zm-7.86,-5.76c-1.38,0 -2.535,0.42 -3.465,1.26c-0.93,0.84 -1.475,1.94 -1.635,3.3l10.2,0c-0.16,-1.34 -0.705,-2.435 -1.635,-3.285c-0.93,-0.85 -2.085,-1.275 -3.465,-1.275Z" style="fill:#003117;fill-rule:nonzero;"/><rect x="837.892" y="1010.82" width="3" height="21" style="fill:#003117;fill-rule:nonzero;"/><path d="M855.262,1015.77c2.02,0 3.625,0.585 4.815,1.755c1.19,1.17 1.785,2.885 1.785,5.145l0,9.15l-2.88,0l0,-8.82c0,-1.54 -0.37,-2.7 -1.11,-3.48c-0.74,-0.78 -1.8,-1.17 -3.18,-1.17c-1.56,0 -2.79,0.455 -3.69,1.365c-0.9,0.91 -1.35,2.215 -1.35,3.915l0,8.19l-2.88,0l0,-15.9l2.76,0l0,2.4c0.58,-0.82 1.365,-1.45 2.355,-1.89c0.99,-0.44 2.115,-0.66 3.375,-0.66Z" style="fill:#003117;fill-rule:nonzero;"/><path d="M874.222,1032c-1.62,0 -3.065,-0.35 -4.335,-1.05c-1.27,-0.7 -2.265,-1.665 -2.985,-2.895c-0.72,-1.23 -1.08,-2.625 -1.08,-4.185c0,-1.56 0.36,-2.955 1.08,-4.185c0.72,-1.23 1.715,-2.19 2.985,-2.88c1.27,-0.69 2.715,-1.035 4.335,-1.035c1.44,0 2.725,0.29 3.855,0.87c1.13,0.58 2.005,1.42 2.625,2.52l-2.19,1.41c-0.5,-0.76 -1.12,-1.33 -1.86,-1.71c-0.74,-0.38 -1.56,-0.57 -2.46,-0.57c-1.04,0 -1.975,0.23 -2.805,0.69c-0.83,0.46 -1.48,1.115 -1.95,1.965c-0.47,0.85 -0.705,1.825 -0.705,2.925c0,1.12 0.235,2.105 0.705,2.955c0.47,0.85 1.12,1.505 1.95,1.965c0.83,0.46 1.765,0.69 2.805,0.69c0.9,0 1.72,-0.19 2.46,-0.57c0.74,-0.38 1.36,-0.95 1.86,-1.71l2.19,1.38c-0.62,1.1 -1.495,1.945 -2.625,2.535c-1.13,0.59 -2.415,0.885 -3.855,0.885Z" style="fill:#003117;fill-rule:nonzero;"/><path d="M884.422,1015.92l2.88,0l0,15.9l-2.88,0l0,-15.9Zm1.44,-3.06c-0.56,0 -1.025,-0.18 -1.395,-0.54c-0.37,-0.36 -0.555,-0.8 -0.555,-1.32c0,-0.52 0.185,-0.965 0.555,-1.335c0.37,-0.37 0.835,-0.555 1.395,-0.555c0.56,0 1.025,0.175 1.395,0.525c0.37,0.35 0.555,0.785 0.555,1.305c0,0.54 -0.185,0.995 -0.555,1.365c-0.37,0.37 -0.835,0.555 -1.395,0.555Z" style="fill:#003117;fill-rule:nonzero;"/><path d="M907.792,1009.56l0,22.26l-2.76,0l0,-2.52c-0.64,0.88 -1.45,1.55 -2.43,2.01c-0.98,0.46 -2.06,0.69 -3.24,0.69c-1.54,0 -2.92,-0.34 -4.14,-1.02c-1.22,-0.68 -2.175,-1.635 -2.865,-2.865c-0.69,-1.23 -1.035,-2.645 -1.035,-4.245c0,-1.6 0.345,-3.01 1.035,-4.23c0.69,-1.22 1.645,-2.17 2.865,-2.85c1.22,-0.68 2.6,-1.02 4.14,-1.02c1.14,0 2.19,0.215 3.15,0.645c0.96,0.43 1.76,1.065 2.4,1.905l0,-8.76l2.88,0Zm-8.19,19.92c1,0 1.91,-0.235 2.73,-0.705c0.82,-0.47 1.46,-1.13 1.92,-1.98c0.46,-0.85 0.69,-1.825 0.69,-2.925c0,-1.1 -0.23,-2.075 -0.69,-2.925c-0.46,-0.85 -1.1,-1.505 -1.92,-1.965c-0.82,-0.46 -1.73,-0.69 -2.73,-0.69c-1.02,0 -1.935,0.23 -2.745,0.69c-0.81,0.46 -1.45,1.115 -1.92,1.965c-0.47,0.85 -0.705,1.825 -0.705,2.925c0,1.1 0.235,2.075 0.705,2.925c0.47,0.85 1.11,1.51 1.92,1.98c0.81,0.47 1.725,0.705 2.745,0.705Z" style="fill:#003117;fill-rule:nonzero;"/><path d="M927.622,1023.96c0,0.22 -0.02,0.51 -0.06,0.87l-12.9,0c0.18,1.4 0.795,2.525 1.845,3.375c1.05,0.85 2.355,1.275 3.915,1.275c1.9,0 3.43,-0.64 4.59,-1.92l1.59,1.86c-0.72,0.84 -1.615,1.48 -2.685,1.92c-1.07,0.44 -2.265,0.66 -3.585,0.66c-1.68,0 -3.17,-0.345 -4.47,-1.035c-1.3,-0.69 -2.305,-1.655 -3.015,-2.895c-0.71,-1.24 -1.065,-2.64 -1.065,-4.2c0,-1.54 0.345,-2.93 1.035,-4.17c0.69,-1.24 1.64,-2.205 2.85,-2.895c1.21,-0.69 2.575,-1.035 4.095,-1.035c1.52,0 2.875,0.345 4.065,1.035c1.19,0.69 2.12,1.655 2.79,2.895c0.67,1.24 1.005,2.66 1.005,4.26Zm-7.86,-5.76c-1.38,0 -2.535,0.42 -3.465,1.26c-0.93,0.84 -1.475,1.94 -1.635,3.3l10.2,0c-0.16,-1.34 -0.705,-2.435 -1.635,-3.285c-0.93,-0.85 -2.085,-1.275 -3.465,-1.275Z" style="fill:#003117;fill-rule:nonzero;"/><path d="M940.102,1015.77c2.02,0 3.625,0.585 4.815,1.755c1.19,1.17 1.785,2.885 1.785,5.145l0,9.15l-2.88,0l0,-8.82c0,-1.54 -0.37,-2.7 -1.11,-3.48c-0.74,-0.78 -1.8,-1.17 -3.18,-1.17c-1.56,0 -2.79,0.455 -3.69,1.365c-0.9,0.91 -1.35,2.215 -1.35,3.915l0,8.19l-2.88,0l0,-15.9l2.76,0l0,2.4c0.58,-0.82 1.365,-1.45 2.355,-1.89c0.99,-0.44 2.115,-0.66 3.375,-0.66Z" style="fill:#003117;fill-rule:nonzero;"/><path d="M960.982,1030.89c-0.42,0.36 -0.94,0.635 -1.56,0.825c-0.62,0.19 -1.26,0.285 -1.92,0.285c-1.6,0 -2.84,-0.43 -3.72,-1.29c-0.88,-0.86 -1.32,-2.09 -1.32,-3.69l0,-8.73l-2.7,0l0,-2.37l2.7,0l0,-3.48l2.88,0l0,3.48l4.56,0l0,2.37l-4.56,0l0,8.61c0,0.86 0.215,1.52 0.645,1.98c0.43,0.46 1.045,0.69 1.845,0.69c0.88,0 1.63,-0.25 2.25,-0.75l0.9,2.07Z" style="fill:#003117;fill-rule:nonzero;"/><path d="M848.662,1054.56l0,7.26l-2.97,0l0,-7.32l-8.34,-13.68l3.21,0l6.72,11.07l6.75,-11.07l2.97,0l-8.34,13.74Z" style="fill:#003117;fill-rule:nonzero;"/><path d="M864.622,1062c-1.58,0 -3,-0.35 -4.26,-1.05c-1.26,-0.7 -2.245,-1.665 -2.955,-2.895c-0.71,-1.23 -1.065,-2.625 -1.065,-4.185c0,-1.56 0.355,-2.955 1.065,-4.185c0.71,-1.23 1.695,-2.19 2.955,-2.88c1.26,-0.69 2.68,-1.035 4.26,-1.035c1.58,0 2.995,0.345 4.245,1.035c1.25,0.69 2.23,1.65 2.94,2.88c0.71,1.23 1.065,2.625 1.065,4.185c0,1.56 -0.355,2.955 -1.065,4.185c-0.71,1.23 -1.69,2.195 -2.94,2.895c-1.25,0.7 -2.665,1.05 -4.245,1.05Zm0,-2.52c1.02,0 1.935,-0.235 2.745,-0.705c0.81,-0.47 1.445,-1.13 1.905,-1.98c0.46,-0.85 0.69,-1.825 0.69,-2.925c0,-1.1 -0.23,-2.075 -0.69,-2.925c-0.46,-0.85 -1.095,-1.505 -1.905,-1.965c-0.81,-0.46 -1.725,-0.69 -2.745,-0.69c-1.02,0 -1.935,0.23 -2.745,0.69c-0.81,0.46 -1.45,1.115 -1.92,1.965c-0.47,0.85 -0.705,1.825 -0.705,2.925c0,1.1 0.235,2.075 0.705,2.925c0.47,0.85 1.11,1.51 1.92,1.98c0.81,0.47 1.725,0.705 2.745,0.705Z" style="fill:#003117;fill-rule:nonzero;"/><path d="M891.682,1045.92l0,15.9l-2.73,0l0,-2.4c-0.58,0.82 -1.345,1.455 -2.295,1.905c-0.95,0.45 -1.985,0.675 -3.105,0.675c-2.12,0 -3.79,-0.585 -5.01,-1.755c-1.22,-1.17 -1.83,-2.895 -1.83,-5.175l0,-9.15l2.88,0l0,8.82c0,1.54 0.37,2.705 1.11,3.495c0.74,0.79 1.8,1.185 3.18,1.185c1.52,0 2.72,-0.46 3.6,-1.38c0.88,-0.92 1.32,-2.22 1.32,-3.9l0,-8.22l2.88,0Z" style="fill:#003117;fill-rule:nonzero;"/><path d="M807.787,1091.82l-4.53,-6.45c-0.56,0.04 -1,0.06 -1.32,0.06l-5.19,0l0,6.39l-3,0l0,-21l8.19,0c2.72,0 4.86,0.65 6.42,1.95c1.56,1.3 2.34,3.09 2.34,5.37c0,1.62 -0.4,3 -1.2,4.14c-0.8,1.14 -1.94,1.97 -3.42,2.49l4.98,7.05l-3.27,0Zm-5.94,-8.94c1.9,0 3.35,-0.41 4.35,-1.23c1,-0.82 1.5,-1.99 1.5,-3.51c0,-1.52 -0.5,-2.685 -1.5,-3.495c-1,-0.81 -2.45,-1.215 -4.35,-1.215l-5.1,0l0,9.45l5.1,0Z" style="fill:#003117;fill-rule:nonzero;"/><path d="M829.507,1083.96c0,0.22 -0.02,0.51 -0.06,0.87l-12.9,0c0.18,1.4 0.795,2.525 1.845,3.375c1.05,0.85 2.355,1.275 3.915,1.275c1.9,0 3.43,-0.64 4.59,-1.92l1.59,1.86c-0.72,0.84 -1.615,1.48 -2.685,1.92c-1.07,0.44 -2.265,0.66 -3.585,0.66c-1.68,0 -3.17,-0.345 -4.47,-1.035c-1.3,-0.69 -2.305,-1.655 -3.015,-2.895c-0.71,-1.24 -1.065,-2.64 -1.065,-4.2c0,-1.54 0.345,-2.93 1.035,-4.17c0.69,-1.24 1.64,-2.205 2.85,-2.895c1.21,-0.69 2.575,-1.035 4.095,-1.035c1.52,0 2.875,0.345 4.065,1.035c1.19,0.69 2.12,1.655 2.79,2.895c0.67,1.24 1.005,2.66 1.005,4.26Zm-7.86,-5.76c-1.38,0 -2.535,0.42 -3.465,1.26c-0.93,0.84 -1.475,1.94 -1.635,3.3l10.2,0c-0.16,-1.34 -0.705,-2.435 -1.635,-3.285c-0.93,-0.85 -2.085,-1.275 -3.465,-1.275Z" style="fill:#003117;fill-rule:nonzero;"/><path d="M848.707,1075.92l0,13.74c0,2.78 -0.69,4.835 -2.07,6.165c-1.38,1.33 -3.44,1.995 -6.18,1.995c-1.5,0 -2.93,-0.205 -4.29,-0.615c-1.36,-0.41 -2.46,-0.995 -3.3,-1.755l1.38,-2.22c0.74,0.64 1.655,1.145 2.745,1.515c1.09,0.37 2.215,0.555 3.375,0.555c1.86,0 3.235,-0.44 4.125,-1.32c0.89,-0.88 1.335,-2.22 1.335,-4.02l0,-1.26c-0.68,0.82 -1.515,1.435 -2.505,1.845c-0.99,0.41 -2.065,0.615 -3.225,0.615c-1.52,0 -2.895,-0.325 -4.125,-0.975c-1.23,-0.65 -2.195,-1.56 -2.895,-2.73c-0.7,-1.17 -1.05,-2.505 -1.05,-4.005c0,-1.5 0.35,-2.835 1.05,-4.005c0.7,-1.17 1.665,-2.075 2.895,-2.715c1.23,-0.64 2.605,-0.96 4.125,-0.96c1.2,0 2.315,0.22 3.345,0.66c1.03,0.44 1.875,1.09 2.535,1.95l0,-2.46l2.73,0Zm-8.28,12.72c1.04,0 1.975,-0.22 2.805,-0.66c0.83,-0.44 1.48,-1.055 1.95,-1.845c0.47,-0.79 0.705,-1.685 0.705,-2.685c0,-1.54 -0.51,-2.785 -1.53,-3.735c-1.02,-0.95 -2.33,-1.425 -3.93,-1.425c-1.62,0 -2.94,0.475 -3.96,1.425c-1.02,0.95 -1.53,2.195 -1.53,3.735c0,1 0.235,1.895 0.705,2.685c0.47,0.79 1.12,1.405 1.95,1.845c0.83,0.44 1.775,0.66 2.835,0.66Z" style="fill:#003117;fill-rule:nonzero;"/><path d="M869.017,1075.92l0,15.9l-2.73,0l0,-2.4c-0.58,0.82 -1.345,1.455 -2.295,1.905c-0.95,0.45 -1.985,0.675 -3.105,0.675c-2.12,0 -3.79,-0.585 -5.01,-1.755c-1.22,-1.17 -1.83,-2.895 -1.83,-5.175l0,-9.15l2.88,0l0,8.82c0,1.54 0.37,2.705 1.11,3.495c0.74,0.79 1.8,1.185 3.18,1.185c1.52,0 2.72,-0.46 3.6,-1.38c0.88,-0.92 1.32,-2.22 1.32,-3.9l0,-8.22l2.88,0Z" style="fill:#003117;fill-rule:nonzero;"/><rect x="874.507" y="1069.56" width="2.88" height="22.26" style="fill:#003117;fill-rule:nonzero;"/><path d="M888.667,1075.77c2.2,0 3.885,0.54 5.055,1.62c1.17,1.08 1.755,2.69 1.755,4.83l0,9.6l-2.73,0l0,-2.1c-0.48,0.74 -1.165,1.305 -2.055,1.695c-0.89,0.39 -1.945,0.585 -3.165,0.585c-1.78,0 -3.205,-0.43 -4.275,-1.29c-1.07,-0.86 -1.605,-1.99 -1.605,-3.39c0,-1.4 0.51,-2.525 1.53,-3.375c1.02,-0.85 2.64,-1.275 4.86,-1.275l4.56,0l0,-0.57c0,-1.24 -0.36,-2.19 -1.08,-2.85c-0.72,-0.66 -1.78,-0.99 -3.18,-0.99c-0.94,0 -1.86,0.155 -2.76,0.465c-0.9,0.31 -1.66,0.725 -2.28,1.245l-1.2,-2.16c0.82,-0.66 1.8,-1.165 2.94,-1.515c1.14,-0.35 2.35,-0.525 3.63,-0.525Zm-0.66,14.01c1.1,0 2.05,-0.245 2.85,-0.735c0.8,-0.49 1.38,-1.185 1.74,-2.085l0,-2.22l-4.44,0c-2.44,0 -3.66,0.82 -3.66,2.46c0,0.8 0.31,1.43 0.93,1.89c0.62,0.46 1.48,0.69 2.58,0.69Z" style="fill:#003117;fill-rule:nonzero;"/><path d="M909.757,1090.89c-0.42,0.36 -0.94,0.635 -1.56,0.825c-0.62,0.19 -1.26,0.285 -1.92,0.285c-1.6,0 -2.84,-0.43 -3.72,-1.29c-0.88,-0.86 -1.32,-2.09 -1.32,-3.69l0,-8.73l-2.7,0l0,-2.37l2.7,0l0,-3.48l2.88,0l0,3.48l4.56,0l0,2.37l-4.56,0l0,8.61c0,0.86 0.215,1.52 0.645,1.98c0.43,0.46 1.045,0.69 1.845,0.69c0.88,0 1.63,-0.25 2.25,-0.75l0.9,2.07Z" style="fill:#003117;fill-rule:nonzero;"/><path d="M919.507,1092c-1.58,0 -3,-0.35 -4.26,-1.05c-1.26,-0.7 -2.245,-1.665 -2.955,-2.895c-0.71,-1.23 -1.065,-2.625 -1.065,-4.185c0,-1.56 0.355,-2.955 1.065,-4.185c0.71,-1.23 1.695,-2.19 2.955,-2.88c1.26,-0.69 2.68,-1.035 4.26,-1.035c1.58,0 2.995,0.345 4.245,1.035c1.25,0.69 2.23,1.65 2.94,2.88c0.71,1.23 1.065,2.625 1.065,4.185c0,1.56 -0.355,2.955 -1.065,4.185c-0.71,1.23 -1.69,2.195 -2.94,2.895c-1.25,0.7 -2.665,1.05 -4.245,1.05Zm0,-2.52c1.02,0 1.935,-0.235 2.745,-0.705c0.81,-0.47 1.445,-1.13 1.905,-1.98c0.46,-0.85 0.69,-1.825 0.69,-2.925c0,-1.1 -0.23,-2.075 -0.69,-2.925c-0.46,-0.85 -1.095,-1.505 -1.905,-1.965c-0.81,-0.46 -1.725,-0.69 -2.745,-0.69c-1.02,0 -1.935,0.23 -2.745,0.69c-0.81,0.46 -1.45,1.115 -1.92,1.965c-0.47,0.85 -0.705,1.825 -0.705,2.925c0,1.1 0.235,2.075 0.705,2.925c0.47,0.85 1.11,1.51 1.92,1.98c0.81,0.47 1.725,0.705 2.745,0.705Z" style="fill:#003117;fill-rule:nonzero;"/><path d="M934.507,1078.59c0.5,-0.92 1.24,-1.62 2.22,-2.1c0.98,-0.48 2.17,-0.72 3.57,-0.72l0,2.79c-0.16,-0.02 -0.38,-0.03 -0.66,-0.03c-1.56,0 -2.785,0.465 -3.675,1.395c-0.89,0.93 -1.335,2.255 -1.335,3.975l0,7.92l-2.88,0l0,-15.9l2.76,0l0,2.67Z" style="fill:#003117;fill-rule:nonzero;"/></g><g transform="matrix(1,0,0,1,-365.02,-629.322)"><g transform="matrix(0.124339,-0.99224,0.99224,0.124339,-490,1294.11)"><rect x="491.347" y="903.671" width="3" height="21" style="fill:#fff;fill-rule:nonzero;"/></g><g transform="matrix(0.205391,-0.97868,0.97868,0.205391,-507.208,1206.08)"><path d="M500.348,899.339c2.02,0 3.625,0.585 4.815,1.755c1.19,1.17 1.785,2.885 1.785,5.145l0,9.15l-2.88,0l0,-8.82c0,-1.54 -0.37,-2.7 -1.11,-3.48c-0.74,-0.78 -1.8,-1.17 -3.18,-1.17c-1.56,0 -2.79,0.455 -3.69,1.365c-0.9,0.91 -1.35,2.215 -1.35,3.915l0,8.19l-2.88,0l0,-15.9l2.76,0l0,2.4c0.58,-0.82 1.365,-1.45 2.355,-1.89c0.99,-0.44 2.115,-0.66 3.375,-0.66Z" style="fill:#fff;fill-rule:nonzero;"/></g><g transform="matrix(0.305943,-0.95205,0.95205,0.305943,-509.926,1091.17)"><path d="M503.083,895.5c-1.62,0 -3.065,-0.35 -4.335,-1.05c-1.27,-0.7 -2.265,-1.665 -2.985,-2.895c-0.72,-1.23 -1.08,-2.625 -1.08,-4.185c0,-1.56 0.36,-2.955 1.08,-4.185c0.72,-1.23 1.715,-2.19 2.985,-2.88c1.27,-0.69 2.715,-1.035 4.335,-1.035c1.44,0 2.725,0.29 3.855,0.87c1.13,0.58 2.005,1.42 2.625,2.52l-2.19,1.41c-0.5,-0.76 -1.12,-1.33 -1.86,-1.71c-0.74,-0.38 -1.56,-0.57 -2.46,-0.57c-1.04,0 -1.975,0.23 -2.805,0.69c-0.83,0.46 -1.48,1.115 -1.95,1.965c-0.47,0.85 -0.705,1.825 -0.705,2.925c0,1.12 0.235,2.105 0.705,2.955c0.47,0.85 1.12,1.505 1.95,1.965c0.83,0.46 1.765,0.69 2.805,0.69c0.9,0 1.72,-0.19 2.46,-0.57c0.74,-0.38 1.36,-0.95 1.86,-1.71l2.19,1.38c-0.62,1.1 -1.495,1.945 -2.625,2.535c-1.13,0.59 -2.415,0.885 -3.855,0.885Z" style="fill:#fff;fill-rule:nonzero;"/></g><g transform="matrix(0.370587,-0.928798,0.928798,0.370587,-502.519,1016.58)"><path d="M501.531,863.162l2.88,0l0,15.9l-2.88,0l0,-15.9Zm1.44,-3.06c-0.56,0 -1.025,-0.18 -1.395,-0.54c-0.37,-0.36 -0.555,-0.8 -0.555,-1.32c0,-0.52 0.185,-0.965 0.555,-1.335c0.37,-0.37 0.835,-0.555 1.395,-0.555c0.56,0 1.025,0.175 1.395,0.525c0.37,0.35 0.555,0.785 0.555,1.305c0,0.54 -0.185,0.995 -0.555,1.365c-0.37,0.37 -0.835,0.555 -1.395,0.555Z" style="fill:#fff;fill-rule:nonzero;"/></g><g transform="matrix(0.438203,-0.898876,0.898876,0.438203,-501.244,940.431)"><path d="M519.454,848.951l0,22.26l-2.76,0l0,-2.52c-0.64,0.88 -1.45,1.55 -2.43,2.01c-0.98,0.46 -2.06,0.69 -3.24,0.69c-1.54,0 -2.92,-0.34 -4.14,-1.02c-1.22,-0.68 -2.175,-1.635 -2.865,-2.865c-0.69,-1.23 -1.035,-2.645 -1.035,-4.245c0,-1.6 0.345,-3.01 1.035,-4.23c0.69,-1.22 1.645,-2.17 2.865,-2.85c1.22,-0.68 2.6,-1.02 4.14,-1.02c1.14,0 2.19,0.215 3.15,0.645c0.96,0.43 1.76,1.065 2.4,1.905l0,-8.76l2.88,0Zm-8.19,19.92c1,0 1.91,-0.235 2.73,-0.705c0.82,-0.47 1.46,-1.13 1.92,-1.98c0.46,-0.85 0.69,-1.825 0.69,-2.925c0,-1.1 -0.23,-2.075 -0.69,-2.925c-0.46,-0.85 -1.1,-1.505 -1.92,-1.965c-0.82,-0.46 -1.73,-0.69 -2.73,-0.69c-1.02,0 -1.935,0.23 -2.745,0.69c-0.81,0.46 -1.45,1.115 -1.92,1.965c-0.47,0.85 -0.705,1.825 -0.705,2.925c0,1.1 0.235,2.075 0.705,2.925c0.47,0.85 1.11,1.51 1.92,1.98c0.81,0.47 1.725,0.705 2.745,0.705Z" style="fill:#fff;fill-rule:nonzero;"/></g><g transform="matrix(0.532051,-0.846713,0.846713,0.532051,-483.059,831.58)"><path d="M527.906,844.956c0,0.22 -0.02,0.51 -0.06,0.87l-12.9,0c0.18,1.4 0.795,2.525 1.845,3.375c1.05,0.85 2.355,1.275 3.915,1.275c1.9,0 3.43,-0.64 4.59,-1.92l1.59,1.86c-0.72,0.84 -1.615,1.48 -2.685,1.92c-1.07,0.44 -2.265,0.66 -3.585,0.66c-1.68,0 -3.17,-0.345 -4.47,-1.035c-1.3,-0.69 -2.305,-1.655 -3.015,-2.895c-0.71,-1.24 -1.065,-2.64 -1.065,-4.2c0,-1.54 0.345,-2.93 1.035,-4.17c0.69,-1.24 1.64,-2.205 2.85,-2.895c1.21,-0.69 2.575,-1.035 4.095,-1.035c1.52,0 2.875,0.345 4.065,1.035c1.19,0.69 2.12,1.655 2.79,2.895c0.67,1.24 1.005,2.66 1.005,4.26Zm-7.86,-5.76c-1.38,0 -2.535,0.42 -3.465,1.26c-0.93,0.84 -1.475,1.94 -1.635,3.3l10.2,0c-0.16,-1.34 -0.705,-2.435 -1.635,-3.285c-0.93,-0.85 -2.085,-1.275 -3.465,-1.275Z" style="fill:#fff;fill-rule:nonzero;"/></g><g transform="matrix(0.615096,-0.788453,0.788453,0.615096,-459.759,732.674)"><path d="M531.758,821.181c2.02,0 3.625,0.585 4.815,1.755c1.19,1.17 1.785,2.885 1.785,5.145l0,9.15l-2.88,0l0,-8.82c0,-1.54 -0.37,-2.7 -1.11,-3.48c-0.74,-0.78 -1.8,-1.17 -3.18,-1.17c-1.56,0 -2.79,0.455 -3.69,1.365c-0.9,0.91 -1.35,2.215 -1.35,3.915l0,8.19l-2.88,0l0,-15.9l2.76,0l0,2.4c0.58,-0.82 1.365,-1.45 2.355,-1.89c0.99,-0.44 2.115,-0.66 3.375,-0.66Z" style="fill:#fff;fill-rule:nonzero;"/></g><g transform="matrix(0.678311,-0.734775,0.734775,0.678311,-431.904,655.984)"><path d="M544.89,820.322c-0.42,0.36 -0.94,0.635 -1.56,0.825c-0.62,0.19 -1.26,0.285 -1.92,0.285c-1.6,0 -2.84,-0.43 -3.72,-1.29c-0.88,-0.86 -1.32,-2.09 -1.32,-3.69l0,-8.73l-2.7,0l0,-2.37l2.7,0l0,-3.48l2.88,0l0,3.48l4.56,0l0,2.37l-4.56,0l0,8.61c0,0.86 0.215,1.52 0.645,1.98c0.43,0.46 1.045,0.69 1.845,0.69c0.88,0 1.63,-0.25 2.25,-0.75l0.9,2.07Z" style="fill:#fff;fill-rule:nonzero;"/></g><g transform="matrix(0.753656,-0.657269,0.657269,0.753656,-395.203,558.475)"><path d="M552.921,793.227c0.5,-0.92 1.24,-1.62 2.22,-2.1c0.98,-0.48 2.17,-0.72 3.57,-0.72l0,2.79c-0.16,-0.02 -0.38,-0.03 -0.66,-0.03c-1.56,0 -2.785,0.465 -3.675,1.395c-0.89,0.93 -1.335,2.255 -1.335,3.975l0,7.92l-2.88,0l0,-15.9l2.76,0l0,2.67Z" style="fill:#fff;fill-rule:nonzero;"/></g><g transform="matrix(0.797862,-0.602841,0.602841,0.797862,-368.909,496.788)"><path d="M573.435,790.635c0,0.22 -0.02,0.51 -0.06,0.87l-12.9,0c0.18,1.4 0.795,2.525 1.845,3.375c1.05,0.85 2.355,1.275 3.915,1.275c1.9,0 3.43,-0.64 4.59,-1.92l1.59,1.86c-0.72,0.84 -1.615,1.48 -2.685,1.92c-1.07,0.44 -2.265,0.66 -3.585,0.66c-1.68,0 -3.17,-0.345 -4.47,-1.035c-1.3,-0.69 -2.305,-1.655 -3.015,-2.895c-0.71,-1.24 -1.065,-2.64 -1.065,-4.2c0,-1.54 0.345,-2.93 1.035,-4.17c0.69,-1.24 1.64,-2.205 2.85,-2.895c1.21,-0.69 2.575,-1.035 4.095,-1.035c1.52,0 2.875,0.345 4.065,1.035c1.19,0.69 2.12,1.655 2.79,2.895c0.67,1.24 1.005,2.66 1.005,4.26Zm-7.86,-5.76c-1.38,0 -2.535,0.42 -3.465,1.26c-0.93,0.84 -1.475,1.94 -1.635,3.3l10.2,0c-0.16,-1.34 -0.705,-2.435 -1.635,-3.285c-0.93,-0.85 -2.085,-1.275 -3.465,-1.275Z" style="fill:#fff;fill-rule:nonzero;"/></g><g transform="matrix(0.844446,-0.535641,0.535641,0.844446,-332.983,428.363)"><path d="M578.319,787.664c-1.3,0 -2.55,-0.175 -3.75,-0.525c-1.2,-0.35 -2.14,-0.795 -2.82,-1.335l1.2,-2.28c0.7,0.5 1.55,0.9 2.55,1.2c1,0.3 2.01,0.45 3.03,0.45c2.52,0 3.78,-0.72 3.78,-2.16c0,-0.48 -0.17,-0.86 -0.51,-1.14c-0.34,-0.28 -0.765,-0.485 -1.275,-0.615c-0.51,-0.13 -1.235,-0.275 -2.175,-0.435c-1.28,-0.2 -2.325,-0.43 -3.135,-0.69c-0.81,-0.26 -1.505,-0.7 -2.085,-1.32c-0.58,-0.62 -0.87,-1.49 -0.87,-2.61c0,-1.44 0.6,-2.595 1.8,-3.465c1.2,-0.87 2.81,-1.305 4.83,-1.305c1.06,0 2.12,0.13 3.18,0.39c1.06,0.26 1.93,0.61 2.61,1.05l-1.23,2.28c-1.3,-0.84 -2.83,-1.26 -4.59,-1.26c-1.22,0 -2.15,0.2 -2.79,0.6c-0.64,0.4 -0.96,0.93 -0.96,1.59c0,0.52 0.18,0.93 0.54,1.23c0.36,0.3 0.805,0.52 1.335,0.66c0.53,0.14 1.275,0.3 2.235,0.48c1.28,0.22 2.315,0.455 3.105,0.705c0.79,0.25 1.465,0.675 2.025,1.275c0.56,0.6 0.84,1.44 0.84,2.52c0,1.44 -0.615,2.585 -1.845,3.435c-1.23,0.85 -2.905,1.275 -5.025,1.275Z" style="fill:#fff;fill-rule:nonzero;"/></g><g transform="matrix(0.889473,-0.456987,0.456987,0.889473,-291.608,352.868)"><path d="M594.844,763.229c1.54,0 2.92,0.34 4.14,1.02c1.22,0.68 2.175,1.63 2.865,2.85c0.69,1.22 1.035,2.63 1.035,4.23c0,1.6 -0.345,3.015 -1.035,4.245c-0.69,1.23 -1.645,2.185 -2.865,2.865c-1.22,0.68 -2.6,1.02 -4.14,1.02c-1.14,0 -2.185,-0.22 -3.135,-0.66c-0.95,-0.44 -1.755,-1.08 -2.415,-1.92l0,8.22l-2.88,0l0,-21.72l2.76,0l0,2.52c0.64,-0.88 1.45,-1.545 2.43,-1.995c0.98,-0.45 2.06,-0.675 3.24,-0.675Zm-0.24,13.71c1.02,0 1.935,-0.235 2.745,-0.705c0.81,-0.47 1.45,-1.13 1.92,-1.98c0.47,-0.85 0.705,-1.825 0.705,-2.925c0,-1.1 -0.235,-2.075 -0.705,-2.925c-0.47,-0.85 -1.11,-1.505 -1.92,-1.965c-0.81,-0.46 -1.725,-0.69 -2.745,-0.69c-1,0 -1.905,0.235 -2.715,0.705c-0.81,0.47 -1.45,1.125 -1.92,1.965c-0.47,0.84 -0.705,1.81 -0.705,2.91c0,1.1 0.23,2.075 0.69,2.925c0.46,0.85 1.1,1.51 1.92,1.98c0.82,0.47 1.73,0.705 2.73,0.705Z" style="fill:#fff;fill-rule:nonzero;"/></g><g transform="matrix(0.927664,-0.373416,0.373416,0.927664,-243.969,280.443)"><path d="M611.412,770.114c-1.58,0 -3,-0.35 -4.26,-1.05c-1.26,-0.7 -2.245,-1.665 -2.955,-2.895c-0.71,-1.23 -1.065,-2.625 -1.065,-4.185c0,-1.56 0.355,-2.955 1.065,-4.185c0.71,-1.23 1.695,-2.19 2.955,-2.88c1.26,-0.69 2.68,-1.035 4.26,-1.035c1.58,0 2.995,0.345 4.245,1.035c1.25,0.69 2.23,1.65 2.94,2.88c0.71,1.23 1.065,2.625 1.065,4.185c0,1.56 -0.355,2.955 -1.065,4.185c-0.71,1.23 -1.69,2.195 -2.94,2.895c-1.25,0.7 -2.665,1.05 -4.245,1.05Zm0,-2.52c1.02,0 1.935,-0.235 2.745,-0.705c0.81,-0.47 1.445,-1.13 1.905,-1.98c0.46,-0.85 0.69,-1.825 0.69,-2.925c0,-1.1 -0.23,-2.075 -0.69,-2.925c-0.46,-0.85 -1.095,-1.505 -1.905,-1.965c-0.81,-0.46 -1.725,-0.69 -2.745,-0.69c-1.02,0 -1.935,0.23 -2.745,0.69c-0.81,0.46 -1.45,1.115 -1.92,1.965c-0.47,0.85 -0.705,1.825 -0.705,2.925c0,1.1 0.235,2.075 0.705,2.925c0.47,0.85 1.11,1.51 1.92,1.98c0.81,0.47 1.725,0.705 2.745,0.705Z" style="fill:#fff;fill-rule:nonzero;"/></g><g transform="matrix(0.958925,-0.283661,0.283661,0.958925,-190.924,207.072)"><path d="M630.763,746.734c2.02,0 3.625,0.585 4.815,1.755c1.19,1.17 1.785,2.885 1.785,5.145l0,9.15l-2.88,0l0,-8.82c0,-1.54 -0.37,-2.7 -1.11,-3.48c-0.74,-0.78 -1.8,-1.17 -3.18,-1.17c-1.56,0 -2.79,0.455 -3.69,1.365c-0.9,0.91 -1.35,2.215 -1.35,3.915l0,8.19l-2.88,0l0,-15.9l2.76,0l0,2.4c0.58,-0.82 1.365,-1.45 2.355,-1.89c0.99,-0.44 2.115,-0.66 3.375,-0.66Z" style="fill:#fff;fill-rule:nonzero;"/></g><g transform="matrix(0.979322,-0.202306,0.202306,0.979322,-139.948,144.965)"><path d="M646.472,757.276c-1.3,0 -2.55,-0.175 -3.75,-0.525c-1.2,-0.35 -2.14,-0.795 -2.82,-1.335l1.2,-2.28c0.7,0.5 1.55,0.9 2.55,1.2c1,0.3 2.01,0.45 3.03,0.45c2.52,0 3.78,-0.72 3.78,-2.16c0,-0.48 -0.17,-0.86 -0.51,-1.14c-0.34,-0.28 -0.765,-0.485 -1.275,-0.615c-0.51,-0.13 -1.235,-0.275 -2.175,-0.435c-1.28,-0.2 -2.325,-0.43 -3.135,-0.69c-0.81,-0.26 -1.505,-0.7 -2.085,-1.32c-0.58,-0.62 -0.87,-1.49 -0.87,-2.61c0,-1.44 0.6,-2.595 1.8,-3.465c1.2,-0.87 2.81,-1.305 4.83,-1.305c1.06,0 2.12,0.13 3.18,0.39c1.06,0.26 1.93,0.61 2.61,1.05l-1.23,2.28c-1.3,-0.84 -2.83,-1.26 -4.59,-1.26c-1.22,0 -2.15,0.2 -2.79,0.6c-0.64,0.4 -0.96,0.93 -0.96,1.59c0,0.52 0.18,0.93 0.54,1.23c0.36,0.3 0.805,0.52 1.335,0.66c0.53,0.14 1.275,0.3 2.235,0.48c1.28,0.22 2.315,0.455 3.105,0.705c0.79,0.25 1.465,0.675 2.025,1.275c0.56,0.6 0.84,1.44 0.84,2.52c0,1.44 -0.615,2.585 -1.845,3.435c-1.23,0.85 -2.905,1.275 -5.025,1.275Z" style="fill:#fff;fill-rule:nonzero;"/></g><g transform="matrix(0.992268,-0.124113,0.124113,0.992268,-88.5237,86.9892)"><path d="M671.017,746.13c0,0.22 -0.02,0.51 -0.06,0.87l-12.9,0c0.18,1.4 0.795,2.525 1.845,3.375c1.05,0.85 2.355,1.275 3.915,1.275c1.9,0 3.43,-0.64 4.59,-1.92l1.59,1.86c-0.72,0.84 -1.615,1.48 -2.685,1.92c-1.07,0.44 -2.265,0.66 -3.585,0.66c-1.68,0 -3.17,-0.345 -4.47,-1.035c-1.3,-0.69 -2.305,-1.655 -3.015,-2.895c-0.71,-1.24 -1.065,-2.64 -1.065,-4.2c0,-1.54 0.345,-2.93 1.035,-4.17c0.69,-1.24 1.64,-2.205 2.85,-2.895c1.21,-0.69 2.575,-1.035 4.095,-1.035c1.52,0 2.875,0.345 4.065,1.035c1.19,0.69 2.12,1.655 2.79,2.895c0.67,1.24 1.005,2.66 1.005,4.26Zm-7.86,-5.76c-1.38,0 -2.535,0.42 -3.465,1.26c-0.93,0.84 -1.475,1.94 -1.635,3.3l10.2,0c-0.16,-1.34 -0.705,-2.435 -1.635,-3.285c-0.93,-0.85 -2.085,-1.275 -3.465,-1.275Z" style="fill:#fff;fill-rule:nonzero;"/></g></g><g id="legal" transform="matrix(1,0,0,1,-365.02,-629.322)"><g transform="matrix(0.834672,0.550748,-0.550748,0.834672,561.176,-309.81)"><path d="M799.762,758.8l3,0l0,18.39l11.37,0l0,2.61l-14.37,0l0,-21Z" style="fill:#fff;fill-rule:nonzero;"/></g><g transform="matrix(0.78719,0.616711,-0.616711,0.78719,659.536,-332.386)"><path d="M828.484,781.594c0,0.22 -0.02,0.51 -0.06,0.87l-12.9,0c0.18,1.4 0.795,2.525 1.845,3.375c1.05,0.85 2.355,1.275 3.915,1.275c1.9,0 3.43,-0.64 4.59,-1.92l1.59,1.86c-0.72,0.84 -1.615,1.48 -2.685,1.92c-1.07,0.44 -2.265,0.66 -3.585,0.66c-1.68,0 -3.17,-0.345 -4.47,-1.035c-1.3,-0.69 -2.305,-1.655 -3.015,-2.895c-0.71,-1.24 -1.065,-2.64 -1.065,-4.2c0,-1.54 0.345,-2.93 1.035,-4.17c0.69,-1.24 1.64,-2.205 2.85,-2.895c1.21,-0.69 2.575,-1.035 4.095,-1.035c1.52,0 2.875,0.345 4.065,1.035c1.19,0.69 2.12,1.655 2.79,2.895c0.67,1.24 1.005,2.66 1.005,4.26Zm-7.86,-5.76c-1.38,0 -2.535,0.42 -3.465,1.26c-0.93,0.84 -1.475,1.94 -1.635,3.3l10.2,0c-0.16,-1.34 -0.705,-2.435 -1.635,-3.285c-0.93,-0.85 -2.085,-1.275 -3.465,-1.275Z" style="fill:#fff;fill-rule:nonzero;"/></g><g transform="matrix(0.726096,0.687594,-0.687594,0.726096,776.792,-348.513)"><path d="M843.779,784.85l0,13.74c0,2.78 -0.69,4.835 -2.07,6.165c-1.38,1.33 -3.44,1.995 -6.18,1.995c-1.5,0 -2.93,-0.205 -4.29,-0.615c-1.36,-0.41 -2.46,-0.995 -3.3,-1.755l1.38,-2.22c0.74,0.64 1.655,1.145 2.745,1.515c1.09,0.37 2.215,0.555 3.375,0.555c1.86,0 3.235,-0.44 4.125,-1.32c0.89,-0.88 1.335,-2.22 1.335,-4.02l0,-1.26c-0.68,0.82 -1.515,1.435 -2.505,1.845c-0.99,0.41 -2.065,0.615 -3.225,0.615c-1.52,0 -2.895,-0.325 -4.125,-0.975c-1.23,-0.65 -2.195,-1.56 -2.895,-2.73c-0.7,-1.17 -1.05,-2.505 -1.05,-4.005c0,-1.5 0.35,-2.835 1.05,-4.005c0.7,-1.17 1.665,-2.075 2.895,-2.715c1.23,-0.64 2.605,-0.96 4.125,-0.96c1.2,0 2.315,0.22 3.345,0.66c1.03,0.44 1.875,1.09 2.535,1.95l0,-2.46l2.73,0Zm-8.28,12.72c1.04,0 1.975,-0.22 2.805,-0.66c0.83,-0.44 1.48,-1.055 1.95,-1.845c0.47,-0.79 0.705,-1.685 0.705,-2.685c0,-1.54 -0.51,-2.785 -1.53,-3.735c-1.02,-0.95 -2.33,-1.425 -3.93,-1.425c-1.62,0 -2.94,0.475 -3.96,1.425c-1.02,0.95 -1.53,2.195 -1.53,3.735c0,1 0.235,1.895 0.705,2.685c0.47,0.79 1.12,1.405 1.95,1.845c0.83,0.44 1.775,0.66 2.835,0.66Z" style="fill:#fff;fill-rule:nonzero;"/></g><g transform="matrix(0.654511,0.756053,-0.756053,0.654511,906.748,-354.082)"><path d="M849.322,799.051c2.2,0 3.885,0.54 5.055,1.62c1.17,1.08 1.755,2.69 1.755,4.83l0,9.6l-2.73,0l0,-2.1c-0.48,0.74 -1.165,1.305 -2.055,1.695c-0.89,0.39 -1.945,0.585 -3.165,0.585c-1.78,0 -3.205,-0.43 -4.275,-1.29c-1.07,-0.86 -1.605,-1.99 -1.605,-3.39c0,-1.4 0.51,-2.525 1.53,-3.375c1.02,-0.85 2.64,-1.275 4.86,-1.275l4.56,0l0,-0.57c0,-1.24 -0.36,-2.19 -1.08,-2.85c-0.72,-0.66 -1.78,-0.99 -3.18,-0.99c-0.94,0 -1.86,0.155 -2.76,0.465c-0.9,0.31 -1.66,0.725 -2.28,1.245l-1.2,-2.16c0.82,-0.66 1.8,-1.165 2.94,-1.515c1.14,-0.35 2.35,-0.525 3.63,-0.525Zm-0.66,14.01c1.1,0 2.05,-0.245 2.85,-0.735c0.8,-0.49 1.38,-1.185 1.74,-2.085l0,-2.22l-4.44,0c-2.44,0 -3.66,0.82 -3.66,2.46c0,0.8 0.31,1.43 0.93,1.89c0.62,0.46 1.48,0.69 2.58,0.69Z" style="fill:#fff;fill-rule:nonzero;"/></g><g transform="matrix(0.599693,0.80023,-0.80023,0.599693,1004.42,-350.344)"><rect x="855.116" y="806.508" width="2.88" height="22.26" style="fill:#fff;fill-rule:nonzero;"/></g></g><g id="messaging" transform="matrix(1,0,0,1,-365.02,-629.322)"><g transform="matrix(0.350752,0.936468,-0.936468,0.350752,1246.17,201.473)"><path d="M500.406,999.469l-0.03,-15.3l-7.59,12.75l-1.38,0l-7.59,-12.66l0,15.21l-2.88,0l0,-21l2.46,0l8.76,14.76l8.64,-14.76l2.46,0l0.03,21l-2.88,0Z" style="fill:#fff;fill-rule:nonzero;"/></g><g transform="matrix(0.466282,0.884636,-0.884636,0.466282,1170.54,116.131)"><path d="M506.128,1020.29c0,0.22 -0.02,0.51 -0.06,0.87l-12.9,0c0.18,1.4 0.795,2.525 1.845,3.375c1.05,0.85 2.355,1.275 3.915,1.275c1.9,0 3.43,-0.64 4.59,-1.92l1.59,1.86c-0.72,0.84 -1.615,1.48 -2.685,1.92c-1.07,0.44 -2.265,0.66 -3.585,0.66c-1.68,0 -3.17,-0.345 -4.47,-1.035c-1.3,-0.69 -2.305,-1.655 -3.015,-2.895c-0.71,-1.24 -1.065,-2.64 -1.065,-4.2c0,-1.54 0.345,-2.93 1.035,-4.17c0.69,-1.24 1.64,-2.205 2.85,-2.895c1.21,-0.69 2.575,-1.035 4.095,-1.035c1.52,0 2.875,0.345 4.065,1.035c1.19,0.69 2.12,1.655 2.79,2.895c0.67,1.24 1.005,2.66 1.005,4.26Zm-7.86,-5.76c-1.38,0 -2.535,0.42 -3.465,1.26c-0.93,0.84 -1.475,1.94 -1.635,3.3l10.2,0c-0.16,-1.34 -0.705,-2.435 -1.635,-3.285c-0.93,-0.85 -2.085,-1.275 -3.465,-1.275Z" style="fill:#fff;fill-rule:nonzero;"/></g><g transform="matrix(0.54231,0.840179,-0.840179,0.54231,1106.68,59.8257)"><path d="M505.718,1045.85c-1.3,0 -2.55,-0.175 -3.75,-0.525c-1.2,-0.35 -2.14,-0.795 -2.82,-1.335l1.2,-2.28c0.7,0.5 1.55,0.9 2.55,1.2c1,0.3 2.01,0.45 3.03,0.45c2.52,0 3.78,-0.72 3.78,-2.16c0,-0.48 -0.17,-0.86 -0.51,-1.14c-0.34,-0.28 -0.765,-0.485 -1.275,-0.615c-0.51,-0.13 -1.235,-0.275 -2.175,-0.435c-1.28,-0.2 -2.325,-0.43 -3.135,-0.69c-0.81,-0.26 -1.505,-0.7 -2.085,-1.32c-0.58,-0.62 -0.87,-1.49 -0.87,-2.61c0,-1.44 0.6,-2.595 1.8,-3.465c1.2,-0.87 2.81,-1.305 4.83,-1.305c1.06,0 2.12,0.13 3.18,0.39c1.06,0.26 1.93,0.61 2.61,1.05l-1.23,2.28c-1.3,-0.84 -2.83,-1.26 -4.59,-1.26c-1.22,0 -2.15,0.2 -2.79,0.6c-0.64,0.4 -0.96,0.93 -0.96,1.59c0,0.52 0.18,0.93 0.54,1.23c0.36,0.3 0.805,0.52 1.335,0.66c0.53,0.14 1.275,0.3 2.235,0.48c1.28,0.22 2.315,0.455 3.105,0.705c0.79,0.25 1.465,0.675 2.025,1.275c0.56,0.6 0.84,1.44 0.84,2.52c0,1.44 -0.615,2.585 -1.845,3.435c-1.23,0.85 -2.905,1.275 -5.025,1.275Z" style="fill:#fff;fill-rule:nonzero;"/></g><g transform="matrix(0.606372,0.795181,-0.795181,0.606372,1042.11,13.5683)"><path d="M514.642,1059.57c-1.3,0 -2.55,-0.175 -3.75,-0.525c-1.2,-0.35 -2.14,-0.795 -2.82,-1.335l1.2,-2.28c0.7,0.5 1.55,0.9 2.55,1.2c1,0.3 2.01,0.45 3.03,0.45c2.52,0 3.78,-0.72 3.78,-2.16c0,-0.48 -0.17,-0.86 -0.51,-1.14c-0.34,-0.28 -0.765,-0.485 -1.275,-0.615c-0.51,-0.13 -1.235,-0.275 -2.175,-0.435c-1.28,-0.2 -2.325,-0.43 -3.135,-0.69c-0.81,-0.26 -1.505,-0.7 -2.085,-1.32c-0.58,-0.62 -0.87,-1.49 -0.87,-2.61c0,-1.44 0.6,-2.595 1.8,-3.465c1.2,-0.87 2.81,-1.305 4.83,-1.305c1.06,0 2.12,0.13 3.18,0.39c1.06,0.26 1.93,0.61 2.61,1.05l-1.23,2.28c-1.3,-0.84 -2.83,-1.26 -4.59,-1.26c-1.22,0 -2.15,0.2 -2.79,0.6c-0.64,0.4 -0.96,0.93 -0.96,1.59c0,0.52 0.18,0.93 0.54,1.23c0.36,0.3 0.805,0.52 1.335,0.66c0.53,0.14 1.275,0.3 2.235,0.48c1.28,0.22 2.315,0.455 3.105,0.705c0.79,0.25 1.465,0.675 2.025,1.275c0.56,0.6 0.84,1.44 0.84,2.52c0,1.44 -0.615,2.585 -1.845,3.435c-1.23,0.85 -2.905,1.275 -5.025,1.275Z" style="fill:#fff;fill-rule:nonzero;"/></g><g transform="matrix(0.669723,0.742611,-0.742611,0.669723,967.309,-29.9881)"><path d="M525.888,1056.43c2.2,0 3.885,0.54 5.055,1.62c1.17,1.08 1.755,2.69 1.755,4.83l0,9.6l-2.73,0l0,-2.1c-0.48,0.74 -1.165,1.305 -2.055,1.695c-0.89,0.39 -1.945,0.585 -3.165,0.585c-1.78,0 -3.205,-0.43 -4.275,-1.29c-1.07,-0.86 -1.605,-1.99 -1.605,-3.39c0,-1.4 0.51,-2.525 1.53,-3.375c1.02,-0.85 2.64,-1.275 4.86,-1.275l4.56,0l0,-0.57c0,-1.24 -0.36,-2.19 -1.08,-2.85c-0.72,-0.66 -1.78,-0.99 -3.18,-0.99c-0.94,0 -1.86,0.155 -2.76,0.465c-0.9,0.31 -1.66,0.725 -2.28,1.245l-1.2,-2.16c0.82,-0.66 1.8,-1.165 2.94,-1.515c1.14,-0.35 2.35,-0.525 3.63,-0.525Zm-0.66,14.01c1.1,0 2.05,-0.245 2.85,-0.735c0.8,-0.49 1.38,-1.185 1.74,-2.085l0,-2.22l-4.44,0c-2.44,0 -3.66,0.82 -3.66,2.46c0,0.8 0.31,1.43 0.93,1.89c0.62,0.46 1.48,0.69 2.58,0.69Z" style="fill:#fff;fill-rule:nonzero;"/></g><g transform="matrix(0.738609,0.674134,-0.674134,0.738609,871.533,-73.5737)"><path d="M548.581,1071.17l0,13.74c0,2.78 -0.69,4.835 -2.07,6.165c-1.38,1.33 -3.44,1.995 -6.18,1.995c-1.5,0 -2.93,-0.205 -4.29,-0.615c-1.36,-0.41 -2.46,-0.995 -3.3,-1.755l1.38,-2.22c0.74,0.64 1.655,1.145 2.745,1.515c1.09,0.37 2.215,0.555 3.375,0.555c1.86,0 3.235,-0.44 4.125,-1.32c0.89,-0.88 1.335,-2.22 1.335,-4.02l0,-1.26c-0.68,0.82 -1.515,1.435 -2.505,1.845c-0.99,0.41 -2.065,0.615 -3.225,0.615c-1.52,0 -2.895,-0.325 -4.125,-0.975c-1.23,-0.65 -2.195,-1.56 -2.895,-2.73c-0.7,-1.17 -1.05,-2.505 -1.05,-4.005c0,-1.5 0.35,-2.835 1.05,-4.005c0.7,-1.17 1.665,-2.075 2.895,-2.715c1.23,-0.64 2.605,-0.96 4.125,-0.96c1.2,0 2.315,0.22 3.345,0.66c1.03,0.44 1.875,1.09 2.535,1.95l0,-2.46l2.73,0Zm-8.28,12.72c1.04,0 1.975,-0.22 2.805,-0.66c0.83,-0.44 1.48,-1.055 1.95,-1.845c0.47,-0.79 0.705,-1.685 0.705,-2.685c0,-1.54 -0.51,-2.785 -1.53,-3.735c-1.02,-0.95 -2.33,-1.425 -3.93,-1.425c-1.62,0 -2.94,0.475 -3.96,1.425c-1.02,0.95 -1.53,2.195 -1.53,3.735c0,1 0.235,1.895 0.705,2.685c0.47,0.79 1.12,1.405 1.95,1.845c0.83,0.44 1.775,0.66 2.835,0.66Z" style="fill:#fff;fill-rule:nonzero;"/></g><g transform="matrix(0.787644,0.61613,-0.61613,0.787644,794.935,-103.132)"><path d="M549.812,1085.75l2.88,0l0,15.9l-2.88,0l0,-15.9Zm1.44,-3.06c-0.56,0 -1.025,-0.18 -1.395,-0.54c-0.37,-0.36 -0.555,-0.8 -0.555,-1.32c0,-0.52 0.185,-0.965 0.555,-1.335c0.37,-0.37 0.835,-0.555 1.395,-0.555c0.56,0 1.025,0.175 1.395,0.525c0.37,0.35 0.555,0.785 0.555,1.305c0,0.54 -0.185,0.995 -0.555,1.365c-0.37,0.37 -0.835,0.555 -1.395,0.555Z" style="fill:#fff;fill-rule:nonzero;"/></g><g transform="matrix(0.829681,0.558237,-0.558237,0.829681,712.826,-120.915)"><path d="M565.788,1091.67c2.02,0 3.625,0.585 4.815,1.755c1.19,1.17 1.785,2.885 1.785,5.145l0,9.15l-2.88,0l0,-8.82c0,-1.54 -0.37,-2.7 -1.11,-3.48c-0.74,-0.78 -1.8,-1.17 -3.18,-1.17c-1.56,0 -2.79,0.455 -3.69,1.365c-0.9,0.91 -1.35,2.215 -1.35,3.915l0,8.19l-2.88,0l0,-15.9l2.76,0l0,2.4c0.58,-0.82 1.365,-1.45 2.355,-1.89c0.99,-0.44 2.115,-0.66 3.375,-0.66Z" style="fill:#fff;fill-rule:nonzero;"/></g><g transform="matrix(0.879891,0.475175,-0.475175,0.879891,601.041,-137.781)"><path d="M591.006,1104.13l0,13.74c0,2.78 -0.69,4.835 -2.07,6.165c-1.38,1.33 -3.44,1.995 -6.18,1.995c-1.5,0 -2.93,-0.205 -4.29,-0.615c-1.36,-0.41 -2.46,-0.995 -3.3,-1.755l1.38,-2.22c0.74,0.64 1.655,1.145 2.745,1.515c1.09,0.37 2.215,0.555 3.375,0.555c1.86,0 3.235,-0.44 4.125,-1.32c0.89,-0.88 1.335,-2.22 1.335,-4.02l0,-1.26c-0.68,0.82 -1.515,1.435 -2.505,1.845c-0.99,0.41 -2.065,0.615 -3.225,0.615c-1.52,0 -2.895,-0.325 -4.125,-0.975c-1.23,-0.65 -2.195,-1.56 -2.895,-2.73c-0.7,-1.17 -1.05,-2.505 -1.05,-4.005c0,-1.5 0.35,-2.835 1.05,-4.005c0.7,-1.17 1.665,-2.075 2.895,-2.715c1.23,-0.64 2.605,-0.96 4.125,-0.96c1.2,0 2.315,0.22 3.345,0.66c1.03,0.44 1.875,1.09 2.535,1.95l0,-2.46l2.73,0Zm-8.28,12.72c1.04,0 1.975,-0.22 2.805,-0.66c0.83,-0.44 1.48,-1.055 1.95,-1.845c0.47,-0.79 0.705,-1.685 0.705,-2.685c0,-1.54 -0.51,-2.785 -1.53,-3.735c-1.02,-0.95 -2.33,-1.425 -3.93,-1.425c-1.62,0 -2.94,0.475 -3.96,1.425c-1.02,0.95 -1.53,2.195 -1.53,3.735c0,1 0.235,1.895 0.705,2.685c0.47,0.79 1.12,1.405 1.95,1.845c0.83,0.44 1.775,0.66 2.835,0.66Z" style="fill:#fff;fill-rule:nonzero;"/></g></g><g id="messaging1" serif:id="messaging" transform="matrix(1,0,0,1,-365.02,-629.322)"><g transform="matrix(0.930255,-0.366914,0.366914,0.930255,-365.229,359.268)"><path d="M783.611,1119.33l0,21l-2.46,0l-12.6,-15.66l0,15.66l-3,0l0,-21l2.46,0l12.6,15.66l0,-15.66l3,0Z" style="fill:#fff;fill-rule:nonzero;"/></g><g transform="matrix(0.886604,-0.46253,0.46253,0.886604,-433.679,492.063)"><path d="M796.234,1130.67c-1.58,0 -3,-0.35 -4.26,-1.05c-1.26,-0.7 -2.245,-1.665 -2.955,-2.895c-0.71,-1.23 -1.065,-2.625 -1.065,-4.185c0,-1.56 0.355,-2.955 1.065,-4.185c0.71,-1.23 1.695,-2.19 2.955,-2.88c1.26,-0.69 2.68,-1.035 4.26,-1.035c1.58,0 2.995,0.345 4.245,1.035c1.25,0.69 2.23,1.65 2.94,2.88c0.71,1.23 1.065,2.625 1.065,4.185c0,1.56 -0.355,2.955 -1.065,4.185c-0.71,1.23 -1.69,2.195 -2.94,2.895c-1.25,0.7 -2.665,1.05 -4.245,1.05Zm0,-2.52c1.02,0 1.935,-0.235 2.745,-0.705c0.81,-0.47 1.445,-1.13 1.905,-1.98c0.46,-0.85 0.69,-1.825 0.69,-2.925c0,-1.1 -0.23,-2.075 -0.69,-2.925c-0.46,-0.85 -1.095,-1.505 -1.905,-1.965c-0.81,-0.46 -1.725,-0.69 -2.745,-0.69c-1.02,0 -1.935,0.23 -2.745,0.69c-0.81,0.46 -1.45,1.115 -1.92,1.965c-0.47,0.85 -0.705,1.825 -0.705,2.925c0,1.1 0.235,2.075 0.705,2.925c0.47,0.85 1.11,1.51 1.92,1.98c0.81,0.47 1.725,0.705 2.745,0.705Z" style="fill:#fff;fill-rule:nonzero;"/></g><g transform="matrix(0.848938,-0.528492,0.528492,0.848938,-470.844,594.582)"><path d="M816.325,1119.99c-0.42,0.36 -0.94,0.635 -1.56,0.825c-0.62,0.19 -1.26,0.285 -1.92,0.285c-1.6,0 -2.84,-0.43 -3.72,-1.29c-0.88,-0.86 -1.32,-2.09 -1.32,-3.69l0,-8.73l-2.7,0l0,-2.37l2.7,0l0,-3.48l2.88,0l0,3.48l4.56,0l0,2.37l-4.56,0l0,8.61c0,0.86 0.215,1.52 0.645,1.98c0.43,0.46 1.045,0.69 1.845,0.69c0.88,0 1.63,-0.25 2.25,-0.75l0.9,2.07Z" style="fill:#fff;fill-rule:nonzero;"/></g><g transform="matrix(0.820442,-0.571729,0.571729,0.820442,-490.289,666.484)"><path d="M818.661,1097.91l2.88,0l0,15.9l-2.88,0l0,-15.9Zm1.44,-3.06c-0.56,0 -1.025,-0.18 -1.395,-0.54c-0.37,-0.36 -0.555,-0.8 -0.555,-1.32c0,-0.52 0.185,-0.965 0.555,-1.335c0.37,-0.37 0.835,-0.555 1.395,-0.555c0.56,0 1.025,0.175 1.395,0.525c0.37,0.35 0.555,0.785 0.555,1.305c0,0.54 -0.185,0.995 -0.555,1.365c-0.37,0.37 -0.835,0.555 -1.395,0.555Z" style="fill:#fff;fill-rule:nonzero;"/></g><g transform="matrix(0.779164,-0.62682,0.62682,0.779164,-512.897,761.183)"><path d="M832.372,1088.42c-1.72,0 -2.58,0.93 -2.58,2.79l0,1.38l4.62,0l0,2.37l-4.56,0l0,13.53l-2.88,0l0,-13.53l-2.7,0l0,-2.37l2.7,0l0,-1.41c0,-1.58 0.46,-2.83 1.38,-3.75c0.92,-0.92 2.21,-1.38 3.87,-1.38c0.64,0 1.24,0.08 1.8,0.24c0.56,0.16 1.04,0.39 1.44,0.69l-0.87,2.19c-0.66,-0.5 -1.4,-0.75 -2.22,-0.75Zm7.17,4.17l2.88,0l0,15.9l-2.88,0l0,-15.9Zm1.44,-3.06c-0.56,0 -1.025,-0.18 -1.395,-0.54c-0.37,-0.36 -0.555,-0.8 -0.555,-1.32c0,-0.52 0.185,-0.965 0.555,-1.335c0.37,-0.37 0.835,-0.555 1.395,-0.555c0.56,0 1.025,0.175 1.395,0.525c0.37,0.35 0.555,0.785 0.555,1.305c0,0.54 -0.185,0.995 -0.555,1.365c-0.37,0.37 -0.835,0.555 -1.395,0.555Z" style="fill:#fff;fill-rule:nonzero;"/></g><g transform="matrix(0.711612,-0.702573,0.702573,0.711612,-525.754,906.794)"><path d="M851.351,1094c-1.62,0 -3.065,-0.35 -4.335,-1.05c-1.27,-0.7 -2.265,-1.665 -2.985,-2.895c-0.72,-1.23 -1.08,-2.625 -1.08,-4.185c0,-1.56 0.36,-2.955 1.08,-4.185c0.72,-1.23 1.715,-2.19 2.985,-2.88c1.27,-0.69 2.715,-1.035 4.335,-1.035c1.44,0 2.725,0.29 3.855,0.87c1.13,0.58 2.005,1.42 2.625,2.52l-2.19,1.41c-0.5,-0.76 -1.12,-1.33 -1.86,-1.71c-0.74,-0.38 -1.56,-0.57 -2.46,-0.57c-1.04,0 -1.975,0.23 -2.805,0.69c-0.83,0.46 -1.48,1.115 -1.95,1.965c-0.47,0.85 -0.705,1.825 -0.705,2.925c0,1.12 0.235,2.105 0.705,2.955c0.47,0.85 1.12,1.505 1.95,1.965c0.83,0.46 1.765,0.69 2.805,0.69c0.9,0 1.72,-0.19 2.46,-0.57c0.74,-0.38 1.36,-0.95 1.86,-1.71l2.19,1.38c-0.62,1.1 -1.495,1.945 -2.625,2.535c-1.13,0.59 -2.415,0.885 -3.855,0.885Z" style="fill:#fff;fill-rule:nonzero;"/></g><g transform="matrix(0.648796,-0.760962,0.760962,0.648796,-522.104,1030.09)"><path d="M863.433,1064.62c2.2,0 3.885,0.54 5.055,1.62c1.17,1.08 1.755,2.69 1.755,4.83l0,9.6l-2.73,0l0,-2.1c-0.48,0.74 -1.165,1.305 -2.055,1.695c-0.89,0.39 -1.945,0.585 -3.165,0.585c-1.78,0 -3.205,-0.43 -4.275,-1.29c-1.07,-0.86 -1.605,-1.99 -1.605,-3.39c0,-1.4 0.51,-2.525 1.53,-3.375c1.02,-0.85 2.64,-1.275 4.86,-1.275l4.56,0l0,-0.57c0,-1.24 -0.36,-2.19 -1.08,-2.85c-0.72,-0.66 -1.78,-0.99 -3.18,-0.99c-0.94,0 -1.86,0.155 -2.76,0.465c-0.9,0.31 -1.66,0.725 -2.28,1.245l-1.2,-2.16c0.82,-0.66 1.8,-1.165 2.94,-1.515c1.14,-0.35 2.35,-0.525 3.63,-0.525Zm-0.66,14.01c1.1,0 2.05,-0.245 2.85,-0.735c0.8,-0.49 1.38,-1.185 1.74,-2.085l0,-2.22l-4.44,0c-2.44,0 -3.66,0.82 -3.66,2.46c0,0.8 0.31,1.43 0.93,1.89c0.62,0.46 1.48,0.69 2.58,0.69Z" style="fill:#fff;fill-rule:nonzero;"/></g><g transform="matrix(0.585562,-0.810627,0.810627,0.585562,-504.566,1144.78)"><path d="M878.969,1064.92c-0.42,0.36 -0.94,0.635 -1.56,0.825c-0.62,0.19 -1.26,0.285 -1.92,0.285c-1.6,0 -2.84,-0.43 -3.72,-1.29c-0.88,-0.86 -1.32,-2.09 -1.32,-3.69l0,-8.73l-2.7,0l0,-2.37l2.7,0l0,-3.48l2.88,0l0,3.48l4.56,0l0,2.37l-4.56,0l0,8.61c0,0.86 0.215,1.52 0.645,1.98c0.43,0.46 1.045,0.69 1.845,0.69c0.88,0 1.63,-0.25 2.25,-0.75l0.9,2.07Z" style="fill:#fff;fill-rule:nonzero;"/></g><g transform="matrix(0.540039,-0.84164,0.84164,0.540039,-485.406,1221.73)"><path d="M877.788,1039.06l2.88,0l0,15.9l-2.88,0l0,-15.9Zm1.44,-3.06c-0.56,0 -1.025,-0.18 -1.395,-0.54c-0.37,-0.36 -0.555,-0.8 -0.555,-1.32c0,-0.52 0.185,-0.965 0.555,-1.335c0.37,-0.37 0.835,-0.555 1.395,-0.555c0.56,0 1.025,0.175 1.395,0.525c0.37,0.35 0.555,0.785 0.555,1.305c0,0.54 -0.185,0.995 -0.555,1.365c-0.37,0.37 -0.835,0.555 -1.395,0.555Z" style="fill:#fff;fill-rule:nonzero;"/></g><g transform="matrix(0.477509,-0.878627,0.878627,0.477509,-459.875,1320.54)"><path d="M889.924,1047.12c-1.58,0 -3,-0.35 -4.26,-1.05c-1.26,-0.7 -2.245,-1.665 -2.955,-2.895c-0.71,-1.23 -1.065,-2.625 -1.065,-4.185c0,-1.56 0.355,-2.955 1.065,-4.185c0.71,-1.23 1.695,-2.19 2.955,-2.88c1.26,-0.69 2.68,-1.035 4.26,-1.035c1.58,0 2.995,0.345 4.245,1.035c1.25,0.69 2.23,1.65 2.94,2.88c0.71,1.23 1.065,2.625 1.065,4.185c0,1.56 -0.355,2.955 -1.065,4.185c-0.71,1.23 -1.69,2.195 -2.94,2.895c-1.25,0.7 -2.665,1.05 -4.245,1.05Zm0,-2.52c1.02,0 1.935,-0.235 2.745,-0.705c0.81,-0.47 1.445,-1.13 1.905,-1.98c0.46,-0.85 0.69,-1.825 0.69,-2.925c0,-1.1 -0.23,-2.075 -0.69,-2.925c-0.46,-0.85 -1.095,-1.505 -1.905,-1.965c-0.81,-0.46 -1.725,-0.69 -2.745,-0.69c-1.02,0 -1.935,0.23 -2.745,0.69c-0.81,0.46 -1.45,1.115 -1.92,1.965c-0.47,0.85 -0.705,1.825 -0.705,2.925c0,1.1 0.235,2.075 0.705,2.925c0.47,0.85 1.11,1.51 1.92,1.98c0.81,0.47 1.725,0.705 2.745,0.705Z" style="fill:#fff;fill-rule:nonzero;"/></g><g transform="matrix(0.381336,-0.924436,0.924436,0.381336,-400.006,1459.36)"><path d="M901.541,1012.49c2.02,0 3.625,0.585 4.815,1.755c1.19,1.17 1.785,2.885 1.785,5.145l0,9.15l-2.88,0l0,-8.82c0,-1.54 -0.37,-2.7 -1.11,-3.48c-0.74,-0.78 -1.8,-1.17 -3.18,-1.17c-1.56,0 -2.79,0.455 -3.69,1.365c-0.9,0.91 -1.35,2.215 -1.35,3.915l0,8.19l-2.88,0l0,-15.9l2.76,0l0,2.4c0.58,-0.82 1.365,-1.45 2.355,-1.89c0.99,-0.44 2.115,-0.66 3.375,-0.66Z" style="fill:#fff;fill-rule:nonzero;"/></g><g transform="matrix(0.291023,-0.956716,0.956716,0.291023,-327.367,1574.34)"><path d="M905.837,1008.23c-1.3,0 -2.55,-0.175 -3.75,-0.525c-1.2,-0.35 -2.14,-0.795 -2.82,-1.335l1.2,-2.28c0.7,0.5 1.55,0.9 2.55,1.2c1,0.3 2.01,0.45 3.03,0.45c2.52,0 3.78,-0.72 3.78,-2.16c0,-0.48 -0.17,-0.86 -0.51,-1.14c-0.34,-0.28 -0.765,-0.485 -1.275,-0.615c-0.51,-0.13 -1.235,-0.275 -2.175,-0.435c-1.28,-0.2 -2.325,-0.43 -3.135,-0.69c-0.81,-0.26 -1.505,-0.7 -2.085,-1.32c-0.58,-0.62 -0.87,-1.49 -0.87,-2.61c0,-1.44 0.6,-2.595 1.8,-3.465c1.2,-0.87 2.81,-1.305 4.83,-1.305c1.06,0 2.12,0.13 3.18,0.39c1.06,0.26 1.93,0.61 2.61,1.05l-1.23,2.28c-1.3,-0.84 -2.83,-1.26 -4.59,-1.26c-1.22,0 -2.15,0.2 -2.79,0.6c-0.64,0.4 -0.96,0.93 -0.96,1.59c0,0.52 0.18,0.93 0.54,1.23c0.36,0.3 0.805,0.52 1.335,0.66c0.53,0.14 1.275,0.3 2.235,0.48c1.28,0.22 2.315,0.455 3.105,0.705c0.79,0.25 1.465,0.675 2.025,1.275c0.56,0.6 0.84,1.44 0.84,2.52c0,1.44 -0.615,2.585 -1.845,3.435c-1.23,0.85 -2.905,1.275 -5.025,1.275Z" style="fill:#fff;fill-rule:nonzero;"/></g></g><defs><radialGradient id="_Radial1" cx="0" cy="0" r="1" gradientUnits="userSpaceOnUse" gradientTransform="matrix(574.369,0,0,544.763,37.0016,312.893)"><stop offset="0" style="stop-color:#80217e;stop-opacity:1"/><stop offset="1" style="stop-color:#d04acd;stop-opacity:1"/></radialGradient><radialGradient id="_Radial2" cx="0" cy="0" r="1" gradientUnits="userSpaceOnUse" gradientTransform="matrix(3.517e-14,-544.763,574.369,3.33571e-14,324.186,585.275)"><stop offset="0" style="stop-color:#80217e;stop-opacity:1"/><stop offset="1" style="stop-color:#d04acd;stop-opacity:1"/></radialGradient><radialGradient id="_Radial3" cx="0" cy="0" r="1" gradientUnits="userSpaceOnUse" gradientTransform="matrix(-574.369,-6.67142e-14,7.034e-14,-544.763,611.371,312.893)"><stop offset="0" style="stop-color:#80217e;stop-opacity:1"/><stop offset="1" style="stop-color:#d04acd;stop-opacity:1"/></radialGradient><radialGradient id="_Radial4" cx="0" cy="0" r="1" gradientUnits="userSpaceOnUse" gradientTransform="matrix(-1.0551e-13,544.763,-574.369,-1.00071e-13,324.186,40.5122)"><stop offset="0" style="stop-color:#80217e;stop-opacity:1"/><stop offset="1" style="stop-color:#d04acd;stop-opacity:1"/></radialGradient></defs></svg>