<?xml version="1.0" encoding="UTF-8" standalone="no"?><!DOCTYPE svg PUBLIC "-//W3C//DTD SVG 1.1//EN" "http://www.w3.org/Graphics/SVG/1.1/DTD/svg11.dtd"><svg width="100%" height="100%" viewBox="0 0 723 550" version="1.1" xmlns="http://www.w3.org/2000/svg" xmlns:xlink="http://www.w3.org/1999/xlink" xml:space="preserve" xmlns:serif="http://www.serif.com/" style="fill-rule:evenodd;clip-rule:evenodd;stroke-linejoin:round;stroke-miterlimit:1.41421;"><rect id="Team" x="0" y="0" width="722.883" height="549.189" style="fill:none;"/><g><path d="M354.494,495.383c-5.952,0 -10.756,4.803 -10.756,10.756c0,5.847 4.7,10.651 10.547,10.755c0.105,0 0.105,0 0.209,0c5.953,0 10.756,-4.803 10.756,-10.755c0,-5.953 -4.803,-10.756 -10.756,-10.756Z" style="fill:#832280;fill-rule:nonzero;"/><path d="M474.166,172.08c3.446,-4.803 2.507,-11.487 -2.297,-15.037c-4.804,-3.446 -11.487,-2.402 -15.037,2.297c-3.446,4.804 -2.402,11.487 2.297,15.038c1.88,1.357 3.968,1.984 6.161,2.088c3.342,0.105 6.683,-1.462 8.876,-4.386Z" style="fill:#832280;fill-rule:nonzero;"/><path d="M166.319,308.878c0.313,0 0.626,0.105 0.94,0.105c5.534,0.104 10.233,-4.073 10.86,-9.608l0,-0.104c0,-0.104 0,-0.104 0,-0.209c0.627,-5.952 -3.655,-11.173 -9.503,-11.8c-5.952,-0.627 -11.173,3.655 -11.8,9.503l0,0.313c-0.731,5.848 3.551,11.174 9.503,11.8Z" style="fill:#832280;fill-rule:nonzero;"/><path d="M426.653,480.137c-5.431,2.401 -7.832,8.771 -5.431,14.202c1.776,3.968 5.535,6.265 9.608,6.369c1.566,0 3.028,-0.313 4.594,-0.939c5.43,-2.402 7.832,-8.772 5.43,-14.202c-2.401,-5.43 -8.771,-7.832 -14.201,-5.43Z" style="fill:#832280;fill-rule:nonzero;"/><path d="M282.336,480.032c-5.43,-2.402 -11.8,0 -14.202,5.43c-2.402,5.43 0,11.8 5.43,14.202c1.358,0.627 2.82,0.94 4.177,0.94c4.177,0.104 8.146,-2.297 10.025,-6.37c2.402,-5.43 -0.104,-11.8 -5.43,-14.202Z" style="fill:#832280;fill-rule:nonzero;"/><path d="M252.992,159.131c-3.446,-4.803 -10.233,-5.847 -15.037,-2.401c-4.804,3.446 -5.848,10.233 -2.402,15.037c2.089,2.82 5.222,4.386 8.563,4.49c2.193,0 4.49,-0.626 6.475,-1.984c4.803,-3.655 5.847,-10.338 2.401,-15.142Z" style="fill:#832280;fill-rule:nonzero;"/><path d="M517.608,234.736c1.879,0 3.759,-0.418 5.534,-1.462c5.117,-2.924 6.892,-9.503 3.968,-14.62c-2.924,-5.117 -9.502,-6.892 -14.619,-3.968c-5.117,2.924 -6.892,9.503 -3.969,14.62c1.88,3.446 5.431,5.325 9.086,5.43Z" style="fill:#832280;fill-rule:nonzero;"/><path d="M186.369,232.752c1.67,0.94 3.446,1.462 5.221,1.462c3.759,0.104 7.414,-1.88 9.503,-5.326c2.924,-5.117 1.253,-11.696 -3.864,-14.62c-5.117,-3.028 -11.696,-1.253 -14.62,3.864c-3.132,5.013 -1.357,11.591 3.76,14.62Z" style="fill:#832280;fill-rule:nonzero;"/><path d="M541.625,309.191c0.418,0 0.836,0 1.358,-0.104c5.848,-0.627 10.129,-5.848 9.607,-11.8c-0.626,-5.952 -5.848,-10.234 -11.8,-9.607c-5.952,0.626 -10.234,5.848 -9.607,11.8c0.522,5.534 5.117,9.607 10.442,9.711Z" style="fill:#832280;fill-rule:nonzero;"/><path d="M448.478,307.729l-13.471,0c-2.193,-10.755 -6.475,-20.676 -12.323,-29.448l9.503,-9.607c3.342,-3.446 3.342,-8.98 0,-12.322l-10.442,-10.338c-3.446,-3.342 -8.981,-3.342 -12.323,0l-9.502,9.607c-8.772,-5.848 -18.797,-10.025 -29.553,-12.113l0,-13.471c0,-4.804 -3.968,-8.668 -8.772,-8.668l-14.619,0.105c-4.804,0 -8.668,3.968 -8.668,8.772l0,13.47c-10.756,2.193 -20.676,6.475 -29.448,12.323l-9.607,-9.503c-3.446,-3.342 -8.981,-3.342 -12.322,0l-10.338,10.443c-3.342,3.446 -3.342,8.98 0,12.322l9.607,9.503c-5.848,8.771 -10.025,18.796 -12.114,29.552l-13.471,0c-4.803,0 -8.667,3.968 -8.667,8.772l0.105,14.619c0,4.804 3.968,8.668 8.771,8.668l13.471,0c2.193,10.756 6.475,20.676 12.322,29.448l-9.502,9.607c-3.342,3.446 -3.342,8.981 0,12.322l10.442,10.338c3.446,3.342 8.981,3.342 12.323,0l9.502,-9.607c8.772,5.848 18.797,10.025 29.553,12.114l0,13.471c0,4.803 3.968,8.667 8.772,8.667l14.619,-0.104c4.804,0 8.668,-3.969 8.668,-8.772l0,-13.471c10.755,-2.193 20.676,-6.475 29.448,-12.322l9.607,9.502c3.446,3.342 8.98,3.342 12.322,0l10.338,-10.442c3.342,-3.446 3.342,-8.981 0,-12.322l-9.607,-9.503c5.848,-8.772 10.025,-18.797 12.113,-29.553l13.471,0c4.804,0 8.668,-3.968 8.668,-8.772l-0.105,-14.619c0,-4.699 -3.968,-8.668 -8.771,-8.668Zm-93.67,55.451c-21.617,0.104 -39.16,-17.335 -39.16,-38.951c-0.105,-21.616 17.335,-39.16 38.951,-39.16c21.616,-0.104 39.159,17.335 39.159,38.951c0,21.616 -17.439,39.16 -38.95,39.16Z" style="fill:#832280;fill-rule:nonzero;"/><path d="M219.785,441.395c-17.021,-6.475 -27.255,-13.158 -27.255,-13.158l-13.053,41.457l-1.776,5.639l-5.848,-16.604c13.471,-18.796 -1.044,-19.736 -3.55,-19.736c-2.506,0 -17.021,0.94 -3.55,19.736l-5.848,16.604l-1.776,-5.639l-13.157,-41.457c0,0 -10.234,6.683 -27.255,13.158c-18.797,6.787 -17.544,22.242 -17.962,51.168l139.096,0c-0.523,-28.926 0.626,-44.381 -18.066,-51.168Z" style="fill:#832280;fill-rule:nonzero;"/><path d="M138.646,401.922c1.462,9.711 8.981,22.138 21.407,26.524c5.013,1.775 10.652,1.775 15.664,0c12.114,-4.386 19.946,-16.708 21.408,-26.42c1.67,-0.104 3.759,-2.402 6.056,-10.651c3.133,-11.174 -0.209,-12.845 -3.028,-12.636c0.522,-1.566 0.94,-3.133 1.253,-4.595c4.804,-29.03 -9.503,-30.074 -9.503,-30.074c0,0 -2.297,-4.595 -8.563,-8.041c-4.177,-2.506 -10.025,-4.386 -17.648,-3.759c-2.506,0.104 -4.803,0.626 -6.996,1.357c-2.82,0.94 -5.43,2.297 -7.728,3.968c-2.924,1.776 -5.534,4.073 -7.936,6.579c-3.759,3.864 -7.205,8.876 -8.667,15.142c-1.254,4.699 -0.94,9.503 0.104,14.724c0.313,1.566 0.731,3.028 1.253,4.595c-2.819,-0.314 -6.265,1.357 -3.028,12.635c2.193,8.25 4.386,10.547 5.952,10.652Z" style="fill:#832280;fill-rule:nonzero;"/><path d="M592.69,441.395c-17.022,-6.475 -27.255,-13.158 -27.255,-13.158l-13.054,41.457l-1.775,5.639l-5.848,-16.604c13.471,-18.796 -1.044,-19.736 -3.55,-19.736c-2.506,0 -17.022,0.94 -3.551,19.736l-5.848,16.604l-1.775,-5.639l-13.157,-41.457c0,0 -10.234,6.683 -27.256,13.158c-18.796,6.787 -17.543,22.242 -17.961,51.168l139.095,0c-0.522,-28.926 0.627,-44.381 -18.065,-51.168Z" style="fill:#832280;fill-rule:nonzero;"/><path d="M511.551,401.922c1.462,9.711 8.98,22.138 21.407,26.524c5.013,1.775 10.652,1.775 15.664,0c12.113,-4.386 19.945,-16.708 21.407,-26.42c1.671,-0.104 3.76,-2.402 6.057,-10.651c3.133,-11.174 -0.209,-12.845 -3.028,-12.636c0.522,-1.566 0.939,-3.133 1.253,-4.595c4.803,-29.03 -9.503,-30.074 -9.503,-30.074c0,0 -2.402,-4.595 -8.563,-8.041c-4.177,-2.506 -10.025,-4.386 -17.648,-3.759c-2.506,0.104 -4.803,0.626 -6.996,1.357c-2.82,0.94 -5.431,2.297 -7.728,3.968c-2.924,1.776 -5.535,4.073 -7.936,6.579c-3.76,3.864 -7.206,8.876 -8.668,15.142c-1.253,4.699 -0.939,9.503 0.105,14.724c0.313,1.566 0.731,3.028 1.253,4.595c-2.82,-0.314 -6.266,1.357 -3.028,12.635c2.192,8.25 4.281,10.547 5.952,10.652Z" style="fill:#832280;fill-rule:nonzero;"/><path d="M354.703,169.365l69.443,0c-0.417,-28.926 0.836,-44.381 -17.961,-51.168c-17.021,-6.475 -27.255,-13.158 -27.255,-13.158l-13.158,41.457l-1.775,5.639l-5.848,-16.604c13.471,-18.796 -1.044,-19.736 -3.55,-19.736c-2.506,0 -17.022,0.94 -3.551,19.736l-5.848,16.604l-1.775,-5.639l-13.157,-41.457c0,0 -10.234,6.683 -27.256,13.158c-18.796,6.787 -17.543,22.242 -17.961,51.168l69.652,0Z" style="fill:#832280;fill-rule:nonzero;"/><path d="M325.151,78.724c1.462,9.711 8.98,22.138 21.407,26.524c5.012,1.775 10.651,1.775 15.664,0c12.113,-4.386 19.945,-16.708 21.407,-26.42c1.671,-0.104 3.759,-2.402 6.057,-10.651c3.133,-11.174 -0.209,-12.845 -3.029,-12.636c0.523,-1.566 0.94,-3.133 1.254,-4.595c4.803,-29.03 -9.503,-30.074 -9.503,-30.074c0,0 -2.402,-4.595 -8.563,-8.041c-4.177,-2.506 -10.025,-4.386 -17.648,-3.759c-2.506,0.104 -4.804,0.626 -6.997,1.357c-2.819,0.94 -5.43,2.297 -7.727,3.968c-2.924,1.775 -5.535,4.073 -7.936,6.579c-3.76,3.864 -7.206,8.876 -8.668,15.142c-1.253,4.699 -0.94,9.503 0.105,14.724c0.313,1.566 0.731,3.028 1.253,4.595c-2.82,-0.314 -6.266,1.357 -3.029,12.635c2.193,8.25 4.282,10.547 5.953,10.652Z" style="fill:#832280;fill-rule:nonzero;"/></g></svg>