<?xml version="1.0" encoding="UTF-8" standalone="no"?><!DOCTYPE svg PUBLIC "-//W3C//DTD SVG 1.1//EN" "http://www.w3.org/Graphics/SVG/1.1/DTD/svg11.dtd"><svg width="100%" height="100%" viewBox="0 0 1431 501" version="1.1" xmlns="http://www.w3.org/2000/svg" xmlns:xlink="http://www.w3.org/1999/xlink" xml:space="preserve" xmlns:serif="http://www.serif.com/" style="fill-rule:evenodd;clip-rule:evenodd;stroke-linejoin:round;stroke-miterlimit:1.41421;"><rect id="Artboard1" x="0" y="0" width="1431.4" height="501.712" style="fill:none;"/><clipPath id="_clip1"><rect x="0" y="0" width="1431.4" height="501.712"/></clipPath><g clip-path="url(#_clip1)"><path d="M860.943,429.089l102.054,0l0,-204.108l-102.054,0l413.507,0l102.054,102.054l-102.054,102.054l-413.507,0Z" style="fill:url(#_Linear2);"/><path d="M552.965,429.555l102.054,0l0,-204.108l-102.054,0l413.507,0l102.054,102.054l-102.054,102.054l-413.507,0Z" style="fill:url(#_Linear3);"/><path d="M245.685,429.331l102.054,0l0,-204.108l-102.054,0l413.506,0l102.054,102.054l-102.054,102.054l-413.506,0Z" style="fill:url(#_Linear4);"/><path d="M-62.766,428.786l102.054,0l0,-204.108l-102.054,0l413.507,0l102.054,102.054l-102.054,102.054l-413.507,0Z" style="fill:url(#_Linear5);"/><g transform="matrix(1,0,0,1,-43.1655,21.8494)"><rect x="183.201" y="280.096" width="3" height="21" style="fill:#fff;fill-rule:nonzero;"/><path d="M200.571,285.046c2.02,0 3.625,0.585 4.815,1.755c1.19,1.17 1.785,2.885 1.785,5.145l0,9.15l-2.88,0l0,-8.82c0,-1.54 -0.37,-2.7 -1.11,-3.48c-0.74,-0.78 -1.8,-1.17 -3.18,-1.17c-1.56,0 -2.79,0.455 -3.69,1.365c-0.9,0.91 -1.35,2.215 -1.35,3.915l0,8.19l-2.88,0l0,-15.9l2.76,0l0,2.4c0.58,-0.82 1.365,-1.45 2.355,-1.89c0.99,-0.44 2.115,-0.66 3.375,-0.66Z" style="fill:#fff;fill-rule:nonzero;"/><path d="M219.531,301.276c-1.62,0 -3.065,-0.35 -4.335,-1.05c-1.27,-0.7 -2.265,-1.665 -2.985,-2.895c-0.72,-1.23 -1.08,-2.625 -1.08,-4.185c0,-1.56 0.36,-2.955 1.08,-4.185c0.72,-1.23 1.715,-2.19 2.985,-2.88c1.27,-0.69 2.715,-1.035 4.335,-1.035c1.44,0 2.725,0.29 3.855,0.87c1.13,0.58 2.005,1.42 2.625,2.52l-2.19,1.41c-0.5,-0.76 -1.12,-1.33 -1.86,-1.71c-0.74,-0.38 -1.56,-0.57 -2.46,-0.57c-1.04,0 -1.975,0.23 -2.805,0.69c-0.83,0.46 -1.48,1.115 -1.95,1.965c-0.47,0.85 -0.705,1.825 -0.705,2.925c0,1.12 0.235,2.105 0.705,2.955c0.47,0.85 1.12,1.505 1.95,1.965c0.83,0.46 1.765,0.69 2.805,0.69c0.9,0 1.72,-0.19 2.46,-0.57c0.74,-0.38 1.36,-0.95 1.86,-1.71l2.19,1.38c-0.62,1.1 -1.495,1.945 -2.625,2.535c-1.13,0.59 -2.415,0.885 -3.855,0.885Z" style="fill:#fff;fill-rule:nonzero;"/><path d="M229.731,285.196l2.88,0l0,15.9l-2.88,0l0,-15.9Zm1.44,-3.06c-0.56,0 -1.025,-0.18 -1.395,-0.54c-0.37,-0.36 -0.555,-0.8 -0.555,-1.32c0,-0.52 0.185,-0.965 0.555,-1.335c0.37,-0.37 0.835,-0.555 1.395,-0.555c0.56,0 1.025,0.175 1.395,0.525c0.37,0.35 0.555,0.785 0.555,1.305c0,0.54 -0.185,0.995 -0.555,1.365c-0.37,0.37 -0.835,0.555 -1.395,0.555Z" style="fill:#fff;fill-rule:nonzero;"/><path d="M253.101,278.836l0,22.26l-2.76,0l0,-2.52c-0.64,0.88 -1.45,1.55 -2.43,2.01c-0.98,0.46 -2.06,0.69 -3.24,0.69c-1.54,0 -2.92,-0.34 -4.14,-1.02c-1.22,-0.68 -2.175,-1.635 -2.865,-2.865c-0.69,-1.23 -1.035,-2.645 -1.035,-4.245c0,-1.6 0.345,-3.01 1.035,-4.23c0.69,-1.22 1.645,-2.17 2.865,-2.85c1.22,-0.68 2.6,-1.02 4.14,-1.02c1.14,0 2.19,0.215 3.15,0.645c0.96,0.43 1.76,1.065 2.4,1.905l0,-8.76l2.88,0Zm-8.19,19.92c1,0 1.91,-0.235 2.73,-0.705c0.82,-0.47 1.46,-1.13 1.92,-1.98c0.46,-0.85 0.69,-1.825 0.69,-2.925c0,-1.1 -0.23,-2.075 -0.69,-2.925c-0.46,-0.85 -1.1,-1.505 -1.92,-1.965c-0.82,-0.46 -1.73,-0.69 -2.73,-0.69c-1.02,0 -1.935,0.23 -2.745,0.69c-0.81,0.46 -1.45,1.115 -1.92,1.965c-0.47,0.85 -0.705,1.825 -0.705,2.925c0,1.1 0.235,2.075 0.705,2.925c0.47,0.85 1.11,1.51 1.92,1.98c0.81,0.47 1.725,0.705 2.745,0.705Z" style="fill:#fff;fill-rule:nonzero;"/><path d="M272.931,293.236c0,0.22 -0.02,0.51 -0.06,0.87l-12.9,0c0.18,1.4 0.795,2.525 1.845,3.375c1.05,0.85 2.355,1.275 3.915,1.275c1.9,0 3.43,-0.64 4.59,-1.92l1.59,1.86c-0.72,0.84 -1.615,1.48 -2.685,1.92c-1.07,0.44 -2.265,0.66 -3.585,0.66c-1.68,0 -3.17,-0.345 -4.47,-1.035c-1.3,-0.69 -2.305,-1.655 -3.015,-2.895c-0.71,-1.24 -1.065,-2.64 -1.065,-4.2c0,-1.54 0.345,-2.93 1.035,-4.17c0.69,-1.24 1.64,-2.205 2.85,-2.895c1.21,-0.69 2.575,-1.035 4.095,-1.035c1.52,0 2.875,0.345 4.065,1.035c1.19,0.69 2.12,1.655 2.79,2.895c0.67,1.24 1.005,2.66 1.005,4.26Zm-7.86,-5.76c-1.38,0 -2.535,0.42 -3.465,1.26c-0.93,0.84 -1.475,1.94 -1.635,3.3l10.2,0c-0.16,-1.34 -0.705,-2.435 -1.635,-3.285c-0.93,-0.85 -2.085,-1.275 -3.465,-1.275Z" style="fill:#fff;fill-rule:nonzero;"/><path d="M285.411,285.046c2.02,0 3.625,0.585 4.815,1.755c1.19,1.17 1.785,2.885 1.785,5.145l0,9.15l-2.88,0l0,-8.82c0,-1.54 -0.37,-2.7 -1.11,-3.48c-0.74,-0.78 -1.8,-1.17 -3.18,-1.17c-1.56,0 -2.79,0.455 -3.69,1.365c-0.9,0.91 -1.35,2.215 -1.35,3.915l0,8.19l-2.88,0l0,-15.9l2.76,0l0,2.4c0.58,-0.82 1.365,-1.45 2.355,-1.89c0.99,-0.44 2.115,-0.66 3.375,-0.66Z" style="fill:#fff;fill-rule:nonzero;"/><path d="M306.291,300.166c-0.42,0.36 -0.94,0.635 -1.56,0.825c-0.62,0.19 -1.26,0.285 -1.92,0.285c-1.6,0 -2.84,-0.43 -3.72,-1.29c-0.88,-0.86 -1.32,-2.09 -1.32,-3.69l0,-8.73l-2.7,0l0,-2.37l2.7,0l0,-3.48l2.88,0l0,3.48l4.56,0l0,2.37l-4.56,0l0,8.61c0,0.86 0.215,1.52 0.645,1.98c0.43,0.46 1.045,0.69 1.845,0.69c0.88,0 1.63,-0.25 2.25,-0.75l0.9,2.07Z" style="fill:#fff;fill-rule:nonzero;"/><path d="M185.541,317.866c0.5,-0.92 1.24,-1.62 2.22,-2.1c0.98,-0.48 2.17,-0.72 3.57,-0.72l0,2.79c-0.16,-0.02 -0.38,-0.03 -0.66,-0.03c-1.56,0 -2.785,0.465 -3.675,1.395c-0.89,0.93 -1.335,2.255 -1.335,3.975l0,7.92l-2.88,0l0,-15.9l2.76,0l0,2.67Z" style="fill:#fff;fill-rule:nonzero;"/><path d="M209.091,323.236c0,0.22 -0.02,0.51 -0.06,0.87l-12.9,0c0.18,1.4 0.795,2.525 1.845,3.375c1.05,0.85 2.355,1.275 3.915,1.275c1.9,0 3.43,-0.64 4.59,-1.92l1.59,1.86c-0.72,0.84 -1.615,1.48 -2.685,1.92c-1.07,0.44 -2.265,0.66 -3.585,0.66c-1.68,0 -3.17,-0.345 -4.47,-1.035c-1.3,-0.69 -2.305,-1.655 -3.015,-2.895c-0.71,-1.24 -1.065,-2.64 -1.065,-4.2c0,-1.54 0.345,-2.93 1.035,-4.17c0.69,-1.24 1.64,-2.205 2.85,-2.895c1.21,-0.69 2.575,-1.035 4.095,-1.035c1.52,0 2.875,0.345 4.065,1.035c1.19,0.69 2.12,1.655 2.79,2.895c0.67,1.24 1.005,2.66 1.005,4.26Zm-7.86,-5.76c-1.38,0 -2.535,0.42 -3.465,1.26c-0.93,0.84 -1.475,1.94 -1.635,3.3l10.2,0c-0.16,-1.34 -0.705,-2.435 -1.635,-3.285c-0.93,-0.85 -2.085,-1.275 -3.465,-1.275Z" style="fill:#fff;fill-rule:nonzero;"/><path d="M217.641,331.276c-1.3,0 -2.55,-0.175 -3.75,-0.525c-1.2,-0.35 -2.14,-0.795 -2.82,-1.335l1.2,-2.28c0.7,0.5 1.55,0.9 2.55,1.2c1,0.3 2.01,0.45 3.03,0.45c2.52,0 3.78,-0.72 3.78,-2.16c0,-0.48 -0.17,-0.86 -0.51,-1.14c-0.34,-0.28 -0.765,-0.485 -1.275,-0.615c-0.51,-0.13 -1.235,-0.275 -2.175,-0.435c-1.28,-0.2 -2.325,-0.43 -3.135,-0.69c-0.81,-0.26 -1.505,-0.7 -2.085,-1.32c-0.58,-0.62 -0.87,-1.49 -0.87,-2.61c0,-1.44 0.6,-2.595 1.8,-3.465c1.2,-0.87 2.81,-1.305 4.83,-1.305c1.06,0 2.12,0.13 3.18,0.39c1.06,0.26 1.93,0.61 2.61,1.05l-1.23,2.28c-1.3,-0.84 -2.83,-1.26 -4.59,-1.26c-1.22,0 -2.15,0.2 -2.79,0.6c-0.64,0.4 -0.96,0.93 -0.96,1.59c0,0.52 0.18,0.93 0.54,1.23c0.36,0.3 0.805,0.52 1.335,0.66c0.53,0.14 1.275,0.3 2.235,0.48c1.28,0.22 2.315,0.455 3.105,0.705c0.79,0.25 1.465,0.675 2.025,1.275c0.56,0.6 0.84,1.44 0.84,2.52c0,1.44 -0.615,2.585 -1.845,3.435c-1.23,0.85 -2.905,1.275 -5.025,1.275Z" style="fill:#fff;fill-rule:nonzero;"/><path d="M236.541,315.046c1.54,0 2.92,0.34 4.14,1.02c1.22,0.68 2.175,1.63 2.865,2.85c0.69,1.22 1.035,2.63 1.035,4.23c0,1.6 -0.345,3.015 -1.035,4.245c-0.69,1.23 -1.645,2.185 -2.865,2.865c-1.22,0.68 -2.6,1.02 -4.14,1.02c-1.14,0 -2.185,-0.22 -3.135,-0.66c-0.95,-0.44 -1.755,-1.08 -2.415,-1.92l0,8.22l-2.88,0l0,-21.72l2.76,0l0,2.52c0.64,-0.88 1.45,-1.545 2.43,-1.995c0.98,-0.45 2.06,-0.675 3.24,-0.675Zm-0.24,13.71c1.02,0 1.935,-0.235 2.745,-0.705c0.81,-0.47 1.45,-1.13 1.92,-1.98c0.47,-0.85 0.705,-1.825 0.705,-2.925c0,-1.1 -0.235,-2.075 -0.705,-2.925c-0.47,-0.85 -1.11,-1.505 -1.92,-1.965c-0.81,-0.46 -1.725,-0.69 -2.745,-0.69c-1,0 -1.905,0.235 -2.715,0.705c-0.81,0.47 -1.45,1.125 -1.92,1.965c-0.47,0.84 -0.705,1.81 -0.705,2.91c0,1.1 0.23,2.075 0.69,2.925c0.46,0.85 1.1,1.51 1.92,1.98c0.82,0.47 1.73,0.705 2.73,0.705Z" style="fill:#fff;fill-rule:nonzero;"/><path d="M255.381,331.276c-1.58,0 -3,-0.35 -4.26,-1.05c-1.26,-0.7 -2.245,-1.665 -2.955,-2.895c-0.71,-1.23 -1.065,-2.625 -1.065,-4.185c0,-1.56 0.355,-2.955 1.065,-4.185c0.71,-1.23 1.695,-2.19 2.955,-2.88c1.26,-0.69 2.68,-1.035 4.26,-1.035c1.58,0 2.995,0.345 4.245,1.035c1.25,0.69 2.23,1.65 2.94,2.88c0.71,1.23 1.065,2.625 1.065,4.185c0,1.56 -0.355,2.955 -1.065,4.185c-0.71,1.23 -1.69,2.195 -2.94,2.895c-1.25,0.7 -2.665,1.05 -4.245,1.05Zm0,-2.52c1.02,0 1.935,-0.235 2.745,-0.705c0.81,-0.47 1.445,-1.13 1.905,-1.98c0.46,-0.85 0.69,-1.825 0.69,-2.925c0,-1.1 -0.23,-2.075 -0.69,-2.925c-0.46,-0.85 -1.095,-1.505 -1.905,-1.965c-0.81,-0.46 -1.725,-0.69 -2.745,-0.69c-1.02,0 -1.935,0.23 -2.745,0.69c-0.81,0.46 -1.45,1.115 -1.92,1.965c-0.47,0.85 -0.705,1.825 -0.705,2.925c0,1.1 0.235,2.075 0.705,2.925c0.47,0.85 1.11,1.51 1.92,1.98c0.81,0.47 1.725,0.705 2.745,0.705Z" style="fill:#fff;fill-rule:nonzero;"/><path d="M276.111,315.046c2.02,0 3.625,0.585 4.815,1.755c1.19,1.17 1.785,2.885 1.785,5.145l0,9.15l-2.88,0l0,-8.82c0,-1.54 -0.37,-2.7 -1.11,-3.48c-0.74,-0.78 -1.8,-1.17 -3.18,-1.17c-1.56,0 -2.79,0.455 -3.69,1.365c-0.9,0.91 -1.35,2.215 -1.35,3.915l0,8.19l-2.88,0l0,-15.9l2.76,0l0,2.4c0.58,-0.82 1.365,-1.45 2.355,-1.89c0.99,-0.44 2.115,-0.66 3.375,-0.66Z" style="fill:#fff;fill-rule:nonzero;"/><path d="M292.611,331.276c-1.3,0 -2.55,-0.175 -3.75,-0.525c-1.2,-0.35 -2.14,-0.795 -2.82,-1.335l1.2,-2.28c0.7,0.5 1.55,0.9 2.55,1.2c1,0.3 2.01,0.45 3.03,0.45c2.52,0 3.78,-0.72 3.78,-2.16c0,-0.48 -0.17,-0.86 -0.51,-1.14c-0.34,-0.28 -0.765,-0.485 -1.275,-0.615c-0.51,-0.13 -1.235,-0.275 -2.175,-0.435c-1.28,-0.2 -2.325,-0.43 -3.135,-0.69c-0.81,-0.26 -1.505,-0.7 -2.085,-1.32c-0.58,-0.62 -0.87,-1.49 -0.87,-2.61c0,-1.44 0.6,-2.595 1.8,-3.465c1.2,-0.87 2.81,-1.305 4.83,-1.305c1.06,0 2.12,0.13 3.18,0.39c1.06,0.26 1.93,0.61 2.61,1.05l-1.23,2.28c-1.3,-0.84 -2.83,-1.26 -4.59,-1.26c-1.22,0 -2.15,0.2 -2.79,0.6c-0.64,0.4 -0.96,0.93 -0.96,1.59c0,0.52 0.18,0.93 0.54,1.23c0.36,0.3 0.805,0.52 1.335,0.66c0.53,0.14 1.275,0.3 2.235,0.48c1.28,0.22 2.315,0.455 3.105,0.705c0.79,0.25 1.465,0.675 2.025,1.275c0.56,0.6 0.84,1.44 0.84,2.52c0,1.44 -0.615,2.585 -1.845,3.435c-1.23,0.85 -2.905,1.275 -5.025,1.275Z" style="fill:#fff;fill-rule:nonzero;"/><path d="M317.451,323.236c0,0.22 -0.02,0.51 -0.06,0.87l-12.9,0c0.18,1.4 0.795,2.525 1.845,3.375c1.05,0.85 2.355,1.275 3.915,1.275c1.9,0 3.43,-0.64 4.59,-1.92l1.59,1.86c-0.72,0.84 -1.615,1.48 -2.685,1.92c-1.07,0.44 -2.265,0.66 -3.585,0.66c-1.68,0 -3.17,-0.345 -4.47,-1.035c-1.3,-0.69 -2.305,-1.655 -3.015,-2.895c-0.71,-1.24 -1.065,-2.64 -1.065,-4.2c0,-1.54 0.345,-2.93 1.035,-4.17c0.69,-1.24 1.64,-2.205 2.85,-2.895c1.21,-0.69 2.575,-1.035 4.095,-1.035c1.52,0 2.875,0.345 4.065,1.035c1.19,0.69 2.12,1.655 2.79,2.895c0.67,1.24 1.005,2.66 1.005,4.26Zm-7.86,-5.76c-1.38,0 -2.535,0.42 -3.465,1.26c-0.93,0.84 -1.475,1.94 -1.635,3.3l10.2,0c-0.16,-1.34 -0.705,-2.435 -1.635,-3.285c-0.93,-0.85 -2.085,-1.275 -3.465,-1.275Z" style="fill:#fff;fill-rule:nonzero;"/></g><path d="M515.037,337.856l-0.03,-15.3l-7.59,12.75l-1.38,0l-7.59,-12.66l0,15.21l-2.88,0l0,-21l2.46,0l8.76,14.76l8.64,-14.76l2.46,0l0.03,21l-2.88,0Z" style="fill:#fff;fill-rule:nonzero;"/><path d="M538.167,329.996c0,0.22 -0.02,0.51 -0.06,0.87l-12.9,0c0.18,1.4 0.795,2.525 1.845,3.375c1.05,0.85 2.355,1.275 3.915,1.275c1.9,0 3.43,-0.64 4.59,-1.92l1.59,1.86c-0.72,0.84 -1.615,1.48 -2.685,1.92c-1.07,0.44 -2.265,0.66 -3.585,0.66c-1.68,0 -3.17,-0.345 -4.47,-1.035c-1.3,-0.69 -2.305,-1.655 -3.015,-2.895c-0.71,-1.24 -1.065,-2.64 -1.065,-4.2c0,-1.54 0.345,-2.93 1.035,-4.17c0.69,-1.24 1.64,-2.205 2.85,-2.895c1.21,-0.69 2.575,-1.035 4.095,-1.035c1.52,0 2.875,0.345 4.065,1.035c1.19,0.69 2.12,1.655 2.79,2.895c0.67,1.24 1.005,2.66 1.005,4.26Zm-7.86,-5.76c-1.38,0 -2.535,0.42 -3.465,1.26c-0.93,0.84 -1.475,1.94 -1.635,3.3l10.2,0c-0.16,-1.34 -0.705,-2.435 -1.635,-3.285c-0.93,-0.85 -2.085,-1.275 -3.465,-1.275Z" style="fill:#fff;fill-rule:nonzero;"/><path d="M546.717,338.036c-1.3,0 -2.55,-0.175 -3.75,-0.525c-1.2,-0.35 -2.14,-0.795 -2.82,-1.335l1.2,-2.28c0.7,0.5 1.55,0.9 2.55,1.2c1,0.3 2.01,0.45 3.03,0.45c2.52,0 3.78,-0.72 3.78,-2.16c0,-0.48 -0.17,-0.86 -0.51,-1.14c-0.34,-0.28 -0.765,-0.485 -1.275,-0.615c-0.51,-0.13 -1.235,-0.275 -2.175,-0.435c-1.28,-0.2 -2.325,-0.43 -3.135,-0.69c-0.81,-0.26 -1.505,-0.7 -2.085,-1.32c-0.58,-0.62 -0.87,-1.49 -0.87,-2.61c0,-1.44 0.6,-2.595 1.8,-3.465c1.2,-0.87 2.81,-1.305 4.83,-1.305c1.06,0 2.12,0.13 3.18,0.39c1.06,0.26 1.93,0.61 2.61,1.05l-1.23,2.28c-1.3,-0.84 -2.83,-1.26 -4.59,-1.26c-1.22,0 -2.15,0.2 -2.79,0.6c-0.64,0.4 -0.96,0.93 -0.96,1.59c0,0.52 0.18,0.93 0.54,1.23c0.36,0.3 0.805,0.52 1.335,0.66c0.53,0.14 1.275,0.3 2.235,0.48c1.28,0.22 2.315,0.455 3.105,0.705c0.79,0.25 1.465,0.675 2.025,1.275c0.56,0.6 0.84,1.44 0.84,2.52c0,1.44 -0.615,2.585 -1.845,3.435c-1.23,0.85 -2.905,1.275 -5.025,1.275Z" style="fill:#fff;fill-rule:nonzero;"/><path d="M561.747,338.036c-1.3,0 -2.55,-0.175 -3.75,-0.525c-1.2,-0.35 -2.14,-0.795 -2.82,-1.335l1.2,-2.28c0.7,0.5 1.55,0.9 2.55,1.2c1,0.3 2.01,0.45 3.03,0.45c2.52,0 3.78,-0.72 3.78,-2.16c0,-0.48 -0.17,-0.86 -0.51,-1.14c-0.34,-0.28 -0.765,-0.485 -1.275,-0.615c-0.51,-0.13 -1.235,-0.275 -2.175,-0.435c-1.28,-0.2 -2.325,-0.43 -3.135,-0.69c-0.81,-0.26 -1.505,-0.7 -2.085,-1.32c-0.58,-0.62 -0.87,-1.49 -0.87,-2.61c0,-1.44 0.6,-2.595 1.8,-3.465c1.2,-0.87 2.81,-1.305 4.83,-1.305c1.06,0 2.12,0.13 3.18,0.39c1.06,0.26 1.93,0.61 2.61,1.05l-1.23,2.28c-1.3,-0.84 -2.83,-1.26 -4.59,-1.26c-1.22,0 -2.15,0.2 -2.79,0.6c-0.64,0.4 -0.96,0.93 -0.96,1.59c0,0.52 0.18,0.93 0.54,1.23c0.36,0.3 0.805,0.52 1.335,0.66c0.53,0.14 1.275,0.3 2.235,0.48c1.28,0.22 2.315,0.455 3.105,0.705c0.79,0.25 1.465,0.675 2.025,1.275c0.56,0.6 0.84,1.44 0.84,2.52c0,1.44 -0.615,2.585 -1.845,3.435c-1.23,0.85 -2.905,1.275 -5.025,1.275Z" style="fill:#fff;fill-rule:nonzero;"/><path d="M578.007,321.806c2.2,0 3.885,0.54 5.055,1.62c1.17,1.08 1.755,2.69 1.755,4.83l0,9.6l-2.73,0l0,-2.1c-0.48,0.74 -1.165,1.305 -2.055,1.695c-0.89,0.39 -1.945,0.585 -3.165,0.585c-1.78,0 -3.205,-0.43 -4.275,-1.29c-1.07,-0.86 -1.605,-1.99 -1.605,-3.39c0,-1.4 0.51,-2.525 1.53,-3.375c1.02,-0.85 2.64,-1.275 4.86,-1.275l4.56,0l0,-0.57c0,-1.24 -0.36,-2.19 -1.08,-2.85c-0.72,-0.66 -1.78,-0.99 -3.18,-0.99c-0.94,0 -1.86,0.155 -2.76,0.465c-0.9,0.31 -1.66,0.725 -2.28,1.245l-1.2,-2.16c0.82,-0.66 1.8,-1.165 2.94,-1.515c1.14,-0.35 2.35,-0.525 3.63,-0.525Zm-0.66,14.01c1.1,0 2.05,-0.245 2.85,-0.735c0.8,-0.49 1.38,-1.185 1.74,-2.085l0,-2.22l-4.44,0c-2.44,0 -3.66,0.82 -3.66,2.46c0,0.8 0.31,1.43 0.93,1.89c0.62,0.46 1.48,0.69 2.58,0.69Z" style="fill:#fff;fill-rule:nonzero;"/><path d="M605.457,321.956l0,13.74c0,2.78 -0.69,4.835 -2.07,6.165c-1.38,1.33 -3.44,1.995 -6.18,1.995c-1.5,0 -2.93,-0.205 -4.29,-0.615c-1.36,-0.41 -2.46,-0.995 -3.3,-1.755l1.38,-2.22c0.74,0.64 1.655,1.145 2.745,1.515c1.09,0.37 2.215,0.555 3.375,0.555c1.86,0 3.235,-0.44 4.125,-1.32c0.89,-0.88 1.335,-2.22 1.335,-4.02l0,-1.26c-0.68,0.82 -1.515,1.435 -2.505,1.845c-0.99,0.41 -2.065,0.615 -3.225,0.615c-1.52,0 -2.895,-0.325 -4.125,-0.975c-1.23,-0.65 -2.195,-1.56 -2.895,-2.73c-0.7,-1.17 -1.05,-2.505 -1.05,-4.005c0,-1.5 0.35,-2.835 1.05,-4.005c0.7,-1.17 1.665,-2.075 2.895,-2.715c1.23,-0.64 2.605,-0.96 4.125,-0.96c1.2,0 2.315,0.22 3.345,0.66c1.03,0.44 1.875,1.09 2.535,1.95l0,-2.46l2.73,0Zm-8.28,12.72c1.04,0 1.975,-0.22 2.805,-0.66c0.83,-0.44 1.48,-1.055 1.95,-1.845c0.47,-0.79 0.705,-1.685 0.705,-2.685c0,-1.54 -0.51,-2.785 -1.53,-3.735c-1.02,-0.95 -2.33,-1.425 -3.93,-1.425c-1.62,0 -2.94,0.475 -3.96,1.425c-1.02,0.95 -1.53,2.195 -1.53,3.735c0,1 0.235,1.895 0.705,2.685c0.47,0.79 1.12,1.405 1.95,1.845c0.83,0.44 1.775,0.66 2.835,0.66Z" style="fill:#fff;fill-rule:nonzero;"/><path d="M610.947,321.956l2.88,0l0,15.9l-2.88,0l0,-15.9Zm1.44,-3.06c-0.56,0 -1.025,-0.18 -1.395,-0.54c-0.37,-0.36 -0.555,-0.8 -0.555,-1.32c0,-0.52 0.185,-0.965 0.555,-1.335c0.37,-0.37 0.835,-0.555 1.395,-0.555c0.56,0 1.025,0.175 1.395,0.525c0.37,0.35 0.555,0.785 0.555,1.305c0,0.54 -0.185,0.995 -0.555,1.365c-0.37,0.37 -0.835,0.555 -1.395,0.555Z" style="fill:#fff;fill-rule:nonzero;"/><path d="M627.807,321.806c2.02,0 3.625,0.585 4.815,1.755c1.19,1.17 1.785,2.885 1.785,5.145l0,9.15l-2.88,0l0,-8.82c0,-1.54 -0.37,-2.7 -1.11,-3.48c-0.74,-0.78 -1.8,-1.17 -3.18,-1.17c-1.56,0 -2.79,0.455 -3.69,1.365c-0.9,0.91 -1.35,2.215 -1.35,3.915l0,8.19l-2.88,0l0,-15.9l2.76,0l0,2.4c0.58,-0.82 1.365,-1.45 2.355,-1.89c0.99,-0.44 2.115,-0.66 3.375,-0.66Z" style="fill:#fff;fill-rule:nonzero;"/><path d="M655.047,321.956l0,13.74c0,2.78 -0.69,4.835 -2.07,6.165c-1.38,1.33 -3.44,1.995 -6.18,1.995c-1.5,0 -2.93,-0.205 -4.29,-0.615c-1.36,-0.41 -2.46,-0.995 -3.3,-1.755l1.38,-2.22c0.74,0.64 1.655,1.145 2.745,1.515c1.09,0.37 2.215,0.555 3.375,0.555c1.86,0 3.235,-0.44 4.125,-1.32c0.89,-0.88 1.335,-2.22 1.335,-4.02l0,-1.26c-0.68,0.82 -1.515,1.435 -2.505,1.845c-0.99,0.41 -2.065,0.615 -3.225,0.615c-1.52,0 -2.895,-0.325 -4.125,-0.975c-1.23,-0.65 -2.195,-1.56 -2.895,-2.73c-0.7,-1.17 -1.05,-2.505 -1.05,-4.005c0,-1.5 0.35,-2.835 1.05,-4.005c0.7,-1.17 1.665,-2.075 2.895,-2.715c1.23,-0.64 2.605,-0.96 4.125,-0.96c1.2,0 2.315,0.22 3.345,0.66c1.03,0.44 1.875,1.09 2.535,1.95l0,-2.46l2.73,0Zm-8.28,12.72c1.04,0 1.975,-0.22 2.805,-0.66c0.83,-0.44 1.48,-1.055 1.95,-1.845c0.47,-0.79 0.705,-1.685 0.705,-2.685c0,-1.54 -0.51,-2.785 -1.53,-3.735c-1.02,-0.95 -2.33,-1.425 -3.93,-1.425c-1.62,0 -2.94,0.475 -3.96,1.425c-1.02,0.95 -1.53,2.195 -1.53,3.735c0,1 0.235,1.895 0.705,2.685c0.47,0.79 1.12,1.405 1.95,1.845c0.83,0.44 1.775,0.66 2.835,0.66Z" style="fill:#fff;fill-rule:nonzero;"/><path d="M800.61,316.856l3,0l0,18.39l11.37,0l0,2.61l-14.37,0l0,-21Z" style="fill:#fff;fill-rule:nonzero;"/><path d="M832.17,329.996c0,0.22 -0.02,0.51 -0.06,0.87l-12.9,0c0.18,1.4 0.795,2.525 1.845,3.375c1.05,0.85 2.355,1.275 3.915,1.275c1.9,0 3.43,-0.64 4.59,-1.92l1.59,1.86c-0.72,0.84 -1.615,1.48 -2.685,1.92c-1.07,0.44 -2.265,0.66 -3.585,0.66c-1.68,0 -3.17,-0.345 -4.47,-1.035c-1.3,-0.69 -2.305,-1.655 -3.015,-2.895c-0.71,-1.24 -1.065,-2.64 -1.065,-4.2c0,-1.54 0.345,-2.93 1.035,-4.17c0.69,-1.24 1.64,-2.205 2.85,-2.895c1.21,-0.69 2.575,-1.035 4.095,-1.035c1.52,0 2.875,0.345 4.065,1.035c1.19,0.69 2.12,1.655 2.79,2.895c0.67,1.24 1.005,2.66 1.005,4.26Zm-7.86,-5.76c-1.38,0 -2.535,0.42 -3.465,1.26c-0.93,0.84 -1.475,1.94 -1.635,3.3l10.2,0c-0.16,-1.34 -0.705,-2.435 -1.635,-3.285c-0.93,-0.85 -2.085,-1.275 -3.465,-1.275Z" style="fill:#fff;fill-rule:nonzero;"/><path d="M851.37,321.956l0,13.74c0,2.78 -0.69,4.835 -2.07,6.165c-1.38,1.33 -3.44,1.995 -6.18,1.995c-1.5,0 -2.93,-0.205 -4.29,-0.615c-1.36,-0.41 -2.46,-0.995 -3.3,-1.755l1.38,-2.22c0.74,0.64 1.655,1.145 2.745,1.515c1.09,0.37 2.215,0.555 3.375,0.555c1.86,0 3.235,-0.44 4.125,-1.32c0.89,-0.88 1.335,-2.22 1.335,-4.02l0,-1.26c-0.68,0.82 -1.515,1.435 -2.505,1.845c-0.99,0.41 -2.065,0.615 -3.225,0.615c-1.52,0 -2.895,-0.325 -4.125,-0.975c-1.23,-0.65 -2.195,-1.56 -2.895,-2.73c-0.7,-1.17 -1.05,-2.505 -1.05,-4.005c0,-1.5 0.35,-2.835 1.05,-4.005c0.7,-1.17 1.665,-2.075 2.895,-2.715c1.23,-0.64 2.605,-0.96 4.125,-0.96c1.2,0 2.315,0.22 3.345,0.66c1.03,0.44 1.875,1.09 2.535,1.95l0,-2.46l2.73,0Zm-8.28,12.72c1.04,0 1.975,-0.22 2.805,-0.66c0.83,-0.44 1.48,-1.055 1.95,-1.845c0.47,-0.79 0.705,-1.685 0.705,-2.685c0,-1.54 -0.51,-2.785 -1.53,-3.735c-1.02,-0.95 -2.33,-1.425 -3.93,-1.425c-1.62,0 -2.94,0.475 -3.96,1.425c-1.02,0.95 -1.53,2.195 -1.53,3.735c0,1 0.235,1.895 0.705,2.685c0.47,0.79 1.12,1.405 1.95,1.845c0.83,0.44 1.775,0.66 2.835,0.66Z" style="fill:#fff;fill-rule:nonzero;"/><path d="M862.65,321.806c2.2,0 3.885,0.54 5.055,1.62c1.17,1.08 1.755,2.69 1.755,4.83l0,9.6l-2.73,0l0,-2.1c-0.48,0.74 -1.165,1.305 -2.055,1.695c-0.89,0.39 -1.945,0.585 -3.165,0.585c-1.78,0 -3.205,-0.43 -4.275,-1.29c-1.07,-0.86 -1.605,-1.99 -1.605,-3.39c0,-1.4 0.51,-2.525 1.53,-3.375c1.02,-0.85 2.64,-1.275 4.86,-1.275l4.56,0l0,-0.57c0,-1.24 -0.36,-2.19 -1.08,-2.85c-0.72,-0.66 -1.78,-0.99 -3.18,-0.99c-0.94,0 -1.86,0.155 -2.76,0.465c-0.9,0.31 -1.66,0.725 -2.28,1.245l-1.2,-2.16c0.82,-0.66 1.8,-1.165 2.94,-1.515c1.14,-0.35 2.35,-0.525 3.63,-0.525Zm-0.66,14.01c1.1,0 2.05,-0.245 2.85,-0.735c0.8,-0.49 1.38,-1.185 1.74,-2.085l0,-2.22l-4.44,0c-2.44,0 -3.66,0.82 -3.66,2.46c0,0.8 0.31,1.43 0.93,1.89c0.62,0.46 1.48,0.69 2.58,0.69Z" style="fill:#fff;fill-rule:nonzero;"/><rect x="874.8" y="315.596" width="2.88" height="22.26" style="fill:#fff;fill-rule:nonzero;"/><path d="M894,324.626c0.5,-0.92 1.24,-1.62 2.22,-2.1c0.98,-0.48 2.17,-0.72 3.57,-0.72l0,2.79c-0.16,-0.02 -0.38,-0.03 -0.66,-0.03c-1.56,0 -2.785,0.465 -3.675,1.395c-0.89,0.93 -1.335,2.255 -1.335,3.975l0,7.92l-2.88,0l0,-15.9l2.76,0l0,2.67Z" style="fill:#fff;fill-rule:nonzero;"/><path d="M917.55,329.996c0,0.22 -0.02,0.51 -0.06,0.87l-12.9,0c0.18,1.4 0.795,2.525 1.845,3.375c1.05,0.85 2.355,1.275 3.915,1.275c1.9,0 3.43,-0.64 4.59,-1.92l1.59,1.86c-0.72,0.84 -1.615,1.48 -2.685,1.92c-1.07,0.44 -2.265,0.66 -3.585,0.66c-1.68,0 -3.17,-0.345 -4.47,-1.035c-1.3,-0.69 -2.305,-1.655 -3.015,-2.895c-0.71,-1.24 -1.065,-2.64 -1.065,-4.2c0,-1.54 0.345,-2.93 1.035,-4.17c0.69,-1.24 1.64,-2.205 2.85,-2.895c1.21,-0.69 2.575,-1.035 4.095,-1.035c1.52,0 2.875,0.345 4.065,1.035c1.19,0.69 2.12,1.655 2.79,2.895c0.67,1.24 1.005,2.66 1.005,4.26Zm-7.86,-5.76c-1.38,0 -2.535,0.42 -3.465,1.26c-0.93,0.84 -1.475,1.94 -1.635,3.3l10.2,0c-0.16,-1.34 -0.705,-2.435 -1.635,-3.285c-0.93,-0.85 -2.085,-1.275 -3.465,-1.275Z" style="fill:#fff;fill-rule:nonzero;"/><path d="M935.31,321.956l-6.96,15.9l-2.94,0l-6.96,-15.9l3,0l5.46,12.75l5.58,-12.75l2.82,0Z" style="fill:#fff;fill-rule:nonzero;"/><path d="M938.01,321.956l2.88,0l0,15.9l-2.88,0l0,-15.9Zm1.44,-3.06c-0.56,0 -1.025,-0.18 -1.395,-0.54c-0.37,-0.36 -0.555,-0.8 -0.555,-1.32c0,-0.52 0.185,-0.965 0.555,-1.335c0.37,-0.37 0.835,-0.555 1.395,-0.555c0.56,0 1.025,0.175 1.395,0.525c0.37,0.35 0.555,0.785 0.555,1.305c0,0.54 -0.185,0.995 -0.555,1.365c-0.37,0.37 -0.835,0.555 -1.395,0.555Z" style="fill:#fff;fill-rule:nonzero;"/><path d="M960.75,329.996c0,0.22 -0.02,0.51 -0.06,0.87l-12.9,0c0.18,1.4 0.795,2.525 1.845,3.375c1.05,0.85 2.355,1.275 3.915,1.275c1.9,0 3.43,-0.64 4.59,-1.92l1.59,1.86c-0.72,0.84 -1.615,1.48 -2.685,1.92c-1.07,0.44 -2.265,0.66 -3.585,0.66c-1.68,0 -3.17,-0.345 -4.47,-1.035c-1.3,-0.69 -2.305,-1.655 -3.015,-2.895c-0.71,-1.24 -1.065,-2.64 -1.065,-4.2c0,-1.54 0.345,-2.93 1.035,-4.17c0.69,-1.24 1.64,-2.205 2.85,-2.895c1.21,-0.69 2.575,-1.035 4.095,-1.035c1.52,0 2.875,0.345 4.065,1.035c1.19,0.69 2.12,1.655 2.79,2.895c0.67,1.24 1.005,2.66 1.005,4.26Zm-7.86,-5.76c-1.38,0 -2.535,0.42 -3.465,1.26c-0.93,0.84 -1.475,1.94 -1.635,3.3l10.2,0c-0.16,-1.34 -0.705,-2.435 -1.635,-3.285c-0.93,-0.85 -2.085,-1.275 -3.465,-1.275Z" style="fill:#fff;fill-rule:nonzero;"/><path d="M988.5,321.956l-5.94,15.9l-2.76,0l-4.59,-12.06l-4.65,12.06l-2.76,0l-5.91,-15.9l2.73,0l4.62,12.66l4.8,-12.66l2.43,0l4.71,12.72l4.74,-12.72l2.58,0Z" style="fill:#fff;fill-rule:nonzero;"/><g transform="matrix(1,0,0,1,925.95,24.4444)"><path d="M189.321,301.336c-1.58,0 -3.105,-0.245 -4.575,-0.735c-1.47,-0.49 -2.625,-1.125 -3.465,-1.905l1.11,-2.34c0.8,0.72 1.825,1.305 3.075,1.755c1.25,0.45 2.535,0.675 3.855,0.675c1.74,0 3.04,-0.295 3.9,-0.885c0.86,-0.59 1.29,-1.375 1.29,-2.355c0,-0.72 -0.235,-1.305 -0.705,-1.755c-0.47,-0.45 -1.05,-0.795 -1.74,-1.035c-0.69,-0.24 -1.665,-0.51 -2.925,-0.81c-1.58,-0.38 -2.855,-0.76 -3.825,-1.14c-0.97,-0.38 -1.8,-0.965 -2.49,-1.755c-0.69,-0.79 -1.035,-1.855 -1.035,-3.195c0,-1.12 0.295,-2.13 0.885,-3.03c0.59,-0.9 1.485,-1.62 2.685,-2.16c1.2,-0.54 2.69,-0.81 4.47,-0.81c1.24,0 2.46,0.16 3.66,0.48c1.2,0.32 2.23,0.78 3.09,1.38l-0.99,2.4c-0.88,-0.56 -1.82,-0.985 -2.82,-1.275c-1,-0.29 -1.98,-0.435 -2.94,-0.435c-1.7,0 -2.975,0.31 -3.825,0.93c-0.85,0.62 -1.275,1.42 -1.275,2.4c0,0.72 0.24,1.305 0.72,1.755c0.48,0.45 1.075,0.8 1.785,1.05c0.71,0.25 1.675,0.515 2.895,0.795c1.58,0.38 2.85,0.76 3.81,1.14c0.96,0.38 1.785,0.96 2.475,1.74c0.69,0.78 1.035,1.83 1.035,3.15c0,1.1 -0.3,2.105 -0.9,3.015c-0.6,0.91 -1.51,1.63 -2.73,2.16c-1.22,0.53 -2.72,0.795 -4.5,0.795Z" style="fill:#fff;fill-rule:nonzero;"/><path d="M215.781,293.236c0,0.22 -0.02,0.51 -0.06,0.87l-12.9,0c0.18,1.4 0.795,2.525 1.845,3.375c1.05,0.85 2.355,1.275 3.915,1.275c1.9,0 3.43,-0.64 4.59,-1.92l1.59,1.86c-0.72,0.84 -1.615,1.48 -2.685,1.92c-1.07,0.44 -2.265,0.66 -3.585,0.66c-1.68,0 -3.17,-0.345 -4.47,-1.035c-1.3,-0.69 -2.305,-1.655 -3.015,-2.895c-0.71,-1.24 -1.065,-2.64 -1.065,-4.2c0,-1.54 0.345,-2.93 1.035,-4.17c0.69,-1.24 1.64,-2.205 2.85,-2.895c1.21,-0.69 2.575,-1.035 4.095,-1.035c1.52,0 2.875,0.345 4.065,1.035c1.19,0.69 2.12,1.655 2.79,2.895c0.67,1.24 1.005,2.66 1.005,4.26Zm-7.86,-5.76c-1.38,0 -2.535,0.42 -3.465,1.26c-0.93,0.84 -1.475,1.94 -1.635,3.3l10.2,0c-0.16,-1.34 -0.705,-2.435 -1.635,-3.285c-0.93,-0.85 -2.085,-1.275 -3.465,-1.275Z" style="fill:#fff;fill-rule:nonzero;"/><path d="M228.261,285.046c2.02,0 3.625,0.585 4.815,1.755c1.19,1.17 1.785,2.885 1.785,5.145l0,9.15l-2.88,0l0,-8.82c0,-1.54 -0.37,-2.7 -1.11,-3.48c-0.74,-0.78 -1.8,-1.17 -3.18,-1.17c-1.56,0 -2.79,0.455 -3.69,1.365c-0.9,0.91 -1.35,2.215 -1.35,3.915l0,8.19l-2.88,0l0,-15.9l2.76,0l0,2.4c0.58,-0.82 1.365,-1.45 2.355,-1.89c0.99,-0.44 2.115,-0.66 3.375,-0.66Z" style="fill:#fff;fill-rule:nonzero;"/><path d="M255.291,278.836l0,22.26l-2.76,0l0,-2.52c-0.64,0.88 -1.45,1.55 -2.43,2.01c-0.98,0.46 -2.06,0.69 -3.24,0.69c-1.54,0 -2.92,-0.34 -4.14,-1.02c-1.22,-0.68 -2.175,-1.635 -2.865,-2.865c-0.69,-1.23 -1.035,-2.645 -1.035,-4.245c0,-1.6 0.345,-3.01 1.035,-4.23c0.69,-1.22 1.645,-2.17 2.865,-2.85c1.22,-0.68 2.6,-1.02 4.14,-1.02c1.14,0 2.19,0.215 3.15,0.645c0.96,0.43 1.76,1.065 2.4,1.905l0,-8.76l2.88,0Zm-8.19,19.92c1,0 1.91,-0.235 2.73,-0.705c0.82,-0.47 1.46,-1.13 1.92,-1.98c0.46,-0.85 0.69,-1.825 0.69,-2.925c0,-1.1 -0.23,-2.075 -0.69,-2.925c-0.46,-0.85 -1.1,-1.505 -1.92,-1.965c-0.82,-0.46 -1.73,-0.69 -2.73,-0.69c-1.02,0 -1.935,0.23 -2.745,0.69c-0.81,0.46 -1.45,1.115 -1.92,1.965c-0.47,0.85 -0.705,1.825 -0.705,2.925c0,1.1 0.235,2.075 0.705,2.925c0.47,0.85 1.11,1.51 1.92,1.98c0.81,0.47 1.725,0.705 2.745,0.705Z" style="fill:#fff;fill-rule:nonzero;"/><path d="M275.631,301.276c-1.58,0 -3,-0.35 -4.26,-1.05c-1.26,-0.7 -2.245,-1.665 -2.955,-2.895c-0.71,-1.23 -1.065,-2.625 -1.065,-4.185c0,-1.56 0.355,-2.955 1.065,-4.185c0.71,-1.23 1.695,-2.19 2.955,-2.88c1.26,-0.69 2.68,-1.035 4.26,-1.035c1.58,0 2.995,0.345 4.245,1.035c1.25,0.69 2.23,1.65 2.94,2.88c0.71,1.23 1.065,2.625 1.065,4.185c0,1.56 -0.355,2.955 -1.065,4.185c-0.71,1.23 -1.69,2.195 -2.94,2.895c-1.25,0.7 -2.665,1.05 -4.245,1.05Zm0,-2.52c1.02,0 1.935,-0.235 2.745,-0.705c0.81,-0.47 1.445,-1.13 1.905,-1.98c0.46,-0.85 0.69,-1.825 0.69,-2.925c0,-1.1 -0.23,-2.075 -0.69,-2.925c-0.46,-0.85 -1.095,-1.505 -1.905,-1.965c-0.81,-0.46 -1.725,-0.69 -2.745,-0.69c-1.02,0 -1.935,0.23 -2.745,0.69c-0.81,0.46 -1.45,1.115 -1.92,1.965c-0.47,0.85 -0.705,1.825 -0.705,2.925c0,1.1 0.235,2.075 0.705,2.925c0.47,0.85 1.11,1.51 1.92,1.98c0.81,0.47 1.725,0.705 2.745,0.705Z" style="fill:#fff;fill-rule:nonzero;"/><path d="M302.691,285.196l0,15.9l-2.73,0l0,-2.4c-0.58,0.82 -1.345,1.455 -2.295,1.905c-0.95,0.45 -1.985,0.675 -3.105,0.675c-2.12,0 -3.79,-0.585 -5.01,-1.755c-1.22,-1.17 -1.83,-2.895 -1.83,-5.175l0,-9.15l2.88,0l0,8.82c0,1.54 0.37,2.705 1.11,3.495c0.74,0.79 1.8,1.185 3.18,1.185c1.52,0 2.72,-0.46 3.6,-1.38c0.88,-0.92 1.32,-2.22 1.32,-3.9l0,-8.22l2.88,0Z" style="fill:#fff;fill-rule:nonzero;"/><path d="M317.121,300.166c-0.42,0.36 -0.94,0.635 -1.56,0.825c-0.62,0.19 -1.26,0.285 -1.92,0.285c-1.6,0 -2.84,-0.43 -3.72,-1.29c-0.88,-0.86 -1.32,-2.09 -1.32,-3.69l0,-8.73l-2.7,0l0,-2.37l2.7,0l0,-3.48l2.88,0l0,3.48l4.56,0l0,2.37l-4.56,0l0,8.61c0,0.86 0.215,1.52 0.645,1.98c0.43,0.46 1.045,0.69 1.845,0.69c0.88,0 1.63,-0.25 2.25,-0.75l0.9,2.07Z" style="fill:#fff;fill-rule:nonzero;"/><path d="M191.271,315.046c2.02,0 3.625,0.585 4.815,1.755c1.19,1.17 1.785,2.885 1.785,5.145l0,9.15l-2.88,0l0,-8.82c0,-1.54 -0.37,-2.7 -1.11,-3.48c-0.74,-0.78 -1.8,-1.17 -3.18,-1.17c-1.56,0 -2.79,0.455 -3.69,1.365c-0.9,0.91 -1.35,2.215 -1.35,3.915l0,8.19l-2.88,0l0,-15.9l2.76,0l0,2.4c0.58,-0.82 1.365,-1.45 2.355,-1.89c0.99,-0.44 2.115,-0.66 3.375,-0.66Z" style="fill:#fff;fill-rule:nonzero;"/><path d="M210.111,331.276c-1.58,0 -3,-0.35 -4.26,-1.05c-1.26,-0.7 -2.245,-1.665 -2.955,-2.895c-0.71,-1.23 -1.065,-2.625 -1.065,-4.185c0,-1.56 0.355,-2.955 1.065,-4.185c0.71,-1.23 1.695,-2.19 2.955,-2.88c1.26,-0.69 2.68,-1.035 4.26,-1.035c1.58,0 2.995,0.345 4.245,1.035c1.25,0.69 2.23,1.65 2.94,2.88c0.71,1.23 1.065,2.625 1.065,4.185c0,1.56 -0.355,2.955 -1.065,4.185c-0.71,1.23 -1.69,2.195 -2.94,2.895c-1.25,0.7 -2.665,1.05 -4.245,1.05Zm0,-2.52c1.02,0 1.935,-0.235 2.745,-0.705c0.81,-0.47 1.445,-1.13 1.905,-1.98c0.46,-0.85 0.69,-1.825 0.69,-2.925c0,-1.1 -0.23,-2.075 -0.69,-2.925c-0.46,-0.85 -1.095,-1.505 -1.905,-1.965c-0.81,-0.46 -1.725,-0.69 -2.745,-0.69c-1.02,0 -1.935,0.23 -2.745,0.69c-0.81,0.46 -1.45,1.115 -1.92,1.965c-0.47,0.85 -0.705,1.825 -0.705,2.925c0,1.1 0.235,2.075 0.705,2.925c0.47,0.85 1.11,1.51 1.92,1.98c0.81,0.47 1.725,0.705 2.745,0.705Z" style="fill:#fff;fill-rule:nonzero;"/><path d="M231.291,330.166c-0.42,0.36 -0.94,0.635 -1.56,0.825c-0.62,0.19 -1.26,0.285 -1.92,0.285c-1.6,0 -2.84,-0.43 -3.72,-1.29c-0.88,-0.86 -1.32,-2.09 -1.32,-3.69l0,-8.73l-2.7,0l0,-2.37l2.7,0l0,-3.48l2.88,0l0,3.48l4.56,0l0,2.37l-4.56,0l0,8.61c0,0.86 0.215,1.52 0.645,1.98c0.43,0.46 1.045,0.69 1.845,0.69c0.88,0 1.63,-0.25 2.25,-0.75l0.9,2.07Z" style="fill:#fff;fill-rule:nonzero;"/><path d="M234.771,315.196l2.88,0l0,15.9l-2.88,0l0,-15.9Zm1.44,-3.06c-0.56,0 -1.025,-0.18 -1.395,-0.54c-0.37,-0.36 -0.555,-0.8 -0.555,-1.32c0,-0.52 0.185,-0.965 0.555,-1.335c0.37,-0.37 0.835,-0.555 1.395,-0.555c0.56,0 1.025,0.175 1.395,0.525c0.37,0.35 0.555,0.785 0.555,1.305c0,0.54 -0.185,0.995 -0.555,1.365c-0.37,0.37 -0.835,0.555 -1.395,0.555Z" style="fill:#fff;fill-rule:nonzero;"/><path d="M248.961,311.026c-1.72,0 -2.58,0.93 -2.58,2.79l0,1.38l4.62,0l0,2.37l-4.56,0l0,13.53l-2.88,0l0,-13.53l-2.7,0l0,-2.37l2.7,0l0,-1.41c0,-1.58 0.46,-2.83 1.38,-3.75c0.92,-0.92 2.21,-1.38 3.87,-1.38c0.64,0 1.24,0.08 1.8,0.24c0.56,0.16 1.04,0.39 1.44,0.69l-0.87,2.19c-0.66,-0.5 -1.4,-0.75 -2.22,-0.75Zm7.17,4.17l2.88,0l0,15.9l-2.88,0l0,-15.9Zm1.44,-3.06c-0.56,0 -1.025,-0.18 -1.395,-0.54c-0.37,-0.36 -0.555,-0.8 -0.555,-1.32c0,-0.52 0.185,-0.965 0.555,-1.335c0.37,-0.37 0.835,-0.555 1.395,-0.555c0.56,0 1.025,0.175 1.395,0.525c0.37,0.35 0.555,0.785 0.555,1.305c0,0.54 -0.185,0.995 -0.555,1.365c-0.37,0.37 -0.835,0.555 -1.395,0.555Z" style="fill:#fff;fill-rule:nonzero;"/><path d="M271.431,331.276c-1.62,0 -3.065,-0.35 -4.335,-1.05c-1.27,-0.7 -2.265,-1.665 -2.985,-2.895c-0.72,-1.23 -1.08,-2.625 -1.08,-4.185c0,-1.56 0.36,-2.955 1.08,-4.185c0.72,-1.23 1.715,-2.19 2.985,-2.88c1.27,-0.69 2.715,-1.035 4.335,-1.035c1.44,0 2.725,0.29 3.855,0.87c1.13,0.58 2.005,1.42 2.625,2.52l-2.19,1.41c-0.5,-0.76 -1.12,-1.33 -1.86,-1.71c-0.74,-0.38 -1.56,-0.57 -2.46,-0.57c-1.04,0 -1.975,0.23 -2.805,0.69c-0.83,0.46 -1.48,1.115 -1.95,1.965c-0.47,0.85 -0.705,1.825 -0.705,2.925c0,1.12 0.235,2.105 0.705,2.955c0.47,0.85 1.12,1.505 1.95,1.965c0.83,0.46 1.765,0.69 2.805,0.69c0.9,0 1.72,-0.19 2.46,-0.57c0.74,-0.38 1.36,-0.95 1.86,-1.71l2.19,1.38c-0.62,1.1 -1.495,1.945 -2.625,2.535c-1.13,0.59 -2.415,0.885 -3.855,0.885Z" style="fill:#fff;fill-rule:nonzero;"/><path d="M287.421,315.046c2.2,0 3.885,0.54 5.055,1.62c1.17,1.08 1.755,2.69 1.755,4.83l0,9.6l-2.73,0l0,-2.1c-0.48,0.74 -1.165,1.305 -2.055,1.695c-0.89,0.39 -1.945,0.585 -3.165,0.585c-1.78,0 -3.205,-0.43 -4.275,-1.29c-1.07,-0.86 -1.605,-1.99 -1.605,-3.39c0,-1.4 0.51,-2.525 1.53,-3.375c1.02,-0.85 2.64,-1.275 4.86,-1.275l4.56,0l0,-0.57c0,-1.24 -0.36,-2.19 -1.08,-2.85c-0.72,-0.66 -1.78,-0.99 -3.18,-0.99c-0.94,0 -1.86,0.155 -2.76,0.465c-0.9,0.31 -1.66,0.725 -2.28,1.245l-1.2,-2.16c0.82,-0.66 1.8,-1.165 2.94,-1.515c1.14,-0.35 2.35,-0.525 3.63,-0.525Zm-0.66,14.01c1.1,0 2.05,-0.245 2.85,-0.735c0.8,-0.49 1.38,-1.185 1.74,-2.085l0,-2.22l-4.44,0c-2.44,0 -3.66,0.82 -3.66,2.46c0,0.8 0.31,1.43 0.93,1.89c0.62,0.46 1.48,0.69 2.58,0.69Z" style="fill:#fff;fill-rule:nonzero;"/><path d="M308.511,330.166c-0.42,0.36 -0.94,0.635 -1.56,0.825c-0.62,0.19 -1.26,0.285 -1.92,0.285c-1.6,0 -2.84,-0.43 -3.72,-1.29c-0.88,-0.86 -1.32,-2.09 -1.32,-3.69l0,-8.73l-2.7,0l0,-2.37l2.7,0l0,-3.48l2.88,0l0,3.48l4.56,0l0,2.37l-4.56,0l0,8.61c0,0.86 0.215,1.52 0.645,1.98c0.43,0.46 1.045,0.69 1.845,0.69c0.88,0 1.63,-0.25 2.25,-0.75l0.9,2.07Z" style="fill:#fff;fill-rule:nonzero;"/><path d="M311.991,315.196l2.88,0l0,15.9l-2.88,0l0,-15.9Zm1.44,-3.06c-0.56,0 -1.025,-0.18 -1.395,-0.54c-0.37,-0.36 -0.555,-0.8 -0.555,-1.32c0,-0.52 0.185,-0.965 0.555,-1.335c0.37,-0.37 0.835,-0.555 1.395,-0.555c0.56,0 1.025,0.175 1.395,0.525c0.37,0.35 0.555,0.785 0.555,1.305c0,0.54 -0.185,0.995 -0.555,1.365c-0.37,0.37 -0.835,0.555 -1.395,0.555Z" style="fill:#fff;fill-rule:nonzero;"/><path d="M327.171,331.276c-1.58,0 -3,-0.35 -4.26,-1.05c-1.26,-0.7 -2.245,-1.665 -2.955,-2.895c-0.71,-1.23 -1.065,-2.625 -1.065,-4.185c0,-1.56 0.355,-2.955 1.065,-4.185c0.71,-1.23 1.695,-2.19 2.955,-2.88c1.26,-0.69 2.68,-1.035 4.26,-1.035c1.58,0 2.995,0.345 4.245,1.035c1.25,0.69 2.23,1.65 2.94,2.88c0.71,1.23 1.065,2.625 1.065,4.185c0,1.56 -0.355,2.955 -1.065,4.185c-0.71,1.23 -1.69,2.195 -2.94,2.895c-1.25,0.7 -2.665,1.05 -4.245,1.05Zm0,-2.52c1.02,0 1.935,-0.235 2.745,-0.705c0.81,-0.47 1.445,-1.13 1.905,-1.98c0.46,-0.85 0.69,-1.825 0.69,-2.925c0,-1.1 -0.23,-2.075 -0.69,-2.925c-0.46,-0.85 -1.095,-1.505 -1.905,-1.965c-0.81,-0.46 -1.725,-0.69 -2.745,-0.69c-1.02,0 -1.935,0.23 -2.745,0.69c-0.81,0.46 -1.45,1.115 -1.92,1.965c-0.47,0.85 -0.705,1.825 -0.705,2.925c0,1.1 0.235,2.075 0.705,2.925c0.47,0.85 1.11,1.51 1.92,1.98c0.81,0.47 1.725,0.705 2.745,0.705Z" style="fill:#fff;fill-rule:nonzero;"/><path d="M347.901,315.046c2.02,0 3.625,0.585 4.815,1.755c1.19,1.17 1.785,2.885 1.785,5.145l0,9.15l-2.88,0l0,-8.82c0,-1.54 -0.37,-2.7 -1.11,-3.48c-0.74,-0.78 -1.8,-1.17 -3.18,-1.17c-1.56,0 -2.79,0.455 -3.69,1.365c-0.9,0.91 -1.35,2.215 -1.35,3.915l0,8.19l-2.88,0l0,-15.9l2.76,0l0,2.4c0.58,-0.82 1.365,-1.45 2.355,-1.89c0.99,-0.44 2.115,-0.66 3.375,-0.66Z" style="fill:#fff;fill-rule:nonzero;"/><path d="M364.401,331.276c-1.3,0 -2.55,-0.175 -3.75,-0.525c-1.2,-0.35 -2.14,-0.795 -2.82,-1.335l1.2,-2.28c0.7,0.5 1.55,0.9 2.55,1.2c1,0.3 2.01,0.45 3.03,0.45c2.52,0 3.78,-0.72 3.78,-2.16c0,-0.48 -0.17,-0.86 -0.51,-1.14c-0.34,-0.28 -0.765,-0.485 -1.275,-0.615c-0.51,-0.13 -1.235,-0.275 -2.175,-0.435c-1.28,-0.2 -2.325,-0.43 -3.135,-0.69c-0.81,-0.26 -1.505,-0.7 -2.085,-1.32c-0.58,-0.62 -0.87,-1.49 -0.87,-2.61c0,-1.44 0.6,-2.595 1.8,-3.465c1.2,-0.87 2.81,-1.305 4.83,-1.305c1.06,0 2.12,0.13 3.18,0.39c1.06,0.26 1.93,0.61 2.61,1.05l-1.23,2.28c-1.3,-0.84 -2.83,-1.26 -4.59,-1.26c-1.22,0 -2.15,0.2 -2.79,0.6c-0.64,0.4 -0.96,0.93 -0.96,1.59c0,0.52 0.18,0.93 0.54,1.23c0.36,0.3 0.805,0.52 1.335,0.66c0.53,0.14 1.275,0.3 2.235,0.48c1.28,0.22 2.315,0.455 3.105,0.705c0.79,0.25 1.465,0.675 2.025,1.275c0.56,0.6 0.84,1.44 0.84,2.52c0,1.44 -0.615,2.585 -1.845,3.435c-1.23,0.85 -2.905,1.275 -5.025,1.275Z" style="fill:#fff;fill-rule:nonzero;"/></g><path d="M240.482,218.45l-65.805,0.038l-0.028,-48.541l-22.095,0.013l54.966,-55.029l55.028,54.966l-22.094,0.013l0.028,48.54Z" style="fill:url(#_Linear6);"/><path d="M565.877,218.45l-65.805,0.038l-0.028,-48.541l-22.095,0.013l54.966,-55.029l55.029,54.966l-22.095,0.013l0.028,48.54Z" style="fill:url(#_Linear7);"/><path d="M877.483,218.45l-65.805,0.038l-0.028,-48.541l-22.095,0.013l54.966,-55.029l55.029,54.966l-22.095,0.013l0.028,48.54Z" style="fill:url(#_Linear8);"/><path d="M1184.17,218.45l-65.805,0.038l-0.027,-48.541l-22.095,0.013l54.966,-55.029l55.028,54.966l-22.094,0.013l0.027,48.54Z" style="fill:url(#_Linear9);"/><rect x="34.74" y="26.598" width="1258.03" height="74.348" style="fill:url(#_Linear10);"/><path d="M524.573,73.22l-4.53,-6.45c-0.56,0.04 -1,0.06 -1.32,0.06l-5.19,0l0,6.39l-3,0l0,-21l8.19,0c2.72,0 4.86,0.65 6.42,1.95c1.56,1.3 2.34,3.09 2.34,5.37c0,1.62 -0.4,3 -1.2,4.14c-0.8,1.14 -1.94,1.97 -3.42,2.49l4.98,7.05l-3.27,0Zm-5.94,-8.94c1.9,0 3.35,-0.41 4.35,-1.23c1,-0.82 1.5,-1.99 1.5,-3.51c0,-1.52 -0.5,-2.685 -1.5,-3.495c-1,-0.81 -2.45,-1.215 -4.35,-1.215l-5.1,0l0,9.45l5.1,0Z" style="fill:#fff;fill-rule:nonzero;"/><path d="M546.293,65.36c0,0.22 -0.02,0.51 -0.06,0.87l-12.9,0c0.18,1.4 0.795,2.525 1.845,3.375c1.05,0.85 2.355,1.275 3.915,1.275c1.9,0 3.43,-0.64 4.59,-1.92l1.59,1.86c-0.72,0.84 -1.615,1.48 -2.685,1.92c-1.07,0.44 -2.265,0.66 -3.585,0.66c-1.68,0 -3.17,-0.345 -4.47,-1.035c-1.3,-0.69 -2.305,-1.655 -3.015,-2.895c-0.71,-1.24 -1.065,-2.64 -1.065,-4.2c0,-1.54 0.345,-2.93 1.035,-4.17c0.69,-1.24 1.64,-2.205 2.85,-2.895c1.21,-0.69 2.575,-1.035 4.095,-1.035c1.52,0 2.875,0.345 4.065,1.035c1.19,0.69 2.12,1.655 2.79,2.895c0.67,1.24 1.005,2.66 1.005,4.26Zm-7.86,-5.76c-1.38,0 -2.535,0.42 -3.465,1.26c-0.93,0.84 -1.475,1.94 -1.635,3.3l10.2,0c-0.16,-1.34 -0.705,-2.435 -1.635,-3.285c-0.93,-0.85 -2.085,-1.275 -3.465,-1.275Z" style="fill:#fff;fill-rule:nonzero;"/><path d="M565.493,57.32l0,13.74c0,2.78 -0.69,4.835 -2.07,6.165c-1.38,1.33 -3.44,1.995 -6.18,1.995c-1.5,0 -2.93,-0.205 -4.29,-0.615c-1.36,-0.41 -2.46,-0.995 -3.3,-1.755l1.38,-2.22c0.74,0.64 1.655,1.145 2.745,1.515c1.09,0.37 2.215,0.555 3.375,0.555c1.86,0 3.235,-0.44 4.125,-1.32c0.89,-0.88 1.335,-2.22 1.335,-4.02l0,-1.26c-0.68,0.82 -1.515,1.435 -2.505,1.845c-0.99,0.41 -2.065,0.615 -3.225,0.615c-1.52,0 -2.895,-0.325 -4.125,-0.975c-1.23,-0.65 -2.195,-1.56 -2.895,-2.73c-0.7,-1.17 -1.05,-2.505 -1.05,-4.005c0,-1.5 0.35,-2.835 1.05,-4.005c0.7,-1.17 1.665,-2.075 2.895,-2.715c1.23,-0.64 2.605,-0.96 4.125,-0.96c1.2,0 2.315,0.22 3.345,0.66c1.03,0.44 1.875,1.09 2.535,1.95l0,-2.46l2.73,0Zm-8.28,12.72c1.04,0 1.975,-0.22 2.805,-0.66c0.83,-0.44 1.48,-1.055 1.95,-1.845c0.47,-0.79 0.705,-1.685 0.705,-2.685c0,-1.54 -0.51,-2.785 -1.53,-3.735c-1.02,-0.95 -2.33,-1.425 -3.93,-1.425c-1.62,0 -2.94,0.475 -3.96,1.425c-1.02,0.95 -1.53,2.195 -1.53,3.735c0,1 0.235,1.895 0.705,2.685c0.47,0.79 1.12,1.405 1.95,1.845c0.83,0.44 1.775,0.66 2.835,0.66Z" style="fill:#fff;fill-rule:nonzero;"/><path d="M585.803,57.32l0,15.9l-2.73,0l0,-2.4c-0.58,0.82 -1.345,1.455 -2.295,1.905c-0.95,0.45 -1.985,0.675 -3.105,0.675c-2.12,0 -3.79,-0.585 -5.01,-1.755c-1.22,-1.17 -1.83,-2.895 -1.83,-5.175l0,-9.15l2.88,0l0,8.82c0,1.54 0.37,2.705 1.11,3.495c0.74,0.79 1.8,1.185 3.18,1.185c1.52,0 2.72,-0.46 3.6,-1.38c0.88,-0.92 1.32,-2.22 1.32,-3.9l0,-8.22l2.88,0Z" style="fill:#fff;fill-rule:nonzero;"/><rect x="591.293" y="50.96" width="2.88" height="22.26" style="fill:#fff;fill-rule:nonzero;"/><path d="M605.453,57.17c2.2,0 3.885,0.54 5.055,1.62c1.17,1.08 1.755,2.69 1.755,4.83l0,9.6l-2.73,0l0,-2.1c-0.48,0.74 -1.165,1.305 -2.055,1.695c-0.89,0.39 -1.945,0.585 -3.165,0.585c-1.78,0 -3.205,-0.43 -4.275,-1.29c-1.07,-0.86 -1.605,-1.99 -1.605,-3.39c0,-1.4 0.51,-2.525 1.53,-3.375c1.02,-0.85 2.64,-1.275 4.86,-1.275l4.56,0l0,-0.57c0,-1.24 -0.36,-2.19 -1.08,-2.85c-0.72,-0.66 -1.78,-0.99 -3.18,-0.99c-0.94,0 -1.86,0.155 -2.76,0.465c-0.9,0.31 -1.66,0.725 -2.28,1.245l-1.2,-2.16c0.82,-0.66 1.8,-1.165 2.94,-1.515c1.14,-0.35 2.35,-0.525 3.63,-0.525Zm-0.66,14.01c1.1,0 2.05,-0.245 2.85,-0.735c0.8,-0.49 1.38,-1.185 1.74,-2.085l0,-2.22l-4.44,0c-2.44,0 -3.66,0.82 -3.66,2.46c0,0.8 0.31,1.43 0.93,1.89c0.62,0.46 1.48,0.69 2.58,0.69Z" style="fill:#fff;fill-rule:nonzero;"/><path d="M626.543,72.29c-0.42,0.36 -0.94,0.635 -1.56,0.825c-0.62,0.19 -1.26,0.285 -1.92,0.285c-1.6,0 -2.84,-0.43 -3.72,-1.29c-0.88,-0.86 -1.32,-2.09 -1.32,-3.69l0,-8.73l-2.7,0l0,-2.37l2.7,0l0,-3.48l2.88,0l0,3.48l4.56,0l0,2.37l-4.56,0l0,8.61c0,0.86 0.215,1.52 0.645,1.98c0.43,0.46 1.045,0.69 1.845,0.69c0.88,0 1.63,-0.25 2.25,-0.75l0.9,2.07Z" style="fill:#fff;fill-rule:nonzero;"/><path d="M636.293,73.4c-1.58,0 -3,-0.35 -4.26,-1.05c-1.26,-0.7 -2.245,-1.665 -2.955,-2.895c-0.71,-1.23 -1.065,-2.625 -1.065,-4.185c0,-1.56 0.355,-2.955 1.065,-4.185c0.71,-1.23 1.695,-2.19 2.955,-2.88c1.26,-0.69 2.68,-1.035 4.26,-1.035c1.58,0 2.995,0.345 4.245,1.035c1.25,0.69 2.23,1.65 2.94,2.88c0.71,1.23 1.065,2.625 1.065,4.185c0,1.56 -0.355,2.955 -1.065,4.185c-0.71,1.23 -1.69,2.195 -2.94,2.895c-1.25,0.7 -2.665,1.05 -4.245,1.05Zm0,-2.52c1.02,0 1.935,-0.235 2.745,-0.705c0.81,-0.47 1.445,-1.13 1.905,-1.98c0.46,-0.85 0.69,-1.825 0.69,-2.925c0,-1.1 -0.23,-2.075 -0.69,-2.925c-0.46,-0.85 -1.095,-1.505 -1.905,-1.965c-0.81,-0.46 -1.725,-0.69 -2.745,-0.69c-1.02,0 -1.935,0.23 -2.745,0.69c-0.81,0.46 -1.45,1.115 -1.92,1.965c-0.47,0.85 -0.705,1.825 -0.705,2.925c0,1.1 0.235,2.075 0.705,2.925c0.47,0.85 1.11,1.51 1.92,1.98c0.81,0.47 1.725,0.705 2.745,0.705Z" style="fill:#fff;fill-rule:nonzero;"/><path d="M651.293,59.99c0.5,-0.92 1.24,-1.62 2.22,-2.1c0.98,-0.48 2.17,-0.72 3.57,-0.72l0,2.79c-0.16,-0.02 -0.38,-0.03 -0.66,-0.03c-1.56,0 -2.785,0.465 -3.675,1.395c-0.89,0.93 -1.335,2.255 -1.335,3.975l0,7.92l-2.88,0l0,-15.9l2.76,0l0,2.67Z" style="fill:#fff;fill-rule:nonzero;"/><path d="M677.393,57.17c2.02,0 3.625,0.585 4.815,1.755c1.19,1.17 1.785,2.885 1.785,5.145l0,9.15l-2.88,0l0,-8.82c0,-1.54 -0.37,-2.7 -1.11,-3.48c-0.74,-0.78 -1.8,-1.17 -3.18,-1.17c-1.56,0 -2.79,0.455 -3.69,1.365c-0.9,0.91 -1.35,2.215 -1.35,3.915l0,8.19l-2.88,0l0,-15.9l2.76,0l0,2.4c0.58,-0.82 1.365,-1.45 2.355,-1.89c0.99,-0.44 2.115,-0.66 3.375,-0.66Z" style="fill:#fff;fill-rule:nonzero;"/><path d="M696.233,73.4c-1.58,0 -3,-0.35 -4.26,-1.05c-1.26,-0.7 -2.245,-1.665 -2.955,-2.895c-0.71,-1.23 -1.065,-2.625 -1.065,-4.185c0,-1.56 0.355,-2.955 1.065,-4.185c0.71,-1.23 1.695,-2.19 2.955,-2.88c1.26,-0.69 2.68,-1.035 4.26,-1.035c1.58,0 2.995,0.345 4.245,1.035c1.25,0.69 2.23,1.65 2.94,2.88c0.71,1.23 1.065,2.625 1.065,4.185c0,1.56 -0.355,2.955 -1.065,4.185c-0.71,1.23 -1.69,2.195 -2.94,2.895c-1.25,0.7 -2.665,1.05 -4.245,1.05Zm0,-2.52c1.02,0 1.935,-0.235 2.745,-0.705c0.81,-0.47 1.445,-1.13 1.905,-1.98c0.46,-0.85 0.69,-1.825 0.69,-2.925c0,-1.1 -0.23,-2.075 -0.69,-2.925c-0.46,-0.85 -1.095,-1.505 -1.905,-1.965c-0.81,-0.46 -1.725,-0.69 -2.745,-0.69c-1.02,0 -1.935,0.23 -2.745,0.69c-0.81,0.46 -1.45,1.115 -1.92,1.965c-0.47,0.85 -0.705,1.825 -0.705,2.925c0,1.1 0.235,2.075 0.705,2.925c0.47,0.85 1.11,1.51 1.92,1.98c0.81,0.47 1.725,0.705 2.745,0.705Z" style="fill:#fff;fill-rule:nonzero;"/><path d="M717.413,72.29c-0.42,0.36 -0.94,0.635 -1.56,0.825c-0.62,0.19 -1.26,0.285 -1.92,0.285c-1.6,0 -2.84,-0.43 -3.72,-1.29c-0.88,-0.86 -1.32,-2.09 -1.32,-3.69l0,-8.73l-2.7,0l0,-2.37l2.7,0l0,-3.48l2.88,0l0,3.48l4.56,0l0,2.37l-4.56,0l0,8.61c0,0.86 0.215,1.52 0.645,1.98c0.43,0.46 1.045,0.69 1.845,0.69c0.88,0 1.63,-0.25 2.25,-0.75l0.9,2.07Z" style="fill:#fff;fill-rule:nonzero;"/><path d="M720.893,57.32l2.88,0l0,15.9l-2.88,0l0,-15.9Zm1.44,-3.06c-0.56,0 -1.025,-0.18 -1.395,-0.54c-0.37,-0.36 -0.555,-0.8 -0.555,-1.32c0,-0.52 0.185,-0.965 0.555,-1.335c0.37,-0.37 0.835,-0.555 1.395,-0.555c0.56,0 1.025,0.175 1.395,0.525c0.37,0.35 0.555,0.785 0.555,1.305c0,0.54 -0.185,0.995 -0.555,1.365c-0.37,0.37 -0.835,0.555 -1.395,0.555Z" style="fill:#fff;fill-rule:nonzero;"/><path d="M735.083,53.15c-1.72,0 -2.58,0.93 -2.58,2.79l0,1.38l4.62,0l0,2.37l-4.56,0l0,13.53l-2.88,0l0,-13.53l-2.7,0l0,-2.37l2.7,0l0,-1.41c0,-1.58 0.46,-2.83 1.38,-3.75c0.92,-0.92 2.21,-1.38 3.87,-1.38c0.64,0 1.24,0.08 1.8,0.24c0.56,0.16 1.04,0.39 1.44,0.69l-0.87,2.19c-0.66,-0.5 -1.4,-0.75 -2.22,-0.75Zm7.17,4.17l2.88,0l0,15.9l-2.88,0l0,-15.9Zm1.44,-3.06c-0.56,0 -1.025,-0.18 -1.395,-0.54c-0.37,-0.36 -0.555,-0.8 -0.555,-1.32c0,-0.52 0.185,-0.965 0.555,-1.335c0.37,-0.37 0.835,-0.555 1.395,-0.555c0.56,0 1.025,0.175 1.395,0.525c0.37,0.35 0.555,0.785 0.555,1.305c0,0.54 -0.185,0.995 -0.555,1.365c-0.37,0.37 -0.835,0.555 -1.395,0.555Z" style="fill:#fff;fill-rule:nonzero;"/><path d="M757.553,73.4c-1.62,0 -3.065,-0.35 -4.335,-1.05c-1.27,-0.7 -2.265,-1.665 -2.985,-2.895c-0.72,-1.23 -1.08,-2.625 -1.08,-4.185c0,-1.56 0.36,-2.955 1.08,-4.185c0.72,-1.23 1.715,-2.19 2.985,-2.88c1.27,-0.69 2.715,-1.035 4.335,-1.035c1.44,0 2.725,0.29 3.855,0.87c1.13,0.58 2.005,1.42 2.625,2.52l-2.19,1.41c-0.5,-0.76 -1.12,-1.33 -1.86,-1.71c-0.74,-0.38 -1.56,-0.57 -2.46,-0.57c-1.04,0 -1.975,0.23 -2.805,0.69c-0.83,0.46 -1.48,1.115 -1.95,1.965c-0.47,0.85 -0.705,1.825 -0.705,2.925c0,1.12 0.235,2.105 0.705,2.955c0.47,0.85 1.12,1.505 1.95,1.965c0.83,0.46 1.765,0.69 2.805,0.69c0.9,0 1.72,-0.19 2.46,-0.57c0.74,-0.38 1.36,-0.95 1.86,-1.71l2.19,1.38c-0.62,1.1 -1.495,1.945 -2.625,2.535c-1.13,0.59 -2.415,0.885 -3.855,0.885Z" style="fill:#fff;fill-rule:nonzero;"/><path d="M773.543,57.17c2.2,0 3.885,0.54 5.055,1.62c1.17,1.08 1.755,2.69 1.755,4.83l0,9.6l-2.73,0l0,-2.1c-0.48,0.74 -1.165,1.305 -2.055,1.695c-0.89,0.39 -1.945,0.585 -3.165,0.585c-1.78,0 -3.205,-0.43 -4.275,-1.29c-1.07,-0.86 -1.605,-1.99 -1.605,-3.39c0,-1.4 0.51,-2.525 1.53,-3.375c1.02,-0.85 2.64,-1.275 4.86,-1.275l4.56,0l0,-0.57c0,-1.24 -0.36,-2.19 -1.08,-2.85c-0.72,-0.66 -1.78,-0.99 -3.18,-0.99c-0.94,0 -1.86,0.155 -2.76,0.465c-0.9,0.31 -1.66,0.725 -2.28,1.245l-1.2,-2.16c0.82,-0.66 1.8,-1.165 2.94,-1.515c1.14,-0.35 2.35,-0.525 3.63,-0.525Zm-0.66,14.01c1.1,0 2.05,-0.245 2.85,-0.735c0.8,-0.49 1.38,-1.185 1.74,-2.085l0,-2.22l-4.44,0c-2.44,0 -3.66,0.82 -3.66,2.46c0,0.8 0.31,1.43 0.93,1.89c0.62,0.46 1.48,0.69 2.58,0.69Z" style="fill:#fff;fill-rule:nonzero;"/><path d="M794.633,72.29c-0.42,0.36 -0.94,0.635 -1.56,0.825c-0.62,0.19 -1.26,0.285 -1.92,0.285c-1.6,0 -2.84,-0.43 -3.72,-1.29c-0.88,-0.86 -1.32,-2.09 -1.32,-3.69l0,-8.73l-2.7,0l0,-2.37l2.7,0l0,-3.48l2.88,0l0,3.48l4.56,0l0,2.37l-4.56,0l0,8.61c0,0.86 0.215,1.52 0.645,1.98c0.43,0.46 1.045,0.69 1.845,0.69c0.88,0 1.63,-0.25 2.25,-0.75l0.9,2.07Z" style="fill:#fff;fill-rule:nonzero;"/><path d="M798.113,57.32l2.88,0l0,15.9l-2.88,0l0,-15.9Zm1.44,-3.06c-0.56,0 -1.025,-0.18 -1.395,-0.54c-0.37,-0.36 -0.555,-0.8 -0.555,-1.32c0,-0.52 0.185,-0.965 0.555,-1.335c0.37,-0.37 0.835,-0.555 1.395,-0.555c0.56,0 1.025,0.175 1.395,0.525c0.37,0.35 0.555,0.785 0.555,1.305c0,0.54 -0.185,0.995 -0.555,1.365c-0.37,0.37 -0.835,0.555 -1.395,0.555Z" style="fill:#fff;fill-rule:nonzero;"/><path d="M813.293,73.4c-1.58,0 -3,-0.35 -4.26,-1.05c-1.26,-0.7 -2.245,-1.665 -2.955,-2.895c-0.71,-1.23 -1.065,-2.625 -1.065,-4.185c0,-1.56 0.355,-2.955 1.065,-4.185c0.71,-1.23 1.695,-2.19 2.955,-2.88c1.26,-0.69 2.68,-1.035 4.26,-1.035c1.58,0 2.995,0.345 4.245,1.035c1.25,0.69 2.23,1.65 2.94,2.88c0.71,1.23 1.065,2.625 1.065,4.185c0,1.56 -0.355,2.955 -1.065,4.185c-0.71,1.23 -1.69,2.195 -2.94,2.895c-1.25,0.7 -2.665,1.05 -4.245,1.05Zm0,-2.52c1.02,0 1.935,-0.235 2.745,-0.705c0.81,-0.47 1.445,-1.13 1.905,-1.98c0.46,-0.85 0.69,-1.825 0.69,-2.925c0,-1.1 -0.23,-2.075 -0.69,-2.925c-0.46,-0.85 -1.095,-1.505 -1.905,-1.965c-0.81,-0.46 -1.725,-0.69 -2.745,-0.69c-1.02,0 -1.935,0.23 -2.745,0.69c-0.81,0.46 -1.45,1.115 -1.92,1.965c-0.47,0.85 -0.705,1.825 -0.705,2.925c0,1.1 0.235,2.075 0.705,2.925c0.47,0.85 1.11,1.51 1.92,1.98c0.81,0.47 1.725,0.705 2.745,0.705Z" style="fill:#fff;fill-rule:nonzero;"/><path d="M834.023,57.17c2.02,0 3.625,0.585 4.815,1.755c1.19,1.17 1.785,2.885 1.785,5.145l0,9.15l-2.88,0l0,-8.82c0,-1.54 -0.37,-2.7 -1.11,-3.48c-0.74,-0.78 -1.8,-1.17 -3.18,-1.17c-1.56,0 -2.79,0.455 -3.69,1.365c-0.9,0.91 -1.35,2.215 -1.35,3.915l0,8.19l-2.88,0l0,-15.9l2.76,0l0,2.4c0.58,-0.82 1.365,-1.45 2.355,-1.89c0.99,-0.44 2.115,-0.66 3.375,-0.66Z" style="fill:#fff;fill-rule:nonzero;"/><path d="M850.523,73.4c-1.3,0 -2.55,-0.175 -3.75,-0.525c-1.2,-0.35 -2.14,-0.795 -2.82,-1.335l1.2,-2.28c0.7,0.5 1.55,0.9 2.55,1.2c1,0.3 2.01,0.45 3.03,0.45c2.52,0 3.78,-0.72 3.78,-2.16c0,-0.48 -0.17,-0.86 -0.51,-1.14c-0.34,-0.28 -0.765,-0.485 -1.275,-0.615c-0.51,-0.13 -1.235,-0.275 -2.175,-0.435c-1.28,-0.2 -2.325,-0.43 -3.135,-0.69c-0.81,-0.26 -1.505,-0.7 -2.085,-1.32c-0.58,-0.62 -0.87,-1.49 -0.87,-2.61c0,-1.44 0.6,-2.595 1.8,-3.465c1.2,-0.87 2.81,-1.305 4.83,-1.305c1.06,0 2.12,0.13 3.18,0.39c1.06,0.26 1.93,0.61 2.61,1.05l-1.23,2.28c-1.3,-0.84 -2.83,-1.26 -4.59,-1.26c-1.22,0 -2.15,0.2 -2.79,0.6c-0.64,0.4 -0.96,0.93 -0.96,1.59c0,0.52 0.18,0.93 0.54,1.23c0.36,0.3 0.805,0.52 1.335,0.66c0.53,0.14 1.275,0.3 2.235,0.48c1.28,0.22 2.315,0.455 3.105,0.705c0.79,0.25 1.465,0.675 2.025,1.275c0.56,0.6 0.84,1.44 0.84,2.52c0,1.44 -0.615,2.585 -1.845,3.435c-1.23,0.85 -2.905,1.275 -5.025,1.275Z" style="fill:#fff;fill-rule:nonzero;"/><path d="M49.782,476.25c-1.66,0 -3.135,-0.425 -4.425,-1.275c-1.29,-0.85 -2.305,-2.085 -3.045,-3.705c-0.74,-1.62 -1.11,-3.54 -1.11,-5.76c0,-2.22 0.37,-4.14 1.11,-5.76c0.74,-1.62 1.755,-2.855 3.045,-3.705c1.29,-0.85 2.765,-1.275 4.425,-1.275c1.64,0 3.105,0.425 4.395,1.275c1.29,0.85 2.305,2.085 3.045,3.705c0.74,1.62 1.11,3.54 1.11,5.76c0,2.22 -0.37,4.14 -1.11,5.76c-0.74,1.62 -1.755,2.855 -3.045,3.705c-1.29,0.85 -2.755,1.275 -4.395,1.275Zm0,-2.67c1.68,0 3.025,-0.69 4.035,-2.07c1.01,-1.38 1.515,-3.38 1.515,-6c0,-2.62 -0.505,-4.62 -1.515,-6c-1.01,-1.38 -2.355,-2.07 -4.035,-2.07c-1.7,0 -3.055,0.69 -4.065,2.07c-1.01,1.38 -1.515,3.38 -1.515,6c0,2.62 0.505,4.62 1.515,6c1.01,1.38 2.365,2.07 4.065,2.07Z" style="fill:#003117;fill-rule:nonzero;"/><path d="M79.062,459.96c2.02,0 3.625,0.585 4.815,1.755c1.19,1.17 1.785,2.885 1.785,5.145l0,9.15l-2.88,0l0,-8.82c0,-1.54 -0.37,-2.7 -1.11,-3.48c-0.74,-0.78 -1.8,-1.17 -3.18,-1.17c-1.56,0 -2.79,0.455 -3.69,1.365c-0.9,0.91 -1.35,2.215 -1.35,3.915l0,8.19l-2.88,0l0,-22.26l2.88,0l0,8.61c0.6,-0.76 1.385,-1.35 2.355,-1.77c0.97,-0.42 2.055,-0.63 3.255,-0.63Z" style="fill:#003117;fill-rule:nonzero;"/><path d="M97.902,476.19c-1.58,0 -3,-0.35 -4.26,-1.05c-1.26,-0.7 -2.245,-1.665 -2.955,-2.895c-0.71,-1.23 -1.065,-2.625 -1.065,-4.185c0,-1.56 0.355,-2.955 1.065,-4.185c0.71,-1.23 1.695,-2.19 2.955,-2.88c1.26,-0.69 2.68,-1.035 4.26,-1.035c1.58,0 2.995,0.345 4.245,1.035c1.25,0.69 2.23,1.65 2.94,2.88c0.71,1.23 1.065,2.625 1.065,4.185c0,1.56 -0.355,2.955 -1.065,4.185c-0.71,1.23 -1.69,2.195 -2.94,2.895c-1.25,0.7 -2.665,1.05 -4.245,1.05Zm0,-2.52c1.02,0 1.935,-0.235 2.745,-0.705c0.81,-0.47 1.445,-1.13 1.905,-1.98c0.46,-0.85 0.69,-1.825 0.69,-2.925c0,-1.1 -0.23,-2.075 -0.69,-2.925c-0.46,-0.85 -1.095,-1.505 -1.905,-1.965c-0.81,-0.46 -1.725,-0.69 -2.745,-0.69c-1.02,0 -1.935,0.23 -2.745,0.69c-0.81,0.46 -1.45,1.115 -1.92,1.965c-0.47,0.85 -0.705,1.825 -0.705,2.925c0,1.1 0.235,2.075 0.705,2.925c0.47,0.85 1.11,1.51 1.92,1.98c0.81,0.47 1.725,0.705 2.745,0.705Z" style="fill:#003117;fill-rule:nonzero;"/><path d="M124.962,460.11l0,15.9l-2.73,0l0,-2.4c-0.58,0.82 -1.345,1.455 -2.295,1.905c-0.95,0.45 -1.985,0.675 -3.105,0.675c-2.12,0 -3.79,-0.585 -5.01,-1.755c-1.22,-1.17 -1.83,-2.895 -1.83,-5.175l0,-9.15l2.88,0l0,8.82c0,1.54 0.37,2.705 1.11,3.495c0.74,0.79 1.8,1.185 3.18,1.185c1.52,0 2.72,-0.46 3.6,-1.38c0.88,-0.92 1.32,-2.22 1.32,-3.9l0,-8.22l2.88,0Z" style="fill:#003117;fill-rule:nonzero;"/><path d="M133.212,462.78c0.5,-0.92 1.24,-1.62 2.22,-2.1c0.98,-0.48 2.17,-0.72 3.57,-0.72l0,2.79c-0.16,-0.02 -0.38,-0.03 -0.66,-0.03c-1.56,0 -2.785,0.465 -3.675,1.395c-0.89,0.93 -1.335,2.255 -1.335,3.975l0,7.92l-2.88,0l0,-15.9l2.76,0l0,2.67Z" style="fill:#003117;fill-rule:nonzero;"/><path d="M147.222,476.19c-1.3,0 -2.55,-0.175 -3.75,-0.525c-1.2,-0.35 -2.14,-0.795 -2.82,-1.335l1.2,-2.28c0.7,0.5 1.55,0.9 2.55,1.2c1,0.3 2.01,0.45 3.03,0.45c2.52,0 3.78,-0.72 3.78,-2.16c0,-0.48 -0.17,-0.86 -0.51,-1.14c-0.34,-0.28 -0.765,-0.485 -1.275,-0.615c-0.51,-0.13 -1.235,-0.275 -2.175,-0.435c-1.28,-0.2 -2.325,-0.43 -3.135,-0.69c-0.81,-0.26 -1.505,-0.7 -2.085,-1.32c-0.58,-0.62 -0.87,-1.49 -0.87,-2.61c0,-1.44 0.6,-2.595 1.8,-3.465c1.2,-0.87 2.81,-1.305 4.83,-1.305c1.06,0 2.12,0.13 3.18,0.39c1.06,0.26 1.93,0.61 2.61,1.05l-1.23,2.28c-1.3,-0.84 -2.83,-1.26 -4.59,-1.26c-1.22,0 -2.15,0.2 -2.79,0.6c-0.64,0.4 -0.96,0.93 -0.96,1.59c0,0.52 0.18,0.93 0.54,1.23c0.36,0.3 0.805,0.52 1.335,0.66c0.53,0.14 1.275,0.3 2.235,0.48c1.28,0.22 2.315,0.455 3.105,0.705c0.79,0.25 1.465,0.675 2.025,1.275c0.56,0.6 0.84,1.44 0.84,2.52c0,1.44 -0.615,2.585 -1.845,3.435c-1.23,0.85 -2.905,1.275 -5.025,1.275Z" style="fill:#003117;fill-rule:nonzero;"/><path d="M360.622,455.01l0,21l-2.97,0l0,-18.39l-4.74,0l0,-2.61l7.71,0Z" style="fill:#003117;fill-rule:nonzero;"/><path d="M378.052,465c1.2,0.46 2.12,1.12 2.76,1.98c0.64,0.86 0.96,1.89 0.96,3.09c0,1.26 -0.34,2.355 -1.02,3.285c-0.68,0.93 -1.65,1.645 -2.91,2.145c-1.26,0.5 -2.74,0.75 -4.44,0.75c-1.68,0 -3.145,-0.25 -4.395,-0.75c-1.25,-0.5 -2.215,-1.215 -2.895,-2.145c-0.68,-0.93 -1.02,-2.025 -1.02,-3.285c0,-1.2 0.315,-2.23 0.945,-3.09c0.63,-0.86 1.545,-1.52 2.745,-1.98c-0.96,-0.46 -1.69,-1.07 -2.19,-1.83c-0.5,-0.76 -0.75,-1.66 -0.75,-2.7c0,-1.16 0.315,-2.17 0.945,-3.03c0.63,-0.86 1.515,-1.52 2.655,-1.98c1.14,-0.46 2.46,-0.69 3.96,-0.69c1.52,0 2.855,0.23 4.005,0.69c1.15,0.46 2.04,1.12 2.67,1.98c0.63,0.86 0.945,1.87 0.945,3.03c0,1.02 -0.255,1.915 -0.765,2.685c-0.51,0.77 -1.245,1.385 -2.205,1.845Zm-4.65,-7.8c-1.42,0 -2.54,0.305 -3.36,0.915c-0.82,0.61 -1.23,1.435 -1.23,2.475c0,1.04 0.405,1.86 1.215,2.46c0.81,0.6 1.935,0.9 3.375,0.9c1.46,0 2.605,-0.3 3.435,-0.9c0.83,-0.6 1.245,-1.42 1.245,-2.46c0,-1.04 -0.425,-1.865 -1.275,-2.475c-0.85,-0.61 -1.985,-0.915 -3.405,-0.915Zm0,16.62c1.66,0 2.97,-0.345 3.93,-1.035c0.96,-0.69 1.44,-1.625 1.44,-2.805c0,-1.16 -0.48,-2.075 -1.44,-2.745c-0.96,-0.67 -2.27,-1.005 -3.93,-1.005c-1.66,0 -2.96,0.335 -3.9,1.005c-0.94,0.67 -1.41,1.585 -1.41,2.745c0,1.18 0.47,2.115 1.41,2.805c0.94,0.69 2.24,1.035 3.9,1.035Z" style="fill:#003117;fill-rule:nonzero;"/><path d="M402.382,459.96c2.02,0 3.625,0.585 4.815,1.755c1.19,1.17 1.785,2.885 1.785,5.145l0,9.15l-2.88,0l0,-8.82c0,-1.54 -0.37,-2.7 -1.11,-3.48c-0.74,-0.78 -1.8,-1.17 -3.18,-1.17c-1.56,0 -2.79,0.455 -3.69,1.365c-0.9,0.91 -1.35,2.215 -1.35,3.915l0,8.19l-2.88,0l0,-22.26l2.88,0l0,8.61c0.6,-0.76 1.385,-1.35 2.355,-1.77c0.97,-0.42 2.055,-0.63 3.255,-0.63Z" style="fill:#003117;fill-rule:nonzero;"/><path d="M421.222,476.19c-1.58,0 -3,-0.35 -4.26,-1.05c-1.26,-0.7 -2.245,-1.665 -2.955,-2.895c-0.71,-1.23 -1.065,-2.625 -1.065,-4.185c0,-1.56 0.355,-2.955 1.065,-4.185c0.71,-1.23 1.695,-2.19 2.955,-2.88c1.26,-0.69 2.68,-1.035 4.26,-1.035c1.58,0 2.995,0.345 4.245,1.035c1.25,0.69 2.23,1.65 2.94,2.88c0.71,1.23 1.065,2.625 1.065,4.185c0,1.56 -0.355,2.955 -1.065,4.185c-0.71,1.23 -1.69,2.195 -2.94,2.895c-1.25,0.7 -2.665,1.05 -4.245,1.05Zm0,-2.52c1.02,0 1.935,-0.235 2.745,-0.705c0.81,-0.47 1.445,-1.13 1.905,-1.98c0.46,-0.85 0.69,-1.825 0.69,-2.925c0,-1.1 -0.23,-2.075 -0.69,-2.925c-0.46,-0.85 -1.095,-1.505 -1.905,-1.965c-0.81,-0.46 -1.725,-0.69 -2.745,-0.69c-1.02,0 -1.935,0.23 -2.745,0.69c-0.81,0.46 -1.45,1.115 -1.92,1.965c-0.47,0.85 -0.705,1.825 -0.705,2.925c0,1.1 0.235,2.075 0.705,2.925c0.47,0.85 1.11,1.51 1.92,1.98c0.81,0.47 1.725,0.705 2.745,0.705Z" style="fill:#003117;fill-rule:nonzero;"/><path d="M448.282,460.11l0,15.9l-2.73,0l0,-2.4c-0.58,0.82 -1.345,1.455 -2.295,1.905c-0.95,0.45 -1.985,0.675 -3.105,0.675c-2.12,0 -3.79,-0.585 -5.01,-1.755c-1.22,-1.17 -1.83,-2.895 -1.83,-5.175l0,-9.15l2.88,0l0,8.82c0,1.54 0.37,2.705 1.11,3.495c0.74,0.79 1.8,1.185 3.18,1.185c1.52,0 2.72,-0.46 3.6,-1.38c0.88,-0.92 1.32,-2.22 1.32,-3.9l0,-8.22l2.88,0Z" style="fill:#003117;fill-rule:nonzero;"/><path d="M456.532,462.78c0.5,-0.92 1.24,-1.62 2.22,-2.1c0.98,-0.48 2.17,-0.72 3.57,-0.72l0,2.79c-0.16,-0.02 -0.38,-0.03 -0.66,-0.03c-1.56,0 -2.785,0.465 -3.675,1.395c-0.89,0.93 -1.335,2.255 -1.335,3.975l0,7.92l-2.88,0l0,-15.9l2.76,0l0,2.67Z" style="fill:#003117;fill-rule:nonzero;"/><path d="M470.542,476.19c-1.3,0 -2.55,-0.175 -3.75,-0.525c-1.2,-0.35 -2.14,-0.795 -2.82,-1.335l1.2,-2.28c0.7,0.5 1.55,0.9 2.55,1.2c1,0.3 2.01,0.45 3.03,0.45c2.52,0 3.78,-0.72 3.78,-2.16c0,-0.48 -0.17,-0.86 -0.51,-1.14c-0.34,-0.28 -0.765,-0.485 -1.275,-0.615c-0.51,-0.13 -1.235,-0.275 -2.175,-0.435c-1.28,-0.2 -2.325,-0.43 -3.135,-0.69c-0.81,-0.26 -1.505,-0.7 -2.085,-1.32c-0.58,-0.62 -0.87,-1.49 -0.87,-2.61c0,-1.44 0.6,-2.595 1.8,-3.465c1.2,-0.87 2.81,-1.305 4.83,-1.305c1.06,0 2.12,0.13 3.18,0.39c1.06,0.26 1.93,0.61 2.61,1.05l-1.23,2.28c-1.3,-0.84 -2.83,-1.26 -4.59,-1.26c-1.22,0 -2.15,0.2 -2.79,0.6c-0.64,0.4 -0.96,0.93 -0.96,1.59c0,0.52 0.18,0.93 0.54,1.23c0.36,0.3 0.805,0.52 1.335,0.66c0.53,0.14 1.275,0.3 2.235,0.48c1.28,0.22 2.315,0.455 3.105,0.705c0.79,0.25 1.465,0.675 2.025,1.275c0.56,0.6 0.84,1.44 0.84,2.52c0,1.44 -0.615,2.585 -1.845,3.435c-1.23,0.85 -2.905,1.275 -5.025,1.275Z" style="fill:#003117;fill-rule:nonzero;"/><path d="M670.821,463.83c2.06,0.2 3.63,0.835 4.71,1.905c1.08,1.07 1.62,2.435 1.62,4.095c0,1.2 -0.3,2.285 -0.9,3.255c-0.6,0.97 -1.495,1.74 -2.685,2.31c-1.19,0.57 -2.645,0.855 -4.365,0.855c-1.5,0 -2.94,-0.225 -4.32,-0.675c-1.38,-0.45 -2.51,-1.075 -3.39,-1.875l1.38,-2.37c0.72,0.68 1.64,1.225 2.76,1.635c1.12,0.41 2.31,0.615 3.57,0.615c1.56,0 2.775,-0.33 3.645,-0.99c0.87,-0.66 1.305,-1.57 1.305,-2.73c0,-1.16 -0.43,-2.06 -1.29,-2.7c-0.86,-0.64 -2.16,-0.96 -3.9,-0.96l-1.68,0l0,-2.1l5.28,-6.48l-10.11,0l0,-2.61l13.86,0l0,2.04l-5.49,6.78Z" style="fill:#003117;fill-rule:nonzero;"/><path d="M689.001,463.26c1.38,0 2.615,0.26 3.705,0.78c1.09,0.52 1.945,1.265 2.565,2.235c0.62,0.97 0.93,2.085 0.93,3.345c0,1.32 -0.325,2.48 -0.975,3.48c-0.65,1 -1.54,1.775 -2.67,2.325c-1.13,0.55 -2.395,0.825 -3.795,0.825c-2.82,0 -4.995,-0.91 -6.525,-2.73c-1.53,-1.82 -2.295,-4.4 -2.295,-7.74c0,-2.34 0.415,-4.335 1.245,-5.985c0.83,-1.65 1.99,-2.9 3.48,-3.75c1.49,-0.85 3.225,-1.275 5.205,-1.275c1.02,0 1.98,0.105 2.88,0.315c0.9,0.21 1.68,0.515 2.34,0.915l-1.14,2.34c-1,-0.66 -2.34,-0.99 -4.02,-0.99c-2.18,0 -3.89,0.675 -5.13,2.025c-1.24,1.35 -1.86,3.315 -1.86,5.895c0,0.32 0.01,0.57 0.03,0.75c0.6,-0.9 1.425,-1.585 2.475,-2.055c1.05,-0.47 2.235,-0.705 3.555,-0.705Zm-0.36,10.56c1.38,0 2.5,-0.37 3.36,-1.11c0.86,-0.74 1.29,-1.73 1.29,-2.97c0,-1.24 -0.435,-2.225 -1.305,-2.955c-0.87,-0.73 -2.035,-1.095 -3.495,-1.095c-0.94,0 -1.775,0.18 -2.505,0.54c-0.73,0.36 -1.3,0.85 -1.71,1.47c-0.41,0.62 -0.615,1.31 -0.615,2.07c0,0.74 0.195,1.415 0.585,2.025c0.39,0.61 0.96,1.1 1.71,1.47c0.75,0.37 1.645,0.555 2.685,0.555Z" style="fill:#003117;fill-rule:nonzero;"/><path d="M716.301,459.96c2.02,0 3.625,0.585 4.815,1.755c1.19,1.17 1.785,2.885 1.785,5.145l0,9.15l-2.88,0l0,-8.82c0,-1.54 -0.37,-2.7 -1.11,-3.48c-0.74,-0.78 -1.8,-1.17 -3.18,-1.17c-1.56,0 -2.79,0.455 -3.69,1.365c-0.9,0.91 -1.35,2.215 -1.35,3.915l0,8.19l-2.88,0l0,-22.26l2.88,0l0,8.61c0.6,-0.76 1.385,-1.35 2.355,-1.77c0.97,-0.42 2.055,-0.63 3.255,-0.63Z" style="fill:#003117;fill-rule:nonzero;"/><path d="M735.141,476.19c-1.58,0 -3,-0.35 -4.26,-1.05c-1.26,-0.7 -2.245,-1.665 -2.955,-2.895c-0.71,-1.23 -1.065,-2.625 -1.065,-4.185c0,-1.56 0.355,-2.955 1.065,-4.185c0.71,-1.23 1.695,-2.19 2.955,-2.88c1.26,-0.69 2.68,-1.035 4.26,-1.035c1.58,0 2.995,0.345 4.245,1.035c1.25,0.69 2.23,1.65 2.94,2.88c0.71,1.23 1.065,2.625 1.065,4.185c0,1.56 -0.355,2.955 -1.065,4.185c-0.71,1.23 -1.69,2.195 -2.94,2.895c-1.25,0.7 -2.665,1.05 -4.245,1.05Zm0,-2.52c1.02,0 1.935,-0.235 2.745,-0.705c0.81,-0.47 1.445,-1.13 1.905,-1.98c0.46,-0.85 0.69,-1.825 0.69,-2.925c0,-1.1 -0.23,-2.075 -0.69,-2.925c-0.46,-0.85 -1.095,-1.505 -1.905,-1.965c-0.81,-0.46 -1.725,-0.69 -2.745,-0.69c-1.02,0 -1.935,0.23 -2.745,0.69c-0.81,0.46 -1.45,1.115 -1.92,1.965c-0.47,0.85 -0.705,1.825 -0.705,2.925c0,1.1 0.235,2.075 0.705,2.925c0.47,0.85 1.11,1.51 1.92,1.98c0.81,0.47 1.725,0.705 2.745,0.705Z" style="fill:#003117;fill-rule:nonzero;"/><path d="M762.201,460.11l0,15.9l-2.73,0l0,-2.4c-0.58,0.82 -1.345,1.455 -2.295,1.905c-0.95,0.45 -1.985,0.675 -3.105,0.675c-2.12,0 -3.79,-0.585 -5.01,-1.755c-1.22,-1.17 -1.83,-2.895 -1.83,-5.175l0,-9.15l2.88,0l0,8.82c0,1.54 0.37,2.705 1.11,3.495c0.74,0.79 1.8,1.185 3.18,1.185c1.52,0 2.72,-0.46 3.6,-1.38c0.88,-0.92 1.32,-2.22 1.32,-3.9l0,-8.22l2.88,0Z" style="fill:#003117;fill-rule:nonzero;"/><path d="M770.451,462.78c0.5,-0.92 1.24,-1.62 2.22,-2.1c0.98,-0.48 2.17,-0.72 3.57,-0.72l0,2.79c-0.16,-0.02 -0.38,-0.03 -0.66,-0.03c-1.56,0 -2.785,0.465 -3.675,1.395c-0.89,0.93 -1.335,2.255 -1.335,3.975l0,7.92l-2.88,0l0,-15.9l2.76,0l0,2.67Z" style="fill:#003117;fill-rule:nonzero;"/><path d="M784.461,476.19c-1.3,0 -2.55,-0.175 -3.75,-0.525c-1.2,-0.35 -2.14,-0.795 -2.82,-1.335l1.2,-2.28c0.7,0.5 1.55,0.9 2.55,1.2c1,0.3 2.01,0.45 3.03,0.45c2.52,0 3.78,-0.72 3.78,-2.16c0,-0.48 -0.17,-0.86 -0.51,-1.14c-0.34,-0.28 -0.765,-0.485 -1.275,-0.615c-0.51,-0.13 -1.235,-0.275 -2.175,-0.435c-1.28,-0.2 -2.325,-0.43 -3.135,-0.69c-0.81,-0.26 -1.505,-0.7 -2.085,-1.32c-0.58,-0.62 -0.87,-1.49 -0.87,-2.61c0,-1.44 0.6,-2.595 1.8,-3.465c1.2,-0.87 2.81,-1.305 4.83,-1.305c1.06,0 2.12,0.13 3.18,0.39c1.06,0.26 1.93,0.61 2.61,1.05l-1.23,2.28c-1.3,-0.84 -2.83,-1.26 -4.59,-1.26c-1.22,0 -2.15,0.2 -2.79,0.6c-0.64,0.4 -0.96,0.93 -0.96,1.59c0,0.52 0.18,0.93 0.54,1.23c0.36,0.3 0.805,0.52 1.335,0.66c0.53,0.14 1.275,0.3 2.235,0.48c1.28,0.22 2.315,0.455 3.105,0.705c0.79,0.25 1.465,0.675 2.025,1.275c0.56,0.6 0.84,1.44 0.84,2.52c0,1.44 -0.615,2.585 -1.845,3.435c-1.23,0.85 -2.905,1.275 -5.025,1.275Z" style="fill:#003117;fill-rule:nonzero;"/><path d="M977.331,463.38c3,0 5.205,0.565 6.615,1.695c1.41,1.13 2.115,2.675 2.115,4.635c0,1.24 -0.295,2.355 -0.885,3.345c-0.59,0.99 -1.48,1.77 -2.67,2.34c-1.19,0.57 -2.655,0.855 -4.395,0.855c-1.48,0 -2.91,-0.225 -4.29,-0.675c-1.38,-0.45 -2.52,-1.075 -3.42,-1.875l1.38,-2.37c0.72,0.68 1.64,1.225 2.76,1.635c1.12,0.41 2.3,0.615 3.54,0.615c1.58,0 2.805,-0.335 3.675,-1.005c0.87,-0.67 1.305,-1.585 1.305,-2.745c0,-1.26 -0.48,-2.215 -1.44,-2.865c-0.96,-0.65 -2.6,-0.975 -4.92,-0.975l-4.77,0l1.11,-10.98l11.85,0l0,2.61l-9.33,0l-0.57,5.76l2.34,0Z" style="fill:#003117;fill-rule:nonzero;"/><path d="M1006.82,470.85l-3.99,0l0,5.16l-2.91,0l0,-5.16l-11.67,0l0,-2.1l10.74,-13.74l3.24,0l-10.29,13.26l8.07,0l0,-4.56l2.82,0l0,4.56l3.99,0l0,2.58Z" style="fill:#003117;fill-rule:nonzero;"/><path d="M1026.47,459.96c2.02,0 3.625,0.585 4.815,1.755c1.19,1.17 1.785,2.885 1.785,5.145l0,9.15l-2.88,0l0,-8.82c0,-1.54 -0.37,-2.7 -1.11,-3.48c-0.74,-0.78 -1.8,-1.17 -3.18,-1.17c-1.56,0 -2.79,0.455 -3.69,1.365c-0.9,0.91 -1.35,2.215 -1.35,3.915l0,8.19l-2.88,0l0,-22.26l2.88,0l0,8.61c0.6,-0.76 1.385,-1.35 2.355,-1.77c0.97,-0.42 2.055,-0.63 3.255,-0.63Z" style="fill:#003117;fill-rule:nonzero;"/><path d="M1045.31,476.19c-1.58,0 -3,-0.35 -4.26,-1.05c-1.26,-0.7 -2.245,-1.665 -2.955,-2.895c-0.71,-1.23 -1.065,-2.625 -1.065,-4.185c0,-1.56 0.355,-2.955 1.065,-4.185c0.71,-1.23 1.695,-2.19 2.955,-2.88c1.26,-0.69 2.68,-1.035 4.26,-1.035c1.58,0 2.995,0.345 4.245,1.035c1.25,0.69 2.23,1.65 2.94,2.88c0.71,1.23 1.065,2.625 1.065,4.185c0,1.56 -0.355,2.955 -1.065,4.185c-0.71,1.23 -1.69,2.195 -2.94,2.895c-1.25,0.7 -2.665,1.05 -4.245,1.05Zm0,-2.52c1.02,0 1.935,-0.235 2.745,-0.705c0.81,-0.47 1.445,-1.13 1.905,-1.98c0.46,-0.85 0.69,-1.825 0.69,-2.925c0,-1.1 -0.23,-2.075 -0.69,-2.925c-0.46,-0.85 -1.095,-1.505 -1.905,-1.965c-0.81,-0.46 -1.725,-0.69 -2.745,-0.69c-1.02,0 -1.935,0.23 -2.745,0.69c-0.81,0.46 -1.45,1.115 -1.92,1.965c-0.47,0.85 -0.705,1.825 -0.705,2.925c0,1.1 0.235,2.075 0.705,2.925c0.47,0.85 1.11,1.51 1.92,1.98c0.81,0.47 1.725,0.705 2.745,0.705Z" style="fill:#003117;fill-rule:nonzero;"/><path d="M1072.37,460.11l0,15.9l-2.73,0l0,-2.4c-0.58,0.82 -1.345,1.455 -2.295,1.905c-0.95,0.45 -1.985,0.675 -3.105,0.675c-2.12,0 -3.79,-0.585 -5.01,-1.755c-1.22,-1.17 -1.83,-2.895 -1.83,-5.175l0,-9.15l2.88,0l0,8.82c0,1.54 0.37,2.705 1.11,3.495c0.74,0.79 1.8,1.185 3.18,1.185c1.52,0 2.72,-0.46 3.6,-1.38c0.88,-0.92 1.32,-2.22 1.32,-3.9l0,-8.22l2.88,0Z" style="fill:#003117;fill-rule:nonzero;"/><path d="M1080.62,462.78c0.5,-0.92 1.24,-1.62 2.22,-2.1c0.98,-0.48 2.17,-0.72 3.57,-0.72l0,2.79c-0.16,-0.02 -0.38,-0.03 -0.66,-0.03c-1.56,0 -2.785,0.465 -3.675,1.395c-0.89,0.93 -1.335,2.255 -1.335,3.975l0,7.92l-2.88,0l0,-15.9l2.76,0l0,2.67Z" style="fill:#003117;fill-rule:nonzero;"/><path d="M1094.63,476.19c-1.3,0 -2.55,-0.175 -3.75,-0.525c-1.2,-0.35 -2.14,-0.795 -2.82,-1.335l1.2,-2.28c0.7,0.5 1.55,0.9 2.55,1.2c1,0.3 2.01,0.45 3.03,0.45c2.52,0 3.78,-0.72 3.78,-2.16c0,-0.48 -0.17,-0.86 -0.51,-1.14c-0.34,-0.28 -0.765,-0.485 -1.275,-0.615c-0.51,-0.13 -1.235,-0.275 -2.175,-0.435c-1.28,-0.2 -2.325,-0.43 -3.135,-0.69c-0.81,-0.26 -1.505,-0.7 -2.085,-1.32c-0.58,-0.62 -0.87,-1.49 -0.87,-2.61c0,-1.44 0.6,-2.595 1.8,-3.465c1.2,-0.87 2.81,-1.305 4.83,-1.305c1.06,0 2.12,0.13 3.18,0.39c1.06,0.26 1.93,0.61 2.61,1.05l-1.23,2.28c-1.3,-0.84 -2.83,-1.26 -4.59,-1.26c-1.22,0 -2.15,0.2 -2.79,0.6c-0.64,0.4 -0.96,0.93 -0.96,1.59c0,0.52 0.18,0.93 0.54,1.23c0.36,0.3 0.805,0.52 1.335,0.66c0.53,0.14 1.275,0.3 2.235,0.48c1.28,0.22 2.315,0.455 3.105,0.705c0.79,0.25 1.465,0.675 2.025,1.275c0.56,0.6 0.84,1.44 0.84,2.52c0,1.44 -0.615,2.585 -1.845,3.435c-1.23,0.85 -2.905,1.275 -5.025,1.275Z" style="fill:#003117;fill-rule:nonzero;"/><path d="M1295.26,455.01l0,2.04l-8.49,18.96l-3.18,0l8.31,-18.39l-9.6,0l0,3.75l-2.88,0l0,-6.36l15.84,0Z" style="fill:#003117;fill-rule:nonzero;"/><path d="M1312.66,473.4l0,2.61l-15.09,0l0,-2.04l8.55,-8.25c1.04,-1 1.74,-1.865 2.1,-2.595c0.36,-0.73 0.54,-1.465 0.54,-2.205c0,-1.1 -0.385,-1.955 -1.155,-2.565c-0.77,-0.61 -1.875,-0.915 -3.315,-0.915c-2.32,0 -4.11,0.76 -5.37,2.28l-2.04,-1.77c0.82,-1 1.895,-1.78 3.225,-2.34c1.33,-0.56 2.815,-0.84 4.455,-0.84c2.2,0 3.95,0.525 5.25,1.575c1.3,1.05 1.95,2.475 1.95,4.275c0,1.12 -0.24,2.18 -0.72,3.18c-0.48,1 -1.39,2.14 -2.73,3.42l-6.42,6.18l10.77,0Z" style="fill:#003117;fill-rule:nonzero;"/><path d="M1332.97,459.96c2.02,0 3.625,0.585 4.815,1.755c1.19,1.17 1.785,2.885 1.785,5.145l0,9.15l-2.88,0l0,-8.82c0,-1.54 -0.37,-2.7 -1.11,-3.48c-0.74,-0.78 -1.8,-1.17 -3.18,-1.17c-1.56,0 -2.79,0.455 -3.69,1.365c-0.9,0.91 -1.35,2.215 -1.35,3.915l0,8.19l-2.88,0l0,-22.26l2.88,0l0,8.61c0.6,-0.76 1.385,-1.35 2.355,-1.77c0.97,-0.42 2.055,-0.63 3.255,-0.63Z" style="fill:#003117;fill-rule:nonzero;"/><path d="M1351.81,476.19c-1.58,0 -3,-0.35 -4.26,-1.05c-1.26,-0.7 -2.245,-1.665 -2.955,-2.895c-0.71,-1.23 -1.065,-2.625 -1.065,-4.185c0,-1.56 0.355,-2.955 1.065,-4.185c0.71,-1.23 1.695,-2.19 2.955,-2.88c1.26,-0.69 2.68,-1.035 4.26,-1.035c1.58,0 2.995,0.345 4.245,1.035c1.25,0.69 2.23,1.65 2.94,2.88c0.71,1.23 1.065,2.625 1.065,4.185c0,1.56 -0.355,2.955 -1.065,4.185c-0.71,1.23 -1.69,2.195 -2.94,2.895c-1.25,0.7 -2.665,1.05 -4.245,1.05Zm0,-2.52c1.02,0 1.935,-0.235 2.745,-0.705c0.81,-0.47 1.445,-1.13 1.905,-1.98c0.46,-0.85 0.69,-1.825 0.69,-2.925c0,-1.1 -0.23,-2.075 -0.69,-2.925c-0.46,-0.85 -1.095,-1.505 -1.905,-1.965c-0.81,-0.46 -1.725,-0.69 -2.745,-0.69c-1.02,0 -1.935,0.23 -2.745,0.69c-0.81,0.46 -1.45,1.115 -1.92,1.965c-0.47,0.85 -0.705,1.825 -0.705,2.925c0,1.1 0.235,2.075 0.705,2.925c0.47,0.85 1.11,1.51 1.92,1.98c0.81,0.47 1.725,0.705 2.745,0.705Z" style="fill:#003117;fill-rule:nonzero;"/><path d="M1378.87,460.11l0,15.9l-2.73,0l0,-2.4c-0.58,0.82 -1.345,1.455 -2.295,1.905c-0.95,0.45 -1.985,0.675 -3.105,0.675c-2.12,0 -3.79,-0.585 -5.01,-1.755c-1.22,-1.17 -1.83,-2.895 -1.83,-5.175l0,-9.15l2.88,0l0,8.82c0,1.54 0.37,2.705 1.11,3.495c0.74,0.79 1.8,1.185 3.18,1.185c1.52,0 2.72,-0.46 3.6,-1.38c0.88,-0.92 1.32,-2.22 1.32,-3.9l0,-8.22l2.88,0Z" style="fill:#003117;fill-rule:nonzero;"/><path d="M1387.12,462.78c0.5,-0.92 1.24,-1.62 2.22,-2.1c0.98,-0.48 2.17,-0.72 3.57,-0.72l0,2.79c-0.16,-0.02 -0.38,-0.03 -0.66,-0.03c-1.56,0 -2.785,0.465 -3.675,1.395c-0.89,0.93 -1.335,2.255 -1.335,3.975l0,7.92l-2.88,0l0,-15.9l2.76,0l0,2.67Z" style="fill:#003117;fill-rule:nonzero;"/><path d="M1401.13,476.19c-1.3,0 -2.55,-0.175 -3.75,-0.525c-1.2,-0.35 -2.14,-0.795 -2.82,-1.335l1.2,-2.28c0.7,0.5 1.55,0.9 2.55,1.2c1,0.3 2.01,0.45 3.03,0.45c2.52,0 3.78,-0.72 3.78,-2.16c0,-0.48 -0.17,-0.86 -0.51,-1.14c-0.34,-0.28 -0.765,-0.485 -1.275,-0.615c-0.51,-0.13 -1.235,-0.275 -2.175,-0.435c-1.28,-0.2 -2.325,-0.43 -3.135,-0.69c-0.81,-0.26 -1.505,-0.7 -2.085,-1.32c-0.58,-0.62 -0.87,-1.49 -0.87,-2.61c0,-1.44 0.6,-2.595 1.8,-3.465c1.2,-0.87 2.81,-1.305 4.83,-1.305c1.06,0 2.12,0.13 3.18,0.39c1.06,0.26 1.93,0.61 2.61,1.05l-1.23,2.28c-1.3,-0.84 -2.83,-1.26 -4.59,-1.26c-1.22,0 -2.15,0.2 -2.79,0.6c-0.64,0.4 -0.96,0.93 -0.96,1.59c0,0.52 0.18,0.93 0.54,1.23c0.36,0.3 0.805,0.52 1.335,0.66c0.53,0.14 1.275,0.3 2.235,0.48c1.28,0.22 2.315,0.455 3.105,0.705c0.79,0.25 1.465,0.675 2.025,1.275c0.56,0.6 0.84,1.44 0.84,2.52c0,1.44 -0.615,2.585 -1.845,3.435c-1.23,0.85 -2.905,1.275 -5.025,1.275Z" style="fill:#003117;fill-rule:nonzero;"/></g><defs><linearGradient id="_Linear2" x1="0" y1="0" x2="1" y2="0" gradientUnits="userSpaceOnUse" gradientTransform="matrix(515.56,0,0,204.108,860.943,327.035)"><stop offset="0" style="stop-color:#80217e;stop-opacity:1"/><stop offset="1" style="stop-color:#d04acd;stop-opacity:1"/></linearGradient><linearGradient id="_Linear3" x1="0" y1="0" x2="1" y2="0" gradientUnits="userSpaceOnUse" gradientTransform="matrix(515.56,0,0,204.108,552.965,327.501)"><stop offset="0" style="stop-color:#80217e;stop-opacity:1"/><stop offset="1" style="stop-color:#d04acd;stop-opacity:1"/></linearGradient><linearGradient id="_Linear4" x1="0" y1="0" x2="1" y2="0" gradientUnits="userSpaceOnUse" gradientTransform="matrix(515.56,0,0,204.108,245.685,327.277)"><stop offset="0" style="stop-color:#80217e;stop-opacity:1"/><stop offset="1" style="stop-color:#d04acd;stop-opacity:1"/></linearGradient><linearGradient id="_Linear5" x1="0" y1="0" x2="1" y2="0" gradientUnits="userSpaceOnUse" gradientTransform="matrix(515.56,0,0,204.108,-62.7656,326.732)"><stop offset="0" style="stop-color:#80217e;stop-opacity:1"/><stop offset="1" style="stop-color:#d04acd;stop-opacity:1"/></linearGradient><linearGradient id="_Linear6" x1="0" y1="0" x2="1" y2="0" gradientUnits="userSpaceOnUse" gradientTransform="matrix(-0.0592283,-103.538,109.994,-0.0629217,207.579,218.469)"><stop offset="0" style="stop-color:#80217e;stop-opacity:1"/><stop offset="1" style="stop-color:#d04acd;stop-opacity:1"/></linearGradient><linearGradient id="_Linear7" x1="0" y1="0" x2="1" y2="0" gradientUnits="userSpaceOnUse" gradientTransform="matrix(-0.0592283,-103.538,109.994,-0.0629217,532.974,218.469)"><stop offset="0" style="stop-color:#80217e;stop-opacity:1"/><stop offset="1" style="stop-color:#d04acd;stop-opacity:1"/></linearGradient><linearGradient id="_Linear8" x1="0" y1="0" x2="1" y2="0" gradientUnits="userSpaceOnUse" gradientTransform="matrix(-0.0592283,-103.538,109.994,-0.0629217,844.58,218.469)"><stop offset="0" style="stop-color:#80217e;stop-opacity:1"/><stop offset="1" style="stop-color:#d04acd;stop-opacity:1"/></linearGradient><linearGradient id="_Linear9" x1="0" y1="0" x2="1" y2="0" gradientUnits="userSpaceOnUse" gradientTransform="matrix(-0.0592283,-103.538,109.994,-0.0629217,1151.27,218.469)"><stop offset="0" style="stop-color:#80217e;stop-opacity:1"/><stop offset="1" style="stop-color:#d04acd;stop-opacity:1"/></linearGradient><linearGradient id="_Linear10" x1="0" y1="0" x2="1" y2="0" gradientUnits="userSpaceOnUse" gradientTransform="matrix(1258.03,0,0,74.3479,34.7398,63.772)"><stop offset="0" style="stop-color:#80217e;stop-opacity:1"/><stop offset="1" style="stop-color:#d04acd;stop-opacity:1"/></linearGradient></defs></svg>