<?xml version="1.0" encoding="UTF-8" standalone="no"?><!DOCTYPE svg PUBLIC "-//W3C//DTD SVG 1.1//EN" "http://www.w3.org/Graphics/SVG/1.1/DTD/svg11.dtd"><svg width="100%" height="100%" viewBox="0 0 1432 502" version="1.1" xmlns="http://www.w3.org/2000/svg" xmlns:xlink="http://www.w3.org/1999/xlink" xml:space="preserve" xmlns:serif="http://www.serif.com/" style="fill-rule:evenodd;clip-rule:evenodd;stroke-linejoin:round;stroke-miterlimit:1.41421;"><rect id="Waterfall" x="0" y="0" width="1431.4" height="501.712" style="fill:none;"/><clipPath id="_clip1"><rect x="0" y="0" width="1431.4" height="501.712"/></clipPath><g clip-path="url(#_clip1)"><path d="M860.943,429.089l102.054,0l0,-204.108l-102.054,0l413.507,0l102.054,102.054l-102.054,102.054l-413.507,0Z" style="fill:url(#_Linear2);"/><path d="M552.965,429.555l102.054,0l0,-204.108l-102.054,0l413.507,0l102.054,102.054l-102.054,102.054l-413.507,0Z" style="fill:url(#_Linear3);"/><path d="M245.685,429.331l102.054,0l0,-204.108l-102.054,0l413.506,0l102.054,102.054l-102.054,102.054l-413.506,0Z" style="fill:url(#_Linear4);"/><path d="M-62.766,428.786l102.054,0l0,-204.108l-102.054,0l413.507,0l102.054,102.054l-102.054,102.054l-413.507,0Z" style="fill:url(#_Linear5);"/><g transform="matrix(1,0,0,1,-43.1655,21.8494)"><text x="180.051px" y="301.096px" style="font-family:'Montserrat-Medium', 'Montserrat';font-weight:500;font-size:30px;fill:#fff;">Incident</text><text x="180.051px" y="331.096px" style="font-family:'Montserrat-Medium', 'Montserrat';font-weight:500;font-size:30px;fill:#fff;">r<tspan x="191.991px " y="331.096px ">e</tspan>sponse</text></g><text x="492.417px" y="337.856px" style="font-family:'Montserrat-Medium', 'Montserrat';font-weight:500;font-size:30px;fill:#fff;">Messagin<tspan x="637.107px " y="337.856px ">g</tspan></text><text x="797.46px" y="337.856px" style="font-family:'Montserrat-Medium', 'Montserrat';font-weight:500;font-size:30px;fill:#fff;">L<tspan x="815.07px " y="337.856px ">e</tspan>gal r<tspan x="900.45px 918.51px " y="337.856px 337.856px ">ev</tspan>ie<tspan x="961.71px " y="337.856px ">w</tspan></text><g transform="matrix(1,0,0,1,925.95,24.4444)"><text x="180.051px" y="301.096px" style="font-family:'Montserrat-Medium', 'Montserrat';font-weight:500;font-size:30px;fill:#fff;">Send out</text><text x="180.051px" y="331.096px" style="font-family:'Montserrat-Medium', 'Montserrat';font-weight:500;font-size:30px;fill:#fff;">notiï¬cations</text></g><path d="M240.482,218.45l-65.805,0.038l-0.028,-48.541l-22.095,0.013l54.966,-55.029l55.028,54.966l-22.094,0.013l0.028,48.54Z" style="fill:url(#_Linear6);"/><path d="M565.877,218.45l-65.805,0.038l-0.028,-48.541l-22.095,0.013l54.966,-55.029l55.029,54.966l-22.095,0.013l0.028,48.54Z" style="fill:url(#_Linear7);"/><path d="M877.483,218.45l-65.805,0.038l-0.028,-48.541l-22.095,0.013l54.966,-55.029l55.029,54.966l-22.095,0.013l0.028,48.54Z" style="fill:url(#_Linear8);"/><path d="M1184.17,218.45l-65.805,0.038l-0.027,-48.541l-22.095,0.013l54.966,-55.029l55.028,54.966l-22.094,0.013l0.027,48.54Z" style="fill:url(#_Linear9);"/><rect x="34.74" y="26.598" width="1258.03" height="74.348" style="fill:url(#_Linear10);"/><text x="507.383px" y="73.22px" style="font-family:'Montserrat-Medium', 'Montserrat';font-weight:500;font-size:30px;fill:#fff;">Super<tspan x="597.893px " y="73.22px ">v</tspan>isor<tspan x="669.863px " y="73.22px ">y</tspan> A<tspan x="716.363px " y="73.22px ">u</tspan>thor<tspan x="800.753px 809.123px 821.243px " y="73.22px 73.22px 73.22px ">ity</tspan></text><text x="39.762px" y="476.01px" style="font-family:'Montserrat-Medium', 'Montserrat';font-weight:500;font-size:30px;fill:#003117;">0 hours</text><text x="352.672px" y="476.01px" style="font-family:'Montserrat-Medium', 'Montserrat';font-weight:500;font-size:30px;fill:#003117;">18 hours</text><text x="661.341px" y="476.01px" style="font-family:'Montserrat-Medium', 'Montserrat';font-weight:500;font-size:30px;fill:#003117;">36 hours</text><text x="969.891px" y="476.01px" style="font-family:'Montserrat-Medium', 'Montserrat';font-weight:500;font-size:30px;fill:#003117;">54 hours</text><text x="1278.52px" y="476.01px" style="font-family:'Montserrat-Medium', 'Montserrat';font-weight:500;font-size:30px;fill:#003117;">72 hours</text></g><defs><linearGradient id="_Linear2" x1="0" y1="0" x2="1" y2="0" gradientUnits="userSpaceOnUse" gradientTransform="matrix(515.56,0,0,204.108,860.943,327.035)"><stop offset="0" style="stop-color:#80217e;stop-opacity:1"/><stop offset="1" style="stop-color:#d04acd;stop-opacity:1"/></linearGradient><linearGradient id="_Linear3" x1="0" y1="0" x2="1" y2="0" gradientUnits="userSpaceOnUse" gradientTransform="matrix(515.56,0,0,204.108,552.965,327.501)"><stop offset="0" style="stop-color:#80217e;stop-opacity:1"/><stop offset="1" style="stop-color:#d04acd;stop-opacity:1"/></linearGradient><linearGradient id="_Linear4" x1="0" y1="0" x2="1" y2="0" gradientUnits="userSpaceOnUse" gradientTransform="matrix(515.56,0,0,204.108,245.685,327.277)"><stop offset="0" style="stop-color:#80217e;stop-opacity:1"/><stop offset="1" style="stop-color:#d04acd;stop-opacity:1"/></linearGradient><linearGradient id="_Linear5" x1="0" y1="0" x2="1" y2="0" gradientUnits="userSpaceOnUse" gradientTransform="matrix(515.56,0,0,204.108,-62.7656,326.732)"><stop offset="0" style="stop-color:#80217e;stop-opacity:1"/><stop offset="1" style="stop-color:#d04acd;stop-opacity:1"/></linearGradient><linearGradient id="_Linear6" x1="0" y1="0" x2="1" y2="0" gradientUnits="userSpaceOnUse" gradientTransform="matrix(-0.0592283,-103.538,109.994,-0.0629217,207.579,218.469)"><stop offset="0" style="stop-color:#80217e;stop-opacity:1"/><stop offset="1" style="stop-color:#d04acd;stop-opacity:1"/></linearGradient><linearGradient id="_Linear7" x1="0" y1="0" x2="1" y2="0" gradientUnits="userSpaceOnUse" gradientTransform="matrix(-0.0592283,-103.538,109.994,-0.0629217,532.974,218.469)"><stop offset="0" style="stop-color:#80217e;stop-opacity:1"/><stop offset="1" style="stop-color:#d04acd;stop-opacity:1"/></linearGradient><linearGradient id="_Linear8" x1="0" y1="0" x2="1" y2="0" gradientUnits="userSpaceOnUse" gradientTransform="matrix(-0.0592283,-103.538,109.994,-0.0629217,844.58,218.469)"><stop offset="0" style="stop-color:#80217e;stop-opacity:1"/><stop offset="1" style="stop-color:#d04acd;stop-opacity:1"/></linearGradient><linearGradient id="_Linear9" x1="0" y1="0" x2="1" y2="0" gradientUnits="userSpaceOnUse" gradientTransform="matrix(-0.0592283,-103.538,109.994,-0.0629217,1151.27,218.469)"><stop offset="0" style="stop-color:#80217e;stop-opacity:1"/><stop offset="1" style="stop-color:#d04acd;stop-opacity:1"/></linearGradient><linearGradient id="_Linear10" x1="0" y1="0" x2="1" y2="0" gradientUnits="userSpaceOnUse" gradientTransform="matrix(1258.03,0,0,74.3479,34.7398,63.772)"><stop offset="0" style="stop-color:#80217e;stop-opacity:1"/><stop offset="1" style="stop-color:#d04acd;stop-opacity:1"/></linearGradient></defs></svg>