<?xml version="1.0" encoding="UTF-8" standalone="no"?><!DOCTYPE svg PUBLIC "-//W3C//DTD SVG 1.1//EN" "http://www.w3.org/Graphics/SVG/1.1/DTD/svg11.dtd"><svg width="100%" height="100%" viewBox="0 0 917 586" version="1.1" xmlns="http://www.w3.org/2000/svg" xmlns:xlink="http://www.w3.org/1999/xlink" xml:space="preserve" xmlns:serif="http://www.serif.com/" style="fill-rule:evenodd;clip-rule:evenodd;stroke-linejoin:round;stroke-miterlimit:2;"><g id="Badrap"><path d="M803.337,386.261c13.408,7.741 13.468,20.291 0.155,28.026l-268.894,156.264c-13.312,7.736 -34.976,7.743 -48.384,0l-270.644,-156.254c-13.408,-7.742 -13.479,-20.296 -0.167,-28.034l268.895,-156.265c13.312,-7.735 34.985,-7.735 48.395,0.006l270.644,156.257Z" style="fill:#a80d60;fill-opacity:0.2;fill-rule:nonzero;"/><g><path d="M803.493,308.995l-268.895,156.264c-13.312,7.735 -34.976,7.742 -48.384,0l-270.644,-156.255c-6.749,-3.897 -10.118,-9.015 -10.105,-14.119l-0.024,8.962c-0.014,5.108 3.355,10.222 10.104,14.119l270.642,156.256c13.412,7.743 35.074,7.738 48.387,0l268.896,-156.263c6.612,-3.845 9.927,-8.878 9.941,-13.917l0.024,-8.963c-0.013,5.04 -3.326,10.071 -9.942,13.916Z" style="fill:#5f0743;fill-rule:nonzero;"/><path d="M803.337,280.968c13.408,7.743 13.468,20.291 0.155,28.026l-268.894,156.265c-13.312,7.735 -34.976,7.742 -48.384,0.002l-270.644,-156.257c-13.408,-7.742 -13.479,-20.296 -0.167,-28.034l268.895,-156.263c13.312,-7.737 34.985,-7.737 48.395,0.004l270.644,156.257Z" style="fill:#fff;fill-rule:nonzero;"/></g><g><g><path d="M703.842,489.759l7.957,4.703c3.466,2.014 9.104,2.017 12.594,0l39.574,-22.854c1.757,-1.015 2.631,-2.347 2.629,-3.676l0.007,2.334c0.004,1.327 -0.873,2.659 -2.631,3.674l-39.573,22.854c-3.49,2.016 -9.129,2.014 -12.593,0l-7.957,-4.704c-1.724,-0.999 -2.585,-2.309 -2.588,-3.621l-0.008,-2.334c0.006,1.315 0.867,2.624 2.589,3.624Z" style="fill:#5f0743;fill-rule:nonzero;"/><path d="M703.881,482.464c-3.489,2.013 -3.505,5.279 -0.039,7.295l7.957,4.703c3.466,2.014 9.104,2.017 12.594,0l39.574,-22.854c3.489,-2.016 3.508,-5.283 0.042,-7.297l-7.958,-4.703c-3.463,-2.014 -9.105,-2.014 -12.595,0.002l-39.575,22.854Z" style="fill:#fff;fill-rule:nonzero;"/></g><g><path d="M687.236,469.656l7.958,4.702c3.465,2.015 9.103,2.016 12.593,0l39.574,-22.853c1.756,-1.016 2.634,-2.347 2.63,-3.676l0.007,2.333c0.003,1.329 -0.874,2.661 -2.631,3.675l-39.572,22.855c-3.491,2.013 -9.13,2.012 -12.594,0l-7.956,-4.704c-1.725,-1.001 -2.586,-2.309 -2.591,-3.622l-0.006,-2.333c0.005,1.311 0.867,2.622 2.588,3.623Z" style="fill:#5f0743;fill-rule:nonzero;"/><path d="M687.277,462.361c-3.49,2.015 -3.507,5.28 -0.041,7.295l7.958,4.702c3.465,2.015 9.103,2.016 12.593,0l39.574,-22.853c3.49,-2.016 3.509,-5.283 0.045,-7.296l-7.96,-4.704c-3.463,-2.014 -9.106,-2.014 -12.596,0.001l-39.573,22.855Z" style="fill:#fff;fill-rule:nonzero;"/></g><g><path d="M670.631,449.552l7.957,4.702c3.466,2.014 9.103,2.018 12.593,0l39.575,-22.854c1.754,-1.015 2.632,-2.345 2.629,-3.677l0.008,2.336c0.003,1.329 -0.875,2.659 -2.632,3.673l-39.574,22.855c-3.489,2.013 -9.128,2.012 -12.592,0l-7.959,-4.704c-1.723,-1 -2.583,-2.31 -2.586,-3.621l-0.008,-2.334c0.005,1.315 0.866,2.624 2.589,3.624Z" style="fill:#5f0743;fill-rule:nonzero;"/><path d="M670.67,442.256c-3.489,2.016 -3.505,5.283 -0.039,7.296l7.957,4.702c3.466,2.014 9.103,2.018 12.593,0l39.575,-22.854c3.489,-2.017 3.507,-5.283 0.041,-7.295l-7.956,-4.704c-3.466,-2.015 -9.106,-2.015 -12.597,0.001l-39.574,22.854Z" style="fill:#fff;fill-rule:nonzero;"/></g><g><path d="M654.024,429.447l7.959,4.703c3.464,2.017 9.103,2.018 12.593,0l39.573,-22.854c1.757,-1.014 2.634,-2.345 2.632,-3.674l0.007,2.333c0.002,1.329 -0.876,2.661 -2.632,3.674l-39.574,22.855c-3.489,2.015 -9.129,2.014 -12.593,0l-7.956,-4.702c-1.724,-1.002 -2.584,-2.313 -2.589,-3.623l-0.007,-2.335c0.004,1.314 0.865,2.625 2.587,3.623Z" style="fill:#5f0743;fill-rule:nonzero;"/><path d="M654.067,422.154c-3.491,2.017 -3.508,5.281 -0.043,7.293l7.959,4.703c3.464,2.017 9.103,2.018 12.593,0l39.573,-22.854c3.49,-2.015 3.511,-5.281 0.045,-7.295l-7.958,-4.702c-3.465,-2.017 -9.107,-2.017 -12.597,0.001l-39.572,22.854Z" style="fill:#fff;fill-rule:nonzero;"/></g></g><g><path d="M305.522,484.624l-7.957,4.704c-3.463,2.014 -9.103,2.016 -12.593,0l-39.573,-22.854c-1.757,-1.015 -2.634,-2.344 -2.631,-3.674l-0.006,2.332c-0.002,1.328 0.873,2.661 2.63,3.675l39.575,22.854c3.489,2.017 9.127,2.016 12.592,0l7.958,-4.701c1.722,-1.001 2.584,-2.312 2.588,-3.623l0.007,-2.334c-0.003,1.312 -0.866,2.622 -2.59,3.621Z" style="fill:#5f0743;fill-rule:nonzero;"/><path d="M305.482,477.329c3.491,2.018 3.508,5.282 0.041,7.295l-7.957,4.704c-3.463,2.014 -9.103,2.016 -12.593,0l-39.573,-22.854c-3.49,-2.014 -3.509,-5.281 -0.043,-7.297l7.958,-4.702c3.464,-2.014 9.105,-2.014 12.596,0.002l39.571,22.852Z" style="fill:#fff;fill-rule:nonzero;"/></g><g><path d="M322.127,464.521l-7.958,4.704c-3.463,2.012 -9.102,2.015 -12.592,0l-39.573,-22.854c-1.756,-1.015 -2.634,-2.347 -2.63,-3.676l-0.006,2.332c-0.003,1.329 0.873,2.662 2.63,3.677l39.574,22.854c3.49,2.015 9.128,2.014 12.593,0l7.958,-4.702c1.723,-1.002 2.583,-2.311 2.587,-3.622l0.008,-2.334c-0.005,1.312 -0.867,2.62 -2.591,3.621Z" style="fill:#5f0736;fill-rule:nonzero;"/><path d="M322.089,457.226c3.49,2.017 3.505,5.283 0.038,7.295l-7.958,4.704c-3.463,2.012 -9.102,2.015 -12.592,0l-39.573,-22.854c-3.49,-2.016 -3.509,-5.282 -0.043,-7.297l7.957,-4.704c3.465,-2.012 9.106,-2.012 12.597,0.002l39.574,22.854Z" style="fill:#fff;fill-rule:nonzero;"/></g><g><path d="M338.736,444.417l-7.958,4.704c-3.465,2.014 -9.104,2.016 -12.593,0l-39.574,-22.855c-1.757,-1.015 -2.634,-2.344 -2.63,-3.672l-0.006,2.331c-0.004,1.329 0.874,2.661 2.629,3.676l39.574,22.853c3.49,2.018 9.129,2.017 12.593,0l7.957,-4.703c1.723,-0.998 2.585,-2.31 2.59,-3.622l0.006,-2.332c-0.005,1.31 -0.868,2.62 -2.588,3.62Z" style="fill:#5f0743;fill-rule:nonzero;"/><path d="M338.693,437.125c3.49,2.014 3.506,5.279 0.042,7.292l-7.958,4.704c-3.465,2.014 -9.104,2.016 -12.593,0l-39.574,-22.855c-3.491,-2.014 -3.509,-5.281 -0.044,-7.294l7.958,-4.706c3.464,-2.012 9.106,-2.012 12.596,0.005l39.573,22.854Z" style="fill:#fff;fill-rule:nonzero;"/></g><g><path d="M355.34,424.313l-7.959,4.704c-3.464,2.014 -9.103,2.015 -12.592,0l-39.574,-22.855c-1.756,-1.014 -2.633,-2.345 -2.631,-3.672l-0.006,2.332c-0.003,1.328 0.874,2.658 2.63,3.674l39.574,22.854c3.491,2.017 9.128,2.015 12.592,0l7.958,-4.702c1.723,-0.999 2.585,-2.311 2.589,-3.622l0.005,-2.334c-0.002,1.31 -0.864,2.621 -2.586,3.621Z" style="fill:#5f0736;fill-rule:nonzero;"/><path d="M355.299,417.019c3.489,2.016 3.506,5.281 0.041,7.294l-7.959,4.704c-3.464,2.014 -9.103,2.015 -12.592,0l-39.574,-22.855c-3.489,-2.014 -3.508,-5.282 -0.043,-7.295l7.958,-4.703c3.466,-2.014 9.106,-2.014 12.596,0.001l39.573,22.854Z" style="fill:#fff;fill-rule:nonzero;"/></g><g><path d="M417.857,345.891c-1.778,0 -3.554,-0.459 -5.136,-1.384l-23.988,-14.012l0.396,-0.681l23.989,14.014c2.888,1.688 6.488,1.706 9.392,0.048l84.542,-47.713c2.958,-1.687 4.729,-4.727 4.736,-8.134c0.011,-3.405 -1.745,-6.455 -4.697,-8.158l-10.757,-6.375c-3.188,-1.839 -5.091,-5.139 -5.086,-8.822c0.005,-3.685 1.914,-6.978 5.107,-8.814l50.554,-29.046c3.073,-1.765 6.771,-1.818 9.893,-0.14l15.717,8.45l-0.373,0.692l-15.718,-8.45c-2.879,-1.548 -6.292,-1.5 -9.127,0.128l-50.553,29.047c-2.949,1.692 -4.712,4.734 -4.714,8.132c-0.006,3.4 1.751,6.445 4.696,8.144l10.76,6.376c3.191,1.842 5.093,5.148 5.084,8.838c-0.009,3.691 -1.928,6.987 -5.135,8.814l-84.543,47.715c-1.556,0.889 -3.298,1.331 -5.039,1.331Z" style="fill:#f193c5;fill-rule:nonzero;"/><g><g><path d="M411.511,327.038l0,3.208c0.001,0.393 -0.253,0.783 -0.768,1.078l-21.546,12.436c-1.021,0.589 -2.688,0.586 -3.706,-0.009l-22.069,-12.82c-0.484,-0.284 -0.738,-0.651 -0.758,-1.022c-0.004,0 -0.004,-3.275 -0.004,-3.275l48.851,0.404Z" style="fill:#660036;fill-rule:nonzero;"/><path d="M410.851,328.297l-21.543,12.437c-0.525,0.3 -1.22,0.468 -1.954,0.468c-0.746,0 -1.444,-0.171 -1.974,-0.479l-22.068,-12.824c-0.284,-0.165 -0.504,-0.362 -0.651,-0.581l0,-0.685c0,0.393 0.253,0.781 0.762,1.079l22.069,12.823c0.51,0.298 1.187,0.447 1.862,0.447c0.668,0 1.335,-0.146 1.844,-0.438l21.546,-12.437c0.51,-0.293 0.766,-0.683 0.768,-1.071l0,0.677c-0.149,0.22 -0.371,0.418 -0.661,0.584Z" style="fill-rule:nonzero;"/><path d="M385.492,340.536c1.018,0.594 2.685,0.597 3.706,0.01l21.546,-12.437c1.021,-0.589 1.022,-1.558 0.005,-2.15l-22.067,-12.825c-1.018,-0.594 -2.687,-0.596 -3.708,-0.007l-21.545,12.434c-1.022,0.591 -1.024,1.558 -0.006,2.152l22.069,12.823Z" style="fill:#f30082;fill-rule:nonzero;"/></g></g><g><g><path d="M636.075,239.202l-30.009,17.368c-1.342,0.779 -3.549,0.779 -4.901,0l-31.323,-18.078c-0.681,-0.393 -1.018,-0.912 -1.018,-1.429l0,0.422c-0.003,0.52 0.337,1.038 1.018,1.431l31.323,18.078c1.351,0.782 3.557,0.782 4.901,0l30.007,-17.366c0.669,-0.387 1.002,-0.898 1.003,-1.41l0.001,-0.424c-0.001,0.511 -0.335,1.022 -1.002,1.408Z" style="fill:#2a49a7;fill-rule:nonzero;"/><path d="M636.059,236.364c1.351,0.78 1.358,2.058 0.016,2.841l-30.009,17.365c-1.342,0.779 -3.549,0.779 -4.901,0l-31.323,-18.078c-1.352,-0.781 -1.359,-2.058 -0.016,-2.841l30.008,-17.365c1.343,-0.781 3.55,-0.781 4.902,0l31.323,18.078Z" style="fill:#fff;fill-rule:nonzero;"/></g><g><path d="M627.375,229.895l0,7.921c0,0.392 -0.255,0.782 -0.769,1.08l-21.545,12.434c-1.02,0.589 -2.69,0.586 -3.708,-0.008l-22.067,-12.824c-0.486,-0.283 -0.737,-0.65 -0.76,-1.021c-0.001,-0.001 -0.001,-7.987 -0.001,-7.987l48.85,0.405Z" style="fill:#660036;fill-rule:nonzero;"/><path d="M626.717,231.153l-21.546,12.434c-0.524,0.303 -1.218,0.47 -1.953,0.47c-0.746,0 -1.447,-0.17 -1.973,-0.478l-22.068,-12.822c-0.287,-0.167 -0.506,-0.365 -0.651,-0.582l0,-0.684c-0.002,0.39 0.252,0.78 0.761,1.076l22.067,12.823c0.513,0.298 1.187,0.448 1.864,0.448c0.667,0 1.335,-0.147 1.844,-0.44l21.545,-12.435c0.51,-0.293 0.766,-0.68 0.769,-1.07l0,0.674c-0.148,0.221 -0.371,0.42 -0.659,0.586Z" style="fill:#f193c5;fill-rule:nonzero;"/><path d="M601.354,243.392c1.018,0.594 2.688,0.598 3.708,0.008l21.545,-12.435c1.021,-0.589 1.026,-1.557 0.005,-2.15l-22.067,-12.823c-1.019,-0.593 -2.686,-0.597 -3.706,-0.007l-21.547,12.435c-1.021,0.589 -1.022,1.557 -0.005,2.15l22.067,12.822Z" style="fill:#f30082;fill-rule:nonzero;"/></g></g></g><g><g><path d="M600.634,150.779c0.002,-3.455 -0.137,-9.888 -2.786,-9.955c-2.648,-0.066 -4.687,2.662 -4.51,9.58c0.097,3.755 -0.187,9.091 0.485,12.157c0.565,2.582 1.993,3.225 3.031,3.264c2.269,0.084 3.775,-10.459 3.78,-15.046Z" style="fill:#eccdde;fill-rule:nonzero;"/><path d="M595.066,174.237c0,0 0.451,1.771 -0.378,5c-0.827,3.229 -1.504,4.353 -3.214,4.896c-1.71,0.542 -2.049,-0.954 -1.666,-2.286c0.378,-1.333 0.358,-1.677 0.358,-1.677c0,0 -0.752,1.832 -1.396,1.794c-0.646,-0.037 -0.021,-1.81 1.134,-3.75c1.155,-1.941 1.882,-2.935 1.882,-2.935l3.28,-1.042Z" style="fill:#f193c5;fill-rule:nonzero;"/><path d="M599.442,157.419c0,0 -1.61,16.133 -4.163,20.507c-0.413,0.705 -3.73,0.499 -4.671,-1.134c0.097,-0.812 0.902,-5.902 2.124,-11.829c1.223,-5.926 1.902,-8.944 1.902,-8.944c0,0 4.661,-2.29 4.808,1.4Z" style="fill:#eccdde;fill-rule:nonzero;"/></g><path d="M615.744,237.139c-6.821,3.929 -17.921,3.896 -24.795,-0.071c-6.87,-3.968 -6.914,-10.369 -0.092,-14.296c6.82,-3.928 17.921,-3.896 24.793,0.072c6.873,3.967 6.915,10.367 0.094,14.295Z" style="fill-opacity:0.2;fill-rule:nonzero;"/><g><path d="M615.587,230.214c0,0 1.918,0.281 2.326,2.151c0.404,1.873 -7.831,7.176 -12.229,6.146c-4.399,-1.03 3.336,-6.564 5.771,-7.362c2.435,-0.797 4.132,-0.935 4.132,-0.935Z" style="fill:#eccdde;fill-rule:nonzero;"/><path d="M600.453,221.204c0,0 1.922,0.281 2.326,2.152c0.406,1.873 -7.828,7.175 -12.229,6.146c-4.399,-1.029 3.336,-6.563 5.773,-7.362c2.432,-0.799 4.13,-0.936 4.13,-0.936Z" style="fill:#eccdde;fill-rule:nonzero;"/><path d="M614.966,179.816l-0.111,29.553c0,0 1.396,19.686 1.396,20.983c0,2.977 -4.925,3.343 -5.108,2.088c-0.183,-1.258 -4.309,-25.349 -4.309,-25.349l-2.421,-19.261l-1.621,15.124c0,0 -1.752,16.352 -1.883,18.676c-0.131,2.325 -4.901,4.035 -4.901,2.072c0,-1.961 -1.438,-48.018 -1.438,-48.018l20.396,4.132Z" style="fill:#f193c5;fill-rule:nonzero;"/><path d="M613.599,146.131c0,0 -13.152,-6.903 -16.494,-5.219c-3.34,1.686 -3.245,3.851 -3.435,12.333c-0.188,8.479 0.942,22.99 0.942,22.99c0,0 6.785,5.183 12.721,5.183c5.937,0 7.633,-1.602 7.633,-1.602c0,0 3.66,-31.283 -1.367,-33.685Z" style="fill:#fde8f3;fill-rule:nonzero;"/><path d="M617.196,156.039c-0.41,-3.43 -1.318,-9.798 -3.959,-9.548c-2.636,0.251 -4.332,3.203 -3.328,10.051c0.545,3.718 0.906,9.048 1.939,12.012c0.873,2.495 2.366,2.963 3.401,2.876c2.261,-0.189 2.49,-10.835 1.947,-15.391Z" style="fill:#eccdde;fill-rule:nonzero;"/><path d="M615.338,171.439c0,0 -7.812,2.6 -12.833,1.935c-0.81,-0.108 -1.9,-3.247 -0.759,-4.747c0.785,-0.223 5.792,-1.448 11.729,-2.61c2.004,-0.216 3.812,-0.801 3.812,-0.801c0,0 -0.162,5.719 -1.949,6.223Z" style="fill:#eccdde;fill-rule:nonzero;"/><path d="M607.756,137.414l0,6.267c0,0 -1.083,2.308 -3.72,1.791c-2.639,-0.519 -3.111,-3.627 -2.734,-5.276c0.378,-1.65 6.454,-2.782 6.454,-2.782Z" style="fill:#f193c5;fill-rule:nonzero;"/><path d="M596.027,130.517c0,0 -1.069,10.239 4.586,11.244c5.653,1.005 8.416,-3.706 8.605,-8.794c0.566,-6.471 -11.37,-12.627 -13.191,-2.45Z" style="fill:#f193c5;fill-rule:nonzero;"/><path d="M607.756,139.443c0,0 -0.992,-5.251 -2.237,-6.854c-1.249,-1.602 -1.249,-2.073 -1.249,-2.073c0,0 -3.109,2.355 -5.982,1.696c-2.874,-0.659 -3.802,-2.543 -3.331,-4.474c0.47,-1.933 5.343,-4.29 7.635,-4.29c2.291,0 7.853,2.073 7.853,8.623c0.328,4.382 -2.689,7.372 -2.689,7.372Z" style="fill:#842558;fill-rule:nonzero;"/><path d="M605.952,134.474c0,0 1.001,-2.612 2.01,-0.97c1.008,1.643 -0.222,3.043 -1.004,3.828c-0.787,0.785 -2.138,-1.036 -1.006,-2.858Z" style="fill:#f193c5;fill-rule:nonzero;"/><path d="M603.457,172.479c0,0 0.512,-1.037 -0.063,-3.48c-0.575,-2.444 -1.132,-3.426 -2.66,-4.362c-1.529,-0.937 -1.924,-0.045 -1.652,0.976c0.275,1.022 0.237,1.246 0.237,1.246c0,0 -0.57,-0.804 -0.97,-0.671c-0.399,0.131 -0.325,0.206 0.621,1.896c0.947,1.69 0.903,1.89 2.191,3.637c1.288,1.747 2.296,0.758 2.296,0.758Z" style="fill:#f193c5;fill-rule:nonzero;"/></g></g><g><g><path d="M455.514,250.942l-30.009,17.366c-1.344,0.781 -3.551,0.781 -4.902,0l-31.323,-18.078c-0.681,-0.394 -1.019,-0.911 -1.018,-1.429l-0.001,0.423c-0.002,0.52 0.338,1.037 1.019,1.43l31.322,18.079c1.352,0.78 3.56,0.78 4.903,0l30.007,-17.368c0.666,-0.388 1,-0.898 1.001,-1.41l0.001,-0.423c-0.001,0.511 -0.334,1.024 -1,1.41Z" style="fill:#2a49a7;fill-rule:nonzero;"/><path d="M455.497,248.104c1.352,0.781 1.36,2.059 0.018,2.839l-30.009,17.366c-1.344,0.781 -3.551,0.781 -4.902,0l-31.323,-18.078c-1.353,-0.781 -1.36,-2.058 -0.016,-2.84l30.006,-17.365c1.344,-0.781 3.551,-0.781 4.903,0l31.323,18.078Z" style="fill:#fff;fill-rule:nonzero;"/></g><g><path d="M446.812,246.347l0,3.209c0,0.391 -0.253,0.781 -0.767,1.078l-21.544,12.435c-1.021,0.588 -2.69,0.586 -3.709,-0.009l-22.069,-12.822c-0.482,-0.282 -0.736,-0.649 -0.758,-1.021c-0.002,-0.001 -0.002,-3.276 -0.002,-3.276l48.849,0.406Z" style="fill:#660036;fill-rule:nonzero;"/><path d="M446.155,247.605l-21.546,12.434c-0.523,0.304 -1.219,0.47 -1.953,0.47c-0.744,0 -1.446,-0.17 -1.973,-0.476l-22.068,-12.823c-0.286,-0.168 -0.506,-0.364 -0.651,-0.582l0,-0.685c-0.002,0.39 0.253,0.78 0.76,1.077l22.069,12.822c0.511,0.299 1.186,0.448 1.863,0.448c0.668,0 1.336,-0.146 1.846,-0.441l21.544,-12.434c0.511,-0.294 0.765,-0.681 0.767,-1.07l0,0.674c-0.147,0.221 -0.37,0.42 -0.658,0.586Z" style="fill:#f193c5;fill-rule:nonzero;"/><path d="M420.792,259.843c1.019,0.595 2.688,0.599 3.709,0.007l21.544,-12.434c1.021,-0.589 1.023,-1.557 0.005,-2.152l-22.067,-12.822c-1.019,-0.593 -2.688,-0.599 -3.706,-0.008l-21.548,12.436c-1.021,0.588 -1.023,1.557 -0.006,2.15l22.069,12.823Z" style="fill:#f30082;fill-rule:nonzero;"/></g></g><path d="M589.184,345.814l-43.135,-26.418l-0.862,1.408l43.135,26.418l0.862,-1.408Z" style="fill:#ea67ad;"/><g><g><path d="M626.442,354.262l-30.007,17.364c-1.344,0.782 -3.552,0.782 -4.904,0l-31.32,-18.077c-0.682,-0.393 -1.021,-0.91 -1.021,-1.429l-0.001,0.425c-0.001,0.517 0.338,1.036 1.02,1.429l31.321,18.078c1.354,0.779 3.56,0.779 4.904,0l30.007,-17.365c0.666,-0.39 1.001,-0.9 1.004,-1.411l0.001,-0.425c-0.001,0.512 -0.338,1.023 -1.004,1.411Z" style="fill:#a52aa7;fill-rule:nonzero;"/><path d="M626.425,351.423c1.353,0.778 1.36,2.059 0.017,2.839l-30.007,17.364c-1.344,0.782 -3.552,0.782 -4.904,0l-31.32,-18.077c-1.354,-0.78 -1.36,-2.058 -0.017,-2.838l30.007,-17.366c1.343,-0.781 3.549,-0.781 4.902,0l31.322,18.078Z" style="fill:#fff;fill-rule:nonzero;"/></g><g><path d="M617.743,344.953l0,7.922c0.001,0.392 -0.256,0.781 -0.769,1.077l-21.545,12.436c-1.021,0.589 -2.689,0.585 -3.709,-0.009l-22.065,-12.823c-0.486,-0.282 -0.739,-0.649 -0.763,-1.021c-0.001,-0.002 -0.001,-7.987 -0.001,-7.987l48.852,0.405Z" style="fill:#660036;fill-rule:nonzero;"/><path d="M617.083,346.213l-21.546,12.435c-0.523,0.301 -1.218,0.468 -1.954,0.468c-0.743,0 -1.442,-0.17 -1.973,-0.479l-22.067,-12.82c-0.284,-0.167 -0.507,-0.366 -0.652,-0.583l0,-0.683c-0.001,0.39 0.253,0.778 0.764,1.076l22.065,12.824c0.513,0.297 1.189,0.446 1.863,0.446c0.669,0 1.338,-0.147 1.846,-0.438l21.545,-12.436c0.511,-0.296 0.765,-0.683 0.769,-1.071l0,0.676c-0.15,0.22 -0.37,0.416 -0.66,0.585Z" style="fill:#f193c5;fill-rule:nonzero;"/><path d="M591.72,358.452c1.02,0.593 2.688,0.595 3.709,0.008l21.545,-12.436c1.023,-0.59 1.024,-1.559 0.007,-2.151l-22.069,-12.823c-1.019,-0.595 -2.686,-0.598 -3.707,-0.007l-21.547,12.434c-1.021,0.589 -1.021,1.557 -0.003,2.151l22.065,12.824Z" style="fill:#f30082;fill-rule:nonzero;"/></g></g><g><g><path d="M427.274,164.711c-0.004,-3.455 0.135,-9.888 2.784,-9.954c2.649,-0.067 4.686,2.661 4.511,9.578c-0.096,3.756 0.185,9.091 -0.487,12.157c-0.565,2.582 -1.993,3.225 -3.03,3.264c-2.268,0.085 -3.772,-10.457 -3.778,-15.045Z" style="fill:#b8347a;fill-rule:nonzero;"/><path d="M432.841,188.168c0,0 -0.454,1.772 0.376,5.002c0.827,3.229 1.507,4.353 3.213,4.895c1.71,0.543 2.052,-0.953 1.671,-2.285c-0.383,-1.333 -0.361,-1.678 -0.361,-1.678c0,0 0.751,1.832 1.396,1.794c0.646,-0.037 0.022,-1.81 -1.134,-3.75c-1.156,-1.941 -1.879,-2.936 -1.879,-2.936l-3.282,-1.042Z" style="fill:#f193c5;fill-rule:nonzero;"/><path d="M428.464,171.351c0,0 1.609,16.133 4.163,20.506c0.413,0.705 3.729,0.498 4.672,-1.134c-0.1,-0.811 -0.902,-5.901 -2.126,-11.829c-1.22,-5.925 -1.901,-8.944 -1.901,-8.944c0,0 -4.662,-2.289 -4.808,1.401Z" style="fill:#b8347a;fill-rule:nonzero;"/></g><path d="M409.161,252.934c6.766,3.889 17.783,3.845 24.606,-0.095c6.827,-3.94 6.873,-10.285 0.106,-14.173c-6.765,-3.888 -17.781,-3.845 -24.606,0.095c-6.823,3.94 -6.872,10.285 -0.106,14.173Z" style="fill-opacity:0.2;fill-rule:nonzero;"/><g><path d="M412.319,244.146c0,0 -1.919,0.283 -2.325,2.153c-0.406,1.872 7.829,7.174 12.229,6.145c4.396,-1.029 -3.339,-6.563 -5.771,-7.361c-2.437,-0.799 -4.133,-0.937 -4.133,-0.937Z" style="fill:#a72a6d;fill-rule:nonzero;"/><path d="M427.453,235.135c0,0 -1.92,0.283 -2.324,2.153c-0.407,1.873 7.829,7.175 12.229,6.146c4.396,-1.031 -3.339,-6.564 -5.771,-7.362c-2.438,-0.798 -4.134,-0.937 -4.134,-0.937Z" style="fill:#a72a6d;fill-rule:nonzero;"/><path d="M412.941,193.749l0.11,29.553c0,0 -1.397,19.688 -1.397,20.983c0,2.978 4.927,3.343 5.109,2.085c0.185,-1.257 4.308,-25.347 4.308,-25.347l2.422,-19.262l1.62,15.124c0,0 1.754,16.353 1.886,18.676c0.132,2.326 4.899,4.037 4.899,2.075c0,-1.963 1.437,-48.02 1.437,-48.02l-20.394,4.133Z" style="fill:#edcdde;fill-rule:nonzero;"/><path d="M414.308,160.062c0,0 13.153,-6.9 16.493,-5.217c3.341,1.684 3.246,3.852 3.433,12.331c0.189,8.481 -0.941,22.992 -0.941,22.992c0,0 -6.782,5.182 -12.719,5.182c-5.938,0 -7.633,-1.602 -7.633,-1.602c0,0 -3.66,-31.283 1.367,-33.686Z" style="fill:#eb3c99;fill-rule:nonzero;"/><path d="M410.711,169.972c0.411,-3.43 1.318,-9.8 3.957,-9.548c2.639,0.252 4.333,3.204 3.328,10.05c-0.545,3.718 -0.905,9.047 -1.94,12.012c-0.869,2.495 -2.364,2.962 -3.397,2.876c-2.263,-0.189 -2.493,-10.835 -1.948,-15.39Z" style="fill:#b8347a;fill-rule:nonzero;"/><path d="M413.425,193.929c0,0 -0.66,1.704 -0.227,5.011c0.437,3.305 0.974,4.5 2.605,5.245c1.631,0.745 2.148,-0.702 1.931,-2.069c-0.219,-1.369 -0.156,-1.709 -0.156,-1.709c0,0 0.566,0.934 1.025,0.583c0.459,-0.349 0.384,-0.427 -0.53,-2.494c-0.914,-2.065 -1.516,-3.139 -1.516,-3.139l-3.132,-1.428Z" style="fill:#f193c5;fill-rule:nonzero;"/><path d="M411.098,176.707c0,0 -0.338,16.209 1.672,20.858c0.326,0.749 3.644,0.941 4.776,-0.566c0,-0.816 -0.188,-5.967 -0.693,-11.998c-0.501,-6.031 -0.815,-9.108 -0.815,-9.108c0,0 -4.355,-2.831 -4.94,0.814Z" style="fill:#b8347a;fill-rule:nonzero;"/><path d="M420.148,151.347l0,6.266c0,0 1.084,2.309 3.723,1.792c2.64,-0.519 3.11,-3.628 2.731,-5.278c-0.375,-1.649 -6.454,-2.78 -6.454,-2.78Z" style="fill:#f193c5;fill-rule:nonzero;"/><path d="M431.88,144.449c0,0 1.067,10.239 -4.585,11.244c-5.654,1.004 -8.418,-3.707 -8.607,-8.795c-0.564,-6.469 11.37,-12.626 13.192,-2.449Z" style="fill:#f193c5;fill-rule:nonzero;"/><path d="M420.148,153.375c0,0 0.993,-5.251 2.24,-6.854c1.247,-1.601 1.247,-2.073 1.247,-2.073c0,0 3.11,2.356 5.983,1.696c2.875,-0.659 3.803,-2.543 3.331,-4.475c-0.472,-1.933 -5.344,-4.289 -7.637,-4.289c-2.291,0 -7.85,2.074 -7.85,8.622c-0.328,4.384 2.686,7.373 2.686,7.373Z" style="fill:#a72a6d;fill-rule:nonzero;"/><path d="M421.955,148.406c0,0 -1.001,-2.611 -2.008,-0.969c-1.012,1.642 0.218,3.043 1.004,3.828c0.784,0.785 2.134,-1.037 1.004,-2.859Z" style="fill:#f193c5;fill-rule:nonzero;"/></g></g><g><path d="M583.438,348.712c5.284,3.05 13.88,3.036 19.198,-0.035c5.316,-3.069 5.342,-8.032 0.058,-11.083c-5.284,-3.051 -13.876,-3.036 -19.195,0.036c-5.319,3.068 -5.346,8.031 -0.061,11.082Z" style="fill-opacity:0.2;fill-rule:nonzero;"/><path d="M589.217,232.651c0,0 -2.363,1.178 -2.363,6.325c0,5.147 0.515,8.873 2.646,9.621c2.134,0.749 -0.283,-15.946 -0.283,-15.946Z" style="fill:#f193c5;fill-rule:nonzero;"/><path d="M597.196,334.245c0.125,-4.824 -0.673,-14.151 -0.673,-14.151l-0.368,-10.001l-1.471,-19.857c0,0 -0.053,0.448 -0.142,1.203c-0.063,-0.673 -0.151,-1.347 -0.263,-2.015c-0.336,-2.021 -0.923,-3.981 -1.686,-5.88l11.328,0c0.053,1.607 -0.14,3.102 -0.632,4.265c-1.614,3.823 -2.062,12.724 -2.062,17.137c0,4.411 1.194,7.549 1.271,11.299c0.071,3.752 -0.608,8.408 -1.123,10.982c-0.515,2.575 -0.012,7.726 0.111,9.231c0.12,1.505 -13.054,8.348 -8.079,2.182c0.215,-0.265 3.789,-4.395 3.789,-4.395Z" style="fill:#f193c5;fill-rule:nonzero;"/><g><path d="M593.333,338.639c0,0 -3.357,0.241 -2.229,1.565c1.129,1.323 2.528,2.793 4.438,2.941c1.912,0.147 3.666,-1.987 5.033,-2.723c1.365,-0.734 2.026,-1.322 1.807,-2.425c-0.222,-1.104 0.042,-3.123 -2.427,-2.134c-1.82,0.73 -1.667,2.895 -2.206,3.164c-1.534,0.767 -6.876,2.525 -4.416,-0.388Z" style="fill:#a72a6d;fill-rule:nonzero;"/><path d="M602.253,339.084c0,0 -0.655,0.312 -0.889,2.001c-0.232,1.692 0,3.311 0,3.311l-1.629,0l0,-4.926l2.518,-0.386Z" style="fill:#a72a6d;fill-rule:nonzero;"/></g><path d="M586.447,343.04c0.662,0.073 3.017,-4.78 3.017,-4.78l-0.882,-16.988c0,0 -0.416,-8.359 -1.031,-10.812c-6.545,-21.18 -0.146,-35.595 0.367,-39.197c0.518,-3.606 -1.838,-5.885 -2.424,-9.782c-0.591,-3.898 3.088,-8.458 3.088,-8.458c0,0 8.016,-5.149 13.604,-4.339c5.591,0.808 1.177,11.179 0.074,13.532c-1.103,2.353 -2.574,7.5 -1.911,10.957c2.868,3.457 4.486,10.812 2.871,14.635c-1.087,2.573 -1.646,7.439 -1.894,11.693l-5.354,0l0,0.735l-0.622,0l-0.739,-10.002c0,0 -1.163,15.764 -1.09,18.045c0.073,2.279 1.176,8.49 1.176,11.948c0,3.455 -0.749,7.661 -0.819,9.939c-0.076,2.281 -0.296,6.326 -0.296,6.326l0.325,5.883c0,0 -2.165,-0.441 -2.312,0.148c-0.147,0.588 -1.69,3.529 -1.69,3.529l-2.574,0c0,0 -1.911,-2.133 -2.707,-2.206c-0.796,-0.072 1.161,-0.88 1.823,-0.806Z" style="fill:#f193c5;fill-rule:nonzero;"/><path d="M604.613,250.936c0,0 -0.171,-2.186 -2.189,-1.763c-2.019,0.423 -3.714,3.329 -3.688,8.912c0.025,5.585 0.417,11 0.675,11.427c0.259,0.427 3.172,5.672 3.99,0.313c0.82,-5.359 2.204,-14.603 1.212,-18.889Z" style="fill:#f193c5;fill-rule:nonzero;"/><path d="M601.067,281.367c0,0 0.313,1.207 -0.25,3.409c-0.562,2.204 -1.021,2.97 -2.185,3.342c-1.166,0.371 -1.399,-0.648 -1.141,-1.556c0.26,-0.908 0.242,-1.145 0.242,-1.145c0,0 -0.459,0.586 -0.741,0.312c-0.281,-0.272 -0.223,-0.32 0.563,-1.646c0.784,-1.324 1.277,-2 1.277,-2l2.235,-0.716Z" style="fill:#eccdde;fill-rule:nonzero;"/><path d="M598.999,270.085l-0.9,13.477c0,0 0.535,1.565 2.47,0.132c1.934,-1.434 2.861,-14.779 2.861,-14.779c0,0 -3.501,-3.894 -4.431,1.17Z" style="fill:#f193c5;fill-rule:nonzero;"/><path d="M602.185,248.684c-5.588,-0.81 -13.604,4.339 -13.604,4.339c0,0 -3.679,4.559 -3.088,8.458c0.586,3.896 2.941,6.176 2.424,9.782c-0.197,1.388 -1.268,4.381 -2.138,8.75l17.612,0c-0.583,-2.631 -1.67,-5.185 -3.044,-6.84c-0.663,-3.457 0.809,-8.604 1.911,-10.957c1.104,-2.353 5.518,-12.724 -0.073,-13.532Z" style="fill:#edcdde;fill-rule:nonzero;"/><path d="M587.008,274.864c0,0 0.762,2.647 4.808,2.429c4.045,-0.221 8.532,-4.12 8.532,-4.12c0,0 3.91,3.824 3.896,10.151c-0.007,4.595 -3.5,15.708 -2.499,22.797c-2.206,2.942 -6.545,5.147 -10.223,5.295c-3.677,0.147 -5.812,-2.941 -5.812,-2.941c0,0 -2.646,-11.031 -2.057,-20.37c0.588,-9.342 2.825,-11.308 3.355,-13.241Z" style="fill:url(#_Linear1);fill-rule:nonzero;"/><g><path d="M595.583,343.39c0,0 -0.655,0.312 -0.887,2.001c-0.232,1.693 0,3.312 0,3.312l-1.632,0l0,-4.929l2.519,-0.384Z" style="fill:#a52aa7;fill-rule:nonzero;"/><clipPath id="_clip2"><path d="M595.583,343.39c0,0 -0.655,0.312 -0.887,2.001c-0.232,1.693 0,3.312 0,3.312l-1.632,0l0,-4.929l2.519,-0.384Z" clip-rule="nonzero"/></clipPath><g clip-path="url(#_clip2)"><path d="M586.665,342.944c0,0 -3.358,0.242 -2.228,1.565c1.127,1.324 2.526,2.796 4.438,2.941c1.911,0.146 3.666,-1.984 5.032,-2.72c1.367,-0.736 2.03,-1.324 1.809,-2.428c-0.222,-1.102 -0.516,-2.574 -2.429,-2.132c-1.91,0.439 -1.666,2.891 -2.206,3.162c-1.536,0.768 -6.876,2.525 -4.416,-0.388Z" style="fill:#a72a6d;fill-rule:nonzero;"/></g></g><g><path d="M591.07,255.354c0,0 0.609,-2.105 -1.431,-2.42c-2.037,-0.313 -4.647,1.811 -6.584,7.048c-1.938,5.237 -3.476,10.444 -3.382,10.935c0.091,0.492 -0.007,4.733 3.626,1.695c4.158,-3.479 7.195,-12.9 7.771,-17.258Z" style="fill:#edcdde;fill-rule:nonzero;"/><path d="M573.665,261.878c0,0 -0.895,-0.969 -1.476,-3.301c-0.581,-2.332 -0.535,-3.276 0.363,-4.206c0.899,-0.931 1.628,-0.099 1.841,0.877c0.214,0.974 0.347,1.188 0.347,1.188c0,0 0.134,-0.777 0.536,-0.663c0.399,0.112 0.368,0.186 0.299,1.813c-0.067,1.627 -0.185,2.506 -0.185,2.506l-1.725,1.786Z" style="fill:#f193c5;fill-rule:nonzero;"/><path d="M583.34,270.251l-8.102,-10.81c0,0 -1.427,-0.836 -1.958,1.511c-0.533,2.348 6.984,12.296 6.984,12.296c0,0 3.723,-1.498 3.076,-2.997Z" style="fill:#edcdde;fill-rule:nonzero;"/></g><path d="M587.699,233.68c0,0 2.868,-2.5 6.69,-2.426c3.826,0.074 8.092,1.912 8.458,9.045c0.369,7.133 0.141,19.874 0.141,19.874c0,0 -5.809,3.327 -9.045,2.729c-3.237,-0.597 -5.327,-2.366 -5.327,-2.366c0,0 0.627,-22.589 -0.917,-26.856Z" style="fill:#a72a6d;fill-rule:nonzero;"/></g><g><path d="M394.518,331.158c-5.285,3.051 -13.879,3.033 -19.195,-0.034c-5.317,-3.071 -5.346,-8.032 -0.063,-11.083c5.286,-3.053 13.881,-3.036 19.198,0.036c5.319,3.067 5.344,8.031 0.06,11.081Z" style="fill:#f193c5;fill-opacity:0.2;fill-rule:nonzero;"/><path d="M388.738,215.097c0,0 2.365,1.177 2.365,6.325c0,5.147 -0.516,8.874 -2.647,9.622c-2.133,0.748 0.282,-15.947 0.282,-15.947Z" style="fill:#ef93f1;fill-rule:nonzero;"/><path d="M380.762,316.691c-0.128,-4.824 0.671,-14.151 0.671,-14.151l0.366,-10.003l1.473,-19.855c0,0 0.053,0.444 0.14,1.202c0.066,-0.672 0.153,-1.345 0.265,-2.015c0.335,-2.019 0.923,-3.982 1.687,-5.881l-11.329,0c-0.053,1.61 0.14,3.103 0.631,4.268c1.614,3.823 2.063,12.722 2.063,17.135c0,4.412 -1.196,7.55 -1.269,11.3c-0.074,3.752 0.606,8.408 1.121,10.983c0.514,2.575 0.009,7.725 -0.111,9.229c-0.121,1.504 13.055,8.347 8.079,2.182c-0.216,-0.264 -3.787,-4.394 -3.787,-4.394Z" style="fill:#f193c5;fill-rule:nonzero;"/><g><path d="M384.622,321.084c0,0 3.358,0.24 2.229,1.564c-1.129,1.324 -2.526,2.796 -4.438,2.941c-1.913,0.147 -3.667,-1.985 -5.033,-2.721c-1.365,-0.734 -2.027,-1.323 -1.808,-2.427c0.222,-1.103 -0.042,-3.123 2.428,-2.133c1.821,0.731 1.669,2.895 2.206,3.164c1.535,0.769 6.877,2.526 4.416,-0.388Z" style="fill:#a72a6d;fill-rule:nonzero;"/><path d="M375.703,321.531c0,0 0.655,0.312 0.887,2c0.232,1.693 0,3.311 0,3.311l1.631,0l0,-4.926l-2.518,-0.385Z" style="fill:#a72a6d;fill-rule:nonzero;"/></g><path d="M391.508,325.485c-0.661,0.071 -3.016,-4.781 -3.016,-4.781l0.883,-16.987c0,0 0.415,-8.36 1.03,-10.813c6.545,-21.18 0.146,-35.594 -0.369,-39.196c-0.513,-3.604 1.84,-5.885 2.429,-9.783c0.589,-3.897 -3.09,-8.457 -3.09,-8.457c0,0 -8.017,-5.148 -13.605,-4.339c-5.59,0.81 -1.177,11.179 -0.074,13.531c1.104,2.355 2.575,7.503 1.914,10.959c-2.871,3.457 -4.486,10.811 -2.872,14.636c1.087,2.573 1.645,7.438 1.893,11.693l5.353,0l0,0.734l0.621,0l0.742,-10.001c0,0 1.163,15.765 1.088,18.043c-0.072,2.28 -1.173,8.491 -1.173,11.948c0,3.455 0.746,7.661 0.818,9.942c0.074,2.28 0.295,6.325 0.295,6.325l-0.325,5.881c0,0 2.164,-0.439 2.311,0.15c0.147,0.585 1.692,3.527 1.692,3.527l2.573,0c0,0 1.911,-2.13 2.708,-2.205c0.794,-0.072 -1.165,-0.88 -1.826,-0.807Z" style="fill:#f193c5;fill-rule:nonzero;"/><path d="M373.345,233.382c0,0 0.17,-2.185 2.187,-1.762c2.021,0.422 3.713,3.327 3.688,8.913c-0.021,5.583 -0.415,10.999 -0.673,11.427c-0.258,0.427 -3.174,5.671 -3.992,0.313c-0.821,-5.361 -2.202,-14.607 -1.21,-18.891Z" style="fill:#f193c5;fill-rule:nonzero;"/><path d="M376.888,263.815c0,0 -0.311,1.205 0.251,3.408c0.561,2.201 1.021,2.969 2.186,3.338c1.166,0.374 1.398,-0.646 1.14,-1.553c-0.259,-0.911 -0.244,-1.146 -0.244,-1.146c0,0 0.46,0.586 0.742,0.313c0.282,-0.274 0.224,-0.32 -0.562,-1.645c-0.785,-1.324 -1.277,-2.003 -1.277,-2.003l-2.236,-0.712Z" style="fill:#eccdde;fill-rule:nonzero;"/><path d="M378.956,252.531l0.903,13.477c0,0 -0.537,1.563 -2.471,0.131c-1.934,-1.434 -2.862,-14.777 -2.862,-14.777c0,0 3.499,-3.894 4.43,1.169Z" style="fill:#f193c5;fill-rule:nonzero;"/><path d="M375.77,231.129c5.589,-0.809 13.605,4.339 13.605,4.339c0,0 3.679,4.56 3.09,8.457c-0.589,3.898 -2.941,6.179 -2.429,9.783c0.198,1.386 1.272,4.382 2.14,8.75l-17.612,0c0.582,-2.629 1.67,-5.183 3.046,-6.838c0.661,-3.456 -0.811,-8.604 -1.914,-10.959c-1.103,-2.353 -5.516,-12.723 0.074,-13.532Z" style="fill:url(#_Linear3);fill-rule:nonzero;"/><path d="M390.949,257.309c0,0 -0.764,2.649 -4.811,2.428c-4.044,-0.222 -8.528,-4.118 -8.528,-4.118c0,0 -3.911,3.824 -3.899,10.148c0.009,4.599 3.502,15.709 2.501,22.799c2.206,2.941 6.546,5.146 10.223,5.293c3.677,0.148 5.81,-2.94 5.81,-2.94c0,0 2.648,-11.031 2.061,-20.371c-0.592,-9.34 -2.828,-11.305 -3.357,-13.239Z" style="fill:url(#_Linear4);fill-rule:nonzero;"/><g><path d="M391.292,325.391c0,0 3.358,0.239 2.229,1.564c-1.129,1.324 -2.526,2.796 -4.44,2.941c-1.91,0.148 -3.663,-1.984 -5.03,-2.72c-1.365,-0.735 -2.028,-1.325 -1.808,-2.428c0.22,-1.104 0.516,-2.574 2.427,-2.134c1.912,0.441 1.668,2.894 2.205,3.162c1.535,0.769 6.876,2.527 4.417,-0.385Z" style="fill:#a72a6d;fill-rule:nonzero;"/><path d="M382.373,325.835c0,0 0.655,0.312 0.889,2.001c0.231,1.693 0,3.312 0,3.312l1.629,0l0,-4.928l-2.518,-0.385Z" style="fill:#a72a6d;fill-rule:nonzero;"/></g><path d="M390.257,216.127c0,0 -2.868,-2.501 -6.691,-2.428c-3.825,0.075 -8.091,1.914 -8.458,9.047c-0.369,7.133 1.251,9.781 1.251,9.781c0,0 5.811,3.326 9.046,2.729c3.235,-0.597 5.325,-2.364 5.325,-2.364c0,0 -2.017,-12.499 -0.473,-16.765Z" style="fill:#a72a6d;fill-rule:nonzero;"/><g><path d="M386.888,237.799c0,0 -0.611,-2.106 1.43,-2.418c2.038,-0.315 4.645,1.809 6.584,7.047c1.938,5.237 3.475,10.444 3.381,10.935c-0.09,0.49 0.007,4.734 -3.627,1.695c-4.156,-3.479 -7.192,-12.899 -7.768,-17.259Z" style="fill:#edcdde;fill-rule:nonzero;"/><path d="M404.291,244.324c0,0 0.895,-0.968 1.475,-3.3c0.581,-2.333 0.537,-3.278 -0.361,-4.208c-0.899,-0.929 -1.628,-0.097 -1.841,0.878c-0.214,0.975 -0.346,1.188 -0.346,1.188c0,0 -0.136,-0.776 -0.535,-0.664c-0.399,0.114 -0.37,0.188 -0.302,1.815c0.067,1.627 0.188,2.504 0.188,2.504l1.722,1.787Z" style="fill:#f193c5;fill-rule:nonzero;"/><path d="M394.617,252.698l8.1,-10.812c0,0 1.428,-0.835 1.958,1.511c0.533,2.349 -6.983,12.295 -6.983,12.295c0,0 -3.721,-1.496 -3.075,-2.994Z" style="fill:#edcdde;fill-rule:nonzero;"/></g></g><g><g><path d="M574.729,249.897l0,52.231c0.003,1.179 -0.767,2.357 -2.309,3.246l-64.88,37.446c-3.075,1.773 -8.099,1.763 -11.165,-0.024l-66.448,-38.61c-1.461,-0.852 -2.223,-1.959 -2.288,-3.078c-0.007,-0.002 -0.007,-52.43 -0.007,-52.43l147.097,1.219Z" style="fill:#f193c5;fill-rule:nonzero;"/><path d="M574.729,249.131l0,52.231c0.003,1.178 -0.767,2.356 -2.309,3.248l-64.881,37.442c-3.075,1.775 -8.099,1.766 -11.165,-0.024l-66.448,-38.61c-1.461,-0.852 -2.223,-1.959 -2.288,-3.077c-0.007,-0.002 -0.007,-52.43 -0.007,-52.43l147.098,1.22Z" style="fill:#eccdde;fill-rule:nonzero;"/><path d="M572.748,252.922l-64.88,37.443c-1.577,0.909 -3.666,1.41 -5.883,1.41c-2.241,0 -4.351,-0.509 -5.941,-1.437l-66.449,-38.609c-0.857,-0.501 -1.519,-1.097 -1.963,-1.753l0,-2.058c-0.002,1.173 0.764,2.349 2.295,3.244l66.448,38.609c1.542,0.898 3.578,1.349 5.61,1.349c2.014,0 4.024,-0.439 5.555,-1.324l64.881,-37.442c1.529,-0.884 2.299,-2.052 2.309,-3.223l0,2.034c-0.449,0.659 -1.116,1.257 -1.982,1.757Z" style="fill:#fff;fill-rule:nonzero;"/><path d="M496.375,289.772c3.066,1.79 8.09,1.801 11.165,0.024l64.881,-37.442c3.071,-1.776 3.079,-4.691 0.013,-6.478l-66.449,-38.611c-3.066,-1.788 -8.089,-1.799 -11.163,-0.024l-64.881,37.443c-3.073,1.774 -3.08,4.69 -0.014,6.479l66.448,38.609Z" style="fill:#f193c5;fill-rule:nonzero;"/><path d="M497.789,277.647c2.164,1.263 5.711,1.271 7.882,0.019l45.809,-26.44c2.171,-1.251 2.177,-3.311 0.014,-4.574l-46.922,-27.261c-2.164,-1.263 -5.711,-1.271 -7.882,-0.018l-45.81,26.439c-2.171,1.253 -2.176,3.311 -0.01,4.574l46.919,27.261Z" style="fill:#f193c5;fill-rule:nonzero;"/></g><g><g><path d="M512.972,218.706c6.548,3.779 6.585,9.915 0.076,13.696c-6.5,3.78 -17.095,3.778 -23.64,-0.003c-6.548,-3.778 -6.586,-9.914 -0.082,-13.693c6.507,-3.784 17.101,-3.781 23.646,0Z" style="fill:#f193c5;fill-rule:nonzero;"/><path d="M521.31,228.824c-0.02,-1.11 -0.161,-2.077 -0.404,-2.824c-0.244,-0.754 -0.315,-0.979 -0.717,-1.803c-0.208,-0.43 -0.559,-0.967 -0.824,-1.366c-0.172,-0.264 -0.839,-1.211 -2.134,-2.354c-0.486,-0.428 -1.193,-0.931 -1.722,-1.305c-0.278,-0.198 -0.678,-0.419 -0.968,-0.597c-0.102,-0.062 -1.044,-0.619 -2.457,-1.21c-1.134,-0.476 -2.127,-0.771 -2.605,-0.911c-2.444,-0.726 -4.756,-0.946 -5.515,-1.019c-0.659,-0.064 -3.012,-0.248 -5.688,0.001c-2.046,0.19 -3.933,0.543 -5.607,1.05c-3.667,1.11 -6.469,2.72 -8.563,4.923c-0.674,0.707 -1.613,1.881 -2.275,3.46c-0.376,0.899 -0.537,1.68 -0.543,1.712c-0.19,0.936 -0.2,1.164 -0.238,2.124l-0.002,0.803c0.014,1.171 0.145,2.26 0.729,3.762c0.247,0.632 0.833,1.892 1.997,3.23c1.563,1.797 3.301,2.821 4.043,3.258c2.414,1.422 5.084,2.127 5.11,2.134c1.472,0.385 1.97,0.514 2.687,0.629c0.416,0.067 0.965,0.172 1.384,0.219c1.854,0.208 1.854,0.208 2.813,0.252c3.122,0.14 5.756,-0.235 7.05,-0.472c2.678,-0.491 4.617,-1.243 5.532,-1.646c0.685,-0.302 1.59,-0.729 2.229,-1.119c0.516,-0.313 1.187,-0.757 1.682,-1.104c0.257,-0.181 0.582,-0.443 0.817,-0.652c0.677,-0.604 1.05,-0.935 1.812,-1.863c0.507,-0.616 1.015,-1.474 1.142,-1.728c0.407,-0.811 0.671,-1.375 0.93,-2.38c0.076,-0.292 0.16,-0.685 0.196,-0.984c0.029,-0.231 0.053,-0.506 0.073,-0.776c0.019,-0.215 0.034,-0.428 0.035,-0.642l0.001,-0.802Zm-31.983,-10.118c6.507,-3.783 17.101,-3.78 23.646,0c6.548,3.779 6.585,9.915 0.076,13.696c-6.5,3.78 -17.095,3.779 -23.64,-0.003c-6.548,-3.778 -6.586,-9.915 -0.082,-13.693Z" style="fill:#fde8f3;fill-rule:nonzero;"/></g><g><path d="M520.066,208.127c1.146,0.962 2.292,1.923 3.441,2.883c7.376,6.18 6.345,14.706 -3.106,20.198c-10.661,6.196 -28.008,6.201 -38.741,0.004c-9.583,-5.533 -10.649,-14.137 -3.176,-20.327c0.068,0.005 0.12,-0.101 0.172,-0.143c0.104,-0.085 0.243,-0.202 0.346,-0.287c0.405,-0.334 0.806,-0.668 1.212,-1.002c0.103,-0.086 0.242,-0.201 0.346,-0.287c0.051,-0.042 0.12,-0.1 0.171,-0.143c0.104,-0.085 0.243,-0.2 0.346,-0.287c0.054,-0.042 0.121,-0.1 0.174,-0.142c0.104,-0.087 0.243,-0.201 0.346,-0.287c0.051,-0.043 0.121,-0.101 0.173,-0.144c0.051,-0.043 0.12,-0.1 0.172,-0.143c-6.328,5.242 -5.424,12.532 2.69,17.213c9.081,5.247 23.781,5.243 32.806,-0.003c7.999,-4.647 8.872,-11.87 2.628,-17.103Z" style="fill:#ed1287;fill-rule:nonzero;"/><path d="M520.078,199.513c1.147,0.96 2.296,1.92 3.442,2.88c7.394,6.183 6.367,14.716 -3.091,20.213c-10.664,6.198 -28.015,6.201 -38.749,0.003c-9.592,-5.537 -10.652,-14.149 -3.163,-20.341c0.105,-0.086 0.242,-0.201 0.348,-0.286c0.052,-0.043 0.121,-0.101 0.172,-0.144c0.104,-0.087 0.241,-0.201 0.347,-0.286c0.053,-0.043 0.122,-0.1 0.173,-0.143c0.104,-0.086 0.242,-0.2 0.347,-0.287c0.052,-0.042 0.119,-0.1 0.172,-0.143c0.104,-0.086 0.243,-0.2 0.348,-0.285c0.102,-0.086 0.24,-0.2 0.343,-0.286c0.106,-0.086 0.243,-0.201 0.348,-0.287c0.103,-0.086 0.243,-0.2 0.345,-0.286c0.052,-0.042 0.122,-0.1 0.174,-0.143c0.103,-0.086 0.243,-0.2 0.346,-0.287c-6.34,5.243 -5.442,12.539 2.679,17.224c9.08,5.247 23.779,5.244 32.805,-0.004c8.002,-4.648 8.872,-11.877 2.614,-17.112Z" style="fill:#ed1287;fill-rule:nonzero;"/><path d="M523.684,220.326c-1.165,0.992 -2.329,1.983 -3.491,2.974c-0.801,0.681 -1.718,1.328 -2.757,1.932c-9.024,5.246 -23.725,5.25 -32.806,0.003c-1.102,-0.635 -2.071,-1.319 -2.906,-2.038c-1.158,-0.998 -2.315,-1.997 -3.473,-2.995c0.985,0.851 2.129,1.657 3.429,2.408c10.734,6.197 28.085,6.194 38.749,-0.003c1.228,-0.713 2.312,-1.478 3.255,-2.281Z" style="fill:#a80d60;fill-rule:nonzero;"/><path d="M520.247,190.956c1.144,0.975 2.29,1.949 3.433,2.924c7.251,6.176 6.182,14.642 -3.222,20.107c-10.667,6.199 -28.02,6.203 -38.755,0.003c-9.537,-5.505 -10.642,-14.05 -3.297,-20.235c1.155,-0.963 2.302,-1.937 3.451,-2.904c-6.229,5.243 -5.292,12.494 2.791,17.16c9.102,5.256 23.824,5.252 32.866,-0.003c7.973,-4.634 8.88,-11.817 2.733,-17.052Z" style="fill:#ed1287;fill-rule:nonzero;"/><path d="M523.745,211.678c-1.166,0.999 -2.333,1.998 -3.502,2.996c-0.804,0.688 -1.732,1.343 -2.782,1.953c-9.025,5.248 -23.725,5.251 -32.805,0.004c-1.114,-0.642 -2.091,-1.333 -2.934,-2.062c-1.161,-1.005 -2.322,-2.01 -3.484,-3.016c0.994,0.86 2.149,1.678 3.465,2.436c10.735,6.2 28.088,6.196 38.755,-0.003c1.239,-0.72 2.336,-1.494 3.287,-2.308Z" style="fill:#a80d60;fill-rule:nonzero;"/><path d="M523.806,203.036c-1.158,0.996 -2.316,1.992 -3.477,2.988c-0.813,0.699 -1.75,1.364 -2.815,1.982c-9.042,5.256 -23.765,5.26 -32.866,0.003c-1.125,-0.65 -2.115,-1.351 -2.963,-2.09c-0.066,-0.022 -0.122,-0.105 -0.175,-0.15c-0.051,-0.045 -0.119,-0.105 -0.171,-0.15c-0.104,-0.09 -0.243,-0.21 -0.346,-0.301c-0.104,-0.091 -0.245,-0.21 -0.347,-0.301c-0.052,-0.045 -0.122,-0.104 -0.173,-0.15c-0.104,-0.09 -0.241,-0.21 -0.347,-0.301c-0.052,-0.045 -0.122,-0.105 -0.172,-0.151c-0.104,-0.09 -0.241,-0.21 -0.347,-0.301c-0.052,-0.044 -0.12,-0.104 -0.172,-0.149c-0.104,-0.09 -0.242,-0.211 -0.348,-0.301c-0.051,-0.046 -0.119,-0.106 -0.172,-0.151c-0.104,-0.09 -0.241,-0.211 -0.348,-0.301c-0.051,-0.046 -0.119,-0.106 -0.172,-0.151c-0.052,-0.045 -0.119,-0.104 -0.171,-0.15c1.001,0.872 2.167,1.698 3.497,2.466c10.738,6.201 28.092,6.197 38.76,-0.003c1.259,-0.731 2.367,-1.514 3.325,-2.338Z" style="fill:#a80d60;fill-rule:nonzero;"/><path d="M520.119,182.267c1.15,0.959 2.3,1.919 3.448,2.879c7.406,6.186 6.384,14.726 -3.083,20.227c-10.668,6.2 -28.021,6.205 -38.76,0.003c-9.597,-5.54 -10.658,-14.161 -3.155,-20.355c0.104,-0.086 0.242,-0.2 0.348,-0.286c0.052,-0.042 0.12,-0.1 0.172,-0.144c0.104,-0.085 0.243,-0.199 0.348,-0.285c0.052,-0.043 0.12,-0.1 0.172,-0.143c0.106,-0.085 0.244,-0.201 0.348,-0.286c0.05,-0.043 0.12,-0.1 0.172,-0.143c0.105,-0.086 0.243,-0.201 0.347,-0.287c0.104,-0.085 0.243,-0.2 0.347,-0.285c0.104,-0.086 0.241,-0.201 0.348,-0.287c0.102,-0.086 0.241,-0.2 0.347,-0.286c0.103,-0.085 0.241,-0.2 0.346,-0.286c0.052,-0.043 0.121,-0.1 0.174,-0.143c-6.349,5.243 -5.454,12.543 2.668,17.229c9.083,5.246 23.783,5.243 32.807,-0.004c8.007,-4.652 8.871,-11.885 2.606,-17.118Z" style="fill:#ed1287;fill-rule:nonzero;"/><path d="M519.835,173.553c1.109,0.881 2.218,1.763 3.325,2.646c7.775,6.187 6.877,14.888 -2.712,20.46c-10.634,6.181 -27.937,6.185 -38.642,0.004c-9.721,-5.613 -10.655,-14.392 -2.78,-20.587c0.1,-0.08 0.233,-0.184 0.335,-0.263c0.05,-0.04 0.118,-0.092 0.167,-0.132c0.101,-0.078 0.233,-0.184 0.334,-0.262c0.102,-0.08 0.234,-0.184 0.333,-0.262c0.102,-0.08 0.235,-0.184 0.335,-0.263c0.05,-0.04 0.116,-0.093 0.167,-0.131c0.557,-0.438 1.114,-0.875 1.669,-1.313c-6.684,5.258 -5.89,12.718 2.36,17.479c9.082,5.246 23.781,5.242 32.807,-0.003c8.138,-4.73 8.902,-12.121 2.302,-17.373Z" style="fill:#ed1287;fill-rule:nonzero;"/><path d="M524.035,194.087c-1.159,1.039 -2.321,2.076 -3.479,3.116c-0.864,0.773 -1.879,1.505 -3.046,2.183c-9.023,5.247 -23.724,5.25 -32.807,0.004c-1.229,-0.709 -2.292,-1.479 -3.192,-2.292c-1.153,-1.046 -2.31,-2.09 -3.464,-3.137c1.059,0.959 2.313,1.866 3.761,2.702c10.705,6.181 28.008,6.177 38.642,-0.004c1.375,-0.798 2.568,-1.66 3.585,-2.572Z" style="fill:#a80d60;fill-rule:nonzero;"/><path d="M520.396,165.875c10.734,6.196 10.782,16.244 0.126,22.436c-10.662,6.197 -28.008,6.201 -38.739,0.004c-10.734,-6.196 -10.783,-16.244 -0.119,-22.44c10.656,-6.193 28,-6.197 38.732,0Z" style="fill:#ffedf7;fill-rule:nonzero;"/><path d="M523.755,186.05c-1.16,0.986 -2.323,1.973 -3.485,2.959c-0.793,0.674 -1.706,1.315 -2.736,1.915c-9.025,5.246 -23.725,5.25 -32.807,0.003c-1.093,-0.631 -2.055,-1.309 -2.887,-2.023c-0.104,-0.089 -0.243,-0.208 -0.347,-0.297c-0.051,-0.045 -0.121,-0.104 -0.173,-0.148c-0.105,-0.09 -0.244,-0.209 -0.347,-0.298c-0.051,-0.044 -0.121,-0.104 -0.175,-0.149c-0.102,-0.089 -0.24,-0.208 -0.347,-0.297c-0.05,-0.045 -0.121,-0.105 -0.173,-0.15c-0.104,-0.088 -0.241,-0.208 -0.347,-0.297c-0.521,-0.447 -1.04,-0.894 -1.562,-1.341c0.984,0.844 2.118,1.645 3.411,2.39c10.731,6.197 28.077,6.192 38.739,-0.004c1.221,-0.709 2.298,-1.467 3.236,-2.263Z" style="fill:#a80d60;fill-rule:nonzero;"/></g><g><path d="M520.437,171.781c10.696,6.171 10.758,16.193 0.127,22.368c-10.617,6.173 -27.92,6.17 -38.608,-0.003c-10.694,-6.172 -10.757,-16.194 -0.132,-22.364c10.623,-6.177 27.926,-6.174 38.613,-0.001Z" style="fill:#ed1287;fill-rule:nonzero;"/><path d="M534.056,188.31c-0.029,-1.815 -0.263,-3.395 -0.657,-4.614c-0.399,-1.23 -0.52,-1.601 -1.173,-2.944c-0.342,-0.704 -0.914,-1.58 -1.346,-2.232c-0.284,-0.43 -1.375,-1.978 -3.488,-3.843c-0.793,-0.701 -1.945,-1.521 -2.811,-2.133c-0.452,-0.322 -1.105,-0.684 -1.579,-0.976c-0.167,-0.101 -1.71,-1.01 -4.011,-1.974c-1.856,-0.778 -3.479,-1.258 -4.257,-1.489c-3.991,-1.186 -7.77,-1.545 -9.009,-1.665c-1.074,-0.101 -4.917,-0.405 -9.286,0.003c-3.341,0.311 -6.424,0.888 -9.158,1.716c-5.989,1.812 -10.563,4.441 -13.985,8.04c-1.097,1.155 -2.634,3.073 -3.713,5.651c-0.615,1.468 -0.879,2.743 -0.889,2.797c-0.313,1.527 -0.325,1.899 -0.387,3.467l-0.006,1.313c0.022,1.912 0.232,3.69 1.191,6.146c0.4,1.032 1.357,3.089 3.259,5.273c2.554,2.936 5.394,4.609 6.605,5.324c3.941,2.321 8.3,3.473 8.345,3.484c2.405,0.628 3.217,0.839 4.388,1.026c0.679,0.108 1.579,0.283 2.259,0.36c3.028,0.339 3.028,0.339 4.597,0.411c5.095,0.229 9.397,-0.386 11.51,-0.773c4.375,-0.801 7.541,-2.027 9.038,-2.687c1.12,-0.492 2.596,-1.191 3.641,-1.825c0.843,-0.513 1.938,-1.239 2.745,-1.806c0.421,-0.294 0.953,-0.722 1.336,-1.064c1.104,-0.984 1.713,-1.527 2.959,-3.042c0.826,-1.005 1.658,-2.408 1.867,-2.822c0.661,-1.325 1.092,-2.248 1.517,-3.887c0.122,-0.477 0.259,-1.118 0.321,-1.606c0.046,-0.378 0.086,-0.826 0.115,-1.271c0.034,-0.349 0.057,-0.697 0.06,-1.047l0.002,-1.311Zm-52.232,-16.528c10.625,-6.177 27.926,-6.174 38.613,0c10.696,6.171 10.758,16.192 0.127,22.368c-10.617,6.174 -27.92,6.17 -38.608,-0.003c-10.695,-6.173 -10.757,-16.194 -0.132,-22.365Z" style="fill:#eccdde;fill-rule:nonzero;"/></g><g><path d="M528.435,182.063l0.038,-5.282l-2.126,-0.005c-1.34,-1.852 -3.316,-3.589 -5.928,-5.098c-10.694,-6.173 -27.974,-6.205 -38.601,-0.07c-2.577,1.489 -4.521,3.205 -5.843,5.039l-2.089,-0.006l0.001,6.079c0.045,4.083 2.728,8.1 8.052,11.173c10.693,6.174 27.974,6.205 38.6,0.071c5.653,-3.265 8.282,-7.615 7.896,-11.901Z" style="fill:#b0adb0;fill-rule:nonzero;"/><path d="M520.54,187.958c-10.626,6.135 -27.906,6.104 -38.6,-0.07c-10.69,-6.172 -10.745,-16.15 -0.121,-22.285c10.627,-6.135 27.906,-6.104 38.601,0.07c10.69,6.174 10.745,16.151 0.12,22.285Z" style="fill:#b0adb0;fill-rule:nonzero;"/></g><path d="M513.007,178.635c-6.032,3.483 -15.844,3.466 -21.914,-0.039c-6.069,-3.505 -6.1,-9.17 -0.067,-12.653c6.031,-3.481 15.844,-3.465 21.913,0.04c6.07,3.505 6.101,9.17 0.068,12.652Z" style="fill:#a80d60;fill-rule:nonzero;"/><g><g><path d="M492.915,125.2l7.132,44.284c0.005,0.04 0.007,0.081 0.004,0.122c-0.038,0.457 -0.68,0.778 -1.43,0.71c-0.303,-0.025 -0.576,-0.108 -0.793,-0.229c-0.28,-0.155 -0.468,-0.371 -0.504,-0.603l-7.133,-44.284c0.04,0.233 0.226,0.449 0.506,0.604c0.216,0.12 0.49,0.203 0.792,0.23c0.752,0.066 1.391,-0.255 1.433,-0.712c0.001,-0.041 0,-0.081 -0.007,-0.122Z" style="fill:#a80d60;fill-rule:nonzero;"/><path d="M492.411,124.598c0.329,0.181 0.529,0.447 0.511,0.724c-0.042,0.457 -0.681,0.778 -1.433,0.712c-0.302,-0.027 -0.576,-0.11 -0.792,-0.23c-0.328,-0.182 -0.53,-0.448 -0.51,-0.725c0.04,-0.458 0.68,-0.779 1.43,-0.712c0.301,0.027 0.577,0.11 0.794,0.231Z" style="fill:#a80d60;fill-rule:nonzero;"/></g><g><path d="M514.272,129.074l-8.546,44.252c-0.009,0.041 -0.021,0.083 -0.038,0.123c-0.201,0.456 -0.952,0.768 -1.68,0.692c-0.292,-0.029 -0.534,-0.115 -0.712,-0.237c-0.224,-0.159 -0.334,-0.375 -0.289,-0.606l8.546,-44.254c-0.044,0.232 0.064,0.449 0.29,0.608c0.177,0.123 0.419,0.209 0.711,0.237c0.727,0.077 1.479,-0.236 1.681,-0.693c0.017,-0.04 0.029,-0.082 0.037,-0.122Z" style="fill:#a80d60;fill-rule:nonzero;"/><path d="M513.982,128.468c0.263,0.184 0.371,0.452 0.253,0.728c-0.201,0.457 -0.954,0.77 -1.681,0.693c-0.292,-0.028 -0.534,-0.115 -0.711,-0.237c-0.263,-0.187 -0.369,-0.453 -0.253,-0.729c0.204,-0.455 0.955,-0.768 1.681,-0.691c0.293,0.027 0.537,0.114 0.711,0.236Z" style="fill:#a80d60;fill-rule:nonzero;"/></g><path d="M500.946,133.492c-3.381,0 -6.08,-0.69 -8.074,-2.07c-2.856,-1.979 -3.106,-4.671 -3.117,-4.785c-0.058,-0.689 0.457,-1.293 1.146,-1.35c0.688,-0.053 1.284,0.451 1.347,1.132c0.014,0.098 0.227,1.721 2.124,2.996c2.266,1.522 7.158,2.71 17.6,-0.27c0.666,-0.188 1.356,0.197 1.547,0.862c0.189,0.664 -0.196,1.357 -0.86,1.547c-4.53,1.293 -8.441,1.938 -11.713,1.938Z" style="fill:#a80d60;fill-rule:nonzero;"/></g><path d="M566.694,108.358c0,-36.184 -29.331,-65.515 -65.515,-65.515c-36.184,0 -65.515,29.332 -65.515,65.515c0,23.768 12.657,44.578 31.596,56.063c6.081,3.935 6.707,12.037 6.618,16.011c-1.2,4.799 1.413,9.866 7.834,13.573c10.776,6.222 28.193,6.254 38.904,0.07c5.408,-3.123 8.067,-7.233 7.99,-11.34c0.025,0 0.005,-0.146 -0.02,-0.402c-0.009,-0.149 -0.023,-0.298 -0.038,-0.447c-0.225,-2.967 -0.417,-12.958 6.533,-17.456c18.958,-11.494 31.613,-32.305 31.613,-56.072Z" style="fill:#a80d60;fill-opacity:0.4;fill-rule:nonzero;"/></g><path d="M553.111,248.942l0,-89.977c-0.01,-0.842 -0.546,-1.664 -1.618,-2.291l-46.922,-27.262c-2.164,-1.263 -5.711,-1.271 -7.882,-0.018l-45.81,26.438c-1.059,0.612 -1.594,1.415 -1.622,2.223c-0.007,0.068 -0.008,90.04 -0.008,90.04c0.017,0.852 0.553,1.668 1.62,2.29l46.919,27.261c2.164,1.263 5.711,1.271 7.882,0.019l45.809,-26.437c1.031,-0.596 1.556,-1.372 1.611,-2.156c0.021,0 0.021,-0.128 0.021,-0.128l0,-0.002Z" style="fill:#fbcaeb;fill-opacity:0.5;fill-rule:nonzero;"/></g><g><g><path d="M462.231,414.709c-3.514,2.028 -3.53,5.348 -0.039,7.377l34.301,19.936c3.493,2.029 9.225,2.029 12.739,0l34.526,-19.936c3.516,-2.029 3.533,-5.349 0.042,-7.377l-34.302,-19.936c-3.492,-2.028 -9.226,-2.028 -12.739,0l-34.528,19.936Z" style="fill:#a428a6;fill-opacity:0.2;fill-rule:nonzero;"/><g><path d="M462.192,400.538l34.301,19.934c3.493,2.027 9.225,2.027 12.739,0l34.526,-19.934c1.769,-1.021 2.652,-2.37 2.65,-3.718l0.001,1.103c0.004,1.349 -0.879,2.695 -2.65,3.717l-34.525,19.933c-3.512,2.029 -9.246,2.029 -12.737,0l-34.302,-19.933c-1.736,-1.01 -2.604,-2.336 -2.608,-3.666l-0.001,-1.102c0.001,1.329 0.871,2.656 2.606,3.666Z" style="fill:#851287;fill-rule:nonzero;"/><path d="M462.231,393.157c-3.514,2.031 -3.53,5.352 -0.039,7.381l34.301,19.934c3.493,2.027 9.225,2.027 12.739,0l34.526,-19.934c3.516,-2.029 3.533,-5.35 0.042,-7.379l-34.302,-19.935c-3.492,-2.029 -9.226,-2.029 -12.739,0l-34.528,19.933Z" style="fill:#fde8f3;fill-rule:nonzero;"/></g></g><path d="M496.759,373.224c3.514,-2.029 9.247,-2.029 12.739,0l34.302,19.933c3.491,2.031 3.474,5.352 -0.042,7.381l-5.009,2.891l-47.154,-27.224l5.164,-2.981Z" style="fill:#800044;fill-rule:nonzero;"/><path d="M491.056,387.244l26.68,15.404l3.994,-2.309l-26.68,-15.401l-3.994,2.306Z" style="fill:#f193c5;fill-rule:nonzero;"/><g><path d="M501.389,407.417c-5.376,3.103 -14.116,3.086 -19.524,-0.034c-5.408,-3.123 -5.435,-8.17 -0.062,-11.271c5.376,-3.104 14.115,-3.088 19.525,0.035c5.408,3.119 5.435,8.166 0.061,11.27Z" style="fill:#f193c5;fill-rule:nonzero;"/><path d="M485.074,404.141c-0.387,-0.223 -0.589,-0.529 -0.553,-0.845l0.535,-4.684c0.069,-0.601 0.964,-1.051 2.003,-1.006c1.037,0.044 1.823,0.564 1.755,1.162l-0.386,3.362l11.906,-0.87c1.031,-0.075 1.975,0.347 2.111,0.941c0.139,0.597 -0.585,1.141 -1.616,1.215l-14.184,1.035c-0.559,0.042 -1.122,-0.065 -1.533,-0.288c-0.014,-0.008 -0.027,-0.015 -0.038,-0.022Z" style="fill:#fff;fill-rule:nonzero;"/></g></g><g><g><path d="M348.876,296.409c3.516,2.029 3.533,5.351 0.041,7.38l-34.301,19.932c-3.492,2.031 -9.225,2.031 -12.741,0l-34.526,-19.93c-3.514,-2.03 -3.532,-5.353 -0.041,-7.382l34.301,-19.935c3.492,-2.028 9.226,-2.028 12.74,0l34.527,19.935Z" style="fill:#a428a6;fill-opacity:0.2;fill-rule:nonzero;"/><g><path d="M348.917,282.237l-34.301,19.935c-3.492,2.029 -9.225,2.029 -12.741,0l-34.525,-19.935c-1.769,-1.021 -2.652,-2.369 -2.649,-3.714l-0.002,1.102c-0.003,1.345 0.879,2.693 2.648,3.714l34.526,19.935c3.514,2.03 9.248,2.03 12.74,0l34.301,-19.935c1.734,-1.007 2.603,-2.334 2.606,-3.663l0.002,-1.102c-0.001,1.329 -0.869,2.655 -2.605,3.663Z" style="fill:#851287;fill-rule:nonzero;"/><path d="M348.876,274.859c3.516,2.028 3.533,5.349 0.041,7.377l-34.301,19.935c-3.492,2.029 -9.225,2.029 -12.741,0l-34.526,-19.934c-3.514,-2.029 -3.532,-5.351 -0.041,-7.378l34.301,-19.936c3.492,-2.028 9.226,-2.028 12.74,0l34.527,19.936Z" style="fill:#fde8f3;fill-rule:nonzero;"/></g></g><path d="M314.35,254.924c-3.515,-2.028 -9.248,-2.028 -12.74,0l-34.301,19.936c-3.492,2.028 -3.474,5.349 0.041,7.377l5.009,2.892l47.154,-27.224l-5.163,-2.981Z" style="fill:#800044;fill-rule:nonzero;"/><g><path d="M320.054,268.946l-26.68,15.403l-3.997,-2.307l26.679,-15.404l3.998,2.308Z" style="fill:#f193c5;fill-rule:nonzero;"/><path d="M328.423,274.745l-25.842,14.922l-3.995,-2.309l25.841,-14.92l3.996,2.307Z" style="fill:#f193c5;fill-rule:nonzero;"/><path d="M335.375,281.363l-23.584,13.619l-3.997,-2.308l23.587,-13.618l3.994,2.307Z" style="fill:#f193c5;fill-rule:nonzero;"/></g></g><g><g><path d="M741.519,300.447l-34.301,19.935c-3.49,2.028 -9.226,2.028 -12.741,0l-34.524,-19.935c-1.77,-1.021 -2.651,-2.368 -2.647,-3.715l-0.004,1.102c-0.005,1.347 0.879,2.695 2.648,3.716l34.525,19.934c3.516,2.029 9.251,2.029 12.741,0l34.301,-19.934c1.733,-1.009 2.603,-2.336 2.606,-3.664l0.003,-1.102c-0.002,1.328 -0.871,2.655 -2.607,3.663Z" style="fill:#b5176b;fill-rule:nonzero;"/><path d="M741.479,293.067c3.515,2.029 3.534,5.351 0.04,7.38l-34.301,19.935c-3.49,2.028 -9.226,2.028 -12.741,0l-34.524,-19.935c-3.514,-2.028 -3.535,-5.351 -0.041,-7.38l34.301,-19.933c3.491,-2.029 9.227,-2.029 12.741,0l34.525,19.933Z" style="fill:#fde8fd;fill-rule:nonzero;"/></g><g><g><path d="M700.74,268.351l-0.026,25.601l-25.837,-0.068l0.027,-25.598l25.836,0.065Z" style="fill:#800044;fill-rule:nonzero;"/><path d="M722.177,276.737l-0.024,25.599l-21.439,-8.384l0.026,-25.601l21.437,8.386Z" style="fill:#800044;fill-rule:nonzero;"/><path d="M726.574,268.416l-0.025,25.601c-0.005,3.084 -1.627,5.943 -4.396,8.32l0.024,-25.6c2.769,-2.376 4.392,-5.237 4.397,-8.321Z" style="fill:#800044;fill-rule:nonzero;"/><path d="M718.949,257.769c4.714,2.723 7.633,6.492 7.625,10.646c-0.005,3.085 -1.628,5.946 -4.396,8.321l-21.438,-8.386l-25.836,-0.065c0.018,-8.266 11.595,-14.936 25.865,-14.899c7.093,0.02 13.515,1.689 18.18,4.383Z" style="fill:#800044;fill-rule:nonzero;"/></g><g><path d="M700.74,276.822l-0.026,17.12l-17.995,10.66l0.025,-17.119l17.996,-10.661Z" style="fill:#ff89c8;fill-rule:nonzero;"/><path d="M700.74,276.822l-17.996,10.661c-0.104,-0.017 -0.131,-0.032 -0.158,-0.05c-0.08,-0.045 -0.16,-0.091 -0.24,-0.139c-0.067,-0.039 -0.137,-0.082 -0.205,-0.122c-0.08,-0.049 -0.157,-0.098 -0.239,-0.147c-0.063,-0.038 -0.125,-0.076 -0.188,-0.117c-0.085,-0.053 -0.166,-0.106 -0.25,-0.16c-0.053,-0.035 -0.111,-0.071 -0.165,-0.108c-0.089,-0.061 -0.183,-0.119 -0.271,-0.181c-0.044,-0.03 -0.087,-0.06 -0.128,-0.092c-0.104,-0.069 -0.204,-0.142 -0.304,-0.213c-0.027,-0.021 -0.054,-0.041 -0.082,-0.06c-0.118,-0.088 -0.234,-0.174 -0.349,-0.261c-1.32,-1.015 -2.401,-2.098 -3.235,-3.248c-1.074,-1.48 -1.731,-3.047 -1.945,-4.642c-0.019,-0.141 -0.029,-0.237 -0.038,-0.332c-0.004,-0.031 -0.007,-0.065 -0.009,-0.096c-0.01,-0.089 -0.015,-0.18 -0.02,-0.271c-0.001,-0.036 -0.006,-0.071 -0.007,-0.109c-0.006,-0.128 -0.008,-0.253 -0.007,-0.377l25.836,0.064Z" style="fill:#ff89c8;fill-rule:nonzero;"/><path d="M682.585,287.433c-0.08,-0.045 -0.16,-0.091 -0.24,-0.139c-0.067,-0.039 -0.137,-0.082 -0.205,-0.122c-0.08,-0.049 -0.157,-0.098 -0.239,-0.147c-0.063,-0.038 -0.125,-0.076 -0.188,-0.117c-0.085,-0.053 -0.166,-0.106 -0.25,-0.16c-0.053,-0.035 -0.111,-0.07 -0.165,-0.108c-0.089,-0.061 -0.183,-0.119 -0.271,-0.181c-0.044,-0.03 -0.087,-0.06 -0.128,-0.092c-0.104,-0.069 -0.204,-0.142 -0.304,-0.213c-0.027,-0.021 -0.054,-0.041 -0.082,-0.06c-0.118,-0.088 -0.234,-0.174 -0.349,-0.261c-1.32,-1.015 -2.401,-2.098 -3.235,-3.248c-1.074,-1.48 -1.731,-3.047 -1.945,-4.642c-0.019,-0.141 -0.029,-0.237 -0.038,-0.332c-0.004,-0.031 -0.007,-0.065 -0.009,-0.096c-0.01,-0.089 -0.015,-0.18 -0.02,-0.271c-0.001,-0.036 -0.006,-0.071 -0.007,-0.109c-0.006,-0.124 -0.008,-0.241 -0.007,-0.365l-0.026,17.121c0,0.122 0.006,0.24 0.009,0.365c0.001,0.036 0.006,0.071 0.008,0.109c0.005,0.09 0.007,0.181 0.018,0.271c0.001,0.03 0.006,0.063 0.01,0.095c0.007,0.094 0.019,0.19 0.03,0.285c0.222,1.641 0.877,3.208 1.95,4.689c0.84,1.149 1.918,2.233 3.237,3.246c0.114,0.087 0.231,0.174 0.348,0.26c0.028,0.02 0.057,0.042 0.084,0.061c0.099,0.073 0.2,0.144 0.304,0.215c0.041,0.031 0.086,0.06 0.127,0.091c0.09,0.061 0.183,0.119 0.272,0.182c0.054,0.035 0.109,0.072 0.164,0.108c0.082,0.056 0.164,0.106 0.249,0.159c0.064,0.041 0.127,0.078 0.189,0.12c0.081,0.049 0.159,0.096 0.24,0.145c0.067,0.042 0.137,0.082 0.203,0.123c0.081,0.046 0.16,0.093 0.241,0.139c0.027,0.017 0.053,0.032 0.158,0.048l0.024,-17.12c-0.103,-0.016 -0.129,-0.031 -0.157,-0.049Z" style="fill:#ff89c8;fill-rule:nonzero;"/></g><g><path d="M721.258,292.316c-0.188,0.14 -0.335,0.248 -0.486,0.357c-0.361,0.253 -0.693,0.475 -1.033,0.688c-0.036,0.022 -0.07,0.045 -0.105,0.063c-0.137,0.087 -0.278,0.173 -0.421,0.257c-0.035,0.019 -0.069,0.039 -0.104,0.061c-4.254,2.484 -9.92,4.037 -15.994,4.351c-0.249,0.015 -0.486,0.022 -0.725,0.033c-0.048,0.002 -0.097,0.003 -0.145,0.004c-0.202,0.006 -0.402,0.012 -0.604,0.015c-0.061,0.002 -0.12,0.002 -0.181,0.003c-0.252,0.003 -0.502,0.006 -0.755,0.006c-6.959,-0.018 -13.306,-1.663 -17.966,-4.304l-0.024,10.76c4.659,2.643 11.007,4.287 17.966,4.304c0.253,0 0.503,-0.001 0.756,-0.005c0.058,-0.001 0.12,-0.002 0.181,-0.004c0.2,-0.002 0.4,-0.008 0.602,-0.015c0.05,0 0.099,-0.002 0.146,-0.006c0.239,-0.007 0.475,-0.017 0.727,-0.03c6.073,-0.313 11.737,-1.867 15.993,-4.351c0.035,-0.021 0.069,-0.042 0.103,-0.063c0.144,-0.084 0.283,-0.168 0.42,-0.254c0.037,-0.021 0.071,-0.042 0.107,-0.063c0.34,-0.216 0.672,-0.436 1.032,-0.689c0.152,-0.108 0.301,-0.216 0.488,-0.356c0.316,-0.24 0.626,-0.489 0.917,-0.742l0.025,-10.759c-0.293,0.251 -0.604,0.498 -0.92,0.739Z" style="fill:#d22b84;fill-rule:nonzero;"/><path d="M722.177,291.576c-0.292,0.252 -0.604,0.499 -0.919,0.74c-0.188,0.14 -0.335,0.248 -0.486,0.357c-0.361,0.253 -0.693,0.475 -1.033,0.688c-0.036,0.022 -0.07,0.045 -0.105,0.063c-0.137,0.087 -0.278,0.173 -0.421,0.257c-0.035,0.019 -0.069,0.039 -0.104,0.061c-4.254,2.484 -9.92,4.037 -15.994,4.351c-0.249,0.015 -0.486,0.022 -0.725,0.033c-0.048,0.002 -0.097,0.003 -0.145,0.003c-0.202,0.007 -0.402,0.013 -0.604,0.016c-0.061,0.002 -0.12,0.002 -0.181,0.003c-0.252,0.003 -0.502,0.006 -0.755,0.006c-6.959,-0.018 -13.306,-1.663 -17.966,-4.304l17.995,-10.661l21.443,8.387Z" style="fill:#d22b84;fill-rule:nonzero;"/></g></g></g></g><g id="Researcher"><g><path d="M152.711,506.287c5.715,3.299 5.745,8.701 0.067,12.001l-55.777,32.414c-5.679,3.3 -15.002,3.3 -20.717,0l-56.144,-32.414c-5.715,-3.3 -5.745,-8.702 -0.067,-12.001l55.777,-32.414c5.678,-3.301 15.002,-3.301 20.716,0l56.145,32.414Z" style="fill:#ae0d63;fill-opacity:0.2;fill-rule:nonzero;"/><g><path d="M152.778,483.244l-55.777,32.415c-5.679,3.3 -15.002,3.3 -20.717,0l-56.144,-32.414c-2.875,-1.661 -4.313,-3.854 -4.307,-6.042l-0.004,1.79c-0.006,2.188 1.43,4.383 4.307,6.042l56.143,32.414c5.714,3.3 15.039,3.3 20.716,0l55.779,-32.414c2.82,-1.639 4.231,-3.796 4.238,-5.957l0.004,-1.791c-0.005,2.16 -1.417,4.319 -4.238,5.957Z" style="fill:#ae0d63;fill-rule:nonzero;"/><path d="M152.711,471.245c5.715,3.3 5.745,8.698 0.067,11.999l-55.777,32.415c-5.679,3.3 -15.002,3.3 -20.717,0l-56.144,-32.414c-5.715,-3.301 -5.745,-8.7 -0.067,-12l55.777,-32.414c5.678,-3.3 15.002,-3.3 20.716,0l56.145,32.414Z" style="fill:#ae0d63;fill-rule:nonzero;"/></g></g><g><g><g><path d="M163.92,365.5l-80.505,-46.48c-2.199,-1.27 -4.138,-1.102 -5.277,0.196c1.146,-0.635 2.716,-0.528 4.449,0.471l80.507,46.481c3.5,2.021 6.328,6.912 6.316,10.935l-0.172,60.626c-0.004,1.493 -0.401,2.655 -1.077,3.425c1.169,-0.648 1.899,-2.066 1.904,-4.095l0.173,-60.625c0.012,-4.023 -2.818,-8.915 -6.318,-10.934Z" style="fill:#f193c5;fill-rule:nonzero;"/><path d="M163.708,440.682l-80.507,-46.48c-3.5,-2.021 -6.322,-6.915 -6.311,-10.938l0.171,-60.626c0.005,-1.494 0.4,-2.656 1.076,-3.422c-1.169,0.647 -1.897,2.06 -1.903,4.092l-0.173,60.624c-0.011,4.022 2.811,8.919 6.312,10.938l80.506,46.481c2.199,1.269 4.14,1.097 5.281,-0.198c-1.148,0.635 -2.719,0.531 -4.452,-0.471Z" style="fill:#f0b7d5;fill-rule:nonzero;"/><path d="M169.41,377.102c0.012,-4.022 -2.816,-8.913 -6.316,-10.935l-80.507,-46.481c-1.733,-0.999 -3.303,-1.105 -4.449,-0.471c-0.675,0.766 -1.071,1.928 -1.076,3.422l-0.171,60.626c-0.012,4.023 2.811,8.917 6.311,10.938l80.507,46.48c1.733,1.002 3.304,1.105 4.453,0.471c0.676,-0.77 1.073,-1.932 1.077,-3.425l0.171,-60.625Z" style="fill:#fff;fill-rule:nonzero;"/></g><g><path d="M143.286,412.17l-6.529,-18.115c-0.038,-0.107 -0.09,-0.211 -0.151,-0.306l-6.377,-17.698l-6.528,-18.117c-0.115,-0.319 -0.342,-0.608 -0.591,-0.752c-0.248,-0.144 -0.476,-0.118 -0.591,0.069l-6.528,10.579l-6.377,10.332c-0.06,0.026 -0.113,0.071 -0.15,0.132l-6.529,10.578c-0.17,0.275 -0.042,0.812 0.282,1.196c0.327,0.385 0.73,0.473 0.9,0.196l5.938,-9.62l5.937,16.473c0.031,0.078 0.048,0.12 0.067,0.158c0.045,0.086 0.068,0.127 0.095,0.167c0.041,0.065 0.075,0.108 0.111,0.15c0.057,0.066 0.09,0.099 0.123,0.132c0.052,0.047 0.089,0.076 0.128,0.103c0.18,0.1 0.217,0.111 0.254,0.12c0.056,0.012 0.09,0.017 0.122,0.016c0.032,-0.003 0.059,-0.008 0.086,-0.016c0.158,-0.098 0.178,-0.117 0.193,-0.144c0.003,-0.002 5.94,-9.621 5.94,-9.621l5.938,16.475c0.029,0.077 0.047,0.116 0.066,0.156c0.045,0.085 0.069,0.128 0.094,0.165c0.042,0.067 0.076,0.109 0.111,0.152c0.057,0.067 0.09,0.1 0.125,0.133c0.051,0.047 0.088,0.075 0.126,0.103c0.181,0.098 0.218,0.111 0.256,0.12c0.056,0.011 0.088,0.017 0.121,0.014c0.033,-0.002 0.061,-0.009 0.087,-0.014c0.157,-0.099 0.177,-0.117 0.193,-0.143c0.002,-0.002 5.938,-9.624 5.938,-9.624l5.938,16.476c0.118,0.33 0.35,0.614 0.591,0.753c0.104,0.061 0.209,0.094 0.308,0.091c0.326,-0.005 0.454,-0.395 0.283,-0.869Zm-13.648,-9.179l-5.376,-14.92l10.754,6.21l-5.378,8.71Zm-13.057,-7.537l-5.376,-14.921l10.754,6.21l-5.378,8.711Zm6.529,-10.464l-5.428,-15.065l10.856,6.27l-5.428,8.795Zm1.101,1.521l5.427,-8.794l5.428,15.061l-10.855,-6.267Zm-1.101,-26.91l5.428,15.062l-10.856,-6.267l5.428,-8.795Zm-6.529,10.579l5.429,15.062l-10.856,-6.267l5.427,-8.795Z" style="fill:#eccdde;fill-rule:nonzero;"/><g><path d="M103.437,353.344c0,0 -1.474,-1.783 -1.474,-2.824c-0.001,-1.05 1.47,-1.137 1.47,-1.137c0.044,-0.004 0.067,-0.059 0.051,-0.121l-0.669,-2.232c-0.022,-0.063 -0.077,-0.115 -0.122,-0.114c0,0 -0.624,0.018 -1.009,-0.204c-0.454,-0.262 -0.908,-0.724 -1.257,-1.32c-0.64,-1.104 -0.176,-2.693 -0.176,-2.693c0.014,-0.048 -0.012,-0.126 -0.057,-0.178l-1.611,-1.694c-0.046,-0.045 -0.106,-0.054 -0.129,-0.017c0,0 -0.812,1.226 -1.718,0.702c-0.906,-0.521 -1.722,-2.684 -1.722,-2.684c-0.025,-0.063 -0.083,-0.123 -0.13,-0.134l-1.609,-0.159c-0.045,0 -0.071,0.051 -0.057,0.115c0,0 0.469,2.124 -0.171,2.492c-0.346,0.198 -0.802,0.135 -1.258,-0.127c-0.383,-0.223 -1.006,-0.959 -1.006,-0.959c-0.044,-0.052 -0.098,-0.063 -0.121,-0.024l-0.666,1.462c-0.016,0.047 0.007,0.127 0.051,0.182c0,0 1.475,1.781 1.475,2.823c0,1.041 -1.473,1.124 -1.473,1.124c-0.043,0.003 -0.067,0.057 -0.05,0.12l0.668,2.232c0.021,0.065 0.08,0.128 0.128,0.139c0,0 1.616,0.397 2.257,1.502c0.641,1.104 0.175,2.691 0.175,2.691c-0.013,0.049 0.013,0.13 0.057,0.183l1.611,1.69c0.047,0.048 0.106,0.054 0.13,0.019c0,0 0.813,-1.223 1.719,-0.7c0.906,0.523 1.721,2.685 1.721,2.685c0.023,0.063 0.083,0.125 0.129,0.133l1.61,0.164c0.045,0 0.07,-0.052 0.056,-0.116c0,0 -0.467,-2.124 0.174,-2.49c0.64,-0.363 2.258,1.103 2.258,1.103c0.048,0.045 0.106,0.05 0.128,0.01l0.667,-1.463c0.016,-0.047 -0.005,-0.127 -0.05,-0.181Zm-6.695,-1.282c-2.192,-1.266 -3.969,-4.332 -3.969,-6.848c0,-2.516 1.777,-3.528 3.969,-2.263c2.192,1.267 3.97,4.332 3.97,6.848c0,2.514 -1.777,3.529 -3.97,2.263Z" style="fill:#eccdde;fill-rule:nonzero;"/><path d="M109.541,370.73c0,0 -1.071,-1.299 -1.071,-2.054c-0.001,-0.764 1.069,-0.826 1.069,-0.826c0.032,-0.001 0.047,-0.043 0.036,-0.088l-0.486,-1.623c-0.016,-0.047 -0.056,-0.085 -0.087,-0.085c0,0 -0.456,0.015 -0.735,-0.147c-0.33,-0.19 -0.661,-0.524 -0.912,-0.959c-0.467,-0.803 -0.13,-1.957 -0.13,-1.957c0.011,-0.035 -0.007,-0.092 -0.04,-0.132l-1.171,-1.231c-0.035,-0.032 -0.077,-0.037 -0.094,-0.011c0,0 -0.591,0.89 -1.25,0.509c-0.658,-0.378 -1.251,-1.95 -1.251,-1.95c-0.017,-0.046 -0.06,-0.09 -0.095,-0.097l-1.169,-0.116c-0.033,0 -0.051,0.038 -0.041,0.084c0,0 0.34,1.544 -0.125,1.812c-0.253,0.144 -0.583,0.1 -0.915,-0.094c-0.279,-0.162 -0.731,-0.694 -0.731,-0.694c-0.032,-0.038 -0.072,-0.048 -0.088,-0.02l-0.484,1.063c-0.012,0.033 0.005,0.093 0.037,0.132c0,0 1.073,1.298 1.073,2.054c0,0.754 -1.071,0.816 -1.071,0.816c-0.031,0.001 -0.048,0.042 -0.036,0.087l0.485,1.623c0.017,0.047 0.058,0.093 0.094,0.101c0,0 1.175,0.29 1.641,1.093c0.466,0.803 0.128,1.956 0.128,1.956c-0.011,0.034 0.008,0.096 0.041,0.132l1.17,1.231c0.034,0.034 0.077,0.038 0.095,0.011c0,0 0.591,-0.887 1.25,-0.507c0.659,0.381 1.25,1.95 1.25,1.95c0.018,0.046 0.06,0.09 0.095,0.097l1.17,0.12c0.032,0 0.05,-0.039 0.041,-0.083c0,0 -0.338,-1.546 0.127,-1.812c0.465,-0.264 1.64,0.8 1.64,0.8c0.036,0.033 0.079,0.036 0.094,0.009l0.486,-1.064c0.008,-0.033 -0.009,-0.091 -0.04,-0.13Zm-4.867,-1.765c-1.194,-0.69 -2.162,-2.36 -2.162,-3.728c0,-1.369 0.968,-1.922 2.162,-1.232c1.193,0.689 2.16,2.357 2.16,3.729c0,1.369 -0.966,1.921 -2.16,1.231Z" style="fill:#eccdde;fill-rule:nonzero;"/><path d="M96.625,367.214c0,0 -0.722,-0.876 -0.722,-1.384c0,-0.514 0.72,-0.558 0.72,-0.558c0.024,-0.059 -0.304,-1.152 -0.304,-1.152c-0.011,-0.03 -0.037,-0.056 -0.059,-0.056c0,0 -0.306,0.009 -0.494,-0.1c-0.223,-0.129 -0.444,-0.354 -0.615,-0.645c-0.314,-0.542 -0.086,-1.32 -0.086,-1.32c0.007,-0.023 -0.005,-0.063 -0.028,-0.087l-0.788,-0.83c-0.064,-0.008 -0.461,0.591 -0.905,0.336c-0.444,-0.256 -0.843,-1.313 -0.843,-1.313c-0.012,-0.032 -0.04,-0.061 -0.063,-0.067l-0.788,-0.077c-0.027,0.058 0.202,1.097 -0.112,1.277c-0.169,0.098 -0.392,0.065 -0.616,-0.063c-0.187,-0.108 -0.492,-0.471 -0.492,-0.471c-0.059,-0.012 -0.385,0.705 -0.385,0.705c-0.007,0.022 0.004,0.063 0.025,0.088c0,0 0.723,0.872 0.723,1.382c0,0.509 -0.721,0.551 -0.721,0.551c-0.024,0.059 0.303,1.151 0.303,1.151c0.01,0.031 0.039,0.062 0.063,0.067c0,0 0.792,0.197 1.105,0.735c0.313,0.542 0.087,1.317 0.087,1.317c-0.007,0.023 0.005,0.063 0.027,0.09l0.787,0.831c0.065,0.007 0.462,-0.592 0.906,-0.336c0.444,0.256 0.842,1.313 0.842,1.313c0.012,0.032 0.041,0.062 0.064,0.064l0.788,0.08c0.028,-0.055 -0.2,-1.095 0.113,-1.274c0.313,-0.179 1.105,0.541 1.105,0.541c0.063,0.005 0.389,-0.712 0.389,-0.712c0.006,-0.019 -0.005,-0.057 -0.026,-0.083Zm-3.277,-2.254c-0.292,-0.168 -0.528,-0.577 -0.528,-0.911c0,-0.335 0.237,-0.469 0.528,-0.302c0.292,0.17 0.527,0.577 0.527,0.913c0,0.334 -0.236,0.467 -0.527,0.3Z" style="fill:#eccdde;fill-rule:nonzero;"/></g><g><path d="M163.341,380.708l-25.421,-14.676l0,-1.174l25.421,14.677l0,1.173Z" style="fill:#eccdde;fill-rule:nonzero;"/><path d="M162.542,382.949l-24.622,-14.215l0,-1.172l24.622,14.214l0,1.173Z" style="fill:#eccdde;fill-rule:nonzero;"/><path d="M160.394,384.412l-22.474,-12.976l0,-1.172l22.474,12.975l0,1.173Z" style="fill:#eccdde;fill-rule:nonzero;"/><path d="M158.962,386.287l-21.042,-12.146l0,-1.174l21.042,12.149l0,1.171Z" style="fill:#eccdde;fill-rule:nonzero;"/><path d="M157.695,388.258l-19.775,-11.415l0,-1.174l19.775,11.415l0,1.174Z" style="fill:#eccdde;fill-rule:nonzero;"/><path d="M156.125,390.055l-18.205,-10.508l0,-1.174l18.205,10.509l0,1.173Z" style="fill:#eccdde;fill-rule:nonzero;"/></g></g><g><path d="M140.808,413.602l-6.528,-18.116c-0.039,-0.108 -0.091,-0.21 -0.151,-0.307l-6.377,-17.698l-6.529,-18.115c-0.114,-0.32 -0.342,-0.608 -0.591,-0.752c-0.248,-0.144 -0.475,-0.118 -0.591,0.069l-6.528,10.578l-6.377,10.332c-0.062,0.027 -0.113,0.071 -0.151,0.134l-6.529,10.576c-0.17,0.275 -0.043,0.812 0.283,1.197c0.326,0.384 0.729,0.47 0.899,0.195l5.938,-9.619l5.937,16.472c0.03,0.079 0.048,0.119 0.067,0.157c0.044,0.086 0.069,0.128 0.094,0.168c0.042,0.063 0.076,0.107 0.111,0.151c0.057,0.064 0.09,0.099 0.125,0.131c0.051,0.047 0.088,0.076 0.126,0.104c0.181,0.099 0.219,0.111 0.256,0.121c0.055,0.01 0.088,0.015 0.12,0.012c0.033,0 0.061,-0.007 0.087,-0.012c0.158,-0.099 0.178,-0.12 0.193,-0.146c0.002,-0.001 5.939,-9.621 5.939,-9.621l5.938,16.476c0.029,0.078 0.047,0.117 0.067,0.155c0.044,0.087 0.068,0.129 0.094,0.169c0.042,0.064 0.076,0.108 0.11,0.149c0.058,0.065 0.091,0.102 0.125,0.133c0.051,0.048 0.088,0.075 0.127,0.102c0.181,0.099 0.218,0.112 0.255,0.12c0.055,0.011 0.088,0.017 0.121,0.016c0.034,0 0.06,-0.009 0.086,-0.016c0.159,-0.099 0.178,-0.116 0.194,-0.144c0.002,-0.001 5.939,-9.621 5.939,-9.621l5.937,16.475c0.12,0.33 0.352,0.615 0.592,0.754c0.104,0.059 0.209,0.093 0.308,0.09c0.329,-0.008 0.455,-0.395 0.284,-0.869Zm-13.647,-9.181l-5.377,-14.918l10.752,6.207l-5.375,8.711Zm-13.057,-7.538l-5.376,-14.919l10.753,6.209l-5.377,8.71Zm6.527,-10.463l-5.428,-15.065l10.856,6.27l-5.428,8.795Zm1.102,1.523l5.428,-8.795l5.427,15.062l-10.855,-6.267Zm-1.102,-26.911l5.429,15.063l-10.856,-6.27l5.427,-8.793Zm-6.527,10.578l5.427,15.062l-10.855,-6.268l5.428,-8.794Z" style="fill:#eb3c99;fill-rule:nonzero;"/><g><path d="M100.959,354.777c0,0 -1.473,-1.785 -1.473,-2.826c-0.002,-1.049 1.471,-1.137 1.471,-1.137c0.043,-0.002 0.066,-0.056 0.051,-0.122l-0.67,-2.231c-0.023,-0.063 -0.078,-0.115 -0.122,-0.113c0,0 -0.624,0.017 -1.01,-0.206c-0.454,-0.261 -0.908,-0.723 -1.254,-1.318c-0.642,-1.104 -0.178,-2.695 -0.178,-2.695c0.014,-0.045 -0.011,-0.126 -0.056,-0.178l-1.61,-1.691c-0.048,-0.048 -0.106,-0.057 -0.131,-0.018c0,0 -0.812,1.224 -1.717,0.701c-0.906,-0.521 -1.722,-2.683 -1.722,-2.683c-0.024,-0.064 -0.083,-0.123 -0.131,-0.133l-1.609,-0.161c-0.045,0 -0.07,0.052 -0.057,0.115c0,0 0.469,2.126 -0.171,2.492c-0.347,0.198 -0.802,0.136 -1.258,-0.128c-0.384,-0.222 -1.006,-0.957 -1.006,-0.957c-0.043,-0.053 -0.099,-0.063 -0.122,-0.024l-0.665,1.462c-0.017,0.045 0.006,0.126 0.051,0.18c0,0 1.474,1.783 1.475,2.824c0.001,1.039 -1.472,1.123 -1.472,1.123c-0.044,0.005 -0.066,0.058 -0.051,0.121l0.668,2.232c0.023,0.064 0.08,0.127 0.129,0.138c0,0 1.617,0.398 2.258,1.503c0.641,1.104 0.176,2.691 0.176,2.691c-0.014,0.048 0.011,0.129 0.057,0.181l1.609,1.692c0.048,0.046 0.106,0.055 0.131,0.02c0,0 0.813,-1.224 1.719,-0.701c0.906,0.521 1.72,2.685 1.72,2.685c0.024,0.065 0.083,0.124 0.131,0.133l1.609,0.163c0.044,0 0.071,-0.051 0.056,-0.116c0,0 -0.466,-2.124 0.174,-2.489c0.64,-0.364 2.257,1.103 2.257,1.103c0.048,0.045 0.106,0.048 0.127,0.011l0.667,-1.464c0.016,-0.046 -0.007,-0.127 -0.051,-0.179Zm-6.694,-1.284c-2.193,-1.267 -3.97,-4.333 -3.97,-6.848c0,-2.518 1.777,-3.53 3.97,-2.265c2.191,1.269 3.969,4.334 3.969,6.849c0,2.516 -1.777,3.529 -3.969,2.264Z" style="fill:#a72a6d;fill-rule:nonzero;"/><path d="M107.062,372.162c0,0 -1.071,-1.299 -1.071,-2.054c-0.001,-0.765 1.07,-0.827 1.07,-0.827c0.032,-0.002 0.049,-0.042 0.037,-0.088l-0.488,-1.623c-0.015,-0.048 -0.055,-0.085 -0.087,-0.085c0,0 -0.454,0.016 -0.734,-0.147c-0.33,-0.19 -0.66,-0.525 -0.912,-0.959c-0.467,-0.804 -0.129,-1.957 -0.129,-1.957c0.009,-0.034 -0.01,-0.094 -0.042,-0.131l-1.171,-1.23c-0.034,-0.034 -0.077,-0.04 -0.095,-0.013c0,0 -0.59,0.89 -1.249,0.509c-0.658,-0.378 -1.252,-1.95 -1.252,-1.95c-0.019,-0.046 -0.061,-0.09 -0.095,-0.096l-1.17,-0.117c-0.032,0 -0.05,0.037 -0.041,0.083c0,0 0.34,1.544 -0.125,1.813c-0.252,0.144 -0.583,0.098 -0.915,-0.093c-0.279,-0.16 -0.731,-0.696 -0.731,-0.696c-0.032,-0.038 -0.072,-0.046 -0.088,-0.02l-0.483,1.065c-0.013,0.031 0.004,0.091 0.037,0.13c0,0 1.072,1.297 1.072,2.055c0,0.755 -1.071,0.817 -1.071,0.817c-0.032,0.001 -0.049,0.04 -0.037,0.086l0.485,1.624c0.018,0.046 0.06,0.092 0.093,0.101c0,0 1.177,0.289 1.643,1.092c0.465,0.804 0.127,1.956 0.127,1.956c-0.01,0.035 0.008,0.094 0.041,0.131l1.17,1.232c0.035,0.032 0.077,0.038 0.095,0.012c0,0 0.592,-0.887 1.25,-0.509c0.659,0.382 1.25,1.952 1.25,1.952c0.018,0.047 0.061,0.09 0.095,0.096l1.17,0.12c0.033,0 0.052,-0.039 0.041,-0.083c0,0 -0.338,-1.547 0.127,-1.812c0.464,-0.267 1.641,0.801 1.641,0.801c0.036,0.032 0.077,0.036 0.094,0.009l0.484,-1.064c0.013,-0.035 -0.003,-0.093 -0.036,-0.13Zm-4.866,-1.767c-1.194,-0.689 -2.161,-2.356 -2.161,-3.728c0,-1.369 0.967,-1.92 2.161,-1.231c1.193,0.69 2.161,2.357 2.161,3.729c0,1.368 -0.968,1.921 -2.161,1.23Z" style="fill:#a72a6d;fill-rule:nonzero;"/><path d="M94.147,368.645c0,0 -0.721,-0.876 -0.721,-1.385c-0.001,-0.513 0.72,-0.558 0.72,-0.558c0.025,-0.057 -0.303,-1.15 -0.303,-1.15c-0.011,-0.033 -0.038,-0.058 -0.06,-0.058c0,0 -0.306,0.01 -0.494,-0.101c-0.223,-0.126 -0.445,-0.352 -0.615,-0.645c-0.313,-0.54 -0.085,-1.318 -0.085,-1.318c0.005,-0.022 -0.006,-0.062 -0.029,-0.087l-0.789,-0.829c-0.064,-0.009 -0.459,0.59 -0.904,0.335c-0.444,-0.254 -0.844,-1.313 -0.844,-1.313c-0.011,-0.033 -0.041,-0.062 -0.063,-0.064l-0.788,-0.08c-0.028,0.056 0.202,1.097 -0.111,1.275c-0.17,0.099 -0.394,0.068 -0.617,-0.063c-0.188,-0.108 -0.491,-0.469 -0.491,-0.469c-0.06,-0.012 -0.386,0.706 -0.386,0.706c-0.008,0.021 0.002,0.061 0.025,0.086c0,0 0.721,0.874 0.722,1.381c0,0.512 -0.72,0.553 -0.72,0.553c-0.025,0.058 0.303,1.151 0.303,1.151c0.01,0.032 0.04,0.062 0.063,0.067c0,0 0.791,0.197 1.104,0.736c0.314,0.54 0.087,1.317 0.087,1.317c-0.007,0.022 0.006,0.063 0.027,0.089l0.789,0.829c0.063,0.008 0.461,-0.591 0.905,-0.334c0.442,0.254 0.842,1.313 0.842,1.313c0.011,0.032 0.04,0.062 0.064,0.067l0.787,0.076c0.028,-0.056 -0.201,-1.095 0.112,-1.273c0.313,-0.177 1.106,0.541 1.106,0.541c0.063,0.003 0.39,-0.712 0.39,-0.712c0.006,-0.02 -0.005,-0.059 -0.026,-0.083Zm-3.277,-2.255c-0.292,-0.166 -0.528,-0.575 -0.528,-0.908c0,-0.336 0.236,-0.472 0.528,-0.302c0.291,0.169 0.527,0.575 0.527,0.911c0,0.333 -0.236,0.468 -0.527,0.299Z" style="fill:#a72a6d;fill-rule:nonzero;"/></g><g><path d="M160.862,382.139l-25.42,-14.676l0,-1.174l25.42,14.676l0,1.174Z" style="fill:#f193c5;fill-rule:nonzero;"/><path d="M160.063,384.38l-24.621,-14.216l0,-1.173l24.621,14.217l0,1.172Z" style="fill:#f193c5;fill-rule:nonzero;"/><path d="M157.916,385.843l-22.474,-12.976l0,-1.171l22.474,12.974l0,1.173Z" style="fill:#f193c5;fill-rule:nonzero;"/><path d="M156.484,387.717l-21.042,-12.146l0,-1.173l21.042,12.147l0,1.172Z" style="fill:#f193c5;fill-rule:nonzero;"/><path d="M155.217,389.69l-19.775,-11.416l0,-1.172l19.775,11.414l0,1.174Z" style="fill:#f193c5;fill-rule:nonzero;"/><path d="M153.647,391.485l-18.205,-10.508l0,-1.175l18.205,10.513l0,1.17Z" style="fill:#f193c5;fill-rule:nonzero;"/></g></g></g><path d="M98.437,483.331c-6.92,3.995 -18.176,3.973 -25.14,-0.047c-6.963,-4.019 -6.998,-10.519 -0.078,-14.514c6.919,-3.996 18.176,-3.975 25.14,0.045c6.963,4.021 6.998,10.518 0.078,14.516Z" style="fill:#521435;fill-opacity:0.6;fill-rule:nonzero;"/><g><path d="M87.677,480.675c0,0 -0.925,1.592 0.225,2.998c1.152,1.405 9.952,-1.581 11.784,-5.455c1.833,-3.873 -6.845,-1.397 -8.875,-0.061c-2.03,1.336 -3.134,2.518 -3.134,2.518Z" style="fill:#962561;fill-rule:nonzero;"/><path d="M75.901,473.68c0,0 -0.925,1.592 0.227,3c1.151,1.405 9.951,-1.582 11.782,-5.457c1.833,-3.873 -6.845,-1.396 -8.874,-0.059c-2.031,1.337 -3.135,2.516 -3.135,2.516Z" style="fill:#962561;fill-rule:nonzero;"/><path d="M94.469,431.585l-0.105,28.04c0,0 -1.208,18.546 -1.208,19.776c0,2.824 -4.674,3.172 -4.848,1.98c-0.174,-1.194 -1.554,-23.919 -1.554,-23.919l-2.299,-18.274l-0.92,14.52c0,0 -2.279,15.343 -2.405,17.548c-0.124,2.208 -4.648,3.829 -4.648,1.968c0,-1.862 -1.363,-45.561 -1.363,-45.561l19.35,3.922Z" style="fill:#eccdde;fill-rule:nonzero;"/><path d="M93.172,399.624c0,0 -12.479,-6.55 -15.65,-4.951c-3.169,1.599 -3.08,3.654 -3.259,11.701c-0.179,8.046 0.895,21.813 0.895,21.813c0,0 6.436,4.917 12.069,4.917c5.632,0 7.242,-1.519 7.242,-1.519c0,0 3.472,-29.682 -1.297,-31.961Z" style="fill:url(#_Linear5);fill-rule:nonzero;"/><path d="M107.603,413.763c0,0 1.336,-1.104 2.507,-4.043c1.173,-2.939 1.281,-4.179 0.274,-5.55c-1.007,-1.372 -2.104,-0.415 -2.557,0.818c-0.452,1.235 -0.662,1.487 -0.662,1.487c0,0 -0.038,-1.036 -0.58,-0.961c-0.542,0.078 -0.516,0.181 -0.715,2.313c-0.2,2.134 -0.201,3.3 -0.201,3.3l1.934,2.636Z" style="fill:#f193c5;fill-rule:nonzero;"/><path d="M100.311,421.8c0,0 6.229,-5.129 8.51,-9.355c0.367,-0.683 -1.438,-3.27 -3.226,-3.225c-0.609,0.479 -9.267,8.945 -9.267,8.945c0,0 0.922,5.339 3.983,3.635Z" style="fill:#eb3c99;fill-rule:nonzero;"/><path d="M91.468,409.687c-1.008,-3.119 -2.755,-8.967 -0.382,-9.8c2.374,-0.828 5.008,1.041 6.861,7.341c1.005,3.42 2.811,8.155 3.098,11.12c0.241,2.497 -0.861,3.492 -1.787,3.827c-2.024,0.737 -6.45,-8.345 -7.79,-12.488Z" style="fill:#eb3c99;fill-rule:nonzero;"/><path d="M81.943,389.363l0,5.946c0,0 2.111,2.664 5.271,1.521c0.561,-1.108 0.694,-4.674 0.336,-6.237c-0.357,-1.565 -5.607,-1.23 -5.607,-1.23Z" style="fill:#f193c5;fill-rule:nonzero;"/><path d="M93.074,384.291c0,0 1.014,9.715 -4.351,10.67c-5.363,0.952 -7.986,-3.516 -8.165,-8.346c-0.537,-6.139 10.787,-11.978 12.516,-2.324Z" style="fill:#e3278b;fill-opacity:0.2;fill-rule:nonzero;"/></g><path d="M88.895,391.367c0,0 -2.43,3.185 -5.195,3.185c-2.765,0 -4.106,-6.704 -4.106,-8.632c0,-1.928 1.843,-8.209 8.798,-7.122c6.954,1.091 6.787,3.938 5.111,5.866c-1.676,1.928 -5.278,3.268 -4.608,6.703Z" style="fill:#a72a6d;fill-rule:nonzero;"/><path d="M90.174,388.605c0,0 -0.95,-2.478 -1.907,-0.919c-0.958,1.558 0.208,2.886 0.955,3.632c0.745,0.746 2.027,-0.985 0.952,-2.713Z" style="fill:#f193c5;fill-rule:nonzero;"/></g></g><g id="O365"><path d="M326.597,176.55c4.273,2.468 4.291,6.465 0.05,8.93l-85.678,49.79c-4.242,2.466 -11.143,2.467 -15.416,0l-86.235,-49.788c-4.273,-2.466 -4.296,-6.466 -0.054,-8.932l85.678,-49.789c4.242,-2.465 11.148,-2.465 15.42,0.001l86.235,49.788Z" style="fill:#a80d60;fill-opacity:0.2;fill-rule:nonzero;"/><g><path d="M326.646,151.932l-85.678,49.79c-4.242,2.465 -11.143,2.468 -15.416,0l-86.235,-49.788c-2.15,-1.242 -3.225,-2.871 -3.22,-4.499l-0.008,2.857c-0.004,1.627 1.07,3.256 3.22,4.499l86.235,49.788c4.272,2.467 11.174,2.465 15.417,0l85.677,-49.791c2.107,-1.225 3.164,-2.828 3.167,-4.433l0.007,-2.857c-0.001,1.605 -1.056,3.208 -3.166,4.434Z" style="fill:#5f0743;fill-rule:nonzero;"/><path d="M326.597,143c4.273,2.468 4.291,6.466 0.05,8.931l-85.678,49.791c-4.242,2.464 -11.143,2.465 -15.416,0l-86.235,-49.789c-4.273,-2.466 -4.296,-6.466 -0.054,-8.931l85.678,-49.792c4.242,-2.465 11.148,-2.465 15.42,0.002l86.235,49.788Z" style="fill:#fff;fill-rule:nonzero;"/></g><clipPath id="_clip6"><polygon id="O3651" serif:id="O365" points="235.781,116.937 282.772,145.627 230.132,177.995 183.141,149.305 235.781,116.937 "/></clipPath><g clip-path="url(#_clip6)"><path d="M218.756,163.05c0.52,-0.262 37.047,-22.664 37.742,-23.207l-21.009,-7.409l-25.688,15.795l-12.29,-2.923l-0.047,-0.029l0.006,-0.061l0.263,-0.162l31.163,-19.162c0.304,-0.072 0.492,0.043 0.686,0.097l34.653,8.578c0.387,0.108 0.722,0.248 0.898,0.484l9.123,10.86l0.083,0.18l-43.797,26.93l-5.017,-1.58l-12.727,-4.094c-0.435,-0.136 -0.664,-0.34 -0.841,-0.577l-14.115,-20.746c-0.036,-0.151 -0.171,-0.298 -0.154,-0.481l21.068,17.507Z" style="fill:#dc3e15;fill-rule:nonzero;"/></g></g><g id="AWS"><path d="M861.58,117.782c3.516,2.03 3.534,5.351 0.043,7.38l-77.977,45.127c-3.492,2.028 -9.226,2.028 -12.74,0l-81.396,-46.977c-3.516,-2.029 -3.533,-5.351 -0.039,-7.38l77.974,-45.127c3.491,-2.029 9.227,-2.029 12.741,0l81.394,46.977Z" style="fill:#a80d60;fill-opacity:0.9;fill-rule:nonzero;"/><path d="M777.285,151.757c-2.377,0 -4.76,-0.524 -6.576,-1.573l-81.393,-46.977c-1.834,-1.057 -2.845,-2.493 -2.846,-4.042c-0.004,-1.539 0.993,-2.965 2.802,-4.016l77.976,-45.128c3.608,-2.096 9.501,-2.097 13.133,0l81.396,46.977c1.831,1.058 2.844,2.494 2.845,4.042c0.001,1.539 -0.993,2.966 -2.803,4.016l-77.978,45.128c-1.802,1.048 -4.178,1.573 -6.556,1.573Zm-3.478,-102.534c-2.237,0 -4.469,0.493 -6.164,1.479l-77.976,45.126c-1.558,0.904 -2.413,2.089 -2.411,3.336c0.001,1.257 0.872,2.452 2.45,3.363l81.396,46.976c3.417,1.972 8.953,1.972 12.347,0.001l77.976,-45.127c1.557,-0.904 2.413,-2.089 2.412,-3.337c-0.003,-1.257 -0.874,-2.45 -2.452,-3.362l-81.395,-46.976c-1.708,-0.987 -3.948,-1.479 -6.183,-1.479Z" style="fill:#fff;fill-rule:nonzero;"/><g><path d="M861.623,98.72l-77.977,45.125c-3.492,2.031 -9.226,2.031 -12.74,0l-81.396,-46.975c-1.768,-1.021 -2.65,-2.369 -2.647,-3.714l-0.003,1.101c-0.005,1.346 0.881,2.694 2.647,3.715l81.395,46.977c3.515,2.029 9.25,2.029 12.74,0l77.976,-45.125c1.737,-1.009 2.604,-2.336 2.606,-3.665l0.003,-1.101c-0.003,1.327 -0.87,2.653 -2.604,3.662Z" style="fill:#93acf1;fill-rule:nonzero;"/><path d="M861.58,91.34c3.516,2.028 3.534,5.35 0.043,7.379l-77.977,45.125c-3.492,2.031 -9.226,2.031 -12.74,0.001l-81.396,-46.975c-3.516,-2.028 -3.533,-5.35 -0.039,-7.379l77.974,-45.126c3.491,-2.029 9.227,-2.029 12.741,0l81.394,46.975Z" style="fill:#fff;fill-rule:nonzero;"/></g><path d="M764.834,84.317c-0.843,0.514 -1.444,0.981 -1.803,1.376c-0.339,0.407 -0.682,0.868 -0.99,1.407c-0.081,0.175 -0.222,0.312 -0.382,0.409c-0.227,0.138 -0.577,0.201 -1.068,0.173l-2.235,-0.221c-0.319,-0.032 -0.57,-0.105 -0.733,-0.207c-0.203,-0.128 -0.292,-0.325 -0.29,-0.577c0.058,-0.387 0.178,-0.762 0.34,-1.112c0.184,-0.364 0.414,-0.755 0.714,-1.215c-3.677,0.281 -6.714,-0.332 -9.108,-1.838c-1.705,-1.072 -2.518,-2.261 -2.42,-3.552c0.099,-1.292 1.049,-2.499 2.87,-3.609c1.935,-1.18 4.115,-1.754 6.537,-1.697c2.422,0.057 4.657,0.731 6.748,2.046c0.69,0.434 1.332,0.922 1.969,1.464c0.637,0.542 1.226,1.138 1.833,1.773l1.662,-1.013c1.73,-1.054 2.612,-1.994 2.689,-2.82c0.056,-0.839 -0.698,-1.736 -2.261,-2.719c-0.71,-0.447 -1.532,-0.851 -2.488,-1.198c-0.955,-0.348 -1.936,-0.655 -2.965,-0.907c-0.484,-0.108 -0.819,-0.205 -1.007,-0.267c-0.187,-0.061 -0.311,-0.111 -0.393,-0.162c-0.284,-0.179 -0.198,-0.407 0.28,-0.699l1.116,-0.68c0.364,-0.222 0.678,-0.363 0.939,-0.396c0.26,-0.033 0.602,-0.015 1.046,0.066c1.12,0.197 2.314,0.525 3.581,0.984c1.291,0.445 2.483,1.026 3.599,1.728c2.415,1.519 3.565,3.005 3.472,4.469c-0.113,1.451 -1.412,2.947 -3.916,4.473l-7.377,4.496l0.041,0.025Zm-11.7,-3.074c0.67,0.422 1.496,0.772 2.5,1.065c1.004,0.294 2.154,0.397 3.385,0.325c0.757,-0.059 1.479,-0.197 2.147,-0.454c0.668,-0.256 1.41,-0.608 2.184,-1.079l0.956,-0.583c-0.429,-0.468 -0.922,-0.947 -1.48,-1.411c-0.558,-0.464 -1.142,-0.887 -1.771,-1.283c-1.359,-0.855 -2.65,-1.3 -3.934,-1.347c-1.285,-0.047 -2.474,0.276 -3.613,0.97c-1.07,0.652 -1.623,1.291 -1.662,1.943c-0.083,0.654 0.355,1.267 1.288,1.854Zm13.837,11.75c-0.366,-0.23 -0.541,-0.424 -0.544,-0.624c-0.025,-0.185 0.151,-0.469 0.462,-0.809l12.83,-13.726c0.334,-0.354 0.569,-0.573 0.729,-0.67c0.364,-0.222 0.731,-0.245 1.056,-0.041l1.988,1.251c0.386,0.243 0.582,0.451 0.564,0.637c0.026,0.186 -0.171,0.456 -0.482,0.797l-11.663,11.33l18.238,-7.194c0.557,-0.214 0.975,-0.318 1.274,-0.299c0.299,0.019 0.674,0.142 1.039,0.372l1.624,1.021c0.385,0.243 0.581,0.451 0.584,0.65c0.025,0.185 -0.151,0.469 -0.503,0.784l-12.048,11.313l18.765,-7.088c0.578,-0.201 1.016,-0.292 1.294,-0.286c0.299,0.019 0.654,0.13 1.019,0.36l1.888,1.187c0.324,0.204 0.325,0.43 -0.062,0.666c-0.114,0.069 -0.248,0.126 -0.405,0.196c-0.157,0.071 -0.38,0.156 -0.711,0.258l-22.49,7.649c-0.578,0.201 -1.016,0.292 -1.315,0.273c-0.298,-0.019 -0.653,-0.129 -0.998,-0.346l-1.746,-1.098c-0.385,-0.243 -0.581,-0.45 -0.584,-0.649c-0.003,-0.2 0.151,-0.469 0.526,-0.798l11.539,-10.929l-17.787,6.97c-0.557,0.214 -0.975,0.318 -1.297,0.313c-0.321,-0.005 -0.674,-0.142 -1.039,-0.372l-1.745,-1.098Zm25.462,16.779c-1.055,-0.664 -1.974,-1.411 -2.715,-2.215c-0.742,-0.805 -1.237,-1.484 -1.423,-2.024c-0.12,-0.329 -0.116,-0.608 0.008,-0.784c0.124,-0.176 0.311,-0.34 0.516,-0.465l1.161,-0.708c0.478,-0.291 0.868,-0.328 1.172,-0.136c0.122,0.076 0.221,0.167 0.297,0.271c0.077,0.105 0.168,0.275 0.28,0.458c0.349,0.642 0.826,1.281 1.436,1.89c0.629,0.622 1.33,1.175 2.141,1.686c1.279,0.804 2.524,1.277 3.714,1.406c1.191,0.129 2.285,-0.086 3.219,-0.655c0.637,-0.388 0.978,-0.822 1.045,-1.316c0.068,-0.493 -0.235,-1.163 -0.865,-2.011l-1.918,-2.475c-0.958,-1.251 -1.28,-2.412 -0.925,-3.458c0.332,-1.032 1.103,-1.929 2.287,-2.65c0.956,-0.583 1.981,-0.982 3.075,-1.196c1.094,-0.214 2.218,-0.296 3.328,-0.218c1.132,0.063 2.209,0.262 3.294,0.606c1.085,0.344 2.051,0.811 2.944,1.372c0.447,0.281 0.891,0.589 1.269,0.911c0.398,0.335 0.733,0.659 1.068,0.982c0.292,0.325 0.564,0.637 0.793,0.95c0.229,0.313 0.376,0.575 0.442,0.786c0.102,0.29 0.123,0.529 0.04,0.73c-0.06,0.188 -0.25,0.379 -0.569,0.573l-1.07,0.652c-0.478,0.291 -0.891,0.342 -1.195,0.15c-0.162,-0.102 -0.335,-0.323 -0.498,-0.651c-0.565,-1.089 -1.568,-2.086 -3.008,-2.992c-1.157,-0.728 -2.275,-1.178 -3.337,-1.31c-1.062,-0.132 -2.046,0.066 -2.98,0.635c-0.637,0.389 -0.981,0.849 -1.008,1.368c-0.026,0.519 0.292,1.255 0.98,2.168l1.857,2.437c0.938,1.238 1.265,2.346 0.96,3.311c-0.304,0.964 -1.07,1.808 -2.254,2.53c-0.979,0.596 -2.049,1.023 -3.168,1.277c-1.14,0.242 -2.31,0.352 -3.485,0.29c-1.199,-0.049 -2.359,-0.272 -3.528,-0.64c-1.232,-0.381 -2.345,-0.884 -3.38,-1.535Z" style="fill:#252f3e;fill-rule:nonzero;"/><path d="M785.203,118.929c-12.209,-0.828 -24.846,-5.141 -33.187,-10.388c-11.689,-7.353 -17.371,-16.934 -17.267,-26.851c0.009,-0.784 1.442,-0.954 1.692,-0.176c3.004,8.826 10.225,17.571 21.204,24.477c7.407,4.66 17.275,8.724 28.315,11.27c1.685,0.356 1.25,1.802 -0.757,1.668Z" style="fill:#f90;"/><path d="M791.535,118.513c0.377,-1.285 -5.049,-3.91 -7.517,-5.095c-0.74,-0.353 -0.204,-0.806 0.863,-0.727c6.82,0.569 12.226,5.041 11.954,6.111c-0.294,1.084 -8.262,4.784 -15.204,4.591c-1.071,-0.025 -1.326,-0.524 -0.399,-0.787c3.066,-0.863 9.949,-2.821 10.303,-4.093Z" style="fill:#f90;"/></g><defs><linearGradient id="_Linear1" x1="0" y1="0" x2="1" y2="0" gradientUnits="userSpaceOnUse" gradientTransform="matrix(1.3091,34.2972,-34.2972,1.3091,593.483,276.414)"><stop offset="0" style="stop-color:#eb3c99;stop-opacity:1"/><stop offset="1" style="stop-color:#a72a6d;stop-opacity:1"/></linearGradient><linearGradient id="_Linear3" x1="0" y1="0" x2="1" y2="0" gradientUnits="userSpaceOnUse" gradientTransform="matrix(-19.5302,2.39176e-15,-2.39176e-15,-19.5302,392.529,246.75)"><stop offset="0" style="stop-color:#edcdde;stop-opacity:1"/><stop offset="1" style="stop-color:#efb0d2;stop-opacity:1"/></linearGradient><linearGradient id="_Linear4" x1="0" y1="0" x2="1" y2="0" gradientUnits="userSpaceOnUse" gradientTransform="matrix(0.791275,-32.2529,59.648,1.46337,383.26,292.297)"><stop offset="0" style="stop-color:#a72a6d;stop-opacity:1"/><stop offset="0.68" style="stop-color:#eb3c99;stop-opacity:1"/><stop offset="1" style="stop-color:#eb3c99;stop-opacity:1"/></linearGradient><linearGradient id="_Linear5" x1="0" y1="0" x2="1" y2="0" gradientUnits="userSpaceOnUse" gradientTransform="matrix(1.7485,36.0836,-36.0836,1.7485,84.1846,395.04)"><stop offset="0" style="stop-color:#ed1287;stop-opacity:1"/><stop offset="1" style="stop-color:#a80d60;stop-opacity:1"/></linearGradient></defs></svg>