<?xml version="1.0" encoding="UTF-8" standalone="no"?>
<!DOCTYPE svg PUBLIC "-//W3C//DTD SVG 1.1//EN" "http://www.w3.org/Graphics/SVG/1.1/DTD/svg11.dtd">
<svg width="100%" height="100%" viewBox="0 0 713 728" version="1.1" xmlns="http://www.w3.org/2000/svg" xmlns:xlink="http://www.w3.org/1999/xlink" xml:space="preserve" xmlns:serif="http://www.serif.com/" style="fill-rule:evenodd;clip-rule:evenodd;stroke-linejoin:round;stroke-miterlimit:1.41421;">
    <g id="Artboard1" transform="matrix(0.988793,0,0,0.980002,-470.49,-150.18)">
        <rect x="475.822" y="153.245" width="720.867" height="742.123" style="fill:none;"/>
        <g id="Layer-2" serif:id="Layer 2" transform="matrix(4.21389,0,0,4.25169,-12.7313,-18.021)">
            <g transform="matrix(1,0,0,1,197.044,89.2119)">
                <path d="M0,0C0,5.886 -3.673,10.914 -8.852,12.917C-10.4,13.515 -12.083,13.843 -13.843,13.843C-21.489,13.843 -27.687,7.646 -27.687,0C-27.687,-7.645 -21.489,-13.843 -13.843,-13.843C-6.198,-13.843 0,-7.645 0,0" style="fill:white;fill-rule:nonzero;"/>
            </g>
            <g transform="matrix(69.2322,-18.6378,-18.6378,-69.2322,174.342,113.674)">
                <path d="M0,0.366C0,0.18 0,-0.125 0,-0.311C0,-0.497 0.132,-0.573 0.293,-0.48C0.454,-0.387 0.718,-0.235 0.879,-0.142C1.04,-0.049 1.04,0.103 0.879,0.197C0.718,0.29 0.454,0.442 0.293,0.535C0.267,0.55 0.242,0.56 0.218,0.567C0.093,0.601 0,0.522 0,0.366Z" style="fill:url(#_Linear1);fill-rule:nonzero;"/>
            </g>
            <g transform="matrix(1,0,0,1,210.185,73.1825)">
                <path d="M0,47.443C-1.47,48.011 -3.066,48.322 -4.736,48.322C-11.991,48.322 -17.873,42.441 -17.873,35.187C-17.873,27.931 -11.991,22.05 -4.736,22.05C2.519,22.05 8.399,27.931 8.399,35.187C8.399,40.772 4.914,45.543 0,47.443M-4.736,9.087C-10.651,9.087 -14.122,9.718 -18.552,12.966L-18.552,-4.524L-31.505,-15.182L-31.505,34.333L-31.428,34.333C-31.457,34.84 -31.505,35.341 -31.505,35.855C-31.505,50.64 -19.522,62.625 -4.736,62.625C10.046,62.625 22.032,50.64 22.032,35.855C22.032,21.073 10.046,9.087 -4.736,9.087" style="fill:white;fill-rule:nonzero;"/>
            </g>
            <g transform="matrix(1,0,0,1,156.069,162.317)">
                <path d="M0,20.295C2.807,20.295 4.534,18.396 4.534,14.983C4.534,11.529 2.764,9.543 0.087,9.543C-0.95,9.543 -1.9,9.846 -2.634,10.407L-2.634,19.648C-1.9,20.079 -0.993,20.295 0,20.295M-0.043,24.958C-2.461,24.958 -4.706,24.483 -6.433,23.49C-8.42,22.367 -8.42,20.942 -8.42,19.475L-8.42,-2.331C-8.42,-3.886 -7.47,-4.663 -5.527,-4.663C-3.583,-4.663 -2.634,-3.886 -2.634,-2.331L-2.634,5.959C-1.554,5.225 -0.129,4.88 1.512,4.88C6.78,4.88 10.449,8.377 10.449,14.595C10.449,20.899 6.693,24.958 -0.043,24.958" style="fill:rgb(76,76,78);fill-rule:nonzero;"/>
            </g>
            <g transform="matrix(1,0,0,1,173.25,173.243)">
                <path d="M0,7.815C0,8.808 0.648,9.586 2.288,9.586C3.411,9.586 4.534,9.197 5.527,8.377L5.527,4.879C1.813,5.354 0,6.131 0,7.815M2.548,-1.382C1.511,-1.382 0.259,-1.123 -1.037,-0.518C-1.771,-0.173 -2.332,0.086 -2.85,0.086C-4.188,0.086 -5.052,-1.511 -5.052,-2.634C-5.052,-3.455 -4.577,-4.059 -3.498,-4.664C-1.684,-5.657 0.604,-6.132 3.065,-6.132C6.175,-6.132 8.463,-5.355 9.758,-3.843C10.666,-2.764 11.097,-1.123 11.097,0.993L11.097,11.572C11.097,13.212 10.32,13.947 8.29,13.947C6.563,13.947 5.873,13.428 5.873,12.176L5.873,11.831C4.62,13.255 2.85,13.947 0.518,13.947C-3.455,13.947 -5.872,11.788 -5.872,8.334C-5.872,4.448 -2.764,2.245 5.527,1.511L5.527,1.209C5.527,-0.432 4.792,-1.382 2.548,-1.382" style="fill:rgb(76,76,78);fill-rule:nonzero;"/>
            </g>
            <g transform="matrix(1,0,0,1,196.852,173.026)">
                <path d="M0,-1.166C-2.807,-1.166 -4.534,0.734 -4.534,4.102C-4.534,7.6 -2.764,9.543 -0.086,9.543C0.95,9.543 1.857,9.24 2.634,8.636L2.634,-0.432C1.9,-0.907 0.993,-1.166 0,-1.166M-0.777,-5.829C0.604,-5.829 1.814,-5.613 2.634,-5.095L2.634,-13.04C2.634,-14.595 3.583,-15.372 5.527,-15.372C7.47,-15.372 8.419,-14.595 8.419,-13.04L8.419,11.831C8.419,13.429 7.427,14.163 5.57,14.163C3.756,14.163 3.022,13.516 3.022,12.35L3.022,12.091C1.9,13.472 0.216,14.206 -1.943,14.206C-6.693,14.206 -10.45,10.622 -10.45,4.404C-10.45,-1.899 -6.606,-5.829 -0.777,-5.829" style="fill:rgb(76,76,78);fill-rule:nonzero;"/>
            </g>
            <g transform="matrix(1,0,0,1,214.297,169.486)">
                <path d="M0,15.371C0,16.926 -0.951,17.703 -2.894,17.703C-4.837,17.703 -5.786,16.926 -5.786,15.371L-5.786,0.043C-5.786,-1.513 -4.88,-2.289 -2.98,-2.289C-0.993,-2.289 -0.26,-1.296 -0.303,0.043L-0.303,0.906C0.604,-0.994 2.375,-2.332 4.663,-2.332C6.304,-2.332 7.038,-1.555 7.038,0.258C7.038,2.288 6.131,2.849 4.404,2.935C2.029,3.021 0.863,3.497 0,4.836L0,15.371Z" style="fill:rgb(76,76,78);fill-rule:nonzero;"/>
            </g>
            <g transform="matrix(1,0,0,1,227.276,173.243)">
                <path d="M0,7.815C0,8.808 0.647,9.586 2.288,9.586C3.411,9.586 4.533,9.197 5.527,8.377L5.527,4.879C1.813,5.354 0,6.131 0,7.815M2.548,-1.382C1.511,-1.382 0.259,-1.123 -1.036,-0.518C-1.771,-0.173 -2.332,0.086 -2.85,0.086C-4.188,0.086 -5.053,-1.511 -5.053,-2.634C-5.053,-3.455 -4.577,-4.059 -3.497,-4.664C-1.685,-5.657 0.604,-6.132 3.065,-6.132C6.175,-6.132 8.463,-5.355 9.759,-3.843C10.665,-2.764 11.097,-1.123 11.097,0.993L11.097,11.572C11.097,13.212 10.32,13.947 8.291,13.947C6.563,13.947 5.872,13.428 5.872,12.176L5.872,11.831C4.62,13.255 2.85,13.947 0.518,13.947C-3.455,13.947 -5.872,11.788 -5.872,8.334C-5.872,4.448 -2.764,2.245 5.527,1.511L5.527,1.209C5.527,-0.432 4.793,-1.382 2.548,-1.382" style="fill:rgb(76,76,78);fill-rule:nonzero;"/>
            </g>
            <g transform="matrix(1,0,0,1,249.859,180.021)">
                <path d="M0,2.504C2.85,2.504 4.576,0.648 4.576,-2.764C4.576,-6.261 2.806,-8.204 0.129,-8.204C-0.907,-8.204 -1.814,-7.902 -2.592,-7.297L-2.592,1.814C-1.857,2.288 -0.95,2.504 0,2.504M-2.592,12.997C-2.592,14.551 -3.541,15.328 -5.484,15.328C-7.428,15.328 -8.378,14.551 -8.378,12.997L-8.378,-10.492C-8.378,-12.09 -7.428,-12.824 -5.527,-12.824C-3.758,-12.824 -2.98,-12.134 -2.98,-11.011L-2.98,-10.752C-1.857,-12.134 -0.173,-12.824 1.985,-12.824C6.735,-12.824 10.492,-9.284 10.492,-3.065C10.492,3.281 6.649,7.211 0.819,7.211C-0.562,7.211 -1.771,6.952 -2.592,6.477L-2.592,12.997Z" style="fill:rgb(76,76,78);fill-rule:nonzero;"/>
            </g>
        </g>
    </g>
    <defs>
        <linearGradient id="_Linear1" x1="0" y1="0" x2="1" y2="0" gradientUnits="userSpaceOnUse" gradientTransform="matrix(1,5.55112e-17,5.55112e-17,-1,-2.22045e-16,0.0273565)"><stop offset="0" style="stop-color:rgb(145,38,143);stop-opacity:1"/><stop offset="0.11" style="stop-color:rgb(145,38,143);stop-opacity:1"/><stop offset="0.92" style="stop-color:rgb(238,40,124);stop-opacity:1"/><stop offset="1" style="stop-color:rgb(238,40,124);stop-opacity:1"/></linearGradient>
    </defs>
</svg>
