<?xml version="1.0" encoding="UTF-8" standalone="no"?><!DOCTYPE svg PUBLIC "-//W3C//DTD SVG 1.1//EN" "http://www.w3.org/Graphics/SVG/1.1/DTD/svg11.dtd"><svg width="100%" height="100%" viewBox="0 0 245 105" version="1.1" xmlns="http://www.w3.org/2000/svg" xmlns:xlink="http://www.w3.org/1999/xlink" xml:space="preserve" xmlns:serif="http://www.serif.com/" style="fill-rule:evenodd;clip-rule:evenodd;stroke-linejoin:round;stroke-miterlimit:1.41421;"><g id="help"><path d="M37.627,44.886c0,-3.453 -2.8,-6.253 -6.252,-6.253l-3.126,0c-6.907,0 -12.505,5.598 -12.505,12.505l0,9.379c0,6.907 5.598,12.505 12.505,12.505l3.126,0c3.452,0 6.252,-2.8 6.252,-6.253l0,-21.883Zm34.388,28.136c6.907,0 12.505,-5.598 12.505,-12.505l0,-9.379c0,-6.907 -5.598,-12.505 -12.505,-12.505l-3.126,0c-3.452,0 -6.252,2.8 -6.252,6.253l0,21.883c0,3.453 2.8,6.253 6.252,6.253l3.126,0Zm-21.883,-68.777c-27.905,0 -49.124,23.218 -50.019,50.019l0,3.127c0,1.727 1.399,3.126 3.126,3.126l3.126,0c1.727,0 3.126,-1.399 3.126,-3.126l0,-3.127c0,-22.409 18.232,-40.64 40.641,-40.64c22.409,0 40.641,18.231 40.641,40.64l-0.024,0c0.016,0.475 0.024,32.38 0.024,32.38c0,4.562 -3.699,8.261 -8.261,8.261l-19.875,0c0,-5.18 -4.199,-9.379 -9.379,-9.379l-6.252,0c-5.18,0 -9.379,4.199 -9.379,9.379c0,5.18 4.199,9.379 9.379,9.379l35.506,0c9.742,0 17.639,-7.898 17.639,-17.64l0,-32.38c-0.895,-26.801 -22.114,-50.019 -50.019,-50.019Z" style="fill-rule:nonzero;"/><path d="M122.279,0.097c-6.543,0 -10.78,2.681 -14.107,7.461c-0.604,0.868 -0.418,2.057 0.424,2.695l3.536,2.681c0.85,0.645 2.06,0.494 2.726,-0.34c2.053,-2.572 3.576,-4.053 6.783,-4.053c2.522,0 5.641,1.623 5.641,4.068c0,1.849 -1.526,2.798 -4.016,4.194c-2.903,1.628 -6.746,3.654 -6.746,8.722l0,0.802c0,1.087 0.881,1.968 1.968,1.968l5.94,0c1.087,0 1.967,-0.881 1.967,-1.968l0,-0.473c0,-3.513 10.269,-3.659 10.269,-13.166c0,-7.16 -7.427,-12.591 -14.385,-12.591Zm-0.821,30.612c-3.131,0 -5.678,2.548 -5.678,5.679c0,3.13 2.547,5.678 5.678,5.678c3.131,0 5.678,-2.548 5.678,-5.678c0,-3.131 -2.547,-5.679 -5.678,-5.679Z" style="fill-rule:nonzero;"/><path d="M194.409,2.921c-27.928,0 -50.534,22.601 -50.534,50.534c0,27.928 22.601,50.534 50.534,50.534c9.812,0 19.427,-2.881 27.592,-8.196c2.446,-1.592 2.98,-4.949 1.131,-7.207l-2.074,-2.534c-1.563,-1.909 -4.315,-2.377 -6.393,-1.045c-6.009,3.854 -13.06,5.941 -20.256,5.941c-20.674,0 -37.493,-16.819 -37.493,-37.493c0,-20.674 16.819,-37.493 37.493,-37.493c20.405,0 37.493,11.741 37.493,32.603c0,7.903 -4.298,16.248 -11.853,17.054c-3.535,-0.093 -3.446,-2.62 -2.746,-6.118l4.775,-24.679c0.584,-3.017 -1.728,-5.819 -4.801,-5.819l-9.166,0c-1.394,0 -2.58,1.059 -2.737,2.444l-0.002,0.019c-2.995,-3.648 -8.242,-4.437 -12.22,-4.437c-15.197,0 -28.086,12.681 -28.086,30.862c0,13.307 7.496,21.573 19.562,21.573c5.498,0 11.69,-3.186 15.281,-7.811c1.94,6.949 8.275,6.949 14.408,6.949c22.192,0 30.626,-14.592 30.626,-30.037c0,-27.783 -22.41,-45.644 -50.534,-45.644Zm-4.418,62.033c-4.533,0 -7.35,-3.184 -7.35,-8.308c0,-9.168 6.272,-14.82 11.947,-14.82c4.543,0 7.254,3.106 7.254,8.308c0,9.182 -6.902,14.82 -11.851,14.82Z" style="fill-rule:nonzero;"/></g></svg>