<?xml version="1.0" encoding="UTF-8" standalone="no"?><!DOCTYPE svg PUBLIC "-//W3C//DTD SVG 1.1//EN" "http://www.w3.org/Graphics/SVG/1.1/DTD/svg11.dtd"><svg width="100%" height="100%" viewBox="0 0 245 102" version="1.1" xmlns="http://www.w3.org/2000/svg" xmlns:xlink="http://www.w3.org/1999/xlink" xml:space="preserve" xmlns:serif="http://www.serif.com/" style="fill-rule:evenodd;clip-rule:evenodd;stroke-linejoin:round;stroke-miterlimit:1.41421;"><g id="help"><path d="M37.627,42.602c0,-3.452 -2.8,-6.252 -6.252,-6.252l-3.126,0c-6.907,0 -12.505,5.598 -12.505,12.505l0,9.378c0,6.907 5.598,12.505 12.505,12.505l3.126,0c3.452,0 6.252,-2.8 6.252,-6.252l0,-21.884Zm34.388,28.136c6.907,0 12.505,-5.598 12.505,-12.505l0,-9.378c0,-6.907 -5.598,-12.505 -12.505,-12.505l-3.126,0c-3.452,0 -6.252,2.8 -6.252,6.252l0,21.884c0,3.452 2.8,6.252 6.252,6.252l3.126,0Zm-21.883,-68.776c-27.905,0 -49.124,23.217 -50.019,50.019l0,3.126c0,1.727 1.399,3.126 3.126,3.126l3.126,0c1.727,0 3.126,-1.399 3.126,-3.126l0,-3.126c0,-22.409 18.232,-40.641 40.641,-40.641c22.409,0 40.641,18.232 40.641,40.641l-0.024,0c0.016,0.475 0.024,32.379 0.024,32.379c0,4.563 -3.699,8.261 -8.261,8.261l-19.875,0c0,-5.179 -4.199,-9.378 -9.379,-9.378l-6.252,0c-5.18,0 -9.379,4.199 -9.379,9.378c0,5.18 4.199,9.379 9.379,9.379l35.506,0c9.742,0 17.639,-7.898 17.639,-17.64l0,-32.379c-0.895,-26.802 -22.114,-50.019 -50.019,-50.019Z" style="fill:#fff;fill-rule:nonzero;"/><path d="M194.409,0.932c-27.928,0 -50.534,22.601 -50.534,50.534c0,27.928 22.601,50.534 50.534,50.534c9.812,0 19.427,-2.881 27.592,-8.196c2.446,-1.593 2.98,-4.949 1.131,-7.208l-2.074,-2.533c-1.563,-1.91 -4.315,-2.378 -6.393,-1.045c-6.009,3.854 -13.06,5.941 -20.256,5.941c-20.674,0 -37.493,-16.819 -37.493,-37.493c0,-20.674 16.819,-37.493 37.493,-37.493c20.405,0 37.493,11.74 37.493,32.602c0,7.904 -4.298,16.249 -11.853,17.054c-3.535,-0.092 -3.446,-2.62 -2.746,-6.118l4.775,-24.678c0.584,-3.017 -1.728,-5.819 -4.801,-5.819l-9.166,0c-1.394,0 -2.58,1.058 -2.737,2.443l-0.002,0.019c-2.995,-3.647 -8.242,-4.437 -12.22,-4.437c-15.197,0 -28.086,12.681 -28.086,30.863c0,13.306 7.496,21.573 19.562,21.573c5.498,0 11.69,-3.187 15.281,-7.811c1.94,6.949 8.275,6.949 14.408,6.949c22.192,0 30.626,-14.593 30.626,-30.038c0,-27.783 -22.41,-45.643 -50.534,-45.643Zm-4.418,62.032c-4.533,0 -7.35,-3.183 -7.35,-8.307c0,-9.169 6.272,-14.82 11.947,-14.82c4.543,0 7.254,3.105 7.254,8.307c0,9.182 -6.902,14.82 -11.851,14.82Z" style="fill:#fff;fill-rule:nonzero;"/></g></svg>