<?xml version="1.0" encoding="UTF-8" standalone="no"?><!DOCTYPE svg PUBLIC "-//W3C//DTD SVG 1.1//EN" "http://www.w3.org/Graphics/SVG/1.1/DTD/svg11.dtd"><svg width="100%" height="100%" viewBox="0 0 321 102" version="1.1" xmlns="http://www.w3.org/2000/svg" xmlns:xlink="http://www.w3.org/1999/xlink" xml:space="preserve" xmlns:serif="http://www.serif.com/" style="fill-rule:evenodd;clip-rule:evenodd;stroke-linejoin:round;stroke-miterlimit:1.41421;"><g id="inform"><path d="M200.248,43.782c7.786,0 14.116,-6.409 14.116,-14.292c0,-7.883 -6.33,-14.292 -14.116,-14.292c-7.786,0 -14.116,6.409 -14.116,14.292c0,7.883 6.33,14.292 14.116,14.292Zm98.815,0c7.786,0 14.117,-6.409 14.117,-14.292c0,-7.883 -6.331,-14.292 -14.117,-14.292c-7.786,0 -14.116,6.409 -14.116,14.292c0,7.883 6.33,14.292 14.116,14.292Zm7.058,7.146l-14.116,0c-3.882,0 -7.389,1.585 -9.948,4.153c8.889,4.935 15.197,13.846 16.565,24.431l14.558,0c3.904,0 7.058,-3.194 7.058,-7.146l0,-7.146c0,-7.883 -6.331,-14.292 -14.117,-14.292Zm-56.465,0c13.653,0 24.703,-11.188 24.703,-25.011c0,-13.823 -11.05,-25.011 -24.703,-25.011c-13.654,0 -24.704,11.188 -24.704,25.011c0,13.823 11.05,25.011 24.704,25.011Zm16.939,7.146l-1.83,0c-4.588,2.233 -9.683,3.573 -15.109,3.573c-5.426,0 -10.5,-1.34 -15.109,-3.573l-1.831,0c-14.028,0 -25.41,11.523 -25.41,25.725l0,6.432c0,5.917 4.742,10.719 10.588,10.719l63.524,0c5.845,0 10.587,-4.802 10.587,-10.719l0,-6.432c0,-14.202 -11.382,-25.725 -25.41,-25.725Zm-49.341,-2.993c-2.559,-2.568 -6.066,-4.153 -9.948,-4.153l-14.116,0c-7.786,0 -14.117,6.409 -14.117,14.292l0,7.146c0,3.952 3.154,7.146 7.059,7.146l14.535,0c1.39,-10.585 7.698,-19.496 16.587,-24.431Z" style="fill-rule:nonzero;"/><path d="M44.071,51.951c13.738,0 24.872,-11.134 24.872,-24.872c0,-13.738 -11.134,-24.873 -24.872,-24.873c-13.739,0 -24.873,11.135 -24.873,24.873c0,13.738 11.134,24.872 24.873,24.872Zm18.615,6.335l-9.288,37.192l-6.218,-26.427l6.218,-10.881l-18.655,0l6.218,10.881l-6.218,26.427l-9.288,-37.192c-13.855,0.661 -24.911,11.99 -24.911,26l0,8.083c0,5.15 4.177,9.328 9.327,9.328l68.399,0c5.15,0 9.328,-4.178 9.328,-9.328l0,-8.083c0,-14.01 -11.057,-25.339 -24.912,-26Z" style="fill-rule:nonzero;"/><path d="M154.783,36.583c-6.594,-5.619 -16.4,-4.608 -22.453,1.637l-2.37,2.442l-2.371,-2.442c-6.04,-6.245 -15.859,-7.256 -22.452,-1.637c-7.557,6.45 -7.954,18.025 -1.192,25.016l23.283,24.041c1.504,1.552 3.947,1.552 5.451,0l23.283,-24.041c6.775,-6.991 6.377,-18.566 -1.179,-25.016Z" style="fill:#d53ad1;fill-rule:nonzero;"/></g></svg>