<?xml version="1.0" encoding="UTF-8" standalone="no"?><!DOCTYPE svg PUBLIC "-//W3C//DTD SVG 1.1//EN" "http://www.w3.org/Graphics/SVG/1.1/DTD/svg11.dtd"><svg width="100%" height="100%" viewBox="0 0 139 111" version="1.1" xmlns="http://www.w3.org/2000/svg" xmlns:xlink="http://www.w3.org/1999/xlink" xml:space="preserve" xmlns:serif="http://www.serif.com/" style="fill-rule:evenodd;clip-rule:evenodd;stroke-linejoin:round;stroke-miterlimit:1.41421;"><g id="reward"><clipPath id="_clip1"><rect x="0.915" y="48.184" width="137.625" height="62.816"/></clipPath><g clip-path="url(#_clip1)"><path d="M134.734,59.781l-24.773,-9.567c-0.881,-0.341 -2.709,-0.787 -4.774,0l-24.772,9.567c-2.301,0.893 -3.806,2.977 -3.806,5.294c0,23.728 14.773,40.142 28.578,45.479c2.065,0.786 3.871,0.34 4.774,0c11.032,-4.253 28.579,-19.008 28.579,-45.479c0,-2.317 -1.505,-4.401 -3.806,-5.294Zm-27.16,40.673l0,-40.205l20.537,7.931c-1.205,18.518 -13.096,28.787 -20.537,32.274Zm-58.49,-43.883c15.203,0 27.525,-12.183 27.525,-27.215c0,-15.032 -12.322,-27.214 -27.525,-27.214c-15.204,0 -27.526,12.182 -27.526,27.214c0,15.032 12.322,27.215 27.526,27.215Zm20.643,8.504c0,-0.531 0.172,-1.02 0.237,-1.53c-0.538,-0.022 -1.054,-0.171 -1.613,-0.171l-3.591,0c-4.774,2.169 -10.085,3.402 -15.676,3.402c-5.591,0 -10.881,-1.233 -15.677,-3.402l-3.591,0c-15.956,0 -28.901,12.8 -28.901,28.576l0,8.845c0,5.634 4.623,10.205 10.322,10.205l75.694,0c1.462,0 2.86,-0.319 4.128,-0.85c-11.612,-9.122 -21.332,-24.813 -21.332,-45.075Z" style="fill:#fff;fill-rule:nonzero;"/></g><path d="M13.059,94.124c-0.929,-0.919 -0.445,-0.66 -2.687,-1.254c-1.017,-0.269 -1.911,-0.787 -2.72,-1.408l-4.852,11.764c-0.47,1.139 0.407,2.376 1.65,2.33l5.636,-0.213l3.876,4.049c0.856,0.892 2.358,0.614 2.827,-0.525l5.567,-13.497c-1.159,0.639 -2.446,1.014 -3.776,1.014c-2.086,0 -4.046,-0.803 -5.521,-2.26Zm30.557,9.102l-4.853,-11.764c-0.808,0.622 -1.703,1.139 -2.72,1.408c-2.253,0.597 -1.759,0.337 -2.687,1.254c-1.475,1.457 -3.435,2.26 -5.521,2.26c-1.331,0 -2.617,-0.376 -3.777,-1.014l5.568,13.497c0.469,1.139 1.972,1.417 2.827,0.525l3.877,-4.049l5.636,0.213c1.243,0.046 2.12,-1.192 1.65,-2.33Zm-12.814,-11.496c1.635,-1.644 1.822,-1.502 4.149,-2.13c1.486,-0.4 2.648,-1.569 3.045,-3.064c0.8,-3.004 0.593,-2.641 2.776,-4.839c1.088,-1.094 1.513,-2.69 1.115,-4.185c-0.799,-3.002 -0.8,-2.583 0,-5.588c0.398,-1.495 -0.027,-3.091 -1.115,-4.185c-2.183,-2.198 -1.976,-1.836 -2.776,-4.839c-0.397,-1.495 -1.559,-2.664 -3.045,-3.064c-2.982,-0.805 -2.622,-0.595 -4.808,-2.793c-1.088,-1.095 -2.674,-1.523 -4.159,-1.122c-2.982,0.803 -2.565,0.804 -5.552,0c-1.485,-0.401 -3.072,0.026 -4.16,1.122c-2.183,2.197 -1.823,1.988 -4.806,2.793c-1.486,0.4 -2.648,1.569 -3.046,3.064c-0.799,3.003 -0.592,2.641 -2.775,4.839c-1.088,1.094 -1.514,2.69 -1.115,4.185c0.799,3 0.8,2.581 0,5.586c-0.398,1.496 0.027,3.092 1.115,4.187c2.183,2.198 1.975,1.835 2.775,4.839c0.398,1.495 1.56,2.664 3.046,3.064c2.393,0.646 2.572,0.544 4.148,2.13c1.415,1.425 3.619,1.68 5.32,0.616c1.386,-0.87 3.163,-0.87 4.549,0c1.7,1.064 3.904,0.809 5.319,-0.616Zm-17.685,-17.348c0,-5.608 4.518,-10.154 10.091,-10.154c5.573,0 10.091,4.546 10.091,10.154c0,5.608 -4.518,10.155 -10.091,10.155c-5.573,0 -10.091,-4.547 -10.091,-10.155Z" style="fill:#d53ad1;fill-rule:nonzero;stroke:#d53ad1;stroke-width:1px;"/><path d="M49.228,0.232c-15.42,0 -27.913,12.493 -27.913,27.913c0,15.419 12.493,27.912 27.913,27.912c15.419,0 27.912,-12.493 27.912,-27.912c0,-15.42 -12.493,-27.913 -27.912,-27.913Zm9.004,18.909c1.992,0 3.601,1.609 3.601,3.601c0,1.992 -1.609,3.602 -3.601,3.602c-1.993,0 -3.602,-1.61 -3.602,-3.602c0,-1.992 1.609,-3.601 3.602,-3.601Zm-18.009,0c1.993,0 3.602,1.609 3.602,3.601c0,1.992 -1.609,3.602 -3.602,3.602c-1.992,0 -3.601,-1.61 -3.601,-3.602c0,-1.992 1.609,-3.601 3.601,-3.601Zm21.925,19.156c-3.207,3.849 -7.912,6.055 -12.92,6.055c-5.009,0 -9.714,-2.206 -12.921,-6.055c-1.531,-1.835 1.238,-4.131 2.768,-2.307c2.522,3.027 6.213,4.749 10.153,4.749c3.939,0 7.63,-1.733 10.152,-4.749c1.508,-1.824 4.288,0.472 2.768,2.307Z" style="fill:#fff;fill-rule:nonzero;"/></g></svg>