<?xml version="1.0" encoding="UTF-8" standalone="no"?><!DOCTYPE svg PUBLIC "-//W3C//DTD SVG 1.1//EN" "http://www.w3.org/Graphics/SVG/1.1/DTD/svg11.dtd"><svg width="100%" height="100%" viewBox="0 0 139 112" version="1.1" xmlns="http://www.w3.org/2000/svg" xmlns:xlink="http://www.w3.org/1999/xlink" xml:space="preserve" xmlns:serif="http://www.serif.com/" style="fill-rule:evenodd;clip-rule:evenodd;stroke-linejoin:round;stroke-miterlimit:1.41421;"><g id="reward"><clipPath id="_clip1"><rect x="0.915" y="49.184" width="137.625" height="62.816"/></clipPath><g clip-path="url(#_clip1)"><path d="M134.734,60.781l-24.773,-9.567c-0.881,-0.341 -2.709,-0.787 -4.774,0l-24.772,9.567c-2.301,0.893 -3.806,2.977 -3.806,5.294c0,23.728 14.773,40.142 28.578,45.479c2.065,0.786 3.871,0.34 4.774,0c11.032,-4.253 28.579,-19.008 28.579,-45.479c0,-2.317 -1.505,-4.401 -3.806,-5.294Zm-27.16,40.673l0,-40.205l20.537,7.931c-1.205,18.518 -13.096,28.787 -20.537,32.274Zm-58.49,-43.883c15.203,0 27.525,-12.183 27.525,-27.215c0,-15.032 -12.322,-27.214 -27.525,-27.214c-15.204,0 -27.526,12.182 -27.526,27.214c0,15.032 12.322,27.215 27.526,27.215Zm20.643,8.504c0,-0.531 0.172,-1.02 0.237,-1.53c-0.538,-0.022 -1.054,-0.171 -1.613,-0.171l-3.591,0c-4.774,2.169 -10.085,3.402 -15.676,3.402c-5.591,0 -10.881,-1.233 -15.677,-3.402l-3.591,0c-15.956,0 -28.901,12.8 -28.901,28.576l0,8.845c0,5.634 4.623,10.205 10.322,10.205l75.694,0c1.462,0 2.86,-0.319 4.128,-0.85c-11.612,-9.122 -21.332,-24.813 -21.332,-45.075Z" style="fill-rule:nonzero;"/></g><path d="M24.269,93.736c-0.545,-0.539 -0.261,-0.387 -1.575,-0.735c-0.597,-0.158 -1.121,-0.462 -1.595,-0.826l-2.846,6.898c-0.275,0.668 0.239,1.393 0.968,1.366l3.304,-0.125l2.273,2.374c0.502,0.524 1.383,0.36 1.658,-0.307l3.265,-7.914c-0.68,0.374 -1.435,0.594 -2.215,0.594c-1.223,0 -2.372,-0.471 -3.237,-1.325Zm17.918,5.337l-2.846,-6.898c-0.474,0.364 -0.998,0.668 -1.595,0.826c-1.321,0.349 -1.032,0.197 -1.575,0.735c-0.865,0.854 -2.015,1.325 -3.238,1.325c-0.78,0 -1.535,-0.22 -2.215,-0.594l3.265,7.914c0.275,0.667 1.156,0.831 1.658,0.307l2.273,-2.374l3.305,0.125c0.729,0.027 1.243,-0.699 0.968,-1.366Zm-7.514,-6.741c0.958,-0.964 1.068,-0.881 2.433,-1.249c0.871,-0.235 1.552,-0.92 1.785,-1.797c0.469,-1.761 0.348,-1.548 1.628,-2.837c0.638,-0.642 0.887,-1.577 0.653,-2.454c-0.468,-1.76 -0.469,-1.515 0,-3.276c0.234,-0.877 -0.015,-1.813 -0.653,-2.455c-1.28,-1.288 -1.159,-1.076 -1.628,-2.837c-0.233,-0.877 -0.914,-1.562 -1.785,-1.797c-1.749,-0.472 -1.538,-0.348 -2.82,-1.638c-0.637,-0.641 -1.567,-0.892 -2.439,-0.657c-1.748,0.471 -1.504,0.471 -3.255,0c-0.871,-0.235 -1.801,0.015 -2.439,0.657c-1.28,1.289 -1.069,1.166 -2.818,1.638c-0.872,0.235 -1.553,0.92 -1.786,1.797c-0.469,1.761 -0.348,1.549 -1.628,2.837c-0.638,0.642 -0.887,1.578 -0.653,2.455c0.468,1.758 0.469,1.513 0,3.275c-0.233,0.877 0.015,1.813 0.653,2.455c1.28,1.289 1.159,1.076 1.628,2.837c0.233,0.877 0.914,1.562 1.786,1.797c1.403,0.379 1.508,0.319 2.432,1.249c0.83,0.836 2.122,0.985 3.119,0.361c0.813,-0.51 1.855,-0.51 2.668,0c0.996,0.624 2.289,0.475 3.119,-0.361Zm-10.37,-10.172c0,-3.289 2.649,-5.954 5.917,-5.954c3.267,0 5.917,2.665 5.917,5.954c0,3.288 -2.65,5.954 -5.917,5.954c-3.268,0 -5.917,-2.666 -5.917,-5.954Z" style="fill:#d53ad1;fill-rule:nonzero;stroke:#d53ad1;stroke-width:1px;"/><path d="M49.228,1.232c-15.42,0 -27.913,12.493 -27.913,27.913c0,15.419 12.493,27.912 27.913,27.912c15.419,0 27.912,-12.493 27.912,-27.912c0,-15.42 -12.493,-27.913 -27.912,-27.913Zm9.004,18.909c1.992,0 3.601,1.609 3.601,3.601c0,1.992 -1.609,3.602 -3.601,3.602c-1.993,0 -3.602,-1.61 -3.602,-3.602c0,-1.992 1.609,-3.601 3.602,-3.601Zm-18.009,0c1.993,0 3.602,1.609 3.602,3.601c0,1.992 -1.609,3.602 -3.602,3.602c-1.992,0 -3.601,-1.61 -3.601,-3.602c0,-1.992 1.609,-3.601 3.601,-3.601Zm21.925,19.156c-3.207,3.849 -7.912,6.055 -12.92,6.055c-5.009,0 -9.714,-2.206 -12.921,-6.055c-1.531,-1.835 1.238,-4.131 2.768,-2.307c2.522,3.027 6.213,4.749 10.153,4.749c3.939,0 7.63,-1.733 10.152,-4.749c1.508,-1.824 4.288,0.472 2.768,2.307Z" style="fill-rule:nonzero;stroke:#000;stroke-width:1px;"/></g></svg>