<?xml version="1.0" encoding="UTF-8" standalone="no"?><!DOCTYPE svg PUBLIC "-//W3C//DTD SVG 1.1//EN" "http://www.w3.org/Graphics/SVG/1.1/DTD/svg11.dtd"><svg width="100%" height="100%" viewBox="0 0 303 129" version="1.1" xmlns="http://www.w3.org/2000/svg" xmlns:xlink="http://www.w3.org/1999/xlink" xml:space="preserve" xmlns:serif="http://www.serif.com/" style="fill-rule:evenodd;clip-rule:evenodd;stroke-linejoin:round;stroke-miterlimit:1.41421;"><g id="use"><g id="Cloud"><path d="M201.863,30.126c0.699,-1.647 1.091,-3.448 1.091,-5.326c0,-8.158 -7.328,-14.777 -16.361,-14.777c-3.357,0 -6.493,0.924 -9.084,2.494c-4.72,-7.389 -13.531,-12.345 -23.638,-12.345c-15.066,0 -27.268,11.021 -27.268,24.628c0,0.416 0.017,0.831 0.034,1.247c-9.544,3.032 -16.395,11.252 -16.395,20.919c0,12.237 10.992,22.166 24.541,22.166l62.717,0c12.05,0 21.815,-8.82 21.815,-19.703c0,-9.528 -7.499,-17.487 -17.452,-19.303Z" style="fill-rule:nonzero;"/><path d="M197.567,31.934c0.64,-1.462 0.998,-3.061 0.998,-4.729c0,-7.244 -6.703,-13.122 -14.966,-13.122c-3.071,0 -5.94,0.821 -8.309,2.215c-4.319,-6.561 -12.378,-10.962 -21.623,-10.962c-13.781,0 -24.944,9.786 -24.944,21.869c0,0.369 0.016,0.738 0.032,1.107c-8.731,2.693 -14.998,9.992 -14.998,18.575c0,10.867 10.056,19.683 22.449,19.683l57.37,0c11.022,0 19.955,-7.832 19.955,-17.496c0,-8.46 -6.859,-15.527 -15.964,-17.14Z" style="fill:#fff;fill-rule:nonzero;"/></g><path d="M108.604,91.9l0,31.778c0,2.949 -2.373,5.322 -5.323,5.322l-25.723,0c-1.464,0 -2.661,-1.197 -2.661,-2.661l0,-24.837c0,-1.463 -1.198,-2.661 -2.661,-2.661l-15.967,0c-1.464,0 -2.661,1.198 -2.661,2.661l0,24.837c0,1.464 -1.197,2.661 -2.661,2.661l-25.724,0c-2.949,0 -5.322,-2.373 -5.322,-5.322l0,-31.778c0,-0.798 0.355,-1.552 0.976,-2.062l41.69,-34.328c0.976,-0.798 2.395,-0.798 3.393,0l41.69,34.328c0.599,0.51 0.954,1.264 0.954,2.062Zm18.538,-13.505l-18.538,-15.279l0,-30.713c0,-1.464 -1.198,-2.661 -2.662,-2.661l-12.418,0c-1.463,0 -2.661,1.197 -2.661,2.661l0,16.099l-19.847,-16.343c-3.925,-3.238 -9.602,-3.238 -13.527,0l-56.127,46.236c-1.131,0.932 -1.286,2.617 -0.355,3.748l5.655,6.874c0.932,1.131 2.617,1.287 3.748,0.355l52.157,-42.954c0.976,-0.798 2.395,-0.798 3.393,0l52.157,42.954c1.131,0.932 2.816,0.776 3.748,-0.355l5.654,-6.874c0.932,-1.153 0.754,-2.816 -0.377,-3.748Z" style="fill-rule:nonzero;"/><path d="M176.775,72.508l0,53.354c0,1.734 1.405,3.138 3.139,3.138l15.692,0l0,-62.768l-12.554,0c-3.466,0 -6.277,2.81 -6.277,6.276Zm70.615,-9.415l-4.708,0l0,-7.846c0,-0.867 -0.702,-1.569 -1.569,-1.569l-3.139,0c-0.867,0 -1.569,0.702 -1.569,1.569l0,12.554c0,0.867 0.702,1.569 1.569,1.569l9.416,0c0.867,0 1.569,-0.702 1.569,-1.569l0,-3.139c0,-0.867 -0.702,-1.569 -1.569,-1.569Zm27.019,-12.546l-31.384,-20.923c-2.104,-1.402 -4.859,-1.402 -6.963,0l-31.384,20.923c-1.744,1.163 -2.795,3.126 -2.795,5.222l0,73.231l25.107,0l0,-28.246c0,-1.734 1.404,-3.138 3.138,-3.138l18.831,0c1.734,0 3.138,1.404 3.138,3.138l0,28.246l25.108,0l0,-73.229c0,-2.099 -1.05,-4.06 -2.796,-5.224Zm-34.865,28.238c-8.666,0 -15.693,-7.026 -15.693,-15.692c0,-8.666 7.027,-15.692 15.693,-15.692c8.666,0 15.692,7.026 15.692,15.692c0,8.666 -7.026,15.692 -15.692,15.692Zm56.491,-12.553l-12.554,0l0,62.768l15.693,0c1.734,0 3.138,-1.404 3.138,-3.138l0,-53.354c0,-3.466 -2.811,-6.276 -6.277,-6.276Z" style="fill-rule:nonzero;"/></g></svg>