<?xml version="1.0" encoding="UTF-8" standalone="no"?><!DOCTYPE svg PUBLIC "-//W3C//DTD SVG 1.1//EN" "http://www.w3.org/Graphics/SVG/1.1/DTD/svg11.dtd"><svg width="100%" height="100%" viewBox="0 0 303 101" version="1.1" xmlns="http://www.w3.org/2000/svg" xmlns:xlink="http://www.w3.org/1999/xlink" xml:space="preserve" xmlns:serif="http://www.serif.com/" style="fill-rule:evenodd;clip-rule:evenodd;stroke-linejoin:round;stroke-miterlimit:1.41421;"><g id="use"><path d="M108.604,63.9l0,31.778c0,2.949 -2.373,5.322 -5.323,5.322l-25.723,0c-1.464,0 -2.661,-1.197 -2.661,-2.661l0,-24.837c0,-1.463 -1.198,-2.661 -2.661,-2.661l-15.967,0c-1.464,0 -2.661,1.198 -2.661,2.661l0,24.837c0,1.464 -1.197,2.661 -2.661,2.661l-25.724,0c-2.949,0 -5.322,-2.373 -5.322,-5.322l0,-31.778c0,-0.798 0.355,-1.552 0.976,-2.062l41.69,-34.328c0.976,-0.798 2.395,-0.798 3.393,0l41.69,34.328c0.599,0.51 0.954,1.264 0.954,2.062Zm18.538,-13.505l-18.538,-15.279l0,-30.713c0,-1.464 -1.198,-2.661 -2.662,-2.661l-12.418,0c-1.463,0 -2.661,1.197 -2.661,2.661l0,16.099l-19.847,-16.343c-3.925,-3.238 -9.602,-3.238 -13.527,0l-56.127,46.236c-1.131,0.932 -1.286,2.617 -0.355,3.748l5.655,6.874c0.932,1.131 2.617,1.287 3.748,0.355l52.157,-42.954c0.976,-0.798 2.395,-0.798 3.393,0l52.157,42.954c1.131,0.932 2.816,0.776 3.748,-0.355l5.654,-6.874c0.932,-1.153 0.754,-2.816 -0.377,-3.748Z" style="fill:#fff;fill-rule:nonzero;"/><path d="M176.775,44.508l0,53.354c0,1.734 1.405,3.138 3.139,3.138l15.692,0l0,-62.768l-12.554,0c-3.466,0 -6.277,2.81 -6.277,6.276Zm70.615,-9.415l-4.708,0l0,-7.846c0,-0.867 -0.702,-1.569 -1.569,-1.569l-3.139,0c-0.867,0 -1.569,0.702 -1.569,1.569l0,12.554c0,0.867 0.702,1.569 1.569,1.569l9.416,0c0.867,0 1.569,-0.702 1.569,-1.569l0,-3.139c0,-0.867 -0.702,-1.569 -1.569,-1.569Zm27.019,-12.546l-31.384,-20.923c-2.104,-1.402 -4.859,-1.402 -6.963,0l-31.384,20.923c-1.744,1.163 -2.795,3.126 -2.795,5.222l0,73.231l25.107,0l0,-28.246c0,-1.734 1.404,-3.138 3.138,-3.138l18.831,0c1.734,0 3.138,1.404 3.138,3.138l0,28.246l25.108,0l0,-73.229c0,-2.099 -1.05,-4.06 -2.796,-5.224Zm-34.865,28.238c-8.666,0 -15.693,-7.026 -15.693,-15.692c0,-8.666 7.027,-15.692 15.693,-15.692c8.666,0 15.692,7.026 15.692,15.692c0,8.666 -7.026,15.692 -15.692,15.692Zm56.491,-12.553l-12.554,0l0,62.768l15.693,0c1.734,0 3.138,-1.404 3.138,-3.138l0,-53.354c0,-3.466 -2.811,-6.276 -6.277,-6.276Z" style="fill:#fff;fill-rule:nonzero;"/></g></svg>