<?xml version="1.0" encoding="UTF-8" standalone="no"?><!DOCTYPE svg PUBLIC "-//W3C//DTD SVG 1.1//EN" "http://www.w3.org/Graphics/SVG/1.1/DTD/svg11.dtd"><svg width="100%" height="100%" viewBox="0 0 1333 1173" version="1.1" xmlns="http://www.w3.org/2000/svg" xmlns:xlink="http://www.w3.org/1999/xlink" xml:space="preserve" xmlns:serif="http://www.serif.com/" style="fill-rule:evenodd;clip-rule:evenodd;stroke-linecap:round;stroke-linejoin:round;stroke-miterlimit:1.5;"><rect id="Artboard1" x="0" y="0" width="1332.54" height="1172.21" style="fill:none;"/><g><rect id="basics-others-depend" x="-240.83" y="-26.963" width="1814" height="1202" style="fill:none;"/><g id="basic-rings"><path id="Ring-3" serif:id="Ring 3" d="M666.17,175.183c236.691,0 428.854,192.163 428.854,428.854c0,236.691 -192.163,428.854 -428.854,428.854c-236.691,0 -428.854,-192.163 -428.854,-428.854c0,-236.691 192.163,-428.854 428.854,-428.854Zm0,132.329c163.656,0 296.525,132.869 296.525,296.525c0,163.656 -132.869,296.525 -296.525,296.525c-163.656,0 -296.525,-132.869 -296.525,-296.525c0,-163.656 132.869,-296.525 296.525,-296.525Z" style="fill:#b73a7d;fill-opacity:0.17;stroke:#573351;stroke-width:5px;"/><path id="Ring-2" serif:id="Ring 2" d="M666.17,307.512c163.656,0 296.525,132.869 296.525,296.525c0,163.656 -132.869,296.525 -296.525,296.525c-163.656,0 -296.525,-132.869 -296.525,-296.525c0,-163.656 132.869,-296.525 296.525,-296.525Zm0,145.096c58.344,0 109.025,33.067 134.309,81.466c10.935,20.932 17.12,44.731 17.12,69.963c0,83.576 -67.853,151.429 -151.429,151.429c-83.576,0 -151.429,-67.853 -151.429,-151.429c0,-83.576 67.853,-151.429 151.429,-151.429Z" style="fill:#b73a7d;fill-opacity:0.32;stroke:#573351;stroke-width:5px;"/><circle id="Ring-1" serif:id="Ring 1" cx="666.17" cy="604.037" r="151.429" style="fill:#b73a7d;fill-opacity:0.7;stroke:#573351;stroke-width:5px;"/><g><path d="M638.609,521.355c0,-15.119 12.442,-27.56 27.561,-27.56c15.119,0 27.561,12.441 27.561,27.56c0,15.12 -12.442,27.561 -27.561,27.561c-15.119,0 -27.561,-12.441 -27.561,-27.561Z" style="fill:#fff;fill-rule:nonzero;"/><path d="M637.717,520.99l0.003,-0.182l0.002,-0.093l0.002,-0.089l0.005,-0.182l0.006,-0.182l0.008,-0.181l0.008,-0.181l0.01,-0.181l0.01,-0.18l0.012,-0.18l0.013,-0.18l0.015,-0.18l0.015,-0.179l0.016,-0.179l0.018,-0.179l0.019,-0.178l0.019,-0.178l0.021,-0.178l0.022,-0.177l0.023,-0.177l0.025,-0.177l0.025,-0.177l0.026,-0.176l0.028,-0.176l0.028,-0.175l0.03,-0.175l0.031,-0.175l0.032,-0.174l0.033,-0.175l0.034,-0.173l0.035,-0.174l0.036,-0.173l0.037,-0.172l0.038,-0.172l0.039,-0.172l0.04,-0.172l0.042,-0.171l0.042,-0.171l0.043,-0.17l0.045,-0.17l0.045,-0.169l0.047,-0.17l0.047,-0.168l0.049,-0.169l0.049,-0.167l0.051,-0.168l0.051,-0.167l0.053,-0.167l0.053,-0.166l0.055,-0.166l0.055,-0.165l0.057,-0.165l0.057,-0.164l0.051,-0.142l0.008,-0.022l0.059,-0.164l0.061,-0.163l0.061,-0.163l0.063,-0.162l0.063,-0.162l0.064,-0.161l0.065,-0.161l0.067,-0.16l0.067,-0.16l0.068,-0.159l0.069,-0.159l0.07,-0.158l0.071,-0.158l0.072,-0.158l0.072,-0.157l0.074,-0.156l0.075,-0.156l0.075,-0.155l0.077,-0.155l0.077,-0.155l0.078,-0.153l0.079,-0.154l0.08,-0.152l0.081,-0.153l0.082,-0.151l0.083,-0.152l0.083,-0.15l0.085,-0.15l0.085,-0.15l0.086,-0.149l0.087,-0.148l0.088,-0.148l0.089,-0.147l0.09,-0.147l0.09,-0.146l0.092,-0.146l0.092,-0.145l0.093,-0.144l0.094,-0.144l0.094,-0.144l0.096,-0.142l0.096,-0.142l0.097,-0.142l0.098,-0.141l0.099,-0.14l0.1,-0.14l0.1,-0.139l0.102,-0.138l0.102,-0.138l0.103,-0.137l0.103,-0.137l0.105,-0.136l0.105,-0.135l0.106,-0.135l0.107,-0.134l0.107,-0.133l0.109,-0.133l0.109,-0.132l0.11,-0.132l0.11,-0.13l0.112,-0.131l0.112,-0.129l0.113,-0.129l0.114,-0.128l0.114,-0.127l0.115,-0.127l0.116,-0.126l0.117,-0.126l0.117,-0.125l0.118,-0.124l0.119,-0.123l0.12,-0.123l0.12,-0.122l0.121,-0.121l0.122,-0.12l0.122,-0.12l0.124,-0.119l0.123,-0.119l0.125,-0.117l0.125,-0.117l0.126,-0.117l0.127,-0.115l0.127,-0.115l0.128,-0.114l0.129,-0.113l0.129,-0.113l0.13,-0.111l0.131,-0.111l0.131,-0.111l0.023,-0.019l0.109,-0.09l0.133,-0.108l0.133,-0.108l0.135,-0.107l0.134,-0.107l0.136,-0.105l0.136,-0.105l0.136,-0.103l0.138,-0.104l0.138,-0.102l0.138,-0.101l0.139,-0.101l0.14,-0.1l0.141,-0.099l0.141,-0.098l0.141,-0.098l0.143,-0.096l0.143,-0.096l0.143,-0.095l0.144,-0.094l0.145,-0.093l0.145,-0.093l0.146,-0.091l0.146,-0.091l0.147,-0.09l0.148,-0.089l0.148,-0.088l0.149,-0.087l0.149,-0.087l0.15,-0.085l0.15,-0.085l0.151,-0.084l0.152,-0.083l0.152,-0.082l0.152,-0.081l0.153,-0.08l0.154,-0.079l0.154,-0.079l0.155,-0.077l0.155,-0.077l0.156,-0.076l0.156,-0.075l0.157,-0.073l0.157,-0.073l0.158,-0.072l0.159,-0.072l0.159,-0.07l0.159,-0.069l0.16,-0.068l0.16,-0.068l0.161,-0.066l0.161,-0.066l0.162,-0.064l0.162,-0.064l0.163,-0.062l0.163,-0.062l0.164,-0.061l0.164,-0.059l0.165,-0.059l0.165,-0.058l0.165,-0.056l0.166,-0.056l0.167,-0.055l0.166,-0.054l0.168,-0.052l0.167,-0.052l0.169,-0.051l0.168,-0.05l0.169,-0.048l0.17,-0.048l0.169,-0.047l0.171,-0.045l0.17,-0.045l0.171,-0.044l0.172,-0.042l0.172,-0.042l0.172,-0.04l0.173,-0.04l0.173,-0.038l0.173,-0.037l0.174,-0.036l0.174,-0.036l0.175,-0.034l0.175,-0.033l0.175,-0.032l0.175,-0.031l0.176,-0.029l0.177,-0.029l0.177,-0.028l0.177,-0.026l0.177,-0.026l0.178,-0.024l0.178,-0.023l0.178,-0.023l0.179,-0.021l0.179,-0.019l0.179,-0.019l0.18,-0.018l0.18,-0.016l0.18,-0.016l0.181,-0.014l0.181,-0.013l0.181,-0.012l0.182,-0.011l0.182,-0.01l0.064,-0.003l0.118,-0.005l0.182,-0.007l0.183,-0.006l0.183,-0.005l0.183,-0.003l0.183,-0.003l0.184,-0.001l0.184,0l0.183,0.001l0.366,0.006l0.183,0.005l0.183,0.006l0.182,0.007l0.182,0.008l0.181,0.009l0.182,0.011l0.181,0.011l0.181,0.013l0.18,0.014l0.181,0.015l0.18,0.016l0.179,0.018l0.18,0.018l0.179,0.02l0.178,0.02l0.179,0.022l0.178,0.023l0.178,0.024l0.177,0.025l0.177,0.026l0.354,0.056l0.352,0.06l0.175,0.032l0.35,0.066l0.174,0.035l0.174,0.036l0.174,0.037l0.173,0.038l0.173,0.039l0.172,0.041l0.173,0.041l0.171,0.042l0.172,0.044l0.171,0.044l0.17,0.045l0.34,0.094l0.338,0.098l0.074,0.022l0.095,0.029l0.168,0.052l0.167,0.053l0.168,0.054l0.166,0.055l0.332,0.112l0.166,0.058l0.165,0.059l0.164,0.06l0.164,0.061l0.164,0.062l0.163,0.063l0.162,0.063l0.162,0.065l0.162,0.066l0.322,0.134l0.32,0.138l0.318,0.142l0.158,0.072l0.158,0.074l0.157,0.074l0.156,0.075l0.157,0.076l0.155,0.077l0.155,0.078l0.155,0.079l0.154,0.079l0.154,0.081l0.153,0.082l0.152,0.082l0.152,0.083l0.151,0.084l0.151,0.086l0.15,0.085l0.15,0.087l0.149,0.088l0.149,0.089l0.148,0.089l0.147,0.09l0.147,0.091l0.146,0.092l0.146,0.093l0.145,0.094l0.145,0.095l0.143,0.095l0.144,0.096l0.142,0.097l0.143,0.098l0.141,0.099l0.141,0.1l0.011,0.008l0.129,0.092l0.278,0.204l0.138,0.103l0.138,0.104l0.136,0.105l0.137,0.106l0.135,0.106l0.135,0.107l0.134,0.108l0.134,0.109l0.133,0.109l0.264,0.222l0.131,0.112l0.13,0.112l0.129,0.113l0.129,0.115l0.129,0.114l0.254,0.232l0.126,0.117l0.125,0.118l0.125,0.119l0.124,0.119l0.124,0.12l0.244,0.242l0.121,0.122l0.121,0.123l0.238,0.248l0.119,0.125l0.234,0.252l0.116,0.127l0.115,0.128l0.115,0.129l0.114,0.129l0.113,0.129l0.112,0.131l0.111,0.131l0.111,0.132l0.11,0.132l0.109,0.134l0.108,0.133l0.108,0.135l0.107,0.135l0.106,0.136l0.105,0.136l0.105,0.137l0.206,0.276l0.102,0.139l0.202,0.28l0.198,0.282l0.098,0.142l0.097,0.143l0.096,0.143l0.096,0.144l0.094,0.144l0.094,0.145l0.093,0.146l0.092,0.146l0.091,0.147l0.09,0.147l0.09,0.148l0.088,0.148l0.088,0.149l0.087,0.15l0.086,0.15l0.085,0.151l0.084,0.151l0.166,0.304l0.081,0.153l0.081,0.154l0.01,0.02l0.069,0.134l0.079,0.155l0.078,0.155l0.076,0.155l0.076,0.157l0.075,0.156l0.074,0.157l0.073,0.158l0.072,0.158l0.072,0.159l0.07,0.159l0.138,0.32l0.134,0.322l0.13,0.324l0.063,0.162l0.063,0.163l0.062,0.164l0.12,0.328l0.059,0.165l0.057,0.166l0.057,0.165l0.056,0.167l0.055,0.166l0.053,0.167l0.053,0.168l0.052,0.168l0.05,0.168l0.05,0.169l0.049,0.169l0.094,0.34l0.046,0.17l0.088,0.342l0.084,0.344l0.04,0.172l0.078,0.346l0.037,0.174l0.036,0.174l0.035,0.174l0.034,0.174l0.033,0.175l0.032,0.176l0.031,0.175l0.029,0.176l0.029,0.177l0.054,0.354l0.025,0.177l0.024,0.178l0.023,0.178l0.022,0.178l0.021,0.179l0.02,0.179l0.019,0.179l0.017,0.18l0.016,0.179l0.016,0.181l0.014,0.18l0.013,0.181l0.012,0.181l0.01,0.181l0.01,0.182l0.008,0.182l0.007,0.182l0.006,0.182l0.005,0.183l0.004,0.183l0.003,0.183l0.001,0.184l0,0.183l-0.001,0.184l-0.002,0.183l-0.003,0.184l-0.005,0.182l-0.005,0.183l-0.007,0.182l-0.008,0.183l-0.009,0.181l-0.011,0.182l-0.011,0.181l-0.013,0.181l-0.013,0.181l-0.015,0.18l-0.016,0.18l-0.017,0.18l-0.019,0.179l-0.019,0.179l-0.021,0.179l-0.021,0.179l-0.023,0.178l-0.004,0.029l-0.02,0.149l-0.025,0.177l-0.026,0.177l-0.027,0.177l-0.029,0.177l-0.029,0.176l-0.031,0.175l-0.031,0.176l-0.033,0.175l-0.034,0.174l-0.035,0.175l-0.035,0.174l-0.037,0.173l-0.038,0.173l-0.04,0.173l-0.04,0.173l-0.041,0.172l-0.042,0.171l-0.043,0.171l-0.045,0.171l-0.045,0.171l-0.046,0.17l-0.048,0.169l-0.048,0.169l-0.05,0.169l-0.05,0.168l-0.052,0.168l-0.052,0.168l-0.053,0.167l-0.055,0.166l-0.055,0.166l-0.057,0.166l-0.057,0.165l-0.059,0.165l-0.059,0.164l-0.061,0.164l-0.061,0.164l-0.062,0.163l-0.064,0.162l-0.064,0.162l-0.065,0.162l-0.066,0.161l-0.067,0.16l-0.069,0.16l-0.069,0.16l-0.07,0.159l-0.07,0.158l-0.072,0.158l-0.073,0.158l-0.074,0.157l-0.074,0.157l-0.076,0.156l-0.076,0.155l-0.078,0.155l-0.078,0.154l-0.079,0.154l-0.08,0.154l-0.081,0.153l-0.082,0.152l-0.083,0.152l-0.084,0.151l-0.084,0.15l-0.086,0.15l-0.086,0.15l-0.087,0.149l-0.088,0.148l-0.089,0.148l-0.09,0.147l-0.09,0.147l-0.092,0.146l-0.092,0.146l-0.093,0.144l-0.094,0.145l-0.095,0.144l-0.096,0.143l-0.096,0.142l-0.097,0.142l-0.099,0.141l-0.099,0.141l-0.099,0.14l-0.101,0.14l-0.101,0.138l-0.103,0.139l-0.103,0.137l-0.103,0.137l-0.105,0.136l-0.105,0.136l-0.107,0.135l-0.107,0.134l-0.107,0.134l-0.109,0.133l-0.109,0.132l-0.11,0.132l-0.111,0.131l-0.112,0.131l-0.112,0.129l-0.113,0.129l-0.114,0.129l-0.115,0.127l-0.115,0.127l-0.116,0.127l-0.117,0.125l-0.117,0.125l-0.119,0.124l-0.119,0.124l-0.12,0.123l-0.12,0.122l-0.121,0.121l-0.122,0.121l-0.123,0.12l-0.123,0.119l-0.124,0.118l-0.125,0.118l-0.125,0.117l-0.126,0.116l-0.127,0.116l-0.127,0.115l-0.129,0.114l-0.128,0.113l-0.13,0.112l-0.13,0.112l-0.131,0.111l-0.131,0.11l-0.133,0.11l-0.132,0.108l-0.134,0.108l-0.134,0.107l-0.135,0.107l-0.135,0.105l-0.136,0.105l-0.137,0.104l-0.137,0.103l-0.138,0.102l-0.139,0.102l-0.139,0.101l-0.14,0.1l-0.14,0.099l-0.141,0.098l-0.142,0.097l-0.142,0.097l-0.143,0.096l-0.143,0.095l-0.144,0.094l-0.145,0.093l-0.145,0.093l-0.145,0.091l-0.147,0.091l-0.147,0.09l-0.147,0.089l-0.148,0.088l-0.149,0.087l-0.149,0.086l-0.15,0.086l-0.15,0.085l-0.151,0.083l-0.151,0.083l-0.152,0.082l-0.152,0.081l-0.153,0.081l-0.154,0.079l-0.154,0.078l-0.155,0.078l-0.155,0.076l-0.155,0.076l-0.156,0.075l-0.157,0.073l-0.157,0.073l-0.158,0.072l-0.158,0.071l-0.158,0.07l-0.159,0.07l-0.16,0.068l-0.16,0.067l-0.161,0.066l-0.161,0.066l-0.161,0.064l-0.162,0.064l-0.163,0.062l-0.163,0.062l-0.163,0.06l-0.164,0.06l-0.164,0.058l-0.165,0.058l-0.165,0.057l-0.165,0.055l-0.166,0.055l-0.167,0.053l-0.167,0.053l-0.167,0.052l-0.168,0.05l-0.168,0.05l-0.169,0.048l-0.169,0.048l-0.169,0.047l-0.17,0.045l-0.17,0.045l-0.171,0.043l-0.171,0.042l-0.171,0.042l-0.172,0.04l-0.172,0.039l-0.172,0.039l-0.173,0.037l-0.173,0.036l-0.174,0.035l-0.174,0.034l-0.174,0.033l-0.175,0.032l-0.175,0.03l-0.176,0.03l-0.175,0.029l-0.176,0.027l-0.177,0.027l-0.176,0.025l-0.178,0.024l-0.177,0.023l-0.178,0.022l-0.178,0.021l-0.178,0.02l-0.179,0.019l-0.179,0.017l-0.179,0.017l-0.147,0.012l-0.032,0.003l-0.18,0.014l-0.18,0.013l-0.181,0.012l-0.181,0.011l-0.181,0.009l-0.181,0.009l-0.181,0.007l-0.182,0.006l-0.182,0.005l-0.183,0.004l-0.182,0.002l-0.183,0.002l-0.183,0l-0.183,-0.001l-0.183,-0.002l-0.182,-0.003l-0.183,-0.005l-0.182,-0.005l-0.181,-0.007l-0.182,-0.008l-0.181,-0.009l-0.181,-0.01l-0.181,-0.011l-0.18,-0.013l-0.18,-0.013l-0.18,-0.015l-0.179,-0.016l-0.179,-0.017l-0.179,-0.018l-0.179,-0.019l-0.178,-0.02l-0.178,-0.022l-0.178,-0.022l-0.177,-0.024l-0.177,-0.025l-0.176,-0.026l-0.177,-0.027l-0.175,-0.028l-0.176,-0.029l-0.175,-0.03l-0.175,-0.031l-0.175,-0.033l-0.174,-0.033l-0.173,-0.035l-0.174,-0.035l-0.173,-0.037l-0.172,-0.037l-0.173,-0.039l-0.172,-0.04l-0.171,-0.041l-0.171,-0.042l-0.171,-0.043l-0.17,-0.044l-0.17,-0.044l-0.17,-0.046l-0.169,-0.047l-0.168,-0.049l-0.169,-0.049l-0.168,-0.05l-0.167,-0.051l-0.167,-0.052l-0.167,-0.053l-0.166,-0.054l-0.165,-0.055l-0.166,-0.056l-0.165,-0.057l-0.164,-0.058l-0.164,-0.059l-0.163,-0.06l-0.163,-0.061l-0.163,-0.062l-0.162,-0.063l-0.161,-0.064l-0.162,-0.065l-0.16,-0.065l-0.16,-0.067l-0.16,-0.068l-0.159,-0.068l-0.159,-0.07l-0.158,-0.07l-0.158,-0.072l-0.157,-0.072l-0.157,-0.074l-0.156,-0.074l-0.155,-0.075l-0.156,-0.076l-0.154,-0.077l-0.154,-0.078l-0.154,-0.078l-0.153,-0.08l-0.152,-0.081l-0.152,-0.081l-0.152,-0.082l-0.151,-0.083l-0.15,-0.085l-0.15,-0.085l-0.149,-0.085l-0.149,-0.087l-0.148,-0.088l-0.147,-0.088l-0.147,-0.089l-0.147,-0.091l-0.145,-0.091l-0.146,-0.091l-0.144,-0.093l-0.144,-0.094l-0.144,-0.094l-0.143,-0.095l-0.142,-0.096l-0.142,-0.097l-0.141,-0.098l-0.14,-0.098l-0.14,-0.1l-0.139,-0.1l-0.139,-0.101l-0.138,-0.101l-0.137,-0.103l-0.137,-0.103l-0.136,-0.105l-0.135,-0.104l-0.135,-0.106l-0.134,-0.107l-0.134,-0.107l-0.133,-0.108l-0.132,-0.109l-0.131,-0.11l-0.131,-0.11l-0.131,-0.111l-0.129,-0.112l-0.129,-0.113l-0.128,-0.113l-0.128,-0.114l-0.126,-0.115l-0.127,-0.116l-0.125,-0.116l-0.125,-0.117l-0.124,-0.118l-0.123,-0.119l-0.123,-0.119l-0.122,-0.12l-0.121,-0.121l-0.121,-0.121l-0.119,-0.122l-0.12,-0.123l-0.118,-0.124l-0.118,-0.124l-0.116,-0.125l-0.117,-0.125l-0.115,-0.127l-0.115,-0.127l-0.114,-0.128l-0.113,-0.128l-0.112,-0.129l-0.112,-0.13l-0.111,-0.13l-0.11,-0.131l-0.109,-0.132l-0.109,-0.132l-0.108,-0.133l-0.107,-0.134l-0.106,-0.134l-0.106,-0.135l-0.104,-0.136l-0.104,-0.136l-0.103,-0.137l-0.103,-0.137l-0.101,-0.138l-0.101,-0.139l-0.1,-0.139l-0.099,-0.14l-0.098,-0.141l-0.097,-0.141l-0.097,-0.142l-0.096,-0.142l-0.095,-0.143l-0.094,-0.144l-0.093,-0.144l-0.092,-0.145l-0.092,-0.145l-0.091,-0.146l-0.09,-0.147l-0.089,-0.147l-0.088,-0.147l-0.087,-0.148l-0.086,-0.149l-0.086,-0.149l-0.085,-0.15l-0.083,-0.151l-0.083,-0.151l-0.082,-0.151l-0.081,-0.152l-0.081,-0.153l-0.079,-0.153l-0.078,-0.153l-0.078,-0.155l-0.077,-0.154l-0.075,-0.155l-0.075,-0.156l-0.074,-0.156l-0.073,-0.157l-0.072,-0.157l-0.071,-0.158l-0.07,-0.158l-0.069,-0.159l-0.069,-0.159l-0.067,-0.16l-0.066,-0.16l-0.066,-0.161l-0.064,-0.161l-0.064,-0.161l-0.062,-0.162l-0.062,-0.163l-0.061,-0.163l-0.059,-0.163l-0.059,-0.164l-0.058,-0.165l-0.056,-0.164l-0.056,-0.166l-0.055,-0.165l-0.053,-0.166l-0.053,-0.167l-0.052,-0.167l-0.051,-0.167l-0.049,-0.168l-0.049,-0.168l-0.048,-0.169l-0.046,-0.169l-0.046,-0.169l-0.045,-0.17l-0.043,-0.17l-0.043,-0.171l-0.041,-0.171l-0.041,-0.171l-0.039,-0.172l-0.038,-0.172l-0.038,-0.173l-0.036,-0.173l-0.035,-0.173l-0.034,-0.174l-0.033,-0.174l-0.032,-0.174l-0.031,-0.175l-0.03,-0.175l-0.029,-0.175l-0.027,-0.176l-0.027,-0.176l-0.025,-0.177l-0.025,-0.176l-0.023,-0.178l-0.022,-0.177l-0.021,-0.178l-0.02,-0.178l-0.019,-0.178l-0.018,-0.179l-0.016,-0.179l-0.016,-0.179l-0.014,-0.179l-0.013,-0.18l-0.012,-0.18l-0.011,-0.181l-0.01,-0.181l-0.008,-0.181l-0.008,-0.181l-0.006,-0.181l-0.003,-0.091l-0.002,-0.091l-0.004,-0.182l-0.003,-0.182l-0.002,-0.183l0,-0.182l0,-0.184l0.001,-0.182Zm1.789,0.708l0.002,0.17l0.004,0.171l0.005,0.17l0.014,0.34l0.008,0.17l0.009,0.169l0.011,0.169l0.011,0.168l0.013,0.169l0.013,0.168l0.015,0.168l0.016,0.167l0.017,0.168l0.017,0.167l0.019,0.166l0.02,0.167l0.021,0.166l0.022,0.166l0.023,0.165l0.024,0.165l0.025,0.165l0.026,0.164l0.027,0.165l0.028,0.163l0.029,0.164l0.062,0.326l0.032,0.162l0.033,0.163l0.034,0.161l0.035,0.162l0.036,0.161l0.037,0.161l0.038,0.16l0.039,0.16l0.04,0.16l0.041,0.159l0.042,0.159l0.043,0.159l0.044,0.158l0.045,0.158l0.092,0.314l0.048,0.157l0.098,0.312l0.102,0.31l0.052,0.155l0.108,0.308l0.055,0.153l0.056,0.153l0.057,0.153l0.058,0.152l0.059,0.151l0.059,0.152l0.061,0.15l0.061,0.151l0.063,0.15l0.063,0.149l0.064,0.149l0.065,0.149l0.066,0.148l0.067,0.147l0.067,0.148l0.069,0.146l0.069,0.147l0.07,0.145l0.072,0.146l0.071,0.144l0.073,0.145l0.074,0.143l0.074,0.144l0.076,0.143l0.076,0.142l0.077,0.142l0.078,0.141l0.079,0.141l0.079,0.14l0.08,0.14l0.164,0.278l0.082,0.138l0.084,0.138l0.084,0.137l0.258,0.408l0.088,0.135l0.088,0.134l0.089,0.134l0.09,0.134l0.091,0.132l0.184,0.264l0.093,0.131l0.094,0.131l0.094,0.129l0.096,0.13l0.096,0.128l0.097,0.129l0.097,0.127l0.098,0.127l0.099,0.126l0.1,0.126l0.202,0.25l0.102,0.124l0.206,0.246l0.104,0.122l0.105,0.121l0.106,0.121l0.106,0.12l0.107,0.12l0.108,0.119l0.108,0.118l0.109,0.117l0.22,0.234l0.112,0.115l0.111,0.115l0.226,0.228l0.114,0.113l0.114,0.112l0.116,0.112l0.115,0.111l0.234,0.22l0.118,0.109l0.118,0.108l0.119,0.107l0.12,0.107l0.12,0.106l0.121,0.105l0.122,0.105l0.122,0.104l0.246,0.206l0.124,0.101l0.25,0.202l0.126,0.099l0.127,0.099l0.127,0.098l0.256,0.194l0.129,0.096l0.129,0.095l0.13,0.094l0.131,0.094l0.131,0.093l0.132,0.092l0.132,0.091l0.266,0.18l0.134,0.089l0.135,0.088l0.27,0.174l0.137,0.085l0.136,0.085l0.138,0.084l0.137,0.084l0.139,0.082l0.138,0.082l0.14,0.081l0.14,0.08l0.14,0.079l0.282,0.156l0.142,0.077l0.142,0.076l0.143,0.075l0.144,0.074l0.288,0.146l0.29,0.142l0.146,0.07l0.146,0.069l0.294,0.136l0.296,0.132l0.148,0.064l0.149,0.064l0.15,0.063l0.15,0.062l0.15,0.061l0.302,0.12l0.304,0.116l0.152,0.056l0.153,0.056l0.154,0.055l0.153,0.054l0.155,0.052l0.154,0.052l0.155,0.052l0.156,0.05l0.155,0.049l0.157,0.048l0.156,0.047l0.157,0.047l0.158,0.045l0.157,0.045l0.158,0.043l0.159,0.043l0.318,0.082l0.16,0.039l0.159,0.039l0.161,0.038l0.16,0.036l0.161,0.036l0.162,0.035l0.162,0.034l0.324,0.064l0.163,0.031l0.163,0.03l0.163,0.028l0.164,0.028l0.164,0.027l0.164,0.025l0.165,0.025l0.165,0.024l0.165,0.022l0.166,0.022l0.332,0.04l0.166,0.018l0.167,0.018l0.167,0.016l0.168,0.015l0.167,0.015l0.168,0.013l0.168,0.012l0.169,0.011l0.169,0.01l0.169,0.009l0.169,0.008l0.169,0.007l0.34,0.01l0.171,0.004l0.17,0.002l0.342,0.002l0.171,-0.001l0.171,-0.002l0.17,-0.003l0.171,-0.004l0.17,-0.006l0.169,-0.006l0.17,-0.007l0.169,-0.009l0.169,-0.009l0.169,-0.011l0.168,-0.012l0.168,-0.012l0.168,-0.014l0.03,-0.003l0.138,-0.012l0.167,-0.016l0.167,-0.017l0.167,-0.018l0.166,-0.019l0.166,-0.02l0.166,-0.021l0.165,-0.022l0.165,-0.023l0.165,-0.024l0.165,-0.026l0.164,-0.026l0.164,-0.027l0.163,-0.028l0.163,-0.03l0.163,-0.03l0.163,-0.031l0.162,-0.032l0.162,-0.034l0.161,-0.034l0.161,-0.035l0.161,-0.036l0.161,-0.037l0.16,-0.039l0.159,-0.039l0.16,-0.04l0.159,-0.041l0.158,-0.042l0.158,-0.043l0.158,-0.044l0.158,-0.045l0.157,-0.046l0.156,-0.047l0.157,-0.047l0.155,-0.049l0.156,-0.05l0.155,-0.05l0.155,-0.052l0.154,-0.052l0.154,-0.054l0.153,-0.054l0.153,-0.055l0.153,-0.056l0.152,-0.057l0.152,-0.058l0.151,-0.059l0.151,-0.06l0.15,-0.06l0.15,-0.062l0.15,-0.062l0.149,-0.064l0.148,-0.064l0.148,-0.065l0.148,-0.066l0.147,-0.067l0.147,-0.067l0.146,-0.069l0.146,-0.069l0.146,-0.071l0.144,-0.071l0.145,-0.072l0.144,-0.073l0.143,-0.073l0.143,-0.075l0.142,-0.075l0.142,-0.076l0.142,-0.078l0.141,-0.077l0.14,-0.079l0.14,-0.08l0.139,-0.08l0.139,-0.081l0.138,-0.082l0.138,-0.083l0.137,-0.084l0.137,-0.084l0.136,-0.085l0.136,-0.086l0.135,-0.087l0.135,-0.088l0.134,-0.088l0.133,-0.089l0.133,-0.09l0.132,-0.091l0.132,-0.091l0.131,-0.092l0.131,-0.093l0.13,-0.094l0.129,-0.095l0.129,-0.095l0.128,-0.096l0.128,-0.097l0.127,-0.097l0.127,-0.099l0.126,-0.099l0.125,-0.099l0.124,-0.101l0.125,-0.101l0.123,-0.102l0.123,-0.103l0.122,-0.103l0.122,-0.104l0.121,-0.105l0.12,-0.105l0.12,-0.107l0.119,-0.106l0.118,-0.108l0.118,-0.108l0.117,-0.109l0.117,-0.11l0.116,-0.11l0.115,-0.111l0.114,-0.112l0.114,-0.113l0.113,-0.113l0.113,-0.113l0.112,-0.115l0.111,-0.115l0.11,-0.115l0.11,-0.117l0.109,-0.117l0.108,-0.117l0.108,-0.119l0.107,-0.119l0.107,-0.119l0.105,-0.12l0.105,-0.121l0.104,-0.121l0.104,-0.123l0.102,-0.122l0.102,-0.123l0.102,-0.124l0.1,-0.125l0.1,-0.125l0.099,-0.126l0.099,-0.126l0.097,-0.127l0.097,-0.127l0.096,-0.128l0.096,-0.129l0.094,-0.129l0.094,-0.13l0.093,-0.13l0.092,-0.131l0.092,-0.132l0.091,-0.132l0.09,-0.133l0.089,-0.133l0.088,-0.133l0.088,-0.135l0.087,-0.135l0.086,-0.135l0.085,-0.136l0.085,-0.136l0.083,-0.137l0.083,-0.138l0.082,-0.138l0.081,-0.138l0.081,-0.139l0.079,-0.14l0.079,-0.14l0.078,-0.14l0.077,-0.142l0.076,-0.141l0.076,-0.142l0.075,-0.143l0.073,-0.143l0.073,-0.143l0.072,-0.144l0.071,-0.145l0.071,-0.145l0.069,-0.145l0.069,-0.146l0.068,-0.146l0.067,-0.147l0.066,-0.148l0.065,-0.147l0.064,-0.149l0.063,-0.148l0.063,-0.149l0.061,-0.15l0.061,-0.15l0.06,-0.15l0.059,-0.151l0.058,-0.151l0.057,-0.152l0.056,-0.152l0.055,-0.153l0.055,-0.152l0.053,-0.154l0.053,-0.154l0.051,-0.154l0.051,-0.154l0.05,-0.155l0.049,-0.156l0.047,-0.155l0.047,-0.156l0.046,-0.157l0.045,-0.157l0.044,-0.157l0.044,-0.158l0.042,-0.158l0.041,-0.158l0.04,-0.159l0.039,-0.159l0.039,-0.159l0.037,-0.16l0.036,-0.16l0.036,-0.161l0.034,-0.161l0.033,-0.161l0.033,-0.161l0.031,-0.162l0.031,-0.162l0.029,-0.163l0.028,-0.163l0.028,-0.163l0.026,-0.164l0.026,-0.163l0.024,-0.164l0.023,-0.165l0.022,-0.165l0.018,-0.138l0.004,-0.027l0.02,-0.165l0.019,-0.166l0.019,-0.165l0.017,-0.167l0.016,-0.166l0.015,-0.167l0.015,-0.167l0.013,-0.167l0.012,-0.168l0.011,-0.168l0.009,-0.168l0.009,-0.168l0.008,-0.169l0.007,-0.169l0.005,-0.169l0.005,-0.17l0.003,-0.169l0.003,-0.17l0.001,-0.17l0,-0.171l-0.001,-0.17l-0.002,-0.17l-0.003,-0.17l-0.004,-0.17l-0.006,-0.169l-0.006,-0.169l-0.007,-0.169l-0.009,-0.169l-0.01,-0.168l-0.01,-0.168l-0.012,-0.168l-0.013,-0.168l-0.013,-0.167l-0.015,-0.167l-0.016,-0.166l-0.017,-0.167l-0.018,-0.166l-0.019,-0.165l-0.02,-0.166l-0.022,-0.165l-0.022,-0.165l-0.023,-0.164l-0.024,-0.164l-0.025,-0.164l-0.026,-0.164l-0.028,-0.163l-0.028,-0.163l-0.029,-0.163l-0.03,-0.162l-0.032,-0.162l-0.032,-0.161l-0.033,-0.161l-0.034,-0.161l-0.035,-0.161l-0.037,-0.16l-0.037,-0.16l-0.038,-0.159l-0.039,-0.159l-0.04,-0.159l-0.041,-0.158l-0.042,-0.158l-0.043,-0.158l-0.044,-0.157l-0.045,-0.157l-0.045,-0.156l-0.047,-0.156l-0.048,-0.156l-0.048,-0.155l-0.05,-0.155l-0.05,-0.154l-0.052,-0.154l-0.052,-0.154l-0.053,-0.153l-0.055,-0.153l-0.055,-0.152l-0.056,-0.152l-0.057,-0.152l-0.057,-0.151l-0.059,-0.151l-0.06,-0.15l-0.06,-0.15l-0.061,-0.149l-0.063,-0.149l-0.063,-0.148l-0.064,-0.148l-0.065,-0.148l-0.066,-0.147l-0.066,-0.147l-0.068,-0.146l-0.068,-0.146l-0.069,-0.145l-0.07,-0.144l-0.071,-0.145l-0.072,-0.144l-0.073,-0.143l-0.073,-0.143l-0.065,-0.123l-0.01,-0.019l-0.075,-0.142l-0.075,-0.141l-0.077,-0.141l-0.077,-0.141l-0.079,-0.14l-0.079,-0.139l-0.08,-0.139l-0.08,-0.138l-0.082,-0.138l-0.082,-0.137l-0.084,-0.137l-0.083,-0.137l-0.085,-0.135l-0.086,-0.135l-0.086,-0.135l-0.087,-0.134l-0.088,-0.134l-0.089,-0.133l-0.089,-0.132l-0.091,-0.132l-0.091,-0.132l-0.091,-0.13l-0.093,-0.131l-0.093,-0.129l-0.094,-0.129l-0.095,-0.129l-0.096,-0.128l-0.096,-0.127l-0.097,-0.127l-0.098,-0.126l-0.098,-0.125l-0.1,-0.125l-0.099,-0.125l-0.101,-0.123l-0.102,-0.123l-0.102,-0.123l-0.103,-0.122l-0.103,-0.121l-0.105,-0.121l-0.105,-0.12l-0.105,-0.119l-0.107,-0.119l-0.107,-0.118l-0.107,-0.118l-0.109,-0.116l-0.109,-0.117l-0.11,-0.115l-0.11,-0.115l-0.112,-0.114l-0.111,-0.114l-0.113,-0.113l-0.113,-0.112l-0.114,-0.112l-0.115,-0.11l-0.115,-0.111l-0.116,-0.109l-0.116,-0.109l-0.117,-0.108l-0.118,-0.108l-0.118,-0.107l-0.119,-0.106l-0.12,-0.105l-0.12,-0.105l-0.121,-0.104l-0.121,-0.103l-0.123,-0.102l-0.122,-0.102l-0.124,-0.101l-0.124,-0.101l-0.124,-0.099l-0.125,-0.099l-0.126,-0.098l-0.126,-0.098l-0.127,-0.097l-0.128,-0.096l-0.128,-0.095l-0.129,-0.094l-0.129,-0.094l-0.119,-0.085l-0.011,-0.008l-0.13,-0.092l-0.131,-0.092l-0.131,-0.091l-0.132,-0.09l-0.132,-0.09l-0.133,-0.089l-0.133,-0.087l-0.134,-0.088l-0.135,-0.086l-0.135,-0.085l-0.136,-0.085l-0.136,-0.084l-0.137,-0.083l-0.137,-0.083l-0.138,-0.081l-0.138,-0.081l-0.139,-0.08l-0.139,-0.079l-0.14,-0.078l-0.14,-0.078l-0.141,-0.076l-0.142,-0.076l-0.141,-0.075l-0.143,-0.074l-0.143,-0.074l-0.143,-0.072l-0.144,-0.072l-0.144,-0.07l-0.145,-0.07l-0.145,-0.069l-0.146,-0.069l-0.146,-0.067l-0.147,-0.066l-0.147,-0.066l-0.147,-0.065l-0.148,-0.064l-0.149,-0.062l-0.149,-0.063l-0.149,-0.061l-0.15,-0.06l-0.15,-0.059l-0.151,-0.059l-0.151,-0.058l-0.151,-0.056l-0.152,-0.056l-0.152,-0.055l-0.153,-0.054l-0.153,-0.053l-0.154,-0.052l-0.154,-0.051l-0.154,-0.051l-0.155,-0.049l-0.155,-0.048l-0.088,-0.027l-0.068,-0.021l-0.156,-0.047l-0.156,-0.046l-0.157,-0.045l-0.157,-0.044l-0.157,-0.043l-0.158,-0.042l-0.158,-0.041l-0.159,-0.041l-0.159,-0.039l-0.159,-0.038l-0.16,-0.038l-0.16,-0.036l-0.16,-0.035l-0.161,-0.035l-0.161,-0.033l-0.161,-0.033l-0.162,-0.031l-0.162,-0.03l-0.163,-0.03l-0.162,-0.028l-0.164,-0.028l-0.163,-0.026l-0.164,-0.025l-0.164,-0.025l-0.164,-0.023l-0.165,-0.023l-0.165,-0.021l-0.165,-0.02l-0.166,-0.019l-0.166,-0.019l-0.166,-0.017l-0.167,-0.016l-0.167,-0.015l-0.167,-0.014l-0.167,-0.013l-0.168,-0.012l-0.168,-0.011l-0.168,-0.009l-0.169,-0.009l-0.169,-0.008l-0.169,-0.006l-0.169,-0.006l-0.17,-0.004l-0.169,-0.004l-0.171,-0.002l-0.17,-0.001l-0.17,0l-0.171,0.001l-0.169,0.002l-0.17,0.003l-0.17,0.005l-0.169,0.005l-0.109,0.004l-0.06,0.003l-0.168,0.007l-0.169,0.008l-0.168,0.009l-0.168,0.011l-0.167,0.011l-0.168,0.013l-0.167,0.013l-0.167,0.015l-0.166,0.016l-0.166,0.016l-0.166,0.018l-0.166,0.019l-0.166,0.02l-0.165,0.021l-0.164,0.022l-0.165,0.023l-0.164,0.023l-0.164,0.025l-0.164,0.026l-0.163,0.027l-0.163,0.029l-0.162,0.029l-0.163,0.03l-0.162,0.031l-0.161,0.032l-0.162,0.033l-0.161,0.034l-0.16,0.035l-0.161,0.036l-0.159,0.037l-0.16,0.038l-0.159,0.039l-0.159,0.04l-0.159,0.04l-0.158,0.042l-0.158,0.043l-0.157,0.044l-0.157,0.045l-0.157,0.045l-0.156,0.047l-0.156,0.048l-0.156,0.048l-0.155,0.049l-0.154,0.051l-0.155,0.051l-0.154,0.052l-0.153,0.054l-0.153,0.054l-0.153,0.055l-0.152,0.056l-0.152,0.057l-0.152,0.057l-0.151,0.059l-0.15,0.06l-0.15,0.06l-0.15,0.061l-0.149,0.063l-0.149,0.063l-0.149,0.064l-0.148,0.065l-0.147,0.066l-0.147,0.066l-0.147,0.068l-0.146,0.068l-0.146,0.07l-0.145,0.07l-0.145,0.071l-0.144,0.072l-0.144,0.072l-0.143,0.074l-0.143,0.074l-0.142,0.076l-0.142,0.076l-0.141,0.077l-0.141,0.078l-0.14,0.078l-0.14,0.08l-0.139,0.08l-0.139,0.081l-0.138,0.082l-0.138,0.083l-0.137,0.083l-0.137,0.085l-0.136,0.085l-0.136,0.086l-0.135,0.086l-0.134,0.088l-0.134,0.088l-0.134,0.089l-0.132,0.09l-0.133,0.091l-0.131,0.091l-0.132,0.093l-0.13,0.093l-0.13,0.094l-0.13,0.094l-0.129,0.095l-0.128,0.096l-0.128,0.097l-0.127,0.098l-0.126,0.098l-0.126,0.099l-0.126,0.1l-0.124,0.101l-0.103,0.083l-0.022,0.018l-0.123,0.102l-0.123,0.102l-0.123,0.103l-0.121,0.104l-0.122,0.105l-0.12,0.106l-0.12,0.106l-0.119,0.107l-0.119,0.107l-0.118,0.109l-0.117,0.109l-0.117,0.109l-0.116,0.111l-0.115,0.111l-0.115,0.112l-0.114,0.112l-0.114,0.113l-0.112,0.114l-0.112,0.114l-0.112,0.115l-0.11,0.116l-0.111,0.117l-0.109,0.117l-0.108,0.118l-0.108,0.118l-0.108,0.119l-0.106,0.12l-0.106,0.12l-0.105,0.121l-0.104,0.122l-0.104,0.122l-0.103,0.123l-0.102,0.123l-0.102,0.125l-0.101,0.124l-0.1,0.126l-0.099,0.126l-0.098,0.126l-0.098,0.127l-0.097,0.128l-0.097,0.129l-0.095,0.129l-0.095,0.129l-0.094,0.13l-0.093,0.131l-0.093,0.131l-0.092,0.132l-0.09,0.133l-0.091,0.133l-0.089,0.133l-0.089,0.134l-0.087,0.135l-0.087,0.135l-0.087,0.136l-0.085,0.136l-0.085,0.137l-0.084,0.138l-0.083,0.137l-0.082,0.139l-0.081,0.139l-0.081,0.14l-0.079,0.14l-0.079,0.14l-0.078,0.141l-0.078,0.142l-0.076,0.142l-0.076,0.143l-0.074,0.143l-0.074,0.143l-0.073,0.144l-0.072,0.145l-0.072,0.145l-0.07,0.146l-0.07,0.146l-0.068,0.146l-0.068,0.147l-0.067,0.148l-0.066,0.148l-0.065,0.148l-0.065,0.149l-0.063,0.149l-0.063,0.15l-0.061,0.15l-0.061,0.151l-0.06,0.151l-0.059,0.151l-0.058,0.152l-0.057,0.153l-0.056,0.152l-0.008,0.021l-0.047,0.133l-0.055,0.153l-0.053,0.154l-0.053,0.155l-0.051,0.155l-0.051,0.155l-0.05,0.156l-0.049,0.156l-0.048,0.157l-0.046,0.156l-0.046,0.158l-0.045,0.157l-0.044,0.158l-0.044,0.159l-0.042,0.159l-0.041,0.159l-0.04,0.16l-0.039,0.16l-0.038,0.16l-0.038,0.161l-0.036,0.161l-0.035,0.161l-0.034,0.162l-0.034,0.162l-0.032,0.162l-0.031,0.163l-0.031,0.163l-0.029,0.164l-0.028,0.163l-0.027,0.165l-0.027,0.164l-0.025,0.165l-0.024,0.165l-0.023,0.165l-0.022,0.166l-0.021,0.166l-0.02,0.166l-0.019,0.167l-0.018,0.167l-0.017,0.167l-0.016,0.168l-0.015,0.168l-0.014,0.168l-0.012,0.168l-0.012,0.169l-0.01,0.169l-0.01,0.169l-0.008,0.169l-0.008,0.17l-0.006,0.17l-0.005,0.17l-0.002,0.084l-0.002,0.087l-0.003,0.171l-0.002,0.171l-0.001,0.171l0.001,0.172l0.002,0.171Z" style="fill:#573351;"/><path d="M645.5,555.806l4.892,0c10.012,4.591 21.544,4.591 31.556,0l4.892,0c11.34,0 20.671,9.331 20.671,20.67l0,58.567c0,5.669 -4.666,10.335 -10.335,10.335l-6.89,0l0,58.566c0,5.67 -4.666,10.335 -10.336,10.335l-27.56,0c-5.67,0 -10.336,-4.665 -10.336,-10.335l0,-58.566l-6.89,0c-5.669,0 -10.335,-4.666 -10.335,-10.335l0,-58.567c0,-11.339 9.331,-20.67 20.671,-20.67Z" style="fill:#fff;fill-rule:nonzero;"/><path d="M645.373,556.7l-0.127,0.002l-0.127,0.002l-0.127,0.003l-0.126,0.003l-0.126,0.005l-0.126,0.005l-0.125,0.006l-0.126,0.007l-0.125,0.008l-0.022,0.002l-0.103,0.007l-0.125,0.009l-0.125,0.01l-0.124,0.011l-0.125,0.012l-0.124,0.012l-0.123,0.013l-0.124,0.014l-0.123,0.015l-0.124,0.016l-0.122,0.016l-0.123,0.017l-0.123,0.018l-0.122,0.018l-0.122,0.02l-0.121,0.02l-0.122,0.021l-0.121,0.021l-0.121,0.023l-0.121,0.023l-0.12,0.024l-0.121,0.024l-0.12,0.026l-0.119,0.026l-0.12,0.026l-0.119,0.028l-0.119,0.028l-0.119,0.029l-0.118,0.03l-0.118,0.03l-0.118,0.031l-0.117,0.032l-0.118,0.033l-0.117,0.033l-0.116,0.034l-0.117,0.034l-0.116,0.036l-0.116,0.036l-0.115,0.037l-0.116,0.037l-0.115,0.038l-0.114,0.039l-0.115,0.04l-0.114,0.04l-0.113,0.041l-0.114,0.041l-0.113,0.042l-0.113,0.043l-0.112,0.044l-0.112,0.044l-0.112,0.045l-0.111,0.046l-0.112,0.046l-0.11,0.047l-0.111,0.048l-0.11,0.048l-0.11,0.049l-0.109,0.049l-0.109,0.05l-0.109,0.051l-0.109,0.052l-0.108,0.052l-0.107,0.052l-0.108,0.054l-0.107,0.054l-0.106,0.055l-0.107,0.055l-0.106,0.056l-0.105,0.056l-0.105,0.057l-0.105,0.058l-0.104,0.058l-0.104,0.059l-0.104,0.06l-0.103,0.06l-0.102,0.06l-0.206,0.125l-0.203,0.125l-0.201,0.129l-0.2,0.13l-0.198,0.133l-0.196,0.135l-0.195,0.138l-0.193,0.139l-0.192,0.142l-0.189,0.145l-0.188,0.146l-0.186,0.149l-0.184,0.15l-0.183,0.153l-0.18,0.155l-0.179,0.158l-0.177,0.159l-0.175,0.161l-0.173,0.163l-0.171,0.166l-0.169,0.167l-0.167,0.17l-0.165,0.171l-0.163,0.173l-0.161,0.175l-0.158,0.178l-0.157,0.179l-0.155,0.18l-0.152,0.183l-0.151,0.185l-0.148,0.186l-0.146,0.188l-0.144,0.19l-0.141,0.192l-0.139,0.193l-0.137,0.195l-0.135,0.196l-0.132,0.199l-0.13,0.2l-0.128,0.201l-0.125,0.203l-0.124,0.206l-0.06,0.102l-0.06,0.104l-0.059,0.103l-0.059,0.104l-0.058,0.105l-0.057,0.105l-0.057,0.105l-0.057,0.105l-0.055,0.106l-0.055,0.107l-0.055,0.106l-0.053,0.107l-0.053,0.108l-0.053,0.108l-0.052,0.108l-0.051,0.108l-0.05,0.109l-0.05,0.109l-0.05,0.11l-0.048,0.109l-0.048,0.111l-0.047,0.11l-0.047,0.111l-0.046,0.111l-0.045,0.112l-0.045,0.111l-0.044,0.113l-0.043,0.112l-0.043,0.113l-0.042,0.113l-0.041,0.113l-0.04,0.114l-0.04,0.114l-0.04,0.114l-0.038,0.115l-0.038,0.115l-0.037,0.115l-0.036,0.115l-0.036,0.116l-0.035,0.116l-0.035,0.117l-0.033,0.116l-0.033,0.117l-0.032,0.118l-0.032,0.117l-0.031,0.118l-0.027,0.106l-0.003,0.012l-0.029,0.118l-0.029,0.119l-0.028,0.119l-0.027,0.119l-0.026,0.119l-0.026,0.12l-0.025,0.12l-0.024,0.12l-0.024,0.12l-0.022,0.121l-0.022,0.121l-0.022,0.121l-0.02,0.121l-0.02,0.122l-0.019,0.121l-0.018,0.123l-0.018,0.122l-0.017,0.122l-0.016,0.123l-0.015,0.123l-0.014,0.123l-0.014,0.124l-0.013,0.123l-0.012,0.124l-0.011,0.124l-0.011,0.125l-0.01,0.124l-0.009,0.125l-0.008,0.125l-0.007,0.125l-0.007,0.125l-0.006,0.126l-0.005,0.125l-0.004,0.126l-0.003,0.126l-0.003,0.127l-0.002,0.126l-0.001,0.127l0,0.128l0.219,58.561l0.001,0.122l0.003,0.117l0.005,0.117l0.006,0.117l0.007,0.116l0.009,0.116l0.011,0.116l0.011,0.115l0.014,0.115l0.014,0.114l0.016,0.114l0.018,0.113l0.019,0.113l0.02,0.112l0.022,0.112l0.023,0.112l0.01,0.046l0.014,0.064l0.026,0.111l0.027,0.11l0.028,0.109l0.03,0.109l0.031,0.109l0.032,0.108l0.034,0.107l0.035,0.107l0.036,0.106l0.037,0.105l0.039,0.106l0.04,0.104l0.041,0.104l0.086,0.206l0.045,0.102l0.046,0.101l0.048,0.101l0.048,0.1l0.05,0.099l0.051,0.099l0.052,0.098l0.053,0.098l0.054,0.096l0.112,0.192l0.058,0.094l0.059,0.094l0.059,0.093l0.061,0.092l0.062,0.092l0.064,0.091l0.064,0.09l0.065,0.089l0.066,0.088l0.067,0.088l0.069,0.087l0.069,0.085l0.07,0.085l0.072,0.085l0.072,0.083l0.073,0.082l0.074,0.082l0.076,0.081l0.076,0.08l0.077,0.078l0.078,0.078l0.078,0.077l0.08,0.077l0.081,0.075l0.081,0.074l0.083,0.073l0.083,0.072l0.084,0.071l0.085,0.071l0.086,0.069l0.086,0.068l0.088,0.067l0.088,0.066l0.089,0.066l0.09,0.064l0.09,0.063l0.184,0.122l0.093,0.06l0.093,0.059l0.094,0.057l0.095,0.057l0.096,0.055l0.096,0.054l0.097,0.053l0.098,0.052l0.098,0.05l0.099,0.05l0.1,0.048l0.1,0.047l0.101,0.046l0.101,0.045l0.102,0.043l0.103,0.043l0.103,0.041l0.104,0.039l0.105,0.039l0.105,0.037l0.105,0.036l0.106,0.035l0.214,0.066l0.107,0.03l0.108,0.03l0.109,0.028l0.109,0.027l0.11,0.026l0.11,0.024l0.11,0.023l0.111,0.021l0.111,0.02l0.112,0.019l0.113,0.018l0.112,0.016l0.113,0.014l0.114,0.013l0.114,0.012l0.114,0.01l0.115,0.009l0.115,0.008l0.115,0.005l0.116,0.005l0.116,0.003l0.116,0.001l0.121,0l6.886,-0.031l0.221,0.015l0.215,0.054l0.201,0.094l0.002,-0.004l0.185,0.125l0.161,0.155l0.133,0.182l0.098,0.202l0.063,0.217l0.024,0.226l0.089,15.177l0.259,43.384l0.002,0.117l0.003,0.09l0,0.021l0.005,0.11l0.005,0.111l0.007,0.11l0.009,0.109l0.01,0.109l0.011,0.109l0.012,0.108l0.014,0.108l0.015,0.108l0.017,0.107l0.018,0.106l0.019,0.106l0.021,0.106l0.021,0.105l0.023,0.105l0.05,0.208l0.027,0.103l0.028,0.103l0.03,0.103l0.03,0.101l0.032,0.102l0.033,0.101l0.07,0.2l0.037,0.099l0.038,0.098l0.039,0.098l0.04,0.098l0.041,0.097l0.086,0.192l0.045,0.095l0.046,0.095l0.047,0.094l0.048,0.093l0.049,0.093l0.051,0.092l0.051,0.091l0.052,0.091l0.054,0.09l0.11,0.178l0.057,0.088l0.058,0.087l0.058,0.086l0.06,0.086l0.061,0.085l0.124,0.168l0.064,0.083l0.065,0.082l0.065,0.081l0.134,0.16l0.069,0.079l0.069,0.078l0.07,0.077l0.072,0.076l0.144,0.15l0.074,0.074l0.15,0.144l0.077,0.071l0.077,0.07l0.078,0.07l0.079,0.068l0.079,0.067l0.162,0.132l0.082,0.064l0.083,0.064l0.083,0.062l0.084,0.062l0.085,0.06l0.086,0.06l0.086,0.058l0.087,0.057l0.088,0.057l0.088,0.055l0.089,0.054l0.09,0.054l0.091,0.052l0.091,0.051l0.091,0.05l0.093,0.049l0.093,0.048l0.093,0.046l0.094,0.046l0.19,0.088l0.096,0.042l0.096,0.041l0.097,0.04l0.196,0.076l0.099,0.036l0.099,0.035l0.099,0.034l0.1,0.033l0.202,0.062l0.101,0.029l0.102,0.027l0.103,0.027l0.103,0.025l0.103,0.024l0.104,0.023l0.104,0.022l0.105,0.02l0.105,0.019l0.106,0.017l0.105,0.017l0.107,0.015l0.106,0.013l0.107,0.013l0.108,0.011l0.216,0.018l0.109,0.007l0.108,0.005l0.11,0.004l0.109,0.003l0.11,0.001l0.116,0l21.511,-0.128l6.038,-0.023l0.115,-0.001l0.108,-0.003l0.107,-0.004l0.107,-0.005l0.107,-0.007l0.107,-0.008l0.106,-0.009l0.106,-0.011l0.105,-0.012l0.105,-0.014l0.104,-0.014l0.104,-0.016l0.104,-0.017l0.103,-0.019l0.103,-0.02l0.102,-0.021l0.102,-0.022l0.101,-0.023l0.101,-0.025l0.101,-0.026l0.1,-0.027l0.099,-0.029l0.099,-0.029l0.099,-0.031l0.098,-0.032l0.097,-0.033l0.097,-0.034l0.097,-0.036l0.096,-0.036l0.095,-0.038l0.095,-0.039l0.095,-0.04l0.093,-0.041l0.094,-0.043l0.092,-0.043l0.092,-0.044l0.092,-0.046l0.091,-0.047l0.09,-0.047l0.089,-0.049l0.089,-0.05l0.089,-0.051l0.088,-0.052l0.087,-0.053l0.086,-0.054l0.086,-0.055l0.085,-0.056l0.084,-0.057l0.084,-0.058l0.082,-0.059l0.083,-0.06l0.081,-0.061l0.081,-0.062l0.08,-0.063l0.079,-0.063l0.078,-0.065l0.078,-0.066l0.077,-0.066l0.076,-0.068l0.075,-0.068l0.074,-0.069l0.074,-0.07l0.073,-0.071l0.072,-0.072l0.071,-0.072l0.07,-0.074l0.069,-0.074l0.068,-0.075l0.068,-0.076l0.067,-0.076l0.065,-0.078l0.065,-0.078l0.064,-0.079l0.063,-0.08l0.062,-0.08l0.061,-0.081l0.06,-0.082l0.059,-0.083l0.058,-0.083l0.057,-0.084l0.056,-0.085l0.055,-0.085l0.054,-0.086l0.053,-0.087l0.052,-0.087l0.021,-0.035l0.03,-0.053l0.051,-0.089l0.049,-0.089l0.048,-0.089l0.047,-0.091l0.046,-0.091l0.045,-0.091l0.043,-0.092l0.043,-0.093l0.041,-0.093l0.041,-0.094l0.039,-0.094l0.038,-0.095l0.037,-0.095l0.036,-0.096l0.035,-0.096l0.033,-0.097l0.033,-0.098l0.031,-0.098l0.03,-0.098l0.029,-0.099l0.027,-0.099l0.027,-0.1l0.025,-0.1l0.024,-0.101l0.022,-0.101l0.022,-0.101l0.02,-0.102l0.019,-0.103l0.018,-0.102l0.016,-0.104l0.015,-0.103l0.014,-0.104l0.013,-0.104l0.011,-0.105l0.01,-0.105l0.008,-0.106l0.008,-0.106l0.006,-0.106l0.004,-0.107l0.004,-0.107l0.001,-0.107l0.001,-0.114l-0.015,-10.415l0.065,-31.21l0.089,-16.935l0.031,-0.313l0.085,-0.302l0.136,-0.282l0.182,-0.254l0.223,-0.217l0.257,-0.176l0.283,-0.128l0,0.001l0.3,-0.077l0.309,-0.023l6.884,0.03l0.116,0l0.11,-0.002l0.11,-0.002l0.109,-0.005l0.109,-0.005l0.108,-0.007l0.109,-0.008l0.108,-0.01l0.107,-0.011l0.107,-0.013l0.107,-0.013l0.106,-0.015l0.106,-0.017l0.105,-0.017l0.106,-0.019l0.104,-0.021l0.104,-0.021l0.085,-0.019l0.019,-0.004l0.104,-0.024l0.103,-0.025l0.102,-0.026l0.102,-0.027l0.102,-0.029l0.101,-0.03l0.101,-0.031l0.1,-0.033l0.1,-0.034l0.099,-0.034l0.099,-0.037l0.098,-0.037l0.097,-0.038l0.098,-0.04l0.096,-0.041l0.096,-0.041l0.096,-0.044l0.095,-0.044l0.094,-0.045l0.094,-0.047l0.093,-0.047l0.092,-0.049l0.092,-0.05l0.091,-0.05l0.091,-0.052l0.09,-0.053l0.089,-0.055l0.089,-0.055l0.088,-0.056l0.087,-0.057l0.087,-0.058l0.086,-0.06l0.085,-0.06l0.084,-0.061l0.084,-0.063l0.083,-0.063l0.082,-0.064l0.082,-0.066l0.08,-0.066l0.08,-0.067l0.079,-0.068l0.078,-0.069l0.078,-0.07l0.077,-0.071l0.075,-0.072l0.075,-0.073l0.074,-0.073l0.074,-0.075l0.072,-0.075l0.071,-0.076l0.071,-0.077l0.07,-0.078l0.068,-0.079l0.068,-0.08l0.067,-0.08l0.066,-0.081l0.065,-0.082l0.064,-0.083l0.063,-0.083l0.062,-0.085l0.061,-0.085l0.06,-0.086l0.059,-0.086l0.058,-0.087l0.057,-0.088l0.056,-0.089l0.055,-0.089l0.054,-0.09l0.053,-0.091l0.052,-0.092l0.05,-0.092l0.05,-0.092l0.048,-0.094l0.048,-0.094l0.046,-0.095l0.045,-0.095l0.044,-0.096l0.043,-0.096l0.042,-0.097l0.04,-0.098l0.039,-0.098l0.039,-0.099l0.037,-0.099l0.035,-0.1l0.035,-0.101l0.033,-0.101l0.033,-0.101l0.031,-0.102l0.029,-0.103l0.029,-0.103l0.027,-0.103l0.026,-0.105l0.025,-0.104l0.023,-0.105l0.022,-0.106l0.021,-0.106l0.019,-0.106l0.019,-0.107l0.016,-0.107l0.016,-0.108l0.014,-0.108l0.013,-0.109l0.012,-0.109l0.01,-0.109l0.008,-0.11l0.008,-0.11l0.006,-0.111l0.004,-0.111l0.003,-0.111l0.002,-0.118l0.111,-15.606l0.221,-28.65l0.11,-14.303l0.001,-0.127l-0.001,-0.125l-0.001,-0.125l-0.001,-0.124l-0.003,-0.125l-0.004,-0.124l-0.004,-0.124l-0.005,-0.124l-0.006,-0.124l-0.006,-0.124l-0.008,-0.123l-0.008,-0.123l-0.009,-0.123l-0.01,-0.123l-0.01,-0.123l-0.012,-0.122l-0.012,-0.122l-0.012,-0.122l-0.014,-0.122l-0.014,-0.122l-0.015,-0.121l-0.016,-0.121l-0.017,-0.121l-0.017,-0.121l-0.018,-0.12l-0.019,-0.121l-0.02,-0.12l-0.02,-0.119l-0.021,-0.12l-0.022,-0.119l-0.023,-0.119l-0.023,-0.119l-0.024,-0.119l-0.025,-0.118l-0.026,-0.118l-0.026,-0.118l-0.027,-0.118l-0.027,-0.117l-0.029,-0.117l-0.029,-0.117l-0.03,-0.117l-0.03,-0.116l-0.031,-0.116l-0.032,-0.116l-0.033,-0.115l-0.033,-0.116l-0.034,-0.115l-0.035,-0.114l-0.036,-0.115l-0.036,-0.114l-0.036,-0.114l-0.038,-0.113l-0.038,-0.114l-0.039,-0.113l-0.04,-0.112l-0.04,-0.113l-0.041,-0.112l-0.041,-0.111l-0.042,-0.112l-0.043,-0.111l-0.044,-0.111l-0.044,-0.11l-0.045,-0.111l-0.046,-0.11l-0.046,-0.109l-0.047,-0.109l-0.047,-0.109l-0.048,-0.109l-0.049,-0.108l-0.05,-0.108l-0.05,-0.108l-0.05,-0.107l-0.052,-0.107l-0.052,-0.107l-0.052,-0.106l-0.054,-0.106l-0.054,-0.105l-0.054,-0.105l-0.055,-0.105l-0.056,-0.105l-0.056,-0.104l-0.057,-0.103l-0.058,-0.104l-0.058,-0.103l-0.059,-0.102l-0.059,-0.101l-0.121,-0.205l-0.123,-0.202l-0.126,-0.2l-0.127,-0.199l-0.13,-0.197l-0.133,-0.196l-0.135,-0.193l-0.137,-0.193l-0.139,-0.19l-0.141,-0.189l-0.144,-0.187l-0.146,-0.186l-0.148,-0.183l-0.15,-0.182l-0.153,-0.18l-0.154,-0.178l-0.157,-0.177l-0.159,-0.174l-0.16,-0.173l-0.163,-0.17l-0.165,-0.169l-0.167,-0.167l-0.168,-0.165l-0.171,-0.163l-0.173,-0.161l-0.174,-0.158l-0.177,-0.157l-0.178,-0.155l-0.18,-0.153l-0.183,-0.15l-0.183,-0.148l-0.186,-0.146l-0.187,-0.145l-0.19,-0.141l-0.191,-0.14l-0.192,-0.137l-0.195,-0.135l-0.196,-0.133l-0.197,-0.131l-0.2,-0.128l-0.2,-0.126l-0.204,-0.124l-0.101,-0.06l-0.102,-0.06l-0.103,-0.06l-0.103,-0.059l-0.103,-0.058l-0.104,-0.058l-0.104,-0.057l-0.104,-0.057l-0.105,-0.056l-0.106,-0.055l-0.105,-0.055l-0.106,-0.054l-0.107,-0.054l-0.106,-0.052l-0.107,-0.053l-0.108,-0.051l-0.108,-0.051l-0.108,-0.051l-0.108,-0.049l-0.109,-0.049l-0.109,-0.049l-0.11,-0.047l-0.11,-0.048l-0.11,-0.046l-0.11,-0.046l-0.111,-0.045l-0.111,-0.044l-0.112,-0.044l-0.112,-0.043l-0.112,-0.043l-0.112,-0.042l-0.113,-0.041l-0.113,-0.04l-0.114,-0.04l-0.114,-0.039l-0.114,-0.038l-0.114,-0.038l-0.115,-0.037l-0.115,-0.036l-0.115,-0.036l-0.115,-0.035l-0.116,-0.034l-0.116,-0.034l-0.117,-0.033l-0.116,-0.032l-0.117,-0.031l-0.118,-0.031l-0.117,-0.03l-0.118,-0.029l-0.118,-0.029l-0.118,-0.027l-0.119,-0.028l-0.119,-0.026l-0.119,-0.026l-0.119,-0.025l-0.12,-0.024l-0.12,-0.023l-0.12,-0.023l-0.121,-0.022l-0.12,-0.021l-0.121,-0.021l-0.121,-0.019l-0.122,-0.019l-0.122,-0.019l-0.121,-0.017l-0.123,-0.017l-0.122,-0.016l-0.123,-0.015l-0.122,-0.014l-0.123,-0.014l-0.124,-0.013l-0.123,-0.012l-0.124,-0.011l-0.124,-0.011l-0.124,-0.009l-0.124,-0.009l-0.125,-0.009l-0.125,-0.007l-0.125,-0.007l-0.125,-0.005l-0.126,-0.005l-0.125,-0.005l-0.126,-0.003l-0.126,-0.003l-0.126,-0.001l-0.128,-0.001l-4.596,-0.017l0,-0.002l-0.087,0l-0.042,0.019l-0.001,-0.001l-0.242,0.107l-0.242,0.105l-0.243,0.104l-0.244,0.101l-0.244,0.1l-0.245,0.098l-0.245,0.097l-0.245,0.094l-0.246,0.093l-0.247,0.092l-0.247,0.089l-0.247,0.088l-0.248,0.086l-0.248,0.084l-0.249,0.083l-0.249,0.081l-0.25,0.079l-0.249,0.078l-0.251,0.076l-0.25,0.074l-0.251,0.072l-0.252,0.071l-0.252,0.069l-0.252,0.067l-0.252,0.065l-0.253,0.064l-0.253,0.062l-0.253,0.06l-0.254,0.059l-0.254,0.057l-0.254,0.055l-0.255,0.054l-0.255,0.051l-0.255,0.05l-0.255,0.049l-0.255,0.046l-0.256,0.045l-0.256,0.043l-0.256,0.042l-0.257,0.04l-0.256,0.038l-0.257,0.036l-0.257,0.035l-0.257,0.033l-0.257,0.031l-0.258,0.029l-0.257,0.028l-0.258,0.026l-0.258,0.024l-0.258,0.023l-0.258,0.021l-0.258,0.019l-0.258,0.017l-0.258,0.016l-0.259,0.014l-0.258,0.013l-0.258,0.01l-0.259,0.009l-0.259,0.007l-0.258,0.006l-0.259,0.003l-0.258,0.002l-0.259,0.001l-0.259,-0.002l-0.258,-0.003l-0.259,-0.005l-0.258,-0.006l-0.259,-0.008l-0.258,-0.01l-0.259,-0.012l-0.258,-0.013l-0.258,-0.016l-0.258,-0.016l-0.258,-0.019l-0.258,-0.02l-0.258,-0.022l-0.258,-0.024l-0.258,-0.025l-0.257,-0.027l-0.257,-0.029l-0.257,-0.031l-0.257,-0.032l-0.257,-0.034l-0.257,-0.036l-0.256,-0.037l-0.257,-0.039l-0.256,-0.041l-0.255,-0.043l-0.256,-0.044l-0.255,-0.046l-0.255,-0.048l-0.255,-0.049l-0.255,-0.051l-0.254,-0.053l-0.254,-0.055l-0.254,-0.056l-0.253,-0.058l-0.254,-0.06l-0.252,-0.061l-0.253,-0.063l-0.252,-0.065l-0.252,-0.067l-0.251,-0.068l-0.252,-0.07l-0.25,-0.072l-0.251,-0.073l-0.25,-0.075l-0.249,-0.077l-0.25,-0.079l-0.248,-0.08l-0.249,-0.082l-0.248,-0.084l-0.247,-0.085l-0.247,-0.088l-0.247,-0.089l-0.246,-0.09l-0.245,-0.093l-0.246,-0.094l-0.244,-0.095l-0.244,-0.098l-0.244,-0.099l-0.243,-0.101l-0.243,-0.103l-0.242,-0.104l-0.242,-0.106l-0.24,-0.108l-0.061,-0.028l-3.567,0l0,-0.003l-1.129,-0.001l-0.128,0l0,0Zm5.019,-1.792l0.127,0.009l0.125,0.027l0.119,0.044l0.232,0.105l0.23,0.103l0.231,0.1l0.231,0.099l0.232,0.098l0.232,0.096l0.232,0.094l0.233,0.092l0.234,0.091l0.234,0.089l0.234,0.088l0.235,0.086l0.235,0.084l0.236,0.082l0.236,0.081l0.236,0.08l0.237,0.077l0.238,0.076l0.238,0.075l0.238,0.073l0.238,0.071l0.239,0.069l0.239,0.068l0.24,0.066l0.24,0.065l0.48,0.124l0.241,0.059l0.241,0.058l0.242,0.056l0.242,0.055l0.242,0.053l0.242,0.051l0.242,0.05l0.243,0.048l0.243,0.047l0.244,0.044l0.243,0.043l0.244,0.042l0.244,0.04l0.244,0.038l0.244,0.036l0.245,0.035l0.244,0.033l0.245,0.032l0.245,0.03l0.245,0.028l0.246,0.027l0.245,0.025l0.245,0.023l0.246,0.022l0.246,0.02l0.246,0.018l0.246,0.017l0.246,0.015l0.246,0.014l0.246,0.012l0.246,0.01l0.246,0.008l0.247,0.007l0.246,0.005l0.246,0.004l0.247,0.002l0.246,0l0.246,-0.001l0.247,-0.003l0.246,-0.005l0.246,-0.006l0.246,-0.008l0.247,-0.01l0.246,-0.011l0.246,-0.013l0.246,-0.014l0.246,-0.017l0.245,-0.018l0.246,-0.019l0.246,-0.021l0.245,-0.023l0.245,-0.024l0.246,-0.026l0.245,-0.028l0.245,-0.03l0.244,-0.031l0.245,-0.032l0.244,-0.035l0.244,-0.036l0.244,-0.037l0.244,-0.039l0.244,-0.041l0.243,-0.043l0.243,-0.044l0.243,-0.046l0.243,-0.047l0.242,-0.05l0.242,-0.05l0.242,-0.053l0.241,-0.054l0.242,-0.056l0.241,-0.057l0.24,-0.059l0.24,-0.061l0.24,-0.062l0.24,-0.064l0.239,-0.066l0.239,-0.067l0.239,-0.069l0.238,-0.07l0.238,-0.072l0.237,-0.074l0.237,-0.076l0.237,-0.077l0.236,-0.079l0.236,-0.08l0.235,-0.082l0.235,-0.084l0.235,-0.085l0.234,-0.087l0.233,-0.089l0.233,-0.09l0.233,-0.092l0.232,-0.093l0.232,-0.095l0.231,-0.097l0.23,-0.099l0.23,-0.1l0.23,-0.102l0.229,-0.103l0.231,-0.106l0.13,-0.05l0.011,-0.002l0.124,-0.028l0.138,-0.011l4.894,-0.017l0.138,0l0.139,0.001l0.277,0.004l0.139,0.004l0.138,0.004l0.138,0.005l0.138,0.006l0.137,0.007l0.138,0.008l0.274,0.018l0.137,0.011l0.136,0.011l0.137,0.012l0.136,0.013l0.272,0.028l0.27,0.032l0.27,0.036l0.135,0.019l0.134,0.019l0.268,0.042l0.133,0.022l0.133,0.023l0.133,0.024l0.133,0.025l0.132,0.025l0.133,0.027l0.131,0.027l0.132,0.028l0.131,0.028l0.132,0.03l0.13,0.03l0.131,0.031l0.13,0.032l0.13,0.033l0.129,0.033l0.13,0.035l0.129,0.035l0.128,0.036l0.129,0.036l0.256,0.076l0.254,0.078l0.254,0.082l0.126,0.042l0.126,0.043l0.125,0.043l0.125,0.044l0.125,0.045l0.124,0.046l0.125,0.047l0.123,0.047l0.124,0.048l0.123,0.048l0.123,0.05l0.122,0.05l0.244,0.102l0.242,0.106l0.12,0.053l0.24,0.11l0.12,0.056l0.119,0.056l0.118,0.057l0.118,0.058l0.236,0.118l0.117,0.06l0.116,0.061l0.117,0.061l0.115,0.062l0.116,0.063l0.115,0.064l0.114,0.064l0.115,0.065l0.113,0.065l0.115,0.067l0.224,0.133l0.224,0.137l0.222,0.139l0.22,0.142l0.218,0.145l0.217,0.147l0.215,0.15l0.213,0.152l0.211,0.154l0.209,0.157l0.207,0.16l0.205,0.162l0.203,0.164l0.202,0.167l0.199,0.169l0.197,0.171l0.196,0.174l0.193,0.176l0.191,0.178l0.189,0.18l0.187,0.183l0.185,0.185l0.182,0.187l0.18,0.189l0.178,0.191l0.176,0.194l0.174,0.196l0.171,0.197l0.169,0.2l0.167,0.202l0.164,0.203l0.162,0.206l0.16,0.208l0.157,0.21l0.155,0.211l0.152,0.214l0.15,0.215l0.147,0.217l0.144,0.219l0.143,0.221l0.139,0.223l0.136,0.223l0.069,0.115l0.067,0.113l0.066,0.114l0.065,0.114l0.065,0.115l0.128,0.23l0.063,0.116l0.062,0.117l0.061,0.116l0.061,0.118l0.06,0.117l0.06,0.118l0.058,0.119l0.058,0.118l0.058,0.12l0.056,0.119l0.056,0.12l0.056,0.121l0.054,0.12l0.054,0.122l0.053,0.121l0.104,0.244l0.051,0.123l0.05,0.123l0.05,0.124l0.049,0.124l0.048,0.124l0.047,0.124l0.092,0.25l0.09,0.252l0.043,0.126l0.043,0.127l0.042,0.127l0.041,0.127l0.041,0.128l0.039,0.128l0.039,0.129l0.039,0.128l0.037,0.129l0.037,0.13l0.036,0.129l0.035,0.13l0.034,0.131l0.033,0.13l0.033,0.131l0.032,0.131l0.062,0.264l0.058,0.264l0.028,0.133l0.027,0.133l0.026,0.133l0.026,0.134l0.048,0.268l0.023,0.135l0.022,0.134l0.042,0.27l0.02,0.136l0.036,0.272l0.017,0.136l0.017,0.137l0.015,0.136l0.015,0.137l0.013,0.138l0.013,0.137l0.012,0.138l0.022,0.276l0.009,0.139l0.008,0.138l0.008,0.139l0.007,0.139l0.006,0.14l0.005,0.139l0.004,0.14l0.003,0.14l0.002,0.14l0.002,0.139l0.11,14.305l0.22,28.656l0.112,15.612l0,0.148l-0.002,0.153l-0.004,0.153l-0.006,0.153l-0.008,0.152l-0.01,0.151l-0.011,0.151l-0.014,0.151l-0.015,0.15l-0.018,0.15l-0.019,0.149l-0.021,0.148l-0.023,0.148l-0.024,0.148l-0.027,0.147l-0.028,0.146l-0.03,0.146l-0.032,0.145l-0.034,0.145l-0.035,0.144l-0.038,0.143l-0.039,0.142l-0.04,0.142l-0.043,0.141l-0.044,0.141l-0.045,0.14l-0.048,0.139l-0.049,0.138l-0.05,0.137l-0.053,0.137l-0.054,0.136l-0.055,0.135l-0.057,0.134l-0.059,0.134l-0.06,0.133l-0.062,0.131l-0.064,0.131l-0.065,0.13l-0.066,0.13l-0.068,0.128l-0.07,0.127l-0.071,0.127l-0.072,0.125l-0.074,0.125l-0.075,0.123l-0.077,0.123l-0.078,0.122l-0.08,0.12l-0.081,0.12l-0.082,0.119l-0.084,0.117l-0.085,0.117l-0.087,0.115l-0.088,0.115l-0.089,0.113l-0.09,0.113l-0.092,0.111l-0.093,0.11l-0.095,0.109l-0.095,0.108l-0.097,0.106l-0.098,0.106l-0.1,0.104l-0.1,0.104l-0.102,0.102l-0.103,0.1l-0.105,0.1l-0.105,0.098l-0.107,0.098l-0.108,0.096l-0.109,0.094l-0.11,0.094l-0.111,0.092l-0.112,0.091l-0.114,0.089l-0.114,0.088l-0.116,0.087l-0.117,0.086l-0.118,0.084l-0.118,0.083l-0.12,0.081l-0.121,0.08l-0.122,0.079l-0.123,0.077l-0.124,0.076l-0.125,0.074l-0.126,0.073l-0.127,0.071l-0.128,0.07l-0.129,0.069l-0.129,0.067l-0.131,0.065l-0.132,0.064l-0.132,0.062l-0.133,0.061l-0.135,0.059l-0.135,0.058l-0.136,0.056l-0.136,0.055l-0.138,0.052l-0.138,0.052l-0.14,0.049l-0.14,0.048l-0.14,0.046l-0.142,0.045l-0.142,0.042l-0.143,0.042l-0.144,0.039l-0.144,0.038l-0.146,0.035l-0.027,0.007l-0.118,0.027l-0.147,0.032l-0.147,0.03l-0.148,0.029l-0.148,0.026l-0.149,0.025l-0.15,0.023l-0.15,0.021l-0.151,0.019l-0.151,0.017l-0.152,0.016l-0.153,0.013l-0.152,0.012l-0.154,0.009l-0.153,0.008l-0.155,0.005l-0.154,0.004l-0.15,0.002l0,0.038l-5.117,0l0.027,0.026l0.089,19.747l0.065,27.768l-0.015,9.252l-0.001,0.152l-0.003,0.157l-0.006,0.157l-0.007,0.156l-0.009,0.156l-0.011,0.156l-0.013,0.155l-0.015,0.154l-0.018,0.154l-0.018,0.154l-0.021,0.153l-0.023,0.152l-0.025,0.152l-0.026,0.151l-0.029,0.15l-0.03,0.15l-0.032,0.15l-0.034,0.148l-0.036,0.148l-0.037,0.147l-0.039,0.147l-0.041,0.146l-0.043,0.145l-0.045,0.144l-0.046,0.144l-0.048,0.143l-0.05,0.142l-0.051,0.141l-0.053,0.14l-0.055,0.14l-0.056,0.139l-0.058,0.138l-0.06,0.137l-0.061,0.136l-0.063,0.135l-0.064,0.134l-0.066,0.134l-0.067,0.132l-0.069,0.132l-0.071,0.131l-0.072,0.129l-0.074,0.129l-0.045,0.077l-0.03,0.051l-0.077,0.127l-0.078,0.125l-0.08,0.125l-0.081,0.123l-0.082,0.123l-0.084,0.121l-0.086,0.121l-0.087,0.119l-0.088,0.118l-0.089,0.117l-0.091,0.116l-0.092,0.115l-0.094,0.114l-0.095,0.112l-0.096,0.112l-0.097,0.11l-0.099,0.109l-0.1,0.108l-0.101,0.107l-0.103,0.105l-0.103,0.104l-0.105,0.103l-0.107,0.102l-0.107,0.101l-0.108,0.099l-0.11,0.098l-0.111,0.097l-0.112,0.095l-0.113,0.094l-0.114,0.093l-0.116,0.091l-0.116,0.09l-0.118,0.089l-0.119,0.087l-0.119,0.086l-0.121,0.084l-0.122,0.083l-0.123,0.082l-0.124,0.08l-0.125,0.079l-0.126,0.077l-0.126,0.076l-0.128,0.075l-0.129,0.072l-0.13,0.072l-0.131,0.07l-0.131,0.068l-0.133,0.067l-0.134,0.065l-0.134,0.063l-0.135,0.062l-0.136,0.061l-0.137,0.059l-0.138,0.057l-0.139,0.055l-0.14,0.054l-0.14,0.053l-0.141,0.05l-0.142,0.049l-0.142,0.047l-0.144,0.046l-0.144,0.043l-0.145,0.042l-0.145,0.041l-0.147,0.038l-0.147,0.037l-0.147,0.035l-0.149,0.033l-0.149,0.031l-0.149,0.03l-0.15,0.027l-0.151,0.026l-0.151,0.024l-0.152,0.022l-0.153,0.02l-0.153,0.018l-0.153,0.016l-0.154,0.015l-0.155,0.012l-0.155,0.011l-0.155,0.008l-0.156,0.006l-0.156,0.005l-0.157,0.002l-0.151,0.001l-6.043,-0.023l-21.529,-0.129l-0.149,-0.001l-0.155,-0.004l-0.154,-0.006l-0.154,-0.007l-0.153,-0.01l-0.153,-0.012l-0.153,-0.013l-0.151,-0.015l-0.152,-0.018l-0.15,-0.019l-0.151,-0.021l-0.149,-0.023l-0.149,-0.025l-0.149,-0.026l-0.148,-0.029l-0.147,-0.03l-0.146,-0.032l-0.146,-0.034l-0.145,-0.035l-0.145,-0.038l-0.144,-0.039l-0.143,-0.041l-0.142,-0.042l-0.142,-0.044l-0.141,-0.046l-0.14,-0.048l-0.139,-0.049l-0.139,-0.051l-0.137,-0.053l-0.137,-0.054l-0.136,-0.056l-0.136,-0.057l-0.134,-0.059l-0.134,-0.061l-0.132,-0.062l-0.132,-0.063l-0.131,-0.066l-0.13,-0.066l-0.129,-0.069l-0.128,-0.069l-0.127,-0.072l-0.126,-0.072l-0.125,-0.074l-0.124,-0.076l-0.124,-0.077l-0.122,-0.079l-0.121,-0.079l-0.12,-0.082l-0.119,-0.082l-0.118,-0.084l-0.117,-0.086l-0.116,-0.086l-0.115,-0.088l-0.114,-0.09l-0.112,-0.091l-0.112,-0.092l-0.11,-0.093l-0.109,-0.094l-0.109,-0.096l-0.106,-0.097l-0.106,-0.099l-0.105,-0.099l-0.103,-0.101l-0.102,-0.102l-0.101,-0.103l-0.1,-0.104l-0.099,-0.106l-0.097,-0.106l-0.096,-0.108l-0.095,-0.109l-0.093,-0.11l-0.092,-0.111l-0.091,-0.113l-0.089,-0.113l-0.089,-0.115l-0.086,-0.115l-0.086,-0.117l-0.084,-0.117l-0.083,-0.119l-0.081,-0.12l-0.08,-0.12l-0.079,-0.122l-0.077,-0.123l-0.075,-0.123l-0.075,-0.125l-0.072,-0.125l-0.072,-0.127l-0.069,-0.127l-0.069,-0.129l-0.067,-0.129l-0.065,-0.13l-0.064,-0.131l-0.062,-0.132l-0.06,-0.133l-0.06,-0.134l-0.057,-0.134l-0.056,-0.135l-0.054,-0.136l-0.053,-0.137l-0.051,-0.138l-0.049,-0.138l-0.048,-0.14l-0.046,-0.139l-0.044,-0.141l-0.043,-0.141l-0.041,-0.143l-0.039,-0.142l-0.038,-0.144l-0.036,-0.144l-0.034,-0.145l-0.032,-0.145l-0.03,-0.146l-0.029,-0.147l-0.027,-0.147l-0.025,-0.148l-0.023,-0.148l-0.021,-0.149l-0.02,-0.149l-0.017,-0.15l-0.016,-0.151l-0.014,-0.151l-0.012,-0.151l-0.01,-0.152l-0.008,-0.152l-0.006,-0.153l-0.004,-0.153l-0.001,-0.028l-0.002,-0.126l0,-0.149l0.26,-38.925l0.114,-0.078l0.004,-18.294l0.008,-0.008l-5.629,-0.032l-0.144,-0.001l-0.148,-0.004l-0.148,-0.005l-0.147,-0.008l-0.147,-0.009l-0.147,-0.011l-0.145,-0.013l-0.146,-0.015l-0.145,-0.016l-0.144,-0.019l-0.144,-0.02l-0.143,-0.022l-0.143,-0.023l-0.142,-0.026l-0.141,-0.027l-0.141,-0.029l-0.141,-0.031l-0.139,-0.032l-0.139,-0.034l-0.139,-0.036l-0.137,-0.037l-0.137,-0.039l-0.137,-0.041l-0.135,-0.043l-0.135,-0.044l-0.134,-0.045l-0.134,-0.047l-0.133,-0.049l-0.131,-0.05l-0.132,-0.052l-0.13,-0.054l-0.129,-0.055l-0.129,-0.056l-0.128,-0.058l-0.127,-0.06l-0.126,-0.061l-0.126,-0.062l-0.124,-0.064l-0.124,-0.066l-0.122,-0.066l-0.122,-0.069l-0.121,-0.069l-0.12,-0.071l-0.119,-0.073l-0.118,-0.073l-0.117,-0.076l-0.116,-0.076l-0.115,-0.078l-0.115,-0.079l-0.113,-0.081l-0.112,-0.082l-0.111,-0.083l-0.11,-0.084l-0.109,-0.086l-0.108,-0.087l-0.107,-0.088l-0.106,-0.089l-0.105,-0.091l-0.103,-0.092l-0.103,-0.093l-0.101,-0.094l-0.1,-0.095l-0.099,-0.097l-0.098,-0.098l-0.097,-0.098l-0.096,-0.1l-0.094,-0.102l-0.094,-0.102l-0.092,-0.103l-0.09,-0.105l-0.09,-0.105l-0.088,-0.107l-0.087,-0.107l-0.086,-0.109l-0.085,-0.11l-0.083,-0.11l-0.082,-0.112l-0.081,-0.113l-0.079,-0.113l-0.078,-0.115l-0.076,-0.116l-0.076,-0.116l-0.074,-0.118l-0.072,-0.118l-0.071,-0.12l-0.07,-0.12l-0.069,-0.121l-0.066,-0.122l-0.066,-0.123l-0.064,-0.124l-0.063,-0.125l-0.061,-0.126l-0.059,-0.126l-0.058,-0.127l-0.057,-0.128l-0.055,-0.129l-0.054,-0.129l-0.052,-0.131l-0.05,-0.131l-0.049,-0.132l-0.047,-0.132l-0.046,-0.134l-0.044,-0.134l-0.043,-0.134l-0.041,-0.136l-0.039,-0.136l-0.038,-0.136l-0.036,-0.138l-0.034,-0.138l-0.033,-0.138l-0.03,-0.14l-0.017,-0.081l-0.013,-0.058l-0.027,-0.141l-0.026,-0.141l-0.024,-0.141l-0.022,-0.142l-0.02,-0.143l-0.019,-0.143l-0.017,-0.144l-0.015,-0.144l-0.013,-0.144l-0.011,-0.145l-0.01,-0.146l-0.008,-0.146l-0.005,-0.146l-0.004,-0.147l-0.002,-0.147l-0.001,-0.144l0.219,-58.571l0.001,-0.137l0.001,-0.139l0.003,-0.138l0.003,-0.139l0.004,-0.137l0.005,-0.138l0.006,-0.138l0.007,-0.137l0.008,-0.137l0.009,-0.137l0.009,-0.137l0.01,-0.137l0.012,-0.136l0.012,-0.136l0.012,-0.136l0.014,-0.135l0.015,-0.136l0.015,-0.135l0.016,-0.135l0.018,-0.134l0.017,-0.135l0.019,-0.134l0.02,-0.134l0.02,-0.133l0.022,-0.133l0.022,-0.134l0.023,-0.132l0.023,-0.133l0.025,-0.132l0.025,-0.132l0.026,-0.132l0.027,-0.131l0.028,-0.132l0.029,-0.13l0.029,-0.131l0.03,-0.13l0.031,-0.13l0.032,-0.13l0.032,-0.13l0.004,-0.012l0.03,-0.117l0.034,-0.128l0.035,-0.129l0.035,-0.128l0.037,-0.128l0.037,-0.128l0.038,-0.127l0.039,-0.127l0.039,-0.126l0.041,-0.127l0.041,-0.126l0.041,-0.125l0.043,-0.125l0.043,-0.125l0.044,-0.125l0.045,-0.124l0.046,-0.124l0.046,-0.124l0.047,-0.123l0.047,-0.123l0.049,-0.122l0.049,-0.122l0.05,-0.122l0.051,-0.121l0.051,-0.121l0.052,-0.121l0.053,-0.12l0.053,-0.12l0.054,-0.12l0.055,-0.119l0.056,-0.119l0.056,-0.118l0.057,-0.118l0.057,-0.118l0.059,-0.117l0.059,-0.117l0.06,-0.116l0.06,-0.116l0.061,-0.116l0.062,-0.115l0.062,-0.115l0.063,-0.114l0.064,-0.114l0.064,-0.113l0.065,-0.113l0.066,-0.113l0.067,-0.113l0.134,-0.222l0.138,-0.222l0.14,-0.22l0.142,-0.217l0.145,-0.217l0.148,-0.214l0.149,-0.212l0.153,-0.211l0.155,-0.208l0.157,-0.207l0.16,-0.205l0.162,-0.203l0.164,-0.2l0.167,-0.199l0.169,-0.197l0.171,-0.195l0.174,-0.193l0.176,-0.19l0.178,-0.189l0.18,-0.186l0.183,-0.184l0.184,-0.183l0.187,-0.179l0.189,-0.178l0.191,-0.176l0.193,-0.173l0.195,-0.171l0.197,-0.168l0.199,-0.167l0.201,-0.164l0.204,-0.161l0.205,-0.16l0.207,-0.156l0.208,-0.155l0.211,-0.152l0.213,-0.149l0.214,-0.147l0.217,-0.145l0.218,-0.142l0.219,-0.139l0.222,-0.137l0.222,-0.133l0.114,-0.067l0.112,-0.066l0.114,-0.065l0.113,-0.064l0.114,-0.063l0.115,-0.063l0.114,-0.062l0.116,-0.062l0.115,-0.06l0.116,-0.06l0.117,-0.06l0.117,-0.059l0.117,-0.058l0.117,-0.057l0.118,-0.057l0.119,-0.056l0.119,-0.055l0.119,-0.055l0.119,-0.053l0.12,-0.054l0.121,-0.052l0.12,-0.052l0.121,-0.051l0.122,-0.05l0.122,-0.05l0.122,-0.048l0.122,-0.049l0.123,-0.047l0.123,-0.047l0.124,-0.046l0.124,-0.045l0.124,-0.044l0.124,-0.044l0.125,-0.043l0.126,-0.042l0.125,-0.042l0.126,-0.04l0.126,-0.04l0.127,-0.039l0.127,-0.039l0.127,-0.038l0.127,-0.036l0.128,-0.037l0.128,-0.035l0.129,-0.034l0.128,-0.034l0.13,-0.033l0.129,-0.032l0.13,-0.032l0.129,-0.031l0.131,-0.029l0.13,-0.029l0.131,-0.029l0.131,-0.027l0.131,-0.027l0.132,-0.026l0.132,-0.025l0.132,-0.024l0.133,-0.023l0.132,-0.023l0.133,-0.022l0.133,-0.021l0.134,-0.02l0.134,-0.019l0.134,-0.018l0.134,-0.018l0.134,-0.017l0.135,-0.016l0.135,-0.015l0.135,-0.014l0.136,-0.013l0.135,-0.013l0.136,-0.012l0.136,-0.011l0.136,-0.01l0.113,-0.007l0.024,-0.002l0.137,-0.008l0.137,-0.007l0.137,-0.007l0.137,-0.005l0.138,-0.005l0.138,-0.004l0.138,-0.003l0.138,-0.002l0.138,-0.001l0.137,-0.001l1.391,-0.001l3.503,-0.003l0,0Z" style="fill:#573351;"/></g></g><path id="Ring-31" serif:id="Ring 3" d="M666.17,60.651c299.903,0 543.386,243.483 543.386,543.386c0,299.903 -243.483,543.386 -543.386,543.386c-299.903,0 -543.386,-243.483 -543.386,-543.386c0,-299.903 243.483,-543.386 543.386,-543.386Zm0,114.532c252.041,0.098 426.775,205.441 428.854,428.854c2.275,244.573 -204.27,427.958 -428.854,428.854c-255.92,1.02 -428.411,-213.321 -428.854,-428.854c-0.506,-246.638 203.233,-428.941 428.854,-428.854Z" style="fill:#b73a7d;fill-opacity:0.08;stroke:#573351;stroke-width:5px;"/><g id="Ring-32" serif:id="Ring 3"><g transform="matrix(0.930754,-0.365645,0.365645,0.930754,-3.56436,169.097)"><text x="444.668px" y="93.959px" style="font-family:'Lato-Regular', 'Lato', sans-serif;font-size:50px;fill:#573351;stroke:#573351;stroke-width:1px;stroke-linecap:butt;stroke-miterlimit:2;">O</text></g><g transform="matrix(0.949177,-0.314744,0.314744,0.949177,-0.461069,155.927)"><text x="482.589px" y="79.391px" style="font-family:'Lato-Regular', 'Lato', sans-serif;font-size:50px;fill:#573351;stroke:#573351;stroke-width:1px;stroke-linecap:butt;stroke-miterlimit:2;">t</text></g><g transform="matrix(0.961622,-0.274377,0.274377,0.961622,-0.970148,140.03)"><text x="500.078px" y="73.483px" style="font-family:'Lato-Regular', 'Lato', sans-serif;font-size:50px;fill:#573351;stroke:#573351;stroke-width:1px;stroke-linecap:butt;stroke-miterlimit:2;">h</text></g><g transform="matrix(0.974192,-0.225719,0.225719,0.974192,-1.21338,120.764)"><text x="527.508px" y="65.688px" style="font-family:'Lato-Regular', 'Lato', sans-serif;font-size:50px;fill:#573351;stroke:#573351;stroke-width:1px;stroke-linecap:butt;stroke-miterlimit:2;">e</text></g><g transform="matrix(0.983187,-0.182601,0.182601,0.983187,-1.58669,102.118)"><text x="553.749px" y="59.676px" style="font-family:'Lato-Regular', 'Lato', sans-serif;font-size:50px;fill:#573351;stroke:#573351;stroke-width:1px;stroke-linecap:butt;stroke-miterlimit:2;">r</text></g><g transform="matrix(0.990892,-0.134657,0.134657,0.990892,-2.008,79.116)"><text x="583.858px" y="54.402px" style="font-family:'Lato-Regular', 'Lato', sans-serif;font-size:50px;fill:#573351;stroke:#573351;stroke-width:1px;stroke-linecap:butt;stroke-miterlimit:2;">I</text></g><g transform="matrix(0.9953,-0.0968414,0.0968414,0.9953,-2.26231,58.1379)"><text x="597.799px" y="52.375px" style="font-family:'Lato-Regular', 'Lato', sans-serif;font-size:50px;fill:#573351;stroke:#573351;stroke-width:1px;stroke-linecap:butt;stroke-miterlimit:2;">n</text></g><g transform="matrix(0.998462,-0.0554396,0.0554396,0.998462,-1.7962,34.7656)"><text x="625.709px" y="49.757px" style="font-family:'Lato-Regular', 'Lato', sans-serif;font-size:50px;fill:#573351;stroke:#573351;stroke-width:1px;stroke-linecap:butt;stroke-miterlimit:2;">t</text></g><g transform="matrix(0.999874,-0.0158546,0.0158546,0.999874,-0.690563,10.2153)"><text x="643.928px" y="48.661px" style="font-family:'Lato-Regular', 'Lato', sans-serif;font-size:50px;fill:#573351;stroke:#573351;stroke-width:1px;stroke-linecap:butt;stroke-miterlimit:2;">e</text></g><g transform="matrix(0.999626,0.0273441,-0.0273441,0.999626,1.57157,-18.3282)"><text x="670.939px" y="48.299px" style="font-family:'Lato-Regular', 'Lato', sans-serif;font-size:50px;fill:#573351;stroke:#573351;stroke-width:1px;stroke-linecap:butt;stroke-miterlimit:2;">r</text></g><g transform="matrix(0.997786,0.0665006,-0.0665006,0.997786,4.76411,-45.7476)"><text x="689.548px" y="48.687px" style="font-family:'Lato-Regular', 'Lato', sans-serif;font-size:50px;fill:#573351;stroke:#573351;stroke-width:1px;stroke-linecap:butt;stroke-miterlimit:2;">n</text></g><g transform="matrix(0.99324,0.116076,-0.116076,0.99324,10.7291,-83.006)"><text x="718.048px" y="50.616px" style="font-family:'Lato-Regular', 'Lato', sans-serif;font-size:50px;fill:#573351;stroke:#573351;stroke-width:1px;stroke-linecap:butt;stroke-miterlimit:2;">e</text></g><g transform="matrix(0.987652,0.156662,-0.156662,0.987652,17.6239,-115.987)"><text x="744.608px" y="53.808px" style="font-family:'Lato-Regular', 'Lato', sans-serif;font-size:50px;fill:#573351;stroke:#573351;stroke-width:1px;stroke-linecap:butt;stroke-miterlimit:2;">t</text></g><g transform="matrix(0.975327,0.220767,-0.220767,0.975327,32.1681,-169.793)"><text x="775.7px" y="59.017px" style="font-family:'Lato-Regular', 'Lato', sans-serif;font-size:50px;fill:#573351;stroke:#573351;stroke-width:1px;stroke-linecap:butt;stroke-miterlimit:2;">u</text></g><g transform="matrix(0.964192,0.265206,-0.265206,0.964192,46.1044,-210.717)"><text x="803.369px" y="65.372px" style="font-family:'Lato-Regular', 'Lato', sans-serif;font-size:50px;fill:#573351;stroke:#573351;stroke-width:1px;stroke-linecap:butt;stroke-miterlimit:2;">s</text></g><g transform="matrix(0.951285,0.308312,-0.308312,0.951285,62.1392,-250.825)"><text x="824.798px" y="71.224px" style="font-family:'Lato-Regular', 'Lato', sans-serif;font-size:50px;fill:#573351;stroke:#573351;stroke-width:1px;stroke-linecap:butt;stroke-miterlimit:2;">e</text></g><g transform="matrix(0.936739,0.350029,-0.350029,0.936739,81.6625,-292.639)"><text x="850.429px" y="79.603px" style="font-family:'Lato-Regular', 'Lato', sans-serif;font-size:50px;fill:#573351;stroke:#573351;stroke-width:1px;stroke-linecap:butt;stroke-miterlimit:2;">r</text></g><g transform="matrix(0.924522,0.381128,-0.381128,0.924522,98.2744,-324.22)"><text x="867.719px" y="86.01px" style="font-family:'Lato-Regular', 'Lato', sans-serif;font-size:50px;fill:#573351;stroke:#573351;stroke-width:1px;stroke-linecap:butt;stroke-miterlimit:2;">s</text></g></g><g><g transform="matrix(0.130946,-0.991389,0.991389,0.130946,-151.324,1016.2)"><text x="503.963px" y="594.413px" style="font-family:'Lato-Regular', 'Lato', sans-serif;font-size:38px;fill:#573351;stroke:#573351;stroke-width:1px;stroke-linecap:butt;stroke-miterlimit:2;">F</text></g><g transform="matrix(0.235787,-0.971805,0.971805,0.235787,-170.176,930.852)"><text x="506.767px" y="573.627px" style="font-family:'Lato-Regular', 'Lato', sans-serif;font-size:38px;fill:#573351;stroke:#573351;stroke-width:1px;stroke-linecap:butt;stroke-miterlimit:2;">r</text></g><g transform="matrix(0.301677,-0.95341,0.95341,0.301677,-177.113,877.202)"><text x="510.259px" y="559.506px" style="font-family:'Lato-Regular', 'Lato', sans-serif;font-size:38px;fill:#573351;stroke:#573351;stroke-width:1px;stroke-linecap:butt;stroke-miterlimit:2;">i</text></g><g transform="matrix(0.392607,-0.919706,0.919706,0.392607,-194.006,805.853)"><text x="513.103px" y="549.807px" style="font-family:'Lato-Regular', 'Lato', sans-serif;font-size:38px;fill:#573351;stroke:#573351;stroke-width:1px;stroke-linecap:butt;stroke-miterlimit:2;">e</text></g><g transform="matrix(0.514279,-0.857623,0.857623,0.514279,-201.224,704.782)"><text x="521.595px" y="530.038px" style="font-family:'Lato-Regular', 'Lato', sans-serif;font-size:38px;fill:#573351;stroke:#573351;stroke-width:1px;stroke-linecap:butt;stroke-miterlimit:2;">n</text></g><g transform="matrix(0.625287,-0.780395,0.780395,0.625287,-198.715,607.573)"><text x="533.322px" y="510.713px" style="font-family:'Lato-Regular', 'Lato', sans-serif;font-size:38px;fill:#573351;stroke:#573351;stroke-width:1px;stroke-linecap:butt;stroke-miterlimit:2;">d</text></g><g transform="matrix(0.718592,-0.695432,0.695432,0.718592,-188.9,519.671)"><text x="547.671px" y="493.246px" style="font-family:'Lato-Regular', 'Lato', sans-serif;font-size:38px;fill:#573351;stroke:#573351;stroke-width:1px;stroke-linecap:butt;stroke-miterlimit:2;">s</text></g><g transform="matrix(0.773584,-0.633694,0.633694,0.773584,-178.196,464.006)"><text x="560.232px" y="481.371px" style="font-family:'Lato-Regular', 'Lato', sans-serif;font-size:38px;fill:#573351;stroke:#573351;stroke-width:1px;stroke-linecap:butt;stroke-miterlimit:2;">,</text></g><g transform="matrix(0.852937,-0.522014,0.522014,0.852937,-160.307,369.621)"><text x="575.849px" y="469.323px" style="font-family:'Lato-Regular', 'Lato', sans-serif;font-size:38px;fill:#573351;stroke:#573351;stroke-width:1px;stroke-linecap:butt;stroke-miterlimit:2;">f</text></g><g transform="matrix(0.900766,-0.434304,0.434304,0.900766,-142.221,301.189)"><text x="587.979px" y="461.815px" style="font-family:'Lato-Regular', 'Lato', sans-serif;font-size:38px;fill:#573351;stroke:#573351;stroke-width:1px;stroke-linecap:butt;stroke-miterlimit:2;">a</text></g><g transform="matrix(0.961569,-0.274564,0.274564,0.961569,-100.934,183.919)"><text x="606.52px" y="452.512px" style="font-family:'Lato-Regular', 'Lato', sans-serif;font-size:38px;fill:#573351;stroke:#573351;stroke-width:1px;stroke-linecap:butt;stroke-miterlimit:2;">m</text></g><g transform="matrix(0.98949,-0.144602,0.144602,0.98949,-57.5484,96.9364)"><text x="638.07px" y="444.355px" style="font-family:'Lato-Regular', 'Lato', sans-serif;font-size:38px;fill:#573351;stroke:#573351;stroke-width:1px;stroke-linecap:butt;stroke-miterlimit:2;">i</text></g><g transform="matrix(0.996344,-0.0854292,0.0854292,0.996344,-35.4745,56.9526)"><text x="647.709px" y="442.968px" style="font-family:'Lato-Regular', 'Lato', sans-serif;font-size:38px;fill:#573351;stroke:#573351;stroke-width:1px;stroke-linecap:butt;stroke-miterlimit:2;">l</text></g><g transform="matrix(0.999969,0.00792801,-0.00792801,0.999969,3.52417,-5.19982)"><text x="657.631px" y="441.914px" style="font-family:'Lato-Regular', 'Lato', sans-serif;font-size:38px;fill:#573351;stroke:#573351;stroke-width:1px;stroke-linecap:butt;stroke-miterlimit:2;">y</text></g><g transform="matrix(0.975197,0.221339,-0.221339,0.975197,115.093,-141.359)"><text x="688.28px" y="442.856px" style="font-family:'Lato-Regular', 'Lato', sans-serif;font-size:38px;fill:#573351;stroke:#573351;stroke-width:1px;stroke-linecap:butt;stroke-miterlimit:2;">&amp;</text></g><g transform="matrix(0.906798,0.421565,-0.421565,0.906798,258.639,-263.759)"><text x="725.828px" y="453.05px" style="font-family:'Lato-Regular', 'Lato', sans-serif;font-size:38px;fill:#573351;stroke:#573351;stroke-width:1px;stroke-linecap:butt;stroke-miterlimit:2;">c</text></g><g transform="matrix(0.846186,0.532887,-0.532887,0.846186,360.024,-325.147)"><text x="743.247px" y="461.077px" style="font-family:'Lato-Regular', 'Lato', sans-serif;font-size:38px;fill:#573351;stroke:#573351;stroke-width:1px;stroke-linecap:butt;stroke-miterlimit:2;">o</text></g><g transform="matrix(0.788728,0.614742,-0.614742,0.788728,452.041,-368.5)"><text x="762.137px" y="473.407px" style="font-family:'Lato-Regular', 'Lato', sans-serif;font-size:38px;fill:#573351;stroke:#573351;stroke-width:1px;stroke-linecap:butt;stroke-miterlimit:2;">l</text></g><g transform="matrix(0.7514,0.659847,-0.659847,0.7514,507.588,-388.702)"><text x="769.651px" y="479.282px" style="font-family:'Lato-Regular', 'Lato', sans-serif;font-size:38px;fill:#573351;stroke:#573351;stroke-width:1px;stroke-linecap:butt;stroke-miterlimit:2;">l</text></g><g transform="matrix(0.685198,0.728357,-0.728357,0.685198,598.451,-413.245)"><text x="777.288px" y="485.695px" style="font-family:'Lato-Regular', 'Lato', sans-serif;font-size:38px;fill:#573351;stroke:#573351;stroke-width:1px;stroke-linecap:butt;stroke-miterlimit:2;">e</text></g><g transform="matrix(0.590583,0.806977,-0.806977,0.590583,728.75,-433.704)"><text x="791.799px" y="501.345px" style="font-family:'Lato-Regular', 'Lato', sans-serif;font-size:38px;fill:#573351;stroke:#573351;stroke-width:1px;stroke-linecap:butt;stroke-miterlimit:2;">a</text></g><g transform="matrix(0.478873,0.877884,-0.877884,0.478873,873.375,-435.745)"><text x="803.713px" y="517.766px" style="font-family:'Lato-Regular', 'Lato', sans-serif;font-size:38px;fill:#573351;stroke:#573351;stroke-width:1px;stroke-linecap:butt;stroke-miterlimit:2;">g</text></g><g transform="matrix(0.357764,0.933812,-0.933812,0.357764,1023.48,-415.48)"><text x="813.793px" y="536.329px" style="font-family:'Lato-Regular', 'Lato', sans-serif;font-size:38px;fill:#573351;stroke:#573351;stroke-width:1px;stroke-linecap:butt;stroke-miterlimit:2;">u</text></g><g transform="matrix(0.22591,0.974148,-0.974148,0.22591,1179.22,-368.948)"><text x="821.76px" y="557.517px" style="font-family:'Lato-Regular', 'Lato', sans-serif;font-size:38px;fill:#573351;stroke:#573351;stroke-width:1px;stroke-linecap:butt;stroke-miterlimit:2;">e</text></g><g transform="matrix(0.107841,0.994168,-0.994168,0.107841,1312.23,-305.62)"><text x="826.397px" y="578.325px" style="font-family:'Lato-Regular', 'Lato', sans-serif;font-size:38px;fill:#573351;stroke:#573351;stroke-width:1px;stroke-linecap:butt;stroke-miterlimit:2;">s</text></g></g><g><g transform="matrix(0.909018,-0.416757,0.416757,0.909018,-89.4921,248.413)"><text x="524.201px" y="329.173px" style="font-family:'Lato-Regular', 'Lato', sans-serif;font-size:45px;fill:#573351;stroke:#573351;stroke-width:1px;stroke-linecap:butt;stroke-miterlimit:2;">Y</text></g><g transform="matrix(0.937195,-0.348805,0.348805,0.937195,-77.0234,210.447)"><text x="545.879px" y="319.11px" style="font-family:'Lato-Regular', 'Lato', sans-serif;font-size:45px;fill:#573351;stroke:#573351;stroke-width:1px;stroke-linecap:butt;stroke-miterlimit:2;">o</text></g><g transform="matrix(0.963389,-0.268106,0.268106,0.963389,-62.2131,164.331)"><text x="570.608px" y="309.964px" style="font-family:'Lato-Regular', 'Lato', sans-serif;font-size:45px;fill:#573351;stroke:#573351;stroke-width:1px;stroke-linecap:butt;stroke-miterlimit:2;">u</text></g><g transform="matrix(0.980793,-0.195054,0.195054,0.980793,-47.6935,121.995)"><text x="595.591px" y="303.164px" style="font-family:'Lato-Regular', 'Lato', sans-serif;font-size:45px;fill:#573351;stroke:#573351;stroke-width:1px;stroke-linecap:butt;stroke-miterlimit:2;">r</text></g><g transform="matrix(0.995178,-0.0980829,0.0980829,0.995178,-26.2269,62.5465)"><text x="623.039px" y="298.024px" style="font-family:'Lato-Regular', 'Lato', sans-serif;font-size:45px;fill:#573351;stroke:#573351;stroke-width:1px;stroke-linecap:butt;stroke-miterlimit:2;">e</text></g><g transform="matrix(0.999997,0.00237042,-0.00237042,0.999997,0.701824,-1.53449)"><text x="647.699px" y="295.308px" style="font-family:'Lato-Regular', 'Lato', sans-serif;font-size:45px;fill:#573351;stroke:#573351;stroke-width:1px;stroke-linecap:butt;stroke-miterlimit:2;">m</text></g><g transform="matrix(0.994292,0.106696,-0.106696,0.994292,35.4661,-71.4778)"><text x="685.741px" y="295.716px" style="font-family:'Lato-Regular', 'Lato', sans-serif;font-size:45px;fill:#573351;stroke:#573351;stroke-width:1px;stroke-linecap:butt;stroke-miterlimit:2;">p</text></g><g transform="matrix(0.98648,0.16388,-0.16388,0.98648,58.5629,-112.533)"><text x="711.319px" y="298.67px" style="font-family:'Lato-Regular', 'Lato', sans-serif;font-size:45px;fill:#573351;stroke:#573351;stroke-width:1px;stroke-linecap:butt;stroke-miterlimit:2;">l</text></g><g transform="matrix(0.974667,0.223663,-0.223663,0.974667,85.4741,-153.991)"><text x="722.511px" y="300.32px" style="font-family:'Lato-Regular', 'Lato', sans-serif;font-size:45px;fill:#573351;stroke:#573351;stroke-width:1px;stroke-linecap:butt;stroke-miterlimit:2;">o</text></g><g transform="matrix(0.953763,0.300561,-0.300561,0.953763,126.555,-210.49)"><text x="747.411px" y="306.084px" style="font-family:'Lato-Regular', 'Lato', sans-serif;font-size:45px;fill:#573351;stroke:#573351;stroke-width:1px;stroke-linecap:butt;stroke-miterlimit:2;">y</text></g><g transform="matrix(0.927787,0.373111,-0.373111,0.927787,172.402,-264.574)"><text x="769.7px" y="313.095px" style="font-family:'Lato-Regular', 'Lato', sans-serif;font-size:45px;fill:#573351;stroke:#573351;stroke-width:1px;stroke-linecap:butt;stroke-miterlimit:2;">e</text></g><g transform="matrix(0.898528,0.438916,-0.438916,0.898528,221.881,-315.08)"><text x="792.378px" y="322.334px" style="font-family:'Lato-Regular', 'Lato', sans-serif;font-size:45px;fill:#573351;stroke:#573351;stroke-width:1px;stroke-linecap:butt;stroke-miterlimit:2;">r</text></g></g><g><g transform="matrix(0.811817,-0.583912,0.583912,0.811817,-73.6808,279.299)"><text x="396.478px" y="253.962px" style="font-family:'Lato-Regular', 'Lato', sans-serif;font-size:48px;fill:#573351;stroke:#573351;stroke-width:1px;stroke-linecap:butt;stroke-miterlimit:2;">Y</text></g><g transform="matrix(0.84226,-0.539071,0.539071,0.84226,-63.09,262.524)"><text x="417.039px" y="239.066px" style="font-family:'Lato-Regular', 'Lato', sans-serif;font-size:48px;fill:#573351;stroke:#573351;stroke-width:1px;stroke-linecap:butt;stroke-miterlimit:2;">o</text></g><g transform="matrix(0.874331,-0.485331,0.485331,0.874331,-53.3345,242.011)"><text x="440.651px" y="223.993px" style="font-family:'Lato-Regular', 'Lato', sans-serif;font-size:48px;fill:#573351;stroke:#573351;stroke-width:1px;stroke-linecap:butt;stroke-miterlimit:2;">u</text></g><g transform="matrix(0.899941,-0.436011,0.436011,0.899941,-45.3837,223.723)"><text x="464.75px" y="210.742px" style="font-family:'Lato-Regular', 'Lato', sans-serif;font-size:48px;fill:#573351;stroke:#573351;stroke-width:1px;stroke-linecap:butt;stroke-miterlimit:2;">r</text></g><g transform="matrix(0.929417,-0.369032,0.369032,0.929417,-38.3826,195.379)"><text x="491.561px" y="198.028px" style="font-family:'Lato-Regular', 'Lato', sans-serif;font-size:48px;fill:#573351;stroke:#573351;stroke-width:1px;stroke-linecap:butt;stroke-miterlimit:2;">e</text></g><g transform="matrix(0.954861,-0.297052,0.297052,0.954861,-32.5742,161.764)"><text x="515.988px" y="188.066px" style="font-family:'Lato-Regular', 'Lato', sans-serif;font-size:48px;fill:#573351;stroke:#573351;stroke-width:1px;stroke-linecap:butt;stroke-miterlimit:2;">m</text></g><g transform="matrix(0.97537,-0.220573,0.220573,0.97537,-25.2221,126.699)"><text x="554.722px" y="176.289px" style="font-family:'Lato-Regular', 'Lato', sans-serif;font-size:48px;fill:#573351;stroke:#573351;stroke-width:1px;stroke-linecap:butt;stroke-miterlimit:2;">p</text></g><g transform="matrix(0.984002,-0.178158,0.178158,0.984002,-21.0545,106.33)"><text x="581.53px" y="170.399px" style="font-family:'Lato-Regular', 'Lato', sans-serif;font-size:48px;fill:#573351;stroke:#573351;stroke-width:1px;stroke-linecap:butt;stroke-miterlimit:2;">l</text></g><g transform="matrix(0.991025,-0.133678,0.133678,0.991025,-17.1496,80.8067)"><text x="593.2px" y="168.118px" style="font-family:'Lato-Regular', 'Lato', sans-serif;font-size:48px;fill:#573351;stroke:#573351;stroke-width:1px;stroke-linecap:butt;stroke-miterlimit:2;">o</text></g><g transform="matrix(0.99717,-0.0751804,0.0751804,0.99717,-10.613,47.091)"><text x="620.18px" y="164.513px" style="font-family:'Lato-Regular', 'Lato', sans-serif;font-size:48px;fill:#573351;stroke:#573351;stroke-width:1px;stroke-linecap:butt;stroke-miterlimit:2;">y</text></g><g transform="matrix(0.999823,-0.0188262,0.0188262,0.999823,-2.94751,12.1714)"><text x="644.981px" y="162.636px" style="font-family:'Lato-Regular', 'Lato', sans-serif;font-size:48px;fill:#573351;stroke:#573351;stroke-width:1px;stroke-linecap:butt;stroke-miterlimit:2;">e</text></g><g transform="matrix(0.999439,0.0334818,-0.0334818,0.999439,5.80777,-22.374)"><text x="670.959px" y="162.225px" style="font-family:'Lato-Regular', 'Lato', sans-serif;font-size:48px;fill:#573351;stroke:#573351;stroke-width:1px;stroke-linecap:butt;stroke-miterlimit:2;">r</text></g><g transform="matrix(0.998115,0.0613656,-0.0613656,0.998115,11.2918,-41.9579)"><text x="688.738px" y="162.857px" style="font-family:'Lato-Regular', 'Lato', sans-serif;font-size:48px;fill:#573351;stroke:#573351;stroke-width:1px;stroke-linecap:butt;stroke-miterlimit:2;">&apos;</text></g><g transform="matrix(0.995433,0.0954634,-0.0954634,0.995433,18.7864,-65.9417)"><text x="698.57px" y="163.371px" style="font-family:'Lato-Regular', 'Lato', sans-serif;font-size:48px;fill:#573351;stroke:#573351;stroke-width:1px;stroke-linecap:butt;stroke-miterlimit:2;">s</text></g><g transform="matrix(0.984419,0.17584,-0.17584,0.984419,40.8002,-126.208)"><text x="732.551px" y="167.119px" style="font-family:'Lato-Regular', 'Lato', sans-serif;font-size:48px;fill:#573351;stroke:#573351;stroke-width:1px;stroke-linecap:butt;stroke-miterlimit:2;">c</text></g><g transform="matrix(0.972809,0.231609,-0.231609,0.972809,60.21,-170.396)"><text x="755.81px" y="171.231px" style="font-family:'Lato-Regular', 'Lato', sans-serif;font-size:48px;fill:#573351;stroke:#573351;stroke-width:1px;stroke-linecap:butt;stroke-miterlimit:2;">u</text></g><g transform="matrix(0.958363,0.285554,-0.285554,0.958363,83.3255,-216.053)"><text x="782.522px" y="177.701px" style="font-family:'Lato-Regular', 'Lato', sans-serif;font-size:48px;fill:#573351;stroke:#573351;stroke-width:1px;stroke-linecap:butt;stroke-miterlimit:2;">s</text></g><g transform="matrix(0.94433,0.329,-0.329,0.94433,105.193,-253.955)"><text x="803.009px" y="183.86px" style="font-family:'Lato-Regular', 'Lato', sans-serif;font-size:48px;fill:#573351;stroke:#573351;stroke-width:1px;stroke-linecap:butt;stroke-miterlimit:2;">t</text></g><g transform="matrix(0.926268,0.376865,-0.376865,0.926268,131.888,-294.968)"><text x="819.778px" y="189.576px" style="font-family:'Lato-Regular', 'Lato', sans-serif;font-size:48px;fill:#573351;stroke:#573351;stroke-width:1px;stroke-linecap:butt;stroke-miterlimit:2;">o</text></g><g transform="matrix(0.893888,0.44829,-0.44829,0.893888,179.446,-358.037)"><text x="846.02px" y="200.033px" style="font-family:'Lato-Regular', 'Lato', sans-serif;font-size:48px;fill:#573351;stroke:#573351;stroke-width:1px;stroke-linecap:butt;stroke-miterlimit:2;">m</text></g><g transform="matrix(0.857433,0.514595,-0.514595,0.857433,238.18,-422.783)"><text x="882.109px" y="218.465px" style="font-family:'Lato-Regular', 'Lato', sans-serif;font-size:48px;fill:#573351;stroke:#573351;stroke-width:1px;stroke-linecap:butt;stroke-miterlimit:2;">e</text></g><g transform="matrix(0.828956,0.559314,-0.559314,0.828956,284.374,-466.137)"><text x="904.32px" y="231.883px" style="font-family:'Lato-Regular', 'Lato', sans-serif;font-size:48px;fill:#573351;stroke:#573351;stroke-width:1px;stroke-linecap:butt;stroke-miterlimit:2;">r</text></g><g transform="matrix(0.805654,0.592386,-0.592386,0.805654,321.927,-497.52)"><text x="919.21px" y="241.874px" style="font-family:'Lato-Regular', 'Lato', sans-serif;font-size:48px;fill:#573351;stroke:#573351;stroke-width:1px;stroke-linecap:butt;stroke-miterlimit:2;">s</text></g></g></g></svg>