<?xml version="1.0" encoding="UTF-8" standalone="no"?><!DOCTYPE svg PUBLIC "-//W3C//DTD SVG 1.1//EN" "http://www.w3.org/Graphics/SVG/1.1/DTD/svg11.dtd"><svg width="100%" height="100%" viewBox="0 0 500 500" version="1.1" xmlns="http://www.w3.org/2000/svg" xmlns:xlink="http://www.w3.org/1999/xlink" xml:space="preserve" xmlns:serif="http://www.serif.com/" style="fill-rule:evenodd;clip-rule:evenodd;stroke-miterlimit:10;"><g id="Floor--inject-2"><ellipse id="floor--inject-2" cx="250" cy="345.322" rx="222.46" ry="128.44" style="fill-opacity:0.21;"/><ellipse id="floor--inject-21" serif:id="floor--inject-2" cx="250" cy="339.53" rx="222.46" ry="128.44" style="fill:url(#_Linear1);"/></g><g id="Shadows--inject-2"><path id="Shadow--inject-2" d="M64.61,386.28l14.82,8.5c1.569,0.802 3.431,0.802 5,0l116.86,-67.5c1.37,-0.79 1.37,-2.07 0,-2.85l-15,-8.43c-1.571,-0.794 -3.429,-0.794 -5,0l-116.68,67.42c-1.37,0.79 -1.37,2.07 0,2.86Z" style="fill:#e0e0e0;fill-opacity:0.29;fill-rule:nonzero;"/><path id="shadow--inject-2" d="M434.09,386.28l-14.82,8.5c-1.569,0.799 -3.431,0.799 -5,0l-116.86,-67.5c-1.37,-0.79 -1.36,-2.07 0,-2.85l15,-8.43c1.571,-0.794 3.429,-0.794 5,0l116.68,67.4c1.37,0.81 1.37,2.09 0,2.88Z" style="fill:#e0e0e0;fill-opacity:0.29;fill-rule:nonzero;"/></g><g id="Plants--inject-2"><g id="plants--inject-2"><path d="M422.37,344.24c0,0 0.72,-15.15 7.44,-27.32c6.72,-12.17 16.51,-20.12 26.05,-21.51c9.54,-1.39 17.87,6.92 8,13.66c-9.87,6.74 -27.69,14.11 -34.58,37.33l-6.91,-2.16Z" style="fill:#ff40e0;fill-opacity:0.67;fill-rule:nonzero;"/><g opacity="0.2"><path d="M422.37,344.24c0,0 0.72,-15.15 7.44,-27.32c6.72,-12.17 16.51,-20.12 26.05,-21.51c9.54,-1.39 17.87,6.92 8,13.66c-9.87,6.74 -27.69,14.11 -34.58,37.33l-6.91,-2.16Z" style="fill-opacity:0.67;fill-rule:nonzero;"/></g><path d="M424.93,340.15l-0.11,0c-0.207,-0.069 -0.348,-0.265 -0.348,-0.484c0,-0.056 0.01,-0.112 0.028,-0.166c8.48,-25.59 27.06,-37.26 35.7,-39.86c0.049,-0.015 0.099,-0.022 0.15,-0.022c0.286,0 0.522,0.236 0.522,0.522c0,0.23 -0.152,0.434 -0.372,0.5c-8.47,2.55 -26.68,14 -35,39.21c-0.1,0.217 -0.335,0.34 -0.57,0.3Z" style="fill:#fff;fill-opacity:0.67;fill-rule:nonzero;"/><path d="M477.45,339.65c-0.78,2.14 -3,3.38 -5,4.37c-2,0.99 -4.29,2.05 -5.31,4.09c-2,4.13 2.11,9.47 -0.1,13.5c-1.065,1.642 -2.757,2.777 -4.68,3.14c-1.57,0.327 -3.155,0.574 -4.75,0.74c-0.759,0.045 -1.521,0.045 -2.28,0c-2.21,-0.18 -4.6,-0.12 -6.53,1.13c-3,2 -3.75,6 -5.47,9.24c-2.154,3.831 -5.887,6.528 -10.2,7.37c-1.41,0.28 -4,0.71 -5.53,0c-0.109,-0.046 -0.212,-0.103 -0.31,-0.17c-0.21,-0.21 -0.48,-0.48 -0.6,-0.63c-0.12,-0.15 0,-0.06 -0.06,-0.09c-0.7,-2 0.08,-4.23 0,-6.36l0,-0.39c-0.26,-2.47 -0.49,-4.92 -0.71,-7.39c-0.413,-4.533 -0.747,-9.077 -1,-13.63c-0.16,-2.95 -0.73,-6.16 0.33,-9c1.19,-3.15 4.62,-3.44 5.73,-6.53c0.44,-1.23 0.63,-2.53 1.05,-3.77c1.353,-3.715 4.678,-6.376 8.6,-6.88c6,-0.7 11.69,3.8 17.66,3c1.55,-0.23 3,-0.8 4.54,-1.18c4.81,-1.23 10.52,-0.22 13.53,3.72c1.273,1.614 1.68,3.751 1.09,5.72Z" style="fill:#ff40e0;fill-opacity:0.67;fill-rule:nonzero;"/><path d="M425.45,372.87l-0.05,0c-0.274,-0.055 -0.455,-0.326 -0.4,-0.6c6.25,-31.68 38.76,-38.34 46.47,-38.29c0.279,0.011 0.505,0.24 0.51,0.52c0,0 0,0 0,0c0,0.28 -0.23,0.51 -0.51,0.51c-0.003,0 -0.007,0 -0.01,0c-7.54,-0.05 -39.34,6.46 -45.45,37.46c-0.055,0.257 -0.299,0.432 -0.56,0.4Z" style="fill:#fff;fill-opacity:0.67;fill-rule:nonzero;"/><path d="M460.85,354.7c-0.104,-0.016 -0.201,-0.061 -0.28,-0.13c-6.477,-4.909 -14.818,-6.678 -22.73,-4.82c-0.036,0.008 -0.073,0.012 -0.11,0.012c-0.281,0 -0.512,-0.231 -0.512,-0.512c0,-0.239 0.168,-0.449 0.402,-0.5c8.234,-1.921 16.91,-0.067 23.64,5.05c0.107,0.098 0.169,0.238 0.169,0.383c0,0.286 -0.235,0.52 -0.52,0.52c-0.02,0 -0.04,-0.001 -0.059,-0.003Z" style="fill:#fff;fill-opacity:0.67;fill-rule:nonzero;"/></g><g id="plants--inject-21" serif:id="plants--inject-2"><path d="M74.91,340.86c-0.533,-6.52 -2.036,-12.924 -4.46,-19c-4,-9.78 -11.58,-19.64 -20.35,-21.5c-8.77,-1.86 -12.5,4.05 -10.65,9.85c1.6,5 8.12,9.14 13.07,13.5c4.95,4.36 14.2,14.89 16.77,25.07l4.95,0.54l0.67,-8.46Z" style="fill:#ff40e0;fill-opacity:0.62;fill-rule:nonzero;"/><g opacity="0.15"><path d="M74.91,340.86c-0.533,-6.52 -2.036,-12.924 -4.46,-19c-4,-9.78 -11.58,-19.64 -20.35,-21.5c-8.77,-1.86 -12.5,4.05 -10.65,9.85c1.6,5 8.12,9.14 13.07,13.5c4.95,4.36 14.2,14.89 16.77,25.07l4.95,0.54l0.67,-8.46Z" style="fill-opacity:0.62;fill-rule:nonzero;"/></g><path d="M71.53,345.45c-0.292,-0.005 -0.534,-0.238 -0.55,-0.53c-0.92,-25.59 -25.94,-39.89 -26.2,-40c-0.183,-0.099 -0.298,-0.291 -0.298,-0.5c0,-0.312 0.256,-0.568 0.568,-0.568c0.094,0 0.187,0.023 0.27,0.068c0.26,0.15 25.82,14.76 26.77,41c0.006,0.304 -0.237,0.559 -0.54,0.57l-0.02,-0.04Z" style="fill:#fff;fill-opacity:0.62;fill-rule:nonzero;"/><path d="M71.82,380.42c0,0 -5.12,3.23 -13.11,1.86c-2.582,-0.338 -4.992,-1.487 -6.88,-3.28c-2.06,-2.13 -2.39,-4.27 -3,-7.12c-0.158,-1.189 -0.567,-2.331 -1.2,-3.35c-1.72,-2.36 -5.14,-2.32 -8,-2.93c-4,-0.87 -7.76,-3.78 -8.93,-7.74c-1.17,-3.96 0.73,-8.8 4.56,-10.36l-4.7,-3c-1.455,-0.855 -2.798,-1.886 -4,-3.07c-1.205,-1.21 -1.918,-2.825 -2,-4.53c0.155,-2.548 1.765,-4.79 4.13,-5.75c2.343,-0.899 4.884,-1.158 7.36,-0.75c2.504,0.299 4.966,0.879 7.34,1.73c0.647,0.294 1.349,0.451 2.06,0.46c0.942,-0.159 1.823,-0.57 2.55,-1.19c5.38,-3.55 14.14,-3.28 17,3.41c0.43,1 0.68,2 1.13,3c1.68,3.6 6.38,2.52 9.41,4.2c1.941,1.217 3.24,3.239 3.54,5.51c0.6,3.57 -0.39,7.63 -1,11.16c-0.61,3.53 -1.49,6.8 -2.45,10.14c-0.78,2.76 -1.64,5.49 -2.56,8.2c-0.26,0.61 -0.69,3.04 -1.25,3.4Z" style="fill:#ff40e0;fill-opacity:0.62;fill-rule:nonzero;"/><path d="M75,372.17c-2.686,-7.376 -7.091,-14.006 -12.85,-19.34c-0.059,-0.126 -0.162,-0.225 -0.29,-0.28c-1.66,-1.559 -3.399,-3.031 -5.21,-4.41c-0.679,-4.741 -0.068,-9.578 1.77,-14c0.035,-0.074 0.052,-0.154 0.052,-0.235c0,-0.303 -0.249,-0.552 -0.552,-0.552c-0.214,0 -0.409,0.124 -0.5,0.317c-1.805,4.274 -2.493,8.937 -2,13.55c-7.366,-5.309 -15.537,-9.401 -24.2,-12.12c-0.047,-0.013 -0.097,-0.02 -0.146,-0.02c-0.247,0 -0.464,0.17 -0.524,0.41c-0.014,0.048 -0.021,0.098 -0.021,0.148c0,0.244 0.165,0.459 0.401,0.522c0.23,0.07 15.84,4.49 28.72,15.85c-7.9,-1.39 -17.34,2.43 -17.77,2.61c-0.208,0.084 -0.344,0.286 -0.344,0.51c0,0.302 0.248,0.55 0.55,0.55c0.001,0 0.003,0 0.004,0c0.069,0.014 0.141,0.014 0.21,0c0.11,-0.05 11.19,-4.53 19,-2.1c5.674,5.233 10.015,11.748 12.66,19c0.079,0.219 0.287,0.367 0.52,0.37l0.18,0c0.235,-0.072 0.396,-0.29 0.396,-0.536c0,-0.084 -0.019,-0.168 -0.056,-0.244Z" style="fill:#fff;fill-opacity:0.62;fill-rule:nonzero;"/></g></g><g id="Gears--inject-2"><g id="gears--inject-2"><path d="M57.28,181.15c-1.375,1.561 -3.154,2.713 -5.14,3.33l-0.21,0.05l-0.16,0l-0.35,0.06l-0.66,0c-0.039,0.01 -0.081,0.01 -0.12,0c-1.628,0.006 -3.105,-0.982 -3.72,-2.49c-0.287,-0.657 -0.47,-1.356 -0.54,-2.07c0.31,-0.14 0.62,-0.31 0.94,-0.49c4.675,-3.049 7.621,-8.156 7.92,-13.73l0,-1.07c0.874,-0.416 1.833,-0.622 2.8,-0.6l0.31,0c0.05,-0.01 0.1,-0.01 0.15,0c1.395,0.21 2.579,1.143 3.11,2.45c1.63,3.83 -0.29,10.3 -4.33,14.56Z" style="fill:#ff40e0;fill-rule:nonzero;"/><path d="M71.93,169.13c-0.078,-0.038 -0.163,-0.058 -0.25,-0.06l-3.38,-0.19c-0.007,0 -0.013,0 -0.02,0c-0.302,0 -0.55,-0.248 -0.55,-0.55c0,0 0,0 0,0c0.05,-0.54 0.07,-1.07 0.08,-1.58c0.004,-0.561 -0.022,-1.122 -0.08,-1.68c0.011,-0.367 0.144,-0.719 0.38,-1l3.77,-4.58c0.233,-0.253 0.32,-0.608 0.23,-0.94l-1.79,-4c-0.023,-0.051 -0.061,-0.093 -0.11,-0.12c-0.211,-0.071 -0.446,0.002 -0.58,0.18l-4,3.68c-0.22,0.25 -0.589,0.313 -0.88,0.15c-0.518,-0.42 -1.099,-0.757 -1.72,-1c-0.285,-0.105 -0.457,-0.4 -0.41,-0.7l1.24,-5.65c0.039,-0.156 -0.031,-0.32 -0.17,-0.4c-0.115,-0.054 -0.244,-0.075 -0.37,-0.06l-4,0.39c-0.368,0.045 -0.691,0.27 -0.86,0.6l-2.14,5.74c-0.186,0.365 -0.489,0.657 -0.86,0.83c-0.859,0.403 -1.682,0.878 -2.46,1.42c-0.34,0.22 -0.71,0.24 -0.85,0l-2,-3.09c-0.14,-0.22 -0.47,-0.17 -0.73,0.1l-4.33,4.58c-0.252,0.248 -0.378,0.598 -0.34,0.95l1.21,4.08c0.051,0.349 -0.028,0.705 -0.22,1c-0.733,1.11 -1.401,2.262 -2,3.45c-0.212,0.347 -0.548,0.602 -0.94,0.71l-3.71,0.89c-0.375,0.086 -0.688,0.347 -0.84,0.7l-1.87,6.28c-0.011,0.04 -0.017,0.08 -0.017,0.122c0,0.241 0.198,0.44 0.44,0.44c0.012,0 0.025,-0.001 0.037,-0.002l3.39,0.2c0.01,-0.001 0.02,-0.001 0.03,-0.001c0.296,0 0.54,0.244 0.54,0.54c0,0.004 0,0.007 0,0.011c-0.095,1.085 -0.095,2.175 0,3.26c-0.003,0.365 -0.13,0.717 -0.36,1l-3.78,4.58c-0.233,0.253 -0.32,0.608 -0.23,0.94l1.79,4c0.026,0.052 0.063,0.096 0.11,0.13c0.046,0.015 0.094,0.015 0.14,0c0.168,-0.012 0.325,-0.087 0.44,-0.21l4,-3.69c0.223,-0.247 0.591,-0.306 0.88,-0.14c0.517,0.422 1.098,0.759 1.72,1c0.289,0.106 0.463,0.407 0.41,0.71l-1.25,5.65c-0.03,0.15 0.039,0.302 0.17,0.38c0.113,0.062 0.242,0.087 0.37,0.07l4,-0.39c0.368,-0.045 0.691,-0.27 0.86,-0.6l2.14,-5.74c0.188,-0.366 0.49,-0.661 0.86,-0.84c0.432,-0.196 0.853,-0.417 1.26,-0.66c0.39,-0.23 0.79,-0.48 1.19,-0.75c0.4,-0.27 0.7,-0.24 0.84,0l2,3.08c0.026,0.038 0.06,0.069 0.1,0.09c0.16,0.11 0.42,0 0.63,-0.19l4.33,-4.57c0.269,-0.257 0.393,-0.633 0.33,-1l-1.2,-4.09c-0.06,-0.349 0.019,-0.708 0.22,-1c0.739,-1.11 1.407,-2.266 2,-3.46c0.225,-0.359 0.586,-0.611 1,-0.7l3.7,-0.89c0.375,-0.086 0.688,-0.347 0.84,-0.7l1.87,-6.28c0.016,-0.181 -0.084,-0.354 -0.25,-0.43Zm-19.78,15.35l-0.22,0.05l-0.16,0l-0.35,0.06l-0.78,0c-1.631,0.005 -3.108,-0.988 -3.72,-2.5c-0.288,-0.657 -0.471,-1.356 -0.54,-2.07c-0.04,-0.382 -0.06,-0.766 -0.06,-1.15c0.242,-4.202 1.977,-8.182 4.89,-11.22c0.88,-0.945 1.89,-1.759 3,-2.42c0.323,-0.19 0.657,-0.36 1,-0.51c0.876,-0.408 1.834,-0.61 2.8,-0.59l0.47,0c1.391,0.213 2.571,1.146 3.1,2.45c1.67,3.7 -0.25,10.16 -4.29,14.43c-1.355,1.614 -3.136,2.817 -5.14,3.47Z" style="fill:#f5f5f5;fill-rule:nonzero;"/><path d="M62.21,149.83l7.98,4.62" style="fill:none;fill-rule:nonzero;"/><path d="M56.28,157.39c-0.197,0.345 -0.493,0.624 -0.85,0.8c-0.85,0.402 -1.663,0.877 -2.43,1.42c-0.34,0.22 -0.71,0.24 -0.85,0l-2,-3.08c-0.023,-0.04 -0.058,-0.071 -0.1,-0.09l-3.79,-2.19c0.407,-0.243 0.828,-0.464 1.26,-0.66l0.14,-0.08c0.149,-0.093 0.287,-0.204 0.41,-0.33l0.15,-0.16c0.033,-0.035 0.06,-0.076 0.08,-0.12l0.06,-0.11l7.92,4.6Z" style="fill:#ebebeb;fill-rule:nonzero;"/><path d="M46,166.38c0.007,0.304 -0.077,0.603 -0.24,0.86c-0.732,1.111 -1.399,2.263 -2,3.45c-0.05,0.099 -0.114,0.19 -0.19,0.27l-8,-4.61c0.042,-0.038 0.079,-0.082 0.11,-0.13c0.04,-0.042 0.073,-0.089 0.1,-0.14c0.593,-1.194 1.261,-2.35 2,-3.46c0.039,-0.056 0.073,-0.117 0.1,-0.18c0.027,-0.063 0,-0.08 0,-0.12c0.004,-0.023 0.004,-0.047 0,-0.07c-0.004,-0.023 0,0 0,0c0.004,-0.057 0.004,-0.113 0,-0.17c0.015,-0.086 0.015,-0.174 0,-0.26l8.12,4.56Z" style="fill:#ebebeb;fill-rule:nonzero;"/><path d="M62.3,149.88l-0.09,-0.05" style="fill:none;fill-rule:nonzero;"/><path d="M46.2,154.24l-4.14,-2.4c-0.054,-0.033 -0.117,-0.05 -0.18,-0.05c-0.177,0.013 -0.341,0.1 -0.45,0.24l-2.59,2.74l-1.74,1.83c-0.142,0.155 -0.248,0.339 -0.31,0.54l6.09,3.5l1.89,1.08c0.064,-0.186 0.166,-0.356 0.3,-0.5l0.06,-0.06l4.27,-4.52c0.142,-0.181 0.377,-0.263 0.6,-0.21l-3.8,-2.19Z" style="fill:#f5f5f5;fill-rule:nonzero;"/><path d="M63.58,150.68c-0.105,-0.054 -0.224,-0.072 -0.34,-0.05l-4,0.39c-0.243,0.028 -0.471,0.133 -0.65,0.3l-8,-4.6c0.176,-0.173 0.405,-0.283 0.65,-0.31l4,-0.39c0.134,-0.021 0.272,0.003 0.39,0.07l1.06,0.62l0.53,0.3l3.38,2l0.83,0.48l0.61,0.35l1.54,0.84Z" style="fill:#f5f5f5;fill-rule:nonzero;"/><path d="M43.52,171c-0.206,0.206 -0.461,0.357 -0.74,0.44l-3.71,0.89c-0.271,0.065 -0.513,0.216 -0.69,0.43l-8,-4.59c0.182,-0.225 0.43,-0.386 0.71,-0.46l3.71,-0.89c0.277,-0.069 0.528,-0.219 0.72,-0.43l8,4.61Z" style="fill:#e6e6e6;fill-rule:nonzero;"/><path d="M40.7,184.29c-0.066,0.198 -0.164,0.384 -0.29,0.55l-3.78,4.58c-0.109,0.136 -0.19,0.293 -0.24,0.46l-8,-4.61c0.041,-0.174 0.123,-0.335 0.24,-0.47l3.78,-4.58c0.126,-0.159 0.224,-0.338 0.29,-0.53l8,4.6Z" style="fill:#e6e6e6;fill-rule:nonzero;"/><path d="M30.47,176.24l0.11,0.07l-0.14,-0.09l-0.28,-0.16l0.31,0.18Z" style="fill:#e0e0e0;fill-rule:nonzero;"/><path d="M57.28,181.15c-1.375,1.561 -3.154,2.713 -5.14,3.33l-0.21,0.05l-0.16,0l-0.35,0.06l-0.66,0c-0.039,0.01 -0.081,0.01 -0.12,0c-1.628,0.006 -3.105,-0.982 -3.72,-2.49c-0.287,-0.657 -0.47,-1.356 -0.54,-2.07c0.31,-0.14 0.62,-0.31 0.94,-0.49c4.675,-3.049 7.621,-8.156 7.92,-13.73l0,-1.07c0.874,-0.416 1.833,-0.622 2.8,-0.6l0.31,0c0.05,-0.01 0.1,-0.01 0.15,0c1.395,0.21 2.579,1.143 3.11,2.45c1.63,3.83 -0.29,10.3 -4.33,14.56Z" style="fill:#e0e0e0;fill-rule:nonzero;"/><path d="M46,166.38l-8,-4.6c0.01,-0.05 0.01,-0.1 0,-0.15l-1.21,-4.08c-0.039,-0.134 -0.039,-0.276 0,-0.41l6.09,3.5l1.89,1.08c-0.042,0.147 -0.042,0.303 0,0.45l1.21,4.08c0.012,0.042 0.019,0.086 0.02,0.13Z" style="fill:#e0e0e0;fill-rule:nonzero;"/><path d="M58.64,151.32c-0.091,0.084 -0.162,0.186 -0.21,0.3l-2.14,5.74l-8,-4.61l2.17,-5.75c0.042,-0.114 0.115,-0.215 0.21,-0.29l7.97,4.61Z" style="fill:#e0e0e0;fill-rule:nonzero;"/><path d="M70.14,154.42c-0.204,-0.044 -0.417,0.029 -0.55,0.19l-4,3.69c-0.226,0.249 -0.595,0.311 -0.89,0.15c-0.518,-0.42 -1.099,-0.757 -1.72,-1c-0.285,-0.105 -0.457,-0.4 -0.41,-0.7l1.24,-5.65c0.043,-0.156 -0.028,-0.323 -0.17,-0.4l-1.51,-0.88c0.046,-0.01 0.094,-0.01 0.14,0l0.09,0.06l7.78,4.54Z" style="fill:#e0e0e0;fill-rule:nonzero;"/><path d="M71.91,169.12c-0.078,-0.038 -0.163,-0.058 -0.25,-0.06l-3.38,-0.19c-0.007,0 -0.013,0 -0.02,0c-0.302,0 -0.55,-0.248 -0.55,-0.55c0,0 0,0 0,0c0.05,-0.54 0.08,-1.07 0.08,-1.59l4.12,2.39Z" style="fill:#e0e0e0;fill-rule:nonzero;"/><path d="M35.65,166.22c-0.031,0.048 -0.068,0.092 -0.11,0.13c0.042,-0.039 0.079,-0.082 0.11,-0.13Z" style="fill:#e0e0e0;fill-rule:nonzero;"/><path d="M30.39,168.13c-0.055,0.073 -0.099,0.154 -0.13,0.24l-0.23,0.78l-1.22,4.1l-0.41,1.4c-0.024,0.075 -0.024,0.155 0,0.23c0.011,0.045 0.027,0.089 0.05,0.13c0.031,0.036 0.064,0.069 0.1,0.1l0.06,0l0.63,0.37l0.17,0.09l0.5,0.28l0.26,0.16l0.31,0.18l0.11,0.07l0.33,0.18l1.8,1l3.8,2.2c-0.156,-0.1 -0.226,-0.293 -0.17,-0.47l1.65,-5.41l0.23,-0.78c0.035,-0.095 0.085,-0.183 0.15,-0.26l-7.99,-4.59Z" style="fill:#e0e0e0;fill-rule:nonzero;"/><path d="M58.47,192.45l-4.15,-2.45c0.39,-0.23 0.79,-0.48 1.19,-0.75c0.4,-0.27 0.7,-0.24 0.84,0l2,3.09c0.028,0.048 0.07,0.086 0.12,0.11Z" style="fill:#e0e0e0;fill-rule:nonzero;"/><path d="M46,192.15l-1.25,5.66c-0.03,0.15 0.039,0.302 0.17,0.38l-6.4,-3.7c0.166,-0.018 0.322,-0.092 0.44,-0.21l4,-3.68c0.22,-0.25 0.586,-0.317 0.88,-0.16c0.515,0.425 1.096,0.763 1.72,1c0.304,0.091 0.494,0.398 0.44,0.71Z" style="fill:#e0e0e0;fill-rule:nonzero;"/><path d="M40.77,183.84c0.012,0.153 -0.012,0.307 -0.07,0.45l-8,-4.6c0.053,-0.147 0.077,-0.304 0.07,-0.46c0,-0.55 -0.07,-1.11 -0.07,-1.69l3.8,2.2c0.083,0.044 0.176,0.068 0.27,0.07l3.39,0.19c0.007,0 0.013,0 0.02,0c0.302,0 0.55,0.248 0.55,0.55c0,0.003 0,0.007 0,0.01c-0.083,1.092 -0.069,2.19 0.04,3.28Z" style="fill:#e0e0e0;fill-rule:nonzero;"/><path d="M38.29,194.44l-1.62,-0.94l-0.31,-0.17l-2.61,-1.52l-0.71,-0.4l-2.68,-1.56c-0.024,-0.011 -0.045,-0.028 -0.06,-0.05c-0.023,-0.022 -0.041,-0.049 -0.05,-0.08l-1.8,-4c-0.036,-0.107 -0.036,-0.223 0,-0.33c0.036,-0.107 0,-0.09 0,-0.14l8,4.61c-0.056,0.152 -0.056,0.318 0,0.47l1.79,4c0.009,0.04 0.026,0.077 0.05,0.11Z" style="fill:#e0e0e0;fill-rule:nonzero;"/><path d="M104.84,104.58c-0.106,-0.053 -0.222,-0.084 -0.34,-0.09l-4.65,-0.26c-0.01,0 -0.02,0.001 -0.03,0.001c-0.412,0 -0.75,-0.339 -0.75,-0.75c0,-0.004 0,-0.007 0,-0.011c0.06,-0.73 0.1,-1.46 0.11,-2.17c-0.003,-0.768 -0.046,-1.536 -0.13,-2.3c0.014,-0.5 0.194,-0.982 0.51,-1.37l5.19,-6.28c0.315,-0.353 0.435,-0.841 0.32,-1.3l-2.47,-5.45c-0.027,-0.074 -0.08,-0.134 -0.15,-0.17c-0.289,-0.08 -0.6,0.018 -0.79,0.25l-5.55,5.06c-0.309,0.334 -0.81,0.417 -1.21,0.2c-0.711,-0.581 -1.511,-1.044 -2.37,-1.37c-0.401,-0.155 -0.637,-0.577 -0.56,-1l1.71,-7.76c0.064,-0.214 -0.033,-0.445 -0.23,-0.55c-0.16,-0.084 -0.342,-0.115 -0.52,-0.09l-5.42,0.54c-0.509,0.055 -0.956,0.369 -1.18,0.83l-2.97,7.86c-0.259,0.502 -0.678,0.903 -1.19,1.14c-1.168,0.558 -2.288,1.21 -3.35,1.95c-0.46,0.3 -1,0.32 -1.17,0l-2.77,-4.23c-0.2,-0.3 -0.64,-0.24 -1,0.13l-5.95,6.31c-0.349,0.336 -0.52,0.819 -0.46,1.3l1.65,5.62c0.074,0.472 -0.033,0.954 -0.3,1.35c-1.009,1.526 -1.924,3.113 -2.74,4.75c-0.283,0.489 -0.746,0.848 -1.29,1l-5.09,1.22c-0.521,0.135 -0.95,0.505 -1.16,1l-2.54,8.56c-0.014,0.052 -0.021,0.106 -0.021,0.161c0,0.34 0.28,0.62 0.62,0.62c0.01,0 0.021,0 0.031,-0.001l4.66,0.26c0.007,0 0.013,0 0.02,0c0.417,0 0.76,0.343 0.76,0.76c0,0 0,0 0,0c-0.135,1.49 -0.135,2.99 0,4.48c-0.004,0.501 -0.18,0.985 -0.5,1.37l-5.19,6.29c-0.32,0.347 -0.441,0.834 -0.32,1.29l2.47,5.45c0.024,0.075 0.078,0.137 0.15,0.17c0.062,0.019 0.128,0.019 0.19,0c0.228,-0.017 0.441,-0.116 0.6,-0.28l5.53,-5.01c0.309,-0.334 0.81,-0.417 1.21,-0.2c0.716,0.577 1.515,1.042 2.37,1.38c0.409,0.145 0.65,0.575 0.56,1l-1.7,7.76c-0.055,0.205 0.035,0.424 0.22,0.53c0.156,0.084 0.335,0.116 0.51,0.09l5.42,-0.53c0.509,-0.062 0.956,-0.374 1.19,-0.83l2.94,-7.88c0.257,-0.502 0.672,-0.906 1.18,-1.15c0.57,-0.27 1.15,-0.57 1.73,-0.91c0.58,-0.34 1.08,-0.66 1.63,-1c0.55,-0.34 1,-0.33 1.16,0l2.78,4.24c0.03,0.052 0.076,0.094 0.13,0.12c0.23,0.14 0.57,0.05 0.86,-0.26l6,-6.29c0.347,-0.338 0.517,-0.819 0.46,-1.3l-1.65,-5.69c-0.072,-0.473 0.039,-0.956 0.31,-1.35c0.993,-1.541 1.891,-3.14 2.69,-4.79c0.282,-0.493 0.751,-0.854 1.3,-1l5.09,-1.23c0.523,-0.126 0.953,-0.499 1.15,-1l2.57,-8.62c0.036,-0.227 -0.072,-0.454 -0.27,-0.57Zm-27.18,21.08l-0.3,0.07c-0.07,0.009 -0.14,0.009 -0.21,0l-0.48,0.08l-0.56,0.06l-0.51,0c-2.243,0.02 -4.279,-1.347 -5.11,-3.43c-0.396,-0.906 -0.649,-1.867 -0.75,-2.85c-0.062,-0.521 -0.089,-1.045 -0.08,-1.57c0,-4.92 2.56,-11 6.72,-15.41c1.207,-1.297 2.591,-2.418 4.11,-3.33c0.441,-0.263 0.899,-0.497 1.37,-0.7c1.2,-0.565 2.514,-0.846 3.84,-0.82l0.65,0c1.918,0.281 3.545,1.568 4.26,3.37c2.3,5.08 -0.34,14 -5.89,19.82c-1.869,2.196 -4.314,3.828 -7.06,4.71Z" style="fill:#f5f5f5;fill-rule:nonzero;"/><path d="M91.49,78.05l10.96,6.35" style="fill:none;fill-rule:nonzero;"/><path d="M83.34,88.44c-0.262,0.483 -0.672,0.868 -1.17,1.1c-1.166,0.558 -2.286,1.207 -3.35,1.94c-0.46,0.31 -1,0.34 -1.17,0l-2.76,-4.23c-0.034,-0.059 -0.087,-0.104 -0.15,-0.13l-2.74,-1.6c0.58,-0.33 1.15,-0.64 1.72,-0.9l0.2,-0.11c0.205,-0.125 0.394,-0.276 0.56,-0.45c0.078,-0.069 0.148,-0.146 0.21,-0.23c0.043,-0.045 0.08,-0.095 0.11,-0.15l0.08,-0.15l8.46,4.91Z" style="fill:#ebebeb;fill-rule:nonzero;"/><path d="M69.15,100.79c0.01,0.414 -0.105,0.822 -0.33,1.17c-1.005,1.529 -1.92,3.115 -2.74,4.75c-0.071,0.133 -0.162,0.255 -0.27,0.36l-8.51,-4.91c0.061,-0.053 0.115,-0.113 0.16,-0.18c0.048,-0.06 0.091,-0.124 0.13,-0.19c0.804,-1.655 1.716,-3.255 2.73,-4.79c0.055,-0.073 0.099,-0.154 0.13,-0.24c0.035,-0.055 0.059,-0.116 0.07,-0.18c0.005,-0.03 0.005,-0.06 0,-0.09l0,-0.23c0.024,-0.119 0.024,-0.241 0,-0.36l8.63,4.89Z" style="fill:#ebebeb;fill-rule:nonzero;"/><path d="M91.62,78.12l-0.13,-0.07" style="fill:none;fill-rule:nonzero;"/><path d="M72,85.52l-5.69,-3.29c-0.072,-0.044 -0.155,-0.068 -0.24,-0.07c-0.25,0.017 -0.481,0.137 -0.64,0.33l-3.56,3.76l-2.39,2.52c-0.195,0.215 -0.338,0.472 -0.42,0.75l5.91,3.38l2.6,1.49c0.083,-0.258 0.223,-0.494 0.41,-0.69l0.08,-0.08l5.87,-6.21c0.192,-0.249 0.514,-0.363 0.82,-0.29l-2.75,-1.6Z" style="fill:#f5f5f5;fill-rule:nonzero;"/><path d="M93.38,79.22c-0.147,-0.066 -0.31,-0.091 -0.47,-0.07l-5.43,0.54c-0.331,0.044 -0.641,0.187 -0.89,0.41l-8.51,-4.91c0.249,-0.23 0.564,-0.377 0.9,-0.42l5.43,-0.54c0.183,-0.028 0.37,0.007 0.53,0.1l1.46,0.85l0.72,0.42l2.19,1.27l1.15,0.67c0.29,0.15 0.57,0.32 0.83,0.47l2.09,1.21Z" style="fill:#f5f5f5;fill-rule:nonzero;"/><path d="M65.81,107.08c-0.273,0.287 -0.618,0.495 -1,0.6l-5.1,1.23c-0.367,0.093 -0.694,0.304 -0.93,0.6l-8.53,-4.9c0.254,-0.315 0.606,-0.536 1,-0.63l5.09,-1.22c0.38,-0.103 0.726,-0.307 1,-0.59l8.47,4.91Z" style="fill:#e6e6e6;fill-rule:nonzero;"/><path d="M61.94,125.4c-0.088,0.274 -0.227,0.528 -0.41,0.75l-5.18,6.29c-0.152,0.185 -0.265,0.4 -0.33,0.63l-8.5,-4.91c0.057,-0.235 0.167,-0.453 0.32,-0.64l5.2,-6.29c0.174,-0.221 0.307,-0.471 0.39,-0.74l8.51,4.91Z" style="fill:#e6e6e6;fill-rule:nonzero;"/><path d="M50.33,115.75l0.16,0.1l-0.2,-0.12l-0.38,-0.22l0.42,0.24Z" style="fill:#e0e0e0;fill-rule:nonzero;"/><path d="M84.71,121.09c-1.871,2.135 -4.293,3.716 -7,4.57l-0.3,0.07c-0.07,0.009 -0.14,0.009 -0.21,0l-0.48,0.08c-0.185,0.03 -0.372,0.05 -0.56,0.06l-0.52,0c-2.241,0.021 -4.275,-1.347 -5.1,-3.43c-0.397,-0.905 -0.65,-1.867 -0.75,-2.85c0.42,-0.19 0.85,-0.42 1.29,-0.66c6,-3.48 10.89,-11.92 10.89,-18.87c0,-0.52 0,-1 -0.06,-1.48c1.2,-0.562 2.515,-0.84 3.84,-0.81l0.43,0c0.07,-0.01 0.14,-0.01 0.21,0c1.918,0.28 3.547,1.562 4.27,3.36c2.25,5.21 -0.39,14.1 -5.95,19.96Z" style="fill:#e0e0e0;fill-rule:nonzero;"/><path d="M69.15,100.79l-8.51,-4.9c0.01,-0.066 0.01,-0.134 0,-0.2l-1.64,-5.61c-0.053,-0.183 -0.053,-0.377 0,-0.56l5.91,3.38l2.6,1.49c-0.077,0.197 -0.097,0.412 -0.06,0.62l1.66,5.6c0.024,0.057 0.037,0.118 0.04,0.18Z" style="fill:#e0e0e0;fill-rule:nonzero;"/><path d="M86.59,80.1c-0.127,0.116 -0.226,0.26 -0.29,0.42l-2.94,7.88l-8.51,-4.91l0,-0.06l2.94,-7.88c0.059,-0.154 0.155,-0.292 0.28,-0.4l8.52,4.95Z" style="fill:#e0e0e0;fill-rule:nonzero;"/><path d="M102.39,84.36c-0.287,-0.062 -0.585,0.043 -0.77,0.27l-5.53,5.06c-0.311,0.339 -0.817,0.422 -1.22,0.2c-0.711,-0.581 -1.511,-1.044 -2.37,-1.37c-0.401,-0.155 -0.637,-0.577 -0.56,-1l1.71,-7.75c0.058,-0.216 -0.042,-0.446 -0.24,-0.55l-2.12,-1.22c0.069,-0.014 0.141,-0.014 0.21,0l0.12,0.07l10.77,6.29Z" style="fill:#e0e0e0;fill-rule:nonzero;"/><path d="M104.82,104.56c-0.105,-0.055 -0.222,-0.082 -0.34,-0.08l-4.65,-0.26c-0.007,0 -0.013,0 -0.02,0c-0.417,0 -0.76,-0.343 -0.76,-0.76c0,-0.003 0,-0.007 0,-0.01c0.06,-0.73 0.1,-1.46 0.1,-2.17l5.67,3.28Z" style="fill:#e0e0e0;fill-rule:nonzero;"/><path d="M57.46,102c-0.045,0.067 -0.099,0.127 -0.16,0.18l0.16,-0.18Z" style="fill:#e0e0e0;fill-rule:nonzero;"/><path d="M50.23,104.61c-0.104,0.112 -0.183,0.245 -0.23,0.39l-0.27,1l-1.67,5.63l-0.57,1.93c-0.035,0.1 -0.035,0.21 0,0.31c0.008,0.062 0.032,0.12 0.07,0.17c0.035,0.054 0.079,0.101 0.13,0.14c0.026,0.025 0.057,0.045 0.09,0.06l0.85,0.5l0.24,0.13l0.68,0.39l0.37,0.22l0.42,0.24l0.16,0.1l0.45,0.25l2.48,1.43l2.77,1.6c-0.216,-0.138 -0.311,-0.407 -0.23,-0.65l2.25,-7.57l0.32,-1.06c0.038,-0.136 0.111,-0.26 0.21,-0.36l-8.52,-4.85Z" style="fill:#e0e0e0;fill-rule:nonzero;"/><path d="M86.35,136.6l-5.7,-3.31c0.53,-0.31 1.09,-0.66 1.63,-1c0.54,-0.34 1,-0.33 1.16,0l2.77,4.24c0.043,0.031 0.09,0.054 0.14,0.07Z" style="fill:#e0e0e0;fill-rule:nonzero;"/><path d="M69.15,136.2l-1.71,7.8c-0.054,0.208 0.042,0.427 0.23,0.53c-0.35,-0.19 -5.71,-3.3 -8.8,-5.09c0.226,-0.022 0.438,-0.121 0.6,-0.28l5.53,-5.1c0.307,-0.337 0.807,-0.424 1.21,-0.21c0.711,0.587 1.511,1.056 2.37,1.39c0.396,0.139 0.637,0.546 0.57,0.96Z" style="fill:#e0e0e0;fill-rule:nonzero;"/><path d="M62,124.78c0.011,0.211 -0.023,0.423 -0.1,0.62l-8.51,-4.91c0.079,-0.2 0.117,-0.415 0.11,-0.63c-0.074,-0.768 -0.107,-1.539 -0.1,-2.31l2.77,1.6c0.114,0.063 0.24,0.101 0.37,0.11l4.66,0.26c0.007,0 0.013,0 0.02,0c0.417,0 0.76,0.343 0.76,0.76c0,0 0,0 0,0c-0.129,1.498 -0.123,3.004 0.02,4.5Z" style="fill:#e0e0e0;fill-rule:nonzero;"/><path d="M58.63,139.35l-2.23,-1.29l-0.42,-0.25l-3.59,-2.07c-0.34,-0.2 -0.66,-0.39 -1,-0.56l-1.23,-0.73c-0.034,-0.018 -0.064,-0.042 -0.09,-0.07c-0.03,-0.032 -0.054,-0.069 -0.07,-0.11l-2.47,-5.46c-0.047,-0.146 -0.047,-0.304 0,-0.45c-0.004,-0.063 -0.004,-0.127 0,-0.19l8.5,4.91c-0.075,0.214 -0.075,0.446 0,0.66l2.46,5.45c0.034,0.063 0.082,0.118 0.14,0.16Z" style="fill:#e0e0e0;fill-rule:nonzero;"/></g><g id="gears--inject-21" serif:id="gears--inject-2"><path d="M410.76,109.36c1.367,1.566 3.144,2.719 5.13,3.33l0.37,0l0.35,0.06l0.66,0c0.039,0.01 0.081,0.01 0.12,0c1.628,0.006 3.105,-0.982 3.72,-2.49c0.288,-0.657 0.471,-1.356 0.54,-2.07c-0.3,-0.14 -0.62,-0.31 -0.93,-0.49c-4.681,-3.044 -7.632,-8.154 -7.93,-13.73l0,-1.07c-0.874,-0.416 -1.833,-0.622 -2.8,-0.6l-0.46,0c-1.395,0.21 -2.579,1.143 -3.11,2.45c-1.63,3.88 0.29,10.35 4.34,14.61Z" style="fill:#ff40e0;fill-rule:nonzero;"/><path d="M395.9,97.84l1.87,6.28c0.152,0.353 0.465,0.614 0.84,0.7l3.71,0.89c0.393,0.101 0.73,0.353 0.94,0.7c0.597,1.192 1.265,2.348 2,3.46c0.199,0.293 0.278,0.651 0.22,1l-1.2,4.08c-0.063,0.367 0.061,0.743 0.33,1l4.34,4.57c0.21,0.23 0.46,0.3 0.62,0.2c0.04,-0.021 0.074,-0.052 0.1,-0.09l2,-3.09c0.14,-0.22 0.52,-0.2 0.85,0c0.33,0.2 0.79,0.53 1.19,0.76c0.4,0.23 0.84,0.46 1.25,0.66c0.371,0.173 0.674,0.465 0.86,0.83l2.14,5.74c0.171,0.333 0.498,0.558 0.87,0.6l3.94,0.39c0.128,0.017 0.257,-0.008 0.37,-0.07c0.132,-0.076 0.198,-0.232 0.16,-0.38l-1.25,-5.65c-0.048,-0.303 0.124,-0.601 0.41,-0.71c0.626,-0.241 1.209,-0.578 1.73,-1c0.292,-0.159 0.658,-0.097 0.88,0.15l4,3.68c0.116,0.121 0.273,0.196 0.44,0.21c0.046,0.01 0.094,0.01 0.14,0c0.051,-0.028 0.09,-0.075 0.11,-0.13l1.79,-4c0.09,-0.332 0.003,-0.687 -0.23,-0.94l-3.77,-4.58c-0.237,-0.279 -0.368,-0.634 -0.37,-1c0.1,-1.084 0.1,-2.176 0,-3.26c0,0 0,0 0,0c0,-0.302 0.248,-0.55 0.55,-0.55c0.007,0 0.013,0 0.02,0l3.39,-0.19c0.009,0.001 0.018,0.001 0.027,0.001c0.246,0 0.45,-0.203 0.45,-0.45c0,-0.041 -0.006,-0.082 -0.017,-0.121l-1.87,-6.28c-0.152,-0.353 -0.465,-0.614 -0.84,-0.7l-3.7,-0.89c-0.392,-0.102 -0.73,-0.353 -0.94,-0.7c-0.597,-1.192 -1.265,-2.348 -2,-3.46c-0.195,-0.294 -0.274,-0.651 -0.22,-1l1.21,-4.09c0.042,-0.352 -0.084,-0.705 -0.34,-0.95l-4.33,-4.58c-0.26,-0.27 -0.58,-0.31 -0.73,-0.09l-2,3.08c-0.14,0.22 -0.51,0.2 -0.84,0c-0.778,-0.538 -1.597,-1.013 -2.45,-1.42c-0.371,-0.173 -0.674,-0.465 -0.86,-0.83l-2.14,-5.74c-0.167,-0.332 -0.491,-0.558 -0.86,-0.6l-3.94,-0.39c-0.13,-0.014 -0.261,0.007 -0.38,0.06c-0.139,0.08 -0.209,0.244 -0.17,0.4l1.29,5.65c0.05,0.3 -0.117,0.597 -0.4,0.71c-0.627,0.238 -1.211,0.576 -1.73,1c-0.292,0.159 -0.658,0.097 -0.88,-0.15l-4,-3.68c-0.21,-0.19 -0.43,-0.26 -0.58,-0.18c-0.044,0.03 -0.078,0.072 -0.1,0.12l-1.8,4c-0.09,0.332 -0.003,0.687 0.23,0.94l3.77,4.51c0.229,0.284 0.359,0.635 0.37,1c-0.057,0.558 -0.084,1.119 -0.08,1.68c0,0.51 0,1 0.08,1.58c0,0 0,0 0,0c0,0.302 -0.248,0.55 -0.55,0.55c-0.007,0 -0.013,0 -0.02,0l-3.38,0.19c-0.086,0.003 -0.171,0.024 -0.25,0.06c-0.207,0.075 -0.324,0.297 -0.27,0.51Zm14.85,11.52c-4,-4.26 -6,-10.73 -4.28,-14.43c0.519,-1.312 1.704,-2.248 3.1,-2.45l0.43,0c0.963,-0.02 1.917,0.182 2.79,0.59c0.33,0.15 0.67,0.32 1,0.51c1.112,0.661 2.122,1.48 3,2.43c2.915,3.033 4.65,7.011 4.89,11.21c0.011,0.384 -0.009,0.769 -0.06,1.15c-0.069,0.714 -0.252,1.413 -0.54,2.07c-0.612,1.512 -2.089,2.505 -3.72,2.5l-0.77,0l-0.35,-0.06l-0.15,0l-0.22,-0.06c-1.995,-0.655 -3.768,-1.854 -5.12,-3.46Z" style="fill:#f5f5f5;fill-rule:nonzero;"/><path d="M405.82,78.04l-7.97,4.62" style="fill:none;fill-rule:nonzero;"/><path d="M411.76,85.6c0.182,0.353 0.478,0.635 0.84,0.8c0.853,0.407 1.672,0.882 2.45,1.42c0.33,0.22 0.7,0.24 0.84,0l2,-3.08c0.023,-0.043 0.057,-0.077 0.1,-0.1l3.79,-2.19c-0.42,-0.24 -0.84,-0.47 -1.25,-0.66c-0.053,-0.021 -0.103,-0.047 -0.15,-0.08c-0.149,-0.093 -0.287,-0.204 -0.41,-0.33l-0.15,-0.16c-0.03,-0.038 -0.057,-0.078 -0.08,-0.12l-0.06,-0.11l-7.92,4.61Z" style="fill:#ebebeb;fill-rule:nonzero;"/><path d="M422.09,94.59c-0.014,0.3 0.066,0.598 0.23,0.85c0.735,1.112 1.403,2.268 2,3.46c0.048,0.1 0.116,0.188 0.2,0.26l8,-4.61c-0.045,-0.036 -0.082,-0.08 -0.11,-0.13c-0.039,-0.038 -0.073,-0.082 -0.1,-0.13c-0.593,-1.198 -1.261,-2.357 -2,-3.47c-0.036,-0.053 -0.066,-0.11 -0.09,-0.17c-0.025,-0.04 -0.042,-0.084 -0.05,-0.13c-0.008,-0.046 0,0 0,-0.07c0,-0.07 0,0 0,0c-0.004,-0.057 -0.004,-0.113 0,-0.17c-0.024,-0.085 -0.024,-0.175 0,-0.26l-8.08,4.57Z" style="fill:#ebebeb;fill-rule:nonzero;"/><path d="M405.73,78.09l0.1,-0.05" style="fill:none;fill-rule:nonzero;"/><path d="M421.83,82.45l4.14,-2.4c0.059,-0.016 0.121,-0.016 0.18,0c0.18,0.013 0.347,0.1 0.46,0.24l2.59,2.71l1.74,1.83c0.145,0.157 0.251,0.345 0.31,0.55l-6.09,3.49l-1.89,1.08c-0.059,-0.188 -0.162,-0.36 -0.3,-0.5l-0.05,-0.06l-4.28,-4.52c-0.14,-0.183 -0.376,-0.265 -0.6,-0.21l3.79,-2.21Z" style="fill:#f5f5f5;fill-rule:nonzero;"/><path d="M404.45,78.89c0.112,-0.027 0.228,-0.027 0.34,0l3.95,0.39c0.244,0.026 0.472,0.132 0.65,0.3l8,-4.6c-0.178,-0.175 -0.411,-0.285 -0.66,-0.31l-3.95,-0.39c-0.134,-0.021 -0.272,0.003 -0.39,0.07l-1.06,0.62l-0.52,0.3l-3.38,2l-0.84,0.49l-0.59,0.24l-1.55,0.89Z" style="fill:#f5f5f5;fill-rule:nonzero;"/><path d="M424.52,99.17c0.203,0.21 0.459,0.361 0.74,0.44l3.71,0.89c0.265,0.071 0.502,0.221 0.68,0.43l8,-4.59c-0.183,-0.224 -0.431,-0.385 -0.71,-0.46l-3.7,-0.89c-0.279,-0.072 -0.532,-0.221 -0.73,-0.43l-7.99,4.61Z" style="fill:#e6e6e6;fill-rule:nonzero;"/><path d="M427.33,112.5c0.065,0.2 0.167,0.387 0.3,0.55l3.77,4.58c0.113,0.134 0.195,0.291 0.24,0.46l8,-4.61c-0.043,-0.173 -0.125,-0.334 -0.24,-0.47l-3.78,-4.58c-0.126,-0.157 -0.221,-0.337 -0.28,-0.53l-8.01,4.6Z" style="fill:#e6e6e6;fill-rule:nonzero;"/><path d="M437.56,104.45l-0.11,0.07l0.42,-0.24l-0.31,0.17Z" style="fill:#e0e0e0;fill-rule:nonzero;"/><path d="M410.76,109.36c1.367,1.566 3.144,2.719 5.13,3.33l0.37,0l0.35,0.06l0.66,0c0.039,0.01 0.081,0.01 0.12,0c1.628,0.006 3.105,-0.982 3.72,-2.49c0.288,-0.657 0.471,-1.356 0.54,-2.07c-0.3,-0.14 -0.62,-0.31 -0.93,-0.49c-4.681,-3.044 -7.632,-8.154 -7.93,-13.73l0,-1.07c-0.874,-0.416 -1.833,-0.622 -2.8,-0.6l-0.46,0c-1.395,0.21 -2.579,1.143 -3.11,2.45c-1.63,3.88 0.29,10.35 4.34,14.61Z" style="fill:#e0e0e0;fill-rule:nonzero;"/><path d="M422.09,94.59l8,-4.6c-0.01,-0.046 -0.01,-0.094 0,-0.14l1.21,-4.09c0.039,-0.13 0.039,-0.27 0,-0.4l-6.09,3.49l-1.89,1.08c0.042,0.147 0.042,0.303 0,0.45l-1.2,4.08c-0.021,0.04 -0.031,0.085 -0.03,0.13Z" style="fill:#e0e0e0;fill-rule:nonzero;"/><path d="M409.39,79.53c0.092,0.083 0.164,0.185 0.21,0.3l2.14,5.74l8,-4.61l-2.14,-5.74c-0.042,-0.112 -0.11,-0.211 -0.2,-0.29l-8.01,4.6Z" style="fill:#e0e0e0;fill-rule:nonzero;"/><path d="M397.89,82.63c0.207,-0.037 0.419,0.035 0.56,0.19l4,3.69c0.22,0.25 0.589,0.313 0.88,0.15c0.519,-0.424 1.103,-0.762 1.73,-1c0.285,-0.11 0.454,-0.409 0.4,-0.71l-1.24,-5.65c-0.039,-0.156 0.031,-0.32 0.17,-0.4l1.61,-0.9c-0.049,-0.01 -0.101,-0.01 -0.15,0c-0.03,-0.005 -0.06,-0.005 -0.09,0l-7.87,4.63Z" style="fill:#e0e0e0;fill-rule:nonzero;"/><path d="M396.12,97.33c0.078,-0.038 0.163,-0.058 0.25,-0.06l3.39,-0.19c0.007,0 0.013,0 0.02,0c0.296,0 0.54,-0.243 0.54,-0.54c0,-0.003 0,-0.007 0,-0.01c0,-0.54 -0.07,-1.07 -0.07,-1.58l-4.13,2.38Z" style="fill:#e0e0e0;fill-rule:nonzero;"/><path d="M432.38,94.43c0.028,0.05 0.065,0.094 0.11,0.13l-0.11,-0.13Z" style="fill:#e0e0e0;fill-rule:nonzero;"/><path d="M437.64,96.34c0.061,0.073 0.105,0.158 0.13,0.25l0.23,0.77l1.22,4.1l0.42,1.41c0.02,0.075 0.02,0.155 0,0.23c-0.008,0.043 -0.025,0.084 -0.05,0.12c-0.025,0.038 -0.055,0.072 -0.09,0.1l-0.07,0l-0.62,0.37l-0.18,0.09l-0.49,0.29l-0.27,0.16l-0.31,0.17l-0.11,0.07l-0.33,0.18l-1.8,1l-3.8,2.2c0.161,-0.101 0.231,-0.301 0.17,-0.48l-1.69,-5.37l-0.23,-0.77c-0.03,-0.1 -0.081,-0.192 -0.15,-0.27l8.02,-4.62Z" style="fill:#e0e0e0;fill-rule:nonzero;"/><path d="M409.56,120.66l4.15,-2.41c-0.38,-0.23 -0.79,-0.48 -1.18,-0.75c-0.39,-0.27 -0.7,-0.24 -0.84,0l-2,3.09c-0.036,0.035 -0.081,0.059 -0.13,0.07Z" style="fill:#e0e0e0;fill-rule:nonzero;"/><path d="M422.09,120.36l1.24,5.66c0.036,0.15 -0.034,0.307 -0.17,0.38c0.25,-0.14 4.16,-2.39 6.41,-3.7c-0.167,-0.014 -0.324,-0.089 -0.44,-0.21l-4,-3.68c-0.218,-0.254 -0.59,-0.317 -0.88,-0.15c-0.521,0.422 -1.104,0.759 -1.73,1c-0.295,0.095 -0.479,0.394 -0.43,0.7Z" style="fill:#e0e0e0;fill-rule:nonzero;"/><path d="M427.26,112.05c-0.009,0.153 0.015,0.307 0.07,0.45l8,-4.6c-0.057,-0.146 -0.085,-0.303 -0.08,-0.46c0.054,-0.558 0.077,-1.119 0.07,-1.68l-3.8,2.2c-0.083,0.044 -0.176,0.068 -0.27,0.07l-3.39,0.2c-0.007,0 -0.013,0 -0.02,0c-0.302,0 -0.55,0.248 -0.55,0.55c0,0 0,0 0,0c0.086,1.089 0.075,2.183 -0.03,3.27Z" style="fill:#e0e0e0;fill-rule:nonzero;"/><path d="M429.74,122.65l1.62,-0.93l0.31,-0.18l2.62,-1.51l0.7,-0.41l2.69,-1.56c0.02,0.006 0.04,0.006 0.06,0l0.06,-0.08l1.79,-4c0.032,-0.108 0.032,-0.222 0,-0.33l0,-0.14l-8,4.61c0.056,0.155 0.056,0.325 0,0.48l-1.79,4c-0.017,0.02 -0.037,0.037 -0.06,0.05Z" style="fill:#e0e0e0;fill-rule:nonzero;"/><path d="M426.31,150.4l2.57,8.63c0.2,0.499 0.628,0.871 1.15,1l5.09,1.23c0.548,0.149 1.015,0.509 1.3,1c0.811,1.638 1.723,3.224 2.73,4.75c0.266,0.396 0.376,0.877 0.31,1.35l-1.66,5.61c-0.057,0.481 0.113,0.962 0.46,1.3l5.95,6.29c0.29,0.31 0.64,0.41 0.87,0.27c0.053,-0.033 0.097,-0.077 0.13,-0.13l2.78,-4.24c0.19,-0.3 0.71,-0.28 1.16,0c0.45,0.28 1.09,0.72 1.63,1c0.54,0.28 1.15,0.64 1.72,0.9c0.509,0.246 0.926,0.65 1.19,1.15l2.94,7.88c0.226,0.464 0.677,0.778 1.19,0.83l5.42,0.54c0.175,0.021 0.353,-0.011 0.51,-0.09c0.157,-0.079 0,0 0,0c0.188,-0.103 0.284,-0.322 0.23,-0.53l-1.71,-7.76c-0.09,-0.425 0.151,-0.855 0.56,-1c0.857,-0.334 1.657,-0.8 2.37,-1.38c0.4,-0.217 0.901,-0.134 1.21,0.2l5.54,5.07c0.161,0.162 0.373,0.265 0.6,0.29c0.066,-0.001 0.132,-0.018 0.19,-0.05c0.07,-0.036 0.123,-0.096 0.15,-0.17l2.47,-5.45c0.112,-0.456 -0.008,-0.939 -0.32,-1.29l-5.19,-6.29c-0.32,-0.389 -0.496,-0.876 -0.5,-1.38c0.135,-1.49 0.135,-2.99 0,-4.48c0,0 0,0 0,0c0,-0.417 0.343,-0.76 0.76,-0.76c0.007,0 0.013,0 0.02,0l4.65,-0.26c0.018,0.002 0.037,0.002 0.055,0.002c0.335,0 0.61,-0.275 0.61,-0.61c0,-0.058 -0.008,-0.116 -0.025,-0.172l-2.54,-8.65c-0.211,-0.48 -0.638,-0.833 -1.15,-0.95l-5.09,-1.23c-0.547,-0.15 -1.014,-0.51 -1.3,-1c-0.813,-1.637 -1.725,-3.223 -2.73,-4.75c-0.27,-0.394 -0.381,-0.877 -0.31,-1.35l1.66,-5.61c0.058,-0.481 -0.112,-0.963 -0.46,-1.3l-5.95,-6.29c-0.36,-0.37 -0.81,-0.44 -1,-0.14l-2.78,4.24c-0.19,0.3 -0.7,0.28 -1.16,0c-1.069,-0.735 -2.192,-1.386 -3.36,-1.95c-0.509,-0.238 -0.925,-0.639 -1.18,-1.14l-2.94,-7.88c-0.224,-0.461 -0.671,-0.775 -1.18,-0.83l-5.43,-0.54c-0.175,-0.015 -0.351,0.016 -0.51,0.09c-0.193,0.109 -0.291,0.334 -0.24,0.55l1.71,7.76c0.087,0.421 -0.148,0.848 -0.55,1c-0.86,0.327 -1.661,0.793 -2.37,1.38c-0.405,0.22 -0.912,0.132 -1.22,-0.21l-5.54,-5.06c-0.188,-0.235 -0.503,-0.331 -0.79,-0.24c-0.062,0.044 -0.114,0.103 -0.15,0.17l-2.46,5.46c-0.12,0.454 -0.003,0.94 0.31,1.29l5.19,6.28c0.325,0.386 0.506,0.875 0.51,1.38c-0.07,0.75 -0.1,1.52 -0.1,2.31c0,0.79 0.05,1.43 0.11,2.17c0,0.004 0,0.007 0,0.011c0,0.406 -0.334,0.74 -0.74,0.74c-0.013,0 -0.027,0 -0.04,-0.001l-4.65,0.27c-0.118,-0.002 -0.235,0.025 -0.34,0.08c-0.27,0.11 -0.417,0.408 -0.34,0.69Zm20.4,15.83c-5.55,-5.86 -8.19,-14.74 -5.89,-19.83c0.718,-1.799 2.344,-3.085 4.26,-3.37l0.65,0c1.325,-0.03 2.64,0.248 3.84,0.81c0.469,0.207 0.927,0.441 1.37,0.7c1.518,0.91 2.898,2.031 4.1,3.33c4.17,4.4 6.7,10.49 6.73,15.41c0.006,0.528 -0.024,1.056 -0.09,1.58c-0.097,0.98 -0.346,1.938 -0.74,2.84c-0.827,2.087 -2.866,3.455 -5.11,3.43l-0.51,0l-0.56,-0.05l-0.48,-0.08l-0.22,-0.05l-0.3,-0.08c-2.732,-0.868 -5.172,-2.474 -7.05,-4.64Z" style="fill:#f5f5f5;fill-rule:nonzero;"/><path d="M439.94,123.19l-10.96,6.35" style="fill:none;fill-rule:nonzero;"/><path d="M448.09,133.58c0.258,0.482 0.665,0.868 1.16,1.1c1.17,0.559 2.294,1.211 3.36,1.95c0.45,0.31 1,0.33 1.16,0l2.77,-4.24c0.036,-0.053 0.084,-0.098 0.14,-0.13l0.05,0l2.75,-1.6c-0.58,-0.34 -1.16,-0.64 -1.72,-0.9l-0.21,-0.12c-0.204,-0.127 -0.392,-0.278 -0.56,-0.45c-0.072,-0.068 -0.139,-0.142 -0.2,-0.22c-0.044,-0.048 -0.081,-0.102 -0.11,-0.16l-0.08,-0.15l-8.51,4.92Z" style="fill:#ebebeb;fill-rule:nonzero;"/><path d="M462.28,145.93c-0.009,0.417 0.106,0.828 0.33,1.18c1.003,1.526 1.918,3.109 2.74,4.74c0.069,0.135 0.16,0.256 0.27,0.36l8.51,-4.91c-0.061,-0.053 -0.115,-0.113 -0.16,-0.18c-0.05,-0.055 -0.093,-0.115 -0.13,-0.18c-0.811,-1.642 -1.722,-3.231 -2.73,-4.76c-0.057,-0.076 -0.101,-0.16 -0.13,-0.25c-0.038,-0.05 -0.062,-0.108 -0.07,-0.17c-0.006,-0.033 -0.006,-0.067 0,-0.1c0.006,-0.033 0,0 0,0c0,0 0,-0.16 -0.05,-0.23c-0.024,-0.119 -0.024,-0.241 0,-0.36l-8.58,4.86Z" style="fill:#ebebeb;fill-rule:nonzero;"/><path d="M439.81,123.27l0.13,-0.07" style="fill:none;fill-rule:nonzero;"/><path d="M459.48,130.67l5.69,-3.3c0.072,-0.044 0.155,-0.068 0.24,-0.07c0.248,0.022 0.475,0.145 0.63,0.34l3.56,3.76l2.39,2.52c0.194,0.212 0.338,0.465 0.42,0.74l-5.92,3.39l-2.59,1.49c-0.085,-0.257 -0.225,-0.493 -0.41,-0.69l-0.08,-0.08l-5.87,-6.21c-0.187,-0.256 -0.514,-0.372 -0.82,-0.29l2.76,-1.6Z" style="fill:#f5f5f5;fill-rule:nonzero;"/><path d="M438.05,124.36c0.149,-0.061 0.31,-0.085 0.47,-0.07l5.42,0.55c0.337,0.033 0.654,0.178 0.9,0.41l8.51,-4.91c-0.246,-0.237 -0.561,-0.388 -0.9,-0.43l-5.43,-0.54c-0.183,-0.024 -0.369,0.011 -0.53,0.1l-1.47,0.85l-0.71,0.42l-2.2,1.28l-1.14,0.66c-0.29,0.16 -0.57,0.33 -0.84,0.47l-2.08,1.21Z" style="fill:#f5f5f5;fill-rule:nonzero;"/><path d="M465.62,152.22c0.275,0.287 0.619,0.497 1,0.61l5.09,1.22c0.367,0.1 0.695,0.309 0.94,0.6l8.53,-4.9c-0.257,-0.309 -0.608,-0.527 -1,-0.62l-5.09,-1.23c-0.38,-0.103 -0.726,-0.307 -1,-0.59l-8.47,4.91Z" style="fill:#e6e6e6;fill-rule:nonzero;"/><path d="M469.48,170.54c0.094,0.274 0.233,0.531 0.41,0.76l5.19,6.29c0.152,0.185 0.265,0.399 0.33,0.63l8.5,-4.91c-0.059,-0.239 -0.172,-0.461 -0.33,-0.65l-5.19,-6.29c-0.178,-0.22 -0.314,-0.471 -0.4,-0.74l-8.51,4.91Z" style="fill:#e6e6e6;fill-rule:nonzero;"/><path d="M481.09,160.89l-0.15,0.1l0.2,-0.11l0.38,-0.22l-0.43,0.23Z" style="fill:#e0e0e0;fill-rule:nonzero;"/><path d="M446.71,166.23c1.886,2.148 4.33,3.733 7.06,4.58l0.29,0.07l0.21,0.05l0.49,0.08l0.56,0.05l0.35,0c0.053,0.01 0.107,0.01 0.16,0c2.244,0.025 4.283,-1.343 5.11,-3.43c0.396,-0.902 0.649,-1.86 0.75,-2.84c-0.42,-0.2 -0.85,-0.42 -1.29,-0.67c-6,-3.48 -10.89,-11.91 -10.89,-18.86c0,-0.53 0,-1 0.06,-1.48c-1.202,-0.57 -2.52,-0.851 -3.85,-0.82l-0.64,0c-1.916,0.285 -3.542,1.571 -4.26,3.37c-2.3,5.16 0.34,14.04 5.89,19.9Z" style="fill:#e0e0e0;fill-rule:nonzero;"/><path d="M462.28,145.93l8.5,-4.9c-0.015,-0.066 -0.015,-0.134 0,-0.2l1.66,-5.61c0.058,-0.182 0.058,-0.378 0,-0.56l-5.92,3.39l-2.59,1.49c0.064,0.198 0.064,0.412 0,0.61l-1.65,5.61c-0.011,0.056 -0.011,0.114 0,0.17Z" style="fill:#e0e0e0;fill-rule:nonzero;"/><path d="M444.84,125.25c0.126,0.113 0.225,0.253 0.29,0.41l2.94,7.89l8.51,-4.91l-2.94,-7.89c-0.06,-0.151 -0.156,-0.285 -0.28,-0.39l-8.52,4.89Z" style="fill:#e0e0e0;fill-rule:nonzero;"/><path d="M429,129.51c0.282,-0.065 0.577,0.036 0.76,0.26l5.54,5.06c0.311,0.339 0.817,0.422 1.22,0.2c0.711,-0.576 1.507,-1.038 2.36,-1.37c0.409,-0.145 0.65,-0.575 0.56,-1l-1.7,-7.76c-0.06,-0.214 0.036,-0.443 0.23,-0.55l2.08,-1.21c-0.066,-0.015 -0.134,-0.015 -0.2,0l-0.12,0.08l-10.73,6.29Z" style="fill:#e0e0e0;fill-rule:nonzero;"/><path d="M426.61,149.7c0.107,-0.05 0.222,-0.077 0.34,-0.08l4.65,-0.26c0.42,0 0.769,-0.34 0.78,-0.76c-0.06,-0.74 -0.11,-1.47 -0.11,-2.18l-5.66,3.28Z" style="fill:#e0e0e0;fill-rule:nonzero;"/><path d="M474,147.13c0.045,0.067 0.099,0.127 0.16,0.18l-0.16,-0.18Z" style="fill:#e0e0e0;fill-rule:nonzero;"/><path d="M481.2,149.75c0.083,0.1 0.144,0.215 0.18,0.34l0.32,1.07l1.67,5.63l0.57,1.93c0.035,0.104 0.035,0.216 0,0.32c-0.013,0.057 -0.037,0.112 -0.07,0.16c-0.03,0.058 -0.075,0.106 -0.13,0.14l-0.09,0.06l-0.86,0.5l-0.23,0.14l-0.69,0.4l-0.36,0.22l-0.43,0.23l-0.15,0.1l-0.45,0.25l-2.48,1.43l-2.77,1.61c0.22,-0.135 0.319,-0.405 0.24,-0.65l-2.25,-7.58l-0.32,-1.06c-0.041,-0.135 -0.112,-0.258 -0.21,-0.36l8.51,-4.88Z" style="fill:#e0e0e0;fill-rule:nonzero;"/><path d="M445.07,181.75l5.71,-3.31c-0.54,-0.32 -1.09,-0.67 -1.63,-1c-0.54,-0.33 -1,-0.33 -1.16,0l-2.78,4.24c-0.042,0.032 -0.089,0.056 -0.14,0.07Z" style="fill:#e0e0e0;fill-rule:nonzero;"/><path d="M462.28,181.35l1.71,7.77c0.049,0.205 -0.046,0.418 -0.23,0.52c0.34,-0.19 5.71,-3.29 8.8,-5.09c-0.229,-0.02 -0.445,-0.119 -0.61,-0.28l-5.53,-5.06c-0.307,-0.337 -0.807,-0.424 -1.21,-0.21c-0.716,0.583 -1.519,1.048 -2.38,1.38c-0.392,0.147 -0.625,0.558 -0.55,0.97Z" style="fill:#e0e0e0;fill-rule:nonzero;"/><path d="M469.39,169.92c-0.017,0.211 0.014,0.423 0.09,0.62l8.51,-4.91c-0.078,-0.2 -0.112,-0.415 -0.1,-0.63c0.071,-0.768 0.101,-1.539 0.09,-2.31l-2.77,1.61c-0.112,0.068 -0.239,0.106 -0.37,0.11l-4.66,0.26c-0.01,0 -0.02,-0.001 -0.03,-0.001c-0.412,0 -0.75,0.339 -0.75,0.75c0,0.004 0,0.007 0,0.011c0.132,1.494 0.129,2.997 -0.01,4.49Z" style="fill:#e0e0e0;fill-rule:nonzero;"/><path d="M472.79,184.49c0.18,-0.1 1.06,-0.6 2.24,-1.29l0.42,-0.24l3.59,-2.08l1,-0.56l1.24,-0.72c0.036,-0.015 0.067,-0.039 0.09,-0.07c0.027,-0.031 0.05,-0.064 0.07,-0.1l2.46,-5.43c0.048,-0.15 0.048,-0.31 0,-0.46l0,-0.18l-8.5,4.91c0.075,0.214 0.075,0.446 0,0.66l-2.47,5.44c-0.033,0.054 -0.082,0.096 -0.14,0.12Z" style="fill:#e0e0e0;fill-rule:nonzero;"/></g></g><g id="Devices--inject-2"><g id="device-2--inject-2"><path d="M306.74,89.63l0,232.57c0.146,2.635 1.535,5.05 3.74,6.5l103.13,59.53c2.06,1.2 3.74,0.22 3.74,-2.17l0,-232.56c-0.146,-2.635 -1.535,-5.05 -3.74,-6.5l-103.13,-59.53c-2.06,-1.2 -3.74,-0.23 -3.74,2.16Zm5.39,27.76c0,-2 1.44,-2.88 3.22,-1.85l93.76,54.12c1.898,1.242 3.095,3.316 3.22,5.58l0,182.17c0,2.06 -1.45,2.88 -3.22,1.86l-93.76,-54.13c-1.78,-1 -3.22,-2.33 -3.22,-4.37l0,-183.38Z" style="fill:#cc5aa1;fill-rule:nonzero;"/><path d="M306.74,89.63l0,232.57c0.146,2.635 1.535,5.05 3.74,6.5l103.13,59.53c2.06,1.2 3.74,0.22 3.74,-2.17l0,-232.56c-0.146,-2.635 -1.535,-5.05 -3.74,-6.5l-103.13,-59.53c-2.06,-1.2 -3.74,-0.23 -3.74,2.16Zm5.39,27.76c0,-2 1.44,-2.88 3.22,-1.85l93.76,54.12c1.898,1.242 3.095,3.316 3.22,5.58l0,182.17c0,2.06 -1.45,2.88 -3.22,1.86l-93.76,-54.13c-1.78,-1 -3.22,-2.33 -3.22,-4.37l0,-183.38Z" style="fill-opacity:0.5;fill-rule:nonzero;"/><path d="M414.07,388.46c2.253,0.951 4.814,0.867 7,-0.23l4.29,-2.48c2.221,-1.438 3.621,-3.858 3.76,-6.5l0,-232.55c-0.021,-0.968 -0.242,-1.922 -0.65,-2.8c-0.131,-0.308 -0.277,-0.608 -0.44,-0.9l-11.8,6.81c0.249,0.444 0.466,0.905 0.65,1.38c0.28,0.742 0.433,1.527 0.45,2.32l0,232.56c0.02,2.2 -1.41,3.2 -3.26,2.39Z" style="fill:#ff40e0;fill-rule:nonzero;"/><path d="M414.07,388.46c2.253,0.951 4.814,0.867 7,-0.23l4.29,-2.48c2.221,-1.438 3.621,-3.858 3.76,-6.5l0,-232.55c-0.021,-0.968 -0.242,-1.922 -0.65,-2.8c-0.131,-0.308 -0.277,-0.608 -0.44,-0.9l-11.8,6.81c0.249,0.444 0.466,0.905 0.65,1.38c0.28,0.742 0.433,1.527 0.45,2.32l0,232.56c0.02,2.2 -1.41,3.2 -3.26,2.39Z" style="fill-opacity:0.7;fill-rule:nonzero;"/><path d="M361.15,338c-3.27,-1.88 -5.92,-0.35 -5.92,3.42c0.224,4.165 2.426,7.981 5.92,10.26c3.27,1.88 5.92,0.35 5.92,-3.42c-0.224,-4.165 -2.426,-7.981 -5.92,-10.26Z" style="fill:none;fill-rule:nonzero;stroke:#e6e6e6;stroke-width:1px;"/><path d="M362,122.25c-1.38,-0.8 -2.51,-0.15 -2.51,1.45c0.1,1.767 1.032,3.386 2.51,4.36c1.39,0.8 2.52,0.15 2.52,-1.46c-0.097,-1.768 -1.035,-3.386 -2.52,-4.35Z" style="fill-rule:nonzero;"/><path d="M371.75,137.54l-19.41,-11.21c-1.16,-0.66 -2.1,-0.19 -2.1,1.06c0.103,1.431 0.884,2.729 2.1,3.49l19.41,11.2c1.16,0.67 2.1,0.2 2.1,-1.06c-0.106,-1.427 -0.887,-2.721 -2.1,-3.48Z" style="fill-rule:nonzero;"/><path d="M312.13,300.77c0,2 1.44,3.35 3.22,4.37l93.76,54.13c1.77,1 3.22,0.2 3.22,-1.86l0,-182.17c-0.125,-2.264 -1.322,-4.338 -3.22,-5.58l-93.76,-54.12c-1.78,-1 -3.22,-0.2 -3.22,1.85l0,183.38Z" style="fill:#cc5aa1;fill-rule:nonzero;"/><path d="M312.13,300.77c0,2 1.44,3.35 3.22,4.37l93.76,54.13c1.77,1 3.22,0.2 3.22,-1.86l0,-182.17c-0.125,-2.264 -1.322,-4.338 -3.22,-5.58l-93.76,-54.12c-1.78,-1 -3.22,-0.2 -3.22,1.85l0,183.38Z" style="fill:#fff;fill-opacity:0.5;fill-rule:nonzero;"/><path d="M318.4,131.17l0,-1.71c0,-0.37 0.15,-0.59 0.33,-0.49l0.09,0.06c0.231,0.22 0.352,0.532 0.33,0.85l0,1.71c0,0.37 -0.15,0.59 -0.33,0.48l-0.09,0c-0.243,-0.233 -0.365,-0.565 -0.33,-0.9Z" style="fill:#455a64;fill-rule:nonzero;"/><path d="M319.89,132l0,-3c0,-0.37 0.14,-0.59 0.32,-0.48l0.09,0c0.23,0.224 0.351,0.539 0.33,0.86l0,2.95c0,0.37 -0.15,0.58 -0.33,0.48l-0.09,-0.05c-0.2,-0.203 -0.315,-0.475 -0.32,-0.76Z" style="fill:#455a64;fill-rule:nonzero;"/><path d="M321.37,132.88l0,-4.2c0,-0.37 0.15,-0.58 0.33,-0.48l0.09,0.05c0.229,0.225 0.35,0.539 0.33,0.86l0,4.2c0,0.37 -0.15,0.58 -0.33,0.48l-0.09,0c-0.243,-0.237 -0.365,-0.572 -0.33,-0.91Z" style="fill:#455a64;fill-rule:nonzero;"/><path d="M322.86,133.73l0,-7.24c0,-0.37 0.14,-0.59 0.32,-0.48l0.09,0c0.229,0.225 0.35,0.539 0.33,0.86l0,7.24c0,0.37 -0.15,0.59 -0.33,0.48l-0.09,0c-0.228,-0.225 -0.345,-0.54 -0.32,-0.86Z" style="fill:#455a64;fill-rule:nonzero;"/><path d="M326.88,136.55c-0.035,-0.086 -0.052,-0.178 -0.05,-0.27l0,-1.06l-1.66,-1c-0.085,-0.046 -0.147,-0.126 -0.17,-0.22l0,-0.38c-0.008,-0.063 -0.008,-0.127 0,-0.19c0.014,-0.048 0.03,-0.094 0.05,-0.14l1.77,-2.79c0,0 0.06,-0.08 0.09,-0.09c0.03,-0.01 0.06,0 0.11,0l0.23,0.14c0.072,0.035 0.129,0.096 0.16,0.17c0.018,0.093 0.018,0.187 0,0.28l0,3.72l0.37,0.21c0.065,0.037 0.117,0.093 0.15,0.16c0.017,0.096 0.017,0.194 0,0.29l0,0.25c0.021,0.072 0.021,0.148 0,0.22c-0.021,0.072 -0.08,0 -0.15,0l-0.37,-0.21l0,1.06c0.021,0.072 0.021,0.148 0,0.22c-0.021,0.072 -0.08,0 -0.16,0l-0.28,-0.16c-0.052,-0.058 -0.084,-0.132 -0.09,-0.21Zm0.06,-2.17l0,-2.65l-1.21,2l1.21,0.65Z" style="fill:#455a64;fill-rule:nonzero;"/><path d="M328.85,137.05c-0.344,-0.872 -0.51,-1.803 -0.49,-2.74c-0.074,-0.757 0.098,-1.518 0.49,-2.17c0.333,-0.38 0.793,-0.4 1.38,-0.06c0.493,0.279 0.901,0.687 1.18,1.18c0.015,0.049 0.015,0.101 0,0.15c0.004,0.033 0.004,0.067 0,0.1l-0.15,0.38c0,0 0,0.06 -0.06,0.05c-0.03,-0.024 -0.054,-0.055 -0.07,-0.09c-0.212,-0.344 -0.503,-0.632 -0.85,-0.84c-0.4,-0.23 -0.72,-0.22 -0.94,0.05c-0.281,0.494 -0.4,1.065 -0.34,1.63c-0.021,0.682 0.091,1.361 0.33,2c0.167,0.463 0.484,0.857 0.9,1.12c0.128,0.079 0.266,0.14 0.41,0.18c0.108,0.028 0.222,0.028 0.33,0l0,-1.69l-0.69,-0.4c-0.067,-0.038 -0.12,-0.098 -0.15,-0.17c-0.018,-0.092 -0.018,-0.188 0,-0.28l0,-0.46c0,-0.03 0.08,0 0.15,0l1.1,0.64c0.079,0.044 0.14,0.115 0.17,0.2c0.035,0.106 0.052,0.218 0.05,0.33l0,2.46c0.008,0.066 0.008,0.134 0,0.2c-0.008,0.036 -0.03,0.069 -0.06,0.09c-0.448,0.157 -0.947,0.074 -1.32,-0.22c-0.622,-0.384 -1.103,-0.959 -1.37,-1.64Z" style="fill:#455a64;fill-rule:nonzero;"/><path d="M404.74,174c-0.104,-0.397 -0.336,-0.748 -0.66,-1l-5,-2.88c-0.43,-0.25 -0.76,0.24 -0.76,1.12l0,3.76c0.006,0.519 0.1,1.033 0.28,1.52c0.072,0.195 0.162,0.382 0.27,0.56c0.098,0.166 0.231,0.31 0.39,0.42l5,2.88c0.43,0.24 0.77,-0.25 0.77,-1.13l0,-3.73c-0.009,-0.52 -0.107,-1.034 -0.29,-1.52Zm-5.94,2.25c-0.076,-0.212 -0.114,-0.435 -0.11,-0.66l0,-3.73c0,-0.65 0.27,-1.05 0.58,-0.86l5,2.88c0.086,0.051 0.159,0.124 0.21,0.21c0.033,0.057 0.059,0.118 0.08,0.18c0.076,0.215 0.113,0.442 0.11,0.67l0,3.72c0,0.65 -0.27,1.05 -0.58,0.86l-5,-2.88c-0.147,-0.097 -0.252,-0.248 -0.29,-0.42l0,0.03Z" style="fill:#455a64;fill-rule:nonzero;"/><path d="M401.94,173.18l0,4.41l-2.68,-1.59l-0.09,-0.07c0.006,-0.05 0.006,-0.1 0,-0.15l0,-3.35c0,-0.47 0.21,-0.77 0.44,-0.64l2.33,1.39Z" style="fill:#455a64;fill-rule:nonzero;"/><path d="M405.27,175.66c0.19,0.1 0.34,0.81 0.34,1.57l0,0.69c0,0.77 -0.15,1.32 -0.34,1.23l-0.34,-0.16l0,-3.52l0.34,0.19Z" style="fill:#455a64;fill-rule:nonzero;"/><path d="M392.9,172.41c0,0.82 -0.43,1.24 -1,0.93c-0.634,-0.49 -1.005,-1.249 -1,-2.05c0,-0.82 0.43,-1.23 1,-0.93c0.637,0.487 1.008,1.248 1,2.05Z" style="fill:#455a64;fill-rule:nonzero;"/><path d="M391.93,167.93c-0.246,-0.177 -0.542,-0.272 -0.846,-0.272c-0.645,0 -1.217,0.431 -1.394,1.052c-0.077,0.266 -0.041,0.552 0.1,0.79c0.18,0.32 0.45,0.4 0.56,0.14c0.111,-0.444 0.513,-0.757 0.97,-0.757c0.221,0 0.435,0.072 0.61,0.207c0.801,0.572 1.364,1.42 1.58,2.38c0.11,0.38 0.38,0.62 0.57,0.5c0.162,-0.188 0.201,-0.454 0.1,-0.68c-0.323,-1.353 -1.122,-2.546 -2.25,-3.36Z" style="fill:#455a64;fill-rule:nonzero;"/><path d="M391.93,165.55c-0.392,-0.287 -0.866,-0.442 -1.352,-0.442c-0.908,0 -1.734,0.54 -2.098,1.372c-0.095,0.275 -0.066,0.578 0.08,0.83c0.17,0.32 0.43,0.4 0.55,0.17c0.294,-0.68 0.967,-1.122 1.707,-1.122c0.397,0 0.784,0.127 1.103,0.362c1.373,0.968 2.369,2.382 2.82,4c0.12,0.36 0.38,0.59 0.55,0.47c0.16,-0.1 0.19,-0.42 0.08,-0.74c-0.554,-1.978 -1.768,-3.707 -3.44,-4.9Z" style="fill:#455a64;fill-rule:nonzero;"/><path d="M306.77,89c0.27,-2 1.83,-2.66 3.71,-1.57l103.13,59.57c1.109,0.691 2.021,1.655 2.65,2.8l11.8,-6.81c-0.635,-1.141 -1.551,-2.101 -2.66,-2.79l-103.11,-59.54c-2.358,-1.2 -5.152,-1.2 -7.51,0l-4.3,2.47c-2.024,1.329 -3.378,3.471 -3.71,5.87Z" style="fill:#cc5aa1;fill-rule:nonzero;"/><path d="M306.77,89c0.27,-2 1.83,-2.66 3.71,-1.57l103.13,59.57c1.109,0.691 2.021,1.655 2.65,2.8l11.8,-6.81c-0.635,-1.141 -1.551,-2.101 -2.66,-2.79l-103.11,-59.54c-2.358,-1.2 -5.152,-1.2 -7.51,0l-4.3,2.47c-2.024,1.329 -3.378,3.471 -3.71,5.87Z" style="fill-opacity:0.2;fill-rule:nonzero;"/></g><g id="device-1--inject-2"><path d="M189.52,87.47l-103.13,59.53c-2.205,1.45 -3.594,3.865 -3.74,6.5l0,232.56c0,2.39 1.68,3.37 3.74,2.17l103.13,-59.53c2.205,-1.45 3.594,-3.865 3.74,-6.5l0,-232.57c0,-2.39 -1.68,-3.36 -3.74,-2.16Zm-1.65,213.3c0,2 -1.44,3.35 -3.22,4.37l-93.76,54.13c-1.77,1 -3.22,0.2 -3.22,-1.86l0,-182.17c0.125,-2.264 1.322,-4.338 3.22,-5.58l93.76,-54.12c1.78,-1 3.22,-0.2 3.22,1.85l0,183.38Z" style="fill:#cc5aa1;fill-rule:nonzero;"/><path d="M189.52,87.47l-103.13,59.53c-2.205,1.45 -3.594,3.865 -3.74,6.5l0,232.56c0,2.39 1.68,3.37 3.74,2.17l103.13,-59.53c2.205,-1.45 3.594,-3.865 3.74,-6.5l0,-232.57c0,-2.39 -1.68,-3.36 -3.74,-2.16Zm-1.65,213.3c0,2 -1.44,3.35 -3.22,4.37l-93.76,54.13c-1.77,1 -3.22,0.2 -3.22,-1.86l0,-182.17c0.125,-2.264 1.322,-4.338 3.22,-5.58l93.76,-54.12c1.78,-1 3.22,-0.2 3.22,1.85l0,183.38Z" style="fill-opacity:0.5;fill-rule:nonzero;"/><path d="M85.93,388.46c-2.253,0.951 -4.814,0.867 -7,-0.23l-4.29,-2.48c-2.221,-1.438 -3.621,-3.858 -3.76,-6.5l0,-232.55c0.021,-0.968 0.242,-1.922 0.65,-2.8c0.131,-0.308 0.277,-0.608 0.44,-0.9l11.8,6.81c-0.249,0.444 -0.466,0.905 -0.65,1.38c-0.28,0.742 -0.433,1.527 -0.45,2.32l0,232.56c-0.02,2.2 1.41,3.2 3.26,2.39Z" style="fill:#ff40e0;fill-rule:nonzero;"/><path d="M85.93,388.46c-2.253,0.951 -4.814,0.867 -7,-0.23l-4.29,-2.48c-2.221,-1.438 -3.621,-3.858 -3.76,-6.5l0,-232.55c0.021,-0.968 0.242,-1.922 0.65,-2.8c0.131,-0.308 0.277,-0.608 0.44,-0.9l11.8,6.81c-0.249,0.444 -0.466,0.905 -0.65,1.38c-0.28,0.742 -0.433,1.527 -0.45,2.32l0,232.56c-0.02,2.2 1.41,3.2 3.26,2.39Z" style="fill-opacity:0.7;fill-rule:nonzero;"/><path d="M138.85,338c3.27,-1.88 5.92,-0.35 5.92,3.42c-0.224,4.165 -2.426,7.981 -5.92,10.26c-3.27,1.88 -5.92,0.35 -5.92,-3.42c0.224,-4.165 2.426,-7.981 5.92,-10.26Z" style="fill:none;fill-rule:nonzero;stroke:#e6e6e6;stroke-width:1px;"/><path d="M138,122.25c1.38,-0.8 2.51,-0.15 2.51,1.45c-0.1,1.767 -1.032,3.386 -2.51,4.36c-1.39,0.8 -2.52,0.15 -2.52,-1.46c0.097,-1.768 1.035,-3.386 2.52,-4.35Z" style="fill-rule:nonzero;"/><path d="M128.25,137.54l19.41,-11.21c1.16,-0.66 2.1,-0.19 2.1,1.06c-0.103,1.431 -0.884,2.729 -2.1,3.49l-19.41,11.2c-1.16,0.67 -2.1,0.2 -2.1,-1.06c0.106,-1.427 0.887,-2.721 2.1,-3.48Z" style="fill-rule:nonzero;"/><path d="M187.87,300.77c0,2 -1.44,3.35 -3.22,4.37l-93.76,54.13c-1.77,1 -3.22,0.2 -3.22,-1.86l0,-182.17c0.125,-2.264 1.322,-4.338 3.22,-5.58l93.76,-54.12c1.78,-1 3.22,-0.2 3.22,1.85l0,183.38Z" style="fill:#ff40e0;fill-rule:nonzero;"/><path d="M187.87,300.77c0,2 -1.44,3.35 -3.22,4.37l-93.76,54.13c-1.77,1 -3.22,0.2 -3.22,-1.86l0,-182.17c0.125,-2.264 1.322,-4.338 3.22,-5.58l93.76,-54.12c1.78,-1 3.22,-0.2 3.22,1.85l0,183.38Z" style="fill:#fff;fill-opacity:0.9;fill-rule:nonzero;"/><path d="M163.47,139.57c0,0.83 0.43,1.24 1,0.93c0.625,-0.475 0.995,-1.215 1,-2c0,-0.82 -0.43,-1.24 -1,-0.93c-0.625,0.475 -0.995,1.215 -1,2Z" style="fill:#455a64;fill-rule:nonzero;"/><path d="M162.19,138.47c-0.101,0.226 -0.062,0.492 0.1,0.68c0.19,0.11 0.46,-0.13 0.57,-0.51c0.221,-0.958 0.783,-1.804 1.58,-2.38c0.174,-0.134 0.388,-0.206 0.608,-0.206c0.46,0 0.864,0.318 0.972,0.766c0.11,0.25 0.38,0.18 0.56,-0.15c0.144,-0.241 0.18,-0.531 0.1,-0.8c-0.18,-0.617 -0.749,-1.044 -1.392,-1.044c-0.304,0 -0.601,0.096 -0.848,0.274c-1.13,0.816 -1.93,2.013 -2.25,3.37Z" style="fill:#455a64;fill-rule:nonzero;"/><path d="M161,137.63c-0.11,0.32 -0.08,0.64 0.08,0.74c0.17,0.11 0.43,-0.11 0.55,-0.47c0.456,-1.616 1.452,-3.028 2.82,-4c0.319,-0.234 0.704,-0.36 1.099,-0.36c0.744,0 1.419,0.446 1.711,1.13c0.12,0.22 0.38,0.15 0.55,-0.17c0.143,-0.253 0.168,-0.556 0.07,-0.83c-0.363,-0.827 -1.185,-1.364 -2.088,-1.364c-0.486,0 -0.96,0.156 -1.352,0.444c-1.668,1.188 -2.882,2.91 -3.44,4.88Z" style="fill:#455a64;fill-rule:nonzero;"/><path d="M93.6,180.8l0,-1.48c-0.007,-0.309 0.13,-0.605 0.37,-0.8l0.11,-0.06c0.2,-0.12 0.37,0 0.37,0.36l0,1.48c0.007,0.309 -0.13,0.605 -0.37,0.8l-0.11,0.06c-0.21,0.12 -0.37,-0.04 -0.37,-0.36Z" style="fill:#455a64;fill-rule:nonzero;"/><path d="M95.31,179.81l0,-2.56c-0.007,-0.309 0.13,-0.605 0.37,-0.8l0.11,-0.06c0.21,-0.12 0.38,0 0.38,0.36l0,2.56c0.005,0.311 -0.136,0.607 -0.38,0.8l-0.11,0.06c-0.2,0.12 -0.37,-0.04 -0.37,-0.36Z" style="fill:#455a64;fill-rule:nonzero;"/><path d="M97,178.82l0,-3.64c-0.002,-0.308 0.139,-0.599 0.38,-0.79l0.1,-0.06c0.21,-0.12 0.38,0 0.38,0.36l0,3.63c0.005,0.311 -0.136,0.607 -0.38,0.8l-0.1,0.06c-0.19,0.12 -0.38,-0.04 -0.38,-0.36Z" style="fill:#455a64;fill-rule:nonzero;"/><path d="M98.74,177.83l0,-6.28c-0.004,-0.306 0.132,-0.597 0.37,-0.79l0.11,-0.06c0.21,-0.12 0.38,0 0.38,0.36l0,6.27c0.007,0.309 -0.13,0.605 -0.37,0.8l-0.11,0.06c-0.21,0.12 -0.38,-0.04 -0.38,-0.36Z" style="fill:#455a64;fill-rule:nonzero;"/><path d="M103.38,175.58l0,-1.1l-1.93,1.11c-0.1,0.06 -0.15,0 -0.15,-0.11l0,-0.33c-0.006,-0.06 -0.006,-0.12 0,-0.18l0.07,-0.19l2,-4.48c0.029,-0.063 0.062,-0.123 0.1,-0.18c0.039,-0.041 0.083,-0.078 0.13,-0.11l0.27,-0.15c0.08,-0.053 0.14,-0.053 0.18,0c0.025,0.064 0.025,0.136 0,0.2l0,3.21l0.43,-0.24c0.08,-0.05 0.13,-0.06 0.17,0c0.04,0.06 0,0.09 0,0.19l0,0.22c0.018,0.079 0.018,0.161 0,0.24c-0.041,0.068 -0.1,0.123 -0.17,0.16l-0.43,0.25l0,0.91c0.017,0.171 -0.075,0.335 -0.23,0.41l-0.32,0.18c-0.03,0 -0.09,0.01 -0.12,-0.01Zm0.07,-2l0,-2.3l-1.39,3.1l1.39,-0.8Z" style="fill:#455a64;fill-rule:nonzero;"/><path d="M105.66,173.7c-0.38,-0.28 -0.56,-0.88 -0.56,-1.8c-0.013,-0.85 0.179,-1.69 0.56,-2.45c0.361,-0.694 0.913,-1.27 1.59,-1.66c0.241,-0.143 0.5,-0.254 0.77,-0.33c0.195,-0.061 0.405,-0.061 0.6,0c0.012,0.022 0.012,0.048 0,0.07c0.007,0.036 0.007,0.074 0,0.11l-0.18,0.5c0,0.07 0,0.11 -0.07,0.12l-0.08,0c-0.352,-0.034 -0.705,0.054 -1,0.25c-0.464,0.274 -0.841,0.672 -1.09,1.15c-0.275,0.563 -0.408,1.184 -0.39,1.81c0,0.71 0.13,1.17 0.38,1.36c0.25,0.19 0.61,0.17 1.05,-0.08c0.165,-0.097 0.322,-0.208 0.47,-0.33c0.141,-0.108 0.268,-0.232 0.38,-0.37l0,-1.49l-0.8,0.46c-0.08,0.05 -0.14,0.06 -0.17,0c-0.023,-0.061 -0.023,-0.129 0,-0.19l0,-0.21c-0.019,-0.082 -0.019,-0.168 0,-0.25c0.041,-0.068 0.1,-0.123 0.17,-0.16l1.28,-0.73c0.09,-0.06 0.15,-0.06 0.19,0c0.04,0.06 0.06,0.11 0.06,0.23l0,2.13c0.007,0.066 0.007,0.134 0,0.2c-0.017,0.055 -0.044,0.106 -0.08,0.15c-0.401,0.556 -0.92,1.017 -1.52,1.35c-0.65,0.38 -1.22,0.46 -1.56,0.16Z" style="fill:#455a64;fill-rule:nonzero;"/><path d="M178.91,125.77c-0.199,-0.208 -0.522,-0.242 -0.76,-0.08l-5.76,3.31c-0.571,0.454 -0.897,1.151 -0.88,1.88l0,3.22c-0.031,0.364 0.088,0.726 0.33,1c0.084,0.087 0.192,0.146 0.31,0.17c0.156,0.028 0.317,-0.005 0.45,-0.09l5.76,-3.32c0.571,-0.454 0.897,-1.151 0.88,-1.88l0,-3.22c0.028,-0.361 -0.091,-0.718 -0.33,-0.99Zm-6.86,8.88c-0.095,-0.133 -0.138,-0.297 -0.12,-0.46l0,-3.19c-0.006,-0.553 0.241,-1.08 0.67,-1.43l5.76,-3.32c0.071,-0.046 0.156,-0.067 0.24,-0.06l0.1,0c0.095,0.133 0.138,0.297 0.12,0.46l0,3.22c0.006,0.553 -0.241,1.08 -0.67,1.43l-5.76,3.32c-0.14,0.1 -0.26,0.11 -0.34,0.03Z" style="fill:#455a64;fill-rule:nonzero;"/><path d="M175.68,128.34l0,3.82l-3.1,1.79l-0.1,0c0.005,-0.043 0.005,-0.087 0,-0.13l0,-2.82c0.001,-0.41 0.184,-0.799 0.5,-1.06l2.7,-1.6Z" style="fill:#455a64;fill-rule:nonzero;"/><path d="M179.53,126.6c0.21,-0.12 0.38,0.32 0.38,1l0,0.6c0.05,0.515 -0.088,1.03 -0.39,1.45l-0.38,0.25l0,-3l0.39,-0.3Z" style="fill:#455a64;fill-rule:nonzero;"/><path d="M193.23,89c-0.27,-2 -1.83,-2.66 -3.71,-1.57l-103.13,59.57c-1.109,0.691 -2.021,1.655 -2.65,2.8l-11.8,-6.8c0.635,-1.141 1.551,-2.101 2.66,-2.79l103.11,-59.55c2.354,-1.199 5.146,-1.199 7.5,0l4.31,2.47c2.024,1.329 3.378,3.471 3.71,5.87Z" style="fill:#cc5aa1;fill-rule:nonzero;"/><path d="M193.23,89c-0.27,-2 -1.83,-2.66 -3.71,-1.57l-103.13,59.57c-1.109,0.691 -2.021,1.655 -2.65,2.8l-11.8,-6.8c0.635,-1.141 1.551,-2.101 2.66,-2.79l103.11,-59.55c2.354,-1.199 5.146,-1.199 7.5,0l4.31,2.47c2.024,1.329 3.378,3.471 3.71,5.87Z" style="fill-opacity:0.2;fill-rule:nonzero;"/></g></g><g id="Characters--inject-2"><g id="character-shaking-hands--inject-2"><path d="M383.11,312.58c0,0 -10.69,10.7 -24.9,6.61c0,0 4.28,4.22 14.35,1.39c6.79,-1.91 10.55,-8 10.55,-8Z" style="fill:#cc5aa1;fill-rule:nonzero;"/><path d="M404.33,247c0,0 5.46,14.1 -4,25.44c0,0 5.59,-2.2 7.07,-12.56c0.97,-7.02 -3.07,-12.88 -3.07,-12.88Z" style="fill:#cc5aa1;fill-rule:nonzero;"/><path d="M382,317.07c10,-10.29 14.35,-22.3 14.45,-34.57c0,0 2.91,7.3 -1.63,18.82c-4.54,11.52 -12.82,15.75 -12.82,15.75Z" style="fill:#cc5aa1;fill-rule:nonzero;"/><path d="M106.13,302.19c0,0 -0.13,15.12 12.75,22.39c0,0 -6,-0.1 -11,-9.26c-3.45,-6.18 -1.75,-13.13 -1.75,-13.13Z" style="fill:#cc5aa1;fill-rule:nonzero;"/><path d="M102.87,308.25c-2.222,-12.787 0.702,-25.947 8.13,-36.59c7.428,-10.643 -6.58,4.29 -9.5,16.33c-2.92,12.04 1.37,20.26 1.37,20.26Z" style="fill:#cc5aa1;fill-rule:nonzero;"/><g id="Girl--inject-2"><path d="M326.86,224l4.23,-12.65c-11.14,2 -14.17,3.52 -17.46,12.73l-2.18,7.34l-13.34,41.06c-3.16,0.83 -42.5,11.67 -43.87,11.84c0,0 -0.06,0.1 -0.1,0.15c-12.85,0.82 -17,1.39 -17,1.39c3.61,9.44 10.38,14.76 19.73,16.68l0,-0.22l0,0.07c16.55,-2.82 43.7,-9.22 52.53,-12.15c3.72,-1.19 5.31,-5.38 6.84,-8.88c6.25,-14.29 12.78,-33.55 15,-45.14c1.44,-6.98 -0.67,-10.47 -4.38,-12.22Z" style="fill:#b16668;fill-rule:nonzero;"/><path d="M331.09,211.3c0,0 -11.07,-1.7 -15.87,8.46c-3.22,6.86 -13.07,36.24 -13.07,36.24c0,0 7,9 22.33,9.55c0,0 14.48,-33.25 13.67,-34.31c-0.81,-1.06 -7.06,-19.94 -7.06,-19.94Z" style="fill:#37474f;fill-rule:nonzero;"/><path d="M329.06,211.09c-2.69,0.26 -9.51,9.38 -9.65,24.9c-0.19,20.79 10,46.24 12.56,51.73c2.56,5.49 7.54,16.24 16,24.22c2.73,2.56 21.37,9.81 33.38,-3.69c12.22,-13.73 10.29,-31.77 7.85,-37.42c-4.09,-9.46 -11.32,-20.47 -11.06,-32.92c-1.53,-8.94 -4.46,-20.51 -11.14,-25.36c-2.75,-0.7 -11.41,-1.81 -13.1,-1.58l-24.84,0.12Z" style="fill:#fafafa;fill-rule:nonzero;"/><path d="M364.26,227.59l-3.41,4.28c1,6.79 6.15,16.6 12.14,24.43c4.67,6.11 14.17,12.41 18,23.2c-0.107,-2.964 -0.691,-5.892 -1.73,-8.67c-4.09,-9.46 -11.32,-20.47 -11.06,-32.92c-0.25,-1.48 -0.55,-3 -0.89,-4.61l-3.2,-2.9l-9.85,-2.81Z" style="fill:#ebebeb;fill-rule:nonzero;"/><path d="M367,212.55c5.85,1.44 9,4.53 14.12,10.38c5.88,6.6 17.88,20.48 17.88,20.48c8.39,14.54 0.85,29.33 -5.44,26.9c0,0 -14.18,-13.85 -22.88,-24.35c-5.83,-7 -8.8,-11 -9.13,-18.71c-0.28,-6.06 0.8,-12.25 5.45,-14.7Z" style="fill:#b16668;fill-rule:nonzero;"/><path d="M363.94,212c0,0 5.05,-1.12 11.62,4.17c6.57,5.29 22.63,22.77 22.63,22.77c0,0 0.48,18.51 -11.31,26.86c0,0 -17.4,-17.46 -21.69,-23.5c-6.076,-9.046 -6.56,-20.784 -1.25,-30.3Z" style="fill:#37474f;fill-rule:nonzero;"/><path d="M360.85,177c0,0 -2.54,15.51 -3.73,18.09c-0.799,1.599 -2.186,2.829 -3.87,3.43l-0.25,-10.77l7.85,-10.75Z" style="fill:#263238;fill-rule:nonzero;"/><path d="M352.6,154.49c0,0 4.19,-2.11 7.06,0.56c2.87,2.67 3.06,11.85 0.9,23.74l-7.22,-0.38l-0.74,-23.92Z" style="fill:#263238;fill-rule:nonzero;"/><path d="M322.608,149.351c10.931,-2.163 21.562,4.957 23.724,15.888c2.163,10.931 -4.956,21.562 -15.888,23.724c-10.931,2.163 -21.562,-4.956 -23.724,-15.888c-2.162,-10.931 4.957,-21.562 15.888,-23.724Z" style="fill:#263238;"/><path d="M353.2,156.06l6.25,-5.74c-0.782,-0.939 -1.943,-1.483 -3.166,-1.483c-1.03,0 -2.024,0.387 -2.784,1.083c-1.715,1.628 -1.848,4.353 -0.3,6.14Z" style="fill:#263238;fill-rule:nonzero;"/><path d="M315.81,157.35c-1.27,2.19 -7.62,11.39 -5.3,28.67c2.18,16.27 7.41,20.09 10.19,20.95c2.78,0.86 8.36,0.37 13.24,-1l0.88,6.91c0,0 -2.85,4.58 1,7.11c3.85,2.53 12.32,0.67 14.28,-0.89c4.61,-3.69 3.91,-6.8 3.91,-6.8l-1,-22.44c0,0 3.47,2.86 7.94,-0.51c4.22,-3.17 4.41,-11.55 0.85,-14.43c-3.56,-2.88 -9.27,-1.16 -10.05,3.47c0,0 -0.15,-17.2 -9.92,-21.77c-12.51,-5.86 -26.02,0.73 -26.02,0.73Z" style="fill:#b16668;fill-rule:nonzero;"/><path d="M350.63,180.63c0.55,-0.29 1.49,-4.89 4.2,-6.45c2.49,-1.44 -2.21,-22 -2.23,-22.1c-0.28,-1.51 -1.83,-3.28 -2.84,-4.38c-1.526,-1.62 -3.44,-2.824 -5.56,-3.5c-2.915,-0.89 -6,-1.075 -9,-0.54c-4.66,0.72 -9.13,2.66 -13.84,2.68c-4.47,0 -8.74,-1.73 -13.12,-2.6c-0.838,-0.263 -1.745,-0.202 -2.54,0.17c-0.408,0.282 -0.727,0.674 -0.92,1.13c-0.55,1.323 -0.6,2.803 -0.14,4.16c0.48,1.344 1.154,2.611 2,3.76c-1.56,-0.73 -3.76,-0.79 -4.66,0.67c-0.71,1.15 -0.27,2.65 0.38,3.83c2.74,4.92 7.61,7.08 12.73,8.25c2.152,0.365 4.328,0.565 6.51,0.6c5.52,0.31 10.82,-1.9 15.91,-4.06c1.4,-0.6 4.13,-1.62 5.66,-0.38c1.9,1.54 1.81,6.52 2.38,10.61c0.87,6.41 3,9.27 5.08,8.15Z" style="fill:#263238;fill-rule:nonzero;"/><path d="M333,193l-5.57,2.49c0.45,1.146 1.561,1.904 2.793,1.904c0.415,0 0.826,-0.087 1.207,-0.254c1.535,-0.736 2.231,-2.571 1.57,-4.14Z" style="fill:#9a4a4d;fill-rule:nonzero;"/><path d="M313,179.71c0.104,1.054 1.001,1.866 2.06,1.866c1.135,0 2.07,-0.935 2.07,-2.07c0,-1.136 -0.935,-2.07 -2.07,-2.07c-0.043,0 -0.087,0.001 -0.13,0.004c-1.151,0.095 -2.022,1.118 -1.93,2.27Z" style="fill:#263238;fill-rule:nonzero;"/><path d="M329.06,178.72c0.104,1.054 1.001,1.866 2.06,1.866c1.135,0 2.07,-0.935 2.07,-2.07c0,-1.136 -0.935,-2.07 -2.07,-2.07c-0.043,0 -0.087,0.001 -0.13,0.004c-1.088,0.084 -1.937,1.003 -1.937,2.094c0,0.059 0.002,0.117 0.007,0.176Z" style="fill:#263238;fill-rule:nonzero;"/><path d="M323.62,179.16l-0.37,12.41l-6.53,-2.04l6.9,-10.37Z" style="fill:#9a4a4d;fill-rule:nonzero;"/><path d="M333.94,206c4.1,-0.94 12.12,-4.39 13.64,-7.39c0,0 0.15,1.91 -2.28,4.81c-2.43,2.9 -10.95,5.8 -10.95,5.8l-0.41,-3.22Z" style="fill:#9a4a4d;fill-rule:nonzero;"/><path d="M311.37,175.4l4.63,-2c-0.592,-1.279 -2.106,-1.874 -3.41,-1.34c-0.892,0.395 -1.469,1.283 -1.469,2.258c0,0.375 0.085,0.745 0.249,1.082Z" style="fill:#263238;fill-rule:nonzero;"/><path d="M330.31,172.41l4.42,2.4c0.651,-1.251 0.182,-2.814 -1.05,-3.5c-0.357,-0.194 -0.758,-0.296 -1.165,-0.296c-0.941,0 -1.802,0.545 -2.205,1.396Z" style="fill:#263238;fill-rule:nonzero;"/></g><g id="girl--inject-2"><path d="M197.21,209.22l-34.46,0c-17.018,-0.005 -31.031,-13.982 -31.08,-31l0,-5.41c-0.033,-16.421 13.449,-29.962 29.87,-30l5.62,0c0.03,0 0.06,0 0.09,0c16.389,0 29.883,13.471 29.91,29.86l0.05,36.55Z" style="fill:#263238;fill-rule:nonzero;"/><path d="M168.69,211.16c12.36,-0.93 20.15,4.8 20.41,16.29c0.14,5.79 -4.88,28.84 -4.88,28.84l-15.53,-45.13Z" style="fill:#ffa8a7;fill-rule:nonzero;"/><path d="M168.69,211.16c6.29,0.63 13.23,11.37 19.27,25.18c2.37,5.44 6.7,12.76 1.24,22.94c-3.38,6.29 -10.34,8.83 -10.34,8.83c-2.52,7.891 -6.157,15.38 -10.8,22.24c-2.9,9.234 -8.177,17.546 -15.3,24.1c-2.8,2.48 -19.91,17.63 -33.7,5.94c-8.2,-6.95 -11.06,-18 -10.22,-28.43c0.49,-6.13 1.85,-12.19 6.16,-16.58c2.485,-2.528 4.781,-5.236 6.87,-8.1c2.19,-10.43 -0.32,-17.51 -0.58,-30c1.53,-8.94 5.32,-16.52 12,-21.36c4.947,-1.958 10.151,-3.194 15.45,-3.67l19.95,-1.09Z" style="fill:#ca59a1;fill-rule:nonzero;"/><path d="M168.48,289.73l-0.84,-6.73c0,0 -29,-45.46 -30.23,-46.74c-0.72,-0.77 -7.68,-5.41 -13.12,-9c-1.424,3.191 -2.432,6.552 -3,10c0.26,12.45 2.77,19.53 0.58,30c0,0 -1.49,2.11 -3.9,4.88c4.3,1.12 11.31,-4.29 11.31,-4.29c0,0 14,19.79 20.16,26.82c5.75,6.59 9.19,7.57 13.44,7.28c2.187,-3.651 3.926,-7.553 5.18,-11.62c0.15,-0.19 0.28,-0.4 0.42,-0.6Z" style="fill-opacity:0.1;fill-rule:nonzero;"/><path d="M189.2,259.28c0.29,-0.55 0.56,-1.09 0.8,-1.63c-5.63,4.32 -9.55,1.28 -14.27,0.37c-4.88,-0.94 -8.5,6 -17.63,5.14c-12,-1.16 -16.35,-8.71 -16.35,-8.71c0,0 -0.32,13.07 14.55,15.94c9.94,1.92 13.59,-3.45 16.34,-3.45c1.2,0 2.27,0.93 6.22,1.17c0,0 6.96,-2.54 10.34,-8.83Z" style="fill-opacity:0.05;fill-rule:nonzero;"/><path d="M185.83,159c1.24,2.14 7.4,11.07 5.15,27.84c-2.12,15.79 -7.2,18.36 -9.9,19.2c-2.7,0.84 -8.11,0.35 -12.85,-1l-1.07,9.5c0,0 4.6,6.54 3.69,10.84c-0.91,4.3 -10.1,3.75 -15.86,-1.2c-3.466,-3.043 -5.689,-7.261 -6.24,-11.84l1,-21.8c0,0 -3.37,2.78 -7.71,-0.49c-4.09,-3.08 -4.28,-11.21 -0.82,-14c3.46,-2.79 9,-1.13 9.75,3.36c0,0 10.72,2.48 20.21,-2c12.11,-5.68 13.88,-13.91 14.65,-18.41Z" style="fill:#ffa8a7;fill-rule:nonzero;"/><path d="M151.17,185.4l-0.29,-9.92c2.784,-0.008 5.108,2.218 5.22,5c0,0.027 0.001,0.054 0.001,0.081c0,2.655 -2.185,4.84 -4.84,4.84c-0.031,0 -0.061,0 -0.091,-0.001Z" style="fill:#263238;fill-rule:nonzero;"/><path d="M172.85,194.38l5.4,2.42c-0.442,1.108 -1.52,1.839 -2.713,1.839c-0.398,0 -0.792,-0.081 -1.157,-0.239c-1.499,-0.706 -2.18,-2.496 -1.53,-4.02Z" style="fill:#f28f8f;fill-rule:nonzero;"/><path d="M188.55,180.85c0,0.001 0,0.002 0,0.004c0,1.097 -0.903,2 -2,2c-0.04,0 -0.08,-0.002 -0.12,-0.004c-1.118,-0.095 -1.962,-1.091 -1.87,-2.21c0.068,-1.048 0.949,-1.874 2,-1.874c1.099,0 2.004,0.905 2.004,2.004c0,0.043 -0.001,0.087 -0.004,0.13l-0.01,-0.05Z" style="fill:#263238;fill-rule:nonzero;"/><path d="M174.06,182c-0.109,1.011 -0.972,1.786 -1.989,1.786c-1.097,0 -2,-0.902 -2,-2c0,-1.097 0.903,-2 2,-2c0.04,0 0.08,0.002 0.119,0.004c1.051,0.062 1.881,0.944 1.881,1.996c0,0.072 -0.003,0.143 -0.011,0.214Z" style="fill:#263238;fill-rule:nonzero;"/><path d="M179.86,180.72l0.36,12.05l6.34,-1.98l-6.7,-10.07Z" style="fill:#f28f8f;fill-rule:nonzero;"/><path d="M168.23,205c-4,-0.91 -11.76,-4.26 -13.24,-7.17c0,0 -0.14,1.86 2.22,4.67c2.36,2.81 10.67,5.58 10.67,5.58l0.35,-3.08Z" style="fill:#f28f8f;fill-rule:nonzero;"/><path d="M189.19,175.48l-4.49,-1.94c0.577,-1.239 2.044,-1.815 3.31,-1.3c0.864,0.382 1.425,1.242 1.425,2.186c0,0.366 -0.084,0.726 -0.245,1.054Z" style="fill:#263238;fill-rule:nonzero;"/></g><path d="M162.3,298.43l9.76,-18.67c3.24,0.47 6.48,0.92 9.72,1.37c6.45,0.89 30.82,3.88 32.2,3.9c2.69,-0.043 5.345,-0.621 7.81,-1.7c3.86,-1.45 6.72,-3.77 9.84,-4.41c1.445,-0.285 2.925,-0.352 4.39,-0.2c1.85,0.13 1.37,1.12 3.2,1.44c0.525,0.047 1.025,0.245 1.44,0.57c0.7,0.66 0.19,1.06 -0.18,1.6c-0.393,0.683 -0.644,1.438 -0.74,2.22c-0.14,0.67 -0.69,2.95 0.26,3.32c4.61,1.79 5.13,4.43 11.11,9.56c2.86,2.45 4.4,4.22 6.33,5.47c1.21,1.83 1.3,3 -3,5.52c-2.86,1.7 -8,5 -16.41,2.36c-9.16,-2.87 -13.85,-8 -16.21,-8.11c-16.74,-0.94 -50.41,-2.33 -59.52,-4.24Z" style="fill:#ffa8a7;fill-rule:nonzero;"/><path d="M172.06,279.76l-24.66,-40.43c0,0 -4.05,-22.59 -14.1,-23.37c0,0 -9.2,2.37 -11.3,7.89c-2.53,6.68 -2.41,13.22 5.14,28c5.7,11.2 21.15,32.31 27.33,39.46c2.5,2.89 5.23,6.28 7.83,7.08" style="fill:#ffa8a7;fill-rule:nonzero;"/><path d="M222.12,302.7c0.945,0.238 1.826,0.682 2.58,1.3c1.542,-0.277 2.98,-0.968 4.16,-2c4.62,-3.37 20.5,3.4 16.59,7.75c-2.84,3.16 -5.61,4 -10.14,2.59c-6.68,-2.04 -13.8,-5.09 -13.19,-9.64Z" style="fill:#b16668;fill-rule:nonzero;"/><path d="M237.52,279.28c-5.26,0.91 -10.72,4.75 -13.57,5.91c-2.85,1.16 -5.79,1.85 -3.17,4.36c2.62,2.51 9,0 13.41,-1.56c3,-1.08 6.79,0 8.48,0.7c1.24,0.51 0.58,-2.84 0.58,-2.84c-1,-1.46 11.41,0 11,-1.44c-6.56,0.28 -12.49,-6.1 -16.73,-5.13Z" style="fill:#b16668;fill-rule:nonzero;"/></g></g><defs><linearGradient id="_Linear1" x1="0" y1="0" x2="1" y2="0" gradientUnits="userSpaceOnUse" gradientTransform="matrix(56.4947,250.923,-144.873,32.6179,230.579,211.09)"><stop offset="0" style="stop-color:#c95494;stop-opacity:1"/><stop offset="0.56" style="stop-color:#bc4284;stop-opacity:1"/><stop offset="1" style="stop-color:#b73a7d;stop-opacity:1"/></linearGradient></defs></svg>