<?xml version="1.0" encoding="UTF-8" standalone="no"?><!DOCTYPE svg PUBLIC "-//W3C//DTD SVG 1.1//EN" "http://www.w3.org/Graphics/SVG/1.1/DTD/svg11.dtd"><svg width="100%" height="100%" viewBox="0 0 204 58" version="1.1" xmlns="http://www.w3.org/2000/svg" xmlns:xlink="http://www.w3.org/1999/xlink" xml:space="preserve" xmlns:serif="http://www.serif.com/" style="fill-rule:evenodd;clip-rule:evenodd;stroke-linejoin:round;stroke-miterlimit:1.41421;"><rect id="Artboard1" x="0" y="0" width="203.549" height="57.653" style="fill:none;"/><g><g><path d="M57.6,44.9l-2.9,0l0,1.8l2.8,0l0,1.1l-2.8,0l0,2.5l2.9,0l0,1.1l-4,0l0,-7.5l4,0l0,1Z" style="fill:#231f20;fill-rule:nonzero;"/><path d="M58.6,46.6l1.1,0l0,0.4c0.2,-0.2 0.4,-0.4 0.5,-0.4c0.2,-0.1 0.3,-0.1 0.6,-0.1c0.5,0 0.9,0.2 1.2,0.7c0.3,-0.5 0.8,-0.7 1.3,-0.7c1,0 1.5,0.6 1.5,1.9l0,2.9l-1.1,0l0,-2.6c0,-0.5 -0.1,-0.8 -0.2,-1c-0.1,-0.2 -0.3,-0.3 -0.5,-0.3c-0.3,0 -0.5,0.1 -0.6,0.3c-0.1,0.2 -0.2,0.6 -0.2,1.1l0,2.4l-1.1,0l0,-2.6c0,-0.8 -0.2,-1.3 -0.7,-1.3c-0.3,0 -0.5,0.1 -0.6,0.3c-0.1,0.2 -0.2,0.6 -0.2,1.1l0,2.4l-1.1,0l0,-4.5l0.1,0Z" style="fill:#231f20;fill-rule:nonzero;"/><path d="M69.3,46.6l1.1,0l0,4.7l-1.1,0l0,-0.5c-0.4,0.4 -0.9,0.6 -1.4,0.6c-0.6,0 -1.2,-0.2 -1.6,-0.7c-0.4,-0.5 -0.6,-1.1 -0.6,-1.8c0,-0.7 0.2,-1.3 0.6,-1.8c0.4,-0.5 0.9,-0.7 1.5,-0.7c0.5,0 1,0.2 1.4,0.7l0,-0.5l0.1,0Zm-2.5,2.3c0,0.5 0.1,0.8 0.4,1.1c0.2,0.3 0.5,0.4 0.9,0.4c0.4,0 0.7,-0.1 0.9,-0.4c0.2,-0.3 0.4,-0.7 0.4,-1.1c0,-0.4 -0.1,-0.8 -0.4,-1.1c-0.2,-0.3 -0.6,-0.4 -0.9,-0.4c-0.4,0 -0.7,0.1 -0.9,0.4c-0.2,0.3 -0.4,0.7 -0.4,1.1Z" style="fill:#231f20;fill-rule:nonzero;"/><path d="M71.4,44.6c0,-0.2 0.1,-0.4 0.2,-0.5c0.1,-0.1 0.3,-0.2 0.5,-0.2c0.2,0 0.4,0.1 0.5,0.2c0.1,0.1 0.2,0.3 0.2,0.5c0,0.2 -0.1,0.4 -0.2,0.5c-0.1,0.1 -0.3,0.2 -0.5,0.2c-0.2,0 -0.4,-0.1 -0.5,-0.2c-0.2,-0.1 -0.2,-0.3 -0.2,-0.5Zm1.2,2l0,4.7l-1.1,0l0,-4.7l1.1,0Z" style="fill:#231f20;fill-rule:nonzero;"/><rect x="73.6" y="43.1" width="1.1" height="8.2" style="fill:#231f20;fill-rule:nonzero;"/><path d="M83.1,49.5l-3.1,0l-0.8,1.8l-1.2,0l3.6,-7.9l3.5,7.9l-1.2,0l-0.8,-1.8Zm-0.5,-1.1l-1.1,-2.5l-1.1,2.5l2.2,0Z" style="fill:#231f20;fill-rule:nonzero;"/><path d="M86.5,46.6l0,2.7c0,0.8 0.3,1.2 0.9,1.2c0.6,0 0.9,-0.4 0.9,-1.2l0,-2.7l1.1,0l0,2.7c0,0.4 0,0.7 -0.1,1c-0.1,0.2 -0.2,0.5 -0.5,0.7c-0.4,0.3 -0.8,0.5 -1.4,0.5c-0.5,0 -1,-0.2 -1.4,-0.5c-0.2,-0.2 -0.4,-0.4 -0.5,-0.7c-0.1,-0.2 -0.1,-0.5 -0.1,-1l0,-2.7l1.1,0Z" style="fill:#231f20;fill-rule:nonzero;"/><path d="M91.6,47.6l0,3.7l-1.1,0l0,-3.7l-0.4,0l0,-1l0.4,0l0,-1.7l1.1,0l0,1.7l0.8,0l0,1l-0.8,0Z" style="fill:#231f20;fill-rule:nonzero;"/><path d="M92.8,48.9c0,-0.7 0.2,-1.3 0.7,-1.7c0.5,-0.5 1,-0.7 1.7,-0.7c0.7,0 1.3,0.2 1.7,0.7c0.5,0.5 0.7,1.1 0.7,1.8c0,0.7 -0.2,1.3 -0.7,1.8c-0.5,0.5 -1.1,0.7 -1.7,0.7c-0.7,0 -1.3,-0.2 -1.7,-0.7c-0.5,-0.6 -0.7,-1.2 -0.7,-1.9Zm1,0c0,0.5 0.1,0.8 0.4,1.1c0.3,0.3 0.6,0.4 1,0.4c0.4,0 0.7,-0.1 1,-0.4c0.2,-0.3 0.4,-0.6 0.4,-1.1c0,-0.5 -0.1,-0.8 -0.4,-1.1c-0.2,-0.3 -0.6,-0.4 -1,-0.4c-0.4,0 -0.7,0.1 -1,0.4c-0.2,0.3 -0.4,0.7 -0.4,1.1Z" style="fill:#231f20;fill-rule:nonzero;"/><path d="M98.5,46.6l1.1,0l0,0.4c0.2,-0.2 0.4,-0.4 0.5,-0.4c0.2,-0.1 0.3,-0.1 0.6,-0.1c0.5,0 0.9,0.2 1.2,0.7c0.3,-0.5 0.8,-0.7 1.3,-0.7c1,0 1.5,0.6 1.5,1.9l0,2.9l-1.1,0l0,-2.6c0,-0.5 -0.1,-0.8 -0.2,-1c-0.1,-0.2 -0.3,-0.3 -0.5,-0.3c-0.3,0 -0.5,0.1 -0.6,0.3c-0.1,0.2 -0.2,0.6 -0.2,1.1l0,2.4l-1.1,0l0,-2.6c0,-0.8 -0.2,-1.3 -0.7,-1.3c-0.3,0 -0.5,0.1 -0.6,0.3c-0.1,0.2 -0.2,0.6 -0.2,1.1l0,2.4l-1.1,0l0,-4.5l0.1,0Z" style="fill:#231f20;fill-rule:nonzero;"/><path d="M109.3,46.6l1.1,0l0,4.7l-1.1,0l0,-0.5c-0.4,0.4 -0.9,0.6 -1.4,0.6c-0.6,0 -1.2,-0.2 -1.6,-0.7c-0.4,-0.5 -0.6,-1.1 -0.6,-1.8c0,-0.7 0.2,-1.3 0.6,-1.8c0.4,-0.5 0.9,-0.7 1.5,-0.7c0.5,0 1,0.2 1.4,0.7l0,-0.5l0.1,0Zm-2.5,2.3c0,0.5 0.1,0.8 0.4,1.1c0.2,0.3 0.5,0.4 0.9,0.4c0.4,0 0.7,-0.1 0.9,-0.4c0.2,-0.3 0.4,-0.7 0.4,-1.1c0,-0.4 -0.1,-0.8 -0.4,-1.1c-0.2,-0.3 -0.6,-0.4 -0.9,-0.4c-0.4,0 -0.7,0.1 -0.9,0.4c-0.3,0.3 -0.4,0.7 -0.4,1.1Z" style="fill:#231f20;fill-rule:nonzero;"/><path d="M112.5,47.6l0,3.7l-1.1,0l0,-3.7l-0.4,0l0,-1l0.5,0l0,-1.7l1.1,0l0,1.7l0.8,0l0,1l-0.9,0Z" style="fill:#231f20;fill-rule:nonzero;"/><path d="M113.7,44.6c0,-0.2 0.1,-0.4 0.2,-0.5c0.1,-0.1 0.3,-0.2 0.5,-0.2c0.2,0 0.4,0.1 0.5,0.2c0.1,0.1 0.2,0.3 0.2,0.5c0,0.2 -0.1,0.4 -0.2,0.5c-0.1,0.1 -0.3,0.2 -0.5,0.2c-0.2,0 -0.4,-0.1 -0.5,-0.2c-0.1,-0.1 -0.2,-0.3 -0.2,-0.5Zm1.2,2l0,4.7l-1.1,0l0,-4.7l1.1,0Z" style="fill:#231f20;fill-rule:nonzero;"/><path d="M115.8,48.9c0,-0.7 0.2,-1.3 0.7,-1.7c0.5,-0.5 1,-0.7 1.7,-0.7c0.7,0 1.3,0.2 1.7,0.7c0.5,0.5 0.7,1.1 0.7,1.8c0,0.7 -0.2,1.3 -0.7,1.8c-0.5,0.5 -1.1,0.7 -1.8,0.7c-0.7,0 -1.3,-0.2 -1.7,-0.7c-0.4,-0.6 -0.6,-1.2 -0.6,-1.9Zm1.1,0c0,0.5 0.1,0.8 0.4,1.1c0.2,0.3 0.6,0.4 1,0.4c0.4,0 0.7,-0.1 1,-0.4c0.2,-0.3 0.4,-0.6 0.4,-1.1c0,-0.5 -0.1,-0.8 -0.4,-1.1c-0.2,-0.3 -0.6,-0.4 -1,-0.4c-0.4,0 -0.7,0.1 -1,0.4c-0.3,0.3 -0.4,0.7 -0.4,1.1Z" style="fill:#231f20;fill-rule:nonzero;"/><path d="M121.6,46.6l1.1,0l0,0.4c0.4,-0.4 0.8,-0.6 1.2,-0.6c0.5,0 0.9,0.2 1.2,0.5c0.3,0.3 0.4,0.8 0.4,1.4l0,2.9l-1.1,0l0,-2.6c0,-0.5 -0.1,-0.8 -0.2,-1c-0.1,-0.2 -0.3,-0.3 -0.7,-0.3c-0.4,0 -0.6,0.1 -0.7,0.4c-0.1,0.2 -0.2,0.6 -0.2,1.2l0,2.3l-1.1,0l0,-4.6l0.1,0Z" style="fill:#231f20;fill-rule:nonzero;"/></g><g><g><path d="M150.3,18.5l-5,0l0,2.5c-1.8,-2 -4.1,-3 -6.8,-3c-5.9,0 -10.2,4.9 -10.2,11.7c0,6.5 4.3,11.3 10.1,11.3c2.7,0 4.8,-0.9 6.9,-3.1l0,3c0,4.6 -1.8,6.8 -5.5,6.8c-2,0 -4,-1 -4.9,-2.5c-0.5,-0.9 -0.7,-1.7 -0.8,-3.6l-4.9,0c0.1,6.5 4.1,10.6 10.5,10.6c3.7,0 6.9,-1.5 8.7,-4.2c1.4,-2.1 1.9,-4 1.9,-8.2l0,-21.3Zm-10.9,4c3.6,0 6.1,2.8 6.1,6.9c0,4.2 -2.4,7.1 -6,7.1c-3.7,0 -6,-2.7 -6,-7c-0.1,-4.2 2.3,-7 5.9,-7Z" style="fill:#231f20;fill-rule:nonzero;"/><path d="M53.5,18.5l0,21.8l5,0l0,-11.2c0,-4.6 1.2,-6.6 4,-6.6c2.3,0 3.3,1.9 3.3,5.8l0,12l5,0l0,-11.2c0,-4.7 1.2,-6.6 4,-6.6c2.4,0 3.3,1.6 3.3,5.7l0,12.1l5,0l0,-13.4c0,-5.8 -2.5,-8.9 -7.3,-8.9c-2.7,0 -4.9,1.1 -6.4,3.2c-1.3,-2.1 -3.4,-3.2 -5.8,-3.2c-2.2,0 -3.3,0.6 -5.2,2.6l0,-2l-4.9,-0.1Z" style="fill:#231f20;fill-rule:nonzero;"/><path d="M102,18.5l0,2.5c-2.2,-2.2 -4,-3.1 -6.8,-3.1c-5.8,0 -10.3,4.9 -10.3,11.3c0,6.8 4.3,11.7 10.4,11.7c2.6,0 4.3,-0.8 6.7,-2.9l0,2.3l5,0l0,-21.8l-5,0Zm-5.9,4c3.7,0 6.2,2.9 6.2,7c0,4.2 -2.5,7 -6.2,7c-3.5,0 -6,-2.9 -6,-7c0,-4.1 2.6,-7 6,-7Z" style="fill:#231f20;fill-rule:nonzero;"/><path d="M116,18.5l-5,0l0,21.8l5,0l0,-21.8Zm-2.4,-12.1c-1.9,0 -3.3,1.4 -3.3,3.3c0,1.8 1.5,3.3 3.3,3.3c1.8,0 3.3,-1.5 3.3,-3.3c-0.1,-1.8 -1.5,-3.3 -3.3,-3.3Z" style="fill:#231f20;fill-rule:nonzero;"/><rect x="120.6" y="0.9" width="5" height="39.4" style="fill:#231f20;"/><path d="M158.4,18.5l-5,0l0,12.6c0,3.4 0.6,5.3 2.3,7.1c1.8,1.8 4.1,2.7 7,2.7c2.9,0 5.3,-0.9 7,-2.7c1.7,-1.8 2.3,-3.7 2.3,-7.1l0,-12.6l-5,0l0,12.5c0,3.7 -1.3,5.4 -4.3,5.4c-2.9,0 -4.2,-1.7 -4.2,-5.4l-0.1,-12.5Z" style="fill:#231f20;fill-rule:nonzero;"/><path d="M175.3,18.5l0,21.8l5,0l0,-10.5c0,-5.4 1.2,-7.3 4.6,-7.3c3.1,0 4.1,1.4 4.1,5.7l0,12.1l5,0l0,-13.3c0,-6.1 -2.5,-9 -7.9,-9c-2.4,0 -3.9,0.7 -5.8,2.6l0,-2l-5,-0.1Z" style="fill:#231f20;fill-rule:nonzero;"/></g><path d="M27.9,20.3c-4.2,0 -7.7,3.4 -7.7,7.7c0,4.2 3.4,7.7 7.7,7.7c4.2,0 7.7,-3.4 7.7,-7.7c0,-4.3 -3.5,-7.7 -7.7,-7.7Zm-12,7.6c0,-6.6 5.4,-12 12,-12c6.6,0 12,5.4 12,12c0,0.4 0,0.9 -0.1,1.3c-0.1,1.2 0.8,2.1 1.9,2.1c2,0 2.2,-2.5 2.2,-3.4c0,-8.8 -7.2,-16 -16,-16c-8.8,0 -16,7.2 -16,16c0,8.8 7.2,16 16,16c4.7,0 8.9,-2 11.9,-5.2l3.3,2.8c-3.7,4.2 -9.1,6.8 -15.1,6.8c-11.2,0 -20.3,-9.1 -20.3,-20.3c0,-11.2 9.1,-20.3 20.3,-20.3c11.2,0 20.3,9.1 20.3,20.3c0,4.5 -2.1,8.2 -6.5,8.2c-1.9,0 -3.1,-0.9 -3.7,-1.8c-2.1,3.4 -5.9,5.6 -10.2,5.6c-6.6,-0.1 -12,-5.4 -12,-12.1Zm12,-3.5c1.9,0 3.5,1.6 3.5,3.5c0,1.9 -1.6,3.5 -3.5,3.5c-1.9,0 -3.5,-1.6 -3.5,-3.5c0,-1.9 1.6,-3.5 3.5,-3.5Z" style="fill:#231f20;fill-rule:nonzero;"/></g></g></svg>