<?xml version="1.0" encoding="UTF-8" standalone="no"?><!DOCTYPE svg PUBLIC "-//W3C//DTD SVG 1.1//EN" "http://www.w3.org/Graphics/SVG/1.1/DTD/svg11.dtd"><svg width="100%" height="100%" viewBox="0 0 1806 1204" version="1.1" xmlns="http://www.w3.org/2000/svg" xmlns:xlink="http://www.w3.org/1999/xlink" xml:space="preserve" xmlns:serif="http://www.serif.com/" style="fill-rule:evenodd;clip-rule:evenodd;stroke-linecap:round;stroke-linejoin:round;stroke-miterlimit:1.5;"><rect id="basics-third-party" x="0" y="0" width="1805.18" height="1203.19" style="fill:none;"/><g id="Rings"><path id="Ring-3" serif:id="Ring 3" d="M612.04,104.41c274.816,0 497.932,223.116 497.932,497.933c0,274.816 -223.116,497.932 -497.932,497.932c-274.817,0 -497.933,-223.116 -497.933,-497.932c0,-274.817 223.116,-497.933 497.933,-497.933Zm0,153.644c190.018,0 344.288,154.271 344.288,344.289c0,190.018 -154.27,344.288 -344.288,344.288c-190.018,0 -344.289,-154.27 -344.289,-344.288c0,-190.018 154.271,-344.289 344.289,-344.289Z" style="fill:#b73a7d;fill-opacity:0.17;stroke:#573351;stroke-width:5px;"/><path id="Ring-2" serif:id="Ring 2" d="M612.04,258.054c190.018,0 344.288,154.271 344.288,344.289c0,190.018 -154.27,344.288 -344.288,344.288c-190.018,0 -344.289,-154.27 -344.289,-344.288c0,-190.018 154.271,-344.289 344.289,-344.289Zm0,168.468c67.741,0 126.586,38.394 155.943,94.589c12.696,24.303 19.877,51.935 19.877,81.232c0,97.038 -78.782,175.82 -175.82,175.82c-97.038,0 -175.821,-78.782 -175.821,-175.82c0,-97.038 78.783,-175.821 175.821,-175.821Z" style="fill:#b73a7d;fill-opacity:0.32;stroke:#573351;stroke-width:5px;"/><circle id="Ring-1" serif:id="Ring 1" cx="612.04" cy="602.343" r="175.82" style="fill:#b73a7d;fill-opacity:0.7;stroke:#573351;stroke-width:5px;"/><clipPath id="_clip1"><rect x="562.04" y="472.343" width="100" height="260"/></clipPath><g clip-path="url(#_clip1)"><g><path d="M580.04,506.343c0,-17.555 14.445,-32 32,-32c17.554,0 32,14.445 32,32c0,17.554 -14.446,32 -32,32c-17.555,0 -32,-14.446 -32,-32Z" style="fill:#fff;fill-rule:nonzero;"/><path d="M579.004,505.918l0.003,-0.211l0.002,-0.108l0.003,-0.104l0.005,-0.211l0.008,-0.21l0.008,-0.211l0.01,-0.21l0.011,-0.21l0.013,-0.209l0.014,-0.209l0.015,-0.209l0.016,-0.209l0.018,-0.208l0.019,-0.208l0.02,-0.207l0.022,-0.207l0.023,-0.207l0.024,-0.207l0.026,-0.206l0.027,-0.205l0.028,-0.205l0.029,-0.205l0.031,-0.205l0.032,-0.204l0.033,-0.204l0.035,-0.203l0.035,-0.203l0.037,-0.202l0.038,-0.203l0.04,-0.201l0.04,-0.202l0.042,-0.2l0.043,-0.201l0.045,-0.2l0.045,-0.199l0.047,-0.199l0.048,-0.199l0.049,-0.198l0.051,-0.198l0.051,-0.197l0.053,-0.197l0.054,-0.197l0.055,-0.196l0.056,-0.195l0.058,-0.195l0.058,-0.194l0.06,-0.194l0.061,-0.194l0.062,-0.193l0.064,-0.192l0.064,-0.192l0.066,-0.192l0.067,-0.191l0.058,-0.164l0.009,-0.026l0.069,-0.19l0.071,-0.189l0.071,-0.189l0.072,-0.189l0.074,-0.187l0.075,-0.188l0.075,-0.186l0.077,-0.186l0.078,-0.186l0.079,-0.185l0.08,-0.185l0.082,-0.183l0.082,-0.184l0.083,-0.183l0.085,-0.182l0.085,-0.181l0.087,-0.181l0.088,-0.181l0.088,-0.179l0.09,-0.18l0.091,-0.178l0.092,-0.178l0.093,-0.178l0.094,-0.176l0.095,-0.177l0.096,-0.175l0.097,-0.175l0.098,-0.174l0.099,-0.174l0.1,-0.173l0.101,-0.172l0.102,-0.172l0.103,-0.171l0.104,-0.17l0.105,-0.17l0.106,-0.169l0.107,-0.168l0.109,-0.168l0.109,-0.167l0.109,-0.167l0.111,-0.165l0.112,-0.165l0.113,-0.164l0.114,-0.164l0.115,-0.163l0.115,-0.162l0.117,-0.162l0.118,-0.16l0.118,-0.16l0.12,-0.16l0.12,-0.158l0.121,-0.158l0.122,-0.157l0.123,-0.157l0.125,-0.155l0.124,-0.155l0.126,-0.154l0.127,-0.154l0.128,-0.152l0.128,-0.152l0.129,-0.151l0.131,-0.151l0.131,-0.149l0.132,-0.149l0.133,-0.148l0.133,-0.147l0.135,-0.147l0.136,-0.145l0.136,-0.145l0.137,-0.144l0.138,-0.143l0.139,-0.143l0.139,-0.141l0.141,-0.141l0.141,-0.14l0.142,-0.139l0.143,-0.139l0.144,-0.137l0.145,-0.137l0.145,-0.136l0.146,-0.134l0.148,-0.135l0.147,-0.133l0.149,-0.132l0.149,-0.132l0.151,-0.13l0.15,-0.13l0.152,-0.129l0.153,-0.128l0.026,-0.022l0.127,-0.105l0.154,-0.126l0.155,-0.125l0.156,-0.124l0.156,-0.124l0.158,-0.122l0.158,-0.122l0.158,-0.12l0.16,-0.12l0.16,-0.119l0.161,-0.118l0.161,-0.116l0.163,-0.116l0.163,-0.115l0.164,-0.114l0.164,-0.114l0.165,-0.112l0.166,-0.111l0.167,-0.11l0.167,-0.109l0.168,-0.109l0.169,-0.107l0.169,-0.106l0.17,-0.106l0.171,-0.104l0.171,-0.103l0.172,-0.103l0.173,-0.101l0.173,-0.1l0.174,-0.1l0.174,-0.098l0.176,-0.097l0.176,-0.097l0.176,-0.095l0.177,-0.094l0.178,-0.093l0.179,-0.092l0.179,-0.091l0.179,-0.09l0.181,-0.089l0.18,-0.088l0.182,-0.087l0.182,-0.086l0.183,-0.085l0.183,-0.083l0.184,-0.083l0.184,-0.081l0.185,-0.081l0.186,-0.079l0.186,-0.078l0.187,-0.078l0.187,-0.076l0.188,-0.074l0.188,-0.074l0.189,-0.073l0.19,-0.071l0.19,-0.071l0.19,-0.069l0.191,-0.068l0.192,-0.067l0.192,-0.066l0.193,-0.065l0.193,-0.064l0.194,-0.062l0.194,-0.061l0.195,-0.06l0.195,-0.059l0.196,-0.058l0.196,-0.057l0.197,-0.055l0.197,-0.054l0.198,-0.053l0.198,-0.052l0.198,-0.051l0.199,-0.049l0.2,-0.048l0.2,-0.047l0.2,-0.046l0.201,-0.044l0.202,-0.044l0.202,-0.042l0.202,-0.041l0.202,-0.039l0.204,-0.039l0.203,-0.037l0.204,-0.036l0.204,-0.034l0.205,-0.034l0.205,-0.032l0.206,-0.031l0.206,-0.029l0.206,-0.028l0.207,-0.027l0.207,-0.026l0.208,-0.024l0.208,-0.024l0.208,-0.021l0.208,-0.021l0.21,-0.019l0.209,-0.018l0.21,-0.017l0.21,-0.015l0.21,-0.014l0.211,-0.012l0.211,-0.012l0.075,-0.003l0.136,-0.006l0.212,-0.008l0.212,-0.007l0.213,-0.006l0.212,-0.004l0.213,-0.003l0.214,-0.001l0.213,0l0.213,0.001l0.213,0.003l0.212,0.004l0.212,0.006l0.212,0.007l0.212,0.008l0.211,0.009l0.211,0.011l0.211,0.012l0.21,0.014l0.21,0.015l0.209,0.016l0.21,0.017l0.209,0.019l0.208,0.02l0.209,0.021l0.207,0.023l0.208,0.024l0.207,0.025l0.207,0.027l0.206,0.028l0.206,0.029l0.206,0.031l0.205,0.031l0.205,0.033l0.205,0.034l0.204,0.036l0.204,0.037l0.203,0.038l0.203,0.039l0.202,0.041l0.202,0.041l0.202,0.043l0.201,0.044l0.201,0.046l0.2,0.047l0.2,0.047l0.199,0.05l0.199,0.05l0.199,0.051l0.198,0.053l0.197,0.054l0.198,0.055l0.196,0.056l0.196,0.058l0.085,0.025l0.111,0.034l0.195,0.06l0.194,0.062l0.195,0.062l0.193,0.064l0.193,0.065l0.193,0.066l0.192,0.067l0.191,0.069l0.191,0.069l0.19,0.071l0.19,0.072l0.19,0.073l0.188,0.074l0.189,0.075l0.187,0.076l0.187,0.077l0.187,0.079l0.186,0.08l0.185,0.08l0.185,0.082l0.185,0.083l0.183,0.084l0.183,0.085l0.183,0.086l0.182,0.087l0.181,0.089l0.181,0.089l0.18,0.091l0.18,0.091l0.178,0.093l0.179,0.093l0.177,0.095l0.177,0.095l0.177,0.097l0.175,0.098l0.176,0.099l0.174,0.099l0.174,0.101l0.173,0.102l0.172,0.103l0.172,0.104l0.171,0.105l0.171,0.106l0.17,0.106l0.169,0.108l0.168,0.109l0.168,0.11l0.167,0.111l0.167,0.111l0.165,0.113l0.165,0.114l0.165,0.114l0.163,0.116l0.013,0.01l0.15,0.107l0.161,0.118l0.162,0.119l0.16,0.119l0.16,0.121l0.158,0.122l0.159,0.122l0.157,0.124l0.157,0.124l0.155,0.126l0.156,0.126l0.154,0.127l0.153,0.128l0.153,0.129l0.152,0.13l0.151,0.13l0.151,0.132l0.15,0.133l0.148,0.133l0.149,0.134l0.147,0.135l0.146,0.136l0.146,0.137l0.145,0.138l0.144,0.138l0.143,0.139l0.142,0.141l0.142,0.141l0.14,0.141l0.14,0.143l0.139,0.144l0.138,0.144l0.138,0.145l0.136,0.146l0.136,0.147l0.135,0.147l0.133,0.149l0.133,0.149l0.132,0.15l0.132,0.15l0.13,0.152l0.129,0.152l0.129,0.153l0.128,0.154l0.126,0.155l0.126,0.155l0.125,0.156l0.124,0.157l0.123,0.158l0.122,0.158l0.122,0.159l0.12,0.16l0.119,0.161l0.119,0.161l0.117,0.162l0.117,0.163l0.115,0.163l0.115,0.164l0.114,0.165l0.113,0.166l0.111,0.166l0.111,0.167l0.11,0.168l0.109,0.168l0.107,0.169l0.107,0.17l0.106,0.17l0.105,0.171l0.104,0.172l0.103,0.173l0.102,0.173l0.1,0.173l0.1,0.175l0.099,0.175l0.098,0.175l0.096,0.177l0.096,0.177l0.095,0.177l0.093,0.178l0.012,0.024l0.081,0.155l0.091,0.18l0.09,0.18l0.089,0.181l0.088,0.181l0.087,0.182l0.086,0.182l0.085,0.184l0.084,0.183l0.083,0.185l0.081,0.184l0.081,0.186l0.079,0.186l0.078,0.186l0.078,0.188l0.076,0.187l0.075,0.188l0.074,0.189l0.072,0.19l0.072,0.189l0.07,0.191l0.07,0.191l0.068,0.191l0.067,0.192l0.066,0.193l0.064,0.193l0.064,0.193l0.062,0.194l0.062,0.195l0.06,0.195l0.058,0.195l0.058,0.196l0.057,0.197l0.055,0.196l0.054,0.198l0.053,0.198l0.052,0.198l0.05,0.199l0.05,0.199l0.048,0.2l0.047,0.2l0.045,0.201l0.045,0.201l0.043,0.201l0.042,0.202l0.041,0.202l0.039,0.203l0.038,0.203l0.037,0.204l0.036,0.204l0.034,0.204l0.034,0.205l0.032,0.205l0.03,0.206l0.03,0.206l0.028,0.206l0.027,0.207l0.025,0.207l0.024,0.207l0.023,0.208l0.022,0.208l0.02,0.209l0.019,0.208l0.018,0.21l0.016,0.209l0.015,0.21l0.014,0.21l0.012,0.211l0.012,0.211l0.009,0.211l0.009,0.211l0.007,0.212l0.005,0.212l0.005,0.213l0.003,0.212l0.001,0.213l0,0.214l-0.001,0.213l-0.002,0.213l-0.004,0.213l-0.005,0.212l-0.007,0.212l-0.008,0.212l-0.009,0.211l-0.011,0.211l-0.012,0.211l-0.013,0.21l-0.015,0.211l-0.015,0.209l-0.018,0.21l-0.018,0.209l-0.02,0.208l-0.021,0.209l-0.023,0.208l-0.024,0.207l-0.025,0.208l-0.026,0.206l-0.005,0.034l-0.023,0.173l-0.029,0.206l-0.03,0.206l-0.032,0.205l-0.033,0.205l-0.034,0.204l-0.036,0.204l-0.036,0.204l-0.038,0.203l-0.04,0.203l-0.04,0.202l-0.042,0.202l-0.043,0.202l-0.044,0.201l-0.045,0.2l-0.047,0.201l-0.048,0.199l-0.049,0.2l-0.05,0.198l-0.051,0.199l-0.053,0.198l-0.054,0.197l-0.055,0.197l-0.056,0.196l-0.057,0.196l-0.059,0.196l-0.06,0.194l-0.061,0.195l-0.062,0.194l-0.063,0.193l-0.064,0.193l-0.066,0.192l-0.067,0.192l-0.067,0.192l-0.069,0.19l-0.071,0.191l-0.071,0.189l-0.072,0.19l-0.074,0.188l-0.074,0.188l-0.076,0.188l-0.077,0.187l-0.078,0.186l-0.079,0.186l-0.08,0.185l-0.081,0.185l-0.083,0.184l-0.083,0.184l-0.085,0.183l-0.085,0.182l-0.087,0.182l-0.088,0.181l-0.088,0.18l-0.09,0.18l-0.091,0.18l-0.092,0.178l-0.093,0.178l-0.094,0.178l-0.095,0.177l-0.096,0.176l-0.097,0.175l-0.098,0.175l-0.1,0.174l-0.1,0.174l-0.101,0.173l-0.102,0.172l-0.103,0.172l-0.105,0.171l-0.105,0.17l-0.106,0.17l-0.107,0.169l-0.108,0.168l-0.109,0.167l-0.111,0.167l-0.111,0.166l-0.112,0.166l-0.113,0.165l-0.114,0.164l-0.114,0.163l-0.116,0.163l-0.117,0.162l-0.118,0.161l-0.119,0.16l-0.119,0.16l-0.121,0.159l-0.121,0.158l-0.123,0.158l-0.123,0.156l-0.124,0.156l-0.125,0.156l-0.126,0.154l-0.127,0.154l-0.128,0.153l-0.129,0.152l-0.129,0.151l-0.131,0.151l-0.131,0.15l-0.132,0.149l-0.133,0.148l-0.134,0.147l-0.135,0.147l-0.136,0.146l-0.136,0.145l-0.137,0.144l-0.139,0.144l-0.139,0.142l-0.14,0.142l-0.14,0.141l-0.142,0.14l-0.142,0.139l-0.143,0.138l-0.144,0.138l-0.145,0.137l-0.146,0.136l-0.146,0.135l-0.147,0.134l-0.148,0.133l-0.149,0.132l-0.15,0.132l-0.15,0.13l-0.151,0.13l-0.152,0.129l-0.153,0.128l-0.153,0.127l-0.154,0.126l-0.155,0.126l-0.156,0.124l-0.157,0.123l-0.157,0.123l-0.158,0.121l-0.158,0.121l-0.16,0.12l-0.16,0.119l-0.161,0.118l-0.161,0.117l-0.163,0.116l-0.163,0.115l-0.163,0.114l-0.165,0.113l-0.165,0.112l-0.166,0.111l-0.166,0.11l-0.167,0.11l-0.168,0.108l-0.169,0.107l-0.169,0.107l-0.17,0.105l-0.171,0.104l-0.171,0.104l-0.172,0.102l-0.172,0.101l-0.173,0.101l-0.174,0.099l-0.175,0.098l-0.175,0.097l-0.176,0.097l-0.176,0.095l-0.177,0.094l-0.178,0.093l-0.178,0.092l-0.179,0.091l-0.179,0.09l-0.18,0.089l-0.181,0.088l-0.181,0.087l-0.182,0.085l-0.182,0.085l-0.183,0.084l-0.184,0.082l-0.184,0.081l-0.185,0.081l-0.185,0.079l-0.186,0.078l-0.186,0.077l-0.187,0.076l-0.188,0.075l-0.188,0.073l-0.189,0.073l-0.189,0.071l-0.189,0.071l-0.191,0.069l-0.19,0.068l-0.191,0.067l-0.192,0.065l-0.193,0.065l-0.192,0.063l-0.194,0.063l-0.193,0.061l-0.195,0.06l-0.194,0.059l-0.196,0.057l-0.195,0.057l-0.197,0.055l-0.196,0.054l-0.197,0.053l-0.198,0.051l-0.198,0.051l-0.199,0.049l-0.199,0.048l-0.199,0.047l-0.2,0.045l-0.2,0.045l-0.201,0.043l-0.201,0.042l-0.202,0.041l-0.202,0.039l-0.202,0.038l-0.203,0.037l-0.203,0.036l-0.204,0.034l-0.204,0.034l-0.204,0.032l-0.205,0.03l-0.205,0.03l-0.206,0.028l-0.206,0.027l-0.206,0.025l-0.207,0.024l-0.207,0.023l-0.207,0.022l-0.208,0.021l-0.208,0.019l-0.172,0.014l-0.037,0.003l-0.209,0.017l-0.209,0.015l-0.209,0.014l-0.21,0.012l-0.21,0.011l-0.211,0.01l-0.21,0.008l-0.211,0.007l-0.212,0.006l-0.212,0.005l-0.212,0.003l-0.212,0.001l-0.212,0.001l-0.213,-0.001l-0.212,-0.003l-0.212,-0.004l-0.212,-0.005l-0.211,-0.006l-0.211,-0.008l-0.211,-0.009l-0.21,-0.011l-0.21,-0.011l-0.21,-0.014l-0.209,-0.014l-0.209,-0.016l-0.209,-0.017l-0.209,-0.018l-0.208,-0.02l-0.207,-0.021l-0.207,-0.022l-0.207,-0.024l-0.207,-0.025l-0.206,-0.026l-0.206,-0.028l-0.205,-0.028l-0.205,-0.03l-0.205,-0.032l-0.204,-0.032l-0.204,-0.034l-0.203,-0.035l-0.203,-0.036l-0.203,-0.038l-0.202,-0.039l-0.202,-0.04l-0.201,-0.041l-0.201,-0.043l-0.201,-0.043l-0.2,-0.045l-0.199,-0.046l-0.199,-0.048l-0.199,-0.048l-0.198,-0.05l-0.198,-0.051l-0.197,-0.053l-0.197,-0.053l-0.197,-0.055l-0.195,-0.055l-0.196,-0.057l-0.195,-0.058l-0.194,-0.06l-0.194,-0.06l-0.193,-0.062l-0.193,-0.063l-0.193,-0.064l-0.191,-0.065l-0.192,-0.066l-0.191,-0.067l-0.19,-0.069l-0.19,-0.069l-0.189,-0.071l-0.189,-0.072l-0.188,-0.073l-0.188,-0.074l-0.187,-0.076l-0.186,-0.076l-0.186,-0.077l-0.185,-0.079l-0.185,-0.08l-0.185,-0.08l-0.183,-0.082l-0.183,-0.083l-0.183,-0.084l-0.182,-0.085l-0.181,-0.086l-0.181,-0.088l-0.18,-0.088l-0.179,-0.089l-0.179,-0.091l-0.179,-0.091l-0.177,-0.092l-0.177,-0.094l-0.177,-0.094l-0.176,-0.096l-0.175,-0.097l-0.174,-0.097l-0.174,-0.099l-0.174,-0.1l-0.172,-0.1l-0.172,-0.102l-0.171,-0.103l-0.171,-0.103l-0.17,-0.105l-0.169,-0.106l-0.169,-0.106l-0.168,-0.108l-0.167,-0.109l-0.167,-0.109l-0.166,-0.111l-0.165,-0.111l-0.164,-0.113l-0.164,-0.113l-0.163,-0.114l-0.162,-0.116l-0.162,-0.116l-0.161,-0.117l-0.16,-0.118l-0.16,-0.119l-0.158,-0.12l-0.158,-0.121l-0.158,-0.122l-0.156,-0.123l-0.156,-0.124l-0.155,-0.124l-0.154,-0.126l-0.154,-0.126l-0.152,-0.127l-0.152,-0.128l-0.152,-0.13l-0.15,-0.129l-0.15,-0.131l-0.149,-0.132l-0.148,-0.132l-0.147,-0.134l-0.146,-0.134l-0.146,-0.135l-0.145,-0.136l-0.144,-0.137l-0.143,-0.138l-0.143,-0.138l-0.141,-0.14l-0.141,-0.14l-0.14,-0.141l-0.139,-0.142l-0.138,-0.142l-0.138,-0.144l-0.136,-0.144l-0.136,-0.145l-0.135,-0.146l-0.134,-0.147l-0.133,-0.147l-0.132,-0.148l-0.132,-0.149l-0.13,-0.15l-0.13,-0.151l-0.129,-0.151l-0.128,-0.152l-0.127,-0.153l-0.126,-0.154l-0.125,-0.154l-0.124,-0.156l-0.123,-0.156l-0.123,-0.156l-0.122,-0.158l-0.12,-0.158l-0.12,-0.159l-0.119,-0.159l-0.117,-0.161l-0.117,-0.161l-0.116,-0.162l-0.115,-0.162l-0.114,-0.163l-0.114,-0.164l-0.112,-0.165l-0.111,-0.165l-0.11,-0.166l-0.109,-0.167l-0.109,-0.167l-0.107,-0.168l-0.106,-0.169l-0.106,-0.17l-0.104,-0.17l-0.103,-0.17l-0.103,-0.172l-0.101,-0.172l-0.1,-0.172l-0.1,-0.174l-0.098,-0.174l-0.097,-0.174l-0.096,-0.176l-0.096,-0.176l-0.094,-0.176l-0.093,-0.177l-0.092,-0.178l-0.091,-0.178l-0.09,-0.179l-0.089,-0.18l-0.088,-0.18l-0.087,-0.181l-0.086,-0.181l-0.084,-0.182l-0.084,-0.183l-0.083,-0.183l-0.081,-0.184l-0.08,-0.184l-0.08,-0.185l-0.078,-0.185l-0.077,-0.186l-0.076,-0.187l-0.075,-0.187l-0.073,-0.187l-0.073,-0.189l-0.072,-0.188l-0.07,-0.189l-0.069,-0.19l-0.068,-0.191l-0.067,-0.19l-0.066,-0.192l-0.065,-0.192l-0.063,-0.192l-0.063,-0.193l-0.061,-0.193l-0.06,-0.194l-0.059,-0.194l-0.058,-0.195l-0.056,-0.195l-0.056,-0.196l-0.054,-0.196l-0.053,-0.197l-0.051,-0.197l-0.051,-0.198l-0.049,-0.198l-0.049,-0.199l-0.047,-0.199l-0.045,-0.199l-0.045,-0.2l-0.043,-0.2l-0.042,-0.201l-0.041,-0.201l-0.04,-0.202l-0.038,-0.202l-0.037,-0.203l-0.036,-0.202l-0.035,-0.204l-0.033,-0.203l-0.032,-0.204l-0.031,-0.205l-0.03,-0.205l-0.028,-0.205l-0.027,-0.206l-0.026,-0.206l-0.024,-0.206l-0.023,-0.207l-0.022,-0.207l-0.021,-0.207l-0.019,-0.208l-0.018,-0.208l-0.016,-0.208l-0.016,-0.209l-0.014,-0.209l-0.012,-0.21l-0.012,-0.21l-0.01,-0.21l-0.008,-0.21l-0.008,-0.211l-0.003,-0.105l-0.003,-0.106l-0.004,-0.211l-0.004,-0.212l-0.002,-0.212l0,-0.212l0,-0.213l0.002,-0.212Zm2.076,0.822l0.004,0.199l0.004,0.198l0.006,0.197l0.007,0.198l0.008,0.197l0.01,0.197l0.011,0.196l0.012,0.196l0.013,0.196l0.015,0.196l0.016,0.195l0.017,0.195l0.018,0.194l0.019,0.195l0.021,0.193l0.022,0.194l0.023,0.193l0.024,0.193l0.026,0.192l0.027,0.193l0.027,0.191l0.03,0.192l0.03,0.191l0.031,0.19l0.033,0.19l0.034,0.19l0.035,0.19l0.036,0.189l0.037,0.189l0.038,0.188l0.04,0.188l0.041,0.187l0.042,0.187l0.043,0.187l0.044,0.186l0.045,0.186l0.047,0.185l0.047,0.185l0.049,0.185l0.05,0.184l0.051,0.184l0.052,0.183l0.053,0.183l0.054,0.182l0.055,0.182l0.057,0.181l0.057,0.181l0.059,0.181l0.06,0.179l0.061,0.18l0.061,0.179l0.063,0.179l0.064,0.178l0.065,0.177l0.066,0.177l0.068,0.177l0.068,0.176l0.069,0.176l0.07,0.175l0.072,0.174l0.072,0.174l0.074,0.174l0.074,0.173l0.076,0.172l0.076,0.172l0.078,0.172l0.078,0.171l0.08,0.17l0.08,0.17l0.082,0.169l0.082,0.169l0.084,0.168l0.084,0.167l0.086,0.167l0.087,0.167l0.087,0.165l0.088,0.166l0.09,0.164l0.09,0.164l0.092,0.164l0.092,0.163l0.093,0.162l0.094,0.162l0.096,0.161l0.096,0.16l0.097,0.16l0.098,0.159l0.099,0.159l0.1,0.158l0.1,0.157l0.102,0.157l0.103,0.156l0.103,0.155l0.105,0.155l0.105,0.154l0.106,0.154l0.107,0.153l0.108,0.152l0.109,0.151l0.11,0.151l0.111,0.15l0.111,0.15l0.113,0.148l0.113,0.148l0.114,0.148l0.115,0.147l0.116,0.146l0.117,0.145l0.117,0.144l0.119,0.144l0.119,0.143l0.12,0.143l0.121,0.142l0.122,0.141l0.122,0.14l0.124,0.139l0.124,0.139l0.125,0.138l0.126,0.137l0.127,0.137l0.127,0.136l0.128,0.135l0.129,0.134l0.13,0.133l0.131,0.133l0.131,0.132l0.132,0.131l0.133,0.131l0.134,0.129l0.135,0.129l0.135,0.128l0.136,0.127l0.136,0.127l0.138,0.125l0.138,0.125l0.139,0.124l0.14,0.123l0.14,0.122l0.142,0.122l0.141,0.121l0.143,0.119l0.143,0.119l0.145,0.119l0.144,0.117l0.146,0.116l0.146,0.116l0.147,0.115l0.147,0.114l0.149,0.113l0.149,0.112l0.149,0.111l0.15,0.11l0.151,0.11l0.152,0.108l0.152,0.108l0.153,0.107l0.154,0.106l0.154,0.105l0.155,0.104l0.156,0.103l0.156,0.102l0.157,0.102l0.157,0.1l0.158,0.1l0.159,0.098l0.159,0.098l0.16,0.097l0.161,0.096l0.161,0.094l0.162,0.094l0.162,0.093l0.163,0.092l0.164,0.091l0.164,0.09l0.165,0.089l0.165,0.088l0.166,0.088l0.166,0.086l0.167,0.085l0.168,0.084l0.168,0.083l0.169,0.082l0.169,0.082l0.17,0.08l0.17,0.079l0.171,0.078l0.171,0.077l0.172,0.076l0.173,0.075l0.173,0.075l0.174,0.073l0.174,0.072l0.174,0.071l0.175,0.07l0.176,0.068l0.176,0.068l0.177,0.067l0.177,0.066l0.177,0.064l0.178,0.064l0.179,0.062l0.179,0.062l0.179,0.06l0.18,0.06l0.181,0.058l0.181,0.057l0.181,0.056l0.182,0.055l0.182,0.054l0.183,0.052l0.183,0.052l0.183,0.05l0.184,0.05l0.185,0.048l0.185,0.047l0.185,0.046l0.186,0.045l0.186,0.044l0.186,0.043l0.187,0.041l0.188,0.04l0.187,0.039l0.189,0.038l0.188,0.037l0.189,0.036l0.189,0.035l0.19,0.033l0.19,0.032l0.191,0.031l0.19,0.03l0.192,0.028l0.191,0.028l0.192,0.026l0.192,0.025l0.193,0.024l0.193,0.023l0.193,0.021l0.194,0.02l0.194,0.019l0.194,0.018l0.195,0.017l0.195,0.015l0.195,0.014l0.196,0.013l0.196,0.012l0.196,0.01l0.197,0.009l0.196,0.008l0.198,0.007l0.197,0.005l0.198,0.004l0.198,0.003l0.198,0.001l0.199,0.001l0.198,-0.001l0.199,-0.003l0.198,-0.003l0.197,-0.005l0.198,-0.006l0.197,-0.007l0.197,-0.009l0.196,-0.01l0.196,-0.011l0.196,-0.012l0.196,-0.014l0.195,-0.015l0.195,-0.016l0.034,-0.003l0.16,-0.014l0.194,-0.018l0.194,-0.02l0.194,-0.021l0.193,-0.022l0.193,-0.023l0.192,-0.024l0.192,-0.026l0.192,-0.027l0.191,-0.028l0.191,-0.029l0.191,-0.031l0.19,-0.031l0.19,-0.033l0.19,-0.034l0.189,-0.035l0.188,-0.037l0.189,-0.037l0.188,-0.039l0.187,-0.039l0.187,-0.041l0.187,-0.042l0.186,-0.043l0.186,-0.045l0.185,-0.045l0.185,-0.047l0.185,-0.047l0.184,-0.049l0.184,-0.05l0.183,-0.051l0.183,-0.052l0.182,-0.054l0.182,-0.054l0.181,-0.056l0.181,-0.056l0.181,-0.058l0.18,-0.058l0.179,-0.06l0.18,-0.061l0.178,-0.062l0.178,-0.063l0.178,-0.064l0.177,-0.065l0.177,-0.067l0.176,-0.067l0.176,-0.068l0.175,-0.07l0.174,-0.07l0.174,-0.071l0.174,-0.073l0.173,-0.073l0.173,-0.075l0.172,-0.075l0.171,-0.077l0.171,-0.078l0.171,-0.078l0.169,-0.08l0.17,-0.08l0.168,-0.082l0.169,-0.083l0.167,-0.083l0.167,-0.085l0.167,-0.085l0.166,-0.087l0.165,-0.088l0.165,-0.088l0.164,-0.089l0.164,-0.091l0.163,-0.091l0.162,-0.093l0.162,-0.093l0.161,-0.094l0.161,-0.095l0.16,-0.096l0.159,-0.098l0.159,-0.098l0.158,-0.098l0.157,-0.1l0.157,-0.101l0.156,-0.102l0.156,-0.102l0.155,-0.104l0.154,-0.104l0.154,-0.106l0.153,-0.106l0.152,-0.107l0.152,-0.108l0.151,-0.109l0.15,-0.11l0.15,-0.11l0.149,-0.112l0.148,-0.112l0.147,-0.113l0.147,-0.114l0.146,-0.115l0.146,-0.116l0.145,-0.117l0.144,-0.117l0.143,-0.119l0.143,-0.119l0.142,-0.12l0.141,-0.121l0.14,-0.121l0.14,-0.123l0.139,-0.123l0.138,-0.124l0.138,-0.125l0.137,-0.126l0.136,-0.127l0.135,-0.127l0.134,-0.128l0.134,-0.129l0.133,-0.13l0.132,-0.13l0.132,-0.131l0.13,-0.132l0.13,-0.133l0.129,-0.134l0.128,-0.134l0.128,-0.135l0.127,-0.136l0.125,-0.137l0.125,-0.137l0.125,-0.138l0.123,-0.139l0.123,-0.139l0.122,-0.141l0.12,-0.141l0.121,-0.141l0.119,-0.143l0.118,-0.143l0.118,-0.144l0.117,-0.144l0.116,-0.146l0.115,-0.145l0.114,-0.147l0.113,-0.147l0.113,-0.148l0.111,-0.149l0.111,-0.15l0.11,-0.15l0.109,-0.15l0.108,-0.152l0.107,-0.152l0.106,-0.152l0.106,-0.154l0.104,-0.154l0.104,-0.154l0.103,-0.156l0.101,-0.155l0.101,-0.157l0.1,-0.157l0.099,-0.158l0.098,-0.158l0.097,-0.159l0.096,-0.16l0.096,-0.16l0.094,-0.161l0.093,-0.162l0.093,-0.162l0.091,-0.162l0.091,-0.163l0.089,-0.164l0.089,-0.165l0.087,-0.165l0.087,-0.165l0.086,-0.166l0.084,-0.167l0.084,-0.167l0.083,-0.168l0.081,-0.168l0.081,-0.169l0.08,-0.169l0.078,-0.17l0.078,-0.171l0.077,-0.171l0.075,-0.171l0.075,-0.172l0.074,-0.173l0.072,-0.173l0.072,-0.174l0.07,-0.174l0.07,-0.174l0.068,-0.176l0.067,-0.175l0.067,-0.176l0.065,-0.177l0.064,-0.177l0.063,-0.178l0.062,-0.178l0.061,-0.178l0.06,-0.179l0.059,-0.18l0.058,-0.179l0.056,-0.181l0.056,-0.181l0.054,-0.181l0.054,-0.182l0.052,-0.182l0.051,-0.182l0.05,-0.183l0.049,-0.184l0.048,-0.184l0.047,-0.184l0.045,-0.185l0.045,-0.185l0.043,-0.185l0.042,-0.186l0.041,-0.187l0.04,-0.187l0.039,-0.187l0.038,-0.187l0.036,-0.188l0.035,-0.189l0.035,-0.188l0.032,-0.189l0.032,-0.19l0.031,-0.19l0.029,-0.19l0.029,-0.19l0.027,-0.191l0.026,-0.191l0.02,-0.161l0.004,-0.031l0.024,-0.192l0.022,-0.192l0.022,-0.193l0.02,-0.193l0.018,-0.193l0.018,-0.194l0.016,-0.194l0.016,-0.194l0.014,-0.195l0.012,-0.195l0.012,-0.195l0.01,-0.195l0.009,-0.196l0.008,-0.196l0.006,-0.197l0.005,-0.197l0.004,-0.197l0.003,-0.197l0.002,-0.197l0,-0.198l-0.001,-0.198l-0.003,-0.198l-0.003,-0.197l-0.005,-0.197l-0.006,-0.197l-0.008,-0.196l-0.008,-0.196l-0.01,-0.196l-0.011,-0.195l-0.013,-0.196l-0.013,-0.194l-0.015,-0.195l-0.016,-0.194l-0.017,-0.194l-0.019,-0.193l-0.02,-0.193l-0.021,-0.193l-0.022,-0.193l-0.023,-0.192l-0.024,-0.191l-0.026,-0.192l-0.027,-0.191l-0.028,-0.19l-0.029,-0.191l-0.031,-0.189l-0.031,-0.19l-0.033,-0.189l-0.034,-0.189l-0.035,-0.188l-0.037,-0.188l-0.037,-0.188l-0.039,-0.187l-0.039,-0.187l-0.041,-0.186l-0.042,-0.186l-0.043,-0.185l-0.044,-0.186l-0.046,-0.184l-0.046,-0.184l-0.048,-0.184l-0.049,-0.184l-0.05,-0.183l-0.051,-0.182l-0.052,-0.182l-0.053,-0.182l-0.054,-0.181l-0.055,-0.181l-0.057,-0.18l-0.057,-0.18l-0.059,-0.179l-0.06,-0.179l-0.06,-0.178l-0.062,-0.178l-0.063,-0.178l-0.064,-0.177l-0.065,-0.176l-0.066,-0.176l-0.067,-0.175l-0.068,-0.175l-0.07,-0.175l-0.07,-0.174l-0.071,-0.173l-0.072,-0.173l-0.074,-0.172l-0.074,-0.172l-0.075,-0.171l-0.077,-0.171l-0.077,-0.171l-0.078,-0.169l-0.08,-0.169l-0.08,-0.169l-0.082,-0.168l-0.082,-0.168l-0.083,-0.167l-0.085,-0.166l-0.085,-0.166l-0.075,-0.143l-0.011,-0.022l-0.087,-0.165l-0.088,-0.164l-0.089,-0.164l-0.09,-0.163l-0.091,-0.162l-0.092,-0.162l-0.093,-0.161l-0.093,-0.161l-0.095,-0.16l-0.096,-0.159l-0.096,-0.159l-0.098,-0.158l-0.098,-0.158l-0.1,-0.157l-0.1,-0.156l-0.101,-0.156l-0.102,-0.155l-0.103,-0.155l-0.104,-0.153l-0.105,-0.154l-0.105,-0.152l-0.107,-0.152l-0.107,-0.151l-0.109,-0.151l-0.109,-0.149l-0.11,-0.15l-0.111,-0.148l-0.112,-0.148l-0.112,-0.147l-0.114,-0.147l-0.114,-0.145l-0.116,-0.145l-0.116,-0.145l-0.117,-0.143l-0.117,-0.143l-0.119,-0.143l-0.119,-0.141l-0.121,-0.141l-0.121,-0.14l-0.122,-0.139l-0.122,-0.139l-0.124,-0.138l-0.124,-0.137l-0.125,-0.136l-0.126,-0.136l-0.127,-0.135l-0.128,-0.134l-0.128,-0.134l-0.129,-0.132l-0.13,-0.132l-0.13,-0.131l-0.132,-0.131l-0.132,-0.129l-0.133,-0.129l-0.134,-0.128l-0.134,-0.127l-0.135,-0.126l-0.136,-0.126l-0.137,-0.125l-0.138,-0.124l-0.138,-0.123l-0.139,-0.122l-0.139,-0.122l-0.141,-0.121l-0.141,-0.119l-0.141,-0.119l-0.143,-0.119l-0.143,-0.117l-0.144,-0.117l-0.145,-0.115l-0.145,-0.115l-0.146,-0.114l-0.147,-0.113l-0.147,-0.113l-0.148,-0.111l-0.149,-0.111l-0.149,-0.109l-0.15,-0.109l-0.139,-0.099l-0.012,-0.009l-0.151,-0.107l-0.152,-0.107l-0.152,-0.106l-0.153,-0.104l-0.154,-0.104l-0.154,-0.103l-0.155,-0.102l-0.156,-0.101l-0.156,-0.101l-0.157,-0.099l-0.158,-0.098l-0.158,-0.098l-0.159,-0.096l-0.159,-0.096l-0.16,-0.095l-0.161,-0.093l-0.161,-0.093l-0.161,-0.092l-0.163,-0.091l-0.163,-0.09l-0.163,-0.089l-0.164,-0.088l-0.165,-0.087l-0.165,-0.086l-0.166,-0.085l-0.167,-0.084l-0.167,-0.083l-0.167,-0.083l-0.168,-0.081l-0.169,-0.08l-0.169,-0.079l-0.17,-0.078l-0.17,-0.077l-0.171,-0.077l-0.171,-0.075l-0.172,-0.074l-0.172,-0.073l-0.173,-0.072l-0.174,-0.071l-0.174,-0.07l-0.174,-0.069l-0.175,-0.068l-0.175,-0.067l-0.176,-0.066l-0.177,-0.065l-0.177,-0.063l-0.177,-0.063l-0.178,-0.061l-0.178,-0.061l-0.179,-0.059l-0.179,-0.059l-0.18,-0.057l-0.18,-0.056l-0.102,-0.032l-0.079,-0.024l-0.181,-0.054l-0.181,-0.054l-0.182,-0.052l-0.182,-0.051l-0.183,-0.05l-0.183,-0.049l-0.184,-0.048l-0.184,-0.047l-0.185,-0.045l-0.185,-0.045l-0.185,-0.043l-0.186,-0.042l-0.186,-0.041l-0.187,-0.04l-0.187,-0.039l-0.187,-0.038l-0.188,-0.036l-0.188,-0.035l-0.189,-0.035l-0.189,-0.033l-0.189,-0.031l-0.19,-0.031l-0.19,-0.03l-0.191,-0.028l-0.191,-0.027l-0.191,-0.026l-0.191,-0.025l-0.192,-0.023l-0.193,-0.023l-0.192,-0.021l-0.193,-0.02l-0.194,-0.018l-0.194,-0.018l-0.194,-0.016l-0.194,-0.015l-0.195,-0.014l-0.195,-0.013l-0.195,-0.011l-0.196,-0.01l-0.196,-0.009l-0.196,-0.008l-0.197,-0.006l-0.197,-0.005l-0.197,-0.004l-0.198,-0.002l-0.197,-0.002l-0.198,0l-0.198,0.001l-0.197,0.003l-0.197,0.004l-0.197,0.005l-0.196,0.006l-0.127,0.005l-0.069,0.002l-0.196,0.009l-0.196,0.009l-0.195,0.011l-0.195,0.012l-0.194,0.013l-0.195,0.015l-0.194,0.016l-0.194,0.017l-0.193,0.018l-0.193,0.019l-0.193,0.021l-0.192,0.022l-0.192,0.023l-0.192,0.024l-0.191,0.026l-0.191,0.026l-0.191,0.028l-0.19,0.029l-0.19,0.03l-0.189,0.032l-0.19,0.032l-0.188,0.034l-0.189,0.035l-0.188,0.036l-0.188,0.037l-0.187,0.038l-0.187,0.04l-0.186,0.041l-0.186,0.041l-0.186,0.043l-0.185,0.044l-0.185,0.046l-0.185,0.046l-0.184,0.047l-0.184,0.049l-0.183,0.05l-0.183,0.051l-0.182,0.051l-0.182,0.054l-0.181,0.054l-0.181,0.055l-0.181,0.056l-0.18,0.058l-0.18,0.058l-0.179,0.06l-0.179,0.06l-0.178,0.062l-0.178,0.063l-0.177,0.064l-0.177,0.065l-0.176,0.066l-0.176,0.067l-0.175,0.068l-0.175,0.069l-0.174,0.07l-0.174,0.072l-0.174,0.072l-0.173,0.073l-0.172,0.075l-0.172,0.075l-0.171,0.076l-0.171,0.078l-0.17,0.078l-0.17,0.08l-0.169,0.08l-0.168,0.082l-0.168,0.082l-0.168,0.084l-0.167,0.084l-0.166,0.086l-0.166,0.086l-0.165,0.087l-0.165,0.089l-0.164,0.089l-0.163,0.09l-0.163,0.092l-0.162,0.092l-0.162,0.093l-0.161,0.094l-0.161,0.095l-0.16,0.096l-0.159,0.097l-0.159,0.098l-0.158,0.099l-0.157,0.1l-0.157,0.101l-0.156,0.101l-0.156,0.103l-0.155,0.104l-0.154,0.104l-0.154,0.105l-0.153,0.106l-0.152,0.107l-0.151,0.108l-0.151,0.109l-0.151,0.11l-0.149,0.111l-0.149,0.111l-0.149,0.113l-0.147,0.113l-0.147,0.114l-0.146,0.115l-0.146,0.116l-0.145,0.117l-0.119,0.097l-0.025,0.02l-0.144,0.119l-0.142,0.119l-0.143,0.12l-0.141,0.12l-0.141,0.122l-0.14,0.122l-0.139,0.124l-0.138,0.124l-0.138,0.125l-0.137,0.125l-0.136,0.127l-0.136,0.127l-0.135,0.129l-0.134,0.129l-0.133,0.129l-0.132,0.131l-0.132,0.131l-0.131,0.132l-0.13,0.133l-0.129,0.134l-0.129,0.134l-0.127,0.136l-0.127,0.136l-0.126,0.136l-0.126,0.138l-0.124,0.138l-0.124,0.139l-0.123,0.14l-0.122,0.14l-0.121,0.141l-0.12,0.142l-0.12,0.143l-0.119,0.144l-0.117,0.144l-0.117,0.144l-0.117,0.146l-0.115,0.146l-0.114,0.147l-0.114,0.148l-0.113,0.148l-0.111,0.149l-0.111,0.15l-0.11,0.15l-0.11,0.152l-0.108,0.151l-0.107,0.153l-0.107,0.153l-0.105,0.154l-0.105,0.154l-0.104,0.155l-0.103,0.156l-0.102,0.156l-0.101,0.157l-0.1,0.158l-0.099,0.158l-0.098,0.159l-0.098,0.16l-0.096,0.16l-0.095,0.161l-0.095,0.161l-0.093,0.162l-0.093,0.163l-0.092,0.163l-0.09,0.164l-0.09,0.164l-0.089,0.165l-0.087,0.166l-0.087,0.166l-0.086,0.167l-0.085,0.167l-0.083,0.168l-0.083,0.168l-0.082,0.169l-0.081,0.17l-0.08,0.17l-0.078,0.171l-0.078,0.171l-0.077,0.172l-0.075,0.172l-0.075,0.173l-0.074,0.173l-0.072,0.174l-0.072,0.174l-0.07,0.175l-0.07,0.176l-0.068,0.176l-0.068,0.176l-0.066,0.177l-0.065,0.177l-0.009,0.025l-0.056,0.153l-0.063,0.179l-0.062,0.179l-0.061,0.179l-0.06,0.18l-0.059,0.18l-0.057,0.181l-0.057,0.181l-0.056,0.182l-0.054,0.182l-0.053,0.183l-0.053,0.183l-0.051,0.183l-0.05,0.184l-0.049,0.185l-0.048,0.185l-0.046,0.185l-0.046,0.186l-0.044,0.186l-0.043,0.186l-0.042,0.187l-0.041,0.188l-0.04,0.188l-0.039,0.188l-0.037,0.188l-0.037,0.189l-0.035,0.19l-0.034,0.19l-0.032,0.19l-0.032,0.19l-0.031,0.191l-0.029,0.192l-0.028,0.191l-0.027,0.192l-0.025,0.193l-0.025,0.193l-0.023,0.193l-0.022,0.193l-0.021,0.194l-0.02,0.194l-0.018,0.195l-0.017,0.195l-0.016,0.195l-0.015,0.195l-0.014,0.196l-0.012,0.196l-0.011,0.197l-0.01,0.197l-0.008,0.197l-0.007,0.197l-0.006,0.198l-0.003,0.097l-0.002,0.101l-0.003,0.198l-0.003,0.199l-0.001,0.199l0.001,0.199l0.002,0.198Z" style="fill:#573351;"/><path d="M588.04,546.343l5.68,0c11.624,5.33 25.015,5.33 36.64,0l5.68,0c13.166,0 24,10.834 24,24l0,68c0,6.583 -5.417,12 -12,12l-8,0l0,68c0,6.583 -5.417,12 -12,12l-32,0c-6.583,0 -12,-5.417 -12,-12l0,-68l-8,0c-6.583,0 -12,-5.417 -12,-12l0,-68c0,-13.166 10.834,-24 24,-24Z" style="fill:#fff;fill-rule:nonzero;"/><path d="M587.892,547.381l-0.147,0.002l-0.147,0.002l-0.147,0.003l-0.147,0.005l-0.146,0.005l-0.146,0.006l-0.146,0.007l-0.146,0.009l-0.145,0.008l-0.026,0.002l-0.12,0.008l-0.145,0.011l-0.144,0.012l-0.145,0.013l-0.144,0.013l-0.144,0.015l-0.144,0.015l-0.143,0.016l-0.144,0.017l-0.143,0.018l-0.142,0.019l-0.143,0.02l-0.142,0.021l-0.142,0.021l-0.141,0.023l-0.142,0.023l-0.141,0.025l-0.141,0.025l-0.14,0.026l-0.14,0.026l-0.14,0.028l-0.14,0.029l-0.139,0.029l-0.139,0.03l-0.139,0.031l-0.138,0.032l-0.138,0.033l-0.138,0.034l-0.137,0.034l-0.138,0.035l-0.136,0.036l-0.137,0.037l-0.136,0.038l-0.136,0.039l-0.135,0.039l-0.136,0.04l-0.134,0.042l-0.135,0.041l-0.134,0.043l-0.134,0.044l-0.133,0.044l-0.133,0.045l-0.133,0.046l-0.133,0.047l-0.132,0.047l-0.131,0.048l-0.132,0.049l-0.131,0.05l-0.13,0.051l-0.13,0.051l-0.13,0.052l-0.13,0.053l-0.129,0.054l-0.128,0.054l-0.129,0.056l-0.127,0.056l-0.128,0.056l-0.127,0.058l-0.127,0.058l-0.126,0.059l-0.126,0.06l-0.125,0.06l-0.125,0.062l-0.125,0.062l-0.124,0.062l-0.124,0.064l-0.124,0.064l-0.122,0.065l-0.123,0.066l-0.122,0.066l-0.122,0.067l-0.121,0.068l-0.121,0.068l-0.12,0.069l-0.12,0.07l-0.119,0.071l-0.119,0.071l-0.119,0.072l-0.118,0.073l-0.118,0.073l-0.117,0.074l-0.116,0.075l-0.117,0.076l-0.115,0.076l-0.116,0.076l-0.114,0.078l-0.115,0.078l-0.114,0.079l-0.113,0.079l-0.113,0.08l-0.112,0.081l-0.112,0.082l-0.111,0.082l-0.111,0.083l-0.11,0.083l-0.11,0.084l-0.109,0.085l-0.109,0.085l-0.108,0.086l-0.108,0.087l-0.107,0.087l-0.107,0.088l-0.106,0.088l-0.106,0.089l-0.105,0.09l-0.105,0.09l-0.104,0.091l-0.103,0.092l-0.103,0.092l-0.102,0.093l-0.102,0.093l-0.101,0.094l-0.101,0.095l-0.1,0.095l-0.1,0.095l-0.099,0.097l-0.098,0.097l-0.098,0.097l-0.097,0.098l-0.097,0.099l-0.096,0.099l-0.095,0.1l-0.095,0.1l-0.095,0.101l-0.093,0.101l-0.094,0.102l-0.092,0.103l-0.092,0.103l-0.091,0.104l-0.091,0.104l-0.09,0.105l-0.09,0.105l-0.088,0.106l-0.089,0.106l-0.087,0.107l-0.087,0.107l-0.087,0.108l-0.085,0.108l-0.085,0.109l-0.085,0.11l-0.084,0.11l-0.083,0.11l-0.082,0.111l-0.082,0.112l-0.081,0.112l-0.081,0.112l-0.08,0.113l-0.079,0.114l-0.078,0.114l-0.078,0.114l-0.077,0.115l-0.077,0.115l-0.076,0.116l-0.075,0.116l-0.074,0.117l-0.074,0.117l-0.073,0.118l-0.073,0.118l-0.071,0.119l-0.071,0.119l-0.071,0.12l-0.069,0.12l-0.069,0.12l-0.068,0.121l-0.068,0.121l-0.066,0.122l-0.066,0.122l-0.066,0.123l-0.064,0.123l-0.064,0.123l-0.063,0.124l-0.063,0.124l-0.061,0.125l-0.061,0.125l-0.06,0.126l-0.06,0.126l-0.058,0.126l-0.058,0.127l-0.058,0.127l-0.056,0.127l-0.056,0.128l-0.055,0.128l-0.054,0.129l-0.053,0.129l-0.053,0.13l-0.051,0.129l-0.051,0.131l-0.051,0.13l-0.049,0.131l-0.049,0.131l-0.048,0.132l-0.047,0.132l-0.046,0.132l-0.046,0.133l-0.044,0.133l-0.044,0.134l-0.043,0.133l-0.043,0.135l-0.041,0.134l-0.041,0.135l-0.04,0.135l-0.039,0.135l-0.038,0.136l-0.038,0.136l-0.036,0.137l-0.036,0.136l-0.031,0.124l-0.004,0.013l-0.034,0.138l-0.033,0.138l-0.032,0.137l-0.032,0.139l-0.031,0.138l-0.03,0.139l-0.029,0.139l-0.028,0.14l-0.027,0.14l-0.027,0.14l-0.025,0.14l-0.025,0.141l-0.024,0.141l-0.023,0.141l-0.022,0.141l-0.021,0.142l-0.02,0.142l-0.02,0.142l-0.018,0.143l-0.018,0.143l-0.017,0.143l-0.016,0.143l-0.015,0.144l-0.014,0.143l-0.013,0.144l-0.012,0.145l-0.011,0.144l-0.011,0.145l-0.009,0.145l-0.009,0.145l-0.008,0.146l-0.006,0.145l-0.006,0.146l-0.005,0.147l-0.004,0.146l-0.003,0.147l-0.002,0.146l-0.001,0.147l0,0.149l0.253,67.994l0.002,0.142l0.004,0.136l0.005,0.136l0.007,0.136l0.008,0.135l0.011,0.134l0.012,0.134l0.014,0.134l0.015,0.133l0.017,0.133l0.019,0.132l0.02,0.132l0.022,0.131l0.024,0.13l0.025,0.13l0.027,0.129l0.011,0.054l0.017,0.075l0.03,0.129l0.031,0.127l0.033,0.127l0.034,0.127l0.036,0.126l0.038,0.125l0.039,0.124l0.04,0.124l0.042,0.124l0.044,0.122l0.045,0.122l0.046,0.122l0.048,0.12l0.049,0.12l0.051,0.119l0.052,0.119l0.054,0.117l0.055,0.117l0.056,0.117l0.058,0.115l0.059,0.115l0.06,0.114l0.062,0.113l0.063,0.112l0.064,0.111l0.066,0.111l0.067,0.11l0.068,0.109l0.07,0.108l0.07,0.107l0.072,0.106l0.074,0.106l0.074,0.104l0.076,0.104l0.077,0.102l0.078,0.102l0.079,0.101l0.081,0.099l0.081,0.099l0.083,0.098l0.084,0.097l0.085,0.095l0.086,0.095l0.087,0.094l0.089,0.093l0.089,0.091l0.091,0.091l0.091,0.089l0.093,0.088l0.093,0.088l0.095,0.086l0.096,0.085l0.096,0.084l0.098,0.082l0.099,0.082l0.099,0.08l0.101,0.079l0.101,0.078l0.103,0.077l0.103,0.076l0.104,0.074l0.106,0.073l0.106,0.072l0.106,0.071l0.108,0.069l0.109,0.068l0.109,0.067l0.11,0.065l0.111,0.065l0.112,0.062l0.113,0.062l0.113,0.06l0.114,0.059l0.115,0.057l0.116,0.056l0.116,0.055l0.118,0.053l0.117,0.052l0.119,0.051l0.119,0.049l0.12,0.048l0.121,0.046l0.121,0.045l0.122,0.043l0.122,0.042l0.123,0.04l0.124,0.039l0.124,0.037l0.125,0.036l0.126,0.034l0.126,0.033l0.126,0.031l0.128,0.03l0.127,0.028l0.129,0.027l0.128,0.025l0.13,0.023l0.13,0.022l0.13,0.02l0.131,0.018l0.131,0.017l0.132,0.016l0.132,0.013l0.133,0.012l0.133,0.01l0.133,0.009l0.134,0.007l0.135,0.005l0.135,0.004l0.135,0.001l0.14,0l7.996,-0.036l0.256,0.018l0.249,0.062l0.234,0.109l0.002,-0.004l0.215,0.145l0.187,0.18l0.154,0.211l0.114,0.235l0.073,0.252l0.028,0.262l0.104,17.621l0.301,50.373l0.002,0.135l0.002,0.106l0.001,0.023l0.005,0.129l0.007,0.128l0.008,0.127l0.01,0.127l0.011,0.127l0.013,0.126l0.015,0.126l0.016,0.125l0.018,0.125l0.019,0.124l0.021,0.124l0.022,0.123l0.024,0.123l0.025,0.122l0.027,0.122l0.028,0.121l0.03,0.12l0.031,0.12l0.033,0.12l0.034,0.119l0.035,0.118l0.037,0.118l0.039,0.117l0.039,0.116l0.042,0.116l0.042,0.115l0.044,0.115l0.045,0.113l0.047,0.114l0.048,0.112l0.049,0.112l0.051,0.111l0.052,0.111l0.053,0.109l0.055,0.11l0.056,0.108l0.057,0.107l0.058,0.107l0.06,0.106l0.061,0.106l0.062,0.104l0.064,0.104l0.064,0.103l0.066,0.102l0.067,0.101l0.068,0.101l0.07,0.099l0.07,0.099l0.072,0.098l0.073,0.097l0.074,0.096l0.075,0.095l0.076,0.094l0.077,0.094l0.078,0.092l0.08,0.092l0.08,0.09l0.082,0.09l0.083,0.088l0.083,0.088l0.085,0.086l0.086,0.086l0.086,0.084l0.088,0.084l0.089,0.082l0.089,0.082l0.091,0.08l0.091,0.079l0.093,0.078l0.093,0.077l0.094,0.076l0.095,0.075l0.096,0.074l0.097,0.072l0.098,0.072l0.099,0.07l0.099,0.069l0.1,0.068l0.101,0.066l0.102,0.066l0.103,0.064l0.103,0.063l0.105,0.062l0.105,0.061l0.105,0.059l0.107,0.058l0.107,0.057l0.108,0.055l0.108,0.054l0.11,0.053l0.11,0.052l0.11,0.05l0.112,0.049l0.111,0.048l0.113,0.046l0.113,0.045l0.114,0.043l0.115,0.042l0.115,0.041l0.115,0.04l0.116,0.038l0.117,0.036l0.118,0.035l0.117,0.034l0.119,0.032l0.119,0.031l0.119,0.03l0.12,0.027l0.121,0.027l0.121,0.025l0.121,0.023l0.122,0.022l0.123,0.021l0.123,0.019l0.123,0.017l0.124,0.016l0.125,0.014l0.124,0.013l0.126,0.011l0.125,0.01l0.126,0.008l0.127,0.006l0.127,0.005l0.127,0.003l0.128,0.002l0.134,0l24.976,-0.149l7.011,-0.027l0.132,-0.001l0.126,-0.003l0.125,-0.005l0.124,-0.006l0.124,-0.008l0.124,-0.009l0.123,-0.011l0.123,-0.013l0.122,-0.014l0.122,-0.015l0.121,-0.017l0.121,-0.019l0.12,-0.019l0.12,-0.022l0.119,-0.023l0.119,-0.024l0.118,-0.026l0.118,-0.027l0.117,-0.029l0.117,-0.03l0.116,-0.032l0.116,-0.033l0.115,-0.034l0.114,-0.036l0.114,-0.037l0.113,-0.038l0.113,-0.04l0.112,-0.041l0.111,-0.043l0.111,-0.044l0.11,-0.045l0.11,-0.047l0.109,-0.047l0.108,-0.049l0.108,-0.051l0.106,-0.051l0.107,-0.053l0.105,-0.055l0.105,-0.055l0.104,-0.057l0.103,-0.058l0.103,-0.059l0.102,-0.06l0.101,-0.061l0.1,-0.063l0.099,-0.064l0.099,-0.065l0.098,-0.066l0.097,-0.068l0.096,-0.068l0.096,-0.07l0.094,-0.071l0.094,-0.071l0.093,-0.073l0.092,-0.074l0.091,-0.075l0.09,-0.077l0.089,-0.077l0.088,-0.078l0.088,-0.079l0.086,-0.081l0.086,-0.081l0.084,-0.082l0.083,-0.084l0.083,-0.084l0.081,-0.085l0.081,-0.086l0.079,-0.087l0.079,-0.088l0.077,-0.089l0.076,-0.09l0.076,-0.091l0.074,-0.092l0.073,-0.092l0.072,-0.094l0.07,-0.094l0.07,-0.095l0.069,-0.096l0.067,-0.097l0.067,-0.097l0.065,-0.099l0.064,-0.099l0.062,-0.1l0.062,-0.1l0.06,-0.102l0.024,-0.04l0.036,-0.062l0.058,-0.102l0.057,-0.104l0.056,-0.104l0.054,-0.105l0.054,-0.105l0.052,-0.107l0.05,-0.106l0.05,-0.108l0.048,-0.108l0.047,-0.109l0.046,-0.11l0.044,-0.11l0.043,-0.11l0.042,-0.112l0.04,-0.112l0.039,-0.112l0.037,-0.113l0.037,-0.114l0.034,-0.114l0.034,-0.115l0.032,-0.115l0.03,-0.116l0.03,-0.116l0.027,-0.117l0.027,-0.117l0.025,-0.118l0.023,-0.119l0.022,-0.119l0.021,-0.119l0.019,-0.12l0.017,-0.12l0.016,-0.121l0.015,-0.121l0.013,-0.122l0.012,-0.122l0.01,-0.122l0.008,-0.123l0.007,-0.124l0.005,-0.123l0.004,-0.125l0.002,-0.124l0.001,-0.133l-0.018,-12.092l0.076,-36.238l0.104,-19.662l0.036,-0.364l0.098,-0.35l0.158,-0.328l0.212,-0.294l0.259,-0.253l0.298,-0.204l0.328,-0.148l0,0l0.349,-0.089l0.358,-0.027l7.993,0.035l0.135,0l0.127,-0.001l0.128,-0.004l0.127,-0.005l0.126,-0.006l0.126,-0.008l0.126,-0.01l0.125,-0.011l0.125,-0.013l0.124,-0.014l0.124,-0.016l0.123,-0.018l0.123,-0.019l0.123,-0.02l0.122,-0.022l0.121,-0.024l0.121,-0.025l0.098,-0.021l0.023,-0.005l0.12,-0.028l0.12,-0.029l0.119,-0.03l0.118,-0.032l0.118,-0.034l0.118,-0.035l0.117,-0.036l0.116,-0.037l0.116,-0.04l0.115,-0.04l0.115,-0.042l0.114,-0.043l0.113,-0.045l0.113,-0.046l0.112,-0.047l0.111,-0.049l0.111,-0.05l0.11,-0.051l0.11,-0.053l0.109,-0.054l0.108,-0.055l0.107,-0.056l0.107,-0.058l0.106,-0.059l0.105,-0.061l0.105,-0.061l0.103,-0.063l0.103,-0.064l0.102,-0.065l0.102,-0.067l0.1,-0.068l0.1,-0.068l0.099,-0.07l0.098,-0.072l0.097,-0.072l0.096,-0.074l0.096,-0.074l0.094,-0.076l0.094,-0.077l0.093,-0.078l0.092,-0.079l0.091,-0.08l0.089,-0.081l0.089,-0.083l0.088,-0.083l0.087,-0.085l0.086,-0.085l0.085,-0.086l0.084,-0.088l0.083,-0.088l0.082,-0.09l0.081,-0.09l0.08,-0.092l0.079,-0.092l0.077,-0.093l0.077,-0.095l0.075,-0.095l0.075,-0.096l0.073,-0.097l0.072,-0.098l0.071,-0.099l0.07,-0.099l0.068,-0.101l0.068,-0.101l0.066,-0.102l0.065,-0.103l0.064,-0.104l0.062,-0.104l0.062,-0.106l0.06,-0.106l0.058,-0.107l0.058,-0.108l0.056,-0.108l0.055,-0.109l0.054,-0.11l0.052,-0.111l0.051,-0.111l0.05,-0.112l0.048,-0.113l0.048,-0.113l0.045,-0.114l0.045,-0.115l0.043,-0.115l0.041,-0.116l0.04,-0.117l0.039,-0.117l0.037,-0.118l0.036,-0.119l0.035,-0.119l0.033,-0.119l0.031,-0.121l0.031,-0.12l0.028,-0.122l0.027,-0.122l0.026,-0.122l0.024,-0.123l0.023,-0.124l0.021,-0.124l0.02,-0.125l0.018,-0.125l0.016,-0.125l0.015,-0.126l0.013,-0.127l0.012,-0.127l0.01,-0.128l0.009,-0.128l0.007,-0.128l0.005,-0.129l0.004,-0.129l0.002,-0.136l0.129,-18.121l0.256,-33.264l0.128,-16.607l0.001,-0.148l-0.001,-0.145l-0.001,-0.145l-0.002,-0.145l-0.003,-0.144l-0.004,-0.145l-0.005,-0.144l-0.006,-0.144l-0.007,-0.143l-0.008,-0.144l-0.008,-0.143l-0.01,-0.143l-0.01,-0.143l-0.011,-0.143l-0.013,-0.142l-0.013,-0.142l-0.014,-0.142l-0.015,-0.142l-0.015,-0.141l-0.017,-0.141l-0.018,-0.141l-0.018,-0.141l-0.019,-0.14l-0.021,-0.14l-0.021,-0.14l-0.022,-0.14l-0.022,-0.139l-0.024,-0.139l-0.024,-0.139l-0.026,-0.139l-0.026,-0.138l-0.027,-0.138l-0.028,-0.138l-0.029,-0.137l-0.029,-0.137l-0.031,-0.137l-0.031,-0.137l-0.032,-0.136l-0.033,-0.136l-0.034,-0.136l-0.035,-0.135l-0.035,-0.135l-0.036,-0.135l-0.037,-0.134l-0.038,-0.134l-0.039,-0.134l-0.04,-0.134l-0.04,-0.133l-0.041,-0.133l-0.042,-0.132l-0.043,-0.132l-0.043,-0.132l-0.045,-0.132l-0.045,-0.131l-0.046,-0.131l-0.046,-0.13l-0.048,-0.13l-0.048,-0.13l-0.049,-0.129l-0.05,-0.13l-0.05,-0.128l-0.052,-0.129l-0.052,-0.128l-0.053,-0.127l-0.053,-0.127l-0.055,-0.127l-0.055,-0.127l-0.056,-0.126l-0.057,-0.126l-0.057,-0.125l-0.058,-0.125l-0.059,-0.124l-0.06,-0.124l-0.06,-0.124l-0.061,-0.124l-0.062,-0.122l-0.063,-0.123l-0.063,-0.122l-0.064,-0.122l-0.065,-0.121l-0.065,-0.121l-0.066,-0.12l-0.067,-0.12l-0.068,-0.12l-0.068,-0.119l-0.069,-0.119l-0.07,-0.118l-0.07,-0.118l-0.071,-0.117l-0.072,-0.117l-0.073,-0.117l-0.073,-0.116l-0.074,-0.116l-0.074,-0.115l-0.075,-0.114l-0.076,-0.115l-0.077,-0.113l-0.077,-0.114l-0.078,-0.112l-0.078,-0.113l-0.08,-0.112l-0.079,-0.111l-0.081,-0.111l-0.081,-0.11l-0.082,-0.11l-0.082,-0.109l-0.084,-0.109l-0.083,-0.109l-0.085,-0.108l-0.085,-0.107l-0.085,-0.107l-0.087,-0.106l-0.087,-0.106l-0.087,-0.105l-0.088,-0.105l-0.089,-0.104l-0.089,-0.104l-0.09,-0.103l-0.091,-0.103l-0.091,-0.102l-0.092,-0.102l-0.093,-0.101l-0.093,-0.1l-0.093,-0.1l-0.094,-0.099l-0.095,-0.099l-0.096,-0.098l-0.096,-0.098l-0.096,-0.097l-0.097,-0.097l-0.098,-0.096l-0.098,-0.095l-0.099,-0.095l-0.099,-0.094l-0.1,-0.094l-0.101,-0.093l-0.101,-0.093l-0.102,-0.092l-0.102,-0.091l-0.102,-0.091l-0.104,-0.09l-0.104,-0.089l-0.104,-0.089l-0.105,-0.088l-0.105,-0.088l-0.106,-0.087l-0.107,-0.086l-0.107,-0.086l-0.107,-0.085l-0.108,-0.085l-0.109,-0.084l-0.109,-0.083l-0.109,-0.083l-0.11,-0.082l-0.111,-0.081l-0.111,-0.081l-0.112,-0.08l-0.112,-0.079l-0.112,-0.079l-0.113,-0.078l-0.114,-0.078l-0.114,-0.076l-0.115,-0.076l-0.115,-0.076l-0.115,-0.075l-0.116,-0.074l-0.116,-0.073l-0.117,-0.073l-0.118,-0.072l-0.117,-0.071l-0.119,-0.071l-0.118,-0.07l-0.119,-0.069l-0.12,-0.069l-0.12,-0.067l-0.121,-0.068l-0.12,-0.066l-0.122,-0.066l-0.122,-0.065l-0.122,-0.064l-0.122,-0.064l-0.124,-0.062l-0.123,-0.062l-0.124,-0.062l-0.124,-0.061l-0.125,-0.059l-0.125,-0.06l-0.126,-0.058l-0.126,-0.058l-0.126,-0.057l-0.127,-0.056l-0.127,-0.055l-0.128,-0.055l-0.128,-0.054l-0.128,-0.053l-0.129,-0.052l-0.129,-0.052l-0.129,-0.051l-0.13,-0.05l-0.13,-0.049l-0.131,-0.049l-0.131,-0.048l-0.131,-0.046l-0.132,-0.047l-0.132,-0.045l-0.132,-0.045l-0.133,-0.043l-0.133,-0.043l-0.134,-0.043l-0.133,-0.041l-0.135,-0.04l-0.134,-0.04l-0.135,-0.039l-0.135,-0.038l-0.136,-0.038l-0.135,-0.036l-0.136,-0.036l-0.137,-0.035l-0.137,-0.034l-0.137,-0.033l-0.137,-0.032l-0.138,-0.032l-0.138,-0.03l-0.138,-0.03l-0.139,-0.029l-0.139,-0.028l-0.139,-0.027l-0.14,-0.027l-0.14,-0.025l-0.14,-0.025l-0.14,-0.023l-0.141,-0.023l-0.141,-0.022l-0.141,-0.022l-0.142,-0.02l-0.141,-0.019l-0.143,-0.019l-0.142,-0.017l-0.143,-0.017l-0.142,-0.016l-0.144,-0.015l-0.143,-0.014l-0.144,-0.013l-0.144,-0.012l-0.144,-0.012l-0.144,-0.01l-0.145,-0.01l-0.145,-0.008l-0.145,-0.008l-0.145,-0.007l-0.146,-0.005l-0.146,-0.005l-0.146,-0.004l-0.146,-0.003l-0.147,-0.002l-0.148,-0.001l-5.336,-0.019l0,-0.003l-0.101,0l-0.05,0.022l0,-0.001l-0.281,0.124l-0.282,0.122l-0.282,0.12l-0.283,0.118l-0.283,0.116l-0.284,0.114l-0.285,0.112l-0.285,0.11l-0.285,0.108l-0.287,0.106l-0.286,0.104l-0.288,0.102l-0.287,0.1l-0.289,0.098l-0.288,0.096l-0.29,0.094l-0.289,0.092l-0.29,0.09l-0.291,0.088l-0.291,0.086l-0.292,0.084l-0.291,0.082l-0.293,0.08l-0.292,0.078l-0.294,0.076l-0.293,0.074l-0.294,0.072l-0.294,0.07l-0.295,0.068l-0.294,0.066l-0.296,0.064l-0.295,0.062l-0.296,0.061l-0.296,0.058l-0.296,0.056l-0.297,0.054l-0.297,0.052l-0.297,0.05l-0.298,0.048l-0.297,0.046l-0.298,0.045l-0.298,0.042l-0.299,0.04l-0.298,0.038l-0.299,0.036l-0.299,0.035l-0.299,0.032l-0.299,0.03l-0.299,0.028l-0.3,0.026l-0.299,0.025l-0.3,0.022l-0.3,0.02l-0.3,0.019l-0.3,0.016l-0.3,0.014l-0.3,0.012l-0.3,0.011l-0.3,0.008l-0.301,0.006l-0.3,0.005l-0.3,0.002l-0.3,0.001l-0.301,-0.002l-0.3,-0.004l-0.3,-0.005l-0.3,-0.008l-0.3,-0.009l-0.3,-0.012l-0.3,-0.014l-0.3,-0.015l-0.3,-0.018l-0.3,-0.019l-0.3,-0.022l-0.299,-0.023l-0.299,-0.026l-0.3,-0.027l-0.299,-0.03l-0.299,-0.031l-0.298,-0.034l-0.299,-0.035l-0.298,-0.038l-0.299,-0.039l-0.298,-0.042l-0.297,-0.043l-0.298,-0.046l-0.297,-0.047l-0.297,-0.049l-0.297,-0.052l-0.296,-0.053l-0.297,-0.056l-0.295,-0.057l-0.296,-0.059l-0.295,-0.062l-0.295,-0.063l-0.295,-0.065l-0.294,-0.068l-0.294,-0.069l-0.294,-0.071l-0.293,-0.074l-0.293,-0.075l-0.292,-0.077l-0.292,-0.08l-0.292,-0.081l-0.291,-0.083l-0.291,-0.086l-0.29,-0.087l-0.29,-0.089l-0.289,-0.091l-0.289,-0.094l-0.288,-0.095l-0.288,-0.097l-0.287,-0.099l-0.287,-0.102l-0.287,-0.103l-0.285,-0.105l-0.286,-0.107l-0.284,-0.11l-0.284,-0.111l-0.284,-0.113l-0.283,-0.115l-0.282,-0.117l-0.282,-0.119l-0.281,-0.122l-0.28,-0.123l-0.28,-0.125l-0.071,-0.032l-4.141,-0.001l0,-0.003l-1.311,-0.002l-0.149,0.001Zm5.828,-2.08l0.147,0.01l0.145,0.031l0.139,0.051l0.27,0.122l0.267,0.119l0.268,0.117l0.268,0.115l0.269,0.113l0.269,0.111l0.27,0.11l0.271,0.107l0.271,0.105l0.271,0.104l0.272,0.102l0.273,0.099l0.273,0.098l0.274,0.096l0.274,0.094l0.275,0.092l0.275,0.09l0.275,0.089l0.277,0.086l0.276,0.084l0.277,0.083l0.277,0.081l0.278,0.078l0.278,0.077l0.279,0.075l0.279,0.073l0.279,0.071l0.28,0.069l0.28,0.067l0.28,0.066l0.281,0.063l0.281,0.062l0.281,0.059l0.281,0.058l0.282,0.056l0.283,0.054l0.282,0.052l0.283,0.05l0.283,0.048l0.283,0.046l0.283,0.044l0.284,0.043l0.284,0.04l0.284,0.039l0.284,0.037l0.285,0.034l0.284,0.033l0.285,0.031l0.285,0.029l0.285,0.027l0.285,0.025l0.286,0.024l0.285,0.021l0.286,0.02l0.285,0.017l0.286,0.016l0.286,0.013l0.286,0.012l0.286,0.01l0.286,0.008l0.286,0.006l0.286,0.004l0.286,0.003l0.286,0l0.286,-0.002l0.286,-0.003l0.286,-0.006l0.286,-0.007l0.285,-0.009l0.286,-0.011l0.286,-0.013l0.286,-0.015l0.285,-0.017l0.286,-0.019l0.285,-0.021l0.285,-0.022l0.286,-0.025l0.285,-0.026l0.284,-0.029l0.285,-0.03l0.285,-0.032l0.284,-0.034l0.284,-0.036l0.284,-0.038l0.284,-0.04l0.283,-0.042l0.284,-0.044l0.283,-0.045l0.282,-0.048l0.283,-0.049l0.282,-0.051l0.282,-0.054l0.282,-0.055l0.281,-0.057l0.281,-0.059l0.281,-0.061l0.28,-0.062l0.281,-0.065l0.279,-0.067l0.28,-0.068l0.279,-0.071l0.278,-0.072l0.278,-0.074l0.278,-0.076l0.278,-0.079l0.277,-0.08l0.276,-0.081l0.276,-0.084l0.276,-0.086l0.275,-0.088l0.275,-0.089l0.274,-0.092l0.274,-0.093l0.273,-0.095l0.273,-0.097l0.272,-0.099l0.272,-0.101l0.271,-0.103l0.271,-0.105l0.27,-0.107l0.269,-0.108l0.269,-0.111l0.269,-0.112l0.267,-0.115l0.267,-0.116l0.267,-0.118l0.266,-0.12l0.269,-0.123l0.15,-0.058l0.012,-0.003l0.145,-0.032l0.161,-0.013l5.682,-0.019l0.159,0l0.162,0.001l0.161,0.002l0.161,0.002l0.161,0.004l0.16,0.005l0.16,0.006l0.16,0.008l0.16,0.008l0.16,0.009l0.159,0.01l0.159,0.011l0.159,0.012l0.159,0.013l0.158,0.014l0.158,0.015l0.158,0.016l0.158,0.017l0.157,0.018l0.157,0.019l0.157,0.02l0.156,0.021l0.156,0.022l0.156,0.023l0.156,0.024l0.155,0.025l0.155,0.026l0.155,0.026l0.154,0.028l0.154,0.029l0.154,0.029l0.153,0.031l0.153,0.031l0.153,0.033l0.153,0.033l0.152,0.034l0.152,0.035l0.151,0.037l0.151,0.037l0.151,0.038l0.151,0.038l0.15,0.04l0.15,0.041l0.149,0.042l0.149,0.042l0.149,0.043l0.148,0.045l0.148,0.045l0.148,0.046l0.147,0.047l0.147,0.048l0.146,0.049l0.146,0.049l0.146,0.051l0.145,0.051l0.145,0.052l0.145,0.053l0.144,0.054l0.144,0.055l0.143,0.056l0.143,0.056l0.142,0.057l0.143,0.059l0.141,0.059l0.141,0.06l0.141,0.06l0.141,0.062l0.139,0.062l0.14,0.063l0.139,0.064l0.139,0.065l0.138,0.066l0.138,0.066l0.137,0.068l0.137,0.068l0.136,0.069l0.136,0.069l0.135,0.071l0.135,0.071l0.135,0.072l0.134,0.073l0.133,0.074l0.133,0.074l0.133,0.075l0.132,0.076l0.132,0.077l0.131,0.077l0.13,0.079l0.13,0.079l0.13,0.079l0.129,0.081l0.129,0.081l0.128,0.082l0.127,0.083l0.127,0.084l0.127,0.084l0.126,0.085l0.125,0.086l0.125,0.086l0.125,0.088l0.124,0.088l0.123,0.088l0.123,0.09l0.122,0.09l0.122,0.09l0.121,0.092l0.12,0.092l0.12,0.093l0.12,0.094l0.119,0.094l0.118,0.095l0.118,0.096l0.117,0.096l0.117,0.097l0.116,0.098l0.115,0.099l0.115,0.099l0.114,0.1l0.114,0.1l0.113,0.101l0.112,0.102l0.112,0.102l0.111,0.104l0.111,0.103l0.11,0.105l0.109,0.105l0.109,0.106l0.108,0.106l0.108,0.107l0.107,0.108l0.106,0.108l0.106,0.109l0.105,0.109l0.104,0.111l0.104,0.11l0.103,0.112l0.102,0.112l0.102,0.112l0.101,0.114l0.101,0.113l0.099,0.115l0.1,0.115l0.098,0.116l0.098,0.116l0.097,0.117l0.096,0.117l0.096,0.118l0.095,0.119l0.094,0.119l0.094,0.119l0.093,0.121l0.092,0.121l0.092,0.121l0.091,0.122l0.09,0.123l0.089,0.123l0.089,0.123l0.088,0.125l0.087,0.124l0.087,0.126l0.086,0.126l0.085,0.126l0.084,0.127l0.084,0.127l0.083,0.128l0.082,0.129l0.081,0.129l0.081,0.13l0.08,0.13l0.079,0.13l0.078,0.131l0.078,0.132l0.077,0.132l0.076,0.133l0.075,0.133l0.075,0.134l0.074,0.134l0.073,0.134l0.072,0.135l0.071,0.136l0.071,0.136l0.07,0.137l0.069,0.137l0.068,0.137l0.067,0.138l0.067,0.138l0.066,0.139l0.064,0.14l0.065,0.14l0.063,0.14l0.062,0.141l0.062,0.141l0.061,0.141l0.06,0.142l0.059,0.143l0.058,0.143l0.058,0.143l0.056,0.144l0.056,0.144l0.055,0.145l0.054,0.145l0.053,0.145l0.053,0.146l0.051,0.146l0.051,0.147l0.049,0.147l0.049,0.147l0.048,0.148l0.047,0.149l0.046,0.148l0.045,0.149l0.045,0.15l0.043,0.15l0.043,0.15l0.041,0.15l0.041,0.151l0.04,0.152l0.039,0.151l0.038,0.152l0.037,0.153l0.036,0.152l0.035,0.153l0.035,0.154l0.033,0.154l0.032,0.154l0.032,0.154l0.03,0.155l0.03,0.155l0.028,0.156l0.028,0.155l0.027,0.156l0.026,0.157l0.024,0.157l0.024,0.157l0.023,0.157l0.022,0.158l0.021,0.157l0.019,0.159l0.019,0.158l0.018,0.159l0.017,0.159l0.016,0.16l0.015,0.159l0.014,0.16l0.013,0.16l0.012,0.161l0.011,0.161l0.009,0.161l0.009,0.161l0.008,0.161l0.007,0.162l0.006,0.162l0.004,0.162l0.004,0.163l0.003,0.163l0.001,0.16l0.128,16.61l0.257,33.273l0.129,18.126l0,0.172l-0.003,0.178l-0.004,0.177l-0.007,0.177l-0.009,0.177l-0.011,0.176l-0.014,0.175l-0.016,0.175l-0.018,0.174l-0.02,0.174l-0.022,0.173l-0.024,0.173l-0.027,0.172l-0.029,0.171l-0.03,0.171l-0.033,0.169l-0.035,0.17l-0.037,0.168l-0.039,0.168l-0.042,0.167l-0.043,0.166l-0.045,0.166l-0.047,0.165l-0.049,0.164l-0.051,0.163l-0.054,0.162l-0.055,0.161l-0.057,0.161l-0.058,0.159l-0.061,0.159l-0.063,0.158l-0.064,0.157l-0.067,0.156l-0.068,0.155l-0.07,0.154l-0.072,0.153l-0.073,0.152l-0.076,0.151l-0.077,0.15l-0.079,0.149l-0.081,0.148l-0.082,0.147l-0.084,0.145l-0.086,0.145l-0.087,0.143l-0.089,0.143l-0.091,0.141l-0.093,0.14l-0.094,0.139l-0.095,0.138l-0.098,0.136l-0.099,0.136l-0.1,0.134l-0.102,0.133l-0.104,0.131l-0.105,0.131l-0.106,0.129l-0.108,0.128l-0.11,0.126l-0.111,0.126l-0.113,0.124l-0.114,0.122l-0.115,0.121l-0.117,0.12l-0.118,0.119l-0.12,0.117l-0.121,0.115l-0.122,0.115l-0.124,0.112l-0.125,0.112l-0.127,0.11l-0.128,0.108l-0.129,0.107l-0.13,0.106l-0.132,0.104l-0.133,0.102l-0.134,0.101l-0.136,0.099l-0.137,0.098l-0.138,0.096l-0.139,0.094l-0.14,0.093l-0.142,0.092l-0.143,0.089l-0.144,0.088l-0.145,0.087l-0.146,0.084l-0.147,0.083l-0.149,0.081l-0.15,0.08l-0.15,0.078l-0.152,0.076l-0.153,0.074l-0.153,0.072l-0.155,0.071l-0.156,0.069l-0.157,0.067l-0.158,0.065l-0.159,0.063l-0.159,0.061l-0.161,0.06l-0.162,0.057l-0.162,0.056l-0.164,0.053l-0.164,0.052l-0.165,0.05l-0.166,0.047l-0.167,0.046l-0.168,0.044l-0.168,0.041l-0.032,0.008l-0.138,0.032l-0.17,0.037l-0.171,0.035l-0.171,0.033l-0.173,0.031l-0.173,0.028l-0.173,0.027l-0.175,0.024l-0.175,0.022l-0.176,0.02l-0.176,0.018l-0.177,0.016l-0.177,0.013l-0.178,0.011l-0.179,0.009l-0.179,0.007l-0.179,0.004l-0.174,0.002l0,0.044l-5.941,0l0.031,0.031l0.104,22.927l0.075,32.242l-0.018,10.742l-0.001,0.176l-0.004,0.182l-0.006,0.183l-0.008,0.181l-0.011,0.181l-0.013,0.181l-0.015,0.18l-0.018,0.179l-0.019,0.179l-0.022,0.178l-0.025,0.178l-0.026,0.176l-0.029,0.177l-0.031,0.175l-0.033,0.175l-0.035,0.174l-0.037,0.173l-0.039,0.173l-0.042,0.172l-0.043,0.171l-0.046,0.17l-0.047,0.169l-0.05,0.168l-0.052,0.168l-0.054,0.167l-0.055,0.166l-0.058,0.164l-0.06,0.164l-0.061,0.163l-0.064,0.163l-0.065,0.161l-0.067,0.16l-0.069,0.159l-0.072,0.158l-0.072,0.157l-0.075,0.156l-0.077,0.155l-0.078,0.154l-0.08,0.153l-0.082,0.152l-0.084,0.15l-0.085,0.15l-0.053,0.089l-0.035,0.059l-0.089,0.147l-0.091,0.146l-0.092,0.144l-0.095,0.144l-0.095,0.142l-0.098,0.141l-0.099,0.14l-0.101,0.138l-0.102,0.138l-0.104,0.136l-0.106,0.134l-0.107,0.134l-0.108,0.132l-0.11,0.13l-0.112,0.13l-0.113,0.128l-0.115,0.126l-0.116,0.126l-0.117,0.124l-0.119,0.122l-0.121,0.121l-0.122,0.12l-0.123,0.118l-0.125,0.117l-0.126,0.115l-0.127,0.114l-0.129,0.112l-0.13,0.11l-0.131,0.11l-0.133,0.107l-0.134,0.106l-0.135,0.105l-0.137,0.103l-0.137,0.101l-0.139,0.1l-0.141,0.098l-0.141,0.096l-0.143,0.095l-0.144,0.093l-0.145,0.092l-0.146,0.09l-0.147,0.088l-0.149,0.086l-0.149,0.085l-0.151,0.082l-0.152,0.082l-0.153,0.079l-0.154,0.077l-0.155,0.076l-0.156,0.074l-0.157,0.072l-0.158,0.07l-0.159,0.068l-0.16,0.067l-0.161,0.064l-0.162,0.063l-0.163,0.061l-0.164,0.058l-0.165,0.057l-0.165,0.055l-0.167,0.053l-0.167,0.05l-0.168,0.049l-0.169,0.047l-0.17,0.045l-0.171,0.042l-0.171,0.041l-0.172,0.038l-0.173,0.036l-0.174,0.035l-0.174,0.032l-0.175,0.029l-0.176,0.028l-0.176,0.026l-0.177,0.023l-0.178,0.021l-0.178,0.019l-0.179,0.017l-0.179,0.014l-0.18,0.012l-0.181,0.01l-0.181,0.008l-0.181,0.005l-0.182,0.003l-0.175,0l-7.018,-0.027l-24.996,-0.149l-0.173,-0.002l-0.18,-0.004l-0.179,-0.007l-0.179,-0.009l-0.178,-0.011l-0.177,-0.013l-0.177,-0.016l-0.176,-0.018l-0.176,-0.02l-0.175,-0.022l-0.174,-0.024l-0.174,-0.027l-0.173,-0.029l-0.172,-0.031l-0.172,-0.033l-0.171,-0.035l-0.17,-0.037l-0.169,-0.039l-0.169,-0.042l-0.168,-0.043l-0.167,-0.045l-0.166,-0.048l-0.165,-0.049l-0.165,-0.051l-0.163,-0.054l-0.163,-0.055l-0.162,-0.057l-0.161,-0.059l-0.16,-0.061l-0.159,-0.063l-0.158,-0.065l-0.157,-0.067l-0.156,-0.068l-0.155,-0.071l-0.154,-0.072l-0.153,-0.074l-0.152,-0.075l-0.15,-0.078l-0.15,-0.079l-0.149,-0.081l-0.147,-0.083l-0.147,-0.084l-0.145,-0.086l-0.144,-0.088l-0.143,-0.09l-0.142,-0.091l-0.141,-0.092l-0.14,-0.095l-0.138,-0.096l-0.137,-0.097l-0.136,-0.099l-0.134,-0.101l-0.134,-0.102l-0.132,-0.104l-0.13,-0.105l-0.13,-0.107l-0.128,-0.108l-0.127,-0.11l-0.125,-0.111l-0.125,-0.113l-0.122,-0.114l-0.122,-0.116l-0.12,-0.117l-0.118,-0.118l-0.118,-0.12l-0.116,-0.121l-0.114,-0.123l-0.113,-0.123l-0.111,-0.126l-0.11,-0.126l-0.109,-0.128l-0.107,-0.129l-0.105,-0.13l-0.104,-0.132l-0.102,-0.133l-0.101,-0.134l-0.099,-0.135l-0.098,-0.137l-0.096,-0.138l-0.095,-0.139l-0.092,-0.14l-0.092,-0.141l-0.089,-0.142l-0.088,-0.144l-0.086,-0.145l-0.085,-0.146l-0.082,-0.146l-0.082,-0.148l-0.079,-0.149l-0.077,-0.151l-0.076,-0.151l-0.074,-0.152l-0.072,-0.153l-0.071,-0.154l-0.068,-0.155l-0.067,-0.156l-0.065,-0.157l-0.063,-0.158l-0.061,-0.159l-0.06,-0.16l-0.057,-0.161l-0.055,-0.162l-0.054,-0.162l-0.051,-0.163l-0.05,-0.164l-0.047,-0.165l-0.046,-0.166l-0.044,-0.167l-0.041,-0.167l-0.04,-0.168l-0.037,-0.169l-0.035,-0.17l-0.034,-0.17l-0.031,-0.171l-0.029,-0.171l-0.027,-0.173l-0.025,-0.172l-0.022,-0.174l-0.021,-0.174l-0.018,-0.175l-0.016,-0.175l-0.014,-0.176l-0.011,-0.176l-0.01,-0.177l-0.007,-0.177l-0.005,-0.178l0,-0.033l-0.002,-0.146l0,-0.172l0.301,-45.196l0.132,-0.09l0.005,-21.241l0.009,-0.01l-6.535,-0.036l-0.168,-0.002l-0.172,-0.004l-0.171,-0.007l-0.171,-0.008l-0.171,-0.011l-0.17,-0.013l-0.169,-0.015l-0.169,-0.017l-0.168,-0.019l-0.168,-0.021l-0.167,-0.024l-0.166,-0.025l-0.166,-0.028l-0.165,-0.029l-0.164,-0.032l-0.164,-0.033l-0.163,-0.036l-0.162,-0.038l-0.161,-0.039l-0.161,-0.042l-0.16,-0.043l-0.159,-0.046l-0.158,-0.047l-0.158,-0.049l-0.156,-0.051l-0.156,-0.053l-0.155,-0.055l-0.154,-0.056l-0.153,-0.059l-0.152,-0.06l-0.152,-0.062l-0.15,-0.064l-0.149,-0.066l-0.149,-0.067l-0.147,-0.069l-0.147,-0.071l-0.146,-0.072l-0.144,-0.075l-0.144,-0.076l-0.142,-0.077l-0.141,-0.079l-0.141,-0.081l-0.139,-0.083l-0.138,-0.084l-0.137,-0.086l-0.136,-0.087l-0.135,-0.089l-0.134,-0.09l-0.132,-0.092l-0.132,-0.093l-0.13,-0.095l-0.129,-0.097l-0.128,-0.098l-0.126,-0.099l-0.126,-0.101l-0.124,-0.103l-0.123,-0.103l-0.121,-0.106l-0.121,-0.106l-0.119,-0.108l-0.117,-0.11l-0.117,-0.11l-0.115,-0.113l-0.114,-0.113l-0.112,-0.115l-0.111,-0.116l-0.11,-0.117l-0.108,-0.119l-0.107,-0.12l-0.105,-0.121l-0.104,-0.123l-0.103,-0.123l-0.101,-0.125l-0.1,-0.127l-0.098,-0.127l-0.096,-0.129l-0.095,-0.129l-0.094,-0.131l-0.092,-0.132l-0.091,-0.133l-0.089,-0.135l-0.087,-0.135l-0.086,-0.137l-0.084,-0.137l-0.083,-0.139l-0.081,-0.139l-0.079,-0.141l-0.078,-0.142l-0.076,-0.143l-0.074,-0.143l-0.073,-0.145l-0.071,-0.146l-0.069,-0.147l-0.068,-0.147l-0.065,-0.149l-0.064,-0.15l-0.063,-0.15l-0.06,-0.151l-0.059,-0.152l-0.056,-0.154l-0.055,-0.153l-0.053,-0.155l-0.052,-0.156l-0.049,-0.156l-0.048,-0.157l-0.045,-0.158l-0.044,-0.159l-0.042,-0.16l-0.039,-0.16l-0.038,-0.161l-0.036,-0.161l-0.02,-0.095l-0.014,-0.068l-0.032,-0.163l-0.03,-0.163l-0.027,-0.165l-0.026,-0.165l-0.024,-0.165l-0.021,-0.166l-0.02,-0.167l-0.017,-0.168l-0.016,-0.167l-0.013,-0.169l-0.011,-0.169l-0.009,-0.169l-0.007,-0.17l-0.004,-0.17l-0.003,-0.171l0,-0.167l0.254,-68.006l0.001,-0.159l0.001,-0.161l0.003,-0.161l0.004,-0.16l0.005,-0.161l0.006,-0.16l0.007,-0.159l0.008,-0.16l0.009,-0.159l0.01,-0.159l0.011,-0.159l0.012,-0.158l0.013,-0.159l0.014,-0.158l0.015,-0.157l0.016,-0.158l0.017,-0.157l0.017,-0.157l0.019,-0.156l0.02,-0.157l0.021,-0.156l0.022,-0.155l0.023,-0.156l0.023,-0.155l0.025,-0.155l0.026,-0.154l0.026,-0.154l0.028,-0.154l0.028,-0.154l0.03,-0.153l0.03,-0.153l0.031,-0.153l0.033,-0.152l0.033,-0.152l0.034,-0.152l0.035,-0.151l0.036,-0.151l0.037,-0.151l0.038,-0.15l0.003,-0.015l0.035,-0.135l0.04,-0.149l0.04,-0.149l0.042,-0.149l0.042,-0.149l0.043,-0.148l0.044,-0.148l0.045,-0.147l0.046,-0.147l0.047,-0.147l0.048,-0.146l0.048,-0.146l0.05,-0.145l0.05,-0.145l0.051,-0.145l0.052,-0.144l0.053,-0.144l0.053,-0.143l0.055,-0.143l0.055,-0.143l0.057,-0.142l0.057,-0.142l0.058,-0.141l0.058,-0.141l0.06,-0.141l0.06,-0.14l0.062,-0.14l0.062,-0.139l0.062,-0.139l0.064,-0.138l0.065,-0.138l0.065,-0.137l0.066,-0.137l0.067,-0.137l0.068,-0.136l0.068,-0.135l0.07,-0.136l0.07,-0.134l0.071,-0.134l0.071,-0.134l0.073,-0.133l0.073,-0.133l0.074,-0.132l0.075,-0.132l0.075,-0.132l0.077,-0.13l0.077,-0.131l0.078,-0.13l0.078,-0.129l0.08,-0.129l0.08,-0.128l0.081,-0.128l0.081,-0.127l0.083,-0.127l0.083,-0.126l0.083,-0.126l0.085,-0.125l0.085,-0.124l0.086,-0.125l0.087,-0.123l0.087,-0.123l0.088,-0.123l0.089,-0.122l0.09,-0.121l0.09,-0.121l0.091,-0.12l0.092,-0.12l0.092,-0.119l0.093,-0.119l0.094,-0.118l0.094,-0.117l0.095,-0.117l0.096,-0.116l0.097,-0.116l0.097,-0.115l0.098,-0.115l0.098,-0.114l0.099,-0.113l0.1,-0.113l0.101,-0.112l0.101,-0.112l0.101,-0.111l0.103,-0.11l0.103,-0.11l0.104,-0.109l0.104,-0.108l0.105,-0.108l0.105,-0.108l0.107,-0.106l0.107,-0.106l0.107,-0.106l0.108,-0.104l0.109,-0.105l0.109,-0.103l0.11,-0.103l0.111,-0.102l0.111,-0.102l0.112,-0.1l0.112,-0.101l0.113,-0.099l0.114,-0.099l0.114,-0.098l0.115,-0.098l0.115,-0.097l0.116,-0.096l0.116,-0.096l0.117,-0.094l0.118,-0.095l0.118,-0.093l0.119,-0.093l0.119,-0.092l0.12,-0.091l0.12,-0.091l0.121,-0.09l0.122,-0.089l0.122,-0.089l0.123,-0.088l0.123,-0.087l0.124,-0.086l0.124,-0.086l0.125,-0.085l0.125,-0.084l0.126,-0.084l0.126,-0.083l0.127,-0.082l0.127,-0.081l0.128,-0.081l0.129,-0.079l0.128,-0.079l0.13,-0.079l0.13,-0.077l0.13,-0.077l0.131,-0.076l0.131,-0.075l0.132,-0.075l0.133,-0.073l0.133,-0.073l0.133,-0.073l0.134,-0.071l0.134,-0.07l0.135,-0.07l0.135,-0.069l0.135,-0.068l0.137,-0.068l0.136,-0.066l0.137,-0.066l0.138,-0.065l0.138,-0.064l0.138,-0.064l0.139,-0.062l0.139,-0.062l0.14,-0.061l0.14,-0.06l0.14,-0.059l0.141,-0.059l0.142,-0.057l0.141,-0.057l0.143,-0.056l0.142,-0.055l0.143,-0.054l0.144,-0.053l0.144,-0.053l0.144,-0.051l0.144,-0.051l0.145,-0.05l0.146,-0.049l0.146,-0.048l0.146,-0.047l0.146,-0.047l0.147,-0.045l0.148,-0.045l0.147,-0.044l0.148,-0.043l0.149,-0.041l0.149,-0.041l0.149,-0.041l0.149,-0.039l0.15,-0.038l0.15,-0.038l0.151,-0.036l0.151,-0.036l0.151,-0.034l0.151,-0.034l0.152,-0.033l0.152,-0.032l0.153,-0.031l0.153,-0.03l0.153,-0.029l0.153,-0.028l0.154,-0.027l0.154,-0.026l0.155,-0.026l0.154,-0.024l0.155,-0.023l0.155,-0.023l0.156,-0.021l0.156,-0.02l0.156,-0.02l0.156,-0.018l0.157,-0.018l0.157,-0.017l0.157,-0.015l0.158,-0.015l0.158,-0.013l0.158,-0.013l0.158,-0.011l0.131,-0.009l0.027,-0.002l0.159,-0.01l0.159,-0.008l0.159,-0.008l0.16,-0.006l0.16,-0.006l0.16,-0.004l0.16,-0.004l0.16,-0.002l0.161,-0.002l0.159,0l1.614,-0.001l4.068,-0.003Z" style="fill:#573351;"/></g></g><g id="Cloud" transform="matrix(1,0,0,1,-652.658,-117.657)"><g transform="matrix(0.99772,-0.0674875,0.0674875,0.99772,-11.7055,82.6584)"><text x="1217.55px" y="214.579px" style="font-family:'Lato-Regular', 'Lato', sans-serif;font-size:36px;fill:#573351;stroke:#573351;stroke-width:1px;stroke-linecap:butt;stroke-miterlimit:2;">C</text></g><g transform="matrix(0.999346,-0.0361548,0.0361548,0.999346,-6.8911,45.037)"><text x="1241.82px" y="213.056px" style="font-family:'Lato-Regular', 'Lato', sans-serif;font-size:36px;fill:#573351;stroke:#573351;stroke-width:1px;stroke-linecap:butt;stroke-miterlimit:2;">l</text></g><g transform="matrix(0.999972,-0.00753164,0.00753164,0.999972,-1.56619,9.42509)"><text x="1250.6px" y="212.658px" style="font-family:'Lato-Regular', 'Lato', sans-serif;font-size:36px;fill:#573351;stroke:#573351;stroke-width:1px;stroke-linecap:butt;stroke-miterlimit:2;">o</text></g><g transform="matrix(0.999482,0.0321955,-0.0321955,0.999482,7.50104,-40.8218)"><text x="1271.36px" y="212.513px" style="font-family:'Lato-Regular', 'Lato', sans-serif;font-size:36px;fill:#573351;stroke:#573351;stroke-width:1px;stroke-linecap:butt;stroke-miterlimit:2;">u</text></g><g transform="matrix(0.997445,0.0714342,-0.0714342,0.997445,18.5293,-91.7363)"><text x="1291.83px" y="213.191px" style="font-family:'Lato-Regular', 'Lato', sans-serif;font-size:36px;fill:#573351;stroke:#573351;stroke-width:1px;stroke-linecap:butt;stroke-miterlimit:2;">d</text></g></g><g id="IoT" transform="matrix(1,0,0,1,-652.658,-117.657)"><g transform="matrix(0.998622,-0.0524747,0.0524747,0.998622,-17.493,65.6141)"><text x="1240.79px" y="365.938px" style="font-family:'Lato-Regular', 'Lato', sans-serif;font-size:36px;fill:#573351;stroke:#573351;stroke-width:1px;stroke-linecap:butt;stroke-miterlimit:2;">I</text></g><g transform="matrix(0.999947,-0.0103062,0.0103062,0.999947,-3.69845,12.91)"><text x="1250.77px" y="365.303px" style="font-family:'Lato-Regular', 'Lato', sans-serif;font-size:36px;fill:#573351;stroke:#573351;stroke-width:1px;stroke-linecap:butt;stroke-miterlimit:2;">o</text></g><g transform="matrix(0.999335,0.0364517,-0.0364517,0.999335,14.1481,-45.9489)"><text x="1267.2px" y="365.03px" style="font-family:'Lato-Regular', 'Lato', sans-serif;font-size:36px;fill:#573351;stroke:#573351;stroke-width:1px;stroke-linecap:butt;stroke-miterlimit:2;">T</text></g></g><g id="BYOD" transform="matrix(1,0,0,1,-602.488,-0.345559)"><g transform="matrix(0.990052,-0.140705,0.140705,0.990052,-47.0645,170.153)"><text x="1179.75px" y="417.904px" style="font-family:'Lato-Regular', 'Lato', sans-serif;font-size:24px;fill:#573351;stroke:#573351;stroke-width:1px;stroke-linecap:butt;stroke-miterlimit:2;">B</text></g><g transform="matrix(0.998164,-0.0605766,0.0605766,0.998164,-22.9844,73.1846)"><text x="1195.53px" y="415.67px" style="font-family:'Lato-Regular', 'Lato', sans-serif;font-size:24px;fill:#573351;stroke:#573351;stroke-width:1px;stroke-linecap:butt;stroke-miterlimit:2;">Y</text></g><g transform="matrix(0.999546,0.0301165,-0.0301165,0.999546,13.0374,-36.273)"><text x="1210.67px" y="414.665px" style="font-family:'Lato-Regular', 'Lato', sans-serif;font-size:24px;fill:#573351;stroke:#573351;stroke-width:1px;stroke-linecap:butt;stroke-miterlimit:2;">O</text></g><g transform="matrix(0.990327,0.138755,-0.138755,0.990327,69.5418,-166.819)"><text x="1231.21px" y="415.352px" style="font-family:'Lato-Regular', 'Lato', sans-serif;font-size:24px;fill:#573351;stroke:#573351;stroke-width:1px;stroke-linecap:butt;stroke-miterlimit:2;">D</text></g></g></g><g id="_3rd-party-services" serif:id="3rd party services"><path d="M1730.05,108.601l-637.567,-1.511l-143.953,126.326" style="fill:none;stroke:#020202;stroke-width:5px;"/><g id="social-media-icons" serif:id="social media icons"><path d="M1524.39,156.942l-2.573,0c0.067,-0.503 0.324,-1.378 1.332,-1.378c0.659,0 1.169,0.373 1.241,1.378Zm13.346,-1.355c-0.046,0 -1.378,-0.173 -1.378,1.953c0,2.126 1.331,1.953 1.378,1.953c1.269,0 1.378,-1.322 1.378,-1.953c0,-2.125 -1.334,-1.953 -1.378,-1.953Zm-23.752,2.32c-0.217,0.17 -0.337,0.437 -0.321,0.712c0,0.467 0.203,0.591 0.321,0.689c0.459,0.361 1.472,0.207 2.044,0.092l0,-1.654c-0.52,-0.104 -1.634,-0.191 -2.044,0.161Zm48.601,-2.297c0,8.553 -7.813,15.078 -16.149,13.324c-1.794,3.222 -6.907,6.909 -12.91,4.065c-4.02,9.38 -17.372,9.002 -20.88,-0.505c-11.691,2.333 -17.463,-13.513 -7.35,-19.461c-3.394,-7.757 2.21,-16.954 11.163,-16.954c3.77,0.002 7.332,1.762 9.625,4.756c2.021,-2.09 4.824,-3.399 7.924,-3.399c4.135,0 7.715,2.296 9.649,5.719c9.064,-3.972 18.928,2.757 18.928,12.455Zm-50.738,3.106c0,-1.149 -1.141,-1.482 -1.745,-1.677c-0.514,-0.206 -1.309,-0.343 -1.309,-0.873c0,-0.924 1.66,-0.65 2.458,-0.207c0,0 0.114,0.069 0.16,-0.046c0.023,-0.068 0.23,-0.642 0.253,-0.712c0.018,-0.056 -0.013,-0.118 -0.069,-0.137c-1.204,-0.746 -3.974,-0.832 -3.974,1.24c0,1.217 1.122,1.508 1.746,1.676c0.461,0.155 1.286,0.293 1.286,0.85c0,0.391 -0.345,0.69 -0.896,0.69c-0.669,-0.002 -1.32,-0.219 -1.855,-0.621c-0.046,-0.022 -0.139,-0.069 -0.161,0.07l-0.235,0.729c-0.045,0.092 0.023,0.116 0.023,0.138c0.171,0.137 1.006,0.644 2.228,0.644c1.287,0 2.09,-0.69 2.09,-1.769l0,0.005Zm3.125,-4.158c-0.989,0 -1.822,0.309 -2.09,0.506c-0.026,0.018 -0.042,0.048 -0.042,0.08c0,0.02 0.007,0.041 0.019,0.057l0.253,0.69c0.014,0.049 0.065,0.079 0.115,0.068c0.064,0 0.664,-0.391 1.653,-0.391c0.391,0 0.69,0.07 0.897,0.231c0.352,0.273 0.299,0.809 0.299,1.033c-0.468,-0.029 -1.866,-0.336 -2.872,0.367c-0.466,0.32 -0.737,0.856 -0.717,1.42c0,0.576 0.147,1.016 0.643,1.402c1.196,0.796 3.543,0.195 3.721,0.137c0.154,-0.031 0.345,-0.064 0.345,-0.183l0,-3.309c0.004,-0.45 0.031,-2.113 -2.225,-2.113l0.001,0.005Zm4.546,-2.049c0,-0.003 0,-0.005 0,-0.007c0,-0.06 -0.049,-0.109 -0.108,-0.109c-0.002,0 -0.005,0 -0.007,0.001l-0.959,0c-0.002,-0.001 -0.004,-0.001 -0.006,-0.001c-0.06,0 -0.109,0.049 -0.109,0.109c0,0.002 0.001,0.004 0.001,0.007l0,7.715c0,0.002 -0.001,0.004 -0.001,0.007c0,0.059 0.049,0.108 0.109,0.108c0.002,0 0.004,0 0.006,0l0.965,0c0.002,0 0.005,0 0.007,0c0.059,0 0.108,-0.049 0.108,-0.108c0,-0.003 0,-0.005 0,-0.007l-0.006,-7.715Zm5.445,2.825c-0.206,-0.226 -0.664,-0.735 -1.724,-0.735c-0.343,0 -1.383,0.022 -2.022,0.873c-0.62,0.745 -0.642,1.768 -0.642,2.091c0,0.304 0.014,1.392 0.689,2.067c0.258,0.284 0.885,0.804 2.228,0.804c1.056,0 1.608,-0.23 1.814,-0.368c0.046,-0.023 0.07,-0.069 0.024,-0.183l-0.23,-0.667c-0.024,-0.052 -0.081,-0.081 -0.137,-0.069c-0.253,0.092 -0.621,0.276 -1.494,0.276c-1.701,0 -1.645,-1.44 -1.654,-1.631l3.63,0c0.054,-0.001 0.101,-0.039 0.114,-0.092c-0.028,0 0.202,-1.435 -0.595,-2.366l-0.001,0Zm3.583,5.146c1.286,0 2.09,-0.69 2.09,-1.769c0,-1.148 -1.142,-1.481 -1.746,-1.677c-0.404,-0.162 -1.309,-0.33 -1.309,-0.873c0,-0.367 0.321,-0.62 0.827,-0.62c0.568,0.011 1.126,0.153 1.631,0.413c0.505,0.26 0.115,0.069 0.161,-0.046c0.022,-0.068 0.229,-0.642 0.252,-0.712c0.018,-0.056 -0.013,-0.118 -0.069,-0.137c-0.772,-0.479 -1.634,-0.483 -1.975,-0.483c-1.172,0 -1.998,0.712 -1.998,1.723c0,1.217 1.121,1.508 1.745,1.677c0.597,0.195 1.286,0.318 1.286,0.849c0,0.391 -0.344,0.69 -0.895,0.69c-0.67,-0.002 -1.321,-0.219 -1.856,-0.62c-0.018,-0.016 -0.04,-0.024 -0.064,-0.024c-0.051,0 -0.095,0.041 -0.097,0.093l-0.23,0.734c-0.045,0.092 0.023,0.116 0.023,0.138c0.168,0.137 1.009,0.644 2.225,0.644l-0.001,0Zm6.411,-5.651c0,-0.069 -0.024,-0.115 -0.116,-0.115l-1.148,0c0,-0.014 0.092,-0.873 0.437,-1.218c0.406,-0.405 1.148,-0.16 1.171,-0.16c0.115,0.046 0.138,0 0.161,-0.046l0.276,-0.759c0.068,-0.092 0,-0.114 -0.024,-0.137c-0.497,-0.196 -1.694,-0.281 -2.388,0.414c-0.535,0.535 -0.684,1.359 -0.781,1.906l-0.828,0c-0.061,0.005 -0.109,0.054 -0.114,0.115l-0.139,0.758c0,0.068 0.024,0.114 0.116,0.114l0.803,0c-0.831,4.678 -0.854,4.904 -1.01,5.422c-0.106,0.354 -0.322,0.674 -0.575,0.758c-0.008,0 -0.378,0.164 -0.941,-0.024c0,0 -0.092,-0.045 -0.138,0.07c-0.023,0.069 -0.253,0.666 -0.276,0.735c-0.023,0.069 0,0.138 0.046,0.138c0.499,0.195 1.269,0.173 1.746,0c0.613,-0.223 0.949,-0.771 1.126,-1.264c0.269,-0.753 0.274,-0.956 1.148,-5.834l1.195,0c0.061,-0.005 0.11,-0.054 0.115,-0.115l0.138,-0.758Zm5.214,1.563c-0.055,-0.164 -0.499,-1.769 -2.458,-1.769c-1.49,0 -2.247,0.977 -2.458,1.769c-0.097,0.293 -0.31,1.367 0,2.297c0.009,0.029 0.431,1.769 2.458,1.769c1.459,0 2.236,-0.938 2.458,-1.769c0.313,-0.939 0.098,-2.004 0,-2.297Zm4.433,-1.631c-0.488,-0.161 -1.623,-0.186 -2.159,0.528l0,-0.436c0,-0.002 0,-0.004 0,-0.007c0,-0.059 -0.049,-0.108 -0.108,-0.108c-0.003,0 -0.005,0 -0.007,0l-0.918,0c-0.003,0 -0.005,0 -0.007,0c-0.06,0 -0.109,0.049 -0.109,0.108c0,0.003 0,0.005 0,0.007l0,5.398c0,0.002 0,0.004 0,0.006c0,0.06 0.05,0.109 0.11,0.109c0.002,0 0.004,0 0.006,0l0.941,0c0.002,0 0.004,0 0.006,0c0.06,0 0.11,-0.049 0.11,-0.109c0,-0.002 -0.001,-0.004 -0.001,-0.006l0,-2.712c0,-0.284 0.005,-1.11 0.436,-1.47c0.478,-0.478 1.172,-0.328 1.309,-0.298c0.06,-0.002 0.114,-0.037 0.138,-0.092c0.115,-0.255 0.215,-0.516 0.299,-0.782c0.02,-0.05 0,-0.109 -0.046,-0.137l0,0.001Zm4.571,5.283l-0.207,-0.712c-0.046,-0.115 -0.137,-0.069 -0.137,-0.069c-0.413,0.177 -0.992,0.184 -1.103,0.184c-0.453,0 -1.677,-0.11 -1.677,-1.929c0,-0.609 0.181,-1.93 1.609,-1.93c0.381,-0.01 0.761,0.045 1.125,0.161c0.363,0.116 0.092,0.046 0.115,-0.069c0.092,-0.253 0.16,-0.437 0.253,-0.736c0.022,-0.091 -0.046,-0.114 -0.069,-0.114c-1.132,-0.378 -2.182,-0.247 -2.711,0c-0.156,0.072 -1.585,0.634 -1.585,2.688c0,0.283 -0.057,2.94 2.826,2.94c0.518,-0.001 1.031,-0.095 1.516,-0.276c0.042,-0.032 0.061,-0.088 0.045,-0.139l0,0.001Zm5.261,-3.859c-0.078,-0.293 -0.524,-1.585 -2.182,-1.585c-1.563,0 -2.297,0.987 -2.504,1.815c-0.113,0.372 -0.167,0.76 -0.162,1.149c0,2.526 1.84,2.871 2.918,2.871c1.057,0 1.608,-0.23 1.815,-0.368c0.046,-0.023 0.069,-0.069 0.023,-0.183l-0.23,-0.667c-0.024,-0.052 -0.082,-0.081 -0.138,-0.069c-0.253,0.092 -0.62,0.276 -1.493,0.276c-1.701,0 -1.645,-1.44 -1.653,-1.631l3.629,0c0.054,-0.001 0.101,-0.039 0.115,-0.092c-0.024,-0.001 0.092,-0.69 -0.138,-1.517l0,0.001Zm-2.274,-0.621c-1.009,0 -1.27,0.879 -1.332,1.379l2.575,0c-0.086,-1.164 -0.744,-1.379 -1.243,-1.379l0,0Z" style="fill:#573351;fill-rule:nonzero;"/><path d="M1447.2,198.154l-34.375,0c-2.572,0 -4.688,2.116 -4.688,4.688l0,34.375c0,2.571 2.116,4.687 4.688,4.687l13.403,0l0,-14.874l-6.152,0l0,-7.001l6.152,0l0,-5.336c0,-6.069 3.613,-9.422 9.147,-9.422c2.651,0 5.422,0.473 5.422,0.473l0,5.957l-3.053,0c-3.009,0 -3.948,1.867 -3.948,3.782l0,4.546l6.717,0l-1.074,7.001l-5.643,0l0,14.874l13.404,0c2.571,0 4.687,-2.116 4.687,-4.687l0,-34.375c0,-2.572 -2.116,-4.688 -4.687,-4.688Z" style="fill:#573351;fill-rule:nonzero;"/><clipPath id="_clip2"><rect x="1607.62" y="260.883" width="56.25" height="50"/></clipPath><g clip-path="url(#_clip2)"><path d="M1639.36,277.27c0,-1.602 -1.377,-1.797 -2.676,-1.797l-3.818,-0.029l0,6.767l1.601,0l0,-2.451l1.758,0c1.797,0 1.416,1.006 1.445,2.451l1.621,0l0,-1.318c0,-0.899 -0.146,-1.475 -1.074,-1.797c0.723,-0.293 1.153,-1.045 1.143,-1.826Zm-2.871,1.103l-2.022,0l0,-1.494l2.051,0c0.498,0 1.045,0.098 1.045,0.723c0,0.644 -0.518,0.771 -1.074,0.771Zm-1.631,8.74l-5.147,0l-2.05,2.227l-2.002,-2.227l-6.495,0l-0.009,6.768l6.386,0l2.08,-2.246l1.993,2.246l3.144,0l0.01,-2.275c1.846,0 4.814,0.449 4.814,-2.276c0,-1.689 -1.201,-2.217 -2.724,-2.217Zm-10.137,5.342l-3.965,0l0,-1.347l3.545,0l0,-1.377l-3.545,0l0,-1.221l4.072,0l1.749,1.973l-1.856,1.972Zm6.426,0.801l-2.471,-2.744l2.471,-2.676l0,5.42Zm3.691,-3.027l-2.07,0l0,-1.719l2.1,0c0.546,0 0.996,0.225 0.996,0.82c0,0.625 -0.45,0.899 -1.026,0.899Zm-3.086,-13.35l0,-1.426l-5.42,0l0,6.768l5.42,0l0,-1.397l-3.799,0l0,-1.347l3.692,0l0,-1.377l-3.692,0l0,-1.221l3.799,0Zm32.11,8.945l-0.02,0l0.02,0Zm-19.004,3.116c0,-1.602 -1.377,-1.827 -2.647,-1.827l-3.847,0l-0.01,6.768l1.621,0l0.01,-2.471l1.718,0c1.075,0 1.446,0.196 1.446,1.348l-0.01,1.123l1.621,0l0.01,-1.348c0,-0.869 -0.176,-1.474 -1.074,-1.796c0.752,-0.303 1.152,-1.055 1.162,-1.797Zm-2.852,1.093l-2.021,0l0,-1.523l2.051,0c0.498,0 1.044,0.098 1.044,0.723c0,0.673 -0.527,0.8 -1.074,0.8Zm-16.875,-7.812l0,-6.768l-2.695,0l-1.924,4.59l-2.119,-4.59l-2.647,0l0,6.416l-2.744,-6.416l-2.392,0l-2.901,6.768l1.748,0l0.625,-1.494l3.37,0l0.625,1.494l3.3,0l0,-5.293l2.344,5.293l1.426,0l2.344,-5.293l0,5.293l1.64,0Zm-14.472,-2.9l1.093,-2.696l1.123,2.696l-2.216,0Zm46.621,15.517l0,-0.439c-1.055,0.547 -0.381,0.439 -15.303,0.439c0,-2.461 0.01,-2.334 0,-2.461c-0.166,-0.01 -0.313,-0.01 -0.918,-0.01c0,1.748 -0.01,0.664 -0.01,2.471l-3.867,0c0,-1.182 0.01,-1.494 0.01,-2.851c-0.977,0.585 -2.227,0.625 -3.35,0.605c0,1.436 -0.01,0.811 -0.01,2.246l-4.775,0c-0.498,-0.557 -0.264,-0.303 -1.504,-1.699c-0.312,0.342 -1.25,1.357 -1.572,1.699l-8.008,0l0,-9.014l8.115,0c0.489,0.547 0.274,0.303 1.514,1.68c0.312,-0.342 1.191,-1.308 1.533,-1.68l5.664,0c0.957,0 1.758,0.186 2.373,0.547l0,-0.547c5.303,0 6.28,-0.136 7.393,0.498l0,-0.498l7.637,0l0,0.508c1.113,-0.674 1.914,-0.508 6.337,-0.508l0,0.489c1.006,-0.576 1.622,-0.508 5.303,-0.489l0,-17.128c0,-2.588 -2.099,-4.688 -4.687,-4.688l-46.875,0c-2.588,0 -4.688,2.1 -4.688,4.688l0,10.722c0.918,-2.139 1.924,-4.492 2.256,-5.264l3.877,0c0.42,0.987 0.156,0.362 0.879,2.061l0,-2.061l4.492,0c0.283,0.606 1.084,2.344 1.357,2.93c0.567,-1.328 0.987,-2.334 1.231,-2.93l10.059,0c0,-0.009 1.123,0 1.132,0c4.268,0.02 5.235,-0.078 6.289,0.518l0,-0.518l3.897,0l0,0.909c0.742,-0.596 1.748,-0.909 2.998,-0.909l2.695,0c0,0.049 0.186,0.03 0.225,0.03l3.164,0c0.41,0.957 0.254,0.586 0.859,2.012l0,-2.012l4.229,0c0.478,0.781 -0.098,-0.176 1.094,1.797l0,-1.797l3.896,0l0,8.984l-4.062,0c-0.528,-0.879 -0.137,-0.215 -1.289,-2.139l0,2.139l-5.157,0c-0.625,-1.445 -0.01,-0.029 -0.644,-1.494l-1.856,0c-0.41,0.977 -0.215,0.508 -0.625,1.494l-2.617,0c-1.201,0 -2.178,-0.293 -2.9,-0.869l0,0.869l-6.494,0c-0.03,-1.357 -0.01,-2.422 -0.01,-2.422c-0.176,-0.029 -0.332,-0.019 -0.957,-0.019l0,2.451l-13.233,0l0,-1.113c-0.244,0.547 -0.263,0.576 -0.498,1.113l-2.881,0c-0.39,-0.869 -0.283,-0.625 -0.498,-1.113l0,1.113l-5.166,0c-0.41,-0.986 -0.214,-0.518 -0.625,-1.494l-1.875,0c-0.41,0.976 -0.214,0.508 -0.625,1.494l-2.597,0l0,19.893c0,2.587 2.099,4.687 4.687,4.687l46.885,0c2.588,0 4.687,-2.1 4.687,-4.687l0,-8.829c-1.24,0.811 -3.193,0.596 -6.591,0.596Zm3.545,-6.299l2.939,0l0,-1.426l-3.213,0c-1.25,0 -2.324,0.645 -2.324,2.022c0,3.223 4.17,1.25 4.17,2.676c0,0.498 -0.42,0.625 -0.82,0.625l-3.125,0l-0.01,1.445l3.125,0c0.82,0 1.719,-0.176 2.197,-0.869l0,-2.52c-1.025,-1.347 -3.838,-0.127 -3.838,-1.318c0,-0.566 0.449,-0.635 0.899,-0.635Zm-5.567,3.887l-3.144,0l-0.01,1.445l3.144,0c1.446,0 2.559,-0.547 2.559,-2.148c0,-3.242 -4.189,-1.094 -4.189,-2.569c0,-0.546 0.478,-0.625 0.898,-0.625l2.969,0l0,-1.425l-3.242,0c-1.25,0 -2.295,0.644 -2.295,2.021c0,3.223 4.17,1.221 4.17,2.676c-0.01,0.527 -0.459,0.625 -0.86,0.625Zm-4.121,-3.916l0,-1.397l-5.391,0l-0.009,6.768l5.39,0l0.01,-1.396l-3.769,-0.03l0,-1.347l3.701,0l0,-1.377l-3.692,0l0,-1.221l3.76,0Zm-5.498,-10.557c-0.029,0.02 -0.137,0.215 -0.137,0.743c0,0.585 0.088,0.751 0.108,0.771c0.019,0.01 0.107,0.049 0.332,0.049l0.713,-1.651c-0.108,0 -0.205,-0.009 -0.303,-0.009c-0.547,0 -0.684,0.068 -0.713,0.097Zm1.992,-1.025l-0.01,0l0.01,0Zm-1.582,-1.484c-2.295,0 -3.32,1.171 -3.32,3.447c0,2.168 0.996,3.32 3.223,3.32l1.875,0l0.625,-1.494l3.349,0l0.645,1.494l3.291,0l0,-5.068l3.047,5.068l2.304,0l0,-6.738l-1.65,0l0,4.697l-2.842,-4.697l-2.471,0l0,6.387l-2.724,-6.387l-2.422,0l-2.295,5.322l-0.723,0c-1.299,0 -1.572,-0.791 -1.572,-1.943c0,-2.324 1.533,-1.953 3.232,-1.924l0,-1.484l-1.572,0Zm4.112,1.181l1.093,2.696l-2.226,0l1.133,-2.696Zm-9.874,-1.172l0,6.768l1.651,0l0,-6.768l-1.651,0Z" style="fill:#573351;fill-rule:nonzero;"/></g><clipPath id="_clip3"><rect x="1499.15" y="264.609" width="62.5" height="50"/></clipPath><g clip-path="url(#_clip3)"><path d="M1510.57,280.088c-0.733,0.869 -1.905,1.553 -3.077,1.455c-0.146,-1.172 0.43,-2.422 1.104,-3.184c0.732,-0.888 2.012,-1.523 3.057,-1.572c0.117,1.211 -0.362,2.412 -1.084,3.301m1.064,1.679c-1.699,-0.097 -3.154,0.967 -3.955,0.967c-0.82,0 -2.051,-0.918 -3.398,-0.888c-1.748,0.029 -3.37,1.015 -4.258,2.587c-1.836,3.155 -0.479,7.813 1.299,10.381c0.869,1.27 1.904,2.666 3.271,2.618c1.299,-0.049 1.807,-0.84 3.369,-0.84c1.572,0 2.031,0.84 3.399,0.82c1.416,-0.029 2.304,-1.27 3.173,-2.539c0.987,-1.445 1.397,-2.842 1.416,-2.92c-0.029,-0.029 -2.734,-1.064 -2.763,-4.189c-0.029,-2.618 2.138,-3.858 2.236,-3.936c-1.221,-1.816 -3.125,-2.012 -3.789,-2.061m9.805,-3.535l0,19.034l2.959,0l0,-6.504l4.092,0c3.74,0 6.357,-2.569 6.357,-6.28c0,-3.711 -2.578,-6.25 -6.26,-6.25l-7.148,0Zm2.959,2.491l3.408,0c2.568,0 4.033,1.367 4.033,3.769c0,2.402 -1.465,3.789 -4.043,3.789l-3.398,0l0,-7.558Zm15.84,16.689c1.855,0 3.574,-0.937 4.355,-2.432l0.059,0l0,2.286l2.734,0l0,-9.473c0,-2.744 -2.197,-4.522 -5.576,-4.522c-3.135,0 -5.459,1.797 -5.547,4.258l2.666,0c0.225,-1.172 1.309,-1.943 2.793,-1.943c1.807,0 2.822,0.84 2.822,2.392l0,1.055l-3.691,0.225c-3.428,0.205 -5.283,1.611 -5.283,4.052c0.009,2.461 1.923,4.102 4.668,4.102Zm0.8,-2.256c-1.572,0 -2.578,-0.762 -2.578,-1.914c0,-1.201 0.967,-1.894 2.813,-2.002l3.281,-0.205l0,1.074c0,1.778 -1.514,3.047 -3.516,3.047Zm10.01,7.285c2.881,0 4.238,-1.103 5.42,-4.433l5.186,-14.551l-3.008,0l-3.477,11.24l-0.058,0l-3.477,-11.24l-3.086,0l5,13.857l-0.273,0.84c-0.45,1.426 -1.182,1.983 -2.491,1.983c-0.234,0 -0.683,-0.03 -0.869,-0.049l0,2.285c0.176,0.039 0.909,0.068 1.133,0.068Z" style="fill:#573351;fill-rule:nonzero;"/></g><clipPath id="_clip4"><rect x="1295.01" y="195.029" width="62.5" height="50"/></clipPath><g clip-path="url(#_clip4)"><path d="M1329.18,218.105l-6.455,0l0,-5.8l6.455,0l0,5.8Zm0,-19.951l-6.455,0l0,5.928l6.455,0l0,-5.928Zm7.637,14.141l-6.455,0l0,5.801l6.455,0l0,-5.801Zm-15.264,-7.041l-6.455,0l0,5.869l6.455,0l0,-5.869Zm7.627,0l-6.455,0l0,5.869l6.455,0l0,-5.869Zm27.031,9.765c-1.406,-0.947 -4.648,-1.289 -7.138,-0.82c-0.323,-2.344 -1.631,-4.385 -4.014,-6.221l-1.367,-0.908l-0.908,1.367c-1.797,2.715 -2.286,7.188 -0.362,10.137c-0.849,0.459 -2.519,1.084 -4.726,1.045l-42.452,0c-0.849,4.961 0.567,11.406 4.297,15.83c3.623,4.287 9.053,6.465 16.153,6.465c15.371,0 26.748,-7.08 32.07,-19.941c2.09,0.039 6.602,0.009 8.916,-4.415c0.147,-0.244 0.645,-1.289 0.83,-1.669l-1.299,-0.87Zm-49.912,-2.724l-6.445,0l0,5.801l6.455,0l0,-5.801l-0.01,0Zm7.627,0l-6.455,0l0,5.801l6.455,0l0,-5.801Zm7.627,0l-6.455,0l0,5.801l6.455,0l0,-5.801Zm-7.627,-7.041l-6.455,0l0,5.869l6.455,0l0,-5.869Z" style="fill:#573351;fill-rule:nonzero;"/></g><path d="M1117.58,145.315c-4.756,0.176 -16.553,1.513 -16.553,11.474c0,10.694 13.506,11.133 17.92,4.219c0.635,0.996 3.457,3.662 4.424,4.57l5.547,-5.468c0,0 -3.155,-2.471 -3.155,-5.157l0,-14.365c0,-2.47 -2.392,-8.037 -10.966,-8.037c-8.594,0 -13.155,5.371 -13.155,10.186l7.178,0.664c1.592,-4.834 5.293,-4.834 5.293,-4.834c3.975,-0.01 3.467,2.91 3.467,6.748Zm0,8.476c0,7.813 -8.223,6.641 -8.223,1.68c0,-4.609 4.932,-5.537 8.223,-5.645l0,3.965Zm13.281,15.967c-0.752,0.977 -6.836,6.543 -17.041,6.543c-10.205,0 -18.018,-6.982 -20.41,-9.863c-0.664,-0.752 0.098,-1.104 0.537,-0.811c7.158,4.346 18.34,11.504 36.377,2.959c0.732,-0.361 1.299,0.196 0.537,1.172Zm3.887,0.215c-0.635,1.543 -1.563,2.617 -2.071,3.027c-0.537,0.44 -0.927,0.264 -0.634,-0.371c0.293,-0.635 1.884,-4.541 1.24,-5.371c-0.635,-0.81 -3.613,-0.42 -4.688,-0.312c-1.054,0.097 -1.269,0.195 -1.367,-0.03c-0.224,-0.556 2.119,-1.513 3.662,-1.709c1.534,-0.175 4.004,-0.078 4.493,0.557c0.361,0.498 0,2.646 -0.635,4.209Z" style="fill:#573351;fill-rule:nonzero;"/><path d="M1192.46,132.551l20.957,0l0,20.957l-20.957,0l0,-20.957Zm22.793,0l20.957,0l0,20.957l-20.957,0l0,-20.957Zm-22.793,22.793l20.957,0l0,20.957l-20.957,0l0,-20.957Zm22.793,0l20.957,0l0,20.957l-20.957,0l0,-20.957Z" style="fill:#573351;fill-rule:nonzero;"/><path d="M1217.06,298.511c-2.465,-3.093 -3.914,-5.804 -4.394,-8.123c-2.203,-8.594 10.997,-8.594 8.795,0c-0.533,2.368 -1.982,5.078 -4.395,8.123l-0.006,0Zm13.491,7.151c-4.107,1.788 -8.171,-1.062 -11.65,-4.928c10.146,-12.703 4.503,-19.532 -1.841,-19.532c-5.363,0 -8.316,4.542 -7.156,9.815c0.677,2.85 2.464,6.093 5.315,9.717c-3.176,3.52 -5.913,5.145 -8.315,5.363c-4.883,0.725 -8.702,-4.01 -6.963,-8.896c1.475,-3.824 10.91,-22.576 11.315,-23.59c1.539,-2.936 2.497,-5.605 5.799,-5.605c3.158,0 4.239,2.533 5.896,5.847c3.515,6.896 8.725,17.332 11.215,23.348c1.286,3.23 -0.134,6.962 -3.615,8.461Zm4.59,-13.293c-12.586,-26.787 -13.283,-27.171 -18.081,-27.171c-4.445,0 -6.335,3.093 -8.267,7.109c-10.368,20.733 -11.372,23.672 -11.459,23.928c-2.463,6.77 2.611,12.713 8.753,12.713c2.12,0 5.918,-0.591 10.973,-6.093c5.731,6.228 9.889,6.093 10.974,6.093c6.141,0.005 11.216,-5.943 8.751,-12.713c0.002,-0.38 -1.643,-3.799 -1.643,-3.866l-0.001,0Z" style="fill:#573351;fill-rule:nonzero;"/><clipPath id="_clip5"><rect x="1094.14" y="195.029" width="43.75" height="50"/></clipPath><g clip-path="url(#_clip5)"><path d="M1103.33,225.801c0,2.529 -2.067,4.595 -4.596,4.595c-2.529,0 -4.596,-2.066 -4.596,-4.595c0,-2.53 2.067,-4.596 4.596,-4.596l4.596,0l0,4.596Zm2.316,0c0,-2.53 2.066,-4.596 4.596,-4.596c2.529,0 4.595,2.066 4.595,4.596l0,11.507c0,2.53 -2.066,4.596 -4.595,4.596c-2.53,0 -4.596,-2.066 -4.596,-4.596l0,-11.507Zm4.596,-18.455c-2.53,0 -4.596,-2.067 -4.596,-4.596c0,-2.529 2.066,-4.596 4.596,-4.596c2.529,0 4.595,2.067 4.595,4.596l0,4.596l-4.595,0Zm0,2.316c2.529,0 4.595,2.066 4.595,4.596c0,2.529 -2.066,4.595 -4.595,4.595l-11.508,0c-2.529,0 -4.596,-2.066 -4.596,-4.595c0,-2.53 2.067,-4.596 4.596,-4.596l11.508,0Zm18.455,4.596c0,-2.53 2.066,-4.596 4.595,-4.596c2.53,0 4.596,2.066 4.596,4.596c0,2.529 -2.066,4.595 -4.596,4.595l-4.595,0l0,-4.595Zm-2.317,0c0,2.529 -2.066,4.595 -4.595,4.595c-2.53,0 -4.596,-2.066 -4.596,-4.595l0,-11.508c0,-2.529 2.066,-4.596 4.596,-4.596c2.529,0 4.595,2.067 4.595,4.596l0,11.508Zm-4.595,18.455c2.529,0 4.595,2.066 4.595,4.595c0,2.53 -2.066,4.596 -4.595,4.596c-2.53,0 -4.596,-2.066 -4.596,-4.596l0,-4.595l4.596,0Zm0,-2.317c-2.53,0 -4.596,-2.066 -4.596,-4.595c0,-2.53 2.066,-4.596 4.596,-4.596l11.507,0c2.53,0 4.596,2.066 4.596,4.596c0,2.529 -2.066,4.595 -4.596,4.595l-11.507,0Z" style="fill:#573351;fill-rule:nonzero;"/></g><path d="M1347.26,289.857l5.205,-5.85l-6.093,0l-2.12,2.422l-2.197,-2.422l-11.592,0l0,-1.563l5.479,0l0,-4.697l-14.766,0l0,7.373l-0.049,0c-0.937,-1.074 -2.099,-1.445 -3.457,-1.445c-2.773,0 -4.863,1.894 -5.595,4.385c-1.758,-5.801 -9.512,-5.625 -11.905,-1.367l0,-2.364l-5.351,0l0,-2.558l5.859,0l0,-4.014l-10.644,0l0,18.008l4.785,0l0,-7.569l4.775,0c-0.146,0.557 -0.224,1.153 -0.224,1.778c0,7.138 10.019,8.926 12.715,2.314l-4.102,0c-1.436,2.041 -4.473,0.869 -4.473,-1.426l8.35,0c0.361,2.979 2.676,5.557 5.869,5.557c1.377,0 2.637,-0.674 3.408,-1.816l0.049,0l0,1.162l20.723,0l2.158,-2.442l2.178,2.442l6.289,0l-5.274,-5.908Zm-43.623,-1.621c0.596,-2.569 4.073,-2.5 4.541,0l-4.541,0Zm14.981,4.775c-3.379,0 -3.321,-6.133 0,-6.133c3.183,0 3.369,6.133 0,6.133Zm16.386,1.865l-9.218,0l0,-16.26l9.277,0l0,2.95l-5.478,0l0,3.31l5.419,0l0,2.744l-5.478,0l0,4.366l5.478,0l0,2.89Zm-4.482,-3.887l0,-2.382l5.479,0l0,-4.297l4.951,5.566l-4.951,5.567l0,-4.454l-5.479,0Zm13.535,1.006l-2.549,2.881l-3.72,0l4.453,-5l-4.453,-5l3.877,0l2.597,2.861l2.5,-2.861l3.76,0l-4.434,4.981l4.493,5.019l-3.955,0l-2.569,-2.881Z" style="fill:#573351;fill-rule:nonzero;"/><path d="M1639.9,159.545c0.301,-0.04 0.607,-0.04 0.908,0c0.162,-0.374 0.19,-1.019 0.044,-1.72c-0.218,-1.042 -0.513,-1.674 -1.121,-1.575c-0.609,0.098 -0.632,0.853 -0.414,1.896c0.123,0.586 0.341,1.088 0.586,1.399l-0.003,0Zm-5.231,0.828c0.437,0.195 0.703,0.318 0.809,0.208c0.185,-0.19 -0.34,-0.917 -1.184,-1.279c-0.989,-0.41 -2.125,-0.273 -2.989,0.36c-0.293,0.213 -0.567,0.51 -0.528,0.689c0.083,0.365 0.976,-0.264 2.207,-0.34c0.683,-0.043 1.25,0.171 1.685,0.363l0,-0.001Zm-0.879,0.501c-0.885,0.138 -1.464,0.637 -1.315,0.986c0.088,0.033 0.114,0.079 0.509,-0.079c0.583,-0.22 1.212,-0.286 1.828,-0.191c0.285,0.034 0.421,0.051 0.482,-0.047c0.143,-0.217 -0.557,-0.782 -1.503,-0.669l-0.001,0Zm5.29,1.67c0.331,-0.671 -1.064,-1.361 -1.396,-0.684c-0.332,0.677 1.066,1.355 1.398,0.681l-0.002,0.003Zm1.53,-1.999c-0.748,-0.013 -0.777,1.543 -0.026,1.555c0.751,0.013 0.78,-1.544 0.028,-1.558l-0.002,0.003Zm-21.366,7.705c-0.129,0.03 -0.586,0.141 -0.828,-0.23c-0.507,-0.781 1.085,-1.99 0.293,-3.493c-0.888,-1.706 -2.716,-1.322 -3.422,-0.541c-0.851,0.938 -0.852,2.299 -0.489,2.352c0.417,0.055 0.399,-0.632 0.721,-1.136c0.231,-0.356 0.627,-0.572 1.051,-0.572c0.246,0 0.487,0.073 0.692,0.209c1.132,0.741 0.134,1.734 0.223,2.794c0.136,1.629 1.799,1.599 2.107,0.879c0.041,-0.072 0.033,-0.163 -0.019,-0.227c0.003,0.087 0.066,-0.127 -0.327,-0.038l-0.002,0.003Zm29.269,-1.667c-0.327,-1.146 -0.251,-0.901 -0.662,-2.004c0.239,-0.359 1.493,-2.344 -0.3,-4.224c-1.015,-1.066 -3.31,-1.615 -4.013,-1.81c-0.147,-1.113 0.454,-5.733 -2.102,-8.106c2.03,-2.104 3.297,-4.423 3.294,-6.411c-0.006,-3.824 -4.702,-4.98 -10.49,-2.585l-1.226,0.521c-0.006,-0.005 -2.218,-2.175 -2.251,-2.205c-6.597,-5.753 -27.228,17.177 -20.632,22.748l1.442,1.221c-0.389,1.044 -0.527,2.165 -0.401,3.272c0.328,3.261 3.516,5.9 6.595,5.896c5.638,12.994 26.162,13.016 31.474,0.293c0.17,-0.436 0.889,-2.403 0.889,-4.139c0,-1.735 -0.985,-2.467 -1.614,-2.467l-0.003,0Zm-30.859,4.703c-2.229,-0.06 -4.635,-2.066 -4.874,-4.445c-0.603,-5.987 7.252,-7.35 8.203,-1.204c0.443,2.895 -0.456,5.712 -3.332,5.646l0.003,0.003Zm-1.808,-11.153c-1.48,0.289 -2.785,1.127 -3.584,2.291c-0.476,-0.398 -1.367,-1.172 -1.522,-1.465c-1.271,-2.427 1.39,-7.129 3.252,-9.786c4.6,-6.566 11.804,-11.535 15.141,-10.633c0.542,0.153 2.338,2.235 2.338,2.235c0,0 -3.335,1.85 -6.426,4.429c-4.166,3.208 -7.313,7.87 -9.199,12.929Zm23.328,9.878c0,0 -3.49,0.518 -6.788,-0.69c0.607,-1.969 2.637,0.596 9.414,-1.349c1.493,-0.427 3.454,-1.269 4.981,-2.475c0.328,0.758 0.562,1.555 0.695,2.371c0.357,-0.065 1.392,-0.051 1.117,1.767c-0.321,1.941 -1.145,3.516 -2.532,4.965c-0.866,0.939 -1.897,1.71 -3.042,2.277c-0.638,0.334 -1.302,0.614 -1.986,0.838c-5.226,1.707 -10.577,-0.17 -12.305,-4.2c-0.14,-0.307 -0.256,-0.625 -0.347,-0.951c-0.735,-2.656 -0.111,-5.843 1.84,-7.849c0.12,-0.127 0.242,-0.278 0.242,-0.467c-0.017,-0.163 -0.082,-0.318 -0.187,-0.444c-0.684,-0.989 -3.046,-2.675 -2.571,-5.94c0.341,-2.344 2.391,-3.995 4.303,-3.898l0.489,0.029c0.828,0.049 1.551,0.155 2.234,0.183c1.141,0.049 2.168,-0.116 3.383,-1.129c0.41,-0.341 0.739,-0.638 1.295,-0.733c0.453,-0.112 0.934,-0.033 1.328,0.219c0.976,0.648 1.113,2.22 1.164,3.368c0.028,0.656 0.107,2.246 0.135,2.698c0.061,1.042 0.335,1.189 0.889,1.367c0.312,0.103 0.601,0.179 1.027,0.299c1.29,0.363 2.05,0.731 2.539,1.202c0.249,0.244 0.411,0.563 0.463,0.908c0.152,1.11 -0.862,2.48 -3.546,3.726c-4.562,2.117 -9.149,1.411 -9.813,1.336c-1.968,-0.265 -3.089,2.277 -1.909,4.019c2.211,3.262 11.953,1.953 14.782,-2.085c0.068,-0.098 0.012,-0.156 -0.071,-0.098c-4.079,2.791 -9.479,3.732 -12.545,2.539c-0.466,-0.181 -1.439,-0.629 -1.557,-1.628c4.258,1.318 6.934,0.072 6.934,0.072c0,0 0.198,-0.272 -0.055,-0.247Zm-14.831,-18.867c1.635,-1.889 3.649,-3.533 5.452,-4.456c0.011,-0.006 0.024,-0.01 0.037,-0.01c0.039,0 0.071,0.032 0.071,0.072c0,0.012 -0.004,0.025 -0.01,0.036c-0.143,0.26 -0.419,0.814 -0.507,1.235c-0.001,0.006 -0.002,0.012 -0.002,0.017c0,0.041 0.033,0.074 0.073,0.074c0.015,0 0.03,-0.005 0.042,-0.014c1.123,-0.764 3.075,-1.584 4.786,-1.689c0.001,0 0.003,0 0.005,0c0.041,0 0.075,0.034 0.075,0.075c0,0.023 -0.011,0.045 -0.03,0.06c-0.283,0.218 -0.536,0.472 -0.753,0.755c-0.009,0.013 -0.014,0.028 -0.014,0.043c0,0.04 0.033,0.073 0.072,0.074c1.202,0.008 2.897,0.429 4.004,1.049c0.074,0.042 0.021,0.186 -0.063,0.167c-6.792,-1.556 -12.019,1.81 -13.134,2.621c-0.012,0.007 -0.026,0.011 -0.041,0.011c-0.04,0 -0.074,-0.033 -0.074,-0.074c0,-0.017 0.006,-0.034 0.017,-0.047l-0.006,0.001Z" style="fill:#573351;fill-rule:nonzero;"/><path d="M1342.16,154.993c0,13.818 -9.463,23.652 -23.438,23.652c-13.398,0 -24.219,-10.82 -24.219,-24.219c0,-13.398 10.821,-24.219 24.219,-24.219c6.524,0 12.012,2.393 16.24,6.338l-6.591,6.338c-8.623,-8.32 -24.659,-2.07 -24.659,11.543c0,8.447 6.748,15.293 15.01,15.293c9.59,0 13.184,-6.875 13.75,-10.439l-13.75,0l0,-8.33l23.057,0c0.224,1.24 0.381,2.431 0.381,4.043Z" style="fill:#573351;fill-rule:nonzero;"/><path d="M1208.39,233.838c0,0.195 -0.224,0.351 -0.508,0.351c-0.322,0.03 -0.547,-0.127 -0.547,-0.351c0,-0.196 0.225,-0.352 0.508,-0.352c0.293,-0.029 0.547,0.127 0.547,0.352Zm-3.037,-0.44c-0.068,0.196 0.127,0.42 0.42,0.479c0.254,0.097 0.547,0 0.605,-0.196c0.059,-0.195 -0.127,-0.419 -0.419,-0.507c-0.254,-0.069 -0.538,0.029 -0.606,0.224Zm4.316,-0.166c-0.283,0.069 -0.478,0.254 -0.449,0.479c0.03,0.195 0.283,0.322 0.576,0.254c0.284,-0.069 0.479,-0.254 0.45,-0.45c-0.03,-0.185 -0.293,-0.312 -0.577,-0.283Zm6.426,-37.422c-13.545,0 -23.906,10.284 -23.906,23.829c0,10.83 6.816,20.097 16.553,23.359c1.25,0.225 1.689,-0.547 1.689,-1.182c0,-0.605 -0.029,-3.945 -0.029,-5.996c0,0 -6.836,1.465 -8.272,-2.91c0,0 -1.113,-2.842 -2.714,-3.574c0,0 -2.237,-1.533 0.156,-1.504c0,0 2.431,0.195 3.769,2.519c2.139,3.77 5.723,2.686 7.119,2.041c0.225,-1.562 0.86,-2.646 1.563,-3.291c-5.459,-0.605 -10.967,-1.396 -10.967,-10.791c0,-2.685 0.742,-4.033 2.305,-5.752c-0.254,-0.634 -1.084,-3.252 0.254,-6.63c2.041,-0.635 6.738,2.636 6.738,2.636c1.953,-0.547 4.053,-0.83 6.133,-0.83c2.08,0 4.18,0.283 6.133,0.83c0,0 4.697,-3.281 6.738,-2.636c1.338,3.388 0.508,5.996 0.254,6.63c1.562,1.729 2.519,3.077 2.519,5.752c0,9.424 -5.752,10.176 -11.211,10.791c0.899,0.772 1.661,2.237 1.661,4.532c0,3.291 -0.03,7.363 -0.03,8.164c0,0.634 0.45,1.406 1.69,1.181c9.765,-3.242 16.386,-12.509 16.386,-23.339c0,-13.545 -10.986,-23.829 -24.531,-23.829Zm-14.414,33.682c-0.127,0.098 -0.097,0.322 0.069,0.508c0.156,0.156 0.38,0.224 0.507,0.098c0.127,-0.098 0.098,-0.323 -0.068,-0.508c-0.156,-0.157 -0.381,-0.225 -0.508,-0.098Zm-1.055,-0.791c-0.068,0.127 0.03,0.283 0.225,0.381c0.156,0.098 0.352,0.068 0.42,-0.068c0.068,-0.127 -0.029,-0.284 -0.225,-0.381c-0.195,-0.059 -0.351,-0.03 -0.42,0.068Zm3.165,3.477c-0.157,0.127 -0.098,0.42 0.126,0.605c0.225,0.225 0.508,0.254 0.635,0.098c0.127,-0.127 0.069,-0.42 -0.127,-0.606c-0.215,-0.224 -0.508,-0.254 -0.634,-0.097Zm-1.114,-1.436c-0.156,0.098 -0.156,0.352 0,0.576c0.157,0.225 0.42,0.322 0.547,0.225c0.156,-0.127 0.156,-0.381 0,-0.606c-0.137,-0.224 -0.39,-0.322 -0.547,-0.195Z" style="fill:#573351;fill-rule:nonzero;"/><clipPath id="_clip6"><rect x="1509.79" y="195.029" width="43.75" height="50"/></clipPath><g clip-path="url(#_clip6)"><path d="M1531.67,208.799c-6.211,0 -11.22,5.009 -11.22,11.22c0,6.211 5.009,11.221 11.22,11.221c6.211,0 11.221,-5.01 11.221,-11.221c0,-6.211 -5.01,-11.22 -11.221,-11.22Zm0,18.515c-4.013,0 -7.295,-3.271 -7.295,-7.295c0,-4.023 3.272,-7.295 7.295,-7.295c4.024,0 7.295,3.272 7.295,7.295c0,4.024 -3.281,7.295 -7.295,7.295Zm14.297,-18.974c0,1.455 -1.172,2.617 -2.617,2.617c-1.455,0 -2.617,-1.172 -2.617,-2.617c0,-1.446 1.172,-2.617 2.617,-2.617c1.445,0 2.617,1.171 2.617,2.617Zm7.432,2.656c-0.166,-3.506 -0.967,-6.611 -3.535,-9.17c-2.559,-2.559 -5.664,-3.359 -9.17,-3.535c-3.614,-0.205 -14.444,-0.205 -18.057,0c-3.496,0.166 -6.602,0.967 -9.17,3.525c-2.568,2.559 -3.359,5.664 -3.535,9.17c-0.205,3.613 -0.205,14.444 0,18.057c0.166,3.506 0.967,6.611 3.535,9.17c2.568,2.558 5.664,3.359 9.17,3.535c3.613,0.205 14.443,0.205 18.057,0c3.506,-0.166 6.611,-0.967 9.17,-3.535c2.558,-2.559 3.359,-5.664 3.535,-9.17c0.205,-3.613 0.205,-14.434 0,-18.047Zm-4.668,21.924c-0.762,1.914 -2.237,3.388 -4.16,4.16c-2.881,1.143 -9.717,0.879 -12.901,0.879c-3.183,0 -10.029,0.254 -12.9,-0.879c-1.914,-0.762 -3.389,-2.236 -4.16,-4.16c-1.143,-2.881 -0.879,-9.717 -0.879,-12.901c0,-3.183 -0.254,-10.029 0.879,-12.9c0.761,-1.914 2.236,-3.389 4.16,-4.16c2.881,-1.143 9.717,-0.879 12.9,-0.879c3.184,0 10.03,-0.254 12.901,0.879c1.914,0.762 3.388,2.236 4.16,4.16c1.142,2.881 0.879,9.717 0.879,12.9c0,3.184 0.263,10.03 -0.879,12.901Z" style="fill:#573351;fill-rule:nonzero;"/></g><path d="M1103.93,305.823l-9.07,0l0,-29.209l9.07,0l0,29.209Zm-4.54,-33.193c-2.9,0 -5.253,-2.402 -5.253,-5.303c0,-2.881 2.371,-5.253 5.253,-5.253c2.882,0 5.253,2.372 5.253,5.253c0,2.901 -2.354,5.303 -5.253,5.303Zm38.487,33.193l-9.05,0l0,-14.218c0,-3.389 -0.069,-7.735 -4.716,-7.735c-4.716,0 -5.439,3.682 -5.439,7.491l0,14.462l-9.06,0l0,-29.209l8.699,0l0,3.985l0.127,0c1.211,-2.295 4.169,-4.717 8.582,-4.717c9.18,0 10.867,6.045 10.867,13.896l0,16.045l-0.01,0Z" style="fill:#573351;fill-rule:nonzero;"/><path d="M1652.76,198.154l-37.129,0c-1.826,0 -3.31,1.485 -3.31,3.311l0,37.119c0,1.836 1.484,3.32 3.31,3.32l37.119,0c1.827,0 3.311,-1.484 3.311,-3.31l0,-37.129c0.01,-1.826 -1.475,-3.311 -3.301,-3.311Zm-17.236,35.069c-7.285,0.732 -13.789,-4.581 -14.522,-11.866l9.219,0l0,1.992c0,0.362 0.293,0.665 0.664,0.665l6.631,0c0.361,0 0.664,-0.293 0.664,-0.665l0,-6.63c0,-0.362 -0.293,-0.664 -0.664,-0.664l-6.631,0c-0.361,0 -0.664,0.293 -0.664,0.664l0,1.992l-9.219,0c0.684,-6.778 6.387,-11.934 13.194,-11.934c6.806,0 12.509,5.156 13.193,11.934c0.732,7.275 -4.58,13.779 -11.865,14.512Z" style="fill:#573351;fill-rule:nonzero;"/><path d="M1422.65,293.506c-0.342,1.875 -1.7,10.615 -2.1,13.086c-0.029,0.175 -0.098,0.244 -0.293,0.244l-7.285,0c-0.742,0 -1.28,-0.645 -1.182,-1.358l5.723,-36.318c0.146,-0.937 0.986,-1.65 1.953,-1.65c14.873,0 16.123,-0.362 19.922,1.113c5.869,2.275 6.406,7.764 4.297,13.701c-2.1,6.113 -7.08,8.74 -13.682,8.818c-4.238,0.069 -6.787,-0.683 -7.353,2.364Zm23.994,-14.053c-0.176,-0.127 -0.244,-0.176 -0.293,0.127c-0.196,1.113 -0.498,2.197 -0.86,3.281c-3.896,11.114 -14.697,10.147 -19.97,10.147c-0.596,0 -0.987,0.322 -1.065,0.918c-2.207,13.711 -2.646,16.572 -2.646,16.572c-0.098,0.693 0.341,1.26 1.035,1.26l6.201,0c0.84,0 1.533,-0.616 1.699,-1.455c0.069,-0.528 -0.107,0.595 1.406,-8.916c0.45,-2.149 1.397,-1.924 2.862,-1.924c6.933,0 12.344,-2.813 13.955,-10.967c0.635,-3.398 0.449,-6.973 -2.324,-9.043Z" style="fill:#573351;fill-rule:nonzero;"/><path d="M1429.45,150.818c-2.451,2.314 -3.985,5.596 -3.985,9.238c0,2.861 0.948,5.498 2.54,7.617l-4.834,4.864c-0.43,-0.157 -0.889,-0.245 -1.368,-0.245c-1.054,0 -2.041,0.411 -2.783,1.153c-0.742,0.742 -1.152,1.738 -1.152,2.793c0,1.054 0.41,2.041 1.152,2.783c0.742,0.742 1.738,1.133 2.783,1.133c1.055,0 2.041,-0.381 2.793,-1.133c0.743,-0.742 1.153,-1.738 1.153,-2.783c0,-0.41 -0.059,-0.801 -0.186,-1.182l4.883,-4.902c2.148,1.65 4.824,2.627 7.744,2.627c7.022,0 12.695,-5.694 12.695,-12.715c0,-6.367 -4.658,-11.641 -10.761,-12.568l0,-6.016c1.709,-0.723 2.754,-2.324 2.754,-4.19c0,-2.548 -2.041,-4.677 -4.59,-4.677c-2.549,0 -4.561,2.129 -4.561,4.677c0,1.866 1.045,3.467 2.754,4.19l0,5.976c-1.484,0.206 -2.891,0.655 -4.17,1.329c-2.695,-2.041 -11.474,-8.37 -16.494,-12.188c0.117,-0.43 0.195,-0.879 0.195,-1.348c0,-2.812 -2.295,-5.097 -5.117,-5.097c-2.812,0 -5.097,2.285 -5.097,5.097c0,2.823 2.285,5.108 5.097,5.108c0.957,0 1.846,-0.283 2.617,-0.742l15.938,11.201Zm8.74,15.976c-3.721,0 -6.738,-3.017 -6.738,-6.738c0,-3.721 3.017,-6.738 6.738,-6.738c3.721,0 6.738,3.017 6.738,6.738c0,3.721 -3.017,6.738 -6.738,6.738Z" style="fill:#573351;fill-rule:nonzero;"/></g><text x="1089.35px" y="91.196px" style="font-family:'Lato-Regular', 'Lato', sans-serif;font-size:64px;fill:#573351;stroke:#573351;stroke-width:1px;stroke-linecap:butt;stroke-miterlimit:2;">Y<tspan x="1122.27px " y="91.196px ">o</tspan>ur<tspan x="1216.19px " y="91.196px "> </tspan>3r<tspan x="1291.75px " y="91.196px ">d</tspan> party<tspan x="1489.31px " y="91.196px "> </tspan>servic<tspan x="1668.87px " y="91.196px ">e</tspan>s</text><circle cx="947.527" cy="234.416" r="12.032" style="fill:#fff;stroke:#020202;stroke-width:5px;"/></g></svg>