<?xml version="1.0" encoding="UTF-8" standalone="no"?><!DOCTYPE svg PUBLIC "-//W3C//DTD SVG 1.1//EN" "http://www.w3.org/Graphics/SVG/1.1/DTD/svg11.dtd"><svg width="100%" height="100%" viewBox="0 0 1813 1203" version="1.1" xmlns="http://www.w3.org/2000/svg" xmlns:xlink="http://www.w3.org/1999/xlink" xml:space="preserve" xmlns:serif="http://www.serif.com/" style="fill-rule:evenodd;clip-rule:evenodd;stroke-linecap:round;stroke-linejoin:round;stroke-miterlimit:1.5;"><rect id="basics-internet-of-things" x="0" y="0" width="1812.54" height="1202.45" style="fill:none;"/><g id="Rings"><path id="Ring-3" serif:id="Ring 3" d="M604.197,104.41c274.816,0 497.932,223.116 497.932,497.933c0,274.816 -223.116,497.932 -497.932,497.932c-274.817,0 -497.933,-223.116 -497.933,-497.932c0,-274.817 223.116,-497.933 497.933,-497.933Zm0,153.644c190.018,0 344.288,154.271 344.288,344.289c0,190.018 -154.27,344.288 -344.288,344.288c-190.018,0 -344.288,-154.27 -344.288,-344.288c0,-190.018 154.27,-344.289 344.288,-344.289Z" style="fill:#b73a7d;fill-opacity:0.17;stroke:#573351;stroke-width:5px;"/><path id="Ring-2" serif:id="Ring 2" d="M604.197,258.054c190.018,0 344.288,154.271 344.288,344.289c0,190.018 -154.27,344.288 -344.288,344.288c-190.018,0 -344.288,-154.27 -344.288,-344.288c0,-190.018 154.27,-344.289 344.288,-344.289Zm0,168.468c67.741,0 126.586,38.394 155.943,94.589c12.696,24.303 19.877,51.935 19.877,81.232c0,97.038 -78.782,175.82 -175.82,175.82c-97.038,0 -175.821,-78.782 -175.821,-175.82c0,-97.038 78.783,-175.821 175.821,-175.821Z" style="fill:#b73a7d;fill-opacity:0.32;stroke:#573351;stroke-width:5px;"/><circle id="Ring-1" serif:id="Ring 1" cx="604.197" cy="602.343" r="175.82" style="fill:#b73a7d;fill-opacity:0.7;stroke:#573351;stroke-width:5px;"/><clipPath id="_clip1"><rect x="554.197" y="472.343" width="100" height="260"/></clipPath><g clip-path="url(#_clip1)"><g><path d="M572.197,506.343c0,-17.555 14.445,-32 32,-32c17.554,0 32,14.445 32,32c0,17.554 -14.446,32 -32,32c-17.555,0 -32,-14.446 -32,-32Z" style="fill:#fff;fill-rule:nonzero;"/><path d="M571.161,505.918l0.003,-0.211l0.003,-0.108l0.002,-0.104l0.006,-0.211l0.007,-0.21l0.008,-0.211l0.01,-0.21l0.011,-0.21l0.013,-0.209l0.014,-0.209l0.015,-0.209l0.016,-0.209l0.018,-0.208l0.019,-0.208l0.021,-0.207l0.021,-0.207l0.023,-0.207l0.025,-0.207l0.025,-0.206l0.027,-0.205l0.028,-0.205l0.029,-0.205l0.031,-0.205l0.032,-0.204l0.033,-0.204l0.035,-0.203l0.035,-0.203l0.037,-0.202l0.038,-0.203l0.04,-0.201l0.041,-0.202l0.041,-0.2l0.044,-0.201l0.044,-0.2l0.045,-0.199l0.047,-0.199l0.048,-0.199l0.049,-0.198l0.051,-0.198l0.051,-0.197l0.053,-0.197l0.054,-0.197l0.055,-0.196l0.056,-0.195l0.058,-0.195l0.059,-0.194l0.059,-0.194l0.061,-0.194l0.063,-0.193l0.063,-0.192l0.064,-0.192l0.066,-0.192l0.067,-0.191l0.058,-0.164l0.01,-0.026l0.069,-0.19l0.07,-0.189l0.071,-0.189l0.073,-0.189l0.073,-0.187l0.075,-0.188l0.075,-0.186l0.077,-0.186l0.078,-0.186l0.079,-0.185l0.081,-0.185l0.081,-0.183l0.082,-0.184l0.084,-0.183l0.084,-0.182l0.086,-0.181l0.086,-0.181l0.088,-0.181l0.089,-0.179l0.089,-0.18l0.091,-0.178l0.092,-0.178l0.093,-0.178l0.094,-0.176l0.095,-0.177l0.096,-0.175l0.097,-0.175l0.098,-0.174l0.099,-0.174l0.1,-0.173l0.101,-0.172l0.102,-0.172l0.103,-0.171l0.104,-0.17l0.106,-0.17l0.106,-0.169l0.107,-0.168l0.108,-0.168l0.109,-0.167l0.11,-0.167l0.111,-0.165l0.111,-0.165l0.113,-0.164l0.114,-0.164l0.115,-0.163l0.116,-0.162l0.116,-0.162l0.118,-0.16l0.118,-0.16l0.12,-0.16l0.12,-0.158l0.121,-0.158l0.123,-0.157l0.123,-0.157l0.124,-0.155l0.125,-0.155l0.125,-0.154l0.127,-0.154l0.128,-0.152l0.128,-0.152l0.13,-0.151l0.13,-0.151l0.131,-0.149l0.132,-0.149l0.133,-0.148l0.134,-0.147l0.134,-0.147l0.136,-0.145l0.136,-0.145l0.137,-0.144l0.138,-0.143l0.139,-0.143l0.14,-0.141l0.14,-0.141l0.141,-0.14l0.143,-0.139l0.143,-0.139l0.143,-0.137l0.145,-0.137l0.145,-0.136l0.147,-0.134l0.147,-0.135l0.147,-0.133l0.149,-0.132l0.149,-0.132l0.151,-0.13l0.151,-0.13l0.151,-0.129l0.153,-0.128l0.026,-0.022l0.127,-0.105l0.154,-0.126l0.155,-0.125l0.156,-0.124l0.157,-0.124l0.157,-0.122l0.158,-0.122l0.158,-0.12l0.16,-0.12l0.16,-0.119l0.161,-0.118l0.162,-0.116l0.162,-0.116l0.163,-0.115l0.164,-0.114l0.164,-0.114l0.165,-0.112l0.166,-0.111l0.167,-0.11l0.167,-0.109l0.168,-0.109l0.169,-0.107l0.169,-0.106l0.17,-0.106l0.171,-0.104l0.171,-0.103l0.172,-0.103l0.173,-0.101l0.173,-0.1l0.174,-0.1l0.175,-0.098l0.175,-0.097l0.176,-0.097l0.176,-0.095l0.177,-0.094l0.178,-0.093l0.179,-0.092l0.179,-0.091l0.179,-0.09l0.181,-0.089l0.181,-0.088l0.181,-0.087l0.182,-0.086l0.183,-0.085l0.183,-0.083l0.184,-0.083l0.184,-0.081l0.185,-0.081l0.186,-0.079l0.186,-0.078l0.187,-0.078l0.187,-0.076l0.188,-0.074l0.188,-0.074l0.189,-0.073l0.19,-0.071l0.19,-0.071l0.19,-0.069l0.192,-0.068l0.191,-0.067l0.192,-0.066l0.193,-0.065l0.193,-0.064l0.194,-0.062l0.194,-0.061l0.195,-0.06l0.195,-0.059l0.196,-0.058l0.196,-0.057l0.197,-0.055l0.197,-0.054l0.198,-0.053l0.198,-0.052l0.199,-0.051l0.199,-0.049l0.199,-0.048l0.2,-0.047l0.201,-0.046l0.201,-0.044l0.201,-0.044l0.202,-0.042l0.202,-0.041l0.203,-0.039l0.203,-0.039l0.203,-0.037l0.204,-0.036l0.205,-0.034l0.204,-0.034l0.205,-0.032l0.206,-0.031l0.206,-0.029l0.206,-0.028l0.207,-0.027l0.207,-0.026l0.208,-0.024l0.208,-0.024l0.208,-0.021l0.209,-0.021l0.209,-0.019l0.209,-0.018l0.21,-0.017l0.21,-0.015l0.21,-0.014l0.211,-0.012l0.211,-0.012l0.075,-0.003l0.137,-0.006l0.211,-0.008l0.212,-0.007l0.213,-0.006l0.212,-0.004l0.213,-0.003l0.214,-0.001l0.213,0l0.213,0.001l0.213,0.003l0.212,0.004l0.213,0.006l0.211,0.007l0.212,0.008l0.211,0.009l0.211,0.011l0.211,0.012l0.21,0.014l0.21,0.015l0.21,0.016l0.209,0.017l0.209,0.019l0.208,0.02l0.209,0.021l0.208,0.023l0.207,0.024l0.207,0.025l0.207,0.027l0.207,0.028l0.206,0.029l0.205,0.031l0.206,0.031l0.205,0.033l0.204,0.034l0.204,0.036l0.204,0.037l0.203,0.038l0.203,0.039l0.202,0.041l0.202,0.041l0.202,0.043l0.201,0.044l0.201,0.046l0.2,0.047l0.2,0.047l0.2,0.05l0.198,0.05l0.199,0.051l0.198,0.053l0.198,0.054l0.197,0.055l0.196,0.056l0.196,0.058l0.086,0.025l0.11,0.034l0.195,0.06l0.195,0.062l0.194,0.062l0.193,0.064l0.193,0.065l0.193,0.066l0.192,0.067l0.191,0.069l0.191,0.069l0.191,0.071l0.189,0.072l0.19,0.073l0.189,0.074l0.188,0.075l0.188,0.076l0.187,0.077l0.186,0.079l0.186,0.08l0.186,0.08l0.185,0.082l0.184,0.083l0.183,0.084l0.184,0.085l0.182,0.086l0.182,0.087l0.181,0.089l0.181,0.089l0.18,0.091l0.18,0.091l0.179,0.093l0.178,0.093l0.178,0.095l0.177,0.095l0.176,0.097l0.176,0.098l0.175,0.099l0.174,0.099l0.174,0.101l0.173,0.102l0.173,0.103l0.171,0.104l0.172,0.105l0.17,0.106l0.17,0.106l0.169,0.108l0.169,0.109l0.167,0.11l0.167,0.111l0.167,0.111l0.165,0.113l0.165,0.114l0.165,0.114l0.163,0.116l0.014,0.01l0.149,0.107l0.162,0.118l0.161,0.119l0.16,0.119l0.16,0.121l0.159,0.122l0.158,0.122l0.157,0.124l0.157,0.124l0.156,0.126l0.155,0.126l0.154,0.127l0.154,0.128l0.152,0.129l0.152,0.13l0.152,0.13l0.15,0.132l0.15,0.133l0.149,0.133l0.148,0.134l0.147,0.135l0.146,0.136l0.146,0.137l0.145,0.138l0.144,0.138l0.143,0.139l0.142,0.141l0.142,0.141l0.141,0.141l0.139,0.143l0.139,0.144l0.139,0.144l0.137,0.145l0.136,0.146l0.136,0.147l0.135,0.147l0.134,0.149l0.133,0.149l0.132,0.15l0.131,0.15l0.13,0.152l0.13,0.152l0.128,0.153l0.128,0.154l0.127,0.155l0.125,0.155l0.125,0.156l0.124,0.157l0.123,0.158l0.123,0.158l0.121,0.159l0.12,0.16l0.12,0.161l0.118,0.161l0.117,0.162l0.117,0.163l0.116,0.163l0.114,0.164l0.114,0.165l0.113,0.166l0.111,0.166l0.111,0.167l0.11,0.168l0.109,0.168l0.108,0.169l0.106,0.17l0.106,0.17l0.105,0.171l0.104,0.172l0.103,0.173l0.102,0.173l0.101,0.173l0.099,0.175l0.099,0.175l0.098,0.175l0.097,0.177l0.095,0.177l0.095,0.177l0.093,0.178l0.013,0.024l0.08,0.155l0.091,0.18l0.09,0.18l0.089,0.181l0.089,0.181l0.087,0.182l0.085,0.182l0.085,0.184l0.084,0.183l0.083,0.185l0.081,0.184l0.081,0.186l0.079,0.186l0.079,0.186l0.077,0.188l0.076,0.187l0.075,0.188l0.074,0.189l0.072,0.19l0.072,0.189l0.07,0.191l0.07,0.191l0.068,0.191l0.067,0.192l0.066,0.193l0.065,0.193l0.063,0.193l0.062,0.194l0.062,0.195l0.06,0.195l0.059,0.195l0.057,0.196l0.057,0.197l0.055,0.196l0.054,0.198l0.053,0.198l0.052,0.198l0.05,0.199l0.05,0.199l0.048,0.2l0.047,0.2l0.045,0.201l0.045,0.201l0.043,0.201l0.042,0.202l0.041,0.202l0.039,0.203l0.038,0.203l0.037,0.204l0.036,0.204l0.035,0.204l0.033,0.205l0.032,0.205l0.03,0.206l0.03,0.206l0.028,0.206l0.027,0.207l0.025,0.207l0.024,0.207l0.023,0.208l0.022,0.208l0.02,0.209l0.019,0.208l0.018,0.21l0.016,0.209l0.016,0.21l0.013,0.21l0.013,0.211l0.011,0.211l0.009,0.211l0.009,0.211l0.007,0.212l0.006,0.212l0.004,0.213l0.003,0.212l0.001,0.213l0.001,0.214l-0.002,0.213l-0.002,0.213l-0.004,0.213l-0.005,0.212l-0.007,0.212l-0.008,0.212l-0.009,0.211l-0.01,0.211l-0.012,0.211l-0.014,0.21l-0.014,0.211l-0.016,0.209l-0.018,0.21l-0.018,0.209l-0.02,0.208l-0.021,0.209l-0.023,0.208l-0.024,0.207l-0.025,0.208l-0.026,0.206l-0.005,0.034l-0.023,0.173l-0.029,0.206l-0.03,0.206l-0.032,0.205l-0.033,0.205l-0.034,0.204l-0.036,0.204l-0.036,0.204l-0.038,0.203l-0.039,0.203l-0.041,0.202l-0.042,0.202l-0.042,0.202l-0.045,0.201l-0.045,0.2l-0.047,0.201l-0.047,0.199l-0.049,0.2l-0.051,0.198l-0.051,0.199l-0.053,0.198l-0.054,0.197l-0.055,0.197l-0.056,0.196l-0.057,0.196l-0.059,0.196l-0.06,0.194l-0.06,0.195l-0.063,0.194l-0.063,0.193l-0.064,0.193l-0.066,0.192l-0.066,0.192l-0.068,0.192l-0.069,0.19l-0.07,0.191l-0.072,0.189l-0.072,0.19l-0.074,0.188l-0.074,0.188l-0.076,0.188l-0.077,0.187l-0.078,0.186l-0.079,0.186l-0.08,0.185l-0.081,0.185l-0.083,0.184l-0.083,0.184l-0.084,0.183l-0.086,0.182l-0.087,0.182l-0.087,0.181l-0.089,0.18l-0.09,0.18l-0.091,0.18l-0.092,0.178l-0.093,0.178l-0.094,0.178l-0.095,0.177l-0.096,0.176l-0.097,0.175l-0.098,0.175l-0.099,0.174l-0.101,0.174l-0.101,0.173l-0.102,0.172l-0.103,0.172l-0.104,0.171l-0.106,0.17l-0.106,0.17l-0.107,0.169l-0.108,0.168l-0.109,0.167l-0.11,0.167l-0.111,0.166l-0.112,0.166l-0.113,0.165l-0.114,0.164l-0.115,0.163l-0.116,0.163l-0.117,0.162l-0.118,0.161l-0.118,0.16l-0.12,0.16l-0.121,0.159l-0.121,0.158l-0.122,0.158l-0.124,0.156l-0.124,0.156l-0.125,0.156l-0.126,0.154l-0.127,0.154l-0.128,0.153l-0.128,0.152l-0.13,0.151l-0.13,0.151l-0.132,0.15l-0.132,0.149l-0.133,0.148l-0.134,0.147l-0.135,0.147l-0.135,0.146l-0.137,0.145l-0.137,0.144l-0.138,0.144l-0.14,0.142l-0.139,0.142l-0.141,0.141l-0.142,0.14l-0.142,0.139l-0.143,0.138l-0.144,0.138l-0.145,0.137l-0.146,0.136l-0.146,0.135l-0.147,0.134l-0.148,0.133l-0.149,0.132l-0.15,0.132l-0.15,0.13l-0.151,0.13l-0.152,0.129l-0.153,0.128l-0.153,0.127l-0.154,0.126l-0.155,0.126l-0.156,0.124l-0.156,0.123l-0.158,0.123l-0.158,0.121l-0.158,0.121l-0.16,0.12l-0.16,0.119l-0.161,0.118l-0.161,0.117l-0.163,0.116l-0.163,0.115l-0.163,0.114l-0.165,0.113l-0.165,0.112l-0.166,0.111l-0.166,0.11l-0.167,0.11l-0.168,0.108l-0.169,0.107l-0.169,0.107l-0.17,0.105l-0.17,0.104l-0.172,0.104l-0.172,0.102l-0.172,0.101l-0.173,0.101l-0.174,0.099l-0.175,0.098l-0.175,0.097l-0.175,0.097l-0.177,0.095l-0.177,0.094l-0.177,0.093l-0.179,0.092l-0.178,0.091l-0.18,0.09l-0.18,0.089l-0.181,0.088l-0.181,0.087l-0.182,0.085l-0.182,0.085l-0.183,0.084l-0.184,0.082l-0.184,0.081l-0.185,0.081l-0.185,0.079l-0.186,0.078l-0.186,0.077l-0.187,0.076l-0.188,0.075l-0.188,0.073l-0.188,0.073l-0.19,0.071l-0.189,0.071l-0.19,0.069l-0.191,0.068l-0.191,0.067l-0.192,0.065l-0.192,0.065l-0.193,0.063l-0.193,0.063l-0.194,0.061l-0.194,0.06l-0.195,0.059l-0.195,0.057l-0.196,0.057l-0.196,0.055l-0.197,0.054l-0.197,0.053l-0.198,0.051l-0.198,0.051l-0.198,0.049l-0.199,0.048l-0.2,0.047l-0.2,0.045l-0.2,0.045l-0.201,0.043l-0.201,0.042l-0.201,0.041l-0.202,0.039l-0.203,0.038l-0.203,0.037l-0.203,0.036l-0.204,0.034l-0.204,0.034l-0.204,0.032l-0.205,0.03l-0.205,0.03l-0.206,0.028l-0.206,0.027l-0.206,0.025l-0.207,0.024l-0.207,0.023l-0.207,0.022l-0.208,0.021l-0.208,0.019l-0.171,0.014l-0.038,0.003l-0.208,0.017l-0.21,0.015l-0.209,0.014l-0.21,0.012l-0.21,0.011l-0.21,0.01l-0.211,0.008l-0.211,0.007l-0.212,0.006l-0.211,0.005l-0.212,0.003l-0.213,0.001l-0.212,0.001l-0.213,-0.001l-0.212,-0.003l-0.212,-0.004l-0.212,-0.005l-0.211,-0.006l-0.211,-0.008l-0.211,-0.009l-0.21,-0.011l-0.21,-0.011l-0.21,-0.014l-0.209,-0.014l-0.209,-0.016l-0.209,-0.017l-0.208,-0.018l-0.208,-0.02l-0.208,-0.021l-0.207,-0.022l-0.207,-0.024l-0.207,-0.025l-0.206,-0.026l-0.206,-0.028l-0.205,-0.028l-0.205,-0.03l-0.205,-0.032l-0.204,-0.032l-0.204,-0.034l-0.203,-0.035l-0.203,-0.036l-0.203,-0.038l-0.202,-0.039l-0.202,-0.04l-0.201,-0.041l-0.201,-0.043l-0.201,-0.043l-0.2,-0.045l-0.199,-0.046l-0.199,-0.048l-0.199,-0.048l-0.198,-0.05l-0.198,-0.051l-0.197,-0.053l-0.197,-0.053l-0.196,-0.055l-0.196,-0.055l-0.196,-0.057l-0.194,-0.058l-0.195,-0.06l-0.194,-0.06l-0.193,-0.062l-0.193,-0.063l-0.192,-0.064l-0.192,-0.065l-0.192,-0.066l-0.191,-0.067l-0.19,-0.069l-0.19,-0.069l-0.189,-0.071l-0.189,-0.072l-0.188,-0.073l-0.187,-0.074l-0.187,-0.076l-0.187,-0.076l-0.186,-0.077l-0.185,-0.079l-0.185,-0.08l-0.184,-0.08l-0.184,-0.082l-0.183,-0.083l-0.183,-0.084l-0.182,-0.085l-0.181,-0.086l-0.181,-0.088l-0.18,-0.088l-0.179,-0.089l-0.179,-0.091l-0.179,-0.091l-0.177,-0.092l-0.177,-0.094l-0.177,-0.094l-0.176,-0.096l-0.175,-0.097l-0.174,-0.097l-0.174,-0.099l-0.173,-0.1l-0.173,-0.1l-0.172,-0.102l-0.171,-0.103l-0.171,-0.103l-0.17,-0.105l-0.169,-0.106l-0.169,-0.106l-0.168,-0.108l-0.167,-0.109l-0.167,-0.109l-0.165,-0.111l-0.166,-0.111l-0.164,-0.113l-0.164,-0.113l-0.163,-0.114l-0.162,-0.116l-0.162,-0.116l-0.161,-0.117l-0.16,-0.118l-0.159,-0.119l-0.159,-0.12l-0.158,-0.121l-0.157,-0.122l-0.157,-0.123l-0.156,-0.124l-0.155,-0.124l-0.154,-0.126l-0.154,-0.126l-0.152,-0.127l-0.152,-0.128l-0.151,-0.13l-0.151,-0.129l-0.15,-0.131l-0.148,-0.132l-0.148,-0.132l-0.148,-0.134l-0.146,-0.134l-0.146,-0.135l-0.145,-0.136l-0.144,-0.137l-0.143,-0.138l-0.142,-0.138l-0.142,-0.14l-0.141,-0.14l-0.14,-0.141l-0.139,-0.142l-0.138,-0.142l-0.137,-0.144l-0.137,-0.144l-0.136,-0.145l-0.135,-0.146l-0.134,-0.147l-0.133,-0.147l-0.132,-0.148l-0.132,-0.149l-0.13,-0.15l-0.13,-0.151l-0.128,-0.151l-0.128,-0.152l-0.127,-0.153l-0.126,-0.154l-0.126,-0.154l-0.124,-0.156l-0.123,-0.156l-0.123,-0.156l-0.121,-0.158l-0.121,-0.158l-0.12,-0.159l-0.118,-0.159l-0.118,-0.161l-0.117,-0.161l-0.116,-0.162l-0.115,-0.162l-0.114,-0.163l-0.113,-0.164l-0.113,-0.165l-0.111,-0.165l-0.11,-0.166l-0.109,-0.167l-0.108,-0.167l-0.108,-0.168l-0.106,-0.169l-0.105,-0.17l-0.105,-0.17l-0.103,-0.17l-0.102,-0.172l-0.102,-0.172l-0.1,-0.172l-0.099,-0.174l-0.099,-0.174l-0.097,-0.174l-0.096,-0.176l-0.095,-0.176l-0.095,-0.176l-0.093,-0.177l-0.092,-0.178l-0.091,-0.178l-0.09,-0.179l-0.089,-0.18l-0.088,-0.18l-0.087,-0.181l-0.085,-0.181l-0.085,-0.182l-0.084,-0.183l-0.082,-0.183l-0.082,-0.184l-0.08,-0.184l-0.079,-0.185l-0.079,-0.185l-0.077,-0.186l-0.076,-0.187l-0.075,-0.187l-0.073,-0.187l-0.073,-0.189l-0.071,-0.188l-0.071,-0.189l-0.069,-0.19l-0.068,-0.191l-0.067,-0.19l-0.066,-0.192l-0.065,-0.192l-0.063,-0.192l-0.063,-0.193l-0.061,-0.193l-0.06,-0.194l-0.059,-0.194l-0.057,-0.195l-0.057,-0.195l-0.055,-0.196l-0.055,-0.196l-0.053,-0.197l-0.051,-0.197l-0.051,-0.198l-0.049,-0.198l-0.048,-0.199l-0.047,-0.199l-0.046,-0.199l-0.045,-0.2l-0.043,-0.2l-0.042,-0.201l-0.041,-0.201l-0.04,-0.202l-0.038,-0.202l-0.037,-0.203l-0.036,-0.202l-0.034,-0.204l-0.034,-0.203l-0.032,-0.204l-0.031,-0.205l-0.029,-0.205l-0.029,-0.205l-0.027,-0.206l-0.025,-0.206l-0.025,-0.206l-0.023,-0.207l-0.022,-0.207l-0.02,-0.207l-0.02,-0.208l-0.018,-0.208l-0.016,-0.208l-0.016,-0.209l-0.014,-0.209l-0.012,-0.21l-0.012,-0.21l-0.01,-0.21l-0.008,-0.21l-0.008,-0.211l-0.003,-0.105l-0.003,-0.106l-0.004,-0.211l-0.003,-0.212l-0.002,-0.212l-0.001,-0.212l0,-0.213l0.002,-0.212Zm2.076,0.822l0.004,0.199l0.004,0.198l0.006,0.197l0.007,0.198l0.009,0.197l0.009,0.197l0.011,0.196l0.012,0.196l0.013,0.196l0.015,0.196l0.016,0.195l0.017,0.195l0.018,0.194l0.019,0.195l0.021,0.193l0.022,0.194l0.023,0.193l0.024,0.193l0.026,0.192l0.027,0.193l0.028,0.191l0.029,0.192l0.03,0.191l0.031,0.19l0.033,0.19l0.034,0.19l0.035,0.19l0.036,0.189l0.037,0.189l0.039,0.188l0.039,0.188l0.041,0.187l0.042,0.187l0.043,0.187l0.044,0.186l0.045,0.186l0.047,0.185l0.047,0.185l0.049,0.185l0.05,0.184l0.051,0.184l0.052,0.183l0.053,0.183l0.054,0.182l0.056,0.182l0.056,0.181l0.058,0.181l0.058,0.181l0.06,0.179l0.061,0.18l0.062,0.179l0.062,0.179l0.064,0.178l0.066,0.177l0.066,0.177l0.067,0.177l0.068,0.176l0.069,0.176l0.071,0.175l0.071,0.174l0.072,0.174l0.074,0.174l0.074,0.173l0.076,0.172l0.076,0.172l0.078,0.172l0.078,0.171l0.08,0.17l0.08,0.17l0.082,0.169l0.083,0.169l0.083,0.168l0.085,0.167l0.085,0.167l0.087,0.167l0.087,0.165l0.089,0.166l0.089,0.164l0.09,0.164l0.092,0.164l0.092,0.163l0.093,0.162l0.095,0.162l0.095,0.161l0.096,0.16l0.097,0.16l0.098,0.159l0.099,0.159l0.1,0.158l0.101,0.157l0.101,0.157l0.103,0.156l0.103,0.155l0.105,0.155l0.105,0.154l0.106,0.154l0.108,0.153l0.108,0.152l0.108,0.151l0.11,0.151l0.111,0.15l0.111,0.15l0.113,0.148l0.113,0.148l0.114,0.148l0.115,0.147l0.116,0.146l0.117,0.145l0.118,0.144l0.118,0.144l0.119,0.143l0.12,0.143l0.121,0.142l0.122,0.141l0.123,0.14l0.123,0.139l0.124,0.139l0.125,0.138l0.126,0.137l0.127,0.137l0.127,0.136l0.128,0.135l0.13,0.134l0.129,0.133l0.131,0.133l0.131,0.132l0.133,0.131l0.132,0.131l0.134,0.129l0.135,0.129l0.135,0.128l0.136,0.127l0.137,0.127l0.137,0.125l0.138,0.125l0.139,0.124l0.14,0.123l0.141,0.122l0.141,0.122l0.142,0.121l0.142,0.119l0.144,0.119l0.144,0.119l0.144,0.117l0.146,0.116l0.146,0.116l0.147,0.115l0.147,0.114l0.149,0.113l0.149,0.112l0.149,0.111l0.151,0.11l0.151,0.11l0.151,0.108l0.152,0.108l0.153,0.107l0.154,0.106l0.154,0.105l0.155,0.104l0.156,0.103l0.156,0.102l0.157,0.102l0.157,0.1l0.158,0.1l0.159,0.098l0.159,0.098l0.16,0.097l0.161,0.096l0.161,0.094l0.162,0.094l0.162,0.093l0.163,0.092l0.164,0.091l0.164,0.09l0.165,0.089l0.165,0.088l0.166,0.088l0.166,0.086l0.167,0.085l0.168,0.084l0.168,0.083l0.169,0.082l0.169,0.082l0.17,0.08l0.17,0.079l0.171,0.078l0.172,0.077l0.172,0.076l0.172,0.075l0.173,0.075l0.174,0.073l0.174,0.072l0.174,0.071l0.175,0.07l0.176,0.068l0.176,0.068l0.177,0.067l0.177,0.066l0.177,0.064l0.178,0.064l0.179,0.062l0.179,0.062l0.179,0.06l0.18,0.06l0.181,0.058l0.181,0.057l0.181,0.056l0.182,0.055l0.182,0.054l0.183,0.052l0.183,0.052l0.184,0.05l0.184,0.05l0.184,0.048l0.185,0.047l0.185,0.046l0.186,0.045l0.186,0.044l0.187,0.043l0.186,0.041l0.188,0.04l0.188,0.039l0.188,0.038l0.188,0.037l0.189,0.036l0.19,0.035l0.189,0.033l0.19,0.032l0.191,0.031l0.191,0.03l0.191,0.028l0.191,0.028l0.192,0.026l0.193,0.025l0.192,0.024l0.193,0.023l0.193,0.021l0.194,0.02l0.194,0.019l0.194,0.018l0.195,0.017l0.195,0.015l0.195,0.014l0.196,0.013l0.196,0.012l0.196,0.01l0.197,0.009l0.197,0.008l0.197,0.007l0.197,0.005l0.198,0.004l0.198,0.003l0.198,0.001l0.199,0.001l0.198,-0.001l0.199,-0.003l0.198,-0.003l0.197,-0.005l0.198,-0.006l0.197,-0.007l0.197,-0.009l0.196,-0.01l0.196,-0.011l0.196,-0.012l0.196,-0.014l0.195,-0.015l0.195,-0.016l0.034,-0.003l0.16,-0.014l0.195,-0.018l0.193,-0.02l0.194,-0.021l0.193,-0.022l0.193,-0.023l0.192,-0.024l0.192,-0.026l0.192,-0.027l0.192,-0.028l0.191,-0.029l0.19,-0.031l0.19,-0.031l0.19,-0.033l0.19,-0.034l0.189,-0.035l0.188,-0.037l0.189,-0.037l0.188,-0.039l0.187,-0.039l0.187,-0.041l0.187,-0.042l0.186,-0.043l0.186,-0.045l0.185,-0.045l0.185,-0.047l0.185,-0.047l0.184,-0.049l0.184,-0.05l0.183,-0.051l0.183,-0.052l0.182,-0.054l0.182,-0.054l0.182,-0.056l0.181,-0.056l0.18,-0.058l0.18,-0.058l0.18,-0.06l0.179,-0.061l0.178,-0.062l0.178,-0.063l0.178,-0.064l0.177,-0.065l0.177,-0.067l0.176,-0.067l0.176,-0.068l0.175,-0.07l0.175,-0.07l0.174,-0.071l0.173,-0.073l0.173,-0.073l0.173,-0.075l0.172,-0.075l0.171,-0.077l0.171,-0.078l0.171,-0.078l0.17,-0.08l0.169,-0.08l0.169,-0.082l0.168,-0.083l0.167,-0.083l0.168,-0.085l0.166,-0.085l0.166,-0.087l0.165,-0.088l0.165,-0.088l0.164,-0.089l0.164,-0.091l0.163,-0.091l0.162,-0.093l0.162,-0.093l0.161,-0.094l0.161,-0.095l0.16,-0.096l0.159,-0.098l0.159,-0.098l0.158,-0.098l0.158,-0.1l0.156,-0.101l0.157,-0.102l0.155,-0.102l0.155,-0.104l0.154,-0.104l0.154,-0.106l0.153,-0.106l0.152,-0.107l0.152,-0.108l0.151,-0.109l0.15,-0.11l0.15,-0.11l0.149,-0.112l0.148,-0.112l0.148,-0.113l0.146,-0.114l0.147,-0.115l0.145,-0.116l0.145,-0.117l0.144,-0.117l0.143,-0.119l0.143,-0.119l0.142,-0.12l0.141,-0.121l0.14,-0.121l0.14,-0.123l0.139,-0.123l0.138,-0.124l0.138,-0.125l0.137,-0.126l0.136,-0.127l0.135,-0.127l0.134,-0.128l0.134,-0.129l0.133,-0.13l0.132,-0.13l0.132,-0.131l0.13,-0.132l0.13,-0.133l0.129,-0.134l0.129,-0.134l0.127,-0.135l0.127,-0.136l0.126,-0.137l0.125,-0.137l0.124,-0.138l0.123,-0.139l0.123,-0.139l0.122,-0.141l0.121,-0.141l0.12,-0.141l0.119,-0.143l0.119,-0.143l0.117,-0.144l0.117,-0.144l0.116,-0.146l0.115,-0.145l0.114,-0.147l0.113,-0.147l0.113,-0.148l0.111,-0.149l0.111,-0.15l0.11,-0.15l0.109,-0.15l0.108,-0.152l0.107,-0.152l0.107,-0.152l0.105,-0.154l0.104,-0.154l0.104,-0.154l0.103,-0.156l0.101,-0.155l0.101,-0.157l0.1,-0.157l0.099,-0.158l0.098,-0.158l0.097,-0.159l0.097,-0.16l0.095,-0.16l0.094,-0.161l0.094,-0.162l0.092,-0.162l0.091,-0.162l0.091,-0.163l0.089,-0.164l0.089,-0.165l0.088,-0.165l0.086,-0.165l0.086,-0.166l0.085,-0.167l0.083,-0.167l0.083,-0.168l0.082,-0.168l0.08,-0.169l0.08,-0.169l0.079,-0.17l0.077,-0.171l0.077,-0.171l0.076,-0.171l0.074,-0.172l0.074,-0.173l0.072,-0.173l0.072,-0.174l0.07,-0.174l0.07,-0.174l0.068,-0.176l0.067,-0.175l0.067,-0.176l0.065,-0.177l0.064,-0.177l0.063,-0.178l0.062,-0.178l0.061,-0.178l0.06,-0.179l0.059,-0.18l0.058,-0.179l0.056,-0.181l0.056,-0.181l0.055,-0.181l0.053,-0.182l0.052,-0.182l0.051,-0.182l0.05,-0.183l0.049,-0.184l0.048,-0.184l0.047,-0.184l0.045,-0.185l0.045,-0.185l0.043,-0.185l0.042,-0.186l0.042,-0.187l0.039,-0.187l0.039,-0.187l0.038,-0.187l0.036,-0.188l0.036,-0.189l0.034,-0.188l0.033,-0.189l0.031,-0.19l0.031,-0.19l0.029,-0.19l0.029,-0.19l0.027,-0.191l0.026,-0.191l0.02,-0.161l0.004,-0.031l0.024,-0.192l0.023,-0.192l0.021,-0.193l0.02,-0.193l0.019,-0.193l0.017,-0.194l0.017,-0.194l0.015,-0.194l0.014,-0.195l0.012,-0.195l0.012,-0.195l0.01,-0.195l0.009,-0.196l0.008,-0.196l0.006,-0.197l0.006,-0.197l0.004,-0.197l0.002,-0.197l0.002,-0.197l0,-0.198l-0.001,-0.198l-0.002,-0.198l-0.004,-0.197l-0.005,-0.197l-0.006,-0.197l-0.007,-0.196l-0.009,-0.196l-0.01,-0.196l-0.011,-0.195l-0.013,-0.196l-0.013,-0.194l-0.015,-0.195l-0.016,-0.194l-0.017,-0.194l-0.019,-0.193l-0.019,-0.193l-0.021,-0.193l-0.022,-0.193l-0.024,-0.192l-0.024,-0.191l-0.026,-0.192l-0.027,-0.191l-0.028,-0.19l-0.029,-0.191l-0.031,-0.189l-0.031,-0.19l-0.033,-0.189l-0.034,-0.189l-0.035,-0.188l-0.036,-0.188l-0.038,-0.188l-0.038,-0.187l-0.04,-0.187l-0.041,-0.186l-0.042,-0.186l-0.043,-0.185l-0.044,-0.186l-0.046,-0.184l-0.046,-0.184l-0.048,-0.184l-0.049,-0.184l-0.049,-0.183l-0.051,-0.182l-0.052,-0.182l-0.054,-0.182l-0.054,-0.181l-0.055,-0.181l-0.057,-0.18l-0.057,-0.18l-0.059,-0.179l-0.059,-0.179l-0.061,-0.178l-0.062,-0.178l-0.063,-0.178l-0.064,-0.177l-0.065,-0.176l-0.066,-0.176l-0.067,-0.175l-0.068,-0.175l-0.069,-0.175l-0.071,-0.174l-0.071,-0.173l-0.072,-0.173l-0.073,-0.172l-0.075,-0.172l-0.075,-0.171l-0.076,-0.171l-0.078,-0.171l-0.078,-0.169l-0.08,-0.169l-0.08,-0.169l-0.081,-0.168l-0.083,-0.168l-0.083,-0.167l-0.084,-0.166l-0.086,-0.166l-0.075,-0.143l-0.011,-0.022l-0.087,-0.165l-0.088,-0.164l-0.089,-0.164l-0.09,-0.163l-0.091,-0.162l-0.092,-0.162l-0.093,-0.161l-0.093,-0.161l-0.095,-0.16l-0.096,-0.159l-0.096,-0.159l-0.098,-0.158l-0.098,-0.158l-0.099,-0.157l-0.101,-0.156l-0.101,-0.156l-0.102,-0.155l-0.103,-0.155l-0.104,-0.153l-0.104,-0.154l-0.106,-0.152l-0.107,-0.152l-0.107,-0.151l-0.108,-0.151l-0.11,-0.149l-0.11,-0.15l-0.111,-0.148l-0.112,-0.148l-0.112,-0.147l-0.114,-0.147l-0.114,-0.145l-0.115,-0.145l-0.116,-0.145l-0.117,-0.143l-0.118,-0.143l-0.119,-0.143l-0.119,-0.141l-0.12,-0.141l-0.122,-0.14l-0.121,-0.139l-0.123,-0.139l-0.124,-0.138l-0.124,-0.137l-0.125,-0.136l-0.126,-0.136l-0.127,-0.135l-0.127,-0.134l-0.129,-0.134l-0.129,-0.132l-0.13,-0.132l-0.13,-0.131l-0.132,-0.131l-0.132,-0.129l-0.133,-0.129l-0.134,-0.128l-0.134,-0.127l-0.135,-0.126l-0.136,-0.126l-0.137,-0.125l-0.137,-0.124l-0.139,-0.123l-0.138,-0.122l-0.14,-0.122l-0.14,-0.121l-0.142,-0.119l-0.141,-0.119l-0.143,-0.119l-0.143,-0.117l-0.144,-0.117l-0.145,-0.115l-0.145,-0.115l-0.146,-0.114l-0.147,-0.113l-0.147,-0.113l-0.148,-0.111l-0.149,-0.111l-0.149,-0.109l-0.15,-0.109l-0.138,-0.099l-0.013,-0.009l-0.151,-0.107l-0.152,-0.107l-0.152,-0.106l-0.153,-0.104l-0.154,-0.104l-0.154,-0.103l-0.155,-0.102l-0.156,-0.101l-0.156,-0.101l-0.157,-0.099l-0.158,-0.098l-0.158,-0.098l-0.158,-0.096l-0.16,-0.096l-0.16,-0.095l-0.16,-0.093l-0.162,-0.093l-0.161,-0.092l-0.163,-0.091l-0.163,-0.09l-0.163,-0.089l-0.164,-0.088l-0.165,-0.087l-0.165,-0.086l-0.166,-0.085l-0.167,-0.084l-0.167,-0.083l-0.167,-0.083l-0.168,-0.081l-0.169,-0.08l-0.169,-0.079l-0.17,-0.078l-0.17,-0.077l-0.171,-0.077l-0.171,-0.075l-0.172,-0.074l-0.172,-0.073l-0.173,-0.072l-0.173,-0.071l-0.174,-0.07l-0.175,-0.069l-0.175,-0.068l-0.175,-0.067l-0.176,-0.066l-0.176,-0.065l-0.177,-0.063l-0.178,-0.063l-0.178,-0.061l-0.178,-0.061l-0.179,-0.059l-0.179,-0.059l-0.18,-0.057l-0.18,-0.056l-0.102,-0.032l-0.079,-0.024l-0.181,-0.054l-0.181,-0.054l-0.182,-0.052l-0.182,-0.051l-0.183,-0.05l-0.183,-0.049l-0.184,-0.048l-0.184,-0.047l-0.185,-0.045l-0.185,-0.045l-0.185,-0.043l-0.186,-0.042l-0.186,-0.041l-0.187,-0.04l-0.187,-0.039l-0.187,-0.038l-0.188,-0.036l-0.188,-0.035l-0.189,-0.035l-0.189,-0.033l-0.189,-0.031l-0.19,-0.031l-0.19,-0.03l-0.191,-0.028l-0.19,-0.027l-0.192,-0.026l-0.191,-0.025l-0.192,-0.023l-0.193,-0.023l-0.192,-0.021l-0.193,-0.02l-0.194,-0.018l-0.193,-0.018l-0.194,-0.016l-0.195,-0.015l-0.195,-0.014l-0.195,-0.013l-0.195,-0.011l-0.196,-0.01l-0.196,-0.009l-0.196,-0.008l-0.197,-0.006l-0.197,-0.005l-0.197,-0.004l-0.197,-0.002l-0.198,-0.002l-0.198,0l-0.198,0.001l-0.197,0.003l-0.197,0.004l-0.197,0.005l-0.196,0.006l-0.127,0.005l-0.069,0.002l-0.196,0.009l-0.196,0.009l-0.195,0.011l-0.195,0.012l-0.194,0.013l-0.195,0.015l-0.194,0.016l-0.193,0.017l-0.194,0.018l-0.193,0.019l-0.192,0.021l-0.193,0.022l-0.192,0.023l-0.192,0.024l-0.191,0.026l-0.191,0.026l-0.191,0.028l-0.19,0.029l-0.19,0.03l-0.189,0.032l-0.19,0.032l-0.188,0.034l-0.189,0.035l-0.188,0.036l-0.188,0.037l-0.187,0.038l-0.187,0.04l-0.186,0.041l-0.186,0.041l-0.186,0.043l-0.185,0.044l-0.185,0.046l-0.185,0.046l-0.184,0.047l-0.183,0.049l-0.184,0.05l-0.182,0.051l-0.183,0.051l-0.182,0.054l-0.181,0.054l-0.181,0.055l-0.181,0.056l-0.18,0.058l-0.179,0.058l-0.18,0.06l-0.178,0.06l-0.179,0.062l-0.177,0.063l-0.178,0.064l-0.177,0.065l-0.176,0.066l-0.176,0.067l-0.175,0.068l-0.175,0.069l-0.174,0.07l-0.174,0.072l-0.174,0.072l-0.172,0.073l-0.173,0.075l-0.171,0.075l-0.172,0.076l-0.17,0.078l-0.171,0.078l-0.169,0.08l-0.169,0.08l-0.169,0.082l-0.168,0.082l-0.168,0.084l-0.166,0.084l-0.167,0.086l-0.166,0.086l-0.165,0.087l-0.165,0.089l-0.164,0.089l-0.163,0.09l-0.163,0.092l-0.162,0.092l-0.162,0.093l-0.161,0.094l-0.161,0.095l-0.16,0.096l-0.159,0.097l-0.159,0.098l-0.158,0.099l-0.157,0.1l-0.157,0.101l-0.156,0.101l-0.156,0.103l-0.154,0.104l-0.155,0.104l-0.153,0.105l-0.153,0.106l-0.153,0.107l-0.151,0.108l-0.151,0.109l-0.151,0.11l-0.149,0.111l-0.149,0.111l-0.149,0.113l-0.147,0.113l-0.147,0.114l-0.146,0.115l-0.146,0.116l-0.145,0.117l-0.119,0.097l-0.025,0.02l-0.143,0.119l-0.143,0.119l-0.142,0.12l-0.142,0.12l-0.14,0.122l-0.14,0.122l-0.14,0.124l-0.138,0.124l-0.138,0.125l-0.137,0.125l-0.136,0.127l-0.136,0.127l-0.134,0.129l-0.134,0.129l-0.134,0.129l-0.132,0.131l-0.132,0.131l-0.131,0.132l-0.13,0.133l-0.129,0.134l-0.129,0.134l-0.127,0.136l-0.127,0.136l-0.126,0.136l-0.126,0.138l-0.124,0.138l-0.124,0.139l-0.123,0.14l-0.122,0.14l-0.121,0.141l-0.12,0.142l-0.12,0.143l-0.118,0.144l-0.118,0.144l-0.117,0.144l-0.116,0.146l-0.116,0.146l-0.114,0.147l-0.114,0.148l-0.112,0.148l-0.112,0.149l-0.111,0.15l-0.11,0.15l-0.109,0.152l-0.109,0.151l-0.107,0.153l-0.107,0.153l-0.105,0.154l-0.105,0.154l-0.104,0.155l-0.103,0.156l-0.102,0.156l-0.101,0.157l-0.1,0.158l-0.099,0.158l-0.098,0.159l-0.097,0.16l-0.097,0.16l-0.095,0.161l-0.095,0.161l-0.093,0.162l-0.093,0.163l-0.091,0.163l-0.091,0.164l-0.09,0.164l-0.088,0.165l-0.088,0.166l-0.087,0.166l-0.086,0.167l-0.084,0.167l-0.084,0.168l-0.083,0.168l-0.082,0.169l-0.081,0.17l-0.079,0.17l-0.079,0.171l-0.078,0.171l-0.077,0.172l-0.075,0.172l-0.075,0.173l-0.074,0.173l-0.072,0.174l-0.072,0.174l-0.07,0.175l-0.07,0.176l-0.068,0.176l-0.068,0.176l-0.066,0.177l-0.065,0.177l-0.009,0.025l-0.055,0.153l-0.064,0.179l-0.062,0.179l-0.061,0.179l-0.06,0.18l-0.058,0.18l-0.058,0.181l-0.057,0.181l-0.055,0.182l-0.055,0.182l-0.053,0.183l-0.053,0.183l-0.051,0.183l-0.05,0.184l-0.049,0.185l-0.047,0.185l-0.047,0.185l-0.046,0.186l-0.044,0.186l-0.043,0.186l-0.042,0.187l-0.041,0.188l-0.04,0.188l-0.039,0.188l-0.037,0.188l-0.036,0.189l-0.036,0.19l-0.034,0.19l-0.032,0.19l-0.032,0.19l-0.03,0.191l-0.03,0.192l-0.028,0.191l-0.027,0.192l-0.025,0.193l-0.025,0.193l-0.023,0.193l-0.022,0.193l-0.021,0.194l-0.02,0.194l-0.018,0.195l-0.017,0.195l-0.016,0.195l-0.015,0.195l-0.013,0.196l-0.013,0.196l-0.011,0.197l-0.009,0.197l-0.009,0.197l-0.007,0.197l-0.006,0.198l-0.002,0.097l-0.003,0.101l-0.003,0.198l-0.003,0.199l0,0.199l0,0.199l0.002,0.198Z" style="fill:#573351;"/><path d="M580.197,546.343l5.68,0c11.625,5.33 25.015,5.33 36.64,0l5.68,0c13.166,0 24,10.834 24,24l0,68c0,6.583 -5.417,12 -12,12l-8,0l0,68c0,6.583 -5.417,12 -12,12l-32,0c-6.583,0 -12,-5.417 -12,-12l0,-68l-8,0c-6.583,0 -12,-5.417 -12,-12l0,-68c0,-13.166 10.834,-24 24,-24Z" style="fill:#fff;fill-rule:nonzero;"/><path d="M580.049,547.381l-0.147,0.002l-0.147,0.002l-0.147,0.003l-0.147,0.005l-0.146,0.005l-0.146,0.006l-0.146,0.007l-0.146,0.009l-0.145,0.008l-0.025,0.002l-0.121,0.008l-0.145,0.011l-0.144,0.012l-0.145,0.013l-0.144,0.013l-0.144,0.015l-0.144,0.015l-0.143,0.016l-0.144,0.017l-0.142,0.018l-0.143,0.019l-0.143,0.02l-0.142,0.021l-0.142,0.021l-0.141,0.023l-0.142,0.023l-0.141,0.025l-0.14,0.025l-0.141,0.026l-0.14,0.026l-0.14,0.028l-0.14,0.029l-0.139,0.029l-0.139,0.03l-0.139,0.031l-0.138,0.032l-0.138,0.033l-0.138,0.034l-0.137,0.034l-0.137,0.035l-0.137,0.036l-0.137,0.037l-0.136,0.038l-0.136,0.039l-0.135,0.039l-0.135,0.04l-0.135,0.042l-0.135,0.041l-0.134,0.043l-0.134,0.044l-0.133,0.044l-0.133,0.045l-0.133,0.046l-0.132,0.047l-0.132,0.047l-0.132,0.048l-0.131,0.049l-0.131,0.05l-0.131,0.051l-0.13,0.051l-0.13,0.052l-0.129,0.053l-0.129,0.054l-0.129,0.054l-0.128,0.056l-0.128,0.056l-0.128,0.056l-0.127,0.058l-0.127,0.058l-0.126,0.059l-0.126,0.06l-0.125,0.06l-0.125,0.062l-0.125,0.062l-0.124,0.062l-0.124,0.064l-0.123,0.064l-0.123,0.065l-0.123,0.066l-0.122,0.066l-0.122,0.067l-0.121,0.068l-0.121,0.068l-0.12,0.069l-0.12,0.07l-0.119,0.071l-0.119,0.071l-0.119,0.072l-0.118,0.073l-0.118,0.073l-0.117,0.074l-0.116,0.075l-0.117,0.076l-0.115,0.076l-0.116,0.076l-0.114,0.078l-0.115,0.078l-0.113,0.079l-0.114,0.079l-0.113,0.08l-0.112,0.081l-0.112,0.082l-0.111,0.082l-0.111,0.083l-0.11,0.083l-0.11,0.084l-0.109,0.085l-0.109,0.085l-0.108,0.086l-0.108,0.087l-0.107,0.087l-0.107,0.088l-0.106,0.088l-0.106,0.089l-0.105,0.09l-0.104,0.09l-0.104,0.091l-0.104,0.092l-0.103,0.092l-0.102,0.093l-0.102,0.093l-0.101,0.094l-0.101,0.095l-0.1,0.095l-0.1,0.095l-0.099,0.097l-0.098,0.097l-0.098,0.097l-0.097,0.098l-0.097,0.099l-0.096,0.099l-0.095,0.1l-0.095,0.1l-0.095,0.101l-0.093,0.101l-0.093,0.102l-0.093,0.103l-0.092,0.103l-0.091,0.104l-0.091,0.104l-0.09,0.105l-0.089,0.105l-0.089,0.106l-0.089,0.106l-0.087,0.107l-0.087,0.107l-0.086,0.108l-0.086,0.108l-0.085,0.109l-0.085,0.11l-0.083,0.11l-0.084,0.11l-0.082,0.111l-0.082,0.112l-0.081,0.112l-0.081,0.112l-0.079,0.113l-0.08,0.114l-0.078,0.114l-0.078,0.114l-0.077,0.115l-0.077,0.115l-0.076,0.116l-0.075,0.116l-0.074,0.117l-0.074,0.117l-0.073,0.118l-0.072,0.118l-0.072,0.119l-0.071,0.119l-0.07,0.12l-0.07,0.12l-0.069,0.12l-0.068,0.121l-0.068,0.121l-0.066,0.122l-0.066,0.122l-0.066,0.123l-0.064,0.123l-0.064,0.123l-0.063,0.124l-0.063,0.124l-0.061,0.125l-0.061,0.125l-0.06,0.126l-0.06,0.126l-0.058,0.126l-0.058,0.127l-0.057,0.127l-0.057,0.127l-0.055,0.128l-0.055,0.128l-0.054,0.129l-0.054,0.129l-0.052,0.13l-0.052,0.129l-0.051,0.131l-0.051,0.13l-0.049,0.131l-0.049,0.131l-0.048,0.132l-0.047,0.132l-0.046,0.132l-0.046,0.133l-0.044,0.133l-0.044,0.134l-0.043,0.133l-0.043,0.135l-0.041,0.134l-0.041,0.135l-0.04,0.135l-0.039,0.135l-0.038,0.136l-0.037,0.136l-0.037,0.137l-0.036,0.136l-0.031,0.124l-0.004,0.013l-0.034,0.138l-0.033,0.138l-0.032,0.137l-0.032,0.139l-0.031,0.138l-0.029,0.139l-0.029,0.139l-0.029,0.14l-0.027,0.14l-0.026,0.14l-0.026,0.14l-0.025,0.141l-0.024,0.141l-0.022,0.141l-0.023,0.141l-0.021,0.142l-0.02,0.142l-0.02,0.142l-0.018,0.143l-0.018,0.143l-0.017,0.143l-0.015,0.143l-0.015,0.144l-0.014,0.143l-0.014,0.144l-0.012,0.145l-0.011,0.144l-0.011,0.145l-0.009,0.145l-0.009,0.145l-0.007,0.146l-0.007,0.145l-0.006,0.146l-0.005,0.147l-0.004,0.146l-0.003,0.147l-0.002,0.146l-0.001,0.147l0,0.149l0.254,67.994l0.001,0.142l0.004,0.136l0.005,0.136l0.007,0.136l0.009,0.135l0.01,0.134l0.012,0.134l0.014,0.134l0.015,0.133l0.017,0.133l0.019,0.132l0.02,0.132l0.022,0.131l0.024,0.13l0.025,0.13l0.027,0.129l0.012,0.054l0.016,0.075l0.03,0.129l0.031,0.127l0.033,0.127l0.035,0.127l0.036,0.126l0.037,0.125l0.039,0.124l0.041,0.124l0.042,0.124l0.043,0.122l0.045,0.122l0.046,0.122l0.048,0.12l0.05,0.12l0.05,0.119l0.052,0.119l0.054,0.117l0.055,0.117l0.056,0.117l0.058,0.115l0.059,0.115l0.06,0.114l0.062,0.113l0.063,0.112l0.064,0.111l0.066,0.111l0.067,0.11l0.068,0.109l0.07,0.108l0.07,0.107l0.072,0.106l0.074,0.106l0.074,0.104l0.076,0.104l0.077,0.102l0.078,0.102l0.079,0.101l0.081,0.099l0.081,0.099l0.083,0.098l0.084,0.097l0.085,0.095l0.086,0.095l0.088,0.094l0.088,0.093l0.089,0.091l0.091,0.091l0.091,0.089l0.093,0.088l0.094,0.088l0.094,0.086l0.096,0.085l0.097,0.084l0.097,0.082l0.099,0.082l0.1,0.08l0.1,0.079l0.102,0.078l0.102,0.077l0.103,0.076l0.105,0.074l0.105,0.073l0.106,0.072l0.107,0.071l0.107,0.069l0.109,0.068l0.109,0.067l0.111,0.065l0.111,0.065l0.111,0.062l0.113,0.062l0.113,0.06l0.115,0.059l0.115,0.057l0.115,0.056l0.117,0.055l0.117,0.053l0.118,0.052l0.118,0.051l0.119,0.049l0.12,0.048l0.121,0.046l0.121,0.045l0.122,0.043l0.122,0.042l0.123,0.04l0.124,0.039l0.124,0.037l0.125,0.036l0.126,0.034l0.126,0.033l0.127,0.031l0.127,0.03l0.128,0.028l0.128,0.027l0.129,0.025l0.129,0.023l0.13,0.022l0.13,0.02l0.131,0.018l0.131,0.017l0.132,0.016l0.132,0.013l0.133,0.012l0.133,0.01l0.134,0.009l0.134,0.007l0.134,0.005l0.135,0.004l0.135,0.001l0.14,0l7.996,-0.036l0.256,0.018l0.25,0.062l0.233,0.109l0.003,-0.004l0.214,0.145l0.187,0.18l0.154,0.211l0.115,0.235l0.072,0.252l0.028,0.262l0.104,17.621l0.301,50.373l0.002,0.135l0.003,0.106l0,0.023l0.005,0.129l0.007,0.128l0.008,0.127l0.01,0.127l0.011,0.127l0.013,0.126l0.015,0.126l0.016,0.125l0.018,0.125l0.019,0.124l0.021,0.124l0.022,0.123l0.024,0.123l0.025,0.122l0.027,0.122l0.028,0.121l0.03,0.12l0.031,0.12l0.033,0.12l0.034,0.119l0.035,0.118l0.037,0.118l0.039,0.117l0.04,0.116l0.041,0.116l0.042,0.115l0.044,0.115l0.046,0.113l0.046,0.114l0.048,0.112l0.05,0.112l0.05,0.111l0.052,0.111l0.053,0.109l0.055,0.11l0.056,0.108l0.057,0.107l0.059,0.107l0.059,0.106l0.061,0.106l0.062,0.104l0.064,0.104l0.064,0.103l0.066,0.102l0.067,0.101l0.068,0.101l0.07,0.099l0.07,0.099l0.072,0.098l0.073,0.097l0.074,0.096l0.075,0.095l0.076,0.094l0.077,0.094l0.079,0.092l0.079,0.092l0.081,0.09l0.081,0.09l0.083,0.088l0.083,0.088l0.085,0.086l0.086,0.086l0.086,0.084l0.088,0.084l0.089,0.082l0.089,0.082l0.091,0.08l0.091,0.079l0.093,0.078l0.093,0.077l0.094,0.076l0.095,0.075l0.096,0.074l0.097,0.072l0.098,0.072l0.099,0.07l0.099,0.069l0.1,0.068l0.101,0.066l0.102,0.066l0.103,0.064l0.103,0.063l0.105,0.062l0.105,0.061l0.105,0.059l0.107,0.058l0.107,0.057l0.108,0.055l0.109,0.054l0.109,0.053l0.11,0.052l0.11,0.05l0.112,0.049l0.112,0.048l0.112,0.046l0.113,0.045l0.114,0.043l0.115,0.042l0.115,0.041l0.115,0.04l0.117,0.038l0.116,0.036l0.118,0.035l0.118,0.034l0.118,0.032l0.119,0.031l0.12,0.03l0.12,0.027l0.12,0.027l0.121,0.025l0.122,0.023l0.122,0.022l0.122,0.021l0.123,0.019l0.123,0.017l0.124,0.016l0.125,0.014l0.124,0.013l0.126,0.011l0.125,0.01l0.126,0.008l0.127,0.006l0.127,0.005l0.127,0.003l0.128,0.002l0.134,0l24.976,-0.149l7.011,-0.027l0.133,-0.001l0.125,-0.003l0.125,-0.005l0.124,-0.006l0.125,-0.008l0.123,-0.009l0.123,-0.011l0.123,-0.013l0.122,-0.014l0.122,-0.015l0.121,-0.017l0.121,-0.019l0.12,-0.019l0.12,-0.022l0.119,-0.023l0.119,-0.024l0.118,-0.026l0.118,-0.027l0.117,-0.029l0.117,-0.03l0.116,-0.032l0.116,-0.033l0.115,-0.034l0.114,-0.036l0.114,-0.037l0.113,-0.038l0.113,-0.04l0.112,-0.041l0.111,-0.043l0.111,-0.044l0.11,-0.045l0.11,-0.047l0.109,-0.047l0.108,-0.049l0.108,-0.051l0.107,-0.051l0.106,-0.053l0.105,-0.055l0.105,-0.055l0.104,-0.057l0.103,-0.058l0.103,-0.059l0.102,-0.06l0.101,-0.061l0.1,-0.063l0.1,-0.064l0.098,-0.065l0.098,-0.066l0.097,-0.068l0.096,-0.068l0.096,-0.07l0.094,-0.071l0.094,-0.071l0.093,-0.073l0.092,-0.074l0.091,-0.075l0.09,-0.077l0.089,-0.077l0.089,-0.078l0.087,-0.079l0.086,-0.081l0.086,-0.081l0.084,-0.082l0.084,-0.084l0.082,-0.084l0.082,-0.085l0.08,-0.086l0.079,-0.087l0.079,-0.088l0.077,-0.089l0.076,-0.09l0.076,-0.091l0.074,-0.092l0.073,-0.092l0.072,-0.094l0.071,-0.094l0.069,-0.095l0.069,-0.096l0.067,-0.097l0.067,-0.097l0.065,-0.099l0.064,-0.099l0.063,-0.1l0.061,-0.1l0.06,-0.102l0.024,-0.04l0.036,-0.062l0.058,-0.102l0.057,-0.104l0.056,-0.104l0.055,-0.105l0.053,-0.105l0.052,-0.107l0.051,-0.106l0.049,-0.108l0.048,-0.108l0.047,-0.109l0.046,-0.11l0.044,-0.11l0.043,-0.11l0.042,-0.112l0.04,-0.112l0.039,-0.112l0.037,-0.113l0.037,-0.114l0.034,-0.114l0.034,-0.115l0.032,-0.115l0.031,-0.116l0.029,-0.116l0.028,-0.117l0.026,-0.117l0.025,-0.118l0.023,-0.119l0.022,-0.119l0.021,-0.119l0.019,-0.12l0.018,-0.12l0.016,-0.121l0.014,-0.121l0.013,-0.122l0.012,-0.122l0.01,-0.122l0.008,-0.123l0.007,-0.124l0.005,-0.123l0.004,-0.125l0.002,-0.124l0.001,-0.133l-0.018,-12.092l0.076,-36.238l0.104,-19.662l0.036,-0.364l0.099,-0.35l0.157,-0.328l0.212,-0.294l0.259,-0.253l0.298,-0.204l0.328,-0.148l0,0l0.349,-0.089l0.358,-0.027l7.993,0.035l0.135,0l0.128,-0.001l0.127,-0.004l0.127,-0.005l0.126,-0.006l0.126,-0.008l0.126,-0.01l0.125,-0.011l0.125,-0.013l0.124,-0.014l0.124,-0.016l0.124,-0.018l0.123,-0.019l0.122,-0.02l0.122,-0.022l0.122,-0.024l0.121,-0.025l0.098,-0.021l0.022,-0.005l0.12,-0.028l0.12,-0.029l0.119,-0.03l0.118,-0.032l0.119,-0.034l0.117,-0.035l0.117,-0.036l0.116,-0.037l0.116,-0.04l0.115,-0.04l0.115,-0.042l0.114,-0.043l0.113,-0.045l0.113,-0.046l0.112,-0.047l0.112,-0.049l0.11,-0.05l0.111,-0.051l0.109,-0.053l0.109,-0.054l0.108,-0.055l0.107,-0.056l0.107,-0.058l0.106,-0.059l0.105,-0.061l0.105,-0.061l0.103,-0.063l0.103,-0.064l0.103,-0.065l0.101,-0.067l0.1,-0.068l0.1,-0.068l0.099,-0.07l0.098,-0.072l0.097,-0.072l0.097,-0.074l0.095,-0.074l0.095,-0.076l0.093,-0.077l0.093,-0.078l0.092,-0.079l0.091,-0.08l0.09,-0.081l0.089,-0.083l0.088,-0.083l0.087,-0.085l0.086,-0.085l0.085,-0.086l0.084,-0.088l0.083,-0.088l0.082,-0.09l0.08,-0.09l0.08,-0.092l0.079,-0.092l0.078,-0.093l0.076,-0.095l0.076,-0.095l0.074,-0.096l0.073,-0.097l0.072,-0.098l0.071,-0.099l0.07,-0.099l0.068,-0.101l0.068,-0.101l0.066,-0.102l0.065,-0.103l0.064,-0.104l0.062,-0.104l0.062,-0.106l0.06,-0.106l0.059,-0.107l0.057,-0.108l0.056,-0.108l0.055,-0.109l0.054,-0.11l0.052,-0.111l0.052,-0.111l0.049,-0.112l0.049,-0.113l0.047,-0.113l0.045,-0.114l0.045,-0.115l0.043,-0.115l0.041,-0.116l0.04,-0.117l0.039,-0.117l0.038,-0.118l0.035,-0.119l0.035,-0.119l0.033,-0.119l0.032,-0.121l0.03,-0.12l0.028,-0.122l0.028,-0.122l0.025,-0.122l0.024,-0.123l0.023,-0.124l0.021,-0.124l0.02,-0.125l0.018,-0.125l0.016,-0.125l0.015,-0.126l0.014,-0.127l0.011,-0.127l0.01,-0.128l0.009,-0.128l0.007,-0.128l0.005,-0.129l0.004,-0.129l0.002,-0.136l0.129,-18.121l0.256,-33.264l0.128,-16.607l0.001,-0.148l-0.001,-0.145l-0.001,-0.145l-0.002,-0.145l-0.003,-0.144l-0.004,-0.145l-0.005,-0.144l-0.006,-0.144l-0.007,-0.143l-0.007,-0.144l-0.009,-0.143l-0.01,-0.143l-0.01,-0.143l-0.011,-0.143l-0.012,-0.142l-0.014,-0.142l-0.014,-0.142l-0.014,-0.142l-0.016,-0.141l-0.017,-0.141l-0.017,-0.141l-0.019,-0.141l-0.019,-0.14l-0.02,-0.14l-0.021,-0.14l-0.022,-0.14l-0.023,-0.139l-0.024,-0.139l-0.024,-0.139l-0.026,-0.139l-0.026,-0.138l-0.027,-0.138l-0.028,-0.138l-0.029,-0.137l-0.029,-0.137l-0.031,-0.137l-0.031,-0.137l-0.032,-0.136l-0.033,-0.136l-0.034,-0.136l-0.034,-0.135l-0.036,-0.135l-0.036,-0.135l-0.037,-0.134l-0.038,-0.134l-0.039,-0.134l-0.039,-0.134l-0.041,-0.133l-0.041,-0.133l-0.042,-0.132l-0.043,-0.132l-0.043,-0.132l-0.044,-0.132l-0.046,-0.131l-0.045,-0.131l-0.047,-0.13l-0.048,-0.13l-0.048,-0.13l-0.049,-0.129l-0.05,-0.13l-0.05,-0.128l-0.052,-0.129l-0.052,-0.128l-0.053,-0.127l-0.053,-0.127l-0.055,-0.127l-0.055,-0.127l-0.056,-0.126l-0.056,-0.126l-0.058,-0.125l-0.058,-0.125l-0.059,-0.124l-0.06,-0.124l-0.06,-0.124l-0.061,-0.124l-0.062,-0.122l-0.062,-0.123l-0.064,-0.122l-0.064,-0.122l-0.065,-0.121l-0.065,-0.121l-0.066,-0.12l-0.067,-0.12l-0.068,-0.12l-0.068,-0.119l-0.069,-0.119l-0.07,-0.118l-0.07,-0.118l-0.071,-0.117l-0.072,-0.117l-0.072,-0.117l-0.074,-0.116l-0.073,-0.116l-0.075,-0.115l-0.075,-0.114l-0.076,-0.115l-0.077,-0.113l-0.077,-0.114l-0.078,-0.112l-0.078,-0.113l-0.079,-0.112l-0.08,-0.111l-0.081,-0.111l-0.081,-0.11l-0.082,-0.11l-0.082,-0.109l-0.083,-0.109l-0.084,-0.109l-0.085,-0.108l-0.085,-0.107l-0.085,-0.107l-0.087,-0.106l-0.086,-0.106l-0.088,-0.105l-0.088,-0.105l-0.089,-0.104l-0.089,-0.104l-0.09,-0.103l-0.091,-0.103l-0.091,-0.102l-0.092,-0.102l-0.092,-0.101l-0.093,-0.1l-0.094,-0.1l-0.094,-0.099l-0.095,-0.099l-0.095,-0.098l-0.096,-0.098l-0.097,-0.097l-0.097,-0.097l-0.098,-0.096l-0.098,-0.095l-0.099,-0.095l-0.099,-0.094l-0.1,-0.094l-0.101,-0.093l-0.101,-0.093l-0.101,-0.092l-0.103,-0.091l-0.102,-0.091l-0.104,-0.09l-0.103,-0.089l-0.105,-0.089l-0.105,-0.088l-0.105,-0.088l-0.106,-0.087l-0.106,-0.086l-0.107,-0.086l-0.108,-0.085l-0.108,-0.085l-0.109,-0.084l-0.109,-0.083l-0.109,-0.083l-0.11,-0.082l-0.111,-0.081l-0.111,-0.081l-0.112,-0.08l-0.112,-0.079l-0.112,-0.079l-0.113,-0.078l-0.114,-0.078l-0.114,-0.076l-0.114,-0.076l-0.115,-0.076l-0.116,-0.075l-0.116,-0.074l-0.116,-0.073l-0.117,-0.073l-0.117,-0.072l-0.118,-0.071l-0.118,-0.071l-0.119,-0.07l-0.119,-0.069l-0.12,-0.069l-0.12,-0.067l-0.12,-0.068l-0.121,-0.066l-0.122,-0.066l-0.121,-0.065l-0.123,-0.064l-0.122,-0.064l-0.123,-0.062l-0.124,-0.062l-0.124,-0.062l-0.124,-0.061l-0.125,-0.059l-0.125,-0.06l-0.126,-0.058l-0.126,-0.058l-0.126,-0.057l-0.127,-0.056l-0.127,-0.055l-0.127,-0.055l-0.128,-0.054l-0.129,-0.053l-0.128,-0.052l-0.13,-0.052l-0.129,-0.051l-0.13,-0.05l-0.13,-0.049l-0.131,-0.049l-0.131,-0.048l-0.131,-0.046l-0.132,-0.047l-0.132,-0.045l-0.132,-0.045l-0.133,-0.043l-0.133,-0.043l-0.133,-0.043l-0.134,-0.041l-0.134,-0.04l-0.135,-0.04l-0.135,-0.039l-0.135,-0.038l-0.135,-0.038l-0.136,-0.036l-0.136,-0.036l-0.137,-0.035l-0.137,-0.034l-0.137,-0.033l-0.137,-0.032l-0.138,-0.032l-0.138,-0.03l-0.138,-0.03l-0.139,-0.029l-0.139,-0.028l-0.139,-0.027l-0.14,-0.027l-0.139,-0.025l-0.141,-0.025l-0.14,-0.023l-0.141,-0.023l-0.141,-0.022l-0.141,-0.022l-0.141,-0.02l-0.142,-0.019l-0.142,-0.019l-0.143,-0.017l-0.142,-0.017l-0.143,-0.016l-0.143,-0.015l-0.144,-0.014l-0.143,-0.013l-0.144,-0.012l-0.145,-0.012l-0.144,-0.01l-0.145,-0.01l-0.145,-0.008l-0.145,-0.008l-0.145,-0.007l-0.146,-0.005l-0.146,-0.005l-0.146,-0.004l-0.146,-0.003l-0.146,-0.002l-0.149,-0.001l-5.336,-0.019l0,-0.003l-0.101,0l-0.049,0.022l-0.001,-0.001l-0.281,0.124l-0.281,0.122l-0.283,0.12l-0.282,0.118l-0.284,0.116l-0.284,0.114l-0.284,0.112l-0.285,0.11l-0.286,0.108l-0.286,0.106l-0.287,0.104l-0.287,0.102l-0.288,0.1l-0.288,0.098l-0.289,0.096l-0.289,0.094l-0.29,0.092l-0.29,0.09l-0.291,0.088l-0.291,0.086l-0.291,0.084l-0.292,0.082l-0.293,0.08l-0.292,0.078l-0.293,0.076l-0.294,0.074l-0.294,0.072l-0.294,0.07l-0.294,0.068l-0.295,0.066l-0.295,0.064l-0.296,0.062l-0.296,0.061l-0.296,0.058l-0.296,0.056l-0.297,0.054l-0.297,0.052l-0.297,0.05l-0.298,0.048l-0.297,0.046l-0.298,0.045l-0.298,0.042l-0.299,0.04l-0.298,0.038l-0.299,0.036l-0.299,0.035l-0.299,0.032l-0.299,0.03l-0.299,0.028l-0.3,0.026l-0.299,0.025l-0.3,0.022l-0.3,0.02l-0.3,0.019l-0.3,0.016l-0.3,0.014l-0.3,0.012l-0.3,0.011l-0.3,0.008l-0.3,0.006l-0.301,0.005l-0.3,0.002l-0.3,0.001l-0.3,-0.002l-0.301,-0.004l-0.3,-0.005l-0.3,-0.008l-0.3,-0.009l-0.3,-0.012l-0.3,-0.014l-0.3,-0.015l-0.3,-0.018l-0.3,-0.019l-0.299,-0.022l-0.3,-0.023l-0.299,-0.026l-0.3,-0.027l-0.299,-0.03l-0.299,-0.031l-0.298,-0.034l-0.299,-0.035l-0.298,-0.038l-0.298,-0.039l-0.298,-0.042l-0.298,-0.043l-0.298,-0.046l-0.297,-0.047l-0.297,-0.049l-0.297,-0.052l-0.296,-0.053l-0.296,-0.056l-0.296,-0.057l-0.296,-0.059l-0.295,-0.062l-0.295,-0.063l-0.295,-0.065l-0.294,-0.068l-0.294,-0.069l-0.294,-0.071l-0.293,-0.074l-0.293,-0.075l-0.292,-0.077l-0.292,-0.08l-0.292,-0.081l-0.291,-0.083l-0.29,-0.086l-0.291,-0.087l-0.289,-0.089l-0.29,-0.091l-0.289,-0.094l-0.288,-0.095l-0.288,-0.097l-0.287,-0.099l-0.287,-0.102l-0.286,-0.103l-0.286,-0.105l-0.285,-0.107l-0.285,-0.11l-0.284,-0.111l-0.284,-0.113l-0.283,-0.115l-0.282,-0.117l-0.282,-0.119l-0.281,-0.122l-0.28,-0.123l-0.28,-0.125l-0.071,-0.032l-4.141,-0.001l0,-0.003l-1.311,-0.002l-0.149,0.001Zm5.828,-2.08l0.148,0.01l0.144,0.031l0.139,0.051l0.27,0.122l0.267,0.119l0.268,0.117l0.268,0.115l0.269,0.113l0.269,0.111l0.27,0.11l0.271,0.107l0.271,0.105l0.271,0.104l0.273,0.102l0.272,0.099l0.273,0.098l0.274,0.096l0.274,0.094l0.275,0.092l0.275,0.09l0.276,0.089l0.276,0.086l0.276,0.084l0.277,0.083l0.277,0.081l0.278,0.078l0.278,0.077l0.279,0.075l0.279,0.073l0.279,0.071l0.28,0.069l0.28,0.067l0.28,0.066l0.281,0.063l0.281,0.062l0.281,0.059l0.282,0.058l0.282,0.056l0.282,0.054l0.282,0.052l0.283,0.05l0.283,0.048l0.283,0.046l0.283,0.044l0.284,0.043l0.284,0.04l0.284,0.039l0.284,0.037l0.285,0.034l0.284,0.033l0.285,0.031l0.285,0.029l0.285,0.027l0.286,0.025l0.285,0.024l0.285,0.021l0.286,0.02l0.286,0.017l0.285,0.016l0.286,0.013l0.286,0.012l0.286,0.01l0.286,0.008l0.286,0.006l0.286,0.004l0.286,0.003l0.286,0l0.286,-0.002l0.286,-0.003l0.286,-0.006l0.286,-0.007l0.286,-0.009l0.285,-0.011l0.286,-0.013l0.286,-0.015l0.285,-0.017l0.286,-0.019l0.285,-0.021l0.286,-0.022l0.285,-0.025l0.285,-0.026l0.285,-0.029l0.284,-0.03l0.285,-0.032l0.284,-0.034l0.284,-0.036l0.284,-0.038l0.284,-0.04l0.283,-0.042l0.284,-0.044l0.283,-0.045l0.282,-0.048l0.283,-0.049l0.282,-0.051l0.282,-0.054l0.282,-0.055l0.281,-0.057l0.281,-0.059l0.281,-0.061l0.281,-0.062l0.28,-0.065l0.279,-0.067l0.28,-0.068l0.279,-0.071l0.278,-0.072l0.279,-0.074l0.277,-0.076l0.278,-0.079l0.277,-0.08l0.276,-0.081l0.277,-0.084l0.275,-0.086l0.275,-0.088l0.275,-0.089l0.274,-0.092l0.274,-0.093l0.274,-0.095l0.272,-0.097l0.273,-0.099l0.271,-0.101l0.271,-0.103l0.271,-0.105l0.27,-0.107l0.27,-0.108l0.268,-0.111l0.269,-0.112l0.267,-0.115l0.268,-0.116l0.266,-0.118l0.266,-0.12l0.269,-0.123l0.15,-0.058l0.013,-0.003l0.144,-0.032l0.161,-0.013l5.682,-0.019l0.159,0l0.162,0.001l0.161,0.002l0.161,0.002l0.161,0.004l0.16,0.005l0.161,0.006l0.16,0.008l0.159,0.008l0.16,0.009l0.159,0.01l0.159,0.011l0.159,0.012l0.159,0.013l0.158,0.014l0.158,0.015l0.158,0.016l0.158,0.017l0.157,0.018l0.157,0.019l0.157,0.02l0.156,0.021l0.156,0.022l0.156,0.023l0.156,0.024l0.155,0.025l0.155,0.026l0.155,0.026l0.154,0.028l0.154,0.029l0.154,0.029l0.154,0.031l0.153,0.031l0.152,0.033l0.153,0.033l0.152,0.034l0.152,0.035l0.151,0.037l0.152,0.037l0.15,0.038l0.151,0.038l0.15,0.04l0.15,0.041l0.149,0.042l0.149,0.042l0.149,0.043l0.148,0.045l0.148,0.045l0.148,0.046l0.147,0.047l0.147,0.048l0.147,0.049l0.146,0.049l0.145,0.051l0.146,0.051l0.145,0.052l0.144,0.053l0.144,0.054l0.144,0.055l0.143,0.056l0.143,0.056l0.143,0.057l0.142,0.059l0.141,0.059l0.142,0.06l0.14,0.06l0.141,0.062l0.14,0.062l0.139,0.063l0.139,0.064l0.139,0.065l0.138,0.066l0.138,0.066l0.137,0.068l0.137,0.068l0.136,0.069l0.136,0.069l0.135,0.071l0.135,0.071l0.135,0.072l0.134,0.073l0.133,0.074l0.134,0.074l0.132,0.075l0.132,0.076l0.132,0.077l0.131,0.077l0.131,0.079l0.13,0.079l0.129,0.079l0.129,0.081l0.129,0.081l0.128,0.082l0.128,0.083l0.127,0.084l0.126,0.084l0.126,0.085l0.126,0.086l0.125,0.086l0.124,0.088l0.124,0.088l0.123,0.088l0.123,0.09l0.122,0.09l0.122,0.09l0.121,0.092l0.121,0.092l0.12,0.093l0.119,0.094l0.119,0.094l0.118,0.095l0.118,0.096l0.117,0.096l0.117,0.097l0.116,0.098l0.115,0.099l0.115,0.099l0.114,0.1l0.114,0.1l0.113,0.101l0.112,0.102l0.112,0.102l0.111,0.104l0.111,0.103l0.11,0.105l0.11,0.105l0.108,0.106l0.108,0.106l0.108,0.107l0.107,0.108l0.106,0.108l0.106,0.109l0.105,0.109l0.104,0.111l0.104,0.11l0.103,0.112l0.102,0.112l0.102,0.112l0.101,0.114l0.101,0.113l0.1,0.115l0.099,0.115l0.098,0.116l0.098,0.116l0.097,0.117l0.096,0.117l0.096,0.118l0.095,0.119l0.095,0.119l0.093,0.119l0.093,0.121l0.092,0.121l0.092,0.121l0.091,0.122l0.09,0.123l0.09,0.123l0.088,0.123l0.088,0.125l0.088,0.124l0.086,0.126l0.086,0.126l0.085,0.126l0.084,0.127l0.084,0.127l0.083,0.128l0.082,0.129l0.082,0.129l0.08,0.13l0.08,0.13l0.079,0.13l0.079,0.131l0.077,0.132l0.077,0.132l0.076,0.133l0.076,0.133l0.074,0.134l0.074,0.134l0.073,0.134l0.072,0.135l0.071,0.136l0.071,0.136l0.07,0.137l0.069,0.137l0.068,0.137l0.067,0.138l0.067,0.138l0.066,0.139l0.065,0.14l0.064,0.14l0.063,0.14l0.063,0.141l0.061,0.141l0.061,0.141l0.06,0.142l0.059,0.143l0.058,0.143l0.058,0.143l0.057,0.144l0.055,0.144l0.055,0.145l0.054,0.145l0.053,0.145l0.053,0.146l0.051,0.146l0.051,0.147l0.049,0.147l0.049,0.147l0.048,0.148l0.047,0.149l0.046,0.148l0.046,0.149l0.044,0.15l0.043,0.15l0.043,0.15l0.042,0.15l0.04,0.151l0.04,0.152l0.039,0.151l0.038,0.152l0.037,0.153l0.036,0.152l0.036,0.153l0.034,0.154l0.033,0.154l0.033,0.154l0.031,0.154l0.03,0.155l0.03,0.155l0.029,0.156l0.027,0.155l0.027,0.156l0.026,0.157l0.024,0.157l0.024,0.157l0.023,0.157l0.022,0.158l0.021,0.157l0.02,0.159l0.019,0.158l0.017,0.159l0.017,0.159l0.016,0.16l0.015,0.159l0.014,0.16l0.013,0.16l0.012,0.161l0.011,0.161l0.01,0.161l0.008,0.161l0.008,0.161l0.007,0.162l0.006,0.162l0.005,0.162l0.003,0.163l0.003,0.163l0.001,0.16l0.128,16.61l0.257,33.273l0.129,18.126l0,0.172l-0.003,0.178l-0.004,0.177l-0.007,0.177l-0.009,0.177l-0.011,0.176l-0.014,0.175l-0.016,0.175l-0.017,0.174l-0.021,0.174l-0.022,0.173l-0.024,0.173l-0.027,0.172l-0.028,0.171l-0.031,0.171l-0.033,0.169l-0.035,0.17l-0.037,0.168l-0.039,0.168l-0.041,0.167l-0.044,0.166l-0.045,0.166l-0.047,0.165l-0.049,0.164l-0.051,0.163l-0.053,0.162l-0.055,0.161l-0.057,0.161l-0.059,0.159l-0.061,0.159l-0.063,0.158l-0.064,0.157l-0.067,0.156l-0.068,0.155l-0.07,0.154l-0.072,0.153l-0.073,0.152l-0.076,0.151l-0.077,0.15l-0.079,0.149l-0.08,0.148l-0.083,0.147l-0.084,0.145l-0.086,0.145l-0.087,0.143l-0.089,0.143l-0.091,0.141l-0.092,0.14l-0.095,0.139l-0.095,0.138l-0.097,0.136l-0.099,0.136l-0.101,0.134l-0.102,0.133l-0.103,0.131l-0.105,0.131l-0.107,0.129l-0.108,0.128l-0.11,0.126l-0.111,0.126l-0.112,0.124l-0.114,0.122l-0.116,0.121l-0.117,0.12l-0.118,0.119l-0.12,0.117l-0.121,0.115l-0.122,0.115l-0.124,0.112l-0.125,0.112l-0.127,0.11l-0.128,0.108l-0.129,0.107l-0.13,0.106l-0.132,0.104l-0.133,0.102l-0.134,0.101l-0.136,0.099l-0.137,0.098l-0.138,0.096l-0.139,0.094l-0.14,0.093l-0.142,0.092l-0.143,0.089l-0.144,0.088l-0.145,0.087l-0.146,0.084l-0.147,0.083l-0.149,0.081l-0.149,0.08l-0.151,0.078l-0.152,0.076l-0.152,0.074l-0.154,0.072l-0.155,0.071l-0.156,0.069l-0.157,0.067l-0.158,0.065l-0.158,0.063l-0.16,0.061l-0.161,0.06l-0.161,0.057l-0.163,0.056l-0.163,0.053l-0.165,0.052l-0.165,0.05l-0.166,0.047l-0.167,0.046l-0.168,0.044l-0.168,0.041l-0.032,0.008l-0.138,0.032l-0.17,0.037l-0.171,0.035l-0.171,0.033l-0.173,0.031l-0.173,0.028l-0.173,0.027l-0.175,0.024l-0.175,0.022l-0.175,0.02l-0.177,0.018l-0.177,0.016l-0.177,0.013l-0.178,0.011l-0.179,0.009l-0.179,0.007l-0.179,0.004l-0.174,0.002l0,0.044l-5.941,0l0.031,0.031l0.104,22.927l0.075,32.242l-0.017,10.742l-0.002,0.176l-0.003,0.182l-0.007,0.183l-0.008,0.181l-0.011,0.181l-0.013,0.181l-0.015,0.18l-0.018,0.179l-0.019,0.179l-0.022,0.178l-0.025,0.178l-0.026,0.176l-0.029,0.177l-0.03,0.175l-0.033,0.175l-0.035,0.174l-0.038,0.173l-0.039,0.173l-0.042,0.172l-0.043,0.171l-0.046,0.17l-0.047,0.169l-0.05,0.168l-0.052,0.168l-0.053,0.167l-0.056,0.166l-0.058,0.164l-0.059,0.164l-0.062,0.163l-0.063,0.163l-0.066,0.161l-0.067,0.16l-0.069,0.159l-0.071,0.158l-0.073,0.157l-0.075,0.156l-0.077,0.155l-0.078,0.154l-0.08,0.153l-0.082,0.152l-0.084,0.15l-0.085,0.15l-0.053,0.089l-0.035,0.059l-0.089,0.147l-0.091,0.146l-0.092,0.144l-0.094,0.144l-0.096,0.142l-0.098,0.141l-0.099,0.14l-0.101,0.138l-0.102,0.138l-0.104,0.136l-0.106,0.134l-0.107,0.134l-0.108,0.132l-0.11,0.13l-0.112,0.13l-0.113,0.128l-0.115,0.126l-0.116,0.126l-0.117,0.124l-0.119,0.122l-0.121,0.121l-0.122,0.12l-0.123,0.118l-0.124,0.117l-0.126,0.115l-0.128,0.114l-0.129,0.112l-0.13,0.11l-0.131,0.11l-0.133,0.107l-0.134,0.106l-0.135,0.105l-0.136,0.103l-0.138,0.101l-0.139,0.1l-0.14,0.098l-0.142,0.096l-0.143,0.095l-0.144,0.093l-0.145,0.092l-0.146,0.09l-0.147,0.088l-0.149,0.086l-0.149,0.085l-0.151,0.082l-0.152,0.082l-0.153,0.079l-0.154,0.077l-0.155,0.076l-0.156,0.074l-0.157,0.072l-0.158,0.07l-0.159,0.068l-0.16,0.067l-0.161,0.064l-0.162,0.063l-0.163,0.061l-0.164,0.058l-0.165,0.057l-0.165,0.055l-0.167,0.053l-0.167,0.05l-0.168,0.049l-0.169,0.047l-0.17,0.045l-0.171,0.042l-0.171,0.041l-0.172,0.038l-0.173,0.036l-0.174,0.035l-0.174,0.032l-0.175,0.029l-0.176,0.028l-0.176,0.026l-0.177,0.023l-0.178,0.021l-0.178,0.019l-0.179,0.017l-0.179,0.014l-0.18,0.012l-0.181,0.01l-0.181,0.008l-0.181,0.005l-0.182,0.003l-0.175,0l-7.017,-0.027l-24.997,-0.149l-0.173,-0.002l-0.18,-0.004l-0.179,-0.007l-0.178,-0.009l-0.178,-0.011l-0.178,-0.013l-0.177,-0.016l-0.176,-0.018l-0.176,-0.02l-0.175,-0.022l-0.174,-0.024l-0.174,-0.027l-0.173,-0.029l-0.172,-0.031l-0.172,-0.033l-0.171,-0.035l-0.17,-0.037l-0.169,-0.039l-0.169,-0.042l-0.168,-0.043l-0.167,-0.045l-0.166,-0.048l-0.165,-0.049l-0.165,-0.051l-0.163,-0.054l-0.163,-0.055l-0.162,-0.057l-0.161,-0.059l-0.159,-0.061l-0.159,-0.063l-0.158,-0.065l-0.157,-0.067l-0.156,-0.068l-0.155,-0.071l-0.154,-0.072l-0.153,-0.074l-0.152,-0.075l-0.151,-0.078l-0.15,-0.079l-0.149,-0.081l-0.147,-0.083l-0.147,-0.084l-0.145,-0.086l-0.144,-0.088l-0.143,-0.09l-0.142,-0.091l-0.141,-0.092l-0.139,-0.095l-0.139,-0.096l-0.137,-0.097l-0.136,-0.099l-0.134,-0.101l-0.133,-0.102l-0.133,-0.104l-0.13,-0.105l-0.13,-0.107l-0.128,-0.108l-0.127,-0.11l-0.125,-0.111l-0.124,-0.113l-0.123,-0.114l-0.122,-0.116l-0.12,-0.117l-0.118,-0.118l-0.118,-0.12l-0.115,-0.121l-0.115,-0.123l-0.113,-0.123l-0.111,-0.126l-0.11,-0.126l-0.108,-0.128l-0.107,-0.129l-0.106,-0.13l-0.104,-0.132l-0.102,-0.133l-0.101,-0.134l-0.099,-0.135l-0.098,-0.137l-0.096,-0.138l-0.094,-0.139l-0.093,-0.14l-0.091,-0.141l-0.09,-0.142l-0.088,-0.144l-0.086,-0.145l-0.085,-0.146l-0.082,-0.146l-0.081,-0.148l-0.08,-0.149l-0.077,-0.151l-0.076,-0.151l-0.074,-0.152l-0.072,-0.153l-0.071,-0.154l-0.068,-0.155l-0.067,-0.156l-0.065,-0.157l-0.063,-0.158l-0.061,-0.159l-0.059,-0.16l-0.058,-0.161l-0.055,-0.162l-0.054,-0.162l-0.051,-0.163l-0.05,-0.164l-0.047,-0.165l-0.046,-0.166l-0.043,-0.167l-0.042,-0.167l-0.039,-0.168l-0.038,-0.169l-0.035,-0.17l-0.033,-0.17l-0.032,-0.171l-0.029,-0.171l-0.027,-0.173l-0.024,-0.172l-0.023,-0.174l-0.02,-0.174l-0.019,-0.175l-0.016,-0.175l-0.014,-0.176l-0.011,-0.176l-0.01,-0.177l-0.007,-0.177l-0.005,-0.178l0,-0.033l-0.002,-0.146l0,-0.172l0.301,-45.196l0.132,-0.09l0.005,-21.241l0.009,-0.01l-6.535,-0.036l-0.168,-0.002l-0.172,-0.004l-0.171,-0.007l-0.171,-0.008l-0.171,-0.011l-0.17,-0.013l-0.169,-0.015l-0.169,-0.017l-0.168,-0.019l-0.168,-0.021l-0.167,-0.024l-0.166,-0.025l-0.166,-0.028l-0.165,-0.029l-0.164,-0.032l-0.164,-0.033l-0.162,-0.036l-0.163,-0.038l-0.161,-0.039l-0.161,-0.042l-0.16,-0.043l-0.159,-0.046l-0.158,-0.047l-0.157,-0.049l-0.157,-0.051l-0.156,-0.053l-0.155,-0.055l-0.154,-0.056l-0.153,-0.059l-0.152,-0.06l-0.151,-0.062l-0.151,-0.064l-0.149,-0.066l-0.149,-0.067l-0.147,-0.069l-0.147,-0.071l-0.145,-0.072l-0.145,-0.075l-0.143,-0.076l-0.143,-0.077l-0.141,-0.079l-0.141,-0.081l-0.139,-0.083l-0.138,-0.084l-0.137,-0.086l-0.136,-0.087l-0.135,-0.089l-0.134,-0.09l-0.132,-0.092l-0.132,-0.093l-0.13,-0.095l-0.129,-0.097l-0.128,-0.098l-0.126,-0.099l-0.126,-0.101l-0.124,-0.103l-0.123,-0.103l-0.121,-0.106l-0.12,-0.106l-0.119,-0.108l-0.118,-0.11l-0.117,-0.11l-0.115,-0.113l-0.113,-0.113l-0.113,-0.115l-0.111,-0.116l-0.11,-0.117l-0.108,-0.119l-0.107,-0.12l-0.105,-0.121l-0.104,-0.123l-0.103,-0.123l-0.101,-0.125l-0.099,-0.127l-0.099,-0.127l-0.096,-0.129l-0.095,-0.129l-0.094,-0.131l-0.092,-0.132l-0.091,-0.133l-0.089,-0.135l-0.087,-0.135l-0.086,-0.137l-0.084,-0.137l-0.083,-0.139l-0.081,-0.139l-0.079,-0.141l-0.078,-0.142l-0.076,-0.143l-0.074,-0.143l-0.073,-0.145l-0.071,-0.146l-0.069,-0.147l-0.067,-0.147l-0.066,-0.149l-0.064,-0.15l-0.062,-0.15l-0.061,-0.151l-0.058,-0.152l-0.057,-0.154l-0.055,-0.153l-0.053,-0.155l-0.052,-0.156l-0.049,-0.156l-0.047,-0.157l-0.046,-0.158l-0.044,-0.159l-0.041,-0.16l-0.04,-0.16l-0.038,-0.161l-0.036,-0.161l-0.02,-0.095l-0.014,-0.068l-0.032,-0.163l-0.029,-0.163l-0.028,-0.165l-0.026,-0.165l-0.024,-0.165l-0.021,-0.166l-0.02,-0.167l-0.017,-0.168l-0.016,-0.167l-0.013,-0.169l-0.011,-0.169l-0.009,-0.169l-0.007,-0.17l-0.004,-0.17l-0.003,-0.171l0,-0.167l0.254,-68.006l0.001,-0.159l0.002,-0.161l0.002,-0.161l0.004,-0.16l0.005,-0.161l0.006,-0.16l0.007,-0.159l0.008,-0.16l0.009,-0.159l0.01,-0.159l0.011,-0.159l0.012,-0.158l0.013,-0.159l0.014,-0.158l0.015,-0.157l0.016,-0.158l0.017,-0.157l0.018,-0.157l0.018,-0.156l0.02,-0.157l0.021,-0.156l0.022,-0.155l0.023,-0.156l0.023,-0.155l0.025,-0.155l0.026,-0.154l0.026,-0.154l0.028,-0.154l0.028,-0.154l0.03,-0.153l0.03,-0.153l0.032,-0.153l0.032,-0.152l0.033,-0.152l0.034,-0.152l0.035,-0.151l0.036,-0.151l0.037,-0.151l0.038,-0.15l0.004,-0.015l0.034,-0.135l0.04,-0.149l0.041,-0.149l0.041,-0.149l0.042,-0.149l0.043,-0.148l0.045,-0.148l0.045,-0.147l0.045,-0.147l0.047,-0.147l0.048,-0.146l0.048,-0.146l0.05,-0.145l0.05,-0.145l0.051,-0.145l0.052,-0.144l0.053,-0.144l0.054,-0.143l0.054,-0.143l0.056,-0.143l0.056,-0.142l0.057,-0.142l0.058,-0.141l0.058,-0.141l0.06,-0.141l0.06,-0.14l0.062,-0.14l0.062,-0.139l0.063,-0.139l0.063,-0.138l0.065,-0.138l0.065,-0.137l0.066,-0.137l0.067,-0.137l0.068,-0.136l0.068,-0.135l0.07,-0.136l0.07,-0.134l0.071,-0.134l0.072,-0.134l0.072,-0.133l0.073,-0.133l0.074,-0.132l0.075,-0.132l0.076,-0.132l0.076,-0.13l0.077,-0.131l0.078,-0.13l0.078,-0.129l0.08,-0.129l0.08,-0.128l0.081,-0.128l0.081,-0.127l0.083,-0.127l0.083,-0.126l0.084,-0.126l0.084,-0.125l0.085,-0.124l0.086,-0.125l0.087,-0.123l0.087,-0.123l0.089,-0.123l0.088,-0.122l0.09,-0.121l0.09,-0.121l0.091,-0.12l0.092,-0.12l0.092,-0.119l0.093,-0.119l0.094,-0.118l0.094,-0.117l0.096,-0.117l0.095,-0.116l0.097,-0.116l0.097,-0.115l0.098,-0.115l0.098,-0.114l0.099,-0.113l0.1,-0.113l0.101,-0.112l0.101,-0.112l0.102,-0.111l0.102,-0.11l0.103,-0.11l0.104,-0.109l0.104,-0.108l0.105,-0.108l0.106,-0.108l0.106,-0.106l0.107,-0.106l0.107,-0.106l0.108,-0.104l0.109,-0.105l0.109,-0.103l0.11,-0.103l0.111,-0.102l0.111,-0.102l0.112,-0.1l0.112,-0.101l0.113,-0.099l0.114,-0.099l0.114,-0.098l0.115,-0.098l0.115,-0.097l0.116,-0.096l0.116,-0.096l0.117,-0.094l0.118,-0.095l0.118,-0.093l0.119,-0.093l0.119,-0.092l0.12,-0.091l0.121,-0.091l0.121,-0.09l0.121,-0.089l0.122,-0.089l0.123,-0.088l0.123,-0.087l0.124,-0.086l0.124,-0.086l0.125,-0.085l0.125,-0.084l0.126,-0.084l0.126,-0.083l0.127,-0.082l0.127,-0.081l0.128,-0.081l0.129,-0.079l0.129,-0.079l0.129,-0.079l0.13,-0.077l0.13,-0.077l0.131,-0.076l0.132,-0.075l0.131,-0.075l0.133,-0.073l0.133,-0.073l0.133,-0.073l0.134,-0.071l0.134,-0.07l0.135,-0.07l0.135,-0.069l0.136,-0.068l0.136,-0.068l0.136,-0.066l0.137,-0.066l0.138,-0.065l0.138,-0.064l0.138,-0.064l0.139,-0.062l0.139,-0.062l0.14,-0.061l0.14,-0.06l0.14,-0.059l0.141,-0.059l0.142,-0.057l0.142,-0.057l0.142,-0.056l0.142,-0.055l0.143,-0.054l0.144,-0.053l0.144,-0.053l0.144,-0.051l0.145,-0.051l0.145,-0.05l0.145,-0.049l0.146,-0.048l0.146,-0.047l0.147,-0.047l0.147,-0.045l0.147,-0.045l0.148,-0.044l0.148,-0.043l0.148,-0.041l0.149,-0.041l0.149,-0.041l0.149,-0.039l0.15,-0.038l0.15,-0.038l0.151,-0.036l0.151,-0.036l0.151,-0.034l0.151,-0.034l0.152,-0.033l0.153,-0.032l0.152,-0.031l0.153,-0.03l0.153,-0.029l0.153,-0.028l0.154,-0.027l0.154,-0.026l0.155,-0.026l0.154,-0.024l0.155,-0.023l0.156,-0.023l0.155,-0.021l0.156,-0.02l0.156,-0.02l0.157,-0.018l0.156,-0.018l0.157,-0.017l0.157,-0.015l0.158,-0.015l0.158,-0.013l0.158,-0.013l0.158,-0.011l0.131,-0.009l0.027,-0.002l0.159,-0.01l0.159,-0.008l0.16,-0.008l0.159,-0.006l0.16,-0.006l0.16,-0.004l0.16,-0.004l0.16,-0.002l0.161,-0.002l0.159,0l1.615,-0.001l4.067,-0.003Z" style="fill:#573351;"/></g></g><g id="Cloud" transform="matrix(1,0,0,1,-660.5,-117.657)"><g transform="matrix(0.99772,-0.0674875,0.0674875,0.99772,-11.7055,82.6584)"><text x="1217.55px" y="214.579px" style="font-family:'Lato-Regular', 'Lato', sans-serif;font-size:36px;fill:#573351;stroke:#573351;stroke-width:1px;stroke-linecap:butt;stroke-miterlimit:2;">C</text></g><g transform="matrix(0.999346,-0.0361548,0.0361548,0.999346,-6.8911,45.037)"><text x="1241.82px" y="213.056px" style="font-family:'Lato-Regular', 'Lato', sans-serif;font-size:36px;fill:#573351;stroke:#573351;stroke-width:1px;stroke-linecap:butt;stroke-miterlimit:2;">l</text></g><g transform="matrix(0.999972,-0.00753164,0.00753164,0.999972,-1.56619,9.42509)"><text x="1250.6px" y="212.658px" style="font-family:'Lato-Regular', 'Lato', sans-serif;font-size:36px;fill:#573351;stroke:#573351;stroke-width:1px;stroke-linecap:butt;stroke-miterlimit:2;">o</text></g><g transform="matrix(0.999482,0.0321955,-0.0321955,0.999482,7.50104,-40.8218)"><text x="1271.36px" y="212.513px" style="font-family:'Lato-Regular', 'Lato', sans-serif;font-size:36px;fill:#573351;stroke:#573351;stroke-width:1px;stroke-linecap:butt;stroke-miterlimit:2;">u</text></g><g transform="matrix(0.997445,0.0714342,-0.0714342,0.997445,18.5293,-91.7363)"><text x="1291.83px" y="213.191px" style="font-family:'Lato-Regular', 'Lato', sans-serif;font-size:36px;fill:#573351;stroke:#573351;stroke-width:1px;stroke-linecap:butt;stroke-miterlimit:2;">d</text></g></g><g id="IoT" transform="matrix(1,0,0,1,-660.5,-117.657)"><g transform="matrix(0.998622,-0.0524747,0.0524747,0.998622,-17.493,65.6141)"><text x="1240.79px" y="365.938px" style="font-family:'Lato-Regular', 'Lato', sans-serif;font-size:36px;fill:#573351;stroke:#573351;stroke-width:1px;stroke-linecap:butt;stroke-miterlimit:2;">I</text></g><g transform="matrix(0.999947,-0.0103062,0.0103062,0.999947,-3.69845,12.91)"><text x="1250.77px" y="365.303px" style="font-family:'Lato-Regular', 'Lato', sans-serif;font-size:36px;fill:#573351;stroke:#573351;stroke-width:1px;stroke-linecap:butt;stroke-miterlimit:2;">o</text></g><g transform="matrix(0.999335,0.0364517,-0.0364517,0.999335,14.1481,-45.9489)"><text x="1267.2px" y="365.03px" style="font-family:'Lato-Regular', 'Lato', sans-serif;font-size:36px;fill:#573351;stroke:#573351;stroke-width:1px;stroke-linecap:butt;stroke-miterlimit:2;">T</text></g></g><g id="BYOD" transform="matrix(1,0,0,1,-610.331,-0.345559)"><g transform="matrix(0.990052,-0.140705,0.140705,0.990052,-47.0645,170.153)"><text x="1179.75px" y="417.904px" style="font-family:'Lato-Regular', 'Lato', sans-serif;font-size:24px;fill:#573351;stroke:#573351;stroke-width:1px;stroke-linecap:butt;stroke-miterlimit:2;">B</text></g><g transform="matrix(0.998164,-0.0605766,0.0605766,0.998164,-22.9844,73.1846)"><text x="1195.53px" y="415.67px" style="font-family:'Lato-Regular', 'Lato', sans-serif;font-size:24px;fill:#573351;stroke:#573351;stroke-width:1px;stroke-linecap:butt;stroke-miterlimit:2;">Y</text></g><g transform="matrix(0.999546,0.0301165,-0.0301165,0.999546,13.0374,-36.273)"><text x="1210.67px" y="414.665px" style="font-family:'Lato-Regular', 'Lato', sans-serif;font-size:24px;fill:#573351;stroke:#573351;stroke-width:1px;stroke-linecap:butt;stroke-miterlimit:2;">O</text></g><g transform="matrix(0.990327,0.138755,-0.138755,0.990327,69.5418,-166.819)"><text x="1231.21px" y="415.352px" style="font-family:'Lato-Regular', 'Lato', sans-serif;font-size:24px;fill:#573351;stroke:#573351;stroke-width:1px;stroke-linecap:butt;stroke-miterlimit:2;">D</text></g></g></g><g id="Internet-of-things" serif:id="Internet of things"><g id="icons"><path d="M1385.19,682.015l-53.125,0c-2.588,0 -4.688,2.1 -4.688,4.688l0,31.25c0,2.588 2.1,4.687 4.688,4.687l23.936,0l0,3.125l-15.625,0c-1.729,0 -3.125,1.397 -3.125,3.125c0,1.729 1.396,3.125 3.125,3.125l37.5,0c1.728,0 3.125,-1.396 3.125,-3.125c0,-1.728 -1.397,-3.125 -3.125,-3.125l-15.625,0l0,-3.125l22.939,0c2.588,0 4.687,-2.099 4.687,-4.687l0,-31.25c0,-2.588 -2.099,-4.688 -4.687,-4.688Zm-1.563,34.375l-50,0l0,-28.125l50,0l0,28.125Z" style="fill:#573351;fill-rule:nonzero;"/><clipPath id="_clip2"><rect x="1262.92" y="682.015" width="50" height="50"/></clipPath><g clip-path="url(#_clip2)"><g><path d="M1298.15,713.425l-2.204,0l0,-20.149c1.497,-0.494 2.582,-1.906 2.582,-3.567c0,-2.07 -1.685,-3.755 -3.756,-3.755c-2.07,0 -3.755,1.685 -3.755,3.755c0,1.661 1.084,3.073 2.582,3.567l0,20.149l-7.082,0c-0.389,-3.29 -3.661,-5.868 -7.628,-5.868c-3.966,0 -7.238,2.578 -7.628,5.868l-0.058,0c-1.941,0 -3.52,1.579 -3.52,3.521l0,11.549c0,1.941 1.579,3.52 3.52,3.52l26.947,0c1.942,0 3.521,-1.579 3.521,-3.52l0,-11.549c0,-1.942 -1.58,-3.521 -3.521,-3.521Zm-3.378,-25.124c0.777,0 1.408,0.632 1.408,1.408c0,0.777 -0.631,1.409 -1.408,1.409c-0.776,0 -1.408,-0.632 -1.408,-1.409c0,-0.776 0.632,-1.408 1.408,-1.408Zm-15.883,21.603c2.648,0 4.85,1.528 5.254,3.521l-10.507,0c0.404,-1.993 2.606,-3.521 5.253,-3.521Zm20.435,18.591c0,0.647 -0.527,1.173 -1.174,1.173l-26.947,0c-0.647,0 -1.173,-0.526 -1.173,-1.173l0,-11.549c0,-0.647 0.526,-1.174 1.173,-1.174l26.947,0c0.647,0 1.174,0.527 1.174,1.174l0,11.549Z" style="fill:#573351;fill-rule:nonzero;"/><path d="M1276.04,724.672l-1.799,0c-0.648,0 -1.174,0.526 -1.174,1.174c0,0.648 0.526,1.173 1.174,1.173l1.798,0c0.648,0 1.174,-0.525 1.174,-1.173c0,-0.648 -0.525,-1.174 -1.173,-1.174Z" style="fill:#573351;fill-rule:nonzero;"/><path d="M1281.64,724.672l-1.799,0c-0.648,0 -1.173,0.526 -1.173,1.174c0,0.648 0.525,1.173 1.173,1.173l1.799,0c0.648,0 1.174,-0.525 1.174,-1.173c0,-0.648 -0.526,-1.174 -1.174,-1.174Z" style="fill:#573351;fill-rule:nonzero;"/><path d="M1287.24,724.672l-1.798,0c-0.648,0 -1.174,0.526 -1.174,1.174c0,0.648 0.526,1.173 1.174,1.173l1.798,0c0.648,0 1.174,-0.525 1.174,-1.173c0,-0.648 -0.526,-1.174 -1.174,-1.174Z" style="fill:#573351;fill-rule:nonzero;"/><path d="M1296.01,724.672l-1.797,0c-0.648,0 -1.174,0.526 -1.174,1.174c0,0.648 0.526,1.173 1.174,1.173l1.797,0c0.648,0 1.174,-0.525 1.174,-1.173c0,-0.648 -0.526,-1.174 -1.174,-1.174Z" style="fill:#573351;fill-rule:nonzero;"/><path d="M1305.79,682.459c-0.403,-0.507 -1.141,-0.592 -1.649,-0.189c-0.508,0.402 -0.593,1.141 -0.19,1.648c1.126,1.419 1.853,3.69 1.853,5.785c0,2.115 -0.74,4.403 -1.887,5.828c-0.406,0.505 -0.326,1.244 0.179,1.65c0.217,0.175 0.477,0.26 0.735,0.26c0.343,0 0.683,-0.15 0.915,-0.439c1.484,-1.844 2.405,-4.641 2.405,-7.299c0,-2.632 -0.905,-5.408 -2.361,-7.244Z" style="fill:#573351;fill-rule:nonzero;"/><path d="M1302.13,684.801c-0.403,-0.508 -1.141,-0.593 -1.649,-0.19c-0.508,0.403 -0.593,1.141 -0.19,1.649c0.593,0.747 1.04,2.232 1.04,3.453c0,1.231 -0.455,2.726 -1.059,3.477c-0.406,0.505 -0.326,1.244 0.179,1.65c0.217,0.174 0.476,0.259 0.735,0.259c0.343,0 0.683,-0.15 0.915,-0.438c1.089,-1.354 1.577,-3.461 1.577,-4.948c0,-1.474 -0.479,-3.564 -1.548,-4.912Z" style="fill:#573351;fill-rule:nonzero;"/><path d="M1284.63,697.441c0.258,0 0.518,-0.085 0.735,-0.26c0.505,-0.406 0.585,-1.145 0.179,-1.65c-1.146,-1.425 -1.887,-3.713 -1.887,-5.828c0,-2.095 0.727,-4.366 1.853,-5.785c0.403,-0.507 0.318,-1.246 -0.19,-1.648c-0.507,-0.403 -1.246,-0.318 -1.648,0.189c-1.457,1.836 -2.362,4.612 -2.362,7.244c0,2.658 0.922,5.455 2.405,7.299c0.232,0.289 0.572,0.439 0.915,0.439Z" style="fill:#573351;fill-rule:nonzero;"/><path d="M1288.27,695.099c0.258,0 0.518,-0.085 0.735,-0.259c0.505,-0.406 0.585,-1.145 0.179,-1.65c-0.604,-0.751 -1.06,-2.246 -1.06,-3.477c0,-1.222 0.447,-2.706 1.04,-3.453c0.403,-0.508 0.318,-1.246 -0.19,-1.649c-0.507,-0.403 -1.245,-0.318 -1.648,0.19c-1.07,1.348 -1.549,3.438 -1.549,4.912c0,1.487 0.488,3.593 1.578,4.948c0.232,0.288 0.572,0.438 0.915,0.438Z" style="fill:#573351;fill-rule:nonzero;"/></g></g><g><path d="M1240.91,690.54l-1.95,0l0.391,-1.107c0.169,-0.478 0.095,-1.009 -0.197,-1.422c-0.293,-0.414 -0.769,-0.661 -1.276,-0.661l-31.942,0c-4.321,0 -7.965,2.867 -9.034,6.748c-2.228,0.544 -3.884,2.517 -3.884,4.862c0,2.344 1.656,4.317 3.884,4.862c1.069,3.881 4.713,6.747 9.034,6.747l8.481,0l0,9.536l-15.511,0c-0.674,-2 -2.602,-3.449 -4.871,-3.449c-0.862,0 -1.562,0.7 -1.562,1.562l0,6.899c0,0.863 0.7,1.563 1.562,1.563c2.27,0 4.198,-1.449 4.871,-3.45l17.074,0c0.863,0 1.562,-0.699 1.562,-1.562l0,-11.099l13.241,0c0.662,0 1.252,-0.417 1.473,-1.042l0.758,-2.147l7.896,0c0.863,0 1.563,-0.7 1.563,-1.563l0,-13.714c0,-0.863 -0.7,-1.563 -1.563,-1.563Zm-34.974,16.905c-3.434,0 -6.228,-2.682 -6.228,-5.978l0,-5.014c0,-3.296 2.794,-5.978 6.228,-5.978l29.733,0l-5.122,14.507c-0.124,0.195 -0.206,0.419 -0.233,0.661l-0.636,1.802l-23.742,0Zm33.412,-3.19l-5.23,0l3.739,-10.59l1.491,0l0,10.59Z" style="fill:#573351;fill-rule:nonzero;"/><path d="M1223.89,699.257c-2.077,0 -3.767,1.658 -3.767,3.695c0,2.038 1.69,3.696 3.767,3.696c2.077,0 3.766,-1.658 3.766,-3.696c0,-2.037 -1.689,-3.695 -3.766,-3.695Z" style="fill:#573351;fill-rule:nonzero;"/></g><g id="smart-light" serif:id="smart light"><clipPath id="_clip3"><rect x="1129.98" y="682.015" width="34.375" height="50"/></clipPath><g clip-path="url(#_clip3)"><path d="M1147.16,682.015c-10.053,0 -17.199,8.158 -17.187,17.211c0.006,4.324 1.611,8.269 4.254,11.283c2.505,2.857 4.911,7.51 5.121,9.006l0.006,7.342c0,0.308 0.092,0.607 0.262,0.863l2.393,3.598c0.29,0.436 0.778,0.697 1.301,0.697l7.7,0c0.524,0 1.012,-0.261 1.301,-0.697l2.393,-3.598c0.17,-0.256 0.261,-0.556 0.262,-0.863l0.007,-7.342c0.221,-1.535 2.636,-6.171 5.121,-9.006c2.648,-3.02 4.254,-6.973 4.254,-11.306c0,-9.492 -7.695,-17.188 -17.188,-17.188Zm4.682,44.366l-1.669,2.509l-6.026,0l-1.669,-2.509l-0.001,-0.616l9.365,0l0,0.616Zm0.004,-3.741l-9.372,0l-0.007,-3.125l9.383,0l-0.004,3.125Zm5.898,-14.191c-1.366,1.558 -3.547,4.697 -4.939,7.94l-11.288,0c-1.393,-3.244 -3.573,-6.382 -4.94,-7.94c-2.258,-2.576 -3.466,-5.843 -3.474,-9.246c-0.018,-7.519 5.896,-14.063 14.057,-14.063c7.754,0 14.063,6.309 14.063,14.063c0,3.403 -1.235,6.687 -3.479,9.246Zm-10.584,-20.184c-6.03,0 -10.937,4.908 -10.937,10.938c0,0.863 0.699,1.562 1.562,1.562c0.864,0 1.563,-0.699 1.563,-1.562c0,-4.308 3.504,-7.813 7.812,-7.813c0.864,0 1.563,-0.699 1.563,-1.562c0,-0.864 -0.699,-1.563 -1.563,-1.563Z" style="fill:#573351;fill-rule:nonzero;"/></g><path d="M1147.16,709.291c-1.06,0 -1.923,0.863 -1.923,1.923c0,1.061 0.863,1.923 1.923,1.923c1.061,0 1.923,-0.862 1.923,-1.923c0,-1.06 -0.862,-1.923 -1.923,-1.923Zm6.091,-2.512c-3.464,-3.061 -8.72,-3.058 -12.178,0c-0.195,0.175 -0.213,0.475 -0.042,0.671c0.009,0.009 0.015,0.018 0.024,0.024l1.034,1.021c0.18,0.177 0.468,0.189 0.661,0.024c2.524,-2.181 6.3,-2.175 8.818,0c0.193,0.165 0.481,0.156 0.661,-0.024l1.034,-1.021c0.186,-0.184 0.192,-0.484 0.009,-0.673l-0.021,-0.022Zm3.386,-3.395c-0.006,-0.006 -0.012,-0.009 -0.015,-0.015c-5.324,-4.925 -13.602,-4.922 -18.923,0c-0.193,0.18 -0.205,0.481 -0.027,0.676c0.006,0.006 0.009,0.012 0.015,0.015l1.027,1.022c0.187,0.183 0.481,0.186 0.673,0.012c4.384,-4.017 11.157,-4.017 15.541,0c0.192,0.177 0.486,0.171 0.673,-0.012l1.027,-1.022c0.193,-0.186 0.196,-0.487 0.009,-0.676Z" style="fill:#573351;fill-rule:nonzero;"/></g></g><path d="M1768.17,653.418l-637.591,-0.964l-183.42,-9.805" style="fill:none;stroke:#020202;stroke-width:5px;"/><text x="1124.75px" y="635.892px" style="font-family:'Lato-Regular', 'Lato', sans-serif;font-size:64px;fill:#573351;stroke:#573351;stroke-width:1px;stroke-linecap:butt;stroke-miterlimit:2;">Y<tspan x="1157.68px " y="635.892px ">o</tspan>ur<tspan x="1251.6px 1267.98px 1285.42px 1320.68px 1343.47px " y="635.892px 635.892px 635.892px 635.892px 635.892px "> Inte</tspan>rne<tspan x="1469.84px " y="635.892px ">t</tspan> o<tspan x="1544.75px 1566px 1580.46px 1617.71px " y="635.892px 635.892px 635.892px 635.892px ">f Th</tspan>ings</text><circle cx="947.161" cy="642.649" r="12.032" style="fill:#fff;stroke:#020202;stroke-width:5px;"/><circle cx="1097.99" cy="653.217" r="12.032" style="fill:#fff;stroke:#020202;stroke-width:5px;"/></g></svg>