<?xml version="1.0" encoding="UTF-8" standalone="no"?><!DOCTYPE svg PUBLIC "-//W3C//DTD SVG 1.1//EN" "http://www.w3.org/Graphics/SVG/1.1/DTD/svg11.dtd"><svg width="100%" height="100%" viewBox="0 0 1815 1203" version="1.1" xmlns="http://www.w3.org/2000/svg" xmlns:xlink="http://www.w3.org/1999/xlink" xml:space="preserve" xmlns:serif="http://www.serif.com/" style="fill-rule:evenodd;clip-rule:evenodd;stroke-linecap:round;stroke-linejoin:round;stroke-miterlimit:1.5;"><rect id="basics-byod" x="0" y="0" width="1814.26" height="1202.45" style="fill:none;"/><g id="Rings"><path id="Ring-3" serif:id="Ring 3" d="M590.805,103.824c274.816,0 497.932,223.116 497.932,497.932c0,274.817 -223.116,497.933 -497.932,497.933c-274.817,0 -497.933,-223.116 -497.933,-497.933c0,-274.816 223.116,-497.932 497.933,-497.932Zm0,153.644c190.018,0 344.288,154.27 344.288,344.288c0,190.018 -154.27,344.289 -344.288,344.289c-190.018,0 -344.289,-154.271 -344.289,-344.289c0,-190.018 154.271,-344.288 344.289,-344.288Z" style="fill:#b73a7d;fill-opacity:0.17;stroke:#573351;stroke-width:5px;"/><path id="Ring-2" serif:id="Ring 2" d="M590.805,257.468c190.018,0 344.288,154.27 344.288,344.288c0,190.018 -154.27,344.289 -344.288,344.289c-190.018,0 -344.289,-154.271 -344.289,-344.289c0,-190.018 154.271,-344.288 344.289,-344.288Zm0,168.468c67.741,0 126.586,38.393 155.943,94.588c12.696,24.303 19.877,51.936 19.877,81.232c0,97.038 -78.782,175.821 -175.82,175.821c-97.038,0 -175.821,-78.783 -175.821,-175.821c0,-97.038 78.783,-175.82 175.821,-175.82Z" style="fill:#b73a7d;fill-opacity:0.32;stroke:#573351;stroke-width:5px;"/><circle id="Ring-1" serif:id="Ring 1" cx="590.805" cy="601.756" r="175.82" style="fill:#b73a7d;fill-opacity:0.7;stroke:#573351;stroke-width:5px;"/><clipPath id="_clip1"><rect x="540.805" y="471.756" width="100" height="260"/></clipPath><g clip-path="url(#_clip1)"><g><path d="M558.805,505.756c0,-17.554 14.445,-32 32,-32c17.554,0 32,14.446 32,32c0,17.555 -14.446,32 -32,32c-17.555,0 -32,-14.445 -32,-32Z" style="fill:#fff;fill-rule:nonzero;"/><path d="M557.769,505.332l0.003,-0.212l0.002,-0.107l0.003,-0.104l0.005,-0.211l0.008,-0.211l0.008,-0.21l0.01,-0.21l0.011,-0.21l0.013,-0.21l0.014,-0.209l0.015,-0.209l0.016,-0.208l0.018,-0.208l0.019,-0.208l0.02,-0.208l0.022,-0.207l0.023,-0.207l0.024,-0.206l0.026,-0.206l0.027,-0.206l0.028,-0.205l0.029,-0.205l0.031,-0.204l0.032,-0.204l0.033,-0.204l0.034,-0.203l0.036,-0.203l0.037,-0.203l0.038,-0.202l0.04,-0.202l0.04,-0.201l0.042,-0.201l0.043,-0.2l0.045,-0.2l0.045,-0.2l0.047,-0.199l0.048,-0.199l0.049,-0.198l0.051,-0.198l0.051,-0.197l0.053,-0.197l0.054,-0.196l0.055,-0.196l0.056,-0.195l0.058,-0.195l0.058,-0.195l0.06,-0.194l0.061,-0.193l0.062,-0.193l0.064,-0.193l0.064,-0.192l0.066,-0.191l0.066,-0.191l0.059,-0.165l0.009,-0.026l0.069,-0.19l0.071,-0.189l0.071,-0.189l0.072,-0.188l0.074,-0.188l0.075,-0.187l0.075,-0.187l0.077,-0.186l0.078,-0.186l0.079,-0.185l0.08,-0.184l0.082,-0.184l0.082,-0.183l0.083,-0.183l0.085,-0.182l0.085,-0.182l0.087,-0.181l0.088,-0.18l0.088,-0.18l0.09,-0.179l0.091,-0.179l0.092,-0.178l0.093,-0.177l0.094,-0.177l0.095,-0.176l0.096,-0.176l0.097,-0.174l0.098,-0.175l0.099,-0.173l0.1,-0.173l0.101,-0.173l0.102,-0.171l0.103,-0.171l0.104,-0.171l0.105,-0.169l0.106,-0.17l0.107,-0.168l0.108,-0.168l0.109,-0.167l0.11,-0.166l0.111,-0.166l0.112,-0.165l0.113,-0.164l0.114,-0.163l0.115,-0.163l0.115,-0.163l0.117,-0.161l0.118,-0.161l0.118,-0.16l0.12,-0.159l0.12,-0.159l0.121,-0.158l0.122,-0.157l0.123,-0.156l0.124,-0.156l0.125,-0.155l0.126,-0.154l0.127,-0.153l0.128,-0.153l0.128,-0.152l0.129,-0.151l0.131,-0.15l0.131,-0.15l0.132,-0.149l0.133,-0.148l0.133,-0.147l0.135,-0.146l0.135,-0.146l0.137,-0.145l0.137,-0.144l0.138,-0.143l0.139,-0.142l0.139,-0.142l0.141,-0.141l0.141,-0.14l0.142,-0.139l0.143,-0.138l0.144,-0.138l0.145,-0.136l0.145,-0.136l0.146,-0.135l0.147,-0.134l0.148,-0.133l0.149,-0.133l0.149,-0.131l0.15,-0.131l0.151,-0.13l0.152,-0.128l0.153,-0.128l0.026,-0.023l0.127,-0.104l0.154,-0.126l0.155,-0.126l0.156,-0.124l0.156,-0.123l0.158,-0.123l0.158,-0.121l0.158,-0.121l0.16,-0.119l0.16,-0.119l0.161,-0.118l0.161,-0.117l0.163,-0.116l0.163,-0.115l0.164,-0.114l0.164,-0.113l0.165,-0.112l0.166,-0.111l0.167,-0.11l0.167,-0.11l0.168,-0.108l0.169,-0.107l0.169,-0.107l0.17,-0.105l0.171,-0.104l0.171,-0.104l0.172,-0.102l0.173,-0.101l0.173,-0.101l0.174,-0.099l0.174,-0.098l0.176,-0.098l0.176,-0.096l0.176,-0.095l0.177,-0.094l0.178,-0.094l0.179,-0.092l0.179,-0.091l0.179,-0.09l0.181,-0.089l0.18,-0.088l0.182,-0.087l0.182,-0.085l0.183,-0.085l0.183,-0.084l0.184,-0.082l0.184,-0.082l0.185,-0.08l0.186,-0.08l0.186,-0.078l0.187,-0.077l0.187,-0.076l0.188,-0.075l0.188,-0.074l0.189,-0.072l0.19,-0.072l0.19,-0.07l0.19,-0.07l0.191,-0.068l0.192,-0.067l0.192,-0.066l0.193,-0.064l0.193,-0.064l0.194,-0.062l0.194,-0.062l0.195,-0.06l0.195,-0.059l0.196,-0.057l0.196,-0.057l0.197,-0.055l0.197,-0.055l0.198,-0.053l0.198,-0.051l0.198,-0.051l0.199,-0.049l0.2,-0.049l0.2,-0.047l0.2,-0.045l0.201,-0.045l0.202,-0.043l0.202,-0.042l0.202,-0.041l0.202,-0.04l0.204,-0.038l0.203,-0.037l0.204,-0.036l0.204,-0.035l0.205,-0.033l0.205,-0.032l0.206,-0.031l0.206,-0.03l0.206,-0.028l0.207,-0.027l0.207,-0.025l0.208,-0.025l0.208,-0.023l0.208,-0.022l0.208,-0.02l0.209,-0.02l0.21,-0.017l0.21,-0.017l0.21,-0.015l0.21,-0.014l0.211,-0.013l0.211,-0.011l0.075,-0.004l0.136,-0.006l0.212,-0.008l0.212,-0.007l0.213,-0.005l0.212,-0.004l0.213,-0.003l0.214,-0.001l0.213,0l0.213,0.001l0.213,0.003l0.212,0.004l0.212,0.005l0.212,0.007l0.212,0.008l0.211,0.01l0.211,0.011l0.211,0.012l0.21,0.013l0.21,0.015l0.209,0.016l0.21,0.018l0.209,0.019l0.208,0.02l0.209,0.021l0.207,0.023l0.208,0.024l0.207,0.025l0.207,0.027l0.206,0.028l0.206,0.029l0.206,0.03l0.205,0.032l0.205,0.033l0.205,0.034l0.204,0.036l0.204,0.036l0.203,0.038l0.203,0.04l0.202,0.04l0.202,0.042l0.202,0.043l0.201,0.044l0.201,0.045l0.2,0.047l0.2,0.048l0.199,0.049l0.199,0.05l0.199,0.052l0.198,0.053l0.197,0.054l0.198,0.055l0.196,0.056l0.196,0.058l0.085,0.025l0.111,0.033l0.195,0.061l0.194,0.061l0.195,0.063l0.193,0.064l0.193,0.064l0.193,0.067l0.192,0.067l0.191,0.068l0.191,0.07l0.19,0.07l0.19,0.072l0.19,0.073l0.188,0.074l0.189,0.075l0.187,0.077l0.187,0.077l0.187,0.079l0.186,0.079l0.185,0.081l0.185,0.082l0.185,0.083l0.183,0.084l0.183,0.085l0.183,0.086l0.182,0.087l0.181,0.088l0.181,0.09l0.18,0.09l0.18,0.092l0.178,0.092l0.179,0.094l0.177,0.094l0.177,0.096l0.177,0.097l0.175,0.097l0.176,0.099l0.174,0.1l0.174,0.101l0.173,0.102l0.172,0.103l0.172,0.103l0.171,0.105l0.171,0.106l0.17,0.107l0.169,0.108l0.168,0.109l0.168,0.109l0.167,0.111l0.167,0.112l0.165,0.113l0.165,0.113l0.164,0.115l0.164,0.116l0.013,0.009l0.15,0.107l0.161,0.118l0.162,0.119l0.16,0.12l0.16,0.121l0.158,0.121l0.159,0.123l0.157,0.123l0.157,0.125l0.155,0.125l0.156,0.126l0.154,0.128l0.153,0.128l0.153,0.129l0.152,0.129l0.151,0.131l0.151,0.132l0.15,0.132l0.148,0.133l0.149,0.135l0.147,0.135l0.146,0.136l0.146,0.136l0.145,0.138l0.144,0.139l0.143,0.139l0.142,0.14l0.142,0.141l0.14,0.142l0.14,0.143l0.139,0.143l0.138,0.144l0.138,0.146l0.136,0.146l0.136,0.146l0.134,0.148l0.134,0.148l0.133,0.149l0.132,0.15l0.132,0.151l0.13,0.152l0.129,0.152l0.129,0.153l0.128,0.154l0.126,0.154l0.126,0.156l0.125,0.156l0.124,0.157l0.123,0.157l0.122,0.159l0.122,0.159l0.12,0.16l0.119,0.16l0.119,0.161l0.117,0.163l0.117,0.162l0.115,0.164l0.115,0.164l0.114,0.165l0.112,0.165l0.112,0.167l0.111,0.167l0.11,0.167l0.109,0.169l0.107,0.169l0.107,0.17l0.106,0.17l0.105,0.171l0.104,0.172l0.103,0.172l0.102,0.173l0.1,0.174l0.1,0.174l0.099,0.175l0.098,0.176l0.096,0.176l0.096,0.177l0.095,0.178l0.093,0.178l0.012,0.023l0.081,0.156l0.091,0.179l0.09,0.18l0.089,0.181l0.088,0.182l0.087,0.182l0.086,0.182l0.085,0.183l0.084,0.184l0.083,0.184l0.081,0.185l0.081,0.185l0.079,0.186l0.078,0.187l0.078,0.187l0.076,0.188l0.075,0.188l0.074,0.189l0.072,0.189l0.072,0.19l0.07,0.19l0.07,0.191l0.068,0.192l0.067,0.192l0.066,0.192l0.064,0.193l0.064,0.194l0.062,0.194l0.062,0.194l0.06,0.195l0.058,0.196l0.058,0.196l0.057,0.196l0.055,0.197l0.054,0.197l0.053,0.198l0.052,0.199l0.05,0.198l0.05,0.2l0.048,0.199l0.047,0.201l0.045,0.2l0.045,0.201l0.043,0.202l0.042,0.202l0.041,0.202l0.039,0.203l0.038,0.203l0.037,0.203l0.036,0.204l0.034,0.205l0.034,0.204l0.032,0.206l0.03,0.205l0.03,0.206l0.028,0.206l0.027,0.207l0.025,0.207l0.024,0.208l0.023,0.207l0.022,0.209l0.02,0.208l0.019,0.209l0.018,0.209l0.016,0.21l0.015,0.21l0.014,0.21l0.012,0.21l0.012,0.211l0.009,0.211l0.009,0.212l0.007,0.212l0.005,0.212l0.005,0.212l0.003,0.213l0.001,0.213l0,0.213l-0.001,0.214l-0.002,0.212l-0.004,0.213l-0.005,0.213l-0.007,0.212l-0.008,0.211l-0.009,0.212l-0.011,0.211l-0.012,0.211l-0.013,0.21l-0.015,0.21l-0.015,0.21l-0.018,0.209l-0.018,0.209l-0.02,0.209l-0.021,0.208l-0.023,0.208l-0.024,0.208l-0.025,0.207l-0.026,0.207l-0.005,0.034l-0.023,0.173l-0.029,0.206l-0.03,0.205l-0.032,0.206l-0.033,0.204l-0.034,0.205l-0.036,0.204l-0.036,0.204l-0.038,0.203l-0.04,0.203l-0.04,0.202l-0.042,0.202l-0.043,0.201l-0.044,0.201l-0.045,0.201l-0.047,0.2l-0.048,0.2l-0.049,0.199l-0.05,0.199l-0.051,0.198l-0.053,0.198l-0.054,0.197l-0.055,0.197l-0.056,0.197l-0.057,0.196l-0.059,0.195l-0.06,0.195l-0.061,0.194l-0.062,0.194l-0.063,0.194l-0.064,0.193l-0.066,0.192l-0.067,0.192l-0.068,0.191l-0.069,0.191l-0.07,0.19l-0.071,0.19l-0.072,0.189l-0.074,0.189l-0.074,0.188l-0.076,0.187l-0.077,0.187l-0.078,0.187l-0.079,0.186l-0.08,0.185l-0.081,0.185l-0.083,0.184l-0.083,0.183l-0.085,0.183l-0.085,0.183l-0.087,0.181l-0.088,0.181l-0.088,0.181l-0.09,0.18l-0.091,0.179l-0.092,0.179l-0.093,0.178l-0.094,0.177l-0.095,0.177l-0.096,0.176l-0.097,0.176l-0.098,0.175l-0.1,0.174l-0.1,0.174l-0.101,0.173l-0.102,0.172l-0.103,0.171l-0.105,0.171l-0.105,0.171l-0.106,0.169l-0.107,0.169l-0.108,0.168l-0.109,0.168l-0.111,0.167l-0.111,0.166l-0.112,0.165l-0.113,0.165l-0.114,0.164l-0.115,0.164l-0.115,0.162l-0.117,0.162l-0.118,0.161l-0.119,0.161l-0.119,0.16l-0.121,0.158l-0.121,0.159l-0.123,0.157l-0.123,0.157l-0.124,0.156l-0.125,0.155l-0.126,0.155l-0.127,0.153l-0.128,0.153l-0.129,0.152l-0.129,0.152l-0.131,0.15l-0.131,0.15l-0.132,0.149l-0.133,0.149l-0.134,0.147l-0.135,0.147l-0.136,0.145l-0.136,0.146l-0.137,0.144l-0.139,0.143l-0.139,0.143l-0.14,0.141l-0.14,0.141l-0.142,0.14l-0.142,0.14l-0.143,0.138l-0.144,0.138l-0.145,0.136l-0.146,0.136l-0.146,0.135l-0.147,0.134l-0.148,0.133l-0.149,0.133l-0.15,0.131l-0.15,0.131l-0.151,0.13l-0.152,0.129l-0.153,0.128l-0.153,0.127l-0.154,0.126l-0.155,0.125l-0.156,0.124l-0.157,0.124l-0.157,0.122l-0.158,0.122l-0.158,0.121l-0.16,0.119l-0.16,0.119l-0.161,0.118l-0.161,0.117l-0.163,0.116l-0.163,0.115l-0.163,0.114l-0.165,0.113l-0.165,0.113l-0.166,0.111l-0.166,0.11l-0.167,0.109l-0.168,0.109l-0.169,0.107l-0.169,0.106l-0.17,0.106l-0.171,0.104l-0.171,0.103l-0.172,0.103l-0.172,0.101l-0.173,0.1l-0.174,0.099l-0.175,0.099l-0.175,0.097l-0.176,0.096l-0.176,0.095l-0.177,0.095l-0.178,0.093l-0.178,0.092l-0.179,0.091l-0.179,0.09l-0.18,0.089l-0.181,0.087l-0.181,0.087l-0.182,0.086l-0.182,0.085l-0.183,0.083l-0.184,0.083l-0.184,0.081l-0.185,0.08l-0.185,0.08l-0.186,0.078l-0.186,0.077l-0.187,0.076l-0.188,0.074l-0.188,0.074l-0.189,0.073l-0.189,0.071l-0.189,0.07l-0.191,0.069l-0.19,0.068l-0.192,0.067l-0.191,0.066l-0.193,0.065l-0.192,0.063l-0.194,0.062l-0.193,0.061l-0.195,0.06l-0.194,0.059l-0.196,0.058l-0.195,0.056l-0.197,0.055l-0.196,0.054l-0.197,0.053l-0.198,0.052l-0.198,0.05l-0.199,0.05l-0.199,0.048l-0.199,0.046l-0.2,0.046l-0.2,0.044l-0.201,0.044l-0.201,0.041l-0.202,0.041l-0.202,0.04l-0.202,0.038l-0.203,0.037l-0.203,0.036l-0.204,0.034l-0.204,0.033l-0.204,0.032l-0.205,0.031l-0.205,0.029l-0.206,0.028l-0.206,0.027l-0.206,0.026l-0.207,0.024l-0.207,0.023l-0.207,0.022l-0.208,0.02l-0.208,0.019l-0.172,0.015l-0.037,0.003l-0.209,0.016l-0.209,0.015l-0.209,0.014l-0.21,0.013l-0.21,0.011l-0.211,0.009l-0.21,0.009l-0.211,0.007l-0.212,0.006l-0.212,0.004l-0.212,0.003l-0.212,0.002l-0.212,0l-0.213,-0.001l-0.212,-0.002l-0.212,-0.004l-0.212,-0.005l-0.211,-0.007l-0.211,-0.007l-0.211,-0.01l-0.21,-0.01l-0.21,-0.012l-0.21,-0.013l-0.209,-0.014l-0.21,-0.016l-0.208,-0.017l-0.209,-0.019l-0.208,-0.019l-0.207,-0.021l-0.208,-0.023l-0.206,-0.023l-0.207,-0.025l-0.206,-0.027l-0.206,-0.027l-0.205,-0.029l-0.205,-0.03l-0.205,-0.031l-0.204,-0.033l-0.204,-0.033l-0.204,-0.035l-0.203,-0.037l-0.202,-0.037l-0.202,-0.039l-0.202,-0.04l-0.201,-0.042l-0.201,-0.042l-0.201,-0.044l-0.2,-0.045l-0.199,-0.046l-0.199,-0.047l-0.199,-0.049l-0.198,-0.05l-0.198,-0.051l-0.197,-0.052l-0.197,-0.053l-0.197,-0.055l-0.195,-0.056l-0.196,-0.057l-0.195,-0.058l-0.194,-0.059l-0.194,-0.061l-0.193,-0.061l-0.193,-0.063l-0.193,-0.064l-0.192,-0.065l-0.191,-0.066l-0.191,-0.068l-0.19,-0.068l-0.19,-0.07l-0.189,-0.071l-0.189,-0.072l-0.188,-0.073l-0.188,-0.074l-0.187,-0.075l-0.186,-0.076l-0.186,-0.078l-0.185,-0.078l-0.185,-0.08l-0.185,-0.081l-0.183,-0.082l-0.183,-0.083l-0.183,-0.084l-0.182,-0.085l-0.181,-0.086l-0.181,-0.087l-0.18,-0.088l-0.179,-0.09l-0.179,-0.09l-0.179,-0.091l-0.177,-0.093l-0.177,-0.093l-0.177,-0.095l-0.176,-0.095l-0.175,-0.097l-0.174,-0.098l-0.174,-0.098l-0.174,-0.1l-0.172,-0.101l-0.172,-0.101l-0.171,-0.103l-0.171,-0.104l-0.17,-0.104l-0.169,-0.106l-0.169,-0.107l-0.168,-0.107l-0.167,-0.109l-0.167,-0.11l-0.166,-0.11l-0.165,-0.112l-0.164,-0.112l-0.164,-0.113l-0.163,-0.115l-0.162,-0.115l-0.162,-0.116l-0.161,-0.118l-0.16,-0.118l-0.16,-0.119l-0.158,-0.12l-0.158,-0.121l-0.158,-0.122l-0.156,-0.122l-0.156,-0.124l-0.155,-0.125l-0.154,-0.125l-0.154,-0.127l-0.152,-0.127l-0.152,-0.128l-0.152,-0.129l-0.15,-0.13l-0.15,-0.131l-0.149,-0.131l-0.148,-0.133l-0.147,-0.133l-0.146,-0.135l-0.146,-0.135l-0.145,-0.136l-0.144,-0.137l-0.143,-0.137l-0.143,-0.139l-0.141,-0.139l-0.141,-0.14l-0.14,-0.141l-0.139,-0.142l-0.138,-0.143l-0.138,-0.143l-0.136,-0.144l-0.136,-0.145l-0.135,-0.146l-0.134,-0.147l-0.133,-0.148l-0.132,-0.148l-0.132,-0.149l-0.13,-0.15l-0.13,-0.15l-0.129,-0.152l-0.128,-0.152l-0.127,-0.153l-0.126,-0.153l-0.125,-0.155l-0.124,-0.155l-0.124,-0.156l-0.122,-0.157l-0.122,-0.157l-0.12,-0.158l-0.12,-0.159l-0.119,-0.16l-0.117,-0.16l-0.117,-0.161l-0.116,-0.162l-0.115,-0.163l-0.114,-0.163l-0.114,-0.164l-0.112,-0.164l-0.111,-0.166l-0.11,-0.166l-0.109,-0.166l-0.109,-0.168l-0.107,-0.168l-0.106,-0.169l-0.106,-0.169l-0.104,-0.17l-0.103,-0.171l-0.103,-0.171l-0.101,-0.172l-0.1,-0.173l-0.1,-0.173l-0.098,-0.174l-0.097,-0.175l-0.096,-0.175l-0.096,-0.176l-0.094,-0.177l-0.093,-0.177l-0.092,-0.177l-0.091,-0.179l-0.09,-0.179l-0.089,-0.179l-0.088,-0.181l-0.087,-0.18l-0.086,-0.182l-0.084,-0.182l-0.084,-0.182l-0.083,-0.183l-0.081,-0.184l-0.08,-0.184l-0.08,-0.185l-0.078,-0.186l-0.077,-0.186l-0.076,-0.186l-0.075,-0.187l-0.073,-0.188l-0.073,-0.188l-0.072,-0.189l-0.07,-0.189l-0.069,-0.19l-0.068,-0.19l-0.067,-0.191l-0.066,-0.191l-0.065,-0.192l-0.063,-0.192l-0.063,-0.193l-0.061,-0.194l-0.06,-0.193l-0.059,-0.195l-0.058,-0.195l-0.056,-0.195l-0.056,-0.196l-0.054,-0.196l-0.053,-0.197l-0.051,-0.197l-0.051,-0.197l-0.049,-0.199l-0.049,-0.198l-0.047,-0.199l-0.045,-0.2l-0.045,-0.2l-0.043,-0.2l-0.042,-0.201l-0.041,-0.201l-0.04,-0.201l-0.038,-0.203l-0.037,-0.202l-0.036,-0.203l-0.035,-0.203l-0.033,-0.204l-0.032,-0.204l-0.031,-0.204l-0.03,-0.205l-0.028,-0.205l-0.027,-0.206l-0.026,-0.206l-0.024,-0.206l-0.023,-0.207l-0.022,-0.207l-0.021,-0.208l-0.019,-0.207l-0.018,-0.208l-0.016,-0.209l-0.016,-0.209l-0.014,-0.209l-0.012,-0.209l-0.012,-0.21l-0.01,-0.21l-0.008,-0.211l-0.008,-0.21l-0.003,-0.105l-0.003,-0.107l-0.004,-0.211l-0.004,-0.212l-0.002,-0.212l0,-0.211l0,-0.213l0.002,-0.212Zm2.076,0.822l0.003,0.198l0.005,0.198l0.006,0.198l0.007,0.197l0.008,0.197l0.01,0.197l0.011,0.197l0.012,0.196l0.013,0.196l0.015,0.195l0.016,0.196l0.017,0.194l0.018,0.195l0.019,0.194l0.021,0.194l0.022,0.194l0.023,0.193l0.024,0.193l0.026,0.192l0.027,0.192l0.027,0.192l0.029,0.191l0.031,0.191l0.031,0.191l0.033,0.19l0.034,0.19l0.035,0.189l0.036,0.189l0.037,0.189l0.038,0.188l0.04,0.188l0.041,0.188l0.042,0.187l0.043,0.186l0.044,0.187l0.045,0.185l0.047,0.186l0.047,0.185l0.049,0.184l0.05,0.184l0.051,0.184l0.052,0.183l0.053,0.183l0.054,0.182l0.055,0.182l0.057,0.182l0.057,0.181l0.059,0.18l0.06,0.18l0.061,0.18l0.061,0.179l0.063,0.178l0.064,0.178l0.065,0.178l0.066,0.177l0.068,0.177l0.068,0.176l0.069,0.175l0.07,0.175l0.072,0.175l0.072,0.174l0.074,0.173l0.074,0.173l0.076,0.173l0.076,0.172l0.078,0.171l0.078,0.171l0.08,0.17l0.08,0.17l0.082,0.169l0.082,0.169l0.084,0.168l0.084,0.168l0.086,0.167l0.086,0.166l0.088,0.166l0.088,0.165l0.09,0.165l0.09,0.164l0.092,0.163l0.092,0.163l0.093,0.163l0.094,0.161l0.096,0.161l0.096,0.161l0.097,0.16l0.098,0.159l0.099,0.158l0.1,0.158l0.1,0.158l0.102,0.156l0.103,0.157l0.103,0.155l0.105,0.155l0.105,0.154l0.106,0.153l0.107,0.153l0.108,0.152l0.109,0.152l0.11,0.151l0.111,0.15l0.111,0.149l0.113,0.149l0.113,0.148l0.114,0.147l0.115,0.147l0.116,0.146l0.117,0.145l0.117,0.145l0.119,0.144l0.119,0.143l0.12,0.142l0.121,0.142l0.122,0.141l0.122,0.14l0.124,0.14l0.124,0.139l0.125,0.138l0.126,0.137l0.127,0.136l0.127,0.136l0.128,0.135l0.129,0.135l0.13,0.133l0.131,0.133l0.131,0.132l0.132,0.131l0.133,0.13l0.134,0.13l0.134,0.129l0.136,0.128l0.136,0.127l0.136,0.126l0.138,0.126l0.138,0.125l0.139,0.124l0.14,0.123l0.14,0.122l0.142,0.122l0.141,0.12l0.143,0.12l0.143,0.119l0.144,0.118l0.145,0.117l0.146,0.117l0.146,0.115l0.147,0.115l0.147,0.114l0.149,0.113l0.148,0.112l0.15,0.111l0.15,0.111l0.151,0.109l0.152,0.109l0.152,0.108l0.153,0.106l0.154,0.106l0.154,0.105l0.155,0.105l0.156,0.103l0.156,0.102l0.157,0.101l0.157,0.101l0.158,0.099l0.159,0.099l0.159,0.098l0.16,0.096l0.161,0.096l0.161,0.095l0.162,0.094l0.162,0.093l0.163,0.092l0.164,0.091l0.164,0.09l0.164,0.089l0.166,0.088l0.166,0.087l0.166,0.086l0.167,0.085l0.168,0.085l0.168,0.083l0.169,0.082l0.169,0.081l0.17,0.08l0.17,0.08l0.171,0.078l0.171,0.077l0.172,0.076l0.173,0.075l0.173,0.074l0.174,0.073l0.174,0.072l0.174,0.071l0.175,0.07l0.176,0.069l0.176,0.068l0.177,0.067l0.177,0.065l0.177,0.065l0.178,0.064l0.179,0.062l0.179,0.061l0.179,0.061l0.18,0.059l0.181,0.058l0.181,0.057l0.181,0.056l0.182,0.055l0.182,0.054l0.183,0.053l0.183,0.052l0.183,0.05l0.184,0.049l0.185,0.049l0.185,0.047l0.185,0.046l0.186,0.045l0.186,0.043l0.186,0.043l0.187,0.042l0.188,0.04l0.187,0.039l0.189,0.038l0.188,0.037l0.189,0.036l0.189,0.034l0.19,0.033l0.19,0.033l0.191,0.031l0.19,0.029l0.192,0.029l0.191,0.027l0.192,0.027l0.192,0.025l0.193,0.024l0.193,0.022l0.193,0.022l0.194,0.02l0.194,0.019l0.194,0.018l0.195,0.016l0.195,0.016l0.195,0.014l0.196,0.013l0.196,0.011l0.196,0.011l0.196,0.009l0.197,0.008l0.197,0.006l0.198,0.006l0.198,0.004l0.198,0.002l0.198,0.002l0.199,0l0.198,-0.001l0.199,-0.002l0.198,-0.003l0.197,-0.005l0.198,-0.006l0.197,-0.008l0.197,-0.008l0.196,-0.01l0.196,-0.011l0.196,-0.013l0.196,-0.013l0.195,-0.015l0.195,-0.016l0.034,-0.003l0.16,-0.014l0.194,-0.019l0.194,-0.019l0.194,-0.021l0.193,-0.022l0.193,-0.023l0.192,-0.025l0.192,-0.026l0.192,-0.026l0.191,-0.029l0.191,-0.029l0.191,-0.03l0.19,-0.032l0.19,-0.033l0.19,-0.034l0.189,-0.035l0.188,-0.036l0.189,-0.037l0.188,-0.039l0.187,-0.04l0.187,-0.041l0.187,-0.042l0.186,-0.043l0.186,-0.044l0.185,-0.046l0.185,-0.046l0.185,-0.048l0.184,-0.049l0.184,-0.05l0.183,-0.051l0.183,-0.052l0.182,-0.053l0.182,-0.054l0.181,-0.056l0.181,-0.057l0.181,-0.057l0.18,-0.059l0.179,-0.06l0.18,-0.061l0.178,-0.062l0.178,-0.063l0.178,-0.064l0.177,-0.065l0.177,-0.066l0.176,-0.067l0.176,-0.069l0.175,-0.069l0.174,-0.07l0.174,-0.072l0.174,-0.072l0.173,-0.074l0.173,-0.074l0.172,-0.076l0.171,-0.076l0.171,-0.078l0.171,-0.079l0.169,-0.079l0.17,-0.081l0.168,-0.082l0.169,-0.082l0.167,-0.084l0.167,-0.084l0.167,-0.086l0.166,-0.086l0.165,-0.088l0.165,-0.088l0.164,-0.09l0.164,-0.09l0.163,-0.092l0.162,-0.092l0.162,-0.093l0.161,-0.095l0.161,-0.095l0.16,-0.096l0.159,-0.097l0.159,-0.098l0.158,-0.099l0.157,-0.1l0.157,-0.101l0.156,-0.101l0.156,-0.103l0.155,-0.103l0.154,-0.105l0.154,-0.105l0.153,-0.106l0.152,-0.107l0.152,-0.108l0.151,-0.109l0.15,-0.11l0.15,-0.111l0.149,-0.111l0.148,-0.113l0.147,-0.113l0.147,-0.114l0.146,-0.115l0.146,-0.116l0.145,-0.116l0.144,-0.118l0.143,-0.118l0.143,-0.119l0.142,-0.12l0.141,-0.121l0.14,-0.122l0.14,-0.122l0.139,-0.124l0.138,-0.124l0.138,-0.125l0.137,-0.125l0.136,-0.127l0.135,-0.127l0.134,-0.128l0.134,-0.129l0.133,-0.13l0.132,-0.131l0.132,-0.131l0.13,-0.132l0.13,-0.133l0.129,-0.133l0.128,-0.135l0.128,-0.135l0.126,-0.135l0.126,-0.137l0.125,-0.137l0.125,-0.138l0.123,-0.139l0.123,-0.14l0.121,-0.14l0.121,-0.141l0.121,-0.142l0.119,-0.142l0.118,-0.143l0.118,-0.144l0.117,-0.145l0.116,-0.145l0.115,-0.146l0.114,-0.147l0.113,-0.147l0.113,-0.148l0.111,-0.149l0.111,-0.149l0.11,-0.15l0.109,-0.151l0.108,-0.151l0.107,-0.152l0.106,-0.153l0.106,-0.153l0.104,-0.154l0.104,-0.155l0.103,-0.155l0.101,-0.156l0.101,-0.156l0.1,-0.158l0.099,-0.157l0.098,-0.159l0.097,-0.159l0.096,-0.159l0.096,-0.161l0.094,-0.16l0.093,-0.162l0.093,-0.162l0.091,-0.163l0.091,-0.163l0.089,-0.164l0.089,-0.164l0.087,-0.165l0.087,-0.165l0.086,-0.167l0.084,-0.166l0.084,-0.167l0.083,-0.168l0.081,-0.169l0.081,-0.168l0.08,-0.17l0.078,-0.17l0.078,-0.17l0.077,-0.171l0.075,-0.172l0.075,-0.172l0.074,-0.172l0.072,-0.174l0.072,-0.173l0.07,-0.174l0.07,-0.175l0.068,-0.175l0.067,-0.176l0.067,-0.176l0.065,-0.176l0.064,-0.177l0.063,-0.178l0.062,-0.178l0.061,-0.179l0.06,-0.179l0.059,-0.179l0.058,-0.18l0.056,-0.18l0.056,-0.181l0.054,-0.181l0.054,-0.182l0.052,-0.182l0.051,-0.183l0.05,-0.183l0.049,-0.183l0.048,-0.184l0.047,-0.184l0.045,-0.185l0.045,-0.185l0.043,-0.186l0.042,-0.186l0.041,-0.186l0.04,-0.187l0.039,-0.187l0.038,-0.188l0.036,-0.188l0.035,-0.188l0.034,-0.189l0.033,-0.189l0.032,-0.189l0.031,-0.19l0.029,-0.19l0.029,-0.191l0.027,-0.191l0.026,-0.191l0.02,-0.16l0.004,-0.031l0.024,-0.192l0.022,-0.193l0.022,-0.192l0.02,-0.193l0.018,-0.194l0.018,-0.193l0.016,-0.194l0.016,-0.194l0.014,-0.195l0.012,-0.195l0.012,-0.195l0.01,-0.196l0.009,-0.196l0.008,-0.196l0.006,-0.196l0.005,-0.197l0.004,-0.197l0.003,-0.197l0.002,-0.198l0,-0.198l-0.001,-0.198l-0.003,-0.197l-0.003,-0.198l-0.005,-0.196l-0.006,-0.197l-0.008,-0.197l-0.008,-0.196l-0.01,-0.195l-0.011,-0.196l-0.013,-0.195l-0.013,-0.195l-0.015,-0.194l-0.016,-0.194l-0.017,-0.194l-0.019,-0.194l-0.02,-0.193l-0.021,-0.193l-0.022,-0.192l-0.023,-0.192l-0.024,-0.192l-0.026,-0.191l-0.027,-0.191l-0.028,-0.191l-0.029,-0.19l-0.031,-0.19l-0.031,-0.189l-0.033,-0.19l-0.034,-0.188l-0.035,-0.189l-0.037,-0.188l-0.037,-0.187l-0.039,-0.187l-0.039,-0.187l-0.041,-0.186l-0.042,-0.186l-0.043,-0.186l-0.045,-0.185l-0.045,-0.185l-0.046,-0.184l-0.048,-0.184l-0.049,-0.183l-0.05,-0.183l-0.051,-0.183l-0.052,-0.182l-0.053,-0.181l-0.054,-0.181l-0.055,-0.181l-0.057,-0.18l-0.057,-0.18l-0.059,-0.179l-0.06,-0.179l-0.06,-0.179l-0.062,-0.178l-0.063,-0.177l-0.064,-0.177l-0.065,-0.176l-0.066,-0.176l-0.067,-0.176l-0.068,-0.175l-0.07,-0.174l-0.07,-0.174l-0.071,-0.173l-0.072,-0.173l-0.074,-0.173l-0.074,-0.172l-0.075,-0.171l-0.077,-0.171l-0.077,-0.17l-0.078,-0.17l-0.08,-0.169l-0.08,-0.168l-0.082,-0.168l-0.082,-0.168l-0.083,-0.167l-0.085,-0.166l-0.085,-0.166l-0.075,-0.144l-0.011,-0.021l-0.087,-0.165l-0.088,-0.164l-0.089,-0.164l-0.09,-0.163l-0.091,-0.163l-0.092,-0.161l-0.093,-0.162l-0.093,-0.16l-0.095,-0.16l-0.096,-0.16l-0.096,-0.159l-0.098,-0.158l-0.098,-0.157l-0.1,-0.157l-0.1,-0.157l-0.101,-0.156l-0.102,-0.155l-0.103,-0.154l-0.104,-0.154l-0.105,-0.153l-0.105,-0.152l-0.107,-0.152l-0.107,-0.152l-0.109,-0.15l-0.109,-0.15l-0.11,-0.149l-0.111,-0.149l-0.112,-0.147l-0.112,-0.148l-0.114,-0.146l-0.114,-0.146l-0.116,-0.145l-0.116,-0.144l-0.117,-0.144l-0.117,-0.143l-0.119,-0.142l-0.119,-0.142l-0.121,-0.14l-0.121,-0.14l-0.122,-0.14l-0.122,-0.138l-0.124,-0.138l-0.124,-0.138l-0.125,-0.136l-0.126,-0.136l-0.127,-0.134l-0.128,-0.135l-0.128,-0.133l-0.129,-0.133l-0.13,-0.132l-0.13,-0.131l-0.132,-0.13l-0.132,-0.13l-0.133,-0.128l-0.134,-0.128l-0.134,-0.127l-0.135,-0.127l-0.136,-0.125l-0.137,-0.125l-0.138,-0.124l-0.138,-0.123l-0.139,-0.123l-0.139,-0.121l-0.141,-0.121l-0.141,-0.12l-0.142,-0.119l-0.142,-0.118l-0.143,-0.118l-0.144,-0.116l-0.145,-0.116l-0.145,-0.115l-0.146,-0.114l-0.147,-0.113l-0.147,-0.112l-0.148,-0.111l-0.149,-0.111l-0.149,-0.11l-0.15,-0.108l-0.139,-0.099l-0.012,-0.009l-0.151,-0.108l-0.152,-0.106l-0.152,-0.106l-0.153,-0.105l-0.154,-0.104l-0.154,-0.103l-0.155,-0.102l-0.156,-0.101l-0.156,-0.1l-0.157,-0.099l-0.158,-0.099l-0.158,-0.097l-0.159,-0.097l-0.159,-0.095l-0.16,-0.095l-0.161,-0.094l-0.161,-0.093l-0.162,-0.092l-0.162,-0.09l-0.163,-0.09l-0.163,-0.089l-0.164,-0.088l-0.165,-0.087l-0.165,-0.087l-0.166,-0.085l-0.167,-0.084l-0.167,-0.083l-0.167,-0.082l-0.168,-0.081l-0.169,-0.08l-0.169,-0.08l-0.17,-0.078l-0.17,-0.077l-0.171,-0.076l-0.171,-0.075l-0.172,-0.074l-0.172,-0.073l-0.173,-0.072l-0.174,-0.072l-0.174,-0.07l-0.174,-0.069l-0.175,-0.067l-0.175,-0.067l-0.176,-0.066l-0.177,-0.065l-0.177,-0.064l-0.177,-0.062l-0.178,-0.062l-0.178,-0.06l-0.179,-0.06l-0.179,-0.058l-0.18,-0.058l-0.18,-0.056l-0.102,-0.031l-0.079,-0.024l-0.181,-0.055l-0.181,-0.053l-0.182,-0.052l-0.182,-0.051l-0.183,-0.051l-0.183,-0.048l-0.184,-0.048l-0.184,-0.047l-0.185,-0.046l-0.185,-0.044l-0.185,-0.043l-0.186,-0.043l-0.186,-0.041l-0.187,-0.04l-0.187,-0.038l-0.187,-0.038l-0.188,-0.037l-0.188,-0.035l-0.189,-0.034l-0.189,-0.033l-0.189,-0.032l-0.19,-0.031l-0.19,-0.029l-0.191,-0.028l-0.191,-0.027l-0.191,-0.026l-0.191,-0.025l-0.192,-0.024l-0.193,-0.022l-0.192,-0.021l-0.193,-0.02l-0.194,-0.019l-0.194,-0.017l-0.194,-0.017l-0.194,-0.015l-0.195,-0.013l-0.195,-0.013l-0.195,-0.011l-0.196,-0.01l-0.196,-0.009l-0.196,-0.008l-0.197,-0.006l-0.197,-0.005l-0.197,-0.004l-0.198,-0.003l-0.197,-0.001l-0.198,0l-0.198,0.001l-0.197,0.002l-0.197,0.004l-0.197,0.005l-0.196,0.007l-0.127,0.004l-0.069,0.003l-0.196,0.008l-0.196,0.01l-0.195,0.011l-0.195,0.012l-0.195,0.013l-0.194,0.015l-0.194,0.015l-0.194,0.017l-0.193,0.019l-0.193,0.019l-0.193,0.021l-0.192,0.021l-0.192,0.023l-0.192,0.025l-0.191,0.025l-0.191,0.027l-0.191,0.028l-0.19,0.029l-0.19,0.03l-0.189,0.031l-0.19,0.033l-0.189,0.033l-0.188,0.035l-0.188,0.036l-0.188,0.038l-0.187,0.038l-0.187,0.04l-0.186,0.04l-0.187,0.042l-0.185,0.043l-0.186,0.044l-0.184,0.045l-0.185,0.047l-0.184,0.047l-0.184,0.049l-0.183,0.049l-0.183,0.051l-0.182,0.052l-0.182,0.053l-0.181,0.054l-0.181,0.055l-0.181,0.057l-0.18,0.057l-0.18,0.059l-0.179,0.059l-0.179,0.061l-0.178,0.062l-0.178,0.063l-0.177,0.063l-0.177,0.065l-0.176,0.066l-0.176,0.067l-0.175,0.069l-0.175,0.069l-0.175,0.07l-0.173,0.071l-0.174,0.073l-0.173,0.073l-0.172,0.074l-0.172,0.076l-0.171,0.076l-0.171,0.077l-0.17,0.079l-0.17,0.079l-0.169,0.081l-0.168,0.081l-0.168,0.083l-0.168,0.083l-0.167,0.085l-0.166,0.085l-0.166,0.087l-0.165,0.087l-0.165,0.088l-0.164,0.09l-0.163,0.09l-0.163,0.091l-0.162,0.093l-0.162,0.093l-0.161,0.094l-0.161,0.095l-0.16,0.096l-0.159,0.097l-0.159,0.098l-0.158,0.099l-0.157,0.1l-0.157,0.1l-0.156,0.102l-0.156,0.103l-0.155,0.103l-0.154,0.104l-0.154,0.106l-0.153,0.106l-0.152,0.107l-0.152,0.108l-0.15,0.109l-0.151,0.11l-0.149,0.11l-0.149,0.112l-0.149,0.112l-0.147,0.114l-0.147,0.114l-0.146,0.115l-0.146,0.116l-0.145,0.116l-0.119,0.097l-0.025,0.021l-0.144,0.118l-0.142,0.119l-0.143,0.12l-0.141,0.121l-0.141,0.122l-0.14,0.122l-0.139,0.123l-0.138,0.124l-0.138,0.125l-0.137,0.126l-0.136,0.127l-0.136,0.127l-0.135,0.128l-0.134,0.129l-0.133,0.13l-0.132,0.13l-0.132,0.132l-0.131,0.132l-0.13,0.133l-0.129,0.133l-0.129,0.135l-0.127,0.135l-0.127,0.136l-0.126,0.137l-0.126,0.137l-0.124,0.139l-0.124,0.139l-0.123,0.139l-0.122,0.141l-0.121,0.141l-0.12,0.142l-0.12,0.143l-0.119,0.143l-0.118,0.144l-0.117,0.145l-0.116,0.146l-0.115,0.146l-0.114,0.147l-0.114,0.147l-0.113,0.149l-0.111,0.149l-0.111,0.15l-0.11,0.15l-0.11,0.151l-0.108,0.152l-0.107,0.152l-0.107,0.153l-0.105,0.154l-0.105,0.155l-0.104,0.155l-0.103,0.155l-0.102,0.157l-0.101,0.157l-0.1,0.158l-0.099,0.158l-0.098,0.159l-0.098,0.159l-0.096,0.16l-0.095,0.161l-0.095,0.162l-0.093,0.162l-0.093,0.162l-0.092,0.163l-0.09,0.164l-0.09,0.165l-0.089,0.165l-0.087,0.165l-0.087,0.166l-0.086,0.167l-0.085,0.167l-0.083,0.168l-0.083,0.169l-0.082,0.169l-0.081,0.169l-0.08,0.17l-0.078,0.171l-0.078,0.171l-0.077,0.172l-0.075,0.172l-0.075,0.173l-0.074,0.174l-0.072,0.173l-0.072,0.175l-0.07,0.175l-0.07,0.175l-0.068,0.176l-0.068,0.177l-0.066,0.177l-0.065,0.177l-0.009,0.024l-0.056,0.154l-0.063,0.178l-0.062,0.179l-0.061,0.18l-0.06,0.179l-0.059,0.181l-0.057,0.181l-0.057,0.181l-0.056,0.182l-0.054,0.182l-0.053,0.182l-0.053,0.183l-0.051,0.184l-0.05,0.184l-0.049,0.184l-0.048,0.185l-0.046,0.186l-0.046,0.185l-0.044,0.186l-0.043,0.187l-0.042,0.187l-0.041,0.187l-0.04,0.188l-0.039,0.188l-0.037,0.189l-0.037,0.189l-0.035,0.189l-0.034,0.19l-0.033,0.19l-0.031,0.191l-0.031,0.191l-0.029,0.191l-0.028,0.192l-0.027,0.192l-0.025,0.192l-0.025,0.193l-0.023,0.193l-0.022,0.194l-0.021,0.194l-0.02,0.194l-0.018,0.194l-0.017,0.195l-0.016,0.195l-0.015,0.196l-0.014,0.196l-0.012,0.196l-0.011,0.196l-0.01,0.197l-0.008,0.197l-0.007,0.198l-0.006,0.197l-0.003,0.098l-0.002,0.1l-0.004,0.199l-0.002,0.198l-0.001,0.2l0.001,0.198l0.002,0.199Z" style="fill:#573351;"/><path d="M566.805,545.756l5.68,0c11.624,5.33 25.015,5.33 36.64,0l5.68,0c13.166,0 24,10.834 24,24l0,68c0,6.583 -5.417,12 -12,12l-8,0l0,68c0,6.583 -5.417,12 -12,12l-32,0c-6.583,0 -12,-5.417 -12,-12l0,-68l-8,0c-6.583,0 -12,-5.417 -12,-12l0,-68c0,-13.166 10.834,-24 24,-24Z" style="fill:#fff;fill-rule:nonzero;"/><path d="M566.657,546.795l-0.147,0.001l-0.147,0.003l-0.147,0.003l-0.147,0.004l-0.146,0.006l-0.146,0.006l-0.146,0.007l-0.146,0.008l-0.145,0.009l-0.026,0.002l-0.12,0.008l-0.145,0.011l-0.144,0.012l-0.145,0.012l-0.144,0.014l-0.144,0.014l-0.144,0.016l-0.143,0.016l-0.144,0.017l-0.143,0.018l-0.142,0.019l-0.143,0.02l-0.142,0.02l-0.142,0.022l-0.141,0.023l-0.142,0.023l-0.141,0.024l-0.141,0.025l-0.14,0.026l-0.14,0.027l-0.14,0.028l-0.14,0.028l-0.139,0.03l-0.139,0.03l-0.139,0.031l-0.138,0.032l-0.138,0.033l-0.138,0.033l-0.137,0.035l-0.138,0.035l-0.136,0.036l-0.137,0.037l-0.136,0.038l-0.136,0.038l-0.135,0.04l-0.136,0.04l-0.134,0.041l-0.135,0.042l-0.134,0.043l-0.134,0.043l-0.133,0.044l-0.133,0.046l-0.133,0.045l-0.133,0.047l-0.132,0.048l-0.131,0.048l-0.132,0.049l-0.131,0.05l-0.13,0.05l-0.13,0.052l-0.13,0.052l-0.13,0.053l-0.129,0.053l-0.128,0.055l-0.129,0.055l-0.127,0.056l-0.128,0.057l-0.127,0.057l-0.127,0.059l-0.126,0.059l-0.126,0.059l-0.125,0.061l-0.125,0.061l-0.125,0.062l-0.124,0.063l-0.124,0.063l-0.124,0.065l-0.123,0.064l-0.122,0.066l-0.122,0.066l-0.122,0.067l-0.121,0.068l-0.121,0.069l-0.12,0.069l-0.12,0.07l-0.119,0.07l-0.119,0.072l-0.119,0.072l-0.118,0.072l-0.118,0.074l-0.117,0.074l-0.117,0.075l-0.116,0.075l-0.115,0.076l-0.116,0.077l-0.114,0.077l-0.115,0.079l-0.114,0.078l-0.113,0.08l-0.113,0.08l-0.112,0.081l-0.112,0.081l-0.111,0.082l-0.111,0.083l-0.11,0.084l-0.11,0.084l-0.109,0.084l-0.109,0.086l-0.109,0.086l-0.107,0.086l-0.107,0.087l-0.107,0.088l-0.106,0.089l-0.106,0.089l-0.105,0.09l-0.105,0.09l-0.104,0.091l-0.103,0.091l-0.103,0.092l-0.102,0.093l-0.102,0.094l-0.101,0.094l-0.101,0.094l-0.1,0.095l-0.1,0.096l-0.099,0.096l-0.098,0.097l-0.098,0.098l-0.097,0.098l-0.097,0.098l-0.096,0.1l-0.096,0.099l-0.094,0.101l-0.095,0.1l-0.093,0.102l-0.094,0.102l-0.092,0.102l-0.092,0.104l-0.091,0.103l-0.091,0.104l-0.09,0.105l-0.09,0.105l-0.088,0.106l-0.089,0.106l-0.087,0.107l-0.087,0.108l-0.087,0.108l-0.085,0.108l-0.085,0.109l-0.085,0.109l-0.084,0.11l-0.083,0.111l-0.082,0.111l-0.082,0.111l-0.081,0.112l-0.081,0.113l-0.08,0.113l-0.079,0.113l-0.078,0.114l-0.078,0.115l-0.077,0.114l-0.077,0.116l-0.076,0.116l-0.075,0.116l-0.074,0.117l-0.074,0.117l-0.073,0.118l-0.073,0.118l-0.071,0.119l-0.071,0.119l-0.071,0.119l-0.069,0.12l-0.069,0.121l-0.068,0.12l-0.068,0.122l-0.066,0.121l-0.066,0.123l-0.066,0.122l-0.064,0.123l-0.064,0.124l-0.063,0.124l-0.063,0.124l-0.061,0.125l-0.061,0.125l-0.06,0.125l-0.06,0.126l-0.059,0.126l-0.057,0.127l-0.058,0.127l-0.056,0.128l-0.056,0.128l-0.055,0.128l-0.054,0.129l-0.053,0.129l-0.053,0.129l-0.051,0.13l-0.051,0.13l-0.051,0.131l-0.049,0.131l-0.049,0.131l-0.048,0.132l-0.047,0.132l-0.046,0.132l-0.046,0.133l-0.044,0.133l-0.044,0.133l-0.044,0.134l-0.042,0.134l-0.041,0.135l-0.041,0.134l-0.04,0.136l-0.039,0.135l-0.038,0.136l-0.038,0.136l-0.036,0.136l-0.036,0.137l-0.031,0.124l-0.004,0.013l-0.034,0.137l-0.033,0.138l-0.033,0.138l-0.031,0.138l-0.031,0.139l-0.03,0.139l-0.029,0.139l-0.028,0.139l-0.027,0.14l-0.027,0.14l-0.025,0.141l-0.025,0.14l-0.024,0.141l-0.023,0.141l-0.022,0.142l-0.021,0.142l-0.02,0.142l-0.02,0.142l-0.018,0.142l-0.018,0.143l-0.017,0.143l-0.016,0.144l-0.015,0.143l-0.014,0.144l-0.013,0.144l-0.012,0.144l-0.011,0.145l-0.011,0.145l-0.009,0.145l-0.009,0.145l-0.008,0.145l-0.006,0.146l-0.006,0.146l-0.005,0.146l-0.004,0.147l-0.003,0.146l-0.002,0.147l-0.001,0.147l-0.001,0.149l0.254,67.994l0.002,0.141l0.004,0.137l0.005,0.136l0.007,0.135l0.008,0.135l0.011,0.135l0.012,0.134l0.014,0.134l0.015,0.133l0.017,0.132l0.019,0.133l0.02,0.131l0.022,0.131l0.024,0.131l0.025,0.13l0.027,0.129l0.011,0.054l0.017,0.075l0.03,0.128l0.031,0.128l0.033,0.127l0.034,0.126l0.036,0.126l0.038,0.125l0.039,0.125l0.04,0.124l0.042,0.123l0.044,0.123l0.045,0.122l0.046,0.121l0.048,0.121l0.049,0.12l0.051,0.119l0.052,0.118l0.054,0.118l0.055,0.117l0.056,0.116l0.058,0.116l0.059,0.114l0.06,0.114l0.062,0.113l0.063,0.113l0.064,0.111l0.066,0.111l0.067,0.109l0.068,0.109l0.069,0.108l0.071,0.108l0.072,0.106l0.074,0.105l0.074,0.105l0.076,0.103l0.077,0.103l0.078,0.102l0.079,0.1l0.081,0.1l0.081,0.099l0.083,0.098l0.084,0.096l0.085,0.096l0.086,0.095l0.087,0.093l0.089,0.093l0.089,0.092l0.091,0.09l0.091,0.09l0.093,0.088l0.093,0.087l0.095,0.086l0.096,0.085l0.096,0.084l0.098,0.083l0.099,0.081l0.099,0.081l0.101,0.079l0.101,0.078l0.103,0.077l0.103,0.075l0.104,0.075l0.105,0.073l0.106,0.072l0.107,0.07l0.108,0.07l0.109,0.068l0.109,0.066l0.11,0.066l0.111,0.064l0.112,0.063l0.113,0.061l0.113,0.061l0.114,0.058l0.115,0.058l0.116,0.056l0.116,0.055l0.118,0.053l0.117,0.052l0.119,0.05l0.119,0.05l0.12,0.047l0.121,0.046l0.121,0.045l0.122,0.043l0.122,0.042l0.123,0.041l0.124,0.038l0.124,0.038l0.125,0.036l0.126,0.034l0.126,0.033l0.126,0.031l0.128,0.03l0.127,0.028l0.129,0.026l0.128,0.025l0.13,0.024l0.13,0.021l0.13,0.02l0.131,0.019l0.131,0.017l0.132,0.015l0.132,0.014l0.133,0.012l0.133,0.01l0.133,0.009l0.134,0.007l0.135,0.005l0.135,0.003l0.135,0.002l0.14,0l7.996,-0.036l0.256,0.017l0.249,0.063l0.234,0.108l0.002,-0.004l0.215,0.145l0.187,0.181l0.154,0.21l0.114,0.235l0.073,0.253l0.028,0.261l0.104,17.622l0.301,50.372l0.002,0.136l0.002,0.105l0.001,0.024l0.005,0.128l0.007,0.128l0.008,0.128l0.01,0.127l0.011,0.127l0.013,0.126l0.015,0.126l0.016,0.125l0.017,0.125l0.02,0.124l0.02,0.124l0.023,0.123l0.024,0.123l0.025,0.122l0.027,0.121l0.028,0.122l0.03,0.12l0.031,0.12l0.033,0.119l0.034,0.119l0.035,0.118l0.037,0.118l0.039,0.117l0.039,0.117l0.042,0.115l0.042,0.116l0.044,0.114l0.045,0.114l0.047,0.113l0.048,0.113l0.049,0.112l0.051,0.111l0.052,0.11l0.053,0.11l0.055,0.109l0.056,0.108l0.057,0.108l0.058,0.107l0.06,0.106l0.061,0.105l0.062,0.105l0.064,0.103l0.064,0.103l0.066,0.102l0.067,0.102l0.068,0.1l0.069,0.1l0.071,0.098l0.072,0.098l0.073,0.097l0.073,0.096l0.076,0.096l0.076,0.094l0.077,0.093l0.078,0.093l0.08,0.091l0.08,0.091l0.082,0.089l0.083,0.089l0.083,0.087l0.085,0.087l0.086,0.085l0.086,0.085l0.088,0.083l0.088,0.083l0.09,0.081l0.091,0.08l0.091,0.08l0.093,0.078l0.093,0.077l0.094,0.076l0.095,0.075l0.096,0.073l0.097,0.073l0.098,0.071l0.099,0.07l0.099,0.07l0.1,0.067l0.101,0.067l0.102,0.066l0.103,0.064l0.103,0.063l0.105,0.062l0.104,0.06l0.106,0.059l0.107,0.058l0.107,0.057l0.108,0.056l0.108,0.054l0.11,0.053l0.11,0.051l0.11,0.051l0.112,0.049l0.111,0.047l0.113,0.046l0.113,0.045l0.114,0.044l0.115,0.042l0.115,0.041l0.115,0.039l0.116,0.038l0.117,0.037l0.118,0.035l0.117,0.034l0.119,0.032l0.119,0.031l0.119,0.029l0.12,0.028l0.121,0.026l0.121,0.025l0.121,0.024l0.122,0.022l0.123,0.02l0.123,0.019l0.123,0.018l0.124,0.016l0.125,0.014l0.124,0.013l0.125,0.011l0.126,0.01l0.126,0.008l0.127,0.006l0.127,0.005l0.127,0.003l0.128,0.002l0.134,0l24.976,-0.149l7.011,-0.027l0.132,-0.002l0.126,-0.003l0.125,-0.004l0.124,-0.007l0.124,-0.007l0.124,-0.01l0.123,-0.011l0.123,-0.012l0.122,-0.014l0.122,-0.015l0.121,-0.017l0.121,-0.019l0.12,-0.02l0.12,-0.021l0.119,-0.023l0.119,-0.025l0.118,-0.026l0.118,-0.027l0.117,-0.029l0.117,-0.03l0.116,-0.031l0.116,-0.033l0.115,-0.035l0.114,-0.035l0.114,-0.037l0.113,-0.039l0.113,-0.04l0.112,-0.041l0.111,-0.042l0.111,-0.044l0.11,-0.045l0.11,-0.047l0.109,-0.048l0.108,-0.049l0.108,-0.05l0.106,-0.052l0.107,-0.053l0.105,-0.054l0.105,-0.055l0.104,-0.057l0.103,-0.058l0.103,-0.059l0.102,-0.06l0.101,-0.062l0.1,-0.063l0.099,-0.064l0.099,-0.065l0.098,-0.066l0.097,-0.067l0.096,-0.069l0.096,-0.069l0.094,-0.071l0.094,-0.072l0.093,-0.073l0.092,-0.074l0.091,-0.075l0.09,-0.076l0.089,-0.077l0.088,-0.078l0.088,-0.08l0.086,-0.08l0.086,-0.081l0.084,-0.083l0.083,-0.083l0.083,-0.084l0.081,-0.085l0.081,-0.087l0.079,-0.087l0.079,-0.088l0.077,-0.089l0.076,-0.09l0.076,-0.09l0.074,-0.092l0.073,-0.093l0.072,-0.093l0.07,-0.094l0.07,-0.095l0.069,-0.096l0.067,-0.097l0.066,-0.098l0.066,-0.098l0.064,-0.099l0.062,-0.1l0.062,-0.101l0.06,-0.101l0.024,-0.041l0.036,-0.061l0.058,-0.103l0.057,-0.103l0.056,-0.104l0.054,-0.105l0.054,-0.106l0.052,-0.106l0.05,-0.107l0.05,-0.107l0.048,-0.109l0.047,-0.108l0.046,-0.11l0.044,-0.11l0.043,-0.111l0.042,-0.111l0.04,-0.112l0.039,-0.113l0.037,-0.113l0.036,-0.113l0.035,-0.114l0.034,-0.115l0.032,-0.115l0.03,-0.116l0.03,-0.117l0.027,-0.116l0.027,-0.118l0.025,-0.118l0.023,-0.118l0.022,-0.119l0.021,-0.119l0.019,-0.12l0.017,-0.12l0.016,-0.121l0.015,-0.121l0.013,-0.122l0.012,-0.122l0.01,-0.123l0.008,-0.123l0.007,-0.123l0.005,-0.124l0.004,-0.124l0.002,-0.125l0.001,-0.132l-0.018,-12.092l0.076,-36.238l0.104,-19.663l0.036,-0.363l0.098,-0.351l0.158,-0.327l0.212,-0.295l0.259,-0.252l0.298,-0.204l0.328,-0.148l0,0l0.349,-0.089l0.358,-0.027l7.993,0.035l0.135,0l0.127,-0.002l0.128,-0.003l0.127,-0.005l0.126,-0.006l0.126,-0.009l0.126,-0.009l0.125,-0.011l0.125,-0.013l0.124,-0.015l0.124,-0.016l0.123,-0.017l0.123,-0.019l0.123,-0.021l0.122,-0.022l0.121,-0.023l0.121,-0.025l0.098,-0.022l0.023,-0.005l0.12,-0.027l0.12,-0.029l0.119,-0.031l0.118,-0.032l0.118,-0.033l0.118,-0.035l0.117,-0.036l0.116,-0.038l0.116,-0.039l0.115,-0.04l0.115,-0.042l0.114,-0.044l0.113,-0.044l0.113,-0.046l0.112,-0.048l0.111,-0.048l0.111,-0.05l0.11,-0.052l0.11,-0.052l0.109,-0.054l0.108,-0.055l0.107,-0.057l0.107,-0.058l0.106,-0.059l0.105,-0.06l0.105,-0.062l0.103,-0.062l0.103,-0.065l0.102,-0.065l0.102,-0.066l0.1,-0.068l0.1,-0.069l0.099,-0.07l0.098,-0.071l0.097,-0.072l0.096,-0.074l0.096,-0.075l0.094,-0.075l0.094,-0.077l0.093,-0.078l0.092,-0.079l0.09,-0.081l0.09,-0.081l0.089,-0.082l0.088,-0.084l0.087,-0.084l0.086,-0.085l0.085,-0.087l0.084,-0.087l0.083,-0.089l0.082,-0.089l0.081,-0.091l0.08,-0.091l0.079,-0.093l0.077,-0.093l0.077,-0.094l0.075,-0.095l0.075,-0.096l0.073,-0.097l0.072,-0.098l0.071,-0.099l0.07,-0.1l0.068,-0.1l0.068,-0.101l0.066,-0.103l0.065,-0.103l0.064,-0.103l0.062,-0.105l0.061,-0.105l0.061,-0.106l0.058,-0.107l0.058,-0.108l0.056,-0.109l0.055,-0.109l0.054,-0.11l0.052,-0.11l0.051,-0.112l0.05,-0.112l0.048,-0.112l0.048,-0.114l0.045,-0.114l0.045,-0.114l0.043,-0.116l0.041,-0.116l0.04,-0.116l0.039,-0.118l0.037,-0.118l0.036,-0.118l0.035,-0.119l0.033,-0.12l0.031,-0.12l0.031,-0.121l0.028,-0.121l0.027,-0.122l0.026,-0.123l0.024,-0.123l0.023,-0.123l0.021,-0.124l0.02,-0.125l0.018,-0.125l0.016,-0.126l0.015,-0.126l0.013,-0.126l0.012,-0.127l0.01,-0.128l0.009,-0.128l0.007,-0.129l0.005,-0.128l0.004,-0.13l0.002,-0.136l0.129,-18.121l0.256,-33.264l0.128,-16.607l0.001,-0.147l-0.001,-0.145l-0.001,-0.145l-0.002,-0.145l-0.003,-0.145l-0.004,-0.144l-0.005,-0.144l-0.006,-0.144l-0.007,-0.144l-0.008,-0.143l-0.008,-0.144l-0.01,-0.143l-0.01,-0.142l-0.011,-0.143l-0.013,-0.142l-0.013,-0.143l-0.014,-0.141l-0.015,-0.142l-0.015,-0.142l-0.017,-0.141l-0.018,-0.141l-0.018,-0.14l-0.019,-0.141l-0.021,-0.14l-0.021,-0.14l-0.022,-0.139l-0.022,-0.14l-0.024,-0.139l-0.024,-0.139l-0.026,-0.138l-0.026,-0.138l-0.027,-0.138l-0.028,-0.138l-0.029,-0.138l-0.029,-0.137l-0.031,-0.137l-0.031,-0.136l-0.032,-0.136l-0.033,-0.136l-0.034,-0.136l-0.035,-0.135l-0.035,-0.135l-0.036,-0.135l-0.037,-0.135l-0.038,-0.134l-0.039,-0.134l-0.04,-0.133l-0.04,-0.133l-0.041,-0.133l-0.042,-0.133l-0.043,-0.132l-0.043,-0.132l-0.045,-0.131l-0.045,-0.131l-0.046,-0.131l-0.046,-0.131l-0.048,-0.13l-0.048,-0.129l-0.049,-0.13l-0.05,-0.129l-0.05,-0.129l-0.052,-0.128l-0.052,-0.128l-0.053,-0.128l-0.053,-0.127l-0.055,-0.127l-0.055,-0.126l-0.056,-0.126l-0.057,-0.126l-0.057,-0.125l-0.058,-0.125l-0.059,-0.125l-0.06,-0.124l-0.06,-0.124l-0.061,-0.123l-0.062,-0.123l-0.063,-0.122l-0.063,-0.123l-0.064,-0.121l-0.065,-0.122l-0.065,-0.12l-0.066,-0.121l-0.067,-0.12l-0.068,-0.12l-0.068,-0.119l-0.069,-0.118l-0.07,-0.119l-0.07,-0.118l-0.071,-0.117l-0.072,-0.117l-0.073,-0.116l-0.073,-0.116l-0.074,-0.116l-0.074,-0.115l-0.075,-0.115l-0.076,-0.114l-0.077,-0.114l-0.077,-0.113l-0.078,-0.113l-0.078,-0.112l-0.08,-0.112l-0.079,-0.111l-0.081,-0.111l-0.081,-0.111l-0.082,-0.109l-0.082,-0.11l-0.084,-0.109l-0.083,-0.108l-0.085,-0.108l-0.085,-0.107l-0.085,-0.107l-0.087,-0.107l-0.087,-0.105l-0.087,-0.106l-0.088,-0.104l-0.089,-0.105l-0.089,-0.103l-0.09,-0.104l-0.091,-0.102l-0.091,-0.102l-0.092,-0.102l-0.093,-0.101l-0.093,-0.1l-0.093,-0.1l-0.094,-0.1l-0.095,-0.099l-0.096,-0.098l-0.096,-0.098l-0.096,-0.097l-0.097,-0.096l-0.098,-0.096l-0.098,-0.096l-0.099,-0.095l-0.099,-0.094l-0.1,-0.093l-0.101,-0.094l-0.101,-0.092l-0.102,-0.092l-0.102,-0.091l-0.102,-0.091l-0.104,-0.09l-0.104,-0.09l-0.104,-0.088l-0.105,-0.089l-0.105,-0.087l-0.106,-0.087l-0.107,-0.087l-0.107,-0.086l-0.107,-0.085l-0.108,-0.084l-0.109,-0.084l-0.109,-0.084l-0.109,-0.082l-0.111,-0.082l-0.11,-0.082l-0.111,-0.08l-0.112,-0.08l-0.112,-0.08l-0.112,-0.079l-0.113,-0.078l-0.114,-0.077l-0.114,-0.077l-0.115,-0.076l-0.115,-0.075l-0.115,-0.075l-0.116,-0.074l-0.116,-0.074l-0.117,-0.072l-0.118,-0.072l-0.117,-0.072l-0.119,-0.07l-0.118,-0.07l-0.119,-0.069l-0.12,-0.069l-0.12,-0.068l-0.121,-0.067l-0.12,-0.066l-0.122,-0.066l-0.122,-0.065l-0.122,-0.064l-0.123,-0.064l-0.123,-0.063l-0.123,-0.062l-0.124,-0.061l-0.124,-0.061l-0.125,-0.06l-0.125,-0.059l-0.126,-0.058l-0.126,-0.058l-0.126,-0.057l-0.127,-0.056l-0.127,-0.056l-0.128,-0.054l-0.128,-0.054l-0.128,-0.053l-0.129,-0.053l-0.129,-0.051l-0.129,-0.051l-0.13,-0.05l-0.13,-0.05l-0.131,-0.048l-0.131,-0.048l-0.131,-0.047l-0.132,-0.046l-0.132,-0.045l-0.132,-0.045l-0.133,-0.044l-0.133,-0.043l-0.134,-0.042l-0.133,-0.041l-0.135,-0.041l-0.134,-0.04l-0.135,-0.039l-0.135,-0.038l-0.136,-0.037l-0.135,-0.037l-0.137,-0.035l-0.136,-0.035l-0.137,-0.034l-0.137,-0.033l-0.137,-0.032l-0.138,-0.032l-0.138,-0.031l-0.138,-0.029l-0.139,-0.029l-0.139,-0.028l-0.139,-0.028l-0.14,-0.026l-0.14,-0.025l-0.14,-0.025l-0.14,-0.024l-0.141,-0.023l-0.141,-0.022l-0.141,-0.021l-0.142,-0.02l-0.141,-0.02l-0.143,-0.018l-0.142,-0.018l-0.143,-0.017l-0.142,-0.015l-0.144,-0.015l-0.143,-0.014l-0.144,-0.014l-0.144,-0.012l-0.144,-0.011l-0.144,-0.011l-0.145,-0.009l-0.145,-0.009l-0.145,-0.007l-0.145,-0.007l-0.146,-0.006l-0.146,-0.005l-0.146,-0.004l-0.146,-0.003l-0.147,-0.002l-0.148,-0.001l-5.336,-0.019l0,-0.003l-0.101,0l-0.05,0.023l0,-0.001l-0.281,0.124l-0.282,0.122l-0.282,0.12l-0.283,0.118l-0.283,0.116l-0.284,0.114l-0.285,0.112l-0.285,0.11l-0.285,0.107l-0.287,0.106l-0.286,0.104l-0.288,0.102l-0.287,0.1l-0.289,0.098l-0.288,0.096l-0.29,0.094l-0.289,0.092l-0.29,0.09l-0.291,0.088l-0.291,0.086l-0.292,0.084l-0.291,0.082l-0.293,0.08l-0.292,0.078l-0.294,0.077l-0.293,0.074l-0.294,0.072l-0.294,0.07l-0.295,0.068l-0.294,0.066l-0.296,0.064l-0.295,0.062l-0.296,0.06l-0.296,0.058l-0.296,0.056l-0.297,0.054l-0.297,0.053l-0.297,0.05l-0.298,0.048l-0.297,0.046l-0.298,0.044l-0.298,0.042l-0.299,0.041l-0.298,0.038l-0.299,0.036l-0.299,0.034l-0.299,0.032l-0.299,0.031l-0.299,0.028l-0.3,0.026l-0.299,0.024l-0.3,0.023l-0.3,0.02l-0.3,0.018l-0.3,0.016l-0.3,0.015l-0.3,0.012l-0.3,0.01l-0.3,0.009l-0.301,0.006l-0.3,0.004l-0.3,0.003l-0.3,0l-0.301,-0.002l-0.3,-0.003l-0.3,-0.006l-0.3,-0.007l-0.3,-0.01l-0.301,-0.012l-0.3,-0.013l-0.299,-0.016l-0.3,-0.017l-0.3,-0.02l-0.3,-0.021l-0.299,-0.024l-0.3,-0.025l-0.299,-0.028l-0.299,-0.029l-0.299,-0.032l-0.299,-0.033l-0.298,-0.036l-0.298,-0.037l-0.299,-0.04l-0.298,-0.041l-0.297,-0.044l-0.298,-0.045l-0.297,-0.047l-0.297,-0.05l-0.297,-0.051l-0.296,-0.054l-0.297,-0.055l-0.295,-0.057l-0.296,-0.06l-0.295,-0.061l-0.295,-0.064l-0.295,-0.065l-0.294,-0.067l-0.294,-0.07l-0.294,-0.071l-0.293,-0.073l-0.293,-0.076l-0.292,-0.077l-0.292,-0.079l-0.292,-0.081l-0.291,-0.084l-0.291,-0.085l-0.29,-0.087l-0.29,-0.09l-0.289,-0.091l-0.289,-0.093l-0.288,-0.095l-0.288,-0.098l-0.287,-0.099l-0.287,-0.101l-0.287,-0.103l-0.285,-0.106l-0.286,-0.107l-0.284,-0.109l-0.284,-0.111l-0.284,-0.113l-0.283,-0.116l-0.282,-0.117l-0.282,-0.119l-0.281,-0.121l-0.28,-0.123l-0.28,-0.125l-0.071,-0.033l-4.141,0l0,-0.004l-1.311,-0.001l-0.149,0.001Zm5.828,-2.081l0.147,0.01l0.145,0.031l0.139,0.052l0.27,0.122l0.267,0.119l0.267,0.117l0.269,0.115l0.269,0.113l0.269,0.111l0.27,0.109l0.271,0.107l0.271,0.106l0.271,0.104l0.272,0.101l0.273,0.1l0.273,0.098l0.274,0.096l0.274,0.094l0.275,0.092l0.275,0.09l0.275,0.088l0.277,0.087l0.276,0.084l0.277,0.083l0.277,0.08l0.278,0.079l0.278,0.077l0.279,0.075l0.279,0.073l0.279,0.071l0.279,0.069l0.28,0.067l0.281,0.065l0.281,0.064l0.28,0.061l0.282,0.06l0.281,0.058l0.282,0.055l0.283,0.054l0.282,0.052l0.283,0.05l0.283,0.048l0.283,0.047l0.283,0.044l0.284,0.042l0.284,0.041l0.284,0.039l0.284,0.036l0.285,0.035l0.284,0.033l0.285,0.031l0.285,0.029l0.285,0.027l0.285,0.025l0.286,0.023l0.285,0.022l0.286,0.019l0.285,0.018l0.286,0.015l0.286,0.014l0.286,0.012l0.286,0.01l0.286,0.008l0.286,0.006l0.286,0.004l0.286,0.002l0.286,0.001l0.286,-0.002l0.286,-0.004l0.286,-0.005l0.286,-0.007l0.285,-0.01l0.286,-0.011l0.286,-0.013l0.286,-0.015l0.285,-0.017l0.286,-0.018l0.285,-0.021l0.285,-0.023l0.286,-0.024l0.285,-0.027l0.284,-0.028l0.285,-0.03l0.285,-0.033l0.284,-0.034l0.284,-0.036l0.284,-0.038l0.284,-0.04l0.283,-0.041l0.283,-0.044l0.284,-0.046l0.282,-0.047l0.283,-0.049l0.282,-0.052l0.282,-0.053l0.282,-0.055l0.281,-0.057l0.281,-0.059l0.281,-0.061l0.28,-0.063l0.28,-0.065l0.28,-0.066l0.28,-0.069l0.279,-0.07l0.278,-0.073l0.278,-0.074l0.278,-0.076l0.278,-0.078l0.277,-0.08l0.276,-0.082l0.276,-0.084l0.276,-0.085l0.275,-0.088l0.275,-0.09l0.274,-0.091l0.274,-0.093l0.273,-0.096l0.273,-0.097l0.272,-0.099l0.272,-0.101l0.271,-0.103l0.271,-0.105l0.27,-0.106l0.269,-0.109l0.269,-0.11l0.269,-0.113l0.267,-0.114l0.267,-0.116l0.267,-0.118l0.266,-0.12l0.269,-0.124l0.15,-0.057l0.012,-0.003l0.145,-0.033l0.161,-0.013l5.681,-0.019l0.16,0l0.162,0.001l0.161,0.002l0.161,0.003l0.161,0.004l0.16,0.005l0.16,0.006l0.16,0.007l0.16,0.008l0.16,0.009l0.159,0.01l0.159,0.011l0.159,0.012l0.159,0.014l0.158,0.014l0.158,0.015l0.158,0.016l0.157,0.017l0.158,0.018l0.157,0.019l0.157,0.02l0.156,0.021l0.156,0.022l0.156,0.023l0.156,0.023l0.155,0.025l0.155,0.026l0.155,0.027l0.154,0.028l0.154,0.028l0.154,0.03l0.153,0.03l0.153,0.032l0.153,0.032l0.153,0.034l0.152,0.034l0.152,0.035l0.151,0.036l0.151,0.037l0.151,0.038l0.151,0.039l0.15,0.04l0.15,0.04l0.149,0.042l0.149,0.043l0.149,0.043l0.148,0.044l0.148,0.045l0.148,0.047l0.147,0.047l0.147,0.047l0.146,0.049l0.146,0.05l0.146,0.05l0.145,0.052l0.145,0.052l0.145,0.053l0.144,0.054l0.144,0.055l0.143,0.055l0.143,0.057l0.142,0.057l0.142,0.058l0.142,0.059l0.141,0.06l0.141,0.061l0.141,0.061l0.139,0.063l0.14,0.063l0.139,0.064l0.139,0.065l0.138,0.065l0.138,0.067l0.137,0.067l0.137,0.068l0.136,0.069l0.136,0.07l0.135,0.07l0.135,0.072l0.135,0.072l0.134,0.072l0.133,0.074l0.133,0.075l0.133,0.075l0.132,0.076l0.132,0.076l0.131,0.078l0.13,0.078l0.13,0.079l0.13,0.08l0.129,0.081l0.129,0.081l0.128,0.082l0.127,0.083l0.127,0.083l0.127,0.085l0.126,0.085l0.125,0.085l0.125,0.087l0.125,0.087l0.124,0.088l0.123,0.089l0.123,0.089l0.122,0.09l0.122,0.091l0.121,0.092l0.12,0.092l0.12,0.093l0.12,0.093l0.119,0.095l0.118,0.095l0.118,0.095l0.117,0.097l0.117,0.097l0.116,0.098l0.115,0.098l0.115,0.099l0.114,0.1l0.114,0.101l0.113,0.101l0.112,0.102l0.112,0.102l0.111,0.103l0.111,0.104l0.11,0.104l0.109,0.105l0.109,0.106l0.108,0.107l0.108,0.107l0.107,0.107l0.106,0.108l0.106,0.109l0.105,0.11l0.104,0.11l0.104,0.111l0.103,0.111l0.102,0.112l0.102,0.113l0.101,0.113l0.101,0.114l0.099,0.114l0.099,0.115l0.099,0.116l0.098,0.116l0.097,0.117l0.096,0.118l0.096,0.118l0.095,0.118l0.094,0.119l0.094,0.12l0.093,0.12l0.092,0.121l0.092,0.122l0.091,0.122l0.09,0.122l0.089,0.123l0.089,0.124l0.088,0.124l0.087,0.125l0.087,0.125l0.086,0.126l0.085,0.127l0.084,0.127l0.084,0.127l0.083,0.128l0.082,0.129l0.081,0.129l0.081,0.129l0.08,0.13l0.079,0.131l0.078,0.131l0.078,0.132l0.077,0.132l0.076,0.132l0.075,0.133l0.075,0.134l0.074,0.134l0.073,0.135l0.072,0.135l0.071,0.136l0.071,0.136l0.07,0.136l0.069,0.137l0.068,0.138l0.067,0.138l0.067,0.138l0.066,0.139l0.064,0.139l0.065,0.14l0.063,0.14l0.062,0.141l0.062,0.141l0.061,0.142l0.06,0.142l0.059,0.142l0.058,0.143l0.058,0.144l0.056,0.143l0.056,0.145l0.055,0.144l0.054,0.145l0.053,0.146l0.053,0.146l0.051,0.146l0.051,0.146l0.049,0.148l0.049,0.147l0.048,0.148l0.047,0.148l0.046,0.149l0.045,0.149l0.045,0.149l0.043,0.15l0.043,0.15l0.041,0.151l0.041,0.151l0.04,0.151l0.039,0.152l0.038,0.152l0.037,0.152l0.036,0.153l0.035,0.153l0.035,0.153l0.033,0.154l0.032,0.154l0.032,0.155l0.03,0.155l0.03,0.155l0.028,0.155l0.028,0.156l0.027,0.156l0.026,0.156l0.024,0.157l0.024,0.157l0.023,0.157l0.022,0.158l0.021,0.158l0.019,0.158l0.019,0.159l0.018,0.159l0.017,0.159l0.016,0.159l0.015,0.16l0.014,0.16l0.013,0.16l0.012,0.16l0.011,0.161l0.009,0.161l0.009,0.161l0.008,0.162l0.007,0.162l0.006,0.162l0.004,0.162l0.004,0.163l0.003,0.162l0.001,0.161l0.128,16.61l0.256,33.272l0.13,18.126l0,0.173l-0.003,0.177l-0.004,0.178l-0.007,0.177l-0.009,0.176l-0.011,0.176l-0.014,0.176l-0.016,0.174l-0.018,0.175l-0.02,0.174l-0.022,0.173l-0.024,0.172l-0.027,0.172l-0.029,0.171l-0.03,0.171l-0.033,0.17l-0.035,0.169l-0.037,0.169l-0.04,0.168l-0.041,0.167l-0.043,0.166l-0.045,0.165l-0.047,0.165l-0.049,0.164l-0.052,0.163l-0.053,0.162l-0.055,0.162l-0.057,0.16l-0.058,0.16l-0.061,0.159l-0.063,0.158l-0.064,0.156l-0.067,0.156l-0.068,0.155l-0.07,0.154l-0.072,0.153l-0.073,0.152l-0.076,0.151l-0.077,0.15l-0.079,0.149l-0.081,0.148l-0.082,0.147l-0.084,0.146l-0.086,0.144l-0.087,0.144l-0.089,0.142l-0.091,0.142l-0.093,0.14l-0.094,0.139l-0.095,0.137l-0.098,0.137l-0.099,0.135l-0.1,0.134l-0.102,0.133l-0.104,0.132l-0.105,0.13l-0.106,0.13l-0.108,0.127l-0.11,0.127l-0.111,0.125l-0.113,0.124l-0.114,0.123l-0.115,0.121l-0.117,0.12l-0.118,0.118l-0.12,0.117l-0.121,0.116l-0.122,0.114l-0.124,0.113l-0.125,0.111l-0.127,0.11l-0.128,0.109l-0.129,0.107l-0.13,0.105l-0.132,0.104l-0.133,0.102l-0.135,0.101l-0.135,0.1l-0.137,0.097l-0.138,0.096l-0.139,0.095l-0.141,0.093l-0.141,0.091l-0.143,0.09l-0.144,0.088l-0.145,0.086l-0.146,0.085l-0.148,0.083l-0.148,0.081l-0.15,0.079l-0.15,0.078l-0.152,0.076l-0.153,0.074l-0.153,0.073l-0.155,0.07l-0.156,0.069l-0.157,0.067l-0.158,0.065l-0.159,0.063l-0.159,0.062l-0.161,0.059l-0.162,0.058l-0.162,0.055l-0.164,0.054l-0.164,0.052l-0.165,0.049l-0.166,0.048l-0.167,0.046l-0.168,0.043l-0.168,0.042l-0.032,0.007l-0.138,0.032l-0.17,0.037l-0.171,0.035l-0.171,0.033l-0.173,0.031l-0.173,0.029l-0.173,0.026l-0.175,0.025l-0.175,0.022l-0.176,0.02l-0.176,0.018l-0.177,0.015l-0.177,0.014l-0.178,0.011l-0.179,0.009l-0.179,0.006l-0.179,0.005l-0.174,0.002l0,0.043l-5.941,0l0.031,0.031l0.104,22.928l0.075,32.241l-0.018,10.742l-0.001,0.176l-0.004,0.183l-0.006,0.182l-0.008,0.182l-0.011,0.181l-0.013,0.18l-0.015,0.18l-0.018,0.18l-0.019,0.178l-0.023,0.179l-0.024,0.177l-0.026,0.177l-0.029,0.176l-0.031,0.176l-0.033,0.174l-0.035,0.175l-0.037,0.173l-0.039,0.172l-0.042,0.172l-0.043,0.171l-0.046,0.17l-0.047,0.17l-0.05,0.168l-0.052,0.168l-0.054,0.166l-0.055,0.166l-0.058,0.165l-0.06,0.164l-0.061,0.163l-0.064,0.162l-0.065,0.161l-0.067,0.16l-0.07,0.16l-0.071,0.158l-0.072,0.157l-0.075,0.156l-0.077,0.155l-0.078,0.154l-0.08,0.152l-0.082,0.152l-0.084,0.151l-0.085,0.149l-0.053,0.089l-0.035,0.06l-0.089,0.147l-0.091,0.145l-0.092,0.145l-0.095,0.143l-0.095,0.143l-0.098,0.141l-0.099,0.139l-0.101,0.139l-0.102,0.137l-0.104,0.136l-0.106,0.135l-0.107,0.133l-0.108,0.132l-0.11,0.131l-0.112,0.129l-0.113,0.128l-0.115,0.127l-0.116,0.125l-0.118,0.124l-0.119,0.123l-0.12,0.121l-0.122,0.119l-0.123,0.118l-0.125,0.117l-0.126,0.115l-0.127,0.114l-0.129,0.112l-0.13,0.111l-0.131,0.109l-0.133,0.108l-0.134,0.106l-0.135,0.104l-0.137,0.103l-0.137,0.102l-0.139,0.099l-0.141,0.099l-0.141,0.096l-0.143,0.095l-0.144,0.093l-0.145,0.091l-0.146,0.09l-0.147,0.088l-0.149,0.087l-0.149,0.084l-0.151,0.083l-0.152,0.081l-0.153,0.079l-0.154,0.078l-0.155,0.076l-0.156,0.073l-0.157,0.072l-0.158,0.071l-0.159,0.068l-0.16,0.066l-0.161,0.065l-0.162,0.062l-0.163,0.061l-0.164,0.059l-0.165,0.057l-0.165,0.054l-0.167,0.053l-0.167,0.051l-0.168,0.049l-0.169,0.046l-0.17,0.045l-0.171,0.043l-0.171,0.04l-0.172,0.039l-0.173,0.036l-0.174,0.034l-0.174,0.032l-0.175,0.03l-0.176,0.028l-0.176,0.025l-0.177,0.024l-0.178,0.021l-0.178,0.019l-0.179,0.016l-0.179,0.015l-0.18,0.012l-0.181,0.01l-0.181,0.007l-0.181,0.005l-0.182,0.003l-0.175,0.001l-7.018,-0.027l-24.996,-0.149l-0.173,-0.002l-0.18,-0.004l-0.179,-0.007l-0.179,-0.009l-0.178,-0.011l-0.177,-0.014l-0.177,-0.015l-0.176,-0.018l-0.176,-0.02l-0.175,-0.022l-0.174,-0.025l-0.174,-0.026l-0.173,-0.029l-0.172,-0.031l-0.172,-0.033l-0.171,-0.035l-0.17,-0.037l-0.17,-0.04l-0.168,-0.041l-0.168,-0.043l-0.167,-0.046l-0.166,-0.047l-0.165,-0.049l-0.165,-0.052l-0.163,-0.053l-0.163,-0.055l-0.162,-0.058l-0.161,-0.059l-0.16,-0.061l-0.159,-0.063l-0.158,-0.065l-0.157,-0.066l-0.156,-0.069l-0.155,-0.07l-0.154,-0.072l-0.153,-0.074l-0.152,-0.076l-0.15,-0.077l-0.15,-0.08l-0.149,-0.081l-0.147,-0.082l-0.147,-0.085l-0.145,-0.086l-0.144,-0.088l-0.143,-0.089l-0.142,-0.091l-0.141,-0.093l-0.14,-0.094l-0.138,-0.096l-0.137,-0.098l-0.136,-0.099l-0.134,-0.1l-0.134,-0.103l-0.132,-0.103l-0.13,-0.106l-0.13,-0.107l-0.128,-0.108l-0.127,-0.11l-0.125,-0.111l-0.125,-0.113l-0.122,-0.114l-0.122,-0.115l-0.12,-0.117l-0.119,-0.119l-0.117,-0.119l-0.116,-0.122l-0.114,-0.122l-0.113,-0.124l-0.111,-0.125l-0.11,-0.127l-0.109,-0.127l-0.107,-0.129l-0.105,-0.131l-0.104,-0.131l-0.102,-0.133l-0.101,-0.134l-0.099,-0.136l-0.098,-0.136l-0.096,-0.138l-0.095,-0.139l-0.092,-0.14l-0.092,-0.141l-0.089,-0.143l-0.088,-0.144l-0.086,-0.144l-0.085,-0.146l-0.082,-0.147l-0.082,-0.148l-0.079,-0.149l-0.077,-0.15l-0.076,-0.151l-0.074,-0.152l-0.072,-0.153l-0.071,-0.155l-0.068,-0.155l-0.067,-0.156l-0.065,-0.157l-0.063,-0.158l-0.061,-0.159l-0.06,-0.16l-0.057,-0.16l-0.055,-0.162l-0.054,-0.162l-0.051,-0.164l-0.05,-0.164l-0.047,-0.165l-0.046,-0.166l-0.044,-0.166l-0.041,-0.168l-0.04,-0.168l-0.037,-0.168l-0.035,-0.17l-0.034,-0.17l-0.031,-0.171l-0.029,-0.172l-0.027,-0.172l-0.025,-0.173l-0.022,-0.173l-0.021,-0.175l-0.018,-0.174l-0.016,-0.176l-0.014,-0.175l-0.011,-0.177l-0.01,-0.177l-0.007,-0.177l-0.005,-0.178l0,-0.032l-0.002,-0.146l0,-0.173l0.301,-45.196l0.132,-0.09l0.005,-21.241l0.009,-0.009l-6.535,-0.037l-0.168,-0.001l-0.172,-0.005l-0.171,-0.006l-0.171,-0.009l-0.171,-0.01l-0.17,-0.013l-0.169,-0.015l-0.169,-0.017l-0.168,-0.019l-0.168,-0.022l-0.167,-0.023l-0.166,-0.026l-0.166,-0.027l-0.165,-0.03l-0.164,-0.031l-0.164,-0.034l-0.163,-0.036l-0.162,-0.037l-0.161,-0.04l-0.161,-0.041l-0.16,-0.044l-0.159,-0.045l-0.158,-0.047l-0.158,-0.049l-0.156,-0.052l-0.156,-0.052l-0.155,-0.055l-0.154,-0.057l-0.153,-0.058l-0.152,-0.061l-0.152,-0.062l-0.15,-0.063l-0.149,-0.066l-0.149,-0.067l-0.148,-0.07l-0.146,-0.07l-0.146,-0.073l-0.144,-0.074l-0.144,-0.076l-0.142,-0.078l-0.141,-0.079l-0.141,-0.081l-0.139,-0.082l-0.138,-0.084l-0.137,-0.086l-0.136,-0.087l-0.135,-0.089l-0.134,-0.09l-0.132,-0.092l-0.132,-0.094l-0.13,-0.095l-0.129,-0.096l-0.128,-0.098l-0.126,-0.1l-0.126,-0.101l-0.124,-0.102l-0.123,-0.104l-0.121,-0.105l-0.121,-0.107l-0.119,-0.108l-0.117,-0.109l-0.117,-0.111l-0.115,-0.112l-0.114,-0.113l-0.112,-0.115l-0.111,-0.116l-0.11,-0.118l-0.108,-0.118l-0.107,-0.12l-0.105,-0.122l-0.104,-0.122l-0.103,-0.124l-0.101,-0.125l-0.1,-0.126l-0.098,-0.127l-0.096,-0.129l-0.096,-0.13l-0.093,-0.131l-0.092,-0.132l-0.091,-0.133l-0.089,-0.134l-0.087,-0.135l-0.086,-0.137l-0.084,-0.138l-0.083,-0.138l-0.081,-0.14l-0.079,-0.141l-0.078,-0.141l-0.076,-0.143l-0.074,-0.144l-0.073,-0.145l-0.071,-0.145l-0.069,-0.147l-0.068,-0.148l-0.065,-0.148l-0.064,-0.15l-0.063,-0.15l-0.06,-0.152l-0.059,-0.152l-0.056,-0.153l-0.055,-0.154l-0.053,-0.155l-0.052,-0.155l-0.049,-0.157l-0.048,-0.157l-0.045,-0.158l-0.044,-0.159l-0.042,-0.159l-0.039,-0.16l-0.038,-0.161l-0.036,-0.162l-0.02,-0.095l-0.014,-0.067l-0.032,-0.163l-0.03,-0.164l-0.027,-0.164l-0.026,-0.165l-0.024,-0.166l-0.021,-0.166l-0.02,-0.167l-0.017,-0.167l-0.016,-0.168l-0.013,-0.168l-0.011,-0.169l-0.009,-0.17l-0.007,-0.169l-0.005,-0.171l-0.002,-0.171l0,-0.166l0.254,-68.006l0.001,-0.16l0.001,-0.161l0.003,-0.16l0.004,-0.161l0.005,-0.16l0.006,-0.16l0.007,-0.16l0.008,-0.159l0.009,-0.16l0.01,-0.159l0.011,-0.158l0.012,-0.159l0.013,-0.158l0.014,-0.158l0.015,-0.158l0.016,-0.157l0.017,-0.157l0.017,-0.157l0.019,-0.157l0.02,-0.156l0.021,-0.156l0.022,-0.156l0.023,-0.155l0.023,-0.155l0.025,-0.155l0.026,-0.155l0.026,-0.154l0.028,-0.154l0.028,-0.153l0.03,-0.154l0.03,-0.153l0.031,-0.152l0.033,-0.153l0.033,-0.151l0.034,-0.152l0.035,-0.151l0.036,-0.151l0.037,-0.151l0.038,-0.15l0.003,-0.015l0.035,-0.135l0.04,-0.15l0.04,-0.149l0.042,-0.149l0.042,-0.148l0.043,-0.148l0.044,-0.148l0.045,-0.147l0.046,-0.147l0.047,-0.147l0.048,-0.146l0.048,-0.146l0.05,-0.146l0.05,-0.145l0.051,-0.144l0.052,-0.145l0.053,-0.143l0.053,-0.144l0.055,-0.143l0.055,-0.142l0.057,-0.143l0.057,-0.142l0.058,-0.141l0.058,-0.141l0.06,-0.14l0.06,-0.14l0.062,-0.14l0.062,-0.139l0.062,-0.139l0.064,-0.138l0.065,-0.138l0.065,-0.138l0.066,-0.137l0.067,-0.136l0.068,-0.136l0.068,-0.136l0.07,-0.135l0.07,-0.135l0.071,-0.134l0.071,-0.134l0.073,-0.133l0.073,-0.133l0.074,-0.132l0.075,-0.132l0.075,-0.131l0.077,-0.131l0.077,-0.13l0.078,-0.13l0.078,-0.129l0.08,-0.129l0.08,-0.128l0.081,-0.128l0.081,-0.127l0.083,-0.127l0.083,-0.126l0.083,-0.126l0.085,-0.125l0.085,-0.125l0.086,-0.124l0.087,-0.124l0.087,-0.123l0.088,-0.122l0.089,-0.122l0.09,-0.121l0.09,-0.121l0.091,-0.121l0.092,-0.119l0.092,-0.119l0.093,-0.119l0.094,-0.118l0.094,-0.118l0.095,-0.116l0.096,-0.117l0.097,-0.115l0.097,-0.116l0.098,-0.114l0.098,-0.114l0.099,-0.113l0.1,-0.113l0.1,-0.112l0.102,-0.112l0.101,-0.111l0.103,-0.11l0.103,-0.11l0.104,-0.109l0.104,-0.109l0.105,-0.108l0.105,-0.107l0.107,-0.107l0.107,-0.106l0.107,-0.105l0.108,-0.105l0.109,-0.104l0.109,-0.103l0.11,-0.103l0.111,-0.102l0.111,-0.102l0.112,-0.101l0.112,-0.1l0.113,-0.1l0.114,-0.099l0.114,-0.098l0.115,-0.097l0.115,-0.097l0.116,-0.097l0.116,-0.095l0.117,-0.095l0.118,-0.094l0.118,-0.094l0.119,-0.092l0.119,-0.092l0.12,-0.092l0.12,-0.091l0.121,-0.09l0.122,-0.089l0.122,-0.088l0.123,-0.088l0.123,-0.087l0.124,-0.087l0.124,-0.086l0.125,-0.085l0.125,-0.084l0.126,-0.083l0.126,-0.083l0.127,-0.082l0.127,-0.081l0.128,-0.081l0.129,-0.08l0.128,-0.079l0.13,-0.078l0.13,-0.078l0.13,-0.076l0.131,-0.076l0.131,-0.076l0.132,-0.074l0.133,-0.074l0.132,-0.073l0.134,-0.072l0.134,-0.071l0.134,-0.071l0.135,-0.07l0.135,-0.069l0.135,-0.068l0.137,-0.067l0.136,-0.067l0.137,-0.066l0.138,-0.065l0.138,-0.064l0.138,-0.063l0.139,-0.063l0.139,-0.061l0.14,-0.061l0.14,-0.06l0.14,-0.06l0.141,-0.058l0.142,-0.058l0.141,-0.056l0.143,-0.056l0.142,-0.055l0.143,-0.054l0.144,-0.054l0.144,-0.052l0.144,-0.052l0.144,-0.051l0.145,-0.049l0.146,-0.049l0.146,-0.049l0.146,-0.047l0.146,-0.046l0.147,-0.046l0.148,-0.044l0.147,-0.044l0.148,-0.043l0.149,-0.042l0.149,-0.041l0.149,-0.04l0.149,-0.039l0.15,-0.039l0.15,-0.037l0.151,-0.037l0.151,-0.035l0.151,-0.035l0.151,-0.033l0.152,-0.033l0.152,-0.032l0.153,-0.031l0.153,-0.03l0.153,-0.029l0.153,-0.028l0.154,-0.027l0.154,-0.027l0.155,-0.025l0.154,-0.024l0.155,-0.024l0.155,-0.022l0.156,-0.021l0.156,-0.021l0.156,-0.019l0.156,-0.019l0.157,-0.017l0.157,-0.017l0.157,-0.015l0.158,-0.015l0.158,-0.014l0.158,-0.012l0.158,-0.012l0.131,-0.009l0.027,-0.001l0.159,-0.01l0.159,-0.009l0.159,-0.007l0.16,-0.007l0.16,-0.005l0.16,-0.005l0.16,-0.003l0.16,-0.003l0.161,-0.001l0.159,-0.001l1.614,-0.001l4.068,-0.003Z" style="fill:#573351;"/></g></g><g id="Cloud" transform="matrix(1,0,0,1,-673.893,-118.244)"><g transform="matrix(0.99772,-0.0674875,0.0674875,0.99772,-11.7055,82.6584)"><text x="1217.55px" y="214.579px" style="font-family:'Lato-Regular', 'Lato', sans-serif;font-size:36px;fill:#573351;stroke:#573351;stroke-width:1px;stroke-linecap:butt;stroke-miterlimit:2;">C</text></g><g transform="matrix(0.999346,-0.0361548,0.0361548,0.999346,-6.8911,45.037)"><text x="1241.82px" y="213.056px" style="font-family:'Lato-Regular', 'Lato', sans-serif;font-size:36px;fill:#573351;stroke:#573351;stroke-width:1px;stroke-linecap:butt;stroke-miterlimit:2;">l</text></g><g transform="matrix(0.999972,-0.00753164,0.00753164,0.999972,-1.56619,9.42509)"><text x="1250.6px" y="212.658px" style="font-family:'Lato-Regular', 'Lato', sans-serif;font-size:36px;fill:#573351;stroke:#573351;stroke-width:1px;stroke-linecap:butt;stroke-miterlimit:2;">o</text></g><g transform="matrix(0.999482,0.0321955,-0.0321955,0.999482,7.50104,-40.8218)"><text x="1271.36px" y="212.513px" style="font-family:'Lato-Regular', 'Lato', sans-serif;font-size:36px;fill:#573351;stroke:#573351;stroke-width:1px;stroke-linecap:butt;stroke-miterlimit:2;">u</text></g><g transform="matrix(0.997445,0.0714342,-0.0714342,0.997445,18.5293,-91.7363)"><text x="1291.83px" y="213.191px" style="font-family:'Lato-Regular', 'Lato', sans-serif;font-size:36px;fill:#573351;stroke:#573351;stroke-width:1px;stroke-linecap:butt;stroke-miterlimit:2;">d</text></g></g><g id="IoT" transform="matrix(1,0,0,1,-673.893,-118.244)"><g transform="matrix(0.998622,-0.0524747,0.0524747,0.998622,-17.493,65.6141)"><text x="1240.79px" y="365.938px" style="font-family:'Lato-Regular', 'Lato', sans-serif;font-size:36px;fill:#573351;stroke:#573351;stroke-width:1px;stroke-linecap:butt;stroke-miterlimit:2;">I</text></g><g transform="matrix(0.999947,-0.0103062,0.0103062,0.999947,-3.69845,12.91)"><text x="1250.77px" y="365.303px" style="font-family:'Lato-Regular', 'Lato', sans-serif;font-size:36px;fill:#573351;stroke:#573351;stroke-width:1px;stroke-linecap:butt;stroke-miterlimit:2;">o</text></g><g transform="matrix(0.999335,0.0364517,-0.0364517,0.999335,14.1481,-45.9489)"><text x="1267.2px" y="365.03px" style="font-family:'Lato-Regular', 'Lato', sans-serif;font-size:36px;fill:#573351;stroke:#573351;stroke-width:1px;stroke-linecap:butt;stroke-miterlimit:2;">T</text></g></g><g id="BYOD" transform="matrix(1,0,0,1,-623.723,-0.931995)"><g transform="matrix(0.990052,-0.140705,0.140705,0.990052,-47.0645,170.153)"><text x="1179.75px" y="417.904px" style="font-family:'Lato-Regular', 'Lato', sans-serif;font-size:24px;fill:#573351;stroke:#573351;stroke-width:1px;stroke-linecap:butt;stroke-miterlimit:2;">B</text></g><g transform="matrix(0.998164,-0.0605766,0.0605766,0.998164,-22.9844,73.1846)"><text x="1195.53px" y="415.67px" style="font-family:'Lato-Regular', 'Lato', sans-serif;font-size:24px;fill:#573351;stroke:#573351;stroke-width:1px;stroke-linecap:butt;stroke-miterlimit:2;">Y</text></g><g transform="matrix(0.999546,0.0301165,-0.0301165,0.999546,13.0374,-36.273)"><text x="1210.67px" y="414.665px" style="font-family:'Lato-Regular', 'Lato', sans-serif;font-size:24px;fill:#573351;stroke:#573351;stroke-width:1px;stroke-linecap:butt;stroke-miterlimit:2;">O</text></g><g transform="matrix(0.990327,0.138755,-0.138755,0.990327,69.5418,-166.819)"><text x="1231.21px" y="415.352px" style="font-family:'Lato-Regular', 'Lato', sans-serif;font-size:24px;fill:#573351;stroke:#573351;stroke-width:1px;stroke-linecap:butt;stroke-miterlimit:2;">D</text></g></g></g><g id="Personal-devices" serif:id="Personal devices"><text x="1111.18px" y="1021.43px" style="font-family:'Lato-Regular', 'Lato', sans-serif;font-size:64px;fill:#573351;stroke:#573351;stroke-width:1px;stroke-linecap:butt;stroke-miterlimit:2;">Y<tspan x="1144.11px " y="1021.43px ">o</tspan>ur<tspan x="1238.03px 1254.42px 1291.15px 1324.94px 1348.05px " y="1021.43px 1021.43px 1021.43px 1021.43px 1021.43px "> Pers</tspan>onal D<tspan x="1559.28px 1592.37px " y="1021.43px 1021.43px ">ev</tspan>ic<tspan x="1670.74px " y="1021.43px ">e</tspan>s</text><path id="personal-devices-curve" serif:id="personal devices curve" d="M728.961,709.58l0.008,0.006l388.133,325.882l13.645,0.011l622.398,0.514l0.01,0l1.755,0.736l0.733,1.756l0,0.02l-0.736,1.756l-1.756,0.732l-636.962,-0.526l-0.434,-0.038l-0.421,-0.113l-0.394,-0.185l-0.357,-0.249l-388.837,-326.473l-0.872,-1.691l0.566,-1.817l0.006,-0.008l-0.122,-0.103l0.006,-0.007l1.728,-0.842l1.903,0.639Z" style="fill:#020202;"/><circle id="Personal-devices-connection" serif:id="Personal devices connection" cx="727.361" cy="711.501" r="12.032" style="fill:#fff;stroke:#020202;stroke-width:5px;"/><path d="M1176.41,1065.19l-18.75,0c-1.714,0 -3.125,1.41 -3.125,3.125l0,31.25c0,1.714 1.411,3.125 3.125,3.125l18.75,0c1.714,0 3.125,-1.411 3.125,-3.125l0,-31.25c0,-1.715 -1.411,-3.125 -3.125,-3.125Zm0,34.375l-18.75,0l0,-31.25l18.75,0l0,31.25Zm-50,-43.75l37.5,0l0,6.25l3.125,0l0,-6.25c0,-1.715 -1.411,-3.125 -3.125,-3.125l-37.5,0c-1.714,0 -3.125,1.41 -3.125,3.125l0,25l-4.688,0c-0.857,0 -1.562,0.705 -1.562,1.562l0,1.563c0.007,3.422 2.819,6.237 6.241,6.25l28.134,0l0,-3.125l-28.134,0c-1.711,-0.005 -3.116,-1.414 -3.116,-3.125l31.25,0l0,-3.125l-25,0l0,-25Z" style="fill:#573351;fill-rule:nonzero;"/></g></svg>