<?xml version="1.0" encoding="UTF-8" standalone="no"?><!DOCTYPE svg PUBLIC "-//W3C//DTD SVG 1.1//EN" "http://www.w3.org/Graphics/SVG/1.1/DTD/svg11.dtd"><svg width="100%" height="100%" viewBox="0 0 404 404" version="1.1" xmlns="http://www.w3.org/2000/svg" xmlns:xlink="http://www.w3.org/1999/xlink" xml:space="preserve" xmlns:serif="http://www.serif.com/" style="fill-rule:evenodd;clip-rule:evenodd;stroke-linecap:round;stroke-linejoin:round;stroke-miterlimit:1.5;"><g id="Individuals"><circle cx="201.504" cy="201.504" r="179.004" style="fill:#ca9acc;stroke:#87338b;stroke-width:45px;"/><path d="M143.612,191.546c9.124,0 16.542,-7.419 16.542,-16.543c0,-9.125 -7.418,-16.543 -16.542,-16.543c-9.125,0 -16.543,7.418 -16.543,16.543c0,9.124 7.418,16.543 16.543,16.543Zm115.798,0c9.125,0 16.543,-7.419 16.543,-16.543c0,-9.125 -7.418,-16.543 -16.543,-16.543c-9.124,0 -16.543,7.418 -16.543,16.543c0,9.124 7.419,16.543 16.543,16.543Zm8.271,8.271l-16.542,0c-4.549,0 -8.659,1.835 -11.658,4.808c10.417,5.712 17.81,16.025 19.412,28.277l17.06,0c4.575,0 8.271,-3.696 8.271,-8.271l0,-8.272c0,-9.124 -7.418,-16.543 -16.543,-16.543Zm-66.17,0.001c16,0 28.95,-12.95 28.95,-28.95c0,-15.999 -12.951,-28.95 -28.95,-28.95c-16,0 -28.949,12.951 -28.949,28.95c0,16 12.949,28.95 28.949,28.95Zm19.851,8.271l-2.145,0c-5.377,2.585 -11.348,4.136 -17.706,4.136c-6.359,0 -12.304,-1.551 -17.706,-4.136l-2.145,0c-16.439,0 -29.777,13.338 -29.777,29.777l0,7.444c0,6.85 5.557,12.407 12.407,12.407l74.442,0c6.85,0 12.407,-5.557 12.407,-12.407l0,-7.444c0,-16.439 -13.338,-29.777 -29.777,-29.777Zm-57.821,-3.463c-2.999,-2.973 -7.109,-4.808 -11.658,-4.808l-16.542,0c-9.125,0 -16.543,7.418 -16.543,16.542l0,8.272c0,4.575 3.696,8.271 8.271,8.271l17.034,0c1.628,-12.252 9.021,-22.565 19.438,-28.277Z" style="fill:#fff;fill-opacity:0.894118;fill-rule:nonzero;"/></g></svg>