<?xml version="1.0" encoding="UTF-8" standalone="no"?><!DOCTYPE svg PUBLIC "-//W3C//DTD SVG 1.1//EN" "http://www.w3.org/Graphics/SVG/1.1/DTD/svg11.dtd"><svg width="100%" height="100%" viewBox="0 0 404 404" version="1.1" xmlns="http://www.w3.org/2000/svg" xmlns:xlink="http://www.w3.org/1999/xlink" xml:space="preserve" xmlns:serif="http://www.serif.com/" style="fill-rule:evenodd;clip-rule:evenodd;stroke-linecap:round;stroke-linejoin:round;stroke-miterlimit:1.5;"><g id="Security-researchers" serif:id="Security researchers"><circle cx="201.504" cy="201.504" r="179.004" style="fill:#ca9acc;stroke:#87338b;stroke-width:45px;"/><path d="M228.066,210.33l-27.441,27.577l-27.441,-27.577c-18.565,1.659 -33.179,17.134 -33.179,36.225l0,11.314c0,7.206 5.819,13.054 12.99,13.054l95.259,0c7.171,0 12.99,-5.848 12.99,-13.054l0,-11.314c0,-19.091 -14.614,-34.566 -33.178,-36.225Zm-79.4,-26.435c7.387,0 14.017,-3.127 18.726,-8.077c4.086,14.659 17.32,25.483 33.233,25.483c19.132,0 34.639,-15.584 34.639,-34.811c0,-19.228 -15.507,-34.811 -34.639,-34.811c-13.64,0 -25.331,7.996 -30.986,19.527c-4.71,-6.527 -12.314,-10.824 -20.973,-10.824c0,9.083 4.627,17.079 11.663,21.757c-7.036,4.677 -11.663,12.673 -11.663,21.756Zm38.969,-26.108l25.979,0c4.79,0 8.66,3.889 8.66,8.703l-43.299,0c0,-4.814 3.87,-8.703 8.66,-8.703Z" style="fill:#fff;fill-opacity:0.898039;fill-rule:nonzero;"/></g></svg>