<?xml version="1.0" encoding="UTF-8" standalone="no"?><!DOCTYPE svg PUBLIC "-//W3C//DTD SVG 1.1//EN" "http://www.w3.org/Graphics/SVG/1.1/DTD/svg11.dtd"><svg width="100%" height="100%" viewBox="0 0 1746 1809" version="1.1" xmlns="http://www.w3.org/2000/svg" xmlns:xlink="http://www.w3.org/1999/xlink" xml:space="preserve" xmlns:serif="http://www.serif.com/" style="fill-rule:evenodd;clip-rule:evenodd;stroke-linecap:round;stroke-linejoin:round;stroke-miterlimit:1.5;"><g id="Ecosystem"><g><path d="M736.767,670.751l-245.298,-230.455l-26.561,28.277l245.298,230.456l26.561,-28.278Z" style="fill:#762c7a;"/><path d="M1215.4,643.481l-129.423,61.534l16.283,40.816l129.422,-61.534l-16.282,-40.816Z" style="fill:#762c7a;"/><path d="M766.266,1065.91l-73.151,153.644l40.567,15.208l73.151,-153.642l-40.567,-15.21Z" style="fill:#762c7a;"/></g><g id="Badrap"><g transform="matrix(0.972288,0.233786,-0.233786,0.972288,614.149,-588.027)"><g transform="matrix(0.925189,-0.379507,0.379507,0.925189,-373.284,245.653)"><path d="M450.659,1031.57l0,10.157l11.313,0c2.021,0 3.661,-0.381 4.922,-1.141c1.26,-0.76 1.89,-2.109 1.89,-4.047c0,-2.146 -0.833,-3.562 -2.5,-4.25c-1.437,-0.479 -3.27,-0.719 -5.5,-0.719l-10.125,0Zm0,17.782l0,12.281l11.313,0c2.021,0 3.594,-0.271 4.719,-0.813c2.041,-1 3.062,-2.916 3.062,-5.75c0,-2.396 -0.989,-4.041 -2.969,-4.937c-1.104,-0.5 -2.656,-0.761 -4.656,-0.781l-11.469,0Zm13.188,-25.782c5.646,0.084 9.646,1.719 12,4.907c1.417,1.958 2.125,4.302 2.125,7.031c0,2.812 -0.708,5.073 -2.125,6.781c-0.792,0.958 -1.958,1.833 -3.5,2.625c2.354,0.854 4.13,2.208 5.328,4.063c1.198,1.854 1.797,4.104 1.797,6.75c0,2.729 -0.688,5.177 -2.063,7.343c-0.875,1.438 -1.968,2.646 -3.281,3.625c-1.479,1.125 -3.224,1.896 -5.234,2.313c-2.011,0.416 -4.193,0.625 -6.547,0.625l-20.875,0l0,-46.063l22.375,0Z" style="fill:#87338b;fill-rule:nonzero;"/></g><g transform="matrix(0.973806,-0.227379,0.227379,0.973806,-226.33,137.228)"><path d="M499.922,1033.56l11.688,0l-5.75,-18.125l-5.938,18.125Zm0.594,-28.656l10.875,0l16.312,46.062l-10.437,0l-2.969,-9.468l-16.969,0l-3.187,9.468l-10.063,0l16.438,-46.062Z" style="fill:#87338b;fill-rule:nonzero;"/></g><g transform="matrix(0.997704,-0.0677194,0.0677194,0.997704,-69.1994,38.329)"><path d="M544.966,1001.78l0,30.062l8.875,0c4.542,0 7.709,-2.239 9.5,-6.718c0.979,-2.459 1.469,-5.386 1.469,-8.782c0,-4.687 -0.734,-8.286 -2.203,-10.796c-1.469,-2.511 -4.391,-3.766 -8.766,-3.766l-8.875,0Zm10.5,-8c2.854,0.042 5.229,0.375 7.125,1c3.229,1.062 5.844,3.01 7.844,5.844c1.604,2.291 2.698,4.771 3.281,7.437c0.584,2.667 0.875,5.209 0.875,7.625c0,6.125 -1.229,11.313 -3.687,15.563c-3.334,5.729 -8.479,8.593 -15.438,8.593l-19.843,0l0,-46.062l19.843,0Z" style="fill:#87338b;fill-rule:nonzero;"/></g><g transform="matrix(0.996143,0.087741,-0.087741,0.996143,93.1858,-46.9041)"><path d="M594.636,998.493l0,12.375l10.906,0c2.167,0 3.792,-0.25 4.875,-0.75c1.917,-0.875 2.875,-2.604 2.875,-5.188c0,-2.791 -0.927,-4.666 -2.781,-5.625c-1.042,-0.541 -2.604,-0.812 -4.688,-0.812l-11.187,0Zm13.187,-8c3.23,0.062 5.714,0.458 7.453,1.187c1.74,0.729 3.214,1.802 4.422,3.219c1,1.167 1.792,2.458 2.375,3.875c0.584,1.417 0.875,3.031 0.875,4.844c0,2.187 -0.552,4.338 -1.656,6.453c-1.104,2.114 -2.927,3.609 -5.469,4.484c2.125,0.854 3.631,2.068 4.516,3.641c0.885,1.573 1.328,3.974 1.328,7.203l0,3.094c0,2.104 0.083,3.531 0.25,4.281c0.25,1.187 0.833,2.062 1.75,2.625l0,1.156l-10.594,0c-0.291,-1.021 -0.5,-1.844 -0.625,-2.469c-0.25,-1.291 -0.385,-2.614 -0.406,-3.968l-0.062,-4.282c-0.042,-2.937 -0.579,-4.895 -1.61,-5.875c-1.031,-0.979 -2.963,-1.468 -5.797,-1.468l-9.937,0l0,18.062l-9.406,0l0,-46.062l22.593,0Z" style="fill:#87338b;fill-rule:nonzero;"/></g><g transform="matrix(0.970345,0.241725,-0.241725,0.970345,270.312,-121.295)"><path d="M646.974,1023.63l11.688,0l-5.75,-18.125l-5.938,18.125Zm0.594,-28.656l10.875,0l16.313,46.062l-10.438,0l-2.969,-9.468l-16.968,0l-3.188,9.468l-10.062,0l16.437,-46.062Z" style="fill:#87338b;fill-rule:nonzero;"/></g><g transform="matrix(0.919676,0.392679,-0.392679,0.919676,468.02,-181.451)"><path d="M708.349,1021.86c0,-2.396 -0.631,-4.104 -1.891,-5.125c-1.26,-1.021 -3.026,-1.531 -5.297,-1.531l-8.969,0l0,13.562l8.969,0c2.271,0 4.037,-0.552 5.297,-1.656c1.26,-1.104 1.891,-2.854 1.891,-5.25Zm9.531,-0.062c0,5.437 -1.375,9.281 -4.125,11.531c-2.75,2.25 -6.677,3.375 -11.781,3.375l-9.782,0l0,16.562l-9.562,0l0,-46.062l20.062,0c4.625,0 8.313,1.187 11.063,3.562c2.75,2.375 4.125,6.052 4.125,11.032Z" style="fill:#87338b;fill-rule:nonzero;"/></g></g><circle cx="867.27" cy="835.468" r="238.672" style="fill:#ca9acc;stroke:#87338b;stroke-width:60px;"/><path d="M943.898,771.327c-20.354,-17.346 -50.626,-14.226 -69.308,5.051l-7.317,7.54l-7.317,-7.54c-18.646,-19.277 -48.954,-22.397 -69.308,-5.051c-23.326,19.908 -24.552,55.639 -3.677,77.219l71.87,74.211c4.643,4.791 12.183,4.791 16.826,0l71.871,-74.211c20.911,-21.58 19.685,-57.311 -3.64,-77.219Z" style="fill:#fff;fill-opacity:0.9;fill-rule:nonzero;"/></g><g id="Enterprises"><g transform="matrix(0.97237,0.233445,-0.233445,0.97237,369.605,48.4237)"><g transform="matrix(0.828439,0.56008,-0.56008,0.828439,939.886,67.0025)"><path d="M363.45,1545.02c0,-8.041 2.156,-14.239 6.469,-18.593c3.75,-3.792 8.52,-5.688 14.312,-5.688c7.75,0 13.417,2.542 17,7.625c1.979,2.854 3.042,5.719 3.188,8.594l-9.625,0c-0.625,-2.209 -1.428,-3.875 -2.407,-5c-1.75,-2 -4.343,-3 -7.781,-3c-3.5,0 -6.26,1.411 -8.281,4.234c-2.021,2.823 -3.031,6.818 -3.031,11.985c0,5.166 1.067,9.036 3.203,11.609c2.135,2.573 4.849,3.859 8.14,3.859c3.375,0 5.948,-1.104 7.719,-3.312c0.979,-1.188 1.792,-2.969 2.438,-5.344l9.531,0c-0.834,5.021 -2.964,9.104 -6.391,12.25c-3.427,3.146 -7.818,4.719 -13.172,4.719c-6.625,0 -11.833,-2.125 -15.625,-6.375c-3.791,-4.271 -5.687,-10.125 -5.687,-17.563Z" style="fill:#87338b;fill-rule:nonzero;"/></g><g transform="matrix(0.912037,0.410107,-0.410107,0.912037,691.767,-26.8727)"><path d="M433.778,1592.3c3.812,0 6.838,-1.406 9.078,-4.218c2.239,-2.813 3.359,-6.813 3.359,-12c0,-5.167 -1.12,-9.162 -3.359,-11.985c-2.24,-2.823 -5.266,-4.234 -9.078,-4.234c-3.813,0 -6.855,1.406 -9.125,4.219c-2.271,2.812 -3.407,6.812 -3.407,12c0,5.187 1.136,9.187 3.407,12c2.27,2.812 5.312,4.218 9.125,4.218Zm22.062,-16.218c0,8.27 -2.323,14.604 -6.969,19c-3.479,3.583 -8.51,5.375 -15.093,5.375c-6.584,0 -11.615,-1.792 -15.094,-5.375c-4.667,-4.396 -7,-10.73 -7,-19c0,-8.438 2.333,-14.771 7,-19c3.479,-3.584 8.51,-5.375 15.094,-5.375c6.583,0 11.614,1.791 15.093,5.375c4.646,4.229 6.969,10.562 6.969,19Z" style="fill:#87338b;fill-rule:nonzero;"/></g><g transform="matrix(0.970877,0.239577,-0.239577,0.970877,402.513,-64.095)"><path d="M500.301,1577.53l13.844,0l0,46.063l-8.969,0l0,-31.157c0,-0.895 0.011,-2.151 0.031,-3.765c0.021,-1.615 0.032,-2.86 0.032,-3.735l-8.719,38.657l-9.344,0l-8.656,-38.657c0,0.875 0.01,2.12 0.031,3.735c0.021,1.614 0.031,2.87 0.031,3.765l0,31.157l-8.968,0l0,-46.063l14,0l8.375,36.219l8.312,-36.219Z" style="fill:#87338b;fill-rule:nonzero;"/></g><g transform="matrix(0.997311,0.0732855,-0.0732855,0.997311,121.442,-34.2506)"><path d="M558.263,1606.35c0,-2.396 -0.63,-4.104 -1.891,-5.125c-1.26,-1.021 -3.026,-1.531 -5.296,-1.531l-8.969,0l0,13.562l8.969,0c2.27,0 4.036,-0.552 5.296,-1.656c1.261,-1.104 1.891,-2.854 1.891,-5.25Zm9.531,-0.063c0,5.438 -1.375,9.282 -4.125,11.532c-2.75,2.25 -6.677,3.375 -11.781,3.375l-9.781,0l0,16.562l-9.563,0l0,-46.062l20.063,0c4.625,0 8.312,1.187 11.062,3.562c2.75,2.375 4.125,6.052 4.125,11.031Z" style="fill:#87338b;fill-rule:nonzero;"/></g><g transform="matrix(0.997338,-0.0729146,0.0729146,0.997338,-118.12,46.6212)"><path d="M596.953,1623.73l11.688,0l-5.75,-18.125l-5.938,18.125Zm0.594,-28.657l10.875,0l16.312,46.063l-10.437,0l-2.969,-9.469l-16.969,0l-3.187,9.469l-10.063,0l16.438,-46.063Z" style="fill:#87338b;fill-rule:nonzero;"/></g><g transform="matrix(0.9733,-0.229535,0.229535,0.9733,-358.612,189.598)"><path d="M640.396,1590.22l10.093,0l18.344,32.156l0,-32.156l8.969,0l0,46.062l-9.625,0l-18.813,-32.718l0,32.718l-8.968,0l0,-46.062Z" style="fill:#87338b;fill-rule:nonzero;"/></g><g transform="matrix(0.941969,-0.335699,0.335699,0.941969,-504.928,324.901)"><rect x="691.413" y="1576.86" width="9.563" height="46.063" style="fill:#87338b;fill-rule:nonzero;"/></g><g transform="matrix(0.89901,-0.437929,0.437929,0.89901,-635.425,474.4)"><path d="M749.805,1577l-24.375,0l0,9.781l22.375,0l0,8l-22.375,0l0,11.844l25.5,0l0,8.281l-34.907,0l0,-46.062l33.782,0l0,8.156Z" style="fill:#87338b;fill-rule:nonzero;"/></g><g transform="matrix(0.823896,-0.566741,0.566741,0.823896,-768.493,709.672)"><path d="M769.537,1577.21c0.292,2.104 0.865,3.677 1.719,4.719c1.563,1.896 4.24,2.844 8.031,2.844c2.271,0 4.115,-0.25 5.532,-0.75c2.687,-0.959 4.031,-2.74 4.031,-5.344c0,-1.521 -0.667,-2.698 -2,-3.531c-1.333,-0.813 -3.427,-1.532 -6.281,-2.157l-4.875,-1.093c-4.792,-1.084 -8.104,-2.261 -9.938,-3.532c-3.104,-2.125 -4.656,-5.448 -4.656,-9.968c0,-4.125 1.5,-7.553 4.5,-10.282c3,-2.729 7.406,-4.093 13.219,-4.093c4.854,0 8.994,1.286 12.422,3.859c3.427,2.573 5.224,6.307 5.39,11.203l-9.25,0c-0.166,-2.771 -1.375,-4.74 -3.625,-5.906c-1.5,-0.771 -3.364,-1.156 -5.594,-1.156c-2.479,0 -4.458,0.5 -5.937,1.5c-1.479,1 -2.219,2.395 -2.219,4.187c0,1.646 0.729,2.875 2.188,3.688c0.937,0.541 2.937,1.177 6,1.906l7.937,1.906c3.479,0.833 6.104,1.948 7.875,3.344c2.75,2.166 4.125,5.302 4.125,9.406c0,4.208 -1.609,7.703 -4.828,10.484c-3.219,2.782 -7.766,4.172 -13.641,4.172c-6,0 -10.718,-1.369 -14.156,-4.109c-3.437,-2.74 -5.156,-6.505 -5.156,-11.297l9.187,0Z" style="fill:#87338b;fill-rule:nonzero;"/></g></g><circle cx="627.728" cy="1452.36" r="238.672" style="fill:#ca9acc;stroke:#87338b;stroke-width:60px;"/><path d="M668.951,1376.86l-30.64,0c-2.853,0 -5.6,1.07 -7.705,2.997l-35.063,32.102c-0.035,0.036 -0.071,0.107 -0.107,0.143c-5.921,5.564 -5.814,14.446 -0.749,19.975c4.53,4.958 14.054,6.278 20.011,0.963c0.035,-0.036 0.107,-0.036 0.142,-0.071l28.501,-26.11c2.318,-2.105 5.956,-1.962 8.061,0.356c2.14,2.319 1.962,5.921 -0.357,8.062l-9.31,8.525l51.935,42.161c1.035,0.856 1.962,1.784 2.818,2.747l0,-69.021l-19.475,-19.476c-2.105,-2.14 -5.03,-3.353 -8.062,-3.353Zm38.987,22.9l0,79.865c0,6.313 5.101,11.414 11.415,11.414l22.828,0l0,-91.279l-34.243,0Zm17.122,79.865c-3.139,0 -5.707,-2.569 -5.707,-5.708c0,-3.138 2.568,-5.707 5.707,-5.707c3.139,0 5.707,2.569 5.707,5.707c0,3.139 -2.568,5.708 -5.707,5.708Zm-211.165,11.378l22.829,0c6.313,0 11.414,-5.101 11.414,-11.414l0,-79.829l-34.243,0l0,91.243Zm17.122,-22.793c3.139,0 5.707,2.569 5.707,5.707c0,3.139 -2.568,5.708 -5.707,5.708c-3.139,0 -5.707,-2.569 -5.707,-5.708c0,-3.174 2.568,-5.707 5.707,-5.707Zm155.484,6.635l-53.255,-43.232l-10.701,9.809c-10.594,9.667 -26.823,8.739 -36.276,-1.569c-9.595,-10.487 -8.846,-26.717 1.57,-36.276l29.177,-26.717l-29.891,0c-3.032,0 -5.921,1.213 -8.061,3.353l-19.511,19.476l0,79.864l6.527,0l32.281,29.214c9.774,7.954 24.148,6.456 32.103,-3.318l0.071,-0.071l6.385,5.529c5.671,4.637 14.054,3.745 18.655,-1.926l11.201,-13.769l1.926,1.57c4.886,3.959 12.092,3.246 16.051,-1.677l3.389,-4.173c3.995,-4.923 3.246,-12.092 -1.641,-16.087Z" style="fill:#fff;fill-opacity:0.9;fill-rule:nonzero;"/></g><g id="Security-researchers" serif:id="Security researchers"><g transform="matrix(0.97237,0.233445,-0.233445,0.97237,62.613,-1051.67)"><g transform="matrix(0.711095,0.703096,-0.703096,0.711095,1162.43,219.277)"><path d="M328.891,1486.05l0,12.375l10.906,0c2.167,0 3.792,-0.25 4.875,-0.75c1.917,-0.875 2.875,-2.604 2.875,-5.188c0,-2.791 -0.927,-4.666 -2.781,-5.625c-1.042,-0.541 -2.604,-0.812 -4.688,-0.812l-11.187,0Zm13.187,-8c3.229,0.062 5.714,0.458 7.453,1.187c1.74,0.729 3.214,1.802 4.422,3.219c1,1.167 1.792,2.458 2.375,3.875c0.584,1.417 0.875,3.031 0.875,4.844c0,2.187 -0.552,4.338 -1.656,6.453c-1.104,2.114 -2.927,3.609 -5.469,4.484c2.125,0.854 3.631,2.068 4.516,3.641c0.885,1.573 1.328,3.974 1.328,7.203l0,3.094c0,2.104 0.083,3.531 0.25,4.281c0.25,1.187 0.833,2.062 1.75,2.625l0,1.156l-10.594,0c-0.291,-1.021 -0.5,-1.844 -0.625,-2.469c-0.25,-1.291 -0.385,-2.614 -0.406,-3.968l-0.062,-4.282c-0.042,-2.937 -0.579,-4.895 -1.61,-5.875c-1.031,-0.979 -2.963,-1.468 -5.797,-1.468l-9.937,0l0,18.062l-9.406,0l0,-46.062l22.593,0Z" style="fill:#87338b;fill-rule:nonzero;"/></g><g transform="matrix(0.815919,0.578167,-0.578167,0.815919,969.326,82.3657)"><path d="M394.253,1525.52l-24.375,0l0,9.781l22.375,0l0,8l-22.375,0l0,11.844l25.5,0l0,8.281l-34.907,0l0,-46.063l33.782,0l0,8.157Z" style="fill:#87338b;fill-rule:nonzero;"/></g><g transform="matrix(0.892839,0.450377,-0.450377,0.892839,760.216,-8.68898)"><path d="M410.211,1578.95c0.291,2.104 0.864,3.677 1.719,4.719c1.562,1.895 4.239,2.843 8.031,2.843c2.271,0 4.114,-0.25 5.531,-0.75c2.688,-0.958 4.031,-2.739 4.031,-5.343c0,-1.521 -0.666,-2.698 -2,-3.532c-1.333,-0.812 -3.427,-1.531 -6.281,-2.156l-4.875,-1.094c-4.792,-1.083 -8.104,-2.26 -9.937,-3.531c-3.105,-2.125 -4.657,-5.448 -4.657,-9.969c0,-4.125 1.5,-7.552 4.5,-10.281c3,-2.729 7.407,-4.094 13.219,-4.094c4.854,0 8.995,1.287 12.422,3.86c3.427,2.573 5.224,6.307 5.391,11.203l-9.25,0c-0.167,-2.771 -1.375,-4.74 -3.625,-5.906c-1.5,-0.771 -3.365,-1.157 -5.594,-1.157c-2.479,0 -4.459,0.5 -5.938,1.5c-1.479,1 -2.218,2.396 -2.218,4.188c0,1.646 0.729,2.875 2.187,3.687c0.938,0.542 2.938,1.177 6,1.907l7.938,1.906c3.479,0.833 6.104,1.948 7.875,3.344c2.75,2.166 4.125,5.302 4.125,9.406c0,4.208 -1.61,7.703 -4.829,10.484c-3.218,2.781 -7.765,4.172 -13.64,4.172c-6,0 -10.719,-1.37 -14.156,-4.109c-3.438,-2.74 -5.157,-6.506 -5.157,-11.297l9.188,0Z" style="fill:#87338b;fill-rule:nonzero;"/></g><g transform="matrix(0.951422,0.30789,-0.30789,0.951422,519.281,-58.6883)"><path d="M484.563,1578.36l-24.375,0l0,9.781l22.375,0l0,8l-22.375,0l0,11.844l25.5,0l0,8.281l-34.907,0l0,-46.062l33.782,0l0,8.156Z" style="fill:#87338b;fill-rule:nonzero;"/></g><g transform="matrix(0.986953,0.161009,-0.161009,0.986953,269.227,-58.5207)"><path d="M513.173,1614.55l11.687,0l-5.75,-18.125l-5.937,18.125Zm0.593,-28.656l10.875,0l16.313,46.063l-10.438,0l-2.968,-9.469l-16.969,0l-3.188,9.469l-10.062,0l16.437,-46.063Z" style="fill:#87338b;fill-rule:nonzero;"/></g><g transform="matrix(0.999998,0.00186301,-0.00186301,0.999998,3.05693,-1.02472)"><path d="M566.061,1602.28l0,12.375l10.907,0c2.166,0 3.791,-0.25 4.875,-0.75c1.916,-0.875 2.875,-2.604 2.875,-5.188c0,-2.791 -0.927,-4.666 -2.782,-5.625c-1.041,-0.541 -2.604,-0.812 -4.687,-0.812l-11.188,0Zm13.188,-8c3.229,0.062 5.713,0.458 7.453,1.187c1.74,0.73 3.214,1.802 4.422,3.219c1,1.167 1.792,2.458 2.375,3.875c0.583,1.417 0.875,3.031 0.875,4.844c0,2.187 -0.552,4.338 -1.656,6.453c-1.105,2.115 -2.927,3.609 -5.469,4.484c2.125,0.855 3.63,2.068 4.516,3.641c0.885,1.573 1.328,3.974 1.328,7.203l0,3.094c0,2.104 0.083,3.531 0.25,4.281c0.25,1.188 0.833,2.063 1.75,2.625l0,1.156l-10.594,0c-0.292,-1.02 -0.5,-1.843 -0.625,-2.468c-0.25,-1.292 -0.386,-2.615 -0.406,-3.969l-0.063,-4.281c-0.042,-2.938 -0.578,-4.896 -1.609,-5.875c-1.031,-0.98 -2.964,-1.469 -5.797,-1.469l-9.938,0l0,18.062l-9.406,0l0,-46.062l22.594,0Z" style="fill:#87338b;fill-rule:nonzero;"/></g><g transform="matrix(0.988514,-0.151126,0.151126,0.988514,-240.84,110.669)"><path d="M610.543,1617.15c0,-8.041 2.156,-14.239 6.469,-18.594c3.75,-3.791 8.521,-5.687 14.312,-5.687c7.75,0 13.417,2.542 17,7.625c1.98,2.854 3.042,5.719 3.188,8.594l-9.625,0c-0.625,-2.209 -1.427,-3.875 -2.406,-5c-1.75,-2 -4.344,-3 -7.782,-3c-3.5,0 -6.26,1.411 -8.281,4.234c-2.021,2.823 -3.031,6.818 -3.031,11.984c0,5.167 1.068,9.037 3.203,11.61c2.135,2.573 4.849,3.859 8.141,3.859c3.375,0 5.948,-1.104 7.718,-3.312c0.98,-1.188 1.792,-2.969 2.438,-5.344l9.531,0c-0.833,5.021 -2.963,9.104 -6.391,12.25c-3.427,3.146 -7.817,4.719 -13.171,4.719c-6.625,0 -11.834,-2.125 -15.625,-6.375c-3.792,-4.271 -5.688,-10.125 -5.688,-17.563Z" style="fill:#87338b;fill-rule:nonzero;"/></g><g transform="matrix(0.951761,-0.306841,0.306841,0.951761,-468.31,282.203)"><path d="M668.178,1630.52l0,-46.063l9.531,0l0,17.563l18,0l0,-17.563l9.562,0l0,46.063l-9.562,0l0,-20.563l-18,0l0,20.563l-9.531,0Z" style="fill:#87338b;fill-rule:nonzero;"/></g><g transform="matrix(0.890522,-0.45494,0.45494,0.890522,-655.039,502.682)"><path d="M755.875,1574.45l-24.375,0l0,9.781l22.375,0l0,8l-22.375,0l0,11.844l25.5,0l0,8.281l-34.906,0l0,-46.062l33.781,0l0,8.156Z" style="fill:#87338b;fill-rule:nonzero;"/></g><g transform="matrix(0.80691,-0.590675,0.590675,0.80691,-790.353,757.847)"><path d="M778.473,1549.73l0,12.375l10.907,0c2.166,0 3.791,-0.25 4.875,-0.75c1.916,-0.875 2.875,-2.604 2.875,-5.188c0,-2.791 -0.927,-4.666 -2.782,-5.625c-1.041,-0.541 -2.604,-0.812 -4.687,-0.812l-11.188,0Zm13.188,-8c3.229,0.062 5.714,0.458 7.453,1.187c1.74,0.729 3.214,1.802 4.422,3.219c1,1.167 1.792,2.458 2.375,3.875c0.583,1.417 0.875,3.031 0.875,4.844c0,2.187 -0.552,4.338 -1.656,6.453c-1.104,2.114 -2.927,3.609 -5.469,4.484c2.125,0.854 3.63,2.068 4.516,3.641c0.885,1.573 1.328,3.974 1.328,7.203l0,3.094c0,2.104 0.083,3.531 0.25,4.281c0.25,1.187 0.833,2.062 1.75,2.625l0,1.156l-10.594,0c-0.292,-1.021 -0.5,-1.844 -0.625,-2.469c-0.25,-1.291 -0.385,-2.614 -0.406,-3.968l-0.063,-4.282c-0.041,-2.937 -0.578,-4.895 -1.609,-5.875c-1.031,-0.979 -2.964,-1.468 -5.797,-1.468l-9.938,0l0,18.062l-9.406,0l0,-46.062l22.594,0Z" style="fill:#87338b;fill-rule:nonzero;"/></g><g transform="matrix(0.702918,-0.711271,0.711271,0.702918,-864.845,1037.02)"><path d="M820.838,1539.6c0.292,2.104 0.865,3.677 1.719,4.719c1.562,1.895 4.239,2.843 8.031,2.843c2.271,0 4.115,-0.25 5.531,-0.75c2.688,-0.958 4.032,-2.739 4.032,-5.343c0,-1.521 -0.667,-2.698 -2,-3.532c-1.334,-0.812 -3.427,-1.531 -6.282,-2.156l-4.875,-1.094c-4.791,-1.083 -8.104,-2.26 -9.937,-3.531c-3.104,-2.125 -4.656,-5.448 -4.656,-9.969c0,-4.125 1.5,-7.552 4.5,-10.281c3,-2.729 7.406,-4.094 13.218,-4.094c4.855,0 8.995,1.287 12.422,3.86c3.427,2.573 5.224,6.307 5.391,11.203l-9.25,0c-0.167,-2.771 -1.375,-4.74 -3.625,-5.906c-1.5,-0.771 -3.365,-1.157 -5.594,-1.157c-2.479,0 -4.458,0.5 -5.937,1.5c-1.48,1 -2.219,2.396 -2.219,4.188c0,1.646 0.729,2.875 2.187,3.687c0.938,0.542 2.938,1.177 6,1.907l7.938,1.906c3.479,0.833 6.104,1.948 7.875,3.344c2.75,2.166 4.125,5.302 4.125,9.406c0,4.208 -1.61,7.703 -4.828,10.484c-3.219,2.781 -7.766,4.172 -13.641,4.172c-6,0 -10.719,-1.37 -14.156,-4.109c-3.438,-2.74 -5.156,-6.506 -5.156,-11.297l9.187,0Z" style="fill:#87338b;fill-rule:nonzero;"/></g></g><g transform="matrix(0.972288,0.233786,-0.233786,0.972288,69.5346,-1071.55)"><g transform="matrix(0.884117,-0.467266,0.467266,0.884117,-458.192,318.508)"><path d="M424.894,1068.8c0.292,2.104 0.865,3.677 1.719,4.718c1.562,1.896 4.239,2.844 8.031,2.844c2.271,0 4.115,-0.25 5.531,-0.75c2.688,-0.958 4.032,-2.739 4.032,-5.344c0,-1.52 -0.667,-2.698 -2,-3.531c-1.334,-0.812 -3.427,-1.531 -6.282,-2.156l-4.875,-1.094c-4.791,-1.083 -8.104,-2.26 -9.937,-3.531c-3.104,-2.125 -4.656,-5.448 -4.656,-9.969c0,-4.125 1.5,-7.552 4.5,-10.281c3,-2.729 7.406,-4.094 13.218,-4.094c4.855,0 8.995,1.287 12.422,3.859c3.427,2.573 5.224,6.308 5.391,11.204l-9.25,0c-0.167,-2.771 -1.375,-4.74 -3.625,-5.907c-1.5,-0.77 -3.365,-1.156 -5.594,-1.156c-2.479,0 -4.458,0.5 -5.937,1.5c-1.48,1 -2.219,2.396 -2.219,4.188c0,1.645 0.729,2.875 2.187,3.687c0.938,0.542 2.938,1.177 6,1.906l7.938,1.907c3.479,0.833 6.104,1.948 7.875,3.343c2.75,2.167 4.125,5.302 4.125,9.407c0,4.208 -1.61,7.703 -4.828,10.484c-3.219,2.781 -7.766,4.172 -13.641,4.172c-6,0 -10.719,-1.37 -14.156,-4.11c-3.438,-2.739 -5.156,-6.505 -5.156,-11.296l9.187,0Z" style="fill:#87338b;fill-rule:nonzero;"/></g><g transform="matrix(0.945489,-0.325655,0.325655,0.945489,-321.012,205.629)"><path d="M492.655,1023.78l-24.375,0l0,9.781l22.375,0l0,8l-22.375,0l0,11.844l25.5,0l0,8.281l-34.907,0l0,-46.062l33.782,0l0,8.156Z" style="fill:#87338b;fill-rule:nonzero;"/></g><g transform="matrix(0.983736,-0.179618,0.179618,0.983736,-179.932,106.308)"><path d="M499.953,1024.1c0,-8.042 2.156,-14.24 6.469,-18.594c3.75,-3.791 8.521,-5.687 14.312,-5.687c7.75,0 13.417,2.541 17,7.625c1.98,2.854 3.042,5.719 3.188,8.594l-9.625,0c-0.625,-2.209 -1.427,-3.875 -2.406,-5c-1.75,-2 -4.344,-3 -7.782,-3c-3.5,0 -6.26,1.411 -8.281,4.234c-2.021,2.823 -3.031,6.818 -3.031,11.984c0,5.167 1.068,9.037 3.203,11.61c2.135,2.573 4.849,3.859 8.141,3.859c3.375,0 5.948,-1.104 7.718,-3.312c0.98,-1.188 1.792,-2.969 2.438,-5.344l9.531,0c-0.833,5.021 -2.963,9.104 -6.39,12.25c-3.428,3.146 -7.818,4.719 -13.172,4.719c-6.625,0 -11.834,-2.125 -15.625,-6.375c-3.792,-4.271 -5.688,-10.125 -5.688,-17.563Z" style="fill:#87338b;fill-rule:nonzero;"/></g><g transform="matrix(0.999742,-0.0227236,0.0227236,0.999742,-23.448,12.6733)"><path d="M550.794,992.021l9.781,0l0,28.312c0,3.167 0.375,5.48 1.125,6.938c1.167,2.583 3.709,3.875 7.625,3.875c3.896,0 6.427,-1.292 7.594,-3.875c0.75,-1.458 1.125,-3.771 1.125,-6.938l0,-28.312l9.781,0l0,28.312c0,4.896 -0.76,8.709 -2.281,11.438c-2.833,5 -8.239,7.5 -16.219,7.5c-7.979,0 -13.395,-2.5 -16.25,-7.5c-1.52,-2.729 -2.281,-6.542 -2.281,-11.438l0,-28.312Z" style="fill:#87338b;fill-rule:nonzero;"/></g><g transform="matrix(0.990647,0.136448,-0.136448,0.990647,147.079,-71.5585)"><path d="M610.024,999.029l0,12.375l10.906,0c2.167,0 3.792,-0.25 4.875,-0.75c1.917,-0.875 2.875,-2.604 2.875,-5.187c0,-2.792 -0.927,-4.667 -2.781,-5.625c-1.041,-0.542 -2.604,-0.813 -4.687,-0.813l-11.188,0Zm13.188,-8c3.229,0.063 5.713,0.459 7.453,1.188c1.739,0.729 3.213,1.802 4.422,3.219c1,1.166 1.791,2.458 2.375,3.875c0.583,1.416 0.875,3.031 0.875,4.843c0,2.188 -0.552,4.339 -1.657,6.454c-1.104,2.114 -2.927,3.609 -5.468,4.484c2.125,0.854 3.63,2.068 4.515,3.641c0.886,1.572 1.328,3.973 1.328,7.203l0,3.093c0,2.105 0.084,3.532 0.25,4.282c0.25,1.187 0.834,2.062 1.75,2.625l0,1.156l-10.593,0c-0.292,-1.021 -0.5,-1.844 -0.625,-2.469c-0.25,-1.292 -0.386,-2.614 -0.407,-3.969l-0.062,-4.281c-0.042,-2.937 -0.578,-4.896 -1.609,-5.875c-1.032,-0.979 -2.964,-1.469 -5.797,-1.469l-9.938,0l0,18.063l-9.406,0l0,-46.063l22.594,0Z" style="fill:#87338b;fill-rule:nonzero;"/></g><g transform="matrix(0.970612,0.240651,-0.240651,0.970612,270.259,-124.109)"><rect x="647.398" y="998.412" width="9.563" height="46.063" style="fill:#87338b;fill-rule:nonzero;"/></g><g transform="matrix(0.941846,0.336044,-0.336044,0.941846,390.986,-161.683)"><path d="M700.982,1002.76l0,8.156l-13.781,0l0,37.907l-9.688,0l0,-37.907l-13.844,0l0,-8.156l37.313,0Z" style="fill:#87338b;fill-rule:nonzero;"/></g><g transform="matrix(0.883432,0.468559,-0.468559,0.883432,579.968,-205.165)"><path d="M733.483,1016.98l10.907,0l-15.407,28.75l0,17.313l-9.625,0l0,-17.313l-15.937,-28.75l11.344,0l9.562,20.063l9.156,-20.063Z" style="fill:#87338b;fill-rule:nonzero;"/></g></g><circle cx="317.769" cy="351.74" r="238.672" style="fill:#ca9acc;stroke:#87338b;stroke-width:60px;"/><path d="M353.185,363.508l-36.588,36.769l-36.588,-36.769c-24.753,2.212 -44.238,22.845 -44.238,48.3l0,15.085c0,9.609 7.758,17.406 17.32,17.406l127.011,0c9.562,0 17.32,-7.797 17.32,-17.406l0,-15.085c0,-25.455 -19.485,-46.088 -44.237,-48.3Zm-105.867,-35.246c9.85,0 18.69,-4.17 24.969,-10.77c5.448,19.545 23.093,33.977 44.31,33.977c25.51,0 46.186,-20.778 46.186,-46.414c0,-25.637 -20.676,-46.415 -46.186,-46.415c-18.186,0 -33.774,10.661 -41.315,26.036c-6.279,-8.703 -16.418,-14.432 -27.964,-14.432c0,12.111 6.17,22.772 15.551,29.009c-9.381,6.237 -15.551,16.898 -15.551,29.009Zm51.959,-34.811l34.639,0c6.387,0 11.547,5.185 11.547,11.604l-57.733,0c0,-6.419 5.16,-11.604 11.547,-11.604Z" style="fill:#fff;fill-opacity:0.9;fill-rule:nonzero;"/></g><g id="Individuals"><g transform="matrix(0.972288,0.233786,-0.233786,0.972288,1215.81,-816.605)"><g transform="matrix(0.774032,-0.633146,0.633146,0.774032,-618.743,489.053)"><rect x="379.9" y="1065.3" width="9.563" height="46.063" style="fill:#87338b;fill-rule:nonzero;"/></g><g transform="matrix(0.84272,-0.538352,0.538352,0.84272,-529.598,383.202)"><path d="M395.749,1051.92l10.094,0l18.344,32.156l0,-32.156l8.968,0l0,46.062l-9.625,0l-18.812,-32.719l0,32.719l-8.969,0l0,-46.062Z" style="fill:#87338b;fill-rule:nonzero;"/></g><g transform="matrix(0.920822,-0.389984,0.389984,0.920822,-383.518,253.713)"><path d="M447.277,1033.28l0,30.062l8.875,0c4.542,0 7.709,-2.24 9.5,-6.719c0.98,-2.458 1.469,-5.385 1.469,-8.781c0,-4.687 -0.734,-8.286 -2.203,-10.797c-1.469,-2.51 -4.391,-3.765 -8.766,-3.765l-8.875,0Zm10.5,-8c2.855,0.041 5.23,0.375 7.125,1c3.23,1.062 5.844,3.01 7.844,5.843c1.604,2.292 2.698,4.771 3.281,7.438c0.584,2.666 0.875,5.208 0.875,7.625c0,6.125 -1.229,11.312 -3.687,15.562c-3.333,5.729 -8.479,8.594 -15.438,8.594l-19.843,0l0,-46.062l19.843,0Z" style="fill:#87338b;fill-rule:nonzero;"/></g><g transform="matrix(0.957558,-0.288241,0.288241,0.957558,-283.286,182.485)"><rect x="482.148" y="1007.14" width="9.563" height="46.063" style="fill:#87338b;fill-rule:nonzero;"/></g><g transform="matrix(0.982656,-0.185439,0.185439,0.982656,-185.519,110.316)"><path d="M528.815,1000.85l10,0l-15.719,46.063l-9.094,0l-15.562,-46.063l10.281,0l10,34.969l10.094,-34.969Z" style="fill:#87338b;fill-rule:nonzero;"/></g><g transform="matrix(0.996494,-0.0836664,0.0836664,0.996494,-85.059,48.9203)"><rect x="545.277" y="993.261" width="9.563" height="46.063" style="fill:#87338b;fill-rule:nonzero;"/></g><g transform="matrix(0.99961,0.0279364,-0.0279364,0.99961,29.1866,-15.2705)"><path d="M575.323,998.851l0,30.062l8.875,0c4.542,0 7.709,-2.239 9.5,-6.718c0.98,-2.459 1.469,-5.386 1.469,-8.782c0,-4.687 -0.734,-8.286 -2.203,-10.796c-1.469,-2.511 -4.391,-3.766 -8.766,-3.766l-8.875,0Zm10.5,-8c2.855,0.042 5.23,0.375 7.125,1c3.23,1.062 5.844,3.01 7.844,5.844c1.604,2.291 2.698,4.771 3.281,7.437c0.584,2.667 0.875,5.209 0.875,7.625c0,6.125 -1.229,11.313 -3.687,15.563c-3.333,5.729 -8.479,8.593 -15.438,8.593l-19.843,0l0,-46.062l19.843,0Z" style="fill:#87338b;fill-rule:nonzero;"/></g><g transform="matrix(0.983402,0.181438,-0.181438,0.983402,198.544,-93.5518)"><path d="M615.48,992.357l9.782,0l0,28.312c0,3.167 0.375,5.479 1.125,6.938c1.166,2.583 3.708,3.875 7.625,3.875c3.895,0 6.427,-1.292 7.593,-3.875c0.75,-1.459 1.125,-3.771 1.125,-6.938l0,-28.312l9.782,0l0,28.312c0,4.896 -0.761,8.709 -2.282,11.438c-2.833,5 -8.239,7.5 -16.218,7.5c-7.98,0 -13.396,-2.5 -16.25,-7.5c-1.521,-2.729 -2.282,-6.542 -2.282,-11.438l0,-28.312Z" style="fill:#87338b;fill-rule:nonzero;"/></g><g transform="matrix(0.941599,0.336735,-0.336735,0.941599,391.276,-160.836)"><path d="M676.792,1030.22l11.687,0l-5.75,-18.125l-5.937,18.125Zm0.594,-28.656l10.875,0l16.312,46.063l-10.437,0l-2.969,-9.469l-16.969,0l-3.187,9.469l-10.063,0l16.438,-46.063Z" style="fill:#87338b;fill-rule:nonzero;"/></g><g transform="matrix(0.878241,0.478219,-0.478219,0.878241,595.061,-207.885)"><path d="M710.649,1018.57l9.625,0l0,37.781l22.812,0l0,8.282l-32.437,0l0,-46.063Z" style="fill:#87338b;fill-rule:nonzero;"/></g><g transform="matrix(0.801672,0.597765,-0.597765,0.801672,795.695,-228.848)"><path d="M754.567,1070.48c0.292,2.104 0.865,3.677 1.719,4.718c1.563,1.896 4.24,2.844 8.031,2.844c2.271,0 4.115,-0.25 5.532,-0.75c2.687,-0.958 4.031,-2.739 4.031,-5.344c0,-1.52 -0.667,-2.698 -2,-3.531c-1.333,-0.812 -3.427,-1.531 -6.281,-2.156l-4.875,-1.094c-4.792,-1.083 -8.104,-2.26 -9.938,-3.531c-3.104,-2.125 -4.656,-5.448 -4.656,-9.969c0,-4.125 1.5,-7.552 4.5,-10.281c3,-2.729 7.406,-4.094 13.219,-4.094c4.854,0 8.994,1.287 12.422,3.859c3.427,2.573 5.224,6.308 5.39,11.204l-9.25,0c-0.166,-2.771 -1.375,-4.74 -3.625,-5.907c-1.5,-0.77 -3.364,-1.156 -5.594,-1.156c-2.479,0 -4.458,0.5 -5.937,1.5c-1.479,1 -2.219,2.396 -2.219,4.188c0,1.645 0.729,2.875 2.188,3.687c0.937,0.542 2.937,1.177 6,1.906l7.937,1.907c3.479,0.833 6.104,1.948 7.875,3.343c2.75,2.167 4.125,5.302 4.125,9.407c0,4.208 -1.609,7.703 -4.828,10.484c-3.219,2.781 -7.766,4.172 -13.641,4.172c-6,0 -10.718,-1.37 -14.156,-4.11c-3.437,-2.739 -5.156,-6.505 -5.156,-11.296l9.187,0Z" style="fill:#87338b;fill-rule:nonzero;"/></g></g><circle cx="1467.57" cy="608.316" r="238.672" style="fill:#ca9acc;stroke:#87338b;stroke-width:60px;"/><path d="M1390.38,595.038c12.166,0 22.057,-9.891 22.057,-22.057c0,-12.166 -9.891,-22.057 -22.057,-22.057c-12.166,0 -22.057,9.891 -22.057,22.057c0,12.166 9.891,22.057 22.057,22.057Zm154.398,0c12.166,0 22.057,-9.891 22.057,-22.057c0,-12.166 -9.891,-22.057 -22.057,-22.057c-12.166,0 -22.057,9.891 -22.057,22.057c0,12.166 9.891,22.057 22.057,22.057Zm11.028,11.028l-22.056,0c-6.066,0 -11.546,2.447 -15.544,6.411c13.889,7.616 23.746,21.367 25.883,37.703l22.746,0c6.1,0 11.028,-4.928 11.028,-11.028l0,-11.029c0,-12.166 -9.891,-22.057 -22.057,-22.057Zm-88.227,0c21.333,0 38.6,-17.266 38.6,-38.599c0,-21.333 -17.267,-38.6 -38.6,-38.6c-21.333,0 -38.599,17.267 -38.599,38.6c0,21.333 17.266,38.599 38.599,38.599Zm26.468,11.029l-2.86,0c-7.169,3.446 -15.13,5.514 -23.608,5.514c-8.478,0 -16.405,-2.068 -23.608,-5.514l-2.86,0c-21.919,0 -39.702,17.783 -39.702,39.702l0,9.926c0,9.133 7.409,16.542 16.542,16.542l99.256,0c9.133,0 16.543,-7.409 16.543,-16.542l0,-9.926c0,-21.919 -17.784,-39.702 -39.703,-39.702Zm-77.095,-4.618c-3.998,-3.964 -9.478,-6.411 -15.543,-6.411l-22.057,0c-12.166,0 -22.057,9.891 -22.057,22.057l0,11.029c0,6.1 4.928,11.028 11.028,11.028l22.712,0c2.171,-16.336 12.028,-30.087 25.917,-37.703Z" style="fill:#fff;fill-opacity:0.895635;fill-rule:nonzero;"/></g></g></svg>