<?xml version="1.0" encoding="UTF-8" standalone="no"?><!DOCTYPE svg PUBLIC "-//W3C//DTD SVG 1.1//EN" "http://www.w3.org/Graphics/SVG/1.1/DTD/svg11.dtd"><svg width="100%" height="100%" viewBox="0 0 557 600" version="1.1" xmlns="http://www.w3.org/2000/svg" xmlns:xlink="http://www.w3.org/1999/xlink" xml:space="preserve" xmlns:serif="http://www.serif.com/" style="fill-rule:evenodd;clip-rule:evenodd;stroke-linejoin:round;stroke-miterlimit:1.41421;"><g id="companies-icon"><ellipse id="_-Ellipse-" serif:id="(Ellipse)" cx="276.007" cy="262.62" rx="253.793" ry="254.145" style="fill:#b04fae;fill-opacity:0.592157;"/><path id="Center" d="M278.181,0.739c153.46,0 278.049,121.977 278.049,272.218c0,150.241 -124.589,272.218 -278.049,272.218c-153.459,0 -278.048,-121.977 -278.048,-272.218c0,-150.241 124.589,-272.218 278.048,-272.218Zm0,59.641c119.838,0 217.13,95.253 217.13,212.577c0,117.324 -97.292,212.577 -217.13,212.577c-119.837,0 -217.129,-95.253 -217.129,-212.577c0,-117.324 97.292,-212.577 217.129,-212.577Z" style="fill:#92278f;"/><g id="Text" transform="matrix(1,0,0,1,-1357.91,-446.758)"><g transform="matrix(0.897308,0.441406,-0.441406,0.897308,593.501,-544.889)"><text x="1467.81px" y="1003.09px" style="font-family:'Montserrat-Bold', 'Montserrat';font-weight:700;font-size:48px;fill:#92278f;">C</text></g><g transform="matrix(0.945854,0.324593,-0.324593,0.945854,412.818,-433.009)"><text x="1504.3px" y="1020.87px" style="font-family:'Montserrat-Bold', 'Montserrat';font-weight:700;font-size:48px;fill:#92278f;">O</text></g><g transform="matrix(0.983272,0.182146,-0.182146,0.983272,214.629,-264.907)"><text x="1549.52px" y="1036.03px" style="font-family:'Montserrat-Bold', 'Montserrat';font-weight:700;font-size:48px;fill:#92278f;">M</text></g><g transform="matrix(0.99904,0.0438104,-0.0438104,0.99904,47.3117,-69.1516)"><text x="1601.33px" y="1044.83px" style="font-family:'Montserrat-Bold', 'Montserrat';font-weight:700;font-size:48px;fill:#92278f;">P</text></g><g transform="matrix(0.997903,-0.0647209,0.0647209,0.997903,-64.2889,108.302)"><text x="1639.46px" y="1046.43px" style="font-family:'Montserrat-Bold', 'Montserrat';font-weight:700;font-size:48px;fill:#92278f;">A</text></g><g transform="matrix(0.981651,-0.190688,0.190688,0.981651,-168.084,339.928)"><text x="1682.25px" y="1043.34px" style="font-family:'Montserrat-Bold', 'Montserrat';font-weight:700;font-size:48px;fill:#92278f;">N</text></g><g transform="matrix(0.959695,-0.281043,0.281043,0.959695,-221.191,526.374)"><text x="1724.59px" y="1034.36px" style="font-family:'Montserrat-Bold', 'Montserrat';font-weight:700;font-size:48px;fill:#92278f;">I</text></g><g transform="matrix(0.932269,-0.361766,0.361766,0.932269,-254.144,700.516)"><text x="1743.73px" y="1028.98px" style="font-family:'Montserrat-Bold', 'Montserrat';font-weight:700;font-size:48px;fill:#92278f;">E</text></g><g transform="matrix(0.889227,-0.457466,0.457466,0.889227,-267.456,926)"><text x="1778.35px" y="1015.26px" style="font-family:'Montserrat-Bold', 'Montserrat';font-weight:700;font-size:48px;fill:#92278f;">S</text></g></g><g opacity="0.9"><path d="M323.159,201.858l-30.64,0c-2.853,0 -5.6,1.07 -7.705,2.997l-35.063,32.102c-0.035,0.036 -0.071,0.107 -0.107,0.143c-5.921,5.564 -5.814,14.446 -0.749,19.975c4.53,4.958 14.054,6.278 20.011,0.963c0.035,-0.036 0.107,-0.036 0.142,-0.071l28.501,-26.11c2.318,-2.105 5.956,-1.962 8.061,0.356c2.14,2.319 1.962,5.921 -0.357,8.062l-9.31,8.525l51.935,42.161c1.035,0.856 1.962,1.784 2.818,2.747l0,-69.021l-19.475,-19.476c-2.105,-2.14 -5.03,-3.353 -8.062,-3.353Zm38.987,22.9l0,79.865c0,6.313 5.101,11.414 11.415,11.414l22.828,0l0,-91.279l-34.243,0Zm17.122,79.865c-3.139,0 -5.707,-2.569 -5.707,-5.708c0,-3.138 2.568,-5.707 5.707,-5.707c3.139,0 5.707,2.569 5.707,5.707c0,3.139 -2.568,5.708 -5.707,5.708Zm-211.165,11.378l22.829,0c6.313,0 11.414,-5.101 11.414,-11.414l0,-79.829l-34.243,0l0,91.243Zm17.122,-22.793c3.139,0 5.707,2.569 5.707,5.707c0,3.139 -2.568,5.708 -5.707,5.708c-3.139,0 -5.707,-2.569 -5.707,-5.708c0,-3.174 2.568,-5.707 5.707,-5.707Zm155.484,6.635l-53.255,-43.232l-10.701,9.809c-10.594,9.667 -26.823,8.739 -36.276,-1.569c-9.595,-10.487 -8.846,-26.717 1.57,-36.276l29.177,-26.717l-29.891,0c-3.032,0 -5.921,1.213 -8.061,3.353l-19.511,19.476l0,79.864l6.527,0l32.281,29.214c9.774,7.954 24.148,6.456 32.103,-3.318l0.071,-0.071l6.385,5.529c5.671,4.637 14.054,3.745 18.655,-1.926l11.201,-13.769l1.926,1.57c4.886,3.959 12.092,3.246 16.051,-1.677l3.389,-4.173c3.995,-4.923 3.246,-12.092 -1.641,-16.087Z" style="fill:#fff;fill-rule:nonzero;"/></g></g></svg>