<?xml version="1.0" encoding="UTF-8" standalone="no"?><!DOCTYPE svg PUBLIC "-//W3C//DTD SVG 1.1//EN" "http://www.w3.org/Graphics/SVG/1.1/DTD/svg11.dtd"><svg width="100%" height="100%" viewBox="0 0 1906 1841" version="1.1" xmlns="http://www.w3.org/2000/svg" xmlns:xlink="http://www.w3.org/1999/xlink" xml:space="preserve" xmlns:serif="http://www.serif.com/" style="fill-rule:evenodd;clip-rule:evenodd;stroke-linejoin:round;stroke-miterlimit:1.41421;"><rect id="badrap-connects" x="0" y="0" width="1905.25" height="1840.35" style="fill:none;"/><g id="Ecosystem"><g><ellipse cx="783.334" cy="1436.23" rx="0.273" ry="3.448" style="fill:#92278f;"/><path d="M785.511,727.626l-228.53,-217.066l-25.021,26.341l228.531,217.067l25.02,-26.342Z" style="fill:#92278f;"/><path d="M1289.51,740.059l-114.503,49.867l14.406,33.077l114.502,-49.867l-14.405,-33.077Z" style="fill:#92278f;"/><path d="M828.424,1112.75l-54.526,112.188l32.408,15.751l54.526,-112.187l-32.408,-15.752Z" style="fill:#92278f;"/></g><g id="Center"><ellipse id="_-Ellipse-" serif:id="(Ellipse)" cx="944.632" cy="893.864" rx="253.793" ry="254.145" style="fill:#b04fae;fill-opacity:0.592157;"/><path id="Center1" serif:id="Center" d="M946.806,631.983c153.459,0 278.049,121.977 278.049,272.218c0,150.241 -124.59,272.218 -278.049,272.218c-153.459,0 -278.048,-121.977 -278.048,-272.218c0,-150.241 124.589,-272.218 278.048,-272.218Zm0,59.641c119.837,0 217.13,95.253 217.13,212.577c0,117.324 -97.293,212.577 -217.13,212.577c-119.837,0 -217.129,-95.253 -217.129,-212.577c0,-117.324 97.292,-212.577 217.129,-212.577Z" style="fill:#92278f;"/><g id="Text" transform="matrix(1,0,0,1,-677.364,186.141)"><g transform="matrix(0.948618,-0.316425,0.316425,0.948618,-65.5623,502.156)"><text x="1513.42px" y="452.952px" style="font-family:'Montserrat-Bold', 'Montserrat';font-weight:700;font-size:48px;fill:#92278f;">B</text></g><g transform="matrix(0.981164,-0.193177,0.193177,0.981164,-55.9449,307.759)"><text x="1550.17px" y="440.756px" style="font-family:'Montserrat-Bold', 'Montserrat';font-weight:700;font-size:48px;fill:#92278f;">A</text></g><g transform="matrix(0.998452,-0.0556131,0.0556131,0.998452,-21.6337,89.0096)"><text x="1588.46px" y="433.207px" style="font-family:'Montserrat-Bold', 'Montserrat';font-weight:700;font-size:48px;fill:#92278f;">D</text></g><g transform="matrix(0.997145,0.0755153,-0.0755153,0.997145,37.2029,-121.872)"><text x="1630.17px" y="431.015px" style="font-family:'Montserrat-Bold', 'Montserrat';font-weight:700;font-size:48px;fill:#92278f;">R</text></g><g transform="matrix(0.980339,0.19732,-0.19732,0.980339,118.379,-320.452)"><text x="1667.25px" y="433.813px" style="font-family:'Montserrat-Bold', 'Montserrat';font-weight:700;font-size:48px;fill:#92278f;">A</text></g><g transform="matrix(0.94582,0.324692,-0.324692,0.94582,235.787,-529.795)"><text x="1705.38px" y="441.617px" style="font-family:'Montserrat-Bold', 'Montserrat';font-weight:700;font-size:48px;fill:#92278f;">P</text></g></g></g><g id="companies-icon"><g opacity="0.5"><ellipse id="_-Ellipse-1" serif:id="(Ellipse)" cx="682.007" cy="1469.62" rx="253.793" ry="254.145" style="fill:#b04fae;fill-opacity:0.592157;"/><path id="Center2" serif:id="Center" d="M684.181,1207.74c153.46,0 278.049,121.977 278.049,272.218c0,150.241 -124.589,272.218 -278.049,272.218c-153.459,0 -278.048,-121.977 -278.048,-272.218c0,-150.241 124.589,-272.218 278.048,-272.218Zm0,59.641c119.838,0 217.13,95.253 217.13,212.577c0,117.324 -97.292,212.577 -217.13,212.577c-119.837,0 -217.129,-95.253 -217.129,-212.577c0,-117.324 97.292,-212.577 217.129,-212.577Z" style="fill:#92278f;"/><g id="Text1" serif:id="Text" transform="matrix(1,0,0,1,-951.906,760.242)"><g transform="matrix(0.897308,0.441406,-0.441406,0.897308,593.501,-544.889)"><text x="1467.81px" y="1003.09px" style="font-family:'Montserrat-Bold', 'Montserrat';font-weight:700;font-size:48px;fill:#92278f;">C</text></g><g transform="matrix(0.945854,0.324593,-0.324593,0.945854,412.818,-433.009)"><text x="1504.3px" y="1020.87px" style="font-family:'Montserrat-Bold', 'Montserrat';font-weight:700;font-size:48px;fill:#92278f;">O</text></g><g transform="matrix(0.983272,0.182146,-0.182146,0.983272,214.629,-264.907)"><text x="1549.52px" y="1036.03px" style="font-family:'Montserrat-Bold', 'Montserrat';font-weight:700;font-size:48px;fill:#92278f;">M</text></g><g transform="matrix(0.99904,0.0438104,-0.0438104,0.99904,47.3117,-69.1516)"><text x="1601.33px" y="1044.83px" style="font-family:'Montserrat-Bold', 'Montserrat';font-weight:700;font-size:48px;fill:#92278f;">P</text></g><g transform="matrix(0.997903,-0.0647209,0.0647209,0.997903,-64.2889,108.302)"><text x="1639.46px" y="1046.43px" style="font-family:'Montserrat-Bold', 'Montserrat';font-weight:700;font-size:48px;fill:#92278f;">A</text></g><g transform="matrix(0.981651,-0.190688,0.190688,0.981651,-168.084,339.928)"><text x="1682.25px" y="1043.34px" style="font-family:'Montserrat-Bold', 'Montserrat';font-weight:700;font-size:48px;fill:#92278f;">N</text></g><g transform="matrix(0.959695,-0.281043,0.281043,0.959695,-221.191,526.374)"><text x="1724.59px" y="1034.36px" style="font-family:'Montserrat-Bold', 'Montserrat';font-weight:700;font-size:48px;fill:#92278f;">I</text></g><g transform="matrix(0.932269,-0.361766,0.361766,0.932269,-254.144,700.516)"><text x="1743.73px" y="1028.98px" style="font-family:'Montserrat-Bold', 'Montserrat';font-weight:700;font-size:48px;fill:#92278f;">E</text></g><g transform="matrix(0.889227,-0.457466,0.457466,0.889227,-267.456,926)"><text x="1778.35px" y="1015.26px" style="font-family:'Montserrat-Bold', 'Montserrat';font-weight:700;font-size:48px;fill:#92278f;">S</text></g></g><g opacity="0.9"><path d="M729.159,1408.86l-30.64,0c-2.853,0 -5.6,1.07 -7.705,2.997l-35.063,32.102c-0.035,0.036 -0.071,0.107 -0.107,0.143c-5.921,5.564 -5.814,14.446 -0.749,19.975c4.53,4.958 14.054,6.278 20.011,0.963c0.035,-0.036 0.107,-0.036 0.142,-0.071l28.501,-26.11c2.318,-2.105 5.956,-1.962 8.061,0.356c2.14,2.319 1.962,5.921 -0.357,8.062l-9.31,8.525l51.935,42.161c1.035,0.856 1.962,1.784 2.818,2.747l0,-69.021l-19.475,-19.476c-2.105,-2.14 -5.03,-3.353 -8.062,-3.353Zm38.987,22.9l0,79.865c0,6.313 5.101,11.414 11.415,11.414l22.828,0l0,-91.279l-34.243,0Zm17.122,79.865c-3.139,0 -5.707,-2.569 -5.707,-5.708c0,-3.138 2.568,-5.707 5.707,-5.707c3.139,0 5.707,2.569 5.707,5.707c0,3.139 -2.568,5.708 -5.707,5.708Zm-211.165,11.378l22.829,0c6.313,0 11.414,-5.101 11.414,-11.414l0,-79.829l-34.243,0l0,91.243Zm17.122,-22.793c3.139,0 5.707,2.569 5.707,5.707c0,3.139 -2.568,5.708 -5.707,5.708c-3.139,0 -5.707,-2.569 -5.707,-5.708c0,-3.174 2.568,-5.707 5.707,-5.707Zm155.484,6.635l-53.255,-43.232l-10.701,9.809c-10.594,9.667 -26.823,8.739 -36.276,-1.569c-9.595,-10.487 -8.846,-26.717 1.57,-36.276l29.177,-26.717l-29.891,0c-3.032,0 -5.921,1.213 -8.061,3.353l-19.511,19.476l0,79.864l6.527,0l32.281,29.214c9.774,7.954 24.148,6.456 32.103,-3.318l0.071,-0.071l6.385,5.529c5.671,4.637 14.054,3.745 18.655,-1.926l11.201,-13.769l1.926,1.57c4.886,3.959 12.092,3.246 16.051,-1.677l3.389,-4.173c3.995,-4.923 3.246,-12.092 -1.641,-16.087Z" style="fill:#fff;fill-rule:nonzero;"/></g></g></g><g id="researchers-icon"><g id="researcher-rect"><ellipse id="_-Ellipse-2" serif:id="(Ellipse)" cx="380.077" cy="359.065" rx="253.793" ry="254.145" style="fill:#b04fae;fill-opacity:0.592157;"/><path id="Center3" serif:id="Center" d="M382.251,97.184c153.459,0 278.049,121.977 278.049,272.218c0,150.241 -124.59,272.218 -278.049,272.218c-153.459,0 -278.049,-121.977 -278.049,-272.218c0,-150.241 124.59,-272.218 278.049,-272.218Zm0,59.641c119.837,0 217.13,95.253 217.13,212.577c0,117.324 -97.293,212.576 -217.13,212.576c-119.837,0 -217.13,-95.252 -217.13,-212.576c0,-117.324 97.293,-212.577 217.13,-212.577Z" style="fill:#92278f;"/><g opacity="0.9"><path d="M422.846,381.182l-36.588,36.769l-36.588,-36.769c-24.753,2.212 -44.238,22.844 -44.238,48.3l0,15.085c0,9.609 7.758,17.405 17.32,17.405l127.011,0c9.562,0 17.32,-7.796 17.32,-17.405l0,-15.085c0,-25.456 -19.485,-46.088 -44.237,-48.3Zm-105.867,-35.246c9.85,0 18.69,-4.171 24.969,-10.77c5.448,19.545 23.093,33.977 44.31,33.977c25.51,0 46.186,-20.778 46.186,-46.415c0,-25.637 -20.676,-46.414 -46.186,-46.414c-18.186,0 -33.774,10.66 -41.315,26.035c-6.279,-8.702 -16.418,-14.432 -27.964,-14.432c0,12.112 6.17,22.772 15.551,29.009c-9.381,6.237 -15.551,16.898 -15.551,29.01Zm51.959,-34.811l34.639,0c6.387,0 11.547,5.185 11.547,11.603l-57.733,0c0,-6.418 5.16,-11.603 11.547,-11.603Z" style="fill:#fff;fill-rule:nonzero;"/></g></g><g id="Text2" serif:id="Text" transform="matrix(1,0,0,1,-1243.67,-350.313)"><g transform="matrix(0.923367,-0.383918,0.383918,0.923367,-60.1344,611.02)"><text x="1500.49px" y="456.142px" style="font-family:'Montserrat-Bold', 'Montserrat';font-weight:700;font-size:48px;fill:#92278f;">S</text></g><g transform="matrix(0.961019,-0.276484,0.276484,0.961019,-62.9559,440.554)"><text x="1530.88px" y="443.541px" style="font-family:'Montserrat-Bold', 'Montserrat';font-weight:700;font-size:48px;fill:#92278f;">E</text></g><g transform="matrix(0.986628,-0.162988,0.162988,0.986628,-49.8182,260.726)"><text x="1564.06px" y="433.975px" style="font-family:'Montserrat-Bold', 'Montserrat';font-weight:700;font-size:48px;fill:#92278f;">C</text></g><g transform="matrix(0.999248,-0.0387774,0.0387774,0.999248,-15.3895,62.4039)"><text x="1600.99px" y="427.92px" style="font-family:'Montserrat-Bold', 'Montserrat';font-weight:700;font-size:48px;fill:#92278f;">U</text></g><g transform="matrix(0.995808,0.0914723,-0.0914723,0.995808,45.8967,-148.362)"><text x="1641.48px" y="426.522px" style="font-family:'Montserrat-Bold', 'Montserrat';font-weight:700;font-size:48px;fill:#92278f;">R</text></g><g transform="matrix(0.984457,0.175626,-0.175626,0.984457,101.664,-288.059)"><text x="1678.27px" y="430.337px" style="font-family:'Montserrat-Bold', 'Montserrat';font-weight:700;font-size:48px;fill:#92278f;">I</text></g><g transform="matrix(0.967247,0.253839,-0.253839,0.967247,165.492,-416.185)"><text x="1695.46px" y="433.188px" style="font-family:'Montserrat-Bold', 'Montserrat';font-weight:700;font-size:48px;fill:#92278f;">T</text></g><g transform="matrix(0.934489,0.355992,-0.355992,0.934489,270.076,-585.406)"><text x="1725.61px" y="441.105px" style="font-family:'Montserrat-Bold', 'Montserrat';font-weight:700;font-size:48px;fill:#92278f;">Y</text></g><g transform="matrix(0.820328,0.571894,-0.571894,0.820328,819.299,-638.686)"><text x="1426.11px" y="984.564px" style="font-family:'Montserrat-Bold', 'Montserrat';font-weight:700;font-size:48px;fill:#92278f;">R</text></g><g transform="matrix(0.88177,0.471679,-0.471679,0.88177,647.929,-569.448)"><text x="1459.88px" y="1007.74px" style="font-family:'Montserrat-Bold', 'Montserrat';font-weight:700;font-size:48px;fill:#92278f;">E</text></g><g transform="matrix(0.92733,0.374245,-0.374245,0.92733,492.139,-484.233)"><text x="1492.95px" y="1025.12px" style="font-family:'Montserrat-Bold', 'Montserrat';font-weight:700;font-size:48px;fill:#92278f;">S</text></g><g transform="matrix(0.963941,0.266114,-0.266114,0.963941,331.393,-368.799)"><text x="1526.58px" y="1038.45px" style="font-family:'Montserrat-Bold', 'Montserrat';font-weight:700;font-size:48px;fill:#92278f;">E</text></g><g transform="matrix(0.98858,0.150694,-0.150694,0.98858,175.834,-223.576)"><text x="1563.09px" y="1048.38px" style="font-family:'Montserrat-Bold', 'Montserrat';font-weight:700;font-size:48px;fill:#92278f;">A</text></g><g transform="matrix(0.999764,0.0217464,-0.0217464,0.999764,23.3111,-34.669)"><text x="1605.71px" y="1054.49px" style="font-family:'Montserrat-Bold', 'Montserrat';font-weight:700;font-size:48px;fill:#92278f;">R</text></g><g transform="matrix(0.99533,-0.0965285,0.0965285,0.99533,-94.1612,163.88)"><text x="1646.69px" y="1055.14px" style="font-family:'Montserrat-Bold', 'Montserrat';font-weight:700;font-size:48px;fill:#92278f;">C</text></g><g transform="matrix(0.974711,-0.223471,0.223471,0.974711,-192.155,403.772)"><text x="1687.9px" y="1050.88px" style="font-family:'Montserrat-Bold', 'Montserrat';font-weight:700;font-size:48px;fill:#92278f;">H</text></g><g transform="matrix(0.938105,-0.346352,0.346352,0.938105,-253.135,664.121)"><text x="1731.57px" y="1040.3px" style="font-family:'Montserrat-Bold', 'Montserrat';font-weight:700;font-size:48px;fill:#92278f;">E</text></g><g transform="matrix(0.889637,-0.456669,0.456669,0.889637,-273.946,920.399)"><text x="1767.27px" y="1026.97px" style="font-family:'Montserrat-Bold', 'Montserrat';font-weight:700;font-size:48px;fill:#92278f;">R</text></g><g transform="matrix(0.833243,-0.552907,0.552907,0.833243,-256.688,1165.13)"><text x="1803.24px" y="1008.11px" style="font-family:'Montserrat-Bold', 'Montserrat';font-weight:700;font-size:48px;fill:#92278f;">S</text></g></g></g><g id="individuals-icon"><g id="individuals-icon1" serif:id="individuals-icon"><ellipse id="_-Ellipse-3" serif:id="(Ellipse)" cx="1528.71" cy="666.062" rx="253.793" ry="254.145" style="fill:#b04fae;fill-opacity:0.592157;"/><path id="Center4" serif:id="Center" d="M1530.89,404.18c153.459,0 278.049,121.977 278.049,272.218c0,150.242 -124.59,272.219 -278.049,272.219c-153.459,0 -278.049,-121.977 -278.049,-272.219c0,-150.241 124.59,-272.218 278.049,-272.218Zm0,59.642c119.837,0 217.13,95.252 217.13,212.576c0,117.325 -97.293,212.577 -217.13,212.577c-119.837,0 -217.13,-95.252 -217.13,-212.577c0,-117.324 97.293,-212.576 217.13,-212.576Z" style="fill:#92278f;"/><g opacity="0.895635"><path d="M1462.65,660.194c12.166,0 22.057,-9.891 22.057,-22.057c0,-12.166 -9.891,-22.057 -22.057,-22.057c-12.166,0 -22.057,9.891 -22.057,22.057c0,12.166 9.891,22.057 22.057,22.057Zm154.398,0c12.166,0 22.057,-9.891 22.057,-22.057c0,-12.166 -9.891,-22.057 -22.057,-22.057c-12.166,0 -22.057,9.891 -22.057,22.057c0,12.166 9.891,22.057 22.057,22.057Zm11.028,11.028l-22.056,0c-6.066,0 -11.546,2.447 -15.544,6.411c13.889,7.616 23.746,21.367 25.883,37.703l22.746,0c6.1,0 11.028,-4.928 11.028,-11.028l0,-11.029c0,-12.166 -9.891,-22.057 -22.057,-22.057Zm-88.227,0c21.333,0 38.6,-17.266 38.6,-38.599c0,-21.333 -17.267,-38.6 -38.6,-38.6c-21.333,0 -38.599,17.267 -38.599,38.6c0,21.333 17.266,38.599 38.599,38.599Zm26.468,11.029l-2.86,0c-7.169,3.446 -15.13,5.514 -23.608,5.514c-8.478,0 -16.405,-2.068 -23.608,-5.514l-2.86,0c-21.919,0 -39.702,17.783 -39.702,39.702l0,9.926c0,9.133 7.409,16.542 16.542,16.542l99.256,0c9.133,0 16.543,-7.409 16.543,-16.542l0,-9.926c0,-21.919 -17.784,-39.702 -39.703,-39.702Zm-77.095,-4.618c-3.998,-3.964 -9.478,-6.411 -15.543,-6.411l-22.057,0c-12.166,0 -22.057,9.891 -22.057,22.057l0,11.029c0,6.1 4.928,11.028 11.028,11.028l22.712,0c2.171,-16.336 12.028,-30.087 25.917,-37.703Z" style="fill:#fff;fill-rule:nonzero;"/></g></g><g id="Text3" serif:id="Text" transform="matrix(1,0,0,1,-93.2828,-41.6621)"><g transform="matrix(0.855776,-0.517346,0.517346,0.855776,-34.2883,825.543)"><text x="1463.51px" y="474.269px" style="font-family:'Montserrat-Bold', 'Montserrat';font-weight:700;font-size:48px;fill:#92278f;">I</text></g><g transform="matrix(0.902122,-0.431481,0.431481,0.902122,-55.8066,683.398)"><text x="1478.43px" y="464.707px" style="font-family:'Montserrat-Bold', 'Montserrat';font-weight:700;font-size:48px;fill:#92278f;">N</text></g><g transform="matrix(0.954798,-0.297257,0.297257,0.954798,-64.2757,470.882)"><text x="1516.15px" y="446.784px" style="font-family:'Montserrat-Bold', 'Montserrat';font-weight:700;font-size:48px;fill:#92278f;">D</text></g><g transform="matrix(0.978717,-0.205216,0.205216,0.978717,-56.1548,328.576)"><text x="1556.01px" y="435.014px" style="font-family:'Montserrat-Bold', 'Montserrat';font-weight:700;font-size:48px;fill:#92278f;">I</text></g><g transform="matrix(0.993302,-0.115549,0.115549,0.993302,-39.2731,184.644)"><text x="1572.99px" y="431.068px" style="font-family:'Montserrat-Bold', 'Montserrat';font-weight:700;font-size:48px;fill:#92278f;">V</text></g><g transform="matrix(0.99961,-0.0279235,0.0279235,0.99961,-11.3038,45.1142)"><text x="1609.67px" y="427.293px" style="font-family:'Montserrat-Bold', 'Montserrat';font-weight:700;font-size:48px;fill:#92278f;">I</text></g><g transform="matrix(0.997402,0.0720404,-0.0720404,0.997402,34.9354,-116.134)"><text x="1627.44px" y="426.245px" style="font-family:'Montserrat-Bold', 'Montserrat';font-weight:700;font-size:48px;fill:#92278f;">D</text></g><g transform="matrix(0.978952,0.204089,-0.204089,0.978952,122.794,-331.734)"><text x="1669.73px" y="429.468px" style="font-family:'Montserrat-Bold', 'Montserrat';font-weight:700;font-size:48px;fill:#92278f;">U</text></g><g transform="matrix(0.943958,0.330067,-0.330067,0.943958,240.243,-539.439)"><text x="1708.66px" y="437.747px" style="font-family:'Montserrat-Bold', 'Montserrat';font-weight:700;font-size:48px;fill:#92278f;">A</text></g><g transform="matrix(0.895796,0.444464,-0.444464,0.895796,382.352,-728.89)"><text x="1745.66px" y="450.988px" style="font-family:'Montserrat-Bold', 'Montserrat';font-weight:700;font-size:48px;fill:#92278f;">L</text></g><g transform="matrix(0.846981,0.531624,-0.531624,0.846981,518.394,-871.648)"><text x="1773.35px" y="464.686px" style="font-family:'Montserrat-Bold', 'Montserrat';font-weight:700;font-size:48px;fill:#92278f;">S</text></g></g></g><g opacity="0.9"><clipPath id="_clip1"><rect x="849.203" y="821.778" width="190.17" height="190.17"/></clipPath><g clip-path="url(#_clip1)"><path d="M1020.91,845.03c-20.354,-17.346 -50.626,-14.226 -69.308,5.051l-7.317,7.54l-7.317,-7.54c-18.646,-19.277 -48.954,-22.397 -69.308,-5.051c-23.326,19.908 -24.552,55.639 -3.677,77.219l71.87,74.211c4.643,4.791 12.183,4.791 16.826,0l71.871,-74.211c20.911,-21.58 19.685,-57.311 -3.64,-77.219Z" style="fill:#fff;fill-rule:nonzero;"/></g></g></g></svg>