<svg id="Layer_1" data-name="Layer 1" xmlns="http://www.w3.org/2000/svg" viewBox="0 0 270 124"><defs><style>.cls-1{fill:#eb5658;}.cls-2{fill:#3e3e3d;}.cls-3{fill:#fff;}</style></defs><title>gdpr72</title><path class="cls-1" d="M220.76,33.81a2.51,2.51,0,0,0,.31-1.19V28.31h2.55a2.56,2.56,0,0,0,2.55-2.55v-5a2.56,2.56,0,0,0-2.55-2.55H210.16a2.56,2.56,0,0,0-2.55,2.55v5a2.56,2.56,0,0,0,2.55,2.55h2.55v4.31a2.51,2.51,0,0,0,.31,1.19,35.92,35.92,0,0,0-19.1,8.07,2.49,2.49,0,0,0-.24-.33l-1.91-2.16.82-.72a2.56,2.56,0,0,0,.22-3.6l-3-3.36a2.56,2.56,0,0,0-3.6-.22l-5.72,5a2.56,2.56,0,0,0-.22,3.6l3,3.36a2.56,2.56,0,0,0,3.6.22l1.11-1,1.91,2.16a2.5,2.5,0,0,0,.45.39,36.06,36.06,0,1,0,30.43-11.48Zm18.76,55.63-2.38-2.38-2,2,2.42,2.42A30,30,0,0,1,219,99.67V93.09h-3.86v6.6a30,30,0,0,1-18.75-8.06l2.57-2.57-2-2-2.54,2.54a29.94,29.94,0,0,1-7.56-19h6.36V66.7H187a30,30,0,0,1,7.48-17l2.49,2.49,2-2-2.51-2.51a30,30,0,0,1,18.69-8v7.05H219v-7a30,30,0,0,1,18.51,8.11l-2.35,2.35,2,2,2.32-2.32a30,30,0,0,1,7.35,16.87h-6.56v3.86h6.68A29.93,29.93,0,0,1,239.52,89.44Z"/><polygon class="cls-1" points="218.28 56.13 199.21 56.13 197.86 62.63 207.3 62.63 195.21 81.66 204.09 81.66 217.29 60.93 218.28 56.13"/><path class="cls-1" d="M235.58,57.5a9.16,9.16,0,0,0-6-1.76,29.29,29.29,0,0,0-4.78.4,21,21,0,0,0-4.22,1.11l-1.51,7.18A18,18,0,0,1,225.83,63q2.78,0,2.78,1.74a3.33,3.33,0,0,1-.08.59,4,4,0,0,1-1.21,2.12,47.22,47.22,0,0,1-3.71,3l-.67.52q-2.58,1.94-4.32,3.51a26.55,26.55,0,0,0-3.17,3.39l-.79,3.81H234l1.35-6.5h-7.77a12,12,0,0,1,1.63-1.47q1.07-.83,2.14-1.59l.75-.55a18.51,18.51,0,0,0,3.71-3.47A10.55,10.55,0,0,0,237.53,64a10.3,10.3,0,0,0,.2-1.82A5.78,5.78,0,0,0,235.58,57.5Z"/><path class="cls-2" d="M35.62,66.94,33.94,74.8h7l-.84,4a16.6,16.6,0,0,1-4.68.6q-3.9,0-5.55-1.08t-1.65-3.84a20.75,20.75,0,0,1,.48-3.9q1-4.86,4.08-7t8.34-2.16a28,28,0,0,1,10.92,1.8l2.34-11a35.27,35.27,0,0,0-11.82-1.74q-11.28,0-18.09,5.13t-8.91,15a25.53,25.53,0,0,0-.54,5q0,7.14,4.83,11t13.29,3.81a38.63,38.63,0,0,0,9.15-1,25,25,0,0,0,6.87-2.67l4.2-19.68Z"/><path class="cls-2" d="M95,66.17H81.85s0,.07,0,.11a22.48,22.48,0,0,1-.54,4.32,18.15,18.15,0,0,1-2,5.76,6.57,6.57,0,0,1-3,2.73,12.49,12.49,0,0,1-4.74.75H68.18L71.1,66.17H58.2l-5,23.51H71.66q9.66,0,15.27-4.56T94.46,70.6A28.93,28.93,0,0,0,95,66.17Z"/><path class="cls-2" d="M75.5,61.3a8.5,8.5,0,0,1,4.83,1.08,3.39,3.39,0,0,1,1.23,1.81H95c-.22-4.09-1.61-7.26-4.18-9.49Q86.54,51,79.22,51H61.4L58.62,64.18h12.9l.62-2.89Z"/><path class="cls-2" d="M121.31,66.17A5.94,5.94,0,0,1,119.74,69a5.17,5.17,0,0,1-3.63,1.14h-4.68l.84-4H99.35l-5,23.51h12.9l2-9.48h7.68q7.44,0,11.88-3.81a17.83,17.83,0,0,0,5.65-10.22Z"/><path class="cls-2" d="M113.35,61.06h4.92q3.36,0,3.36,2.94c0,.06,0,.13,0,.19h13.21a15.11,15.11,0,0,0,.12-1.81,11,11,0,0,0-3.18-8.19Q128.58,51,122.65,51h-20.1L99.77,64.18h12.92Z"/><path class="cls-2" d="M170,53.95Q167,51,161.5,51H140.62l-2.78,13.15h12.9l.67-3.13h5a4.16,4.16,0,0,1,2.55.6,2.24,2.24,0,0,1,.75,1.86c0,.21,0,.44,0,.67h13.15a16.8,16.8,0,0,0,.21-2.47A10.22,10.22,0,0,0,170,53.95Z"/><path class="cls-2" d="M158,68.17a5.45,5.45,0,0,1-3.54,1h-4.74l.64-3h-12.9l-5,23.51h12.9l2.22-10.56h1.86a2.26,2.26,0,0,1,1.41.36,2.09,2.09,0,0,1,.63,1.26l2.1,8.94H167l-2.34-10.32a5.2,5.2,0,0,0-1.38-2.64A17.53,17.53,0,0,0,169.48,72a15.16,15.16,0,0,0,3-5.84H159.28A4.5,4.5,0,0,1,158,68.17Z"/><path class="cls-3" d="M177.27,64.18h-4.41c0,.32-.08.63-.15,1s-.18.69-.27,1h4.82Z"/></svg>