<?xml version="1.0" encoding="UTF-8" standalone="no"?><!DOCTYPE svg PUBLIC "-//W3C//DTD SVG 1.1//EN" "http://www.w3.org/Graphics/SVG/1.1/DTD/svg11.dtd"><svg width="100%" height="100%" viewBox="0 0 2061 1826" version="1.1" xmlns="http://www.w3.org/2000/svg" xmlns:xlink="http://www.w3.org/1999/xlink" xml:space="preserve" xmlns:serif="http://www.serif.com/" style="fill-rule:evenodd;clip-rule:evenodd;stroke-linecap:round;stroke-linejoin:round;stroke-miterlimit:1.5;"><rect id="asset-monitoring" x="0" y="0" width="2060.27" height="1825.05" style="fill:none;"/><g id="Ecosystem"><g><ellipse cx="840.71" cy="1436.84" rx="0.273" ry="3.448" style="fill:#92278f;"/><path d="M842.887,728.233l-228.53,-217.066l-25.02,26.341l228.53,217.066l25.02,-26.341Z" style="fill:#92278f;"/><path d="M1346.89,740.666l-114.502,49.867l14.405,33.076l114.502,-49.867l-14.405,-33.076Z" style="fill:#92278f;"/><path d="M885.801,1113.36l-66.168,136.138l32.408,15.751l66.168,-136.138l-32.408,-15.751Z" style="fill:#92278f;"/></g><g id="Center"><ellipse id="_-Ellipse-" serif:id="(Ellipse)" cx="1002.01" cy="894.471" rx="253.793" ry="254.145" style="fill:#b04fae;fill-opacity:0.592157;"/><path id="Center1" serif:id="Center" d="M1004.18,632.59c153.46,0 278.049,121.976 278.049,272.218c0,150.241 -124.589,272.218 -278.049,272.218c-153.459,0 -278.048,-121.977 -278.048,-272.218c0,-150.242 124.589,-272.218 278.048,-272.218Zm0,59.641c119.837,0 217.13,95.253 217.13,212.577c0,117.324 -97.293,212.576 -217.13,212.576c-119.837,0 -217.129,-95.252 -217.129,-212.576c0,-117.324 97.292,-212.577 217.129,-212.577Z" style="fill:#92278f;"/></g><g id="Enterprises"><ellipse id="_-Ellipse-1" serif:id="(Ellipse)" cx="739.383" cy="1470.23" rx="253.793" ry="254.145" style="fill:#b04fae;fill-opacity:0.592157;"/><path id="Center2" serif:id="Center" d="M741.558,1208.35c153.459,0 278.048,121.977 278.048,272.219c0,150.241 -124.589,272.218 -278.048,272.218c-153.46,0 -278.049,-121.977 -278.049,-272.218c0,-150.242 124.589,-272.219 278.049,-272.219Zm0,59.642c119.837,0 217.129,95.252 217.129,212.577c0,117.324 -97.292,212.576 -217.129,212.576c-119.837,0 -217.13,-95.252 -217.13,-212.576c0,-117.325 97.293,-212.577 217.13,-212.577Z" style="fill:#92278f;"/><g opacity="0.9"><path d="M786.536,1409.46l-30.641,0c-2.853,0 -5.6,1.07 -7.704,2.996l-35.064,32.103c-0.035,0.036 -0.071,0.107 -0.107,0.143c-5.921,5.564 -5.814,14.446 -0.749,19.975c4.53,4.958 14.054,6.277 20.011,0.963c0.036,-0.036 0.107,-0.036 0.143,-0.072l28.5,-26.11c2.318,-2.104 5.957,-1.962 8.061,0.357c2.14,2.318 1.962,5.921 -0.357,8.061l-9.309,8.525l51.935,42.162c1.034,0.856 1.961,1.783 2.818,2.746l0,-69.02l-19.476,-19.476c-2.105,-2.14 -5.03,-3.353 -8.061,-3.353Zm38.986,22.9l0,79.864c0,6.314 5.101,11.415 11.415,11.415l22.828,0l0,-91.279l-34.243,0Zm17.122,79.864c-3.139,0 -5.707,-2.568 -5.707,-5.707c0,-3.139 2.568,-5.707 5.707,-5.707c3.139,0 5.707,2.568 5.707,5.707c0,3.139 -2.568,5.707 -5.707,5.707Zm-211.164,11.379l22.828,0c6.314,0 11.414,-5.101 11.414,-11.414l0,-79.829l-34.242,0l0,91.243Zm17.121,-22.793c3.139,0 5.707,2.568 5.707,5.707c0,3.139 -2.568,5.707 -5.707,5.707c-3.139,0 -5.707,-2.568 -5.707,-5.707c0,-3.174 2.568,-5.707 5.707,-5.707Zm155.484,6.635l-53.255,-43.232l-10.701,9.809c-10.594,9.667 -26.823,8.739 -36.276,-1.569c-9.595,-10.487 -8.846,-26.717 1.57,-36.276l29.178,-26.717l-29.892,0c-3.032,0 -5.921,1.213 -8.061,3.353l-19.511,19.476l0,79.864l6.527,0l32.281,29.213c9.774,7.955 24.149,6.457 32.103,-3.317l0.071,-0.071l6.385,5.529c5.672,4.637 14.054,3.745 18.655,-1.927l11.201,-13.768l1.926,1.569c4.887,3.96 12.092,3.246 16.051,-1.676l3.389,-4.173c3.995,-4.923 3.246,-12.092 -1.641,-16.087Z" style="fill:#fff;fill-rule:nonzero;"/></g></g><g id="Security-researchers" serif:id="Security researchers"><ellipse id="_-Ellipse-2" serif:id="(Ellipse)" cx="437.453" cy="359.672" rx="253.793" ry="254.145" style="fill:#b04fae;fill-opacity:0.592157;"/><path id="Center3" serif:id="Center" d="M439.627,97.79c153.459,0 278.049,121.977 278.049,272.219c0,150.241 -124.59,272.218 -278.049,272.218c-153.459,0 -278.048,-121.977 -278.048,-272.218c0,-150.242 124.589,-272.219 278.048,-272.219Zm0,59.642c119.837,0 217.13,95.252 217.13,212.577c0,117.324 -97.293,212.576 -217.13,212.576c-119.837,0 -217.129,-95.252 -217.129,-212.576c0,-117.325 97.292,-212.577 217.129,-212.577Z" style="fill:#92278f;"/><g opacity="0.9"><path d="M486.71,369.388l-36.588,36.769l-36.588,-36.769c-24.753,2.212 -44.238,22.844 -44.238,48.3l0,15.085c0,9.609 7.758,17.405 17.32,17.405l127.012,0c9.562,0 17.319,-7.796 17.319,-17.405l0,-15.085c0,-25.456 -19.484,-46.088 -44.237,-48.3Zm-105.867,-35.246c9.85,0 18.691,-4.171 24.969,-10.77c5.449,19.545 23.093,33.977 44.31,33.977c25.51,0 46.186,-20.778 46.186,-46.415c0,-25.637 -20.676,-46.414 -46.186,-46.414c-18.186,0 -33.774,10.66 -41.315,26.035c-6.278,-8.702 -16.418,-14.432 -27.964,-14.432c0,12.112 6.17,22.772 15.551,29.009c-9.381,6.237 -15.551,16.898 -15.551,29.01Zm51.959,-34.811l34.64,0c6.386,0 11.546,5.185 11.546,11.603l-57.732,0c0,-6.418 5.159,-11.603 11.546,-11.603Z" style="fill:#fff;fill-rule:nonzero;"/></g></g><g id="Individuals"><ellipse id="_-Ellipse-3" serif:id="(Ellipse)" cx="1586.09" cy="666.668" rx="253.793" ry="254.145" style="fill:#b04fae;fill-opacity:0.592157;"/><path id="Center4" serif:id="Center" d="M1588.26,404.787c153.459,0 278.049,121.977 278.049,272.218c0,150.241 -124.59,272.218 -278.049,272.218c-153.459,0 -278.048,-121.977 -278.048,-272.218c0,-150.241 124.589,-272.218 278.048,-272.218Zm0,59.641c119.837,0 217.13,95.253 217.13,212.577c0,117.324 -97.293,212.577 -217.13,212.577c-119.837,0 -217.129,-95.253 -217.129,-212.577c0,-117.324 97.292,-212.577 217.129,-212.577Z" style="fill:#92278f;"/><g opacity="0.895635"><path d="M1520.03,660.801c12.166,0 22.057,-9.891 22.057,-22.057c0,-12.166 -9.891,-22.057 -22.057,-22.057c-12.165,0 -22.057,9.891 -22.057,22.057c0,12.166 9.892,22.057 22.057,22.057Zm154.398,0c12.166,0 22.057,-9.891 22.057,-22.057c0,-12.166 -9.891,-22.057 -22.057,-22.057c-12.166,0 -22.057,9.891 -22.057,22.057c0,12.166 9.891,22.057 22.057,22.057Zm11.029,11.028l-22.057,0c-6.066,0 -11.546,2.447 -15.543,6.41c13.889,7.617 23.745,21.368 25.882,37.704l22.746,0c6.1,0 11.028,-4.929 11.028,-11.029l0,-11.028c0,-12.166 -9.891,-22.057 -22.056,-22.057Zm-88.228,0c21.333,0 38.6,-17.266 38.6,-38.599c0,-21.334 -17.267,-38.6 -38.6,-38.6c-21.333,0 -38.599,17.266 -38.599,38.6c0,21.333 17.266,38.599 38.599,38.599Zm26.468,11.028l-2.86,0c-7.169,3.447 -15.13,5.515 -23.608,5.515c-8.478,0 -16.405,-2.068 -23.607,-5.515l-2.861,0c-21.919,0 -39.702,17.784 -39.702,39.703l0,9.925c0,9.133 7.409,16.543 16.542,16.543l99.256,0c9.133,0 16.543,-7.41 16.543,-16.543l0,-9.925c0,-21.919 -17.784,-39.703 -39.703,-39.703Zm-77.095,-4.618c-3.998,-3.963 -9.478,-6.41 -15.543,-6.41l-22.057,0c-12.166,0 -22.057,9.891 -22.057,22.057l0,11.028c0,6.1 4.928,11.029 11.028,11.029l22.712,0c2.171,-16.336 12.028,-30.087 25.917,-37.704Z" style="fill:#fff;fill-rule:nonzero;"/></g></g><g opacity="0.9"><clipPath id="_clip1"><rect x="906.579" y="822.385" width="190.17" height="190.17"/></clipPath><g clip-path="url(#_clip1)"><path d="M1078.29,845.636c-20.354,-17.345 -50.625,-14.225 -69.308,5.052l-7.317,7.54l-7.317,-7.54c-18.646,-19.277 -48.954,-22.397 -69.308,-5.052c-23.326,19.909 -24.551,55.64 -3.677,77.22l71.871,74.21c4.642,4.792 12.182,4.792 16.825,0l71.871,-74.21c20.911,-21.58 19.685,-57.311 -3.64,-77.22Z" style="fill:#fff;fill-rule:nonzero;"/></g></g></g><path d="M803.244,655.158l-1.791,61.057l-64.466,0.579" style="fill:none;stroke:#92278f;stroke-width:31px;"/><path d="M908.751,1206.18l-57.957,19.289l-22.686,-60.345" style="fill:none;stroke:#92278f;stroke-width:31px;"/></svg>