<svg width="302" height="180" viewBox="0 0 302 180" fill="none" xmlns="http://www.w3.org/2000/svg">
<path d="M85.8316 65.6703C85.8316 69.3297 86.229 72.2967 86.9244 74.4725C87.7191 76.6484 88.7125 79.022 90.1033 81.5934C90.6 82.3846 90.7987 83.1758 90.7987 83.8681C90.7987 84.8571 90.2026 85.8462 88.9112 86.8352L82.6526 90.989C81.7586 91.5824 80.8645 91.8791 80.0697 91.8791C79.0763 91.8791 78.0829 91.3846 77.0895 90.4945C75.6987 89.011 74.5066 87.4286 73.5132 85.8462C72.5197 84.1648 71.5263 82.2857 70.4336 80.011C62.6849 89.1099 52.9493 93.6593 41.227 93.6593C32.8822 93.6593 26.2263 91.2857 21.3586 86.5385C16.4908 81.7912 14.0072 75.4615 14.0072 67.5494C14.0072 59.1429 16.9875 52.3187 23.0474 47.1758C29.1072 42.033 37.1539 39.4615 47.3862 39.4615C50.7638 39.4615 54.2408 39.7582 57.9164 40.2527C61.5921 40.7472 65.3671 41.5385 69.3408 42.4286V35.2088C69.3408 27.6923 67.7513 22.4505 64.6717 19.3846C61.4928 16.3187 56.1283 14.8352 48.4789 14.8352C45.002 14.8352 41.4257 15.2308 37.75 16.1209C34.0743 17.011 30.498 18.0989 27.0211 19.4835C25.4316 20.1758 24.2395 20.5714 23.5441 20.7692C22.8487 20.967 22.352 21.0659 21.9546 21.0659C20.5638 21.0659 19.8684 20.0769 19.8684 18V13.1538C19.8684 11.5714 20.0671 10.3846 20.5638 9.6923C21.0605 8.99999 21.9546 8.30769 23.3454 7.61538C26.8224 5.83516 30.9947 4.35164 35.8625 3.16483C40.7303 1.87911 45.8961 1.28571 51.3599 1.28571C63.1816 1.28571 71.8244 3.95604 77.3875 9.2967C82.8513 14.6374 85.6329 22.7472 85.6329 33.6264V65.6703H85.8316ZM45.4987 80.7033C48.777 80.7033 52.1546 80.1099 55.7309 78.9231C59.3072 77.7363 62.4862 75.5604 65.1684 72.5934C66.7579 70.7143 67.95 68.6374 68.5461 66.2637C69.1421 63.8901 69.5395 61.022 69.5395 57.6593V53.5055C66.6586 52.8132 63.5789 52.2198 60.4 51.8242C57.2211 51.4286 54.1415 51.2308 51.0618 51.2308C44.4059 51.2308 39.5382 52.5165 36.2599 55.1868C32.9816 57.8571 31.3921 61.6154 31.3921 66.5604C31.3921 71.2088 32.5842 74.6703 35.0678 77.044C37.452 79.5165 40.9289 80.7033 45.4987 80.7033ZM125.27 91.3846C123.482 91.3846 122.29 91.0879 121.495 90.3956C120.701 89.8022 120.005 88.4176 119.409 86.5385L96.0638 10.0879C95.4678 8.10988 95.1697 6.82417 95.1697 6.13186C95.1697 4.54944 95.9645 3.65933 97.554 3.65933H107.289C109.177 3.65933 110.468 3.95604 111.164 4.64835C111.959 5.24175 112.555 6.62637 113.151 8.50549L129.84 73.978L145.338 8.50549C145.834 6.52747 146.43 5.24175 147.225 4.64835C148.02 4.05494 149.411 3.65933 151.199 3.65933H159.146C161.034 3.65933 162.325 3.95604 163.12 4.64835C163.914 5.24175 164.61 6.62637 165.007 8.50549L180.703 74.7692L197.889 8.50549C198.486 6.52747 199.181 5.24175 199.876 4.64835C200.671 4.05494 201.963 3.65933 203.751 3.65933H212.989C214.579 3.65933 215.473 4.45054 215.473 6.13186C215.473 6.62637 215.374 7.12087 215.274 7.71428C215.175 8.30769 214.976 9.09889 214.579 10.1868L190.638 86.6374C190.041 88.6154 189.346 89.9011 188.551 90.4945C187.757 91.0879 186.465 91.4835 184.776 91.4835H176.233C174.345 91.4835 173.054 91.1868 172.259 90.4945C171.464 89.8022 170.769 88.5165 170.372 86.5385L154.974 22.7472L139.675 86.4396C139.178 88.4176 138.582 89.7033 137.788 90.3956C136.993 91.0879 135.602 91.3846 133.814 91.3846H125.27ZM252.925 94.0549C247.759 94.0549 242.593 93.4615 237.626 92.2747C232.659 91.0879 228.785 89.8022 226.202 88.3187C224.613 87.4286 223.52 86.4396 223.122 85.5494C222.725 84.6593 222.526 83.6703 222.526 82.7802V77.7363C222.526 75.6593 223.321 74.6703 224.811 74.6703C225.407 74.6703 226.003 74.7692 226.599 74.967C227.195 75.1648 228.089 75.5604 229.083 75.956C232.461 77.4396 236.136 78.6264 240.011 79.4176C243.984 80.2088 247.859 80.6044 251.832 80.6044C258.091 80.6044 262.959 79.5165 266.336 77.3407C269.714 75.1648 271.502 72 271.502 67.945C271.502 65.1758 270.608 62.9011 268.82 61.022C267.032 59.1429 263.654 57.4615 258.786 55.8791L244.382 51.4286C237.13 49.1538 231.765 45.7912 228.487 41.3407C225.209 36.989 223.52 32.1428 223.52 27C223.52 22.8461 224.414 19.1868 226.202 16.022C227.99 12.8571 230.374 10.0879 233.355 7.91208C236.335 5.63736 239.713 3.95604 243.686 2.76922C247.66 1.58241 251.832 1.08791 256.203 1.08791C258.389 1.08791 260.674 1.18681 262.859 1.48351C265.144 1.78021 267.23 2.17582 269.316 2.57142C271.303 3.06593 273.191 3.56043 274.979 4.15384C276.767 4.74725 278.158 5.34065 279.151 5.93406C280.542 6.72527 281.536 7.51648 282.132 8.40659C282.728 9.1978 283.026 10.2857 283.026 11.6703V16.3187C283.026 18.3956 282.231 19.4835 280.741 19.4835C279.946 19.4835 278.655 19.0879 276.966 18.2967C271.303 15.7253 264.945 14.4396 257.892 14.4396C252.23 14.4396 247.759 15.3297 244.68 17.2088C241.6 19.0879 240.011 21.956 240.011 26.011C240.011 28.7802 241.004 31.1538 242.991 33.033C244.978 34.9121 248.653 36.7912 253.918 38.4725L268.025 42.9231C275.178 45.1978 280.343 48.3626 283.423 52.4176C286.503 56.4725 287.993 61.1209 287.993 66.2637C287.993 70.5165 287.099 74.3736 285.41 77.7363C283.622 81.0989 281.238 84.0659 278.158 86.4396C275.078 88.9121 271.403 90.6923 267.131 91.978C262.661 93.3626 257.991 94.0549 252.925 94.0549Z" fill="#252F3E"/>
<path fill-rule="evenodd" clip-rule="evenodd" d="M271.701 142.121C239.017 166.154 191.532 178.912 150.702 178.912C93.4809 178.912 41.9224 157.846 2.98026 122.835C-0.0993422 120.066 2.68224 116.308 6.35789 118.484C48.4789 142.813 100.435 157.549 154.179 157.549C190.439 157.549 230.275 150.033 266.932 134.604C272.396 132.132 277.065 138.165 271.701 142.121Z" fill="#FF9900"/>
<path fill-rule="evenodd" clip-rule="evenodd" d="M285.311 126.692C281.138 121.352 257.693 124.121 247.064 125.407C243.885 125.802 243.388 123.033 246.269 120.956C264.945 107.901 295.642 111.659 299.218 116.011C302.795 120.462 298.225 151.022 280.741 165.659C278.059 167.934 275.476 166.747 276.668 163.78C280.641 153.989 289.483 131.934 285.311 126.692Z" fill="#FF9900"/>
</svg>
