<?xml version="1.0" encoding="UTF-8" standalone="no"?>
<!DOCTYPE svg PUBLIC "-//W3C//DTD SVG 1.1//EN" "http://www.w3.org/Graphics/SVG/1.1/DTD/svg11.dtd">
<svg width="100%" height="100%" viewBox="0 0 454 116" version="1.1" xmlns="http://www.w3.org/2000/svg" xmlns:xlink="http://www.w3.org/1999/xlink" xml:space="preserve" xmlns:serif="http://www.serif.com/" style="fill-rule:evenodd;clip-rule:evenodd;stroke-linejoin:round;stroke-miterlimit:1.41421;">
    <g>
        <path d="M19.084,0.676L19.084,54.554L19.195,54.554C19.153,55.289 19.084,56.016 19.084,56.761C19.084,78.199 36.459,95.576 57.898,95.576C59.896,95.576 61.86,95.425 63.777,95.134C60.675,98.24 57.769,101.152 55.178,103.75C41.529,117.437 26.225,113.374 21.198,94.703C16.172,76.032 7.93,45.415 2.903,26.743C-1.284,11.188 5.792,0.781 19.084,0.676ZM64.765,73.563C62.633,74.387 60.319,74.838 57.898,74.838C47.378,74.838 38.85,66.31 38.85,55.792C38.85,45.271 47.378,36.744 57.898,36.744C68.417,36.744 76.943,45.271 76.943,55.792C76.943,63.89 71.89,70.808 64.765,73.563ZM37.865,4.557C56.204,9.442 80.116,15.792 95.708,19.954C114.41,25.039 118.517,40.297 104.869,53.984C102.279,56.581 99.375,59.491 96.274,62.596C96.561,60.693 96.71,58.744 96.71,56.761C96.71,35.328 79.331,17.948 57.898,17.948C49.321,17.948 44.288,18.863 37.865,23.573L37.865,4.557Z" style="fill:url(#_Linear1);fill-rule:nonzero;"/>
    </g>
    <g>
        <path d="M170.827,79.957C178.41,79.957 183.075,74.827 183.075,65.607C183.075,56.276 178.294,50.911 171.062,50.911C168.26,50.911 165.694,51.729 163.711,53.245L163.711,78.209C165.694,79.374 168.144,79.957 170.827,79.957M170.711,92.554C164.179,92.554 158.114,91.271 153.448,88.588C148.08,85.555 148.08,81.705 148.08,77.742L148.08,18.833C148.08,14.633 150.647,12.534 155.896,12.534C161.147,12.534 163.711,14.633 163.711,18.833L163.711,41.229C166.629,39.246 170.478,38.314 174.911,38.314C189.143,38.314 199.055,47.761 199.055,64.559C199.055,81.589 188.908,92.554 170.711,92.554" style="fill:rgb(76,76,78);fill-rule:nonzero;"/>
        <path d="M217.241,75.759C217.241,78.442 218.992,80.543 223.422,80.543C226.456,80.543 229.489,79.492 232.172,77.277L232.172,67.827C222.139,69.111 217.241,71.21 217.241,75.759M224.124,50.913C221.323,50.913 217.941,51.613 214.44,53.248C212.457,54.18 210.941,54.879 209.542,54.879C205.927,54.879 203.593,50.565 203.593,47.531C203.593,45.313 204.876,43.682 207.791,42.047C212.692,39.365 218.873,38.081 225.521,38.081C233.923,38.081 240.104,40.181 243.602,44.265C246.055,47.18 247.219,51.613 247.219,57.329L247.219,85.908C247.219,90.339 245.12,92.324 239.636,92.324C234.971,92.324 233.107,90.922 233.107,87.54L233.107,86.608C229.722,90.455 224.94,92.324 218.64,92.324C207.907,92.324 201.378,86.492 201.378,77.161C201.378,66.663 209.774,60.712 232.172,58.729L232.172,57.913C232.172,53.48 230.186,50.913 224.124,50.913" style="fill:rgb(76,76,78);fill-rule:nonzero;"/>
        <path d="M281.001,50.911C273.418,50.911 268.753,56.044 268.753,65.142C268.753,74.592 273.534,79.841 280.769,79.841C283.568,79.841 286.018,79.022 288.117,77.391L288.117,52.894C286.134,51.61 283.684,50.911 281.001,50.911M278.902,38.314C282.633,38.314 285.902,38.897 288.117,40.297L288.117,18.833C288.117,14.633 290.681,12.534 295.932,12.534C301.181,12.534 303.745,14.633 303.745,18.833L303.745,86.022C303.745,90.339 301.065,92.322 296.049,92.322C291.148,92.322 289.165,90.574 289.165,87.424L289.165,86.724C286.134,90.455 281.585,92.438 275.752,92.438C262.92,92.438 252.771,82.756 252.771,65.958C252.771,48.931 263.155,38.314 278.902,38.314" style="fill:rgb(76,76,78);fill-rule:nonzero;"/>
        <path d="M328.129,86.022C328.129,90.223 325.559,92.322 320.31,92.322C315.062,92.322 312.498,90.223 312.498,86.022L312.498,44.614C312.498,40.41 314.945,38.314 320.078,38.314C325.446,38.314 327.426,40.996 327.31,44.614L327.31,46.945C329.76,41.812 334.545,38.198 340.726,38.198C345.159,38.198 347.142,40.297 347.142,45.194C347.142,50.678 344.691,52.194 340.026,52.426C333.61,52.659 330.46,53.945 328.129,57.562L328.129,86.022Z" style="fill:rgb(76,76,78);fill-rule:nonzero;"/>
        <path d="M363.191,75.759C363.191,78.442 364.939,80.543 369.372,80.543C372.406,80.543 375.437,79.492 378.122,77.277L378.122,67.827C368.089,69.111 363.191,71.21 363.191,75.759M370.074,50.913C367.273,50.913 363.891,51.613 360.392,53.248C358.407,54.18 356.891,54.879 355.492,54.879C351.877,54.879 349.54,50.565 349.54,47.531C349.54,45.313 350.826,43.682 353.744,42.047C358.639,39.365 364.823,38.081 371.471,38.081C379.873,38.081 386.054,40.181 389.555,44.265C392.002,47.18 393.169,51.613 393.169,57.329L393.169,85.908C393.169,90.339 391.07,92.324 385.589,92.324C380.921,92.324 379.054,90.922 379.054,87.54L379.054,86.608C375.672,90.455 370.89,92.324 364.59,92.324C353.857,92.324 347.328,86.492 347.328,77.161C347.328,66.663 355.724,60.712 378.122,58.729L378.122,57.913C378.122,53.48 376.139,50.913 370.074,50.913" style="fill:rgb(76,76,78);fill-rule:nonzero;"/>
        <path d="M424.199,79.722C431.898,79.722 436.561,74.708 436.561,65.491C436.561,56.044 431.779,50.795 424.547,50.795C421.748,50.795 419.298,51.61 417.196,53.245L417.196,77.858C419.182,79.139 421.632,79.722 424.199,79.722M417.196,108.069C417.196,112.267 414.633,114.366 409.384,114.366C404.132,114.366 401.566,112.267 401.566,108.069L401.566,44.614C401.566,40.297 404.132,38.314 409.267,38.314C414.046,38.314 416.148,40.178 416.148,43.212L416.148,43.911C419.182,40.178 423.731,38.314 429.561,38.314C442.393,38.314 452.542,47.877 452.542,64.678C452.542,81.821 442.161,92.438 426.411,92.438C422.68,92.438 419.414,91.738 417.196,90.455L417.196,108.069Z" style="fill:rgb(76,76,78);fill-rule:nonzero;"/>
    </g>
    <defs>
        <linearGradient id="_Linear1" x1="0" y1="0" x2="1" y2="0" gradientUnits="userSpaceOnUse" gradientTransform="matrix(100.384,-27.0238,27.0241,100.383,12.0547,60.738)"><stop offset="0" style="stop-color:rgb(145,38,143);stop-opacity:1"/><stop offset="0.11" style="stop-color:rgb(145,38,143);stop-opacity:1"/><stop offset="0.92" style="stop-color:rgb(238,40,124);stop-opacity:1"/><stop offset="1" style="stop-color:rgb(238,40,124);stop-opacity:1"/></linearGradient>
    </defs>
</svg>
