<svg xmlns="http://www.w3.org/2000/svg" fill-rule="evenodd" stroke-linejoin="round" stroke-miterlimit="2" clip-rule="evenodd" viewBox="0 0 800 800" width="800" height="800"><path fill="#528093" fill-rule="nonzero" d="M204.8 777A281.4 281.4 0 010 506.7c0-154 126.7-280.8 280.8-280.8 20.6 0 41.2 2.3 61.3 6.8L319.5 314A197.4 197.4 0 0084.7 506.7 197.4 197.4 0 00281.2 703a197 197 0 00189-143.2l81.1 22.8A282.5 282.5 0 01204.8 777z"/><path fill="#ec1c24" fill-rule="nonzero" d="M558.5 547.6l-82-23.1A197.4 197.4 0 00353.6 324l22.8-81.3a282 282 0 01182 304.8z"/><path fill="#b4191e" fill-rule="nonzero" d="M674 580.1l-81.4-23A317.2 317.2 0 00385.8 209l22.8-81.2A402 402 0 01674.1 580z"/><path fill="#95171a" fill-rule="nonzero" d="M418.4 93.8l22.8-81.1a522 522 0 01348.1 599.7l-81.3-23A437.4 437.4 0 00418.4 93.9z"/></svg>