<?xml version="1.0" encoding="UTF-8" standalone="no"?><!DOCTYPE svg PUBLIC "-//W3C//DTD SVG 1.1//EN" "http://www.w3.org/Graphics/SVG/1.1/DTD/svg11.dtd"><svg width="100%" height="100%" viewBox="0 0 1906 1841" version="1.1" xmlns="http://www.w3.org/2000/svg" xmlns:xlink="http://www.w3.org/1999/xlink" xml:space="preserve" xmlns:serif="http://www.serif.com/" style="fill-rule:evenodd;clip-rule:evenodd;stroke-linecap:round;stroke-linejoin:round;stroke-miterlimit:1.5;"><rect id="data-breaches-individuals" x="0.613" y="0.238" width="1905.25" height="1840.35" style="fill:none;"/><path d="M771.688,1174.1l53.688,-16.34l20.535,52.203" style="fill:none;stroke:#92278f;stroke-width:31px;"/><g id="Ecosystem"><g opacity="0.895635"><path d="M1431.2,667.876c12.166,0 22.057,-9.891 22.057,-22.056c0,-12.166 -9.891,-22.057 -22.057,-22.057c-12.166,0 -22.057,9.891 -22.057,22.057c0,12.165 9.891,22.056 22.057,22.056Zm154.398,0c12.166,0 22.057,-9.891 22.057,-22.056c0,-12.166 -9.891,-22.057 -22.057,-22.057c-12.166,0 -22.057,9.891 -22.057,22.057c0,12.165 9.891,22.056 22.057,22.056Zm11.028,11.029l-22.057,0c-6.065,0 -11.545,2.447 -15.543,6.41c13.889,7.617 23.746,21.368 25.883,37.704l22.746,0c6.1,0 11.028,-4.929 11.028,-11.029l0,-11.028c0,-12.166 -9.891,-22.057 -22.057,-22.057Zm-88.227,0c21.333,0 38.599,-17.267 38.599,-38.6c0,-21.333 -17.266,-38.599 -38.599,-38.599c-21.333,0 -38.6,17.266 -38.6,38.599c0,21.333 17.267,38.6 38.6,38.6Zm26.468,11.028l-2.86,0c-7.169,3.447 -15.13,5.514 -23.608,5.514c-8.478,0 -16.405,-2.067 -23.608,-5.514l-2.86,0c-21.919,0 -39.703,17.784 -39.703,39.703l0,9.925c0,9.133 7.41,16.543 16.543,16.543l99.256,0c9.133,0 16.542,-7.41 16.542,-16.543l0,-9.925c0,-21.919 -17.783,-39.703 -39.702,-39.703Zm-77.095,-4.618c-3.998,-3.963 -9.478,-6.41 -15.544,-6.41l-22.056,0c-12.166,0 -22.057,9.891 -22.057,22.057l0,11.028c0,6.1 4.928,11.029 11.028,11.029l22.712,0c2.171,-16.336 12.028,-30.087 25.917,-37.704Z" style="fill:#fff;fill-rule:nonzero;"/></g><g opacity="0.9"><path d="M724.473,1415.4l-30.64,0c-2.854,0 -5.6,1.07 -7.705,2.996l-35.063,32.103c-0.036,0.036 -0.071,0.107 -0.107,0.143c-5.921,5.564 -5.814,14.446 -0.749,19.975c4.53,4.958 14.054,6.277 20.011,0.963c0.035,-0.036 0.107,-0.036 0.142,-0.072l28.5,-26.11c2.319,-2.104 5.957,-1.962 8.062,0.357c2.14,2.318 1.961,5.921 -0.357,8.061l-9.31,8.525l51.935,42.162c1.035,0.856 1.962,1.783 2.818,2.746l0,-69.02l-19.476,-19.476c-2.104,-2.14 -5.029,-3.353 -8.061,-3.353Zm38.987,22.9l0,79.864c0,6.314 5.101,11.415 11.414,11.415l22.829,0l0,-91.279l-34.243,0Zm17.121,79.864c-3.138,0 -5.707,-2.568 -5.707,-5.707c0,-3.139 2.569,-5.707 5.707,-5.707c3.139,0 5.708,2.568 5.708,5.707c0,3.139 -2.569,5.707 -5.708,5.707Zm-211.164,11.379l22.829,0c6.313,0 11.414,-5.101 11.414,-11.414l0,-79.829l-34.243,0l0,91.243Zm17.122,-22.793c3.138,0 5.707,2.568 5.707,5.707c0,3.139 -2.569,5.707 -5.707,5.707c-3.139,0 -5.708,-2.568 -5.708,-5.707c0,-3.174 2.569,-5.707 5.708,-5.707Zm155.484,6.635l-53.255,-43.232l-10.701,9.809c-10.594,9.667 -26.824,8.739 -36.276,-1.569c-9.595,-10.487 -8.846,-26.717 1.569,-36.276l29.178,-26.717l-29.891,0c-3.032,0 -5.921,1.213 -8.061,3.353l-19.512,19.476l0,79.864l6.528,0l32.281,29.213c9.773,7.955 24.148,6.457 32.103,-3.317l0.071,-0.071l6.385,5.529c5.671,4.637 14.054,3.745 18.655,-1.927l11.2,-13.768l1.926,1.569c4.887,3.96 12.092,3.246 16.052,-1.676l3.388,-4.173c3.995,-4.923 3.246,-12.092 -1.64,-16.087Z" style="fill:#fff;fill-rule:nonzero;"/></g><g opacity="0.9"><path d="M424.647,375.32l-36.588,36.769l-36.588,-36.769c-24.752,2.212 -44.237,22.844 -44.237,48.3l0,15.085c0,9.609 7.758,17.405 17.32,17.405l127.011,0c9.562,0 17.32,-7.796 17.32,-17.405l0,-15.085c0,-25.456 -19.485,-46.088 -44.238,-48.3Zm-105.867,-35.246c9.851,0 18.691,-4.171 24.97,-10.77c5.448,19.545 23.093,33.977 44.309,33.977c25.511,0 46.186,-20.778 46.186,-46.415c0,-25.637 -20.675,-46.414 -46.186,-46.414c-18.185,0 -33.773,10.66 -41.314,26.035c-6.279,-8.702 -16.418,-14.432 -27.965,-14.432c0,12.112 6.17,22.772 15.552,29.009c-9.382,6.237 -15.552,16.898 -15.552,29.01Zm51.96,-34.811l34.639,0c6.387,0 11.547,5.185 11.547,11.603l-57.733,0c0,-6.418 5.16,-11.603 11.547,-11.603Z" style="fill:#fff;fill-rule:nonzero;"/></g><ellipse cx="778.647" cy="1442.77" rx="0.273" ry="3.448" style="fill:#92278f;"/><path d="M780.825,734.165l-228.531,-217.066l-25.02,26.341l228.531,217.066l25.02,-26.341Z" style="fill:#92278f;"/><path d="M1284.83,746.598l-114.503,49.867l14.405,33.076l114.503,-49.867l-14.405,-33.076Z" style="fill:#92278f;"/><path d="M823.738,1119.29l-66.167,136.138l32.408,15.751l66.167,-136.138l-32.408,-15.751Z" style="fill:#92278f;"/><g id="Center"><ellipse id="_-Ellipse-" serif:id="(Ellipse)" cx="937.7" cy="895.191" rx="253.793" ry="254.145" style="fill:#b04fae;fill-opacity:0.592157;"/><path id="Center1" serif:id="Center" d="M939.875,633.309c153.459,0 278.048,121.977 278.048,272.218c0,150.242 -124.589,272.219 -278.048,272.219c-153.46,0 -278.049,-121.977 -278.049,-272.219c0,-150.241 124.589,-272.218 278.049,-272.218Zm0,59.642c119.837,0 217.129,95.252 217.129,212.576c0,117.325 -97.292,212.577 -217.129,212.577c-119.838,0 -217.13,-95.252 -217.13,-212.577c0,-117.324 97.292,-212.576 217.13,-212.576Z" style="fill:#92278f;"/></g><g id="Enterprises"><ellipse id="_-Ellipse-1" serif:id="(Ellipse)" cx="675.076" cy="1470.95" rx="253.793" ry="254.145" style="fill:#b04fae;fill-opacity:0.592157;"/><path id="Center2" serif:id="Center" d="M677.25,1209.07c153.459,0 278.048,121.977 278.048,272.218c0,150.242 -124.589,272.219 -278.048,272.219c-153.459,0 -278.049,-121.977 -278.049,-272.219c0,-150.241 124.59,-272.218 278.049,-272.218Zm0,59.642c119.837,0 217.129,95.252 217.129,212.576c0,117.325 -97.292,212.577 -217.129,212.577c-119.837,0 -217.13,-95.252 -217.13,-212.577c0,-117.324 97.293,-212.576 217.13,-212.576Z" style="fill:#92278f;"/><g opacity="0.9"><path d="M722.228,1410.18l-30.641,0c-2.853,0 -5.6,1.07 -7.704,2.996l-35.063,32.103c-0.036,0.035 -0.072,0.107 -0.108,0.142c-5.921,5.565 -5.814,14.447 -0.749,19.975c4.53,4.958 14.054,6.278 20.011,0.963c0.036,-0.035 0.107,-0.035 0.143,-0.071l28.5,-26.11c2.318,-2.105 5.957,-1.962 8.061,0.357c2.14,2.318 1.962,5.921 -0.357,8.061l-9.309,8.525l51.935,42.162c1.034,0.856 1.962,1.783 2.818,2.746l0,-69.021l-19.476,-19.475c-2.105,-2.141 -5.029,-3.353 -8.061,-3.353Zm38.987,22.9l0,79.864c0,6.314 5.1,11.414 11.414,11.414l22.828,0l0,-91.278l-34.242,0Zm17.121,79.864c-3.139,0 -5.707,-2.568 -5.707,-5.707c0,-3.139 2.568,-5.707 5.707,-5.707c3.139,0 5.707,2.568 5.707,5.707c0,3.139 -2.568,5.707 -5.707,5.707Zm-211.164,11.379l22.828,0c6.314,0 11.415,-5.101 11.415,-11.415l0,-79.828l-34.243,0l0,91.243Zm17.121,-22.793c3.139,0 5.707,2.568 5.707,5.707c0,3.139 -2.568,5.707 -5.707,5.707c-3.139,0 -5.707,-2.568 -5.707,-5.707c0,-3.175 2.568,-5.707 5.707,-5.707Zm155.484,6.634l-53.255,-43.231l-10.701,9.809c-10.593,9.666 -26.823,8.739 -36.276,-1.57c-9.595,-10.487 -8.846,-26.716 1.57,-36.276l29.178,-26.716l-29.892,0c-3.031,0 -5.921,1.212 -8.061,3.353l-19.511,19.475l0,79.865l6.527,0l32.281,29.213c9.774,7.954 24.149,6.456 32.103,-3.317l0.071,-0.072l6.385,5.529c5.672,4.637 14.054,3.746 18.656,-1.926l11.2,-13.768l1.926,1.569c4.887,3.959 12.092,3.246 16.051,-1.676l3.389,-4.174c3.995,-4.922 3.246,-12.092 -1.641,-16.087Z" style="fill:#fff;fill-rule:nonzero;"/></g></g><g id="Security-researchers" serif:id="Security researchers"><ellipse id="_-Ellipse-2" serif:id="(Ellipse)" cx="373.145" cy="360.391" rx="253.793" ry="254.145" style="fill:#b04fae;fill-opacity:0.592157;"/><path id="Center3" serif:id="Center" d="M375.319,98.51c153.46,0 278.049,121.977 278.049,272.218c0,150.242 -124.589,272.218 -278.049,272.218c-153.459,0 -278.048,-121.976 -278.048,-272.218c0,-150.241 124.589,-272.218 278.048,-272.218Zm0,59.642c119.837,0 217.13,95.252 217.13,212.576c0,117.324 -97.293,212.577 -217.13,212.577c-119.837,0 -217.129,-95.253 -217.129,-212.577c0,-117.324 97.292,-212.576 217.129,-212.576Z" style="fill:#92278f;"/><g opacity="0.9"><path d="M422.402,370.107l-36.588,36.77l-36.588,-36.77c-24.753,2.212 -44.238,22.845 -44.238,48.301l0,15.084c0,9.61 7.758,17.406 17.32,17.406l127.012,0c9.562,0 17.32,-7.796 17.32,-17.406l0,-15.084c0,-25.456 -19.485,-46.089 -44.238,-48.301Zm-105.867,-35.246c9.85,0 18.691,-4.17 24.969,-10.769c5.449,19.545 23.093,33.977 44.31,33.977c25.51,0 46.186,-20.778 46.186,-46.415c0,-25.637 -20.676,-46.415 -46.186,-46.415c-18.186,0 -33.774,10.661 -41.315,26.036c-6.278,-8.703 -16.418,-14.432 -27.964,-14.432c0,12.111 6.17,22.772 15.552,29.009c-9.382,6.237 -15.552,16.898 -15.552,29.009Zm51.959,-34.811l34.64,0c6.386,0 11.546,5.186 11.546,11.604l-57.732,0c0,-6.418 5.159,-11.604 11.546,-11.604Z" style="fill:#fff;fill-rule:nonzero;"/></g></g><g id="Individuals"><ellipse id="_-Ellipse-3" serif:id="(Ellipse)" cx="1521.78" cy="667.388" rx="253.793" ry="254.145" style="fill:#b04fae;fill-opacity:0.592157;"/><path id="Center4" serif:id="Center" d="M1523.95,405.507c153.46,0 278.049,121.976 278.049,272.218c0,150.241 -124.589,272.218 -278.049,272.218c-153.459,0 -278.048,-121.977 -278.048,-272.218c0,-150.242 124.589,-272.218 278.048,-272.218Zm0,59.641c119.837,0 217.13,95.253 217.13,212.577c0,117.324 -97.293,212.576 -217.13,212.576c-119.837,0 -217.129,-95.252 -217.129,-212.576c0,-117.324 97.292,-212.577 217.129,-212.577Z" style="fill:#92278f;stroke:#70005f;stroke-width:10px;stroke-linecap:butt;stroke-miterlimit:1.41421;"/><g opacity="0.895635"><path d="M1455.72,661.52c12.166,0 22.057,-9.891 22.057,-22.057c0,-12.165 -9.891,-22.056 -22.057,-22.056c-12.165,0 -22.056,9.891 -22.056,22.056c0,12.166 9.891,22.057 22.056,22.057Zm154.398,0c12.166,0 22.057,-9.891 22.057,-22.057c0,-12.165 -9.891,-22.056 -22.057,-22.056c-12.165,0 -22.057,9.891 -22.057,22.056c0,12.166 9.892,22.057 22.057,22.057Zm11.029,11.029l-22.057,0c-6.066,0 -11.545,2.447 -15.543,6.41c13.889,7.617 23.745,21.368 25.882,37.703l22.746,0c6.1,0 11.029,-4.928 11.029,-11.028l0,-11.028c0,-12.166 -9.892,-22.057 -22.057,-22.057Zm-88.228,0c21.333,0 38.6,-17.267 38.6,-38.6c0,-21.333 -17.267,-38.599 -38.6,-38.599c-21.333,0 -38.599,17.266 -38.599,38.599c0,21.333 17.266,38.6 38.599,38.6Zm26.469,11.028l-2.861,0c-7.168,3.447 -15.13,5.514 -23.608,5.514c-8.478,0 -16.404,-2.067 -23.607,-5.514l-2.861,0c-21.919,0 -39.702,17.784 -39.702,39.703l0,9.925c0,9.133 7.41,16.543 16.542,16.543l99.256,0c9.133,0 16.543,-7.41 16.543,-16.543l0,-9.925c0,-21.919 -17.783,-39.703 -39.702,-39.703Zm-77.096,-4.618c-3.998,-3.963 -9.478,-6.41 -15.543,-6.41l-22.057,0c-12.166,0 -22.057,9.891 -22.057,22.057l0,11.028c0,6.1 4.928,11.028 11.029,11.028l22.711,0c2.171,-16.335 12.028,-30.086 25.917,-37.703Z" style="fill:#fff;fill-rule:nonzero;"/></g></g><path d="M1222.52,751.548l51.461,22.39l-18.234,53.051" style="fill:none;stroke:#92278f;stroke-width:31px;"/><g opacity="0.9"><clipPath id="_clip1"><rect x="849.407" y="829.072" width="190.17" height="190.17"/></clipPath><g clip-path="url(#_clip1)"><path d="M1021.12,852.323c-20.354,-17.345 -50.625,-14.225 -69.308,5.052l-7.317,7.54l-7.317,-7.54c-18.645,-19.277 -48.953,-22.397 -69.308,-5.052c-23.325,19.909 -24.551,55.64 -3.677,77.22l71.871,74.21c4.643,4.792 12.183,4.792 16.826,0l71.87,-74.21c20.912,-21.58 19.686,-57.311 -3.64,-77.22Z" style="fill:#fff;fill-rule:nonzero;"/></g></g></g></svg>