<?xml version="1.0" encoding="UTF-8" standalone="no"?><!DOCTYPE svg PUBLIC "-//W3C//DTD SVG 1.1//EN" "http://www.w3.org/Graphics/SVG/1.1/DTD/svg11.dtd"><svg width="100%" height="100%" viewBox="0 0 557 598" version="1.1" xmlns="http://www.w3.org/2000/svg" xmlns:xlink="http://www.w3.org/1999/xlink" xml:space="preserve" xmlns:serif="http://www.serif.com/" style="fill-rule:evenodd;clip-rule:evenodd;stroke-linejoin:round;stroke-miterlimit:1.41421;"><g id="individuals-icon"><g id="individuals-icon1" serif:id="individuals-icon"><ellipse id="_-Ellipse-" serif:id="(Ellipse)" cx="276.713" cy="315.062" rx="253.793" ry="254.145" style="fill:#b04fae;fill-opacity:0.592157;"/><path id="Center" d="M278.887,53.18c153.459,0 278.049,121.977 278.049,272.218c0,150.242 -124.59,272.219 -278.049,272.219c-153.459,0 -278.049,-121.977 -278.049,-272.219c0,-150.241 124.59,-272.218 278.049,-272.218Zm0,59.642c119.837,0 217.13,95.252 217.13,212.576c0,117.325 -97.293,212.577 -217.13,212.577c-119.837,0 -217.13,-95.252 -217.13,-212.577c0,-117.324 97.293,-212.576 217.13,-212.576Z" style="fill:#92278f;"/><g opacity="0.895635"><path d="M210.652,309.194c12.166,0 22.057,-9.891 22.057,-22.057c0,-12.166 -9.891,-22.057 -22.057,-22.057c-12.166,0 -22.057,9.891 -22.057,22.057c0,12.166 9.891,22.057 22.057,22.057Zm154.398,0c12.166,0 22.057,-9.891 22.057,-22.057c0,-12.166 -9.891,-22.057 -22.057,-22.057c-12.166,0 -22.057,9.891 -22.057,22.057c0,12.166 9.891,22.057 22.057,22.057Zm11.028,11.028l-22.056,0c-6.066,0 -11.546,2.447 -15.544,6.411c13.889,7.616 23.746,21.367 25.883,37.703l22.746,0c6.1,0 11.028,-4.928 11.028,-11.028l0,-11.029c0,-12.166 -9.891,-22.057 -22.057,-22.057Zm-88.227,0c21.333,0 38.6,-17.266 38.6,-38.599c0,-21.333 -17.267,-38.6 -38.6,-38.6c-21.333,0 -38.599,17.267 -38.599,38.6c0,21.333 17.266,38.599 38.599,38.599Zm26.468,11.029l-2.86,0c-7.169,3.446 -15.13,5.514 -23.608,5.514c-8.478,0 -16.405,-2.068 -23.608,-5.514l-2.86,0c-21.919,0 -39.702,17.783 -39.702,39.702l0,9.926c0,9.133 7.409,16.542 16.542,16.542l99.256,0c9.133,0 16.543,-7.409 16.543,-16.542l0,-9.926c0,-21.919 -17.784,-39.702 -39.703,-39.702Zm-77.095,-4.618c-3.998,-3.964 -9.478,-6.411 -15.543,-6.411l-22.057,0c-12.166,0 -22.057,9.891 -22.057,22.057l0,11.029c0,6.1 4.928,11.028 11.028,11.028l22.712,0c2.171,-16.336 12.028,-30.087 25.917,-37.703Z" style="fill:#fff;fill-rule:nonzero;"/></g></g><g id="Text" transform="matrix(1,0,0,1,-1345.28,-392.662)"><g transform="matrix(0.855776,-0.517346,0.517346,0.855776,-34.2883,825.543)"><text x="1463.51px" y="474.269px" style="font-family:'Montserrat-Bold', 'Montserrat';font-weight:700;font-size:48px;fill:#92278f;">I</text></g><g transform="matrix(0.902122,-0.431481,0.431481,0.902122,-55.8066,683.398)"><text x="1478.43px" y="464.707px" style="font-family:'Montserrat-Bold', 'Montserrat';font-weight:700;font-size:48px;fill:#92278f;">N</text></g><g transform="matrix(0.954798,-0.297257,0.297257,0.954798,-64.2757,470.882)"><text x="1516.15px" y="446.784px" style="font-family:'Montserrat-Bold', 'Montserrat';font-weight:700;font-size:48px;fill:#92278f;">D</text></g><g transform="matrix(0.978717,-0.205216,0.205216,0.978717,-56.1548,328.576)"><text x="1556.01px" y="435.014px" style="font-family:'Montserrat-Bold', 'Montserrat';font-weight:700;font-size:48px;fill:#92278f;">I</text></g><g transform="matrix(0.993302,-0.115549,0.115549,0.993302,-39.2731,184.644)"><text x="1572.99px" y="431.068px" style="font-family:'Montserrat-Bold', 'Montserrat';font-weight:700;font-size:48px;fill:#92278f;">V</text></g><g transform="matrix(0.99961,-0.0279235,0.0279235,0.99961,-11.3038,45.1142)"><text x="1609.67px" y="427.293px" style="font-family:'Montserrat-Bold', 'Montserrat';font-weight:700;font-size:48px;fill:#92278f;">I</text></g><g transform="matrix(0.997402,0.0720404,-0.0720404,0.997402,34.9354,-116.134)"><text x="1627.44px" y="426.245px" style="font-family:'Montserrat-Bold', 'Montserrat';font-weight:700;font-size:48px;fill:#92278f;">D</text></g><g transform="matrix(0.978952,0.204089,-0.204089,0.978952,122.794,-331.734)"><text x="1669.73px" y="429.468px" style="font-family:'Montserrat-Bold', 'Montserrat';font-weight:700;font-size:48px;fill:#92278f;">U</text></g><g transform="matrix(0.943958,0.330067,-0.330067,0.943958,240.243,-539.439)"><text x="1708.66px" y="437.747px" style="font-family:'Montserrat-Bold', 'Montserrat';font-weight:700;font-size:48px;fill:#92278f;">A</text></g><g transform="matrix(0.895796,0.444464,-0.444464,0.895796,382.352,-728.89)"><text x="1745.66px" y="450.988px" style="font-family:'Montserrat-Bold', 'Montserrat';font-weight:700;font-size:48px;fill:#92278f;">L</text></g><g transform="matrix(0.846981,0.531624,-0.531624,0.846981,518.394,-871.648)"><text x="1773.35px" y="464.686px" style="font-family:'Montserrat-Bold', 'Montserrat';font-weight:700;font-size:48px;fill:#92278f;">S</text></g></g></g></svg>