<?xml version="1.0" encoding="UTF-8" standalone="no"?><!DOCTYPE svg PUBLIC "-//W3C//DTD SVG 1.1//EN" "http://www.w3.org/Graphics/SVG/1.1/DTD/svg11.dtd"><svg width="100%" height="100%" viewBox="0 0 557 545" version="1.1" xmlns="http://www.w3.org/2000/svg" xmlns:xlink="http://www.w3.org/1999/xlink" xml:space="preserve" xmlns:serif="http://www.serif.com/" style="fill-rule:evenodd;clip-rule:evenodd;stroke-linejoin:round;stroke-miterlimit:1.41421;"><g id="researcher-icon"><ellipse id="_-Ellipse-" serif:id="(Ellipse)" cx="276.077" cy="262.065" rx="253.793" ry="254.145" style="fill:#b04fae;fill-opacity:0.592157;"/><path id="Center" d="M278.251,0.184c153.459,0 278.049,121.977 278.049,272.218c0,150.241 -124.59,272.218 -278.049,272.218c-153.459,0 -278.049,-121.977 -278.049,-272.218c0,-150.241 124.59,-272.218 278.049,-272.218Zm0,59.641c119.837,0 217.13,95.253 217.13,212.577c0,117.324 -97.293,212.576 -217.13,212.576c-119.837,0 -217.13,-95.252 -217.13,-212.576c0,-117.324 97.293,-212.577 217.13,-212.577Z" style="fill:#92278f;"/><g opacity="0.9"><path d="M318.846,284.182l-36.588,36.769l-36.588,-36.769c-24.753,2.212 -44.238,22.844 -44.238,48.3l0,15.085c0,9.609 7.758,17.405 17.32,17.405l127.011,0c9.562,0 17.32,-7.796 17.32,-17.405l0,-15.085c0,-25.456 -19.485,-46.088 -44.237,-48.3Zm-105.867,-35.246c9.85,0 18.69,-4.171 24.969,-10.77c5.448,19.545 23.093,33.977 44.31,33.977c25.51,0 46.186,-20.778 46.186,-46.415c0,-25.637 -20.676,-46.414 -46.186,-46.414c-18.186,0 -33.774,10.66 -41.315,26.035c-6.279,-8.702 -16.418,-14.432 -27.964,-14.432c0,12.112 6.17,22.772 15.551,29.009c-9.381,6.237 -15.551,16.898 -15.551,29.01Zm51.959,-34.811l34.639,0c6.387,0 11.547,5.185 11.547,11.603l-57.733,0c0,-6.418 5.16,-11.603 11.547,-11.603Z" style="fill:#fff;fill-rule:nonzero;"/></g></g></svg>