<?xml version="1.0" encoding="UTF-8" standalone="no"?><!DOCTYPE svg PUBLIC "-//W3C//DTD SVG 1.1//EN" "http://www.w3.org/Graphics/SVG/1.1/DTD/svg11.dtd"><svg width="100%" height="100%" viewBox="0 0 557 664" version="1.1" xmlns="http://www.w3.org/2000/svg" xmlns:xlink="http://www.w3.org/1999/xlink" xml:space="preserve" xmlns:serif="http://www.serif.com/" style="fill-rule:evenodd;clip-rule:evenodd;stroke-linejoin:round;stroke-miterlimit:1.41421;"><g id="researchers-icon"><g id="researcher-rect"><ellipse id="_-Ellipse-" serif:id="(Ellipse)" cx="276.077" cy="317.065" rx="253.793" ry="254.145" style="fill:#b04fae;fill-opacity:0.592157;"/><path id="Center" d="M278.251,55.184c153.459,0 278.049,121.977 278.049,272.218c0,150.241 -124.59,272.218 -278.049,272.218c-153.459,0 -278.049,-121.977 -278.049,-272.218c0,-150.241 124.59,-272.218 278.049,-272.218Zm0,59.641c119.837,0 217.13,95.253 217.13,212.577c0,117.324 -97.293,212.576 -217.13,212.576c-119.837,0 -217.13,-95.252 -217.13,-212.576c0,-117.324 97.293,-212.577 217.13,-212.577Z" style="fill:#92278f;"/><g opacity="0.9"><path d="M318.846,339.182l-36.588,36.769l-36.588,-36.769c-24.753,2.212 -44.238,22.844 -44.238,48.3l0,15.085c0,9.609 7.758,17.405 17.32,17.405l127.011,0c9.562,0 17.32,-7.796 17.32,-17.405l0,-15.085c0,-25.456 -19.485,-46.088 -44.237,-48.3Zm-105.867,-35.246c9.85,0 18.69,-4.171 24.969,-10.77c5.448,19.545 23.093,33.977 44.31,33.977c25.51,0 46.186,-20.778 46.186,-46.415c0,-25.637 -20.676,-46.414 -46.186,-46.414c-18.186,0 -33.774,10.66 -41.315,26.035c-6.279,-8.702 -16.418,-14.432 -27.964,-14.432c0,12.112 6.17,22.772 15.551,29.009c-9.381,6.237 -15.551,16.898 -15.551,29.01Zm51.959,-34.811l34.639,0c6.387,0 11.547,5.185 11.547,11.603l-57.733,0c0,-6.418 5.16,-11.603 11.547,-11.603Z" style="fill:#fff;fill-rule:nonzero;"/></g></g><g id="Text" transform="matrix(1,0,0,1,-1347.67,-392.313)"><g transform="matrix(0.923367,-0.383918,0.383918,0.923367,-60.1344,611.02)"><text x="1500.49px" y="456.142px" style="font-family:'Montserrat-Bold', 'Montserrat';font-weight:700;font-size:48px;fill:#92278f;">S</text></g><g transform="matrix(0.961019,-0.276484,0.276484,0.961019,-62.9559,440.554)"><text x="1530.88px" y="443.541px" style="font-family:'Montserrat-Bold', 'Montserrat';font-weight:700;font-size:48px;fill:#92278f;">E</text></g><g transform="matrix(0.986628,-0.162988,0.162988,0.986628,-49.8182,260.726)"><text x="1564.06px" y="433.975px" style="font-family:'Montserrat-Bold', 'Montserrat';font-weight:700;font-size:48px;fill:#92278f;">C</text></g><g transform="matrix(0.999248,-0.0387774,0.0387774,0.999248,-15.3895,62.4039)"><text x="1600.99px" y="427.92px" style="font-family:'Montserrat-Bold', 'Montserrat';font-weight:700;font-size:48px;fill:#92278f;">U</text></g><g transform="matrix(0.995808,0.0914723,-0.0914723,0.995808,45.8967,-148.362)"><text x="1641.48px" y="426.522px" style="font-family:'Montserrat-Bold', 'Montserrat';font-weight:700;font-size:48px;fill:#92278f;">R</text></g><g transform="matrix(0.984457,0.175626,-0.175626,0.984457,101.664,-288.059)"><text x="1678.27px" y="430.337px" style="font-family:'Montserrat-Bold', 'Montserrat';font-weight:700;font-size:48px;fill:#92278f;">I</text></g><g transform="matrix(0.967247,0.253839,-0.253839,0.967247,165.492,-416.185)"><text x="1695.46px" y="433.188px" style="font-family:'Montserrat-Bold', 'Montserrat';font-weight:700;font-size:48px;fill:#92278f;">T</text></g><g transform="matrix(0.934489,0.355992,-0.355992,0.934489,270.076,-585.406)"><text x="1725.61px" y="441.105px" style="font-family:'Montserrat-Bold', 'Montserrat';font-weight:700;font-size:48px;fill:#92278f;">Y</text></g><g transform="matrix(0.820328,0.571894,-0.571894,0.820328,819.299,-638.686)"><text x="1426.11px" y="984.564px" style="font-family:'Montserrat-Bold', 'Montserrat';font-weight:700;font-size:48px;fill:#92278f;">R</text></g><g transform="matrix(0.88177,0.471679,-0.471679,0.88177,647.929,-569.448)"><text x="1459.88px" y="1007.74px" style="font-family:'Montserrat-Bold', 'Montserrat';font-weight:700;font-size:48px;fill:#92278f;">E</text></g><g transform="matrix(0.92733,0.374245,-0.374245,0.92733,492.139,-484.233)"><text x="1492.95px" y="1025.12px" style="font-family:'Montserrat-Bold', 'Montserrat';font-weight:700;font-size:48px;fill:#92278f;">S</text></g><g transform="matrix(0.963941,0.266114,-0.266114,0.963941,331.393,-368.799)"><text x="1526.58px" y="1038.45px" style="font-family:'Montserrat-Bold', 'Montserrat';font-weight:700;font-size:48px;fill:#92278f;">E</text></g><g transform="matrix(0.98858,0.150694,-0.150694,0.98858,175.834,-223.576)"><text x="1563.09px" y="1048.38px" style="font-family:'Montserrat-Bold', 'Montserrat';font-weight:700;font-size:48px;fill:#92278f;">A</text></g><g transform="matrix(0.999764,0.0217464,-0.0217464,0.999764,23.3111,-34.669)"><text x="1605.71px" y="1054.49px" style="font-family:'Montserrat-Bold', 'Montserrat';font-weight:700;font-size:48px;fill:#92278f;">R</text></g><g transform="matrix(0.99533,-0.0965285,0.0965285,0.99533,-94.1612,163.88)"><text x="1646.69px" y="1055.14px" style="font-family:'Montserrat-Bold', 'Montserrat';font-weight:700;font-size:48px;fill:#92278f;">C</text></g><g transform="matrix(0.974711,-0.223471,0.223471,0.974711,-192.155,403.772)"><text x="1687.9px" y="1050.88px" style="font-family:'Montserrat-Bold', 'Montserrat';font-weight:700;font-size:48px;fill:#92278f;">H</text></g><g transform="matrix(0.938105,-0.346352,0.346352,0.938105,-253.135,664.121)"><text x="1731.57px" y="1040.3px" style="font-family:'Montserrat-Bold', 'Montserrat';font-weight:700;font-size:48px;fill:#92278f;">E</text></g><g transform="matrix(0.889637,-0.456669,0.456669,0.889637,-273.946,920.399)"><text x="1767.27px" y="1026.97px" style="font-family:'Montserrat-Bold', 'Montserrat';font-weight:700;font-size:48px;fill:#92278f;">R</text></g><g transform="matrix(0.833243,-0.552907,0.552907,0.833243,-256.688,1165.13)"><text x="1803.24px" y="1008.11px" style="font-family:'Montserrat-Bold', 'Montserrat';font-weight:700;font-size:48px;fill:#92278f;">S</text></g></g></g></svg>