<svg xmlns="http://www.w3.org/2000/svg" fill-rule="evenodd" stroke-linejoin="round" stroke-miterlimit="2" clip-rule="evenodd" viewBox="0 0 100 100" width="100" height="100"><path fill="url(#_Linear1)" d="M389.53 78.72a40.32 40.32 0 0055.84 37.21l-8.29-14.34a23.99 23.99 0 11.06-45.73l8.28-14.34a40.32 40.32 0 00-55.9 37.2zm62.2-5.68h16.6a23.98 23.98 0 0123.24-18.09c11.2 0 20.6 7.7 23.22 18.09h16.62a40.3 40.3 0 00-39.84-34.42 40.3 40.3 0 00-39.84 34.42zM606.6 40.57l-17.6 53.4-17.62-53.4h-19.42l-10.59 76.7h15.42l7.29-51.6 17.02 51.6h15.76l17.04-51.6 7.29 51.6h15.37l-10.6-76.7h-19.36zm-319.67 0v15.86l52.17-.05v-15.8h-52.17zm-173.76 0V53.7l27.97-.04c10.52 0 15 3.27 15 10.92 0 7.08-3.8 10.48-12.32 11.02l-30.65.01v41.68h15.9V90.42h13.6l14.82 26.86h17.04l-14.77-26.86h39.5l-11.32 26.86h16.22l11.32-26.86h23.85l11.32 26.86h16.22l-11.32-26.86h31.4l.02 26.86h15.32V90.42h31.08V75.55l-84.08.02-14.6-34.62h-16.22l14.6 34.62-63.52.01c.77-1.55 2.4-5.24 2.4-11.43 0-15.86-9.84-23.57-30.07-23.57h-28.71zm244.48 0l.04 76.7h15.32v-76.7h-15.36zm-319.2.02v14.74h23.6v62.17h14.75V55.33h22.85V40.6h-61.2zm475.57 46.7a23.98 23.98 0 01-22.46 15.64c-10.3 0-19.07-6.5-22.47-15.63h-16.97a40.32 40.32 0 0078.88 0h-16.98z" transform="matrix(.1672 0 0 .1672 -6.43 36.82)"/><defs><linearGradient id="_Linear1" x1="0" x2="1" y1="0" y2="0" gradientTransform="rotate(180 318.28 39.41) scale(598.11)" gradientUnits="userSpaceOnUse"><stop offset="0" stop-color="#125caa"/><stop offset=".2" stop-color="#115dab"/><stop offset=".3" stop-color="#0f68ab"/><stop offset=".4" stop-color="#0e90af"/><stop offset=".5" stop-color="#0faaae"/><stop offset=".6" stop-color="#0fa593"/><stop offset=".7" stop-color="#189d66"/><stop offset=".8" stop-color="#1c9b50"/><stop offset="1" stop-color="#199948"/></linearGradient></defs></svg>